<?xml version="1.0" encoding="UTF-8" standalone="no"?>
<svg
   xmlns:dc="http://purl.org/dc/elements/1.1/"
   xmlns:cc="http://creativecommons.org/ns#"
   xmlns:rdf="http://www.w3.org/1999/02/22-rdf-syntax-ns#"
   xmlns:svg="http://www.w3.org/2000/svg"
   xmlns="http://www.w3.org/2000/svg"
   xmlns:xlink="http://www.w3.org/1999/xlink"
   xmlns:sodipodi="http://sodipodi.sourceforge.net/DTD/sodipodi-0.dtd"
   xmlns:inkscape="http://www.inkscape.org/namespaces/inkscape"
   width="64"
   height="64"
   viewBox="0 0 16.933333 16.933334"
   version="1.1"
   id="svg8"
   inkscape:version="1.0.2 (e86c870879, 2021-01-15)"
   sodipodi:docname="7BD8_halo.0.svg">
  <defs
     id="defs2">
    <linearGradient
       id="linearGradient1049"
       x1="35.889"
       x2="35.889"
       y1="14.865"
       y2="31.173"
       gradientTransform="matrix(1.5625,0,0,1.5625,-8.1072,-10.908)"
       gradientUnits="userSpaceOnUse">
      <stop
         stop-color="#ff1e32"
         offset="0"
         id="stop23" />
      <stop
         stop-color="#ff5064"
         offset="1"
         id="stop25" />
    </linearGradient>
    <linearGradient
       id="linearGradient1067"
       x1="34.426998"
       x2="34.426998"
       y1="32.234001"
       y2="39.768002"
       gradientTransform="matrix(1,0,0,1.2271,5.7554,-25.761)"
       gradientUnits="userSpaceOnUse"
       xlink:href="#linearGradient1057" />
    <linearGradient
       id="linearGradient1057">
      <stop
         stop-color="#fff"
         offset="0"
         id="stop4" />
      <stop
         stop-color="#fff"
         stop-opacity="0"
         offset="1"
         id="stop6" />
    </linearGradient>
    <linearGradient
       id="linearGradient1047"
       x1="15.245"
       x2="15.245"
       y1="27.216999"
       y2="10.98"
       gradientTransform="matrix(1.5625,0,0,1.5625,-9.2253,1.3231)"
       gradientUnits="userSpaceOnUse">
      <stop
         stop-color="#14dc78"
         offset="0"
         id="stop18" />
      <stop
         stop-color="#14a03c"
         offset="1"
         id="stop20" />
    </linearGradient>
    <linearGradient
       id="linearGradient1063"
       x1="34.426998"
       x2="34.426998"
       y1="32.234001"
       y2="39.768002"
       gradientTransform="matrix(1,0,0,1.2271,-12.55,-19.793)"
       gradientUnits="userSpaceOnUse"
       xlink:href="#linearGradient1057" />
    <linearGradient
       id="linearGradient982"
       x1="16.919001"
       x2="16.919001"
       y1="37.106998"
       y2="21.003"
       gradientTransform="matrix(1.5625,0,0,1.5625,0.40633,-5.1891)"
       gradientUnits="userSpaceOnUse">
      <stop
         stop-color="#32b4ff"
         offset="0"
         id="stop9" />
      <stop
         stop-color="#0c35f9"
         offset="1"
         id="stop11" />
    </linearGradient>
    <linearGradient
       id="linearGradient1059"
       x1="34.426998"
       x2="34.426998"
       y1="32.234001"
       y2="39.768002"
       gradientTransform="matrix(1,0,0,1.2271,0.20646,-10.975)"
       gradientUnits="userSpaceOnUse"
       xlink:href="#linearGradient1057" />
    <filter
       id="filter3001"
       x="-0.029503001"
       y="-0.046935"
       width="1.059"
       height="1.0939"
       color-interpolation-filters="sRGB">
      <feGaussianBlur
         stdDeviation="0.23473412"
         id="feGaussianBlur148" />
    </filter>
    <linearGradient
       id="linearGradient2349"
       x1="33.337002"
       x2="31.709999"
       y1="42.984001"
       y2="26.577"
       gradientTransform="translate(108.61981,-4.85e-4)"
       gradientUnits="userSpaceOnUse">
      <stop
         stop-color="#aaf8ad"
         offset="0"
         id="stop151" />
      <stop
         stop-color="#fff"
         offset="1"
         id="stop153" />
    </linearGradient>
    <linearGradient
       inkscape:collect="always"
       xlink:href="#linearGradient1113"
       id="linearGradient1115"
       x1="-29.448217"
       y1="4.6370807"
       x2="-29.448217"
       y2="59.494377"
       gradientUnits="userSpaceOnUse"
       gradientTransform="matrix(0.26458333,0,0,0.26458333,16.938104,2.4913841)" />
    <linearGradient
       inkscape:collect="always"
       id="linearGradient1113">
      <stop
         style="stop-color:#ffffff;stop-opacity:1"
         offset="0"
         id="stop1109" />
      <stop
         style="stop-color:#ccd4da;stop-opacity:1"
         offset="1"
         id="stop1111" />
    </linearGradient>
  </defs>
  <sodipodi:namedview
     id="base"
     pagecolor="#ffffff"
     bordercolor="#666666"
     borderopacity="1.0"
     inkscape:pageopacity="0.0"
     inkscape:pageshadow="2"
     inkscape:zoom="3.959798"
     inkscape:cx="39.375607"
     inkscape:cy="27.781923"
     inkscape:document-units="mm"
     inkscape:current-layer="layer1"
     inkscape:document-rotation="0"
     showgrid="false"
     units="px"
     inkscape:window-width="1920"
     inkscape:window-height="992"
     inkscape:window-x="0"
     inkscape:window-y="0"
     inkscape:window-maximized="1" />
  <metadata
     id="metadata5">
    <rdf:RDF>
      <cc:Work
         rdf:about="">
        <dc:format>image/svg+xml</dc:format>
        <dc:type
           rdf:resource="http://purl.org/dc/dcmitype/StillImage" />
        <dc:title></dc:title>
      </cc:Work>
    </rdf:RDF>
  </metadata>
  <g
     inkscape:label="图层 1"
     inkscape:groupmode="layer"
     id="layer1">
    <g
       id="g2087"
       transform="translate(-0.08595815,-2.4913838)">
      <rect
         style="fill:url(#linearGradient1115);fill-opacity:1;stroke-width:0.125125;image-rendering:optimizeSpeed"
         id="rect1107"
         width="14.552083"
         height="14.552083"
         x="1.2765833"
         y="3.682009"
         ry="3.4395833" />
      <g
         transform="matrix(0.37041666,0,0,0.37041666,21.948743,1.3720379)"
         id="g36">
        <path
           d="m -43.665,26.879 c 1.6388,-3 1,-5.8936 1,-9 l 10.159,-1.5626 1.8415,2.5626 -2,2 h -2 c -1,0 -2,0 -2,2 0,3.1675 -2,6 -3,9.1935 l -4,-3.1935 z"
           fill="#2e2e2e"
           fill-rule="evenodd"
           id="path8" />
        <circle
           cx="-34.165001"
           cy="19.379"
           r="0.5"
           fill="#a11919"
           style="paint-order:normal"
           id="circle10" />
        <g
           transform="translate(-59.665,0.87863)"
           fill="#333333"
           fill-rule="evenodd"
           id="g16">
          <path
             d="m 21,23 -2,6 v 3 l 3,-9 v -6 h -1 z"
             id="path12" />
          <path
             d="m 18,23 -1,3 v 3 l 2,-6 v -6 h -1 z"
             id="path14" />
        </g>
        <g
           fill-rule="evenodd"
           id="g34">
          <path
             d="m -32.101,16.881 c -1.5471,0.0013 -2.9803,0.01328 -4.3066,0.03516 l -6.2578,0.96289 c 0,0.94888 0.05571,1.8767 0.0918,2.7949 1.8232,-0.79133 5.4399,-0.79492 6.9082,-0.79492 l 1,-1 c 2.237,0 3.2022,0.01347 3.6367,0.36328 l 0.36328,-0.36328 -1.4355,-1.998 z"
             opacity="0.1"
             id="path18" />
          <path
             d="m -44.665,22.879 -4,1 c 1.4626,7.3551 10.574,11.982 15.564,12 l 2.4358,-2 -1,-4 c -5,0 -11.605,-1 -13,-7 z"
             fill="#334a6d"
             id="path20" />
          <path
             d="m -41.665,29.879 c -1,0 -1.7505,1.0128 -2.1641,1.5156 3.3986,2.8423 7.7791,4.4735 10.729,4.4844 l 0.06055,-0.05078 c -0.3101,-2.4346 -0.86916,-1.0713 -4.625,-2.9492 -2,-1 -2,-3 -4,-3 z"
             fill="#2e2e2e"
             id="path22" />
          <path
             d="m -28.665,20.879 c 1.2791,5.672 1.0271,5.4832 -1,8 l 3,2 c 3.5578,-2.9581 2.9829,-5.4157 2,-9 -1.0677,-1.5509 -2.4944,-1.4564 -4,-1 z"
             fill="#2e2e2e"
             id="path24" />
          <path
             d="m -27.019,20.586 c -0.52764,0.0017 -1.0819,0.12181 -1.6465,0.29297 0.02974,0.13189 0.04809,0.22199 0.07617,0.34766 0.3673,0.17966 0.61565,0.40772 0.92383,0.65234 l 3.2129,0.80273 c -0.06955,-0.26505 -0.1367,-0.52491 -0.21289,-0.80273 -0.6673,-0.96933 -1.4741,-1.2958 -2.3535,-1.293 z"
             opacity="0.1"
             id="path26" />
          <path
             d="m -24.665,21.879 1,-1 c -0.49353,-2.1464 -4.7044,-4 -8,-5 -11,0 -17,0 -17,4 l 4,1 c 0,-2 6,-2 8,-2 l 1,-1 c 4,0 4,0 4,2 2,0 2.3372,0.47392 3,1"
             fill="#334a6d"
             id="path28" />
          <path
             d="m -47.665,20.129 v 0.5 l 2,0.5 v -0.5 z"
             fill="#4ae355"
             id="path30" />
          <path
             d="m -45.665,22.629 -2,0.5 v 0.5 l 2,-0.5 z"
             fill="#4ae355"
             id="path32" />
        </g>
      </g>
    </g>
  </g>
</svg>
