<?xml version="1.0" encoding="UTF-8"?>
<svg width="64" height="64" version="1.1" viewBox="0 0 16.933 16.933" xmlns="http://www.w3.org/2000/svg" xmlns:cc="http://creativecommons.org/ns#" xmlns:dc="http://purl.org/dc/elements/1.1/" xmlns:rdf="http://www.w3.org/1999/02/22-rdf-syntax-ns#" xmlns:xlink="http://www.w3.org/1999/xlink">
 <defs>
  <linearGradient id="linearGradient1088">
   <stop stop-color="#919ba5" offset="0"/>
   <stop stop-color="#646e78" offset="1"/>
  </linearGradient>
  <filter id="filter967" x="-.084" y="-.084" width="1.168" height="1.168" color-interpolation-filters="sRGB">
   <feGaussianBlur stdDeviation="0.30558774"/>
  </filter>
  <linearGradient id="linearGradient1090" x1="8.5484" x2="8.5484" y1="1.2163" y2="15.785" gradientUnits="userSpaceOnUse" xlink:href="#linearGradient1088"/>
  <linearGradient id="linearGradient1102" x1="24.209" x2="28.707" y1="41.274" y2="45.772" gradientTransform="matrix(.92308 0 0 .92308 -16.674 -30.978)" gradientUnits="userSpaceOnUse">
   <stop stop-color="#d278e6" offset="0"/>
   <stop stop-color="#28c8ff" offset="1"/>
  </linearGradient>
  <linearGradient id="linearGradient1153" x1="8.5484" x2="8.5484" y1="1.2163" y2="15.785" gradientTransform="matrix(1.2044 0 0 1 -1.7306 0)" gradientUnits="userSpaceOnUse" xlink:href="#linearGradient1088"/>
 </defs>
 <metadata>
  <rdf:RDF>
   <cc:Work rdf:about="">
    <dc:format>image/svg+xml</dc:format>
    <dc:type rdf:resource="http://purl.org/dc/dcmitype/StillImage"/>
    <dc:title/>
   </cc:Work>
  </rdf:RDF>
 </metadata>
 <rect x="1.1905" y="1.1906" width="14.552" height="14.552" ry="3.4395" fill="#69737d" stroke-linecap="round" stroke-width="2.2002"/>
 <circle cx="-306.88" cy="-327.42" r="0" fill="#5e4aa6" stroke-width=".26458"/>
 <rect x="2.661" y="2.41" width="2.6458" height="1.7307" rx=".41779" ry=".34729" fill="#3296ff" stroke-width=".76422"/>
 <path d="m4.6301 3.1079h7.6728c1.9055 0 3.4395 1.534 3.4395 3.4395v5.7554c0 1.9055-1.534 3.4395-3.4395 3.4395h-7.6728c-1.9055 0-3.4395-1.534-3.4395-3.4395v-5.7554c0-1.9055 1.534-3.4395 3.4395-3.4395z" fill="url(#linearGradient1090)" stroke-linecap="round" stroke-width="2.2002"/>
 <path d="m7.1501 1.1906h2.6196c0.40597 0 0.53418 0.20611 0.6805 0.37384l1.1681 1.5397c0.13453 0.17732-0.20081 0.37384-0.45025 0.37384h-5.403c-0.24943 0-0.59697-0.20635-0.45025-0.37384l1.1579-1.5397c0.14673-0.16748 0.2746-0.37384 0.67728-0.37384z" fill="url(#linearGradient1153)" stroke-width=".77532"/>
 <g transform="translate(.71721)">
  <circle transform="matrix(.92308 0 0 .92308 -16.674 -30.978)" cx="26.458" cy="43.523" r="4.3655" filter="url(#filter967)" opacity=".6"/>
  <circle cx="7.7493" cy="9.1976" r="4.0297" fill="#fff" stroke-width=".92308"/>
  <circle cx="7.7493" cy="9.1976" r="3.0528" fill="url(#linearGradient1102)" stroke-width=".92308"/>
 </g>
 <circle cx="13.286" cy="5.3769" r=".61057" fill="#b9c3cd" stroke-width="2.6108"/>
 <path transform="scale(.26458)" d="m7.1055 54.303c2.3677 3.1546 6.1292 5.1973 10.395 5.1973h29c4.2654 0 8.0269-2.0427 10.395-5.1973h-49.789z" fill="#4c5158" stroke-width="2.5314"/>
</svg>
