<?xml version="1.0" encoding="UTF-8"?>
<svg width="64" height="64" version="1.1" viewBox="0 0 16.933 16.933" xmlns="http://www.w3.org/2000/svg" xmlns:cc="http://creativecommons.org/ns#" xmlns:dc="http://purl.org/dc/elements/1.1/" xmlns:rdf="http://www.w3.org/1999/02/22-rdf-syntax-ns#" xmlns:xlink="http://www.w3.org/1999/xlink">
 <defs>
  <style type="text/css"/>
  <linearGradient id="linearGradient864" x1="1.1905" x2="15.742" y1="1.1905" y2="15.742" gradientTransform="translate(-1.1e-6)" gradientUnits="userSpaceOnUse">
   <stop stop-color="#ffdc0a" offset="0"/>
   <stop stop-color="#ffd20a" offset="1"/>
  </linearGradient>
  <linearGradient id="linearGradient932" x1="-35.057" x2="-27.781" y1="8.3342" y2="15.61" gradientTransform="matrix(.55537 0 0 .55537 31.832 7.7344)" gradientUnits="userSpaceOnUse">
   <stop stop-color="#ffb405" offset="0"/>
   <stop stop-color="#ffc805" offset="1"/>
  </linearGradient>
  <linearGradient id="linearGradient940" x1="-42.332" x2="-35.057" y1="1.0583" y2="8.3342" gradientTransform="matrix(.55537 0 0 .55537 31.832 7.7344)" gradientUnits="userSpaceOnUse">
   <stop stop-color="#505050" offset="0"/>
   <stop stop-color="#323232" offset="1"/>
  </linearGradient>
  <filter id="filter945" x="-.075" y="-.075" width="1.15" height="1.15" color-interpolation-filters="sRGB">
   <feGaussianBlur stdDeviation="0.21120728"/>
  </filter>
 </defs>
 <metadata>
  <rdf:RDF>
   <cc:Work rdf:about="">
    <dc:format>image/svg+xml</dc:format>
    <dc:type rdf:resource="http://purl.org/dc/dcmitype/StillImage"/>
    <dc:title/>
   </cc:Work>
  </rdf:RDF>
 </metadata>
 <g transform="translate(25.83,-8.897)" fill="#5e4aa6" stroke-width=".26458">
  <circle cx="-322.63" cy="-345.67" r="0"/>
  <circle cx="-31.726" cy="-10.849" r="0" fill-rule="evenodd"/>
  <circle cx="-306.92" cy="-328.72" r="0"/>
 </g>
 <rect x="1.1905" y="1.1905" width="14.552" height="14.552" ry="3.4395" fill="url(#linearGradient864)" stroke-linecap="round" stroke-width="2.2002"/>
 <g>
  <path d="m9.2877 8.8451c-0.24421 0-0.44252 0.19659-0.44079 0.44079v6.3178l6.7586-6.7586z" filter="url(#filter945)" opacity=".5"/>
  <path d="m9.4246 8.9838c-0.24421 0-0.44252 0.19659-0.44079 0.44079v6.3178l6.7586-6.7586z" fill="url(#linearGradient940)"/>
  <path d="m15.742 8.9838-6.7586 6.7586h3.3191c1.9055 0 3.4395-1.534 3.4395-3.4395z" fill="url(#linearGradient932)"/>
 </g>
</svg>
