<?xml version="1.0" encoding="UTF-8" standalone="no"?>
<svg
   xmlns:dc="http://purl.org/dc/elements/1.1/"
   xmlns:cc="http://creativecommons.org/ns#"
   xmlns:rdf="http://www.w3.org/1999/02/22-rdf-syntax-ns#"
   xmlns:svg="http://www.w3.org/2000/svg"
   xmlns="http://www.w3.org/2000/svg"
   xmlns:xlink="http://www.w3.org/1999/xlink"
   xmlns:sodipodi="http://sodipodi.sourceforge.net/DTD/sodipodi-0.dtd"
   xmlns:inkscape="http://www.inkscape.org/namespaces/inkscape"
   width="64"
   height="64"
   version="1.1"
   id="svg36"
   sodipodi:docname="acroread.svg"
   inkscape:version="1.0.1 (3bc2e813f5, 2020-09-07)">
  <sodipodi:namedview
     pagecolor="#ffffff"
     bordercolor="#666666"
     borderopacity="1"
     objecttolerance="10"
     gridtolerance="10"
     guidetolerance="10"
     inkscape:pageopacity="0"
     inkscape:pageshadow="2"
     inkscape:window-width="1920"
     inkscape:window-height="932"
     id="namedview38"
     showgrid="false"
     inkscape:zoom="4.2260679"
     inkscape:cx="-21.126403"
     inkscape:cy="58.589824"
     inkscape:window-x="0"
     inkscape:window-y="36"
     inkscape:window-maximized="1"
     inkscape:current-layer="svg36" />
  <metadata
     id="metadata2">
    <rdf:RDF>
      <cc:Work
         rdf:about="">
        <dc:format>image/svg+xml</dc:format>
        <dc:type
           rdf:resource="http://purl.org/dc/dcmitype/StillImage" />
        <dc:title></dc:title>
      </cc:Work>
    </rdf:RDF>
  </metadata>
  <defs
     id="defs22">
    <linearGradient
       inkscape:collect="always"
       id="linearGradient942">
      <stop
         style="stop-color:#ffffff;stop-opacity:1"
         offset="0"
         id="stop936" />
      <stop
         style="stop-color:#fae6e6;stop-opacity:1"
         offset="1"
         id="stop940" />
    </linearGradient>
    <linearGradient
       id="b"
       x1="32"
       x2="32"
       y1=".77966"
       y2="58.61"
       gradientTransform="matrix(0.99703896,0,0,0.99996364,109.1268,9.2187439)"
       gradientUnits="userSpaceOnUse">
      <stop
         stop-color="#fff"
         offset="0"
         id="stop4" />
      <stop
         stop-color="#fae6e6"
         offset="1"
         id="stop6" />
    </linearGradient>
    <filter
       id="e"
       x="-.037096"
       y="-.034966"
       width="1.0742"
       height="1.0699"
       color-interpolation-filters="sRGB">
      <feGaussianBlur
         stdDeviation="0.86407762"
         id="feGaussianBlur9" />
    </filter>
    <filter
       id="d"
       x="-.054964"
       y="-.026765"
       width="1.1099"
       height="1.0535"
       color-interpolation-filters="sRGB">
      <feGaussianBlur
         stdDeviation="0.27481933"
         id="feGaussianBlur12" />
    </filter>
    <linearGradient
       id="linearGradient902"
       x1="38.119"
       x2="38.119"
       y1="61.091"
       y2="13.227"
       gradientTransform="matrix(0.99703896,0,0,0.99996364,101.39995,-0.10156577)"
       gradientUnits="userSpaceOnUse">
      <stop
         stop-color="#d73782"
         offset="0"
         id="stop15" />
      <stop
         stop-color="#f51432"
         offset=".56246"
         id="stop17" />
      <stop
         stop-color="#eb554b"
         offset="1"
         id="stop19" />
    </linearGradient>
    <linearGradient
       id="b-6"
       x1="539.74"
       x2="539.74"
       y1="191.56"
       y2="985.66"
       gradientTransform="matrix(0.06308731,0,0,0.06308731,79.831364,-0.46519039)"
       gradientUnits="userSpaceOnUse">
      <stop
         stop-color="#eb554b"
         offset="0"
         id="stop4-7" />
      <stop
         stop-color="#f51432"
         offset=".5"
         id="stop6-5" />
      <stop
         stop-color="#d73782"
         offset="1"
         id="stop8" />
    </linearGradient>
    <filter
       id="d-3"
       x="-.037097"
       y="-.034966"
       width="1.0742"
       height="1.0699"
       color-interpolation-filters="sRGB">
      <feGaussianBlur
         stdDeviation="0.86408203"
         id="feGaussianBlur11" />
    </filter>
    <linearGradient
       id="a"
       x1="38.002"
       x2="38.106"
       y1="1.64"
       y2="63.712"
       gradientUnits="userSpaceOnUse"
       gradientTransform="matrix(0.99261,0,0,0.99261,64.619011,0.076328)">
      <stop
         stop-color="#fff"
         offset="0"
         id="stop14" />
      <stop
         stop-color="#fae6e6"
         offset="1"
         id="stop16" />
    </linearGradient>
    <linearGradient
       inkscape:collect="always"
       xlink:href="#linearGradient942"
       id="linearGradient2116"
       x1="32"
       y1="9"
       x2="32"
       y2="59.306587"
       gradientUnits="userSpaceOnUse"
       gradientTransform="translate(3.2768555e-6)" />
    <linearGradient
       inkscape:collect="always"
       id="linearGradient2114">
      <stop
         style="stop-color:#eb554b;stop-opacity:1"
         offset="0"
         id="stop2110" />
      <stop
         style="stop-color:#f51432;stop-opacity:1"
         offset="0.46729419"
         id="stop869" />
      <stop
         style="stop-color:#d73764;stop-opacity:1"
         offset="1"
         id="stop2112" />
    </linearGradient>
    <filter
       inkscape:collect="always"
       style="color-interpolation-filters:sRGB"
       id="filter890"
       x="-0.03468"
       width="1.06936"
       y="-0.03468"
       height="1.06936">
      <feGaussianBlur
         inkscape:collect="always"
         stdDeviation="0.79475"
         id="feGaussianBlur892" />
    </filter>
    <linearGradient
       inkscape:collect="always"
       xlink:href="#linearGradient2114"
       id="linearGradient933"
       gradientUnits="userSpaceOnUse"
       gradientTransform="translate(3.2768555e-6)"
       x1="32"
       y1="9"
       x2="32"
       y2="59.306587" />
  </defs>
  <rect
     style="fill:url(#linearGradient2116);fill-opacity:1;stroke-width:2.12399;image-rendering:optimizeSpeed"
     id="rect924"
     width="55"
     height="55"
     x="4.5"
     y="4.5"
     ry="13" />
  <path
     id="path874"
     style="opacity:0.2;stroke-width:1.03362;filter:url(#filter890);image-rendering:optimizeSpeed"
     d="M 37.453125,4.5 C 20.64302,17.312398 9.5283549,21.055759 4.5,21.941406 v 6.148438 C 8.2141067,27.445949 14.780803,25.832089 21.742188,21.744141 31.34166,16.106465 42.183371,6.2702245 44.109375,4.5 Z m 7.078125,0 c -3.082675,6.956431 -4.108522,28.290979 -4.232422,55 H 46.5 c 0.34584,0 0.684559,-0.02453 1.023438,-0.05078 3.182454,-1.475924 6.112764,-3.512224 8.794921,-6.13086 0.916658,-0.895106 1.758709,-1.822408 2.53711,-2.773437 C 59.269451,49.27208 59.5,47.914434 59.5,46.5 V 40.955078 C 58.44665,36.824692 57.529241,32.601401 56.734375,28.556641 55.77158,21.706307 56.158285,15.395521 56.839844,10.523438 56.664201,10.344508 56.501301,10.159155 56.320312,9.9824219 54.193849,7.9059536 51.907659,6.2035397 49.470703,4.8515625 48.51589,4.6296651 47.524246,4.5 46.5,4.5 Z M 4.5,32.513672 v 6.730469 C 12.698479,40.251001 24.152631,48.032077 30.650391,59.5 h 6.115234 C 30.655795,47.216585 12.286708,34.44028 4.5,32.513672 Z"
     transform="matrix(0.94002892,0,0,0.94002892,1.9190746,1.9190746)" />
  <path
     id="rect2106"
     style="fill:url(#linearGradient933);fill-opacity:1;stroke-width:2.12399;image-rendering:optimizeSpeed"
     d="M 35.529297 4.5 C 20.286566 16.034344 9.8267069 20.002841 4.5 21.173828 L 4.5 27.683594 C 8.4474911 26.903216 14.736493 25.152005 21.400391 21.144531 C 29.390018 16.339328 38.48168 8.4009417 42.775391 4.5 L 35.529297 4.5 z M 44.384766 4.5 C 41.698777 12.969211 40.739073 33.751917 40.587891 59.5 L 46.5 59.5 C 46.950125 59.5 47.393948 59.477818 47.832031 59.433594 C 54.403284 58.770232 59.5 53.251875 59.5 46.5 L 59.5 37.654297 C 58.789188 34.527927 58.143173 31.391617 57.560547 28.355469 C 56.647504 21.702719 56.914216 15.545732 57.507812 10.589844 C 57.364358 10.361175 57.213575 10.136754 57.056641 9.9179688 C 56.291402 8.8511333 55.366374 7.9099022 54.320312 7.1191406 C 54.241928 7.060099 54.163745 7.0006492 54.083984 6.9433594 C 53.927556 6.8305979 53.770946 6.7191265 53.609375 6.6132812 C 53.373883 6.4595767 53.134513 6.3123229 52.888672 6.1738281 C 52.884877 6.1716817 52.88075 6.1701115 52.876953 6.1679688 C 52.724482 6.0819314 52.568363 6.0018398 52.412109 5.921875 C 52.231049 5.8296004 52.04722 5.7421245 51.861328 5.6582031 C 51.721213 5.5946865 51.582207 5.5293337 51.439453 5.4707031 C 51.434116 5.4685204 51.429169 5.4650665 51.423828 5.4628906 C 51.131046 5.3436043 50.832419 5.2368253 50.529297 5.1386719 C 50.406858 5.0988593 50.282239 5.0635908 50.158203 5.0273438 C 49.858024 4.9400014 49.554959 4.8589183 49.246094 4.7929688 C 49.195588 4.7821399 49.14643 4.7680539 49.095703 4.7578125 C 48.72521 4.6833172 48.34622 4.6284085 47.964844 4.5859375 C 47.872735 4.5756415 47.7802 4.5669625 47.6875 4.5585938 C 47.295703 4.5233553 46.901274 4.5 46.5 4.5 L 44.384766 4.5 z M 4.5 32.810547 L 4.5 39.783203 C 12.501422 41.236312 23.088664 48.67139 29.667969 59.5 L 36.082031 59.5 C 29.332224 47.485502 12.629559 35.448011 4.5 32.810547 z " />
  <path
     id="path949"
     d="M 17.5 4.5 C 14.471297 4.5 11.697502 5.5338414 9.4921875 7.2578125 L 9.4921875 29.287109 L 15.474609 25.822266 L 21.457031 29.287109 L 21.457031 4.5 L 17.5 4.5 z "
     style="fill:#1e82e1;fill-opacity:1" />
</svg>
