<?xml version="1.0" encoding="UTF-8" standalone="no"?>
<svg
   xmlns:dc="http://purl.org/dc/elements/1.1/"
   xmlns:cc="http://creativecommons.org/ns#"
   xmlns:rdf="http://www.w3.org/1999/02/22-rdf-syntax-ns#"
   xmlns:svg="http://www.w3.org/2000/svg"
   xmlns="http://www.w3.org/2000/svg"
   xmlns:xlink="http://www.w3.org/1999/xlink"
   xmlns:sodipodi="http://sodipodi.sourceforge.net/DTD/sodipodi-0.dtd"
   xmlns:inkscape="http://www.inkscape.org/namespaces/inkscape"
   width="64"
   height="64"
   version="1.1"
   id="svg155"
   sodipodi:docname="akregator.svg"
   inkscape:version="1.0.1 (3bc2e813f5, 2020-09-07)">
  <sodipodi:namedview
     pagecolor="#ffffff"
     bordercolor="#666666"
     borderopacity="1"
     objecttolerance="10"
     gridtolerance="10"
     guidetolerance="10"
     inkscape:pageopacity="0"
     inkscape:pageshadow="2"
     inkscape:window-width="1920"
     inkscape:window-height="932"
     id="namedview157"
     showgrid="false"
     inkscape:zoom="5.9765625"
     inkscape:cx="34.500047"
     inkscape:cy="25.712408"
     inkscape:window-x="0"
     inkscape:window-y="36"
     inkscape:window-maximized="1"
     inkscape:current-layer="svg155" />
  <metadata
     id="metadata2">
    <rdf:RDF>
      <cc:Work
         rdf:about="">
        <dc:format>image/svg+xml</dc:format>
        <dc:type
           rdf:resource="http://purl.org/dc/dcmitype/StillImage" />
        <dc:title></dc:title>
      </cc:Work>
    </rdf:RDF>
  </metadata>
  <defs
     id="defs15">
    <style
       type="text/css"
       id="style4" />
    <linearGradient
       id="linearGradient889"
       x1="-27.781"
       x2="-42.333"
       y1="1.0583"
       y2="15.611"
       gradientTransform="matrix(4.1232,0,0,4.1232,245.46036,-2.3643)"
       gradientUnits="userSpaceOnUse">
      <stop
         stop-color="#ff8c55"
         offset="0"
         id="stop6" />
      <stop
         stop-color="#ff5a1e"
         offset="1"
         id="stop8" />
    </linearGradient>
    <style
       type="text/css"
       id="style11" />
    <style
       type="text/css"
       id="style13" />
    <linearGradient
       inkscape:collect="always"
       xlink:href="#linearGradient2114"
       id="linearGradient2116"
       x1="59.5"
       y1="4.5"
       x2="4.499999"
       y2="59.5"
       gradientUnits="userSpaceOnUse"
       gradientTransform="translate(1.0561523e-6)" />
    <linearGradient
       inkscape:collect="always"
       id="linearGradient2114">
      <stop
         style="stop-color:#ff8c55;stop-opacity:1"
         offset="0"
         id="stop2110" />
      <stop
         style="stop-color:#ff5a1e;stop-opacity:1"
         offset="1"
         id="stop2112" />
    </linearGradient>
  </defs>
  <style
     type="text/css"
     id="style17">.st0{opacity:0.15;fill:#45413C;}
	.st1{fill:#FFE500;}
	.st2{fill:#EBCB00;}
	.st3{fill:none;stroke:#45413C;stroke-linecap:round;stroke-linejoin:round;stroke-miterlimit:10;}
	.st4{fill:#FFAA54;}
	.st5{fill:#FF8A14;}
	.st6{fill:#FFB0CA;stroke:#45413C;stroke-linecap:round;stroke-linejoin:round;stroke-miterlimit:10;}
	.st7{fill:#FF87AF;stroke:#45413C;stroke-linecap:round;stroke-linejoin:round;stroke-miterlimit:10;}
	.st8{fill:#FFCC99;}
	.st9{fill:#FFFFFF;}
	.st10{fill:#F0F0F0;}
	.st11{fill:#BF8256;}
	.st12{fill:#915E3A;}
	.st13{fill:#DEA47A;}
	.st14{fill:#F0D5A8;}
	.st15{fill:#DEBB7E;}
	.st16{fill:#F7E5C6;}
	.st17{fill:#FF8A14;stroke:#45413C;stroke-linecap:round;stroke-linejoin:round;stroke-miterlimit:10;}
	.st18{fill:#FFF5E3;}
	.st19{fill:#FFF48C;}
	.st20{fill:#FFFACF;}
	.st21{fill:#FFFCE5;}
	.st22{fill:#FF87AF;}
	.st23{fill:#FFB0CA;}
	.st24{fill:#FFE500;stroke:#45413C;stroke-linecap:round;stroke-linejoin:round;stroke-miterlimit:10;}
	.st25{fill:#9CEB60;stroke:#45413C;stroke-linecap:round;stroke-linejoin:round;stroke-miterlimit:10;}
	.st26{fill:#FFFACF;stroke:#45413C;stroke-linecap:round;stroke-linejoin:round;stroke-miterlimit:10;}
	.st27{fill:#00F5BC;stroke:#45413C;stroke-linecap:round;stroke-linejoin:round;stroke-miterlimit:10;}
	.st28{fill:#BF8256;stroke:#45413C;stroke-linecap:round;stroke-linejoin:round;stroke-miterlimit:10;}
	.st29{fill:#FFE3CF;stroke:#45413C;stroke-linecap:round;stroke-linejoin:round;stroke-miterlimit:10;}
	.st30{fill:#FF6242;}
	.st31{fill:#FF866E;}
	.st32{fill:none;stroke:#E04122;stroke-linecap:round;stroke-linejoin:round;stroke-miterlimit:10;}
	.st33{fill:#FFFEF2;stroke:#45413C;stroke-linecap:round;stroke-linejoin:round;stroke-miterlimit:10;}
	.st34{fill:#FF6242;stroke:#45413C;stroke-linecap:round;stroke-linejoin:round;stroke-miterlimit:10;}
	.st35{fill:#FFA694;}
	.st36{fill:#FFFFFF;stroke:#45413C;stroke-linecap:round;stroke-linejoin:round;stroke-miterlimit:10;}
	.st37{fill:#FFFEF2;}
	.st38{fill:#FF6196;}
	.st39{fill:#B89558;}
	.st40{fill:none;stroke:#915E3A;stroke-linecap:round;stroke-linejoin:round;stroke-miterlimit:10;}
	.st41{fill:#DEBB7E;stroke:#45413C;stroke-linecap:round;stroke-linejoin:round;stroke-miterlimit:10;}
	.st42{fill:#6DD627;stroke:#45413C;stroke-linecap:round;stroke-linejoin:round;stroke-miterlimit:10;}
	.st43{fill:#E5F8FF;}
	.st44{fill:#E8F4FA;}
	.st45{fill:#E8F4FA;stroke:#45413C;stroke-linecap:round;stroke-linejoin:round;stroke-miterlimit:10;}
	.st46{fill:#FFCCDD;}
	.st47{fill:#E5F8FF;stroke:#45413C;stroke-linecap:round;stroke-linejoin:round;stroke-miterlimit:10;}
	.st48{fill:#00B8F0;stroke:#45413C;stroke-linecap:round;stroke-linejoin:round;stroke-miterlimit:10;}
	.st49{fill:#00B8F0;}
	.st50{fill:#4ACFFF;}
	.st51{fill:#E04122;}
	.st52{fill:#E04122;stroke:#45413C;stroke-linecap:round;stroke-linejoin:round;stroke-miterlimit:10;}
	.st53{fill:#87898C;}
	.st54{fill:#BDBEC0;}
	.st55{fill:#656769;}
	.st56{fill:#525252;}
	.st57{fill:#FFF48C;stroke:#45413C;stroke-linecap:round;stroke-linejoin:round;stroke-miterlimit:10;}
	.st58{fill:#6DD627;}
	.st59{fill:#EB6D00;}
	.st60{fill:#46B000;}
	.st61{fill:#80DDFF;}
	.st62{fill:#DAEDF7;}
	.st63{fill:#BF8DF2;stroke:#45413C;stroke-linecap:round;stroke-linejoin:round;stroke-miterlimit:10;}
	.st64{fill:#9F5AE5;stroke:#45413C;stroke-linecap:round;stroke-linejoin:round;stroke-miterlimit:10;}
	.st65{fill:#C8FFA1;}
	.st66{fill:#E4FFD1;}
	.st67{fill:#9CEB60;}
	.st68{fill:#E5FEFF;}
	.st69{fill:#B8ECFF;}
	.st70{fill:#E0E0E0;stroke:#45413C;stroke-linecap:round;stroke-linejoin:round;stroke-miterlimit:10;}
	.st71{fill:#E0E0E0;}
	.st72{fill:none;stroke:#4F4B45;stroke-linejoin:round;stroke-miterlimit:10;}
	.st73{fill:none;stroke:#4F4B45;stroke-linecap:round;stroke-linejoin:round;stroke-miterlimit:10;}
	.st74{fill:#E0366F;stroke:#45413C;stroke-linecap:round;stroke-linejoin:round;stroke-miterlimit:10;}
	.st75{fill:none;stroke:#45413C;stroke-miterlimit:10;}
	.st76{fill:#FF866E;stroke:#45413C;stroke-linecap:round;stroke-linejoin:round;stroke-miterlimit:10;}
	.st77{fill:#45413C;stroke:#45413C;stroke-linecap:round;stroke-linejoin:round;stroke-miterlimit:10;}
	.st78{fill:#9F5AE5;}
	.st79{fill:#803EC2;}
	.st80{fill:#803EC2;stroke:#45413C;stroke-linecap:round;stroke-linejoin:round;stroke-miterlimit:10;}
	.st81{fill:#BF8DF2;}
	.st82{fill:#FFAA54;stroke:#45413C;stroke-linecap:round;stroke-linejoin:round;stroke-miterlimit:10;}
	.st83{fill:none;stroke:#45413C;stroke-linejoin:round;stroke-miterlimit:10;}
	.st84{fill:#FFCCDD;stroke:#45413C;stroke-linecap:round;stroke-linejoin:round;stroke-miterlimit:10;}
	.st85{fill:#FF6196;stroke:#45413C;stroke-linecap:round;stroke-linejoin:round;stroke-miterlimit:10;}
	.st86{fill:#FFE5EE;}
	.st87{fill:#F7E5C6;stroke:#45413C;stroke-linecap:round;stroke-linejoin:round;stroke-miterlimit:10;}
	.st88{fill:#E5FFF9;}
	.st89{fill:none;stroke:#45413C;stroke-width:1.0064;stroke-linecap:round;stroke-linejoin:round;stroke-miterlimit:10;}
	.st90{fill:#4AEFF7;}
	.st91{fill:#A6FBFF;}
	.st92{fill:#E5FEFF;stroke:#45413C;stroke-linecap:round;stroke-linejoin:round;stroke-miterlimit:10;}
	.st93{fill:#46B000;stroke:#45413C;stroke-linecap:round;stroke-linejoin:round;stroke-miterlimit:10;}
	.st94{fill:#FFFFFF;stroke:#45413C;stroke-linejoin:round;stroke-miterlimit:10;}
	.st95{fill:#FFFFFF;stroke:#45413C;stroke-miterlimit:10;}
	.st96{fill:#009FD9;}
	.st97{fill:#00DFEB;}
	.st98{fill:#C0DCEB;stroke:#45413C;stroke-linecap:round;stroke-linejoin:round;stroke-miterlimit:10;}
	.st99{fill:#00DFEB;stroke:#45413C;stroke-linecap:round;stroke-linejoin:round;stroke-miterlimit:10;}
	.st100{fill:#FFE5EE;stroke:#45413C;stroke-linecap:round;stroke-linejoin:round;stroke-miterlimit:10;}
	.st101{fill:#8CA4B8;}
	.st102{fill:#ADC4D9;}
	.st103{fill:#656769;stroke:#45413C;stroke-linecap:round;stroke-linejoin:round;stroke-miterlimit:10;}
	.st104{fill:#F0F0F0;stroke:#45413C;stroke-linecap:round;stroke-linejoin:round;stroke-miterlimit:10;}
	.st105{fill:#C0DCEB;}
	.st106{fill:#45413C;}
	.st107{fill:#FFCABF;}
	.st108{fill:#87898C;stroke:#45413C;stroke-linecap:round;stroke-linejoin:round;stroke-miterlimit:10;}
	.st109{fill:#EBCB00;stroke:#45413C;stroke-linecap:round;stroke-linejoin:round;stroke-miterlimit:10;}</style>
  <rect
     style="opacity:1;fill:url(#linearGradient2116);fill-opacity:1;stroke-width:2.12399"
     id="rect1214"
     width="55"
     height="55"
     x="4.5"
     y="4.5"
     ry="13" />
  <path
     id="rect2106"
     style="opacity:1;fill:#ffffff;fill-opacity:1;stroke-width:1.32562"
     d="m 26.208976,-1.1805316 c -0.683524,-2.106303 -1.608734,-4.378225 -2.892578,-6.601562 -0.641922,-1.111669 -1.3728,-2.211009 -2.208984,-3.2714854 -0.836185,-1.060475 -1.776036,-2.08146 -2.835938,-3.037109 -1.059901,-0.955649 -2.23966,-1.84539 -3.552734,-2.642578 -1.313074,-0.797188 -2.759768,-1.502798 -4.355469,-2.087891 -1.5957007,-0.585092 -3.3402637,-1.049777 -5.2480467,-1.36914 -1.907782,-0.319364 -3.979196,-0.492188 -6.228515,-0.492188 v 10.419922 c 0,5.0314464 4.050584,9.0820314 9.082031,9.0820314 z" />
  <path
     id="path1223"
     style="opacity:1;fill:#ffffff;fill-opacity:1;stroke-width:1.32562"
     d="m 14.614944,20.109375 v 3.783203 c 2.249318,0 4.320732,0.172824 6.228515,0.492188 1.907782,0.319363 3.652346,0.784048 5.248047,1.36914 1.5957,0.585093 3.042394,1.290703 4.355468,2.087891 1.313074,0.797188 2.492833,1.686929 3.552735,2.642578 1.059902,0.955649 1.999752,1.976634 2.835937,3.037109 0.836185,1.060476 1.567062,2.159816 2.208985,3.271485 1.283844,2.223337 2.209054,4.495259 2.892578,6.601562 5.031447,0 9.082031,-4.050585 9.082031,-9.082031 V 20.109375 c 0,-5.031447 -4.050584,-9.082031 -9.082031,-9.082031 H 23.696974 c -5.031447,0 -9.08203,4.050584 -9.08203,9.082031 z" />
  <g
     transform="matrix(3.7796 0 0 3.7796 .18834 .62552)"
     fill="#5e4aa6"
     stroke-width=".26458"
     id="g27">
    <circle
       cx="-351.85"
       cy="-328.38"
       r="0"
       id="circle19" />
    <circle
       cx="-296.85"
       cy="-354.73"
       r="0"
       id="circle21" />
    <circle
       cx="-5.946"
       cy="-19.912"
       r="0"
       fill-rule="evenodd"
       id="circle23" />
    <circle
       cx="-281.14"
       cy="-337.78"
       r="0"
       id="circle25" />
  </g>
  <g
     transform="matrix(3.7796 0 0 3.7796 .18834 .62552)"
     fill="#5e4aa6"
     stroke-width=".26458"
     id="g39">
    <circle
       cx="-272.57"
       cy="-354.73"
       r="0"
       id="circle33" />
    <circle
       cx="18.337"
       cy="-19.912"
       r="0"
       fill-rule="evenodd"
       id="circle35" />
    <circle
       cx="-256.86"
       cy="-337.78"
       r="0"
       id="circle37" />
  </g>
  <style
     type="text/css"
     id="style65">.st0{opacity:0.15;fill:#45413C;}
	.st1{fill:#FFE500;}
	.st2{fill:#EBCB00;}
	.st3{fill:none;stroke:#45413C;stroke-linecap:round;stroke-linejoin:round;stroke-miterlimit:10;}
	.st4{fill:#FFAA54;}
	.st5{fill:#FF8A14;}
	.st6{fill:#FFB0CA;stroke:#45413C;stroke-linecap:round;stroke-linejoin:round;stroke-miterlimit:10;}
	.st7{fill:#FF87AF;stroke:#45413C;stroke-linecap:round;stroke-linejoin:round;stroke-miterlimit:10;}
	.st8{fill:#FFCC99;}
	.st9{fill:#FFFFFF;}
	.st10{fill:#F0F0F0;}
	.st11{fill:#BF8256;}
	.st12{fill:#915E3A;}
	.st13{fill:#DEA47A;}
	.st14{fill:#F0D5A8;}
	.st15{fill:#DEBB7E;}
	.st16{fill:#F7E5C6;}
	.st17{fill:#FF8A14;stroke:#45413C;stroke-linecap:round;stroke-linejoin:round;stroke-miterlimit:10;}
	.st18{fill:#FFF5E3;}
	.st19{fill:#FFF48C;}
	.st20{fill:#FFFACF;}
	.st21{fill:#FFFCE5;}
	.st22{fill:#FF87AF;}
	.st23{fill:#FFB0CA;}
	.st24{fill:#FFE500;stroke:#45413C;stroke-linecap:round;stroke-linejoin:round;stroke-miterlimit:10;}
	.st25{fill:#9CEB60;stroke:#45413C;stroke-linecap:round;stroke-linejoin:round;stroke-miterlimit:10;}
	.st26{fill:#FFFACF;stroke:#45413C;stroke-linecap:round;stroke-linejoin:round;stroke-miterlimit:10;}
	.st27{fill:#00F5BC;stroke:#45413C;stroke-linecap:round;stroke-linejoin:round;stroke-miterlimit:10;}
	.st28{fill:#BF8256;stroke:#45413C;stroke-linecap:round;stroke-linejoin:round;stroke-miterlimit:10;}
	.st29{fill:#FFE3CF;stroke:#45413C;stroke-linecap:round;stroke-linejoin:round;stroke-miterlimit:10;}
	.st30{fill:#FF6242;}
	.st31{fill:#FF866E;}
	.st32{fill:none;stroke:#E04122;stroke-linecap:round;stroke-linejoin:round;stroke-miterlimit:10;}
	.st33{fill:#FFFEF2;stroke:#45413C;stroke-linecap:round;stroke-linejoin:round;stroke-miterlimit:10;}
	.st34{fill:#FF6242;stroke:#45413C;stroke-linecap:round;stroke-linejoin:round;stroke-miterlimit:10;}
	.st35{fill:#FFA694;}
	.st36{fill:#FFFFFF;stroke:#45413C;stroke-linecap:round;stroke-linejoin:round;stroke-miterlimit:10;}
	.st37{fill:#FFFEF2;}
	.st38{fill:#FF6196;}
	.st39{fill:#B89558;}
	.st40{fill:none;stroke:#915E3A;stroke-linecap:round;stroke-linejoin:round;stroke-miterlimit:10;}
	.st41{fill:#DEBB7E;stroke:#45413C;stroke-linecap:round;stroke-linejoin:round;stroke-miterlimit:10;}
	.st42{fill:#6DD627;stroke:#45413C;stroke-linecap:round;stroke-linejoin:round;stroke-miterlimit:10;}
	.st43{fill:#E5F8FF;}
	.st44{fill:#E8F4FA;}
	.st45{fill:#E8F4FA;stroke:#45413C;stroke-linecap:round;stroke-linejoin:round;stroke-miterlimit:10;}
	.st46{fill:#FFCCDD;}
	.st47{fill:#E5F8FF;stroke:#45413C;stroke-linecap:round;stroke-linejoin:round;stroke-miterlimit:10;}
	.st48{fill:#00B8F0;stroke:#45413C;stroke-linecap:round;stroke-linejoin:round;stroke-miterlimit:10;}
	.st49{fill:#00B8F0;}
	.st50{fill:#4ACFFF;}
	.st51{fill:#E04122;}
	.st52{fill:#E04122;stroke:#45413C;stroke-linecap:round;stroke-linejoin:round;stroke-miterlimit:10;}
	.st53{fill:#87898C;}
	.st54{fill:#BDBEC0;}
	.st55{fill:#656769;}
	.st56{fill:#525252;}
	.st57{fill:#FFF48C;stroke:#45413C;stroke-linecap:round;stroke-linejoin:round;stroke-miterlimit:10;}
	.st58{fill:#6DD627;}
	.st59{fill:#EB6D00;}
	.st60{fill:#46B000;}
	.st61{fill:#80DDFF;}
	.st62{fill:#DAEDF7;}
	.st63{fill:#BF8DF2;stroke:#45413C;stroke-linecap:round;stroke-linejoin:round;stroke-miterlimit:10;}
	.st64{fill:#9F5AE5;stroke:#45413C;stroke-linecap:round;stroke-linejoin:round;stroke-miterlimit:10;}
	.st65{fill:#C8FFA1;}
	.st66{fill:#E4FFD1;}
	.st67{fill:#9CEB60;}
	.st68{fill:#E5FEFF;}
	.st69{fill:#B8ECFF;}
	.st70{fill:#E0E0E0;stroke:#45413C;stroke-linecap:round;stroke-linejoin:round;stroke-miterlimit:10;}
	.st71{fill:#E0E0E0;}
	.st72{fill:none;stroke:#4F4B45;stroke-linejoin:round;stroke-miterlimit:10;}
	.st73{fill:none;stroke:#4F4B45;stroke-linecap:round;stroke-linejoin:round;stroke-miterlimit:10;}
	.st74{fill:#E0366F;stroke:#45413C;stroke-linecap:round;stroke-linejoin:round;stroke-miterlimit:10;}
	.st75{fill:none;stroke:#45413C;stroke-miterlimit:10;}
	.st76{fill:#FF866E;stroke:#45413C;stroke-linecap:round;stroke-linejoin:round;stroke-miterlimit:10;}
	.st77{fill:#45413C;stroke:#45413C;stroke-linecap:round;stroke-linejoin:round;stroke-miterlimit:10;}
	.st78{fill:#9F5AE5;}
	.st79{fill:#803EC2;}
	.st80{fill:#803EC2;stroke:#45413C;stroke-linecap:round;stroke-linejoin:round;stroke-miterlimit:10;}
	.st81{fill:#BF8DF2;}
	.st82{fill:#FFAA54;stroke:#45413C;stroke-linecap:round;stroke-linejoin:round;stroke-miterlimit:10;}
	.st83{fill:none;stroke:#45413C;stroke-linejoin:round;stroke-miterlimit:10;}
	.st84{fill:#FFCCDD;stroke:#45413C;stroke-linecap:round;stroke-linejoin:round;stroke-miterlimit:10;}
	.st85{fill:#FF6196;stroke:#45413C;stroke-linecap:round;stroke-linejoin:round;stroke-miterlimit:10;}
	.st86{fill:#FFE5EE;}
	.st87{fill:#F7E5C6;stroke:#45413C;stroke-linecap:round;stroke-linejoin:round;stroke-miterlimit:10;}
	.st88{fill:#E5FFF9;}
	.st89{fill:none;stroke:#45413C;stroke-width:1.0064;stroke-linecap:round;stroke-linejoin:round;stroke-miterlimit:10;}
	.st90{fill:#4AEFF7;}
	.st91{fill:#A6FBFF;}
	.st92{fill:#E5FEFF;stroke:#45413C;stroke-linecap:round;stroke-linejoin:round;stroke-miterlimit:10;}
	.st93{fill:#46B000;stroke:#45413C;stroke-linecap:round;stroke-linejoin:round;stroke-miterlimit:10;}
	.st94{fill:#FFFFFF;stroke:#45413C;stroke-linejoin:round;stroke-miterlimit:10;}
	.st95{fill:#FFFFFF;stroke:#45413C;stroke-miterlimit:10;}
	.st96{fill:#009FD9;}
	.st97{fill:#00DFEB;}
	.st98{fill:#C0DCEB;stroke:#45413C;stroke-linecap:round;stroke-linejoin:round;stroke-miterlimit:10;}
	.st99{fill:#00DFEB;stroke:#45413C;stroke-linecap:round;stroke-linejoin:round;stroke-miterlimit:10;}
	.st100{fill:#FFE5EE;stroke:#45413C;stroke-linecap:round;stroke-linejoin:round;stroke-miterlimit:10;}
	.st101{fill:#8CA4B8;}
	.st102{fill:#ADC4D9;}
	.st103{fill:#656769;stroke:#45413C;stroke-linecap:round;stroke-linejoin:round;stroke-miterlimit:10;}
	.st104{fill:#F0F0F0;stroke:#45413C;stroke-linecap:round;stroke-linejoin:round;stroke-miterlimit:10;}
	.st105{fill:#C0DCEB;}
	.st106{fill:#45413C;}
	.st107{fill:#FFCABF;}
	.st108{fill:#87898C;stroke:#45413C;stroke-linecap:round;stroke-linejoin:round;stroke-miterlimit:10;}
	.st109{fill:#EBCB00;stroke:#45413C;stroke-linecap:round;stroke-linejoin:round;stroke-miterlimit:10;}</style>
  <style
     type="text/css"
     id="style67">.st0{opacity:0.15;fill:#45413C;}
	.st1{fill:#FFE500;}
	.st2{fill:#EBCB00;}
	.st3{fill:none;stroke:#45413C;stroke-linecap:round;stroke-linejoin:round;stroke-miterlimit:10;}
	.st4{fill:#FFAA54;}
	.st5{fill:#FF8A14;}
	.st6{fill:#FFB0CA;stroke:#45413C;stroke-linecap:round;stroke-linejoin:round;stroke-miterlimit:10;}
	.st7{fill:#FF87AF;stroke:#45413C;stroke-linecap:round;stroke-linejoin:round;stroke-miterlimit:10;}
	.st8{fill:#FFCC99;}
	.st9{fill:#FFFFFF;}
	.st10{fill:#F0F0F0;}
	.st11{fill:#BF8256;}
	.st12{fill:#915E3A;}
	.st13{fill:#DEA47A;}
	.st14{fill:#F0D5A8;}
	.st15{fill:#DEBB7E;}
	.st16{fill:#F7E5C6;}
	.st17{fill:#FF8A14;stroke:#45413C;stroke-linecap:round;stroke-linejoin:round;stroke-miterlimit:10;}
	.st18{fill:#FFF5E3;}
	.st19{fill:#FFF48C;}
	.st20{fill:#FFFACF;}
	.st21{fill:#FFFCE5;}
	.st22{fill:#FF87AF;}
	.st23{fill:#FFB0CA;}
	.st24{fill:#FFE500;stroke:#45413C;stroke-linecap:round;stroke-linejoin:round;stroke-miterlimit:10;}
	.st25{fill:#9CEB60;stroke:#45413C;stroke-linecap:round;stroke-linejoin:round;stroke-miterlimit:10;}
	.st26{fill:#FFFACF;stroke:#45413C;stroke-linecap:round;stroke-linejoin:round;stroke-miterlimit:10;}
	.st27{fill:#00F5BC;stroke:#45413C;stroke-linecap:round;stroke-linejoin:round;stroke-miterlimit:10;}
	.st28{fill:#BF8256;stroke:#45413C;stroke-linecap:round;stroke-linejoin:round;stroke-miterlimit:10;}
	.st29{fill:#FFE3CF;stroke:#45413C;stroke-linecap:round;stroke-linejoin:round;stroke-miterlimit:10;}
	.st30{fill:#FF6242;}
	.st31{fill:#FF866E;}
	.st32{fill:none;stroke:#E04122;stroke-linecap:round;stroke-linejoin:round;stroke-miterlimit:10;}
	.st33{fill:#FFFEF2;stroke:#45413C;stroke-linecap:round;stroke-linejoin:round;stroke-miterlimit:10;}
	.st34{fill:#FF6242;stroke:#45413C;stroke-linecap:round;stroke-linejoin:round;stroke-miterlimit:10;}
	.st35{fill:#FFA694;}
	.st36{fill:#FFFFFF;stroke:#45413C;stroke-linecap:round;stroke-linejoin:round;stroke-miterlimit:10;}
	.st37{fill:#FFFEF2;}
	.st38{fill:#FF6196;}
	.st39{fill:#B89558;}
	.st40{fill:none;stroke:#915E3A;stroke-linecap:round;stroke-linejoin:round;stroke-miterlimit:10;}
	.st41{fill:#DEBB7E;stroke:#45413C;stroke-linecap:round;stroke-linejoin:round;stroke-miterlimit:10;}
	.st42{fill:#6DD627;stroke:#45413C;stroke-linecap:round;stroke-linejoin:round;stroke-miterlimit:10;}
	.st43{fill:#E5F8FF;}
	.st44{fill:#E8F4FA;}
	.st45{fill:#E8F4FA;stroke:#45413C;stroke-linecap:round;stroke-linejoin:round;stroke-miterlimit:10;}
	.st46{fill:#FFCCDD;}
	.st47{fill:#E5F8FF;stroke:#45413C;stroke-linecap:round;stroke-linejoin:round;stroke-miterlimit:10;}
	.st48{fill:#00B8F0;stroke:#45413C;stroke-linecap:round;stroke-linejoin:round;stroke-miterlimit:10;}
	.st49{fill:#00B8F0;}
	.st50{fill:#4ACFFF;}
	.st51{fill:#E04122;}
	.st52{fill:#E04122;stroke:#45413C;stroke-linecap:round;stroke-linejoin:round;stroke-miterlimit:10;}
	.st53{fill:#87898C;}
	.st54{fill:#BDBEC0;}
	.st55{fill:#656769;}
	.st56{fill:#525252;}
	.st57{fill:#FFF48C;stroke:#45413C;stroke-linecap:round;stroke-linejoin:round;stroke-miterlimit:10;}
	.st58{fill:#6DD627;}
	.st59{fill:#EB6D00;}
	.st60{fill:#46B000;}
	.st61{fill:#80DDFF;}
	.st62{fill:#DAEDF7;}
	.st63{fill:#BF8DF2;stroke:#45413C;stroke-linecap:round;stroke-linejoin:round;stroke-miterlimit:10;}
	.st64{fill:#9F5AE5;stroke:#45413C;stroke-linecap:round;stroke-linejoin:round;stroke-miterlimit:10;}
	.st65{fill:#C8FFA1;}
	.st66{fill:#E4FFD1;}
	.st67{fill:#9CEB60;}
	.st68{fill:#E5FEFF;}
	.st69{fill:#B8ECFF;}
	.st70{fill:#E0E0E0;stroke:#45413C;stroke-linecap:round;stroke-linejoin:round;stroke-miterlimit:10;}
	.st71{fill:#E0E0E0;}
	.st72{fill:none;stroke:#4F4B45;stroke-linejoin:round;stroke-miterlimit:10;}
	.st73{fill:none;stroke:#4F4B45;stroke-linecap:round;stroke-linejoin:round;stroke-miterlimit:10;}
	.st74{fill:#E0366F;stroke:#45413C;stroke-linecap:round;stroke-linejoin:round;stroke-miterlimit:10;}
	.st75{fill:none;stroke:#45413C;stroke-miterlimit:10;}
	.st76{fill:#FF866E;stroke:#45413C;stroke-linecap:round;stroke-linejoin:round;stroke-miterlimit:10;}
	.st77{fill:#45413C;stroke:#45413C;stroke-linecap:round;stroke-linejoin:round;stroke-miterlimit:10;}
	.st78{fill:#9F5AE5;}
	.st79{fill:#803EC2;}
	.st80{fill:#803EC2;stroke:#45413C;stroke-linecap:round;stroke-linejoin:round;stroke-miterlimit:10;}
	.st81{fill:#BF8DF2;}
	.st82{fill:#FFAA54;stroke:#45413C;stroke-linecap:round;stroke-linejoin:round;stroke-miterlimit:10;}
	.st83{fill:none;stroke:#45413C;stroke-linejoin:round;stroke-miterlimit:10;}
	.st84{fill:#FFCCDD;stroke:#45413C;stroke-linecap:round;stroke-linejoin:round;stroke-miterlimit:10;}
	.st85{fill:#FF6196;stroke:#45413C;stroke-linecap:round;stroke-linejoin:round;stroke-miterlimit:10;}
	.st86{fill:#FFE5EE;}
	.st87{fill:#F7E5C6;stroke:#45413C;stroke-linecap:round;stroke-linejoin:round;stroke-miterlimit:10;}
	.st88{fill:#E5FFF9;}
	.st89{fill:none;stroke:#45413C;stroke-width:1.0064;stroke-linecap:round;stroke-linejoin:round;stroke-miterlimit:10;}
	.st90{fill:#4AEFF7;}
	.st91{fill:#A6FBFF;}
	.st92{fill:#E5FEFF;stroke:#45413C;stroke-linecap:round;stroke-linejoin:round;stroke-miterlimit:10;}
	.st93{fill:#46B000;stroke:#45413C;stroke-linecap:round;stroke-linejoin:round;stroke-miterlimit:10;}
	.st94{fill:#FFFFFF;stroke:#45413C;stroke-linejoin:round;stroke-miterlimit:10;}
	.st95{fill:#FFFFFF;stroke:#45413C;stroke-miterlimit:10;}
	.st96{fill:#009FD9;}
	.st97{fill:#00DFEB;}
	.st98{fill:#C0DCEB;stroke:#45413C;stroke-linecap:round;stroke-linejoin:round;stroke-miterlimit:10;}
	.st99{fill:#00DFEB;stroke:#45413C;stroke-linecap:round;stroke-linejoin:round;stroke-miterlimit:10;}
	.st100{fill:#FFE5EE;stroke:#45413C;stroke-linecap:round;stroke-linejoin:round;stroke-miterlimit:10;}
	.st101{fill:#8CA4B8;}
	.st102{fill:#ADC4D9;}
	.st103{fill:#656769;stroke:#45413C;stroke-linecap:round;stroke-linejoin:round;stroke-miterlimit:10;}
	.st104{fill:#F0F0F0;stroke:#45413C;stroke-linecap:round;stroke-linejoin:round;stroke-miterlimit:10;}
	.st105{fill:#C0DCEB;}
	.st106{fill:#45413C;}
	.st107{fill:#FFCABF;}
	.st108{fill:#87898C;stroke:#45413C;stroke-linecap:round;stroke-linejoin:round;stroke-miterlimit:10;}
	.st109{fill:#EBCB00;stroke:#45413C;stroke-linecap:round;stroke-linejoin:round;stroke-miterlimit:10;}</style>
  <path
     d="m 14.642267,27.923211 v 4.684048 c 10.348278,0 18.736198,8.387917 18.736198,18.736194 h 4.684049 c 0,-12.940117 -10.485333,-23.420242 -23.420247,-23.420242 m 0,9.368097 v 4.684048 c 5.173532,0 9.368097,4.194566 9.368097,9.368097 h 4.684049 c 0,-7.760254 -6.291891,-14.052145 -14.052146,-14.052145 m 0,9.368097 c -2.586809,0 -4.6840485,2.097239 -4.6840485,4.684048 0,2.586809 2.0972395,4.684049 4.6840485,4.684049 2.58681,0 4.684049,-2.09724 4.684049,-4.684049 0,-2.586809 -2.097239,-4.684048 -4.684049,-4.684048"
     fill="#ffffff"
     stroke-linejoin="round"
     stroke-width="5.20442"
     id="path998" />
  <g
     fill="#969696"
     stroke-width="0.16595"
     aria-label="Plasma KDE"
     id="g1018"
     transform="matrix(0.86741638,0,0,0.86741638,4.526457,6.0027317)">
    <path
       d="m 14.322,15.147 v 1.8183 h 0.82327 q 0.45701,0 0.70658,-0.23661 0.24957,-0.23661 0.24957,-0.67417 0,-0.43432 -0.24957,-0.67093 -0.24957,-0.23661 -0.70658,-0.23661 z m -0.65472,-0.53804 h 1.478 q 0.81354,0 1.2284,0.3695 0.41812,0.36626 0.41812,1.0761 0,0.71631 -0.41812,1.0826 -0.41488,0.36626 -1.2284,0.36626 h -0.82327 v 1.9447 h -0.65472 z"
       id="path1000" />
    <path
       d="m 17.644,14.405 h 0.59638 v 5.0433 H 17.644 Z"
       id="path1002" />
    <path
       d="m 21.138,17.624 q -0.72279,0 -1.0015,0.1653 -0.27874,0.1653 -0.27874,0.56397 0,0.31764 0.20744,0.50563 0.21068,0.18475 0.57045,0.18475 0.4959,0 0.7941,-0.35005 0.30143,-0.35329 0.30143,-0.93671 V 17.624 Z m 1.1895,-0.24633 v 2.0711 h -0.59638 v -0.551 q -0.2042,0.3306 -0.50887,0.48942 -0.30467,0.15558 -0.74548,0.15558 -0.55749,0 -0.88809,-0.31116 -0.32736,-0.3144 -0.32736,-0.83947 0,-0.61259 0.40839,-0.92374 0.41163,-0.31116 1.2252,-0.31116 h 0.83623 V 17.0989 q 0,-0.41163 -0.27226,-0.63528 -0.26902,-0.22688 -0.75844,-0.22688 -0.31116,0 -0.60611,0.07455 -0.29495,0.07455 -0.56721,0.22364 v -0.55101 q 0.32736,-0.12641 0.63528,-0.18799 0.30792,-0.06482 0.59962,-0.06482 0.78761,0 1.1766,0.40839 0.38894,0.40839 0.38894,1.2381 z"
       id="path1004" />
    <path
       d="m 25.871,15.925 v 0.56397 q -0.25281,-0.12965 -0.52508,-0.19447 -0.27226,-0.06482 -0.56397,-0.06482 -0.44405,0 -0.66769,0.13613 -0.2204,0.13613 -0.2204,0.40839 0,0.20744 0.15882,0.32736 0.15882,0.11668 0.63852,0.22364 l 0.2042,0.04538 q 0.63528,0.13613 0.90106,0.3857 0.26902,0.24633 0.26902,0.69038 0,0.50563 -0.40191,0.80058 -0.39867,0.29495 -1.0988,0.29495 -0.29171,0 -0.60935,-0.05834 -0.3144,-0.0551 -0.66445,-0.16854 v -0.61583 q 0.3306,0.17178 0.65148,0.2593 0.32088,0.08427 0.63528,0.08427 0.42136,0 0.64824,-0.14261 0.22688,-0.14586 0.22688,-0.40839 0,-0.24309 -0.1653,-0.37274 -0.16206,-0.12965 -0.71631,-0.24957 L 24.3638,17.82112 q -0.55425,-0.11668 -0.80058,-0.35653 -0.24633,-0.24309 -0.24633,-0.66445 0,-0.51211 0.36302,-0.79086 0.36302,-0.27874 1.0307,-0.27874 0.3306,0 0.62231,0.04862 0.29171,0.04862 0.53804,0.14585 z"
       id="path1006" />
    <path
       d="m 29.841,16.515 q 0.22364,-0.40191 0.5348,-0.59314 0.31116,-0.19123 0.73251,-0.19123 0.56721,0 0.87513,0.39867 0.30792,0.39543 0.30792,1.1279 v 2.1911 h -0.59962 v -2.1716 q 0,-0.52184 -0.18475,-0.77465 -0.18475,-0.25282 -0.56397,-0.25282 -0.46349,0 -0.73251,0.30792 -0.26902,0.30792 -0.26902,0.83947 v 2.0517 h -0.59962 v -2.1716 q 0,-0.52508 -0.18475,-0.77465 -0.18475,-0.25282 -0.57045,-0.25282 -0.45701,0 -0.72603,0.31116 -0.26902,0.30792 -0.26902,0.83623 v 2.0517 H 26.992 v -3.6302 h 0.59962 v 0.56397 q 0.2042,-0.33384 0.48942,-0.49266 0.28523,-0.15882 0.67741,-0.15882 0.39543,0 0.67093,0.20096 0.27874,0.20096 0.41163,0.58342 z"
       id="path1008" />
    <path
       d="m 35.131,17.624 q -0.72279,0 -1.0015,0.1653 -0.27874,0.1653 -0.27874,0.56397 0,0.31764 0.20744,0.50563 0.21068,0.18475 0.57045,0.18475 0.49591,0 0.7941,-0.35005 0.30143,-0.35329 0.30143,-0.93671 V 17.624 Z m 1.1895,-0.24633 v 2.0711 h -0.59638 v -0.551 q -0.2042,0.3306 -0.50887,0.48942 -0.30467,0.15558 -0.74548,0.15558 -0.55749,0 -0.88809,-0.31116 -0.32736,-0.3144 -0.32736,-0.83947 0,-0.61259 0.40839,-0.92374 0.41163,-0.31116 1.2252,-0.31116 h 0.83623 V 17.0989 q 0,-0.41163 -0.27226,-0.63528 -0.26902,-0.22688 -0.75844,-0.22688 -0.31116,0 -0.60611,0.07455 -0.29495,0.07455 -0.56721,0.22364 v -0.55101 q 0.32736,-0.12641 0.63528,-0.18799 0.30792,-0.06482 0.59962,-0.06482 0.78761,0 1.1766,0.40839 0.38895,0.40839 0.38895,1.2381 z"
       id="path1010" />
    <path
       d="m 39.685,14.609 h 0.65472 v 2.0452 l 2.1716,-2.0452 h 0.84272 l -2.4017,2.2559 2.5735,2.5832 h -0.86216 l -2.3239,-2.3304 v 2.3304 h -0.65472 z"
       id="path1012" />
    <path
       d="m 44.692,15.147 v 3.763 h 0.79086 q 1.0015,0 1.465,-0.45377 0.46673,-0.45377 0.46673,-1.4326 0,-0.97236 -0.46673,-1.4229 -0.46349,-0.45377 -1.465,-0.45377 z m -0.65472,-0.53804 h 1.3451 q 1.4067,0 2.0647,0.58666 0.65797,0.58342 0.65797,1.828 0,1.2511 -0.66121,1.8378 -0.66121,0.5867 -2.0614,0.58666 h -1.3451 z"
       id="path1014" />
    <path
       d="m 49.149,14.609 h 3.0597 v 0.55101 h -2.405 v 1.4326 h 2.3045 v 0.551 h -2.3045 v 1.7535 h 2.4633 v 0.551 h -3.118 z"
       id="path1016" />
  </g>
  <path
     d="m 14.615377,23.891459 c 2.249298,0 4.319995,0.17364 6.22779,0.493006 1.907795,0.319365 3.651129,0.783788 5.246828,1.368869 1.595699,0.585107 3.042637,1.290022 4.355732,2.087178 1.313099,0.797198 2.492785,1.687211 3.552681,2.64293 0.313354,0.282535 0.545726,0.604564 0.838619,0.89795 h 16.17905 V 23.891425 H 14.614944 Z"
     fill="#00a2ef"
     stroke-width="2.60337"
     id="path1020" />
  <g
     transform="matrix(0.21190982,0,0,0.21190982,13.655664,13.064085)"
     fill="#969696"
     stroke-width="0.16595"
     aria-label="Plasma KDE"
     id="g1040">
    <path
       d="m 14.322,15.147 v 1.8183 h 0.82327 q 0.45701,0 0.70658,-0.23661 0.24957,-0.23661 0.24957,-0.67417 0,-0.43432 -0.24957,-0.67093 -0.24957,-0.23661 -0.70658,-0.23661 z m -0.65472,-0.53804 h 1.478 q 0.81354,0 1.2284,0.3695 0.41812,0.36626 0.41812,1.0761 0,0.71631 -0.41812,1.0826 -0.41488,0.36626 -1.2284,0.36626 h -0.82327 v 1.9447 h -0.65472 z"
       id="path1022" />
    <path
       d="m 17.644,14.405 h 0.59638 v 5.0433 H 17.644 Z"
       id="path1024" />
    <path
       d="m 21.138,17.624 q -0.72279,0 -1.0015,0.1653 -0.27874,0.1653 -0.27874,0.56397 0,0.31764 0.20744,0.50563 0.21068,0.18475 0.57045,0.18475 0.4959,0 0.7941,-0.35005 0.30143,-0.35329 0.30143,-0.93671 V 17.624 Z m 1.1895,-0.24633 v 2.0711 h -0.59638 v -0.551 q -0.2042,0.3306 -0.50887,0.48942 -0.30467,0.15558 -0.74548,0.15558 -0.55749,0 -0.88809,-0.31116 -0.32736,-0.3144 -0.32736,-0.83947 0,-0.61259 0.40839,-0.92374 0.41163,-0.31116 1.2252,-0.31116 h 0.83623 V 17.0989 q 0,-0.41163 -0.27226,-0.63528 -0.26902,-0.22688 -0.75844,-0.22688 -0.31116,0 -0.60611,0.07455 -0.29495,0.07455 -0.56721,0.22364 v -0.55101 q 0.32736,-0.12641 0.63528,-0.18799 0.30792,-0.06482 0.59962,-0.06482 0.78761,0 1.1766,0.40839 0.38894,0.40839 0.38894,1.2381 z"
       id="path1026" />
    <path
       d="m 25.871,15.925 v 0.56397 q -0.25281,-0.12965 -0.52508,-0.19447 -0.27226,-0.06482 -0.56397,-0.06482 -0.44405,0 -0.66769,0.13613 -0.2204,0.13613 -0.2204,0.40839 0,0.20744 0.15882,0.32736 0.15882,0.11668 0.63852,0.22364 l 0.2042,0.04538 q 0.63528,0.13613 0.90106,0.3857 0.26902,0.24633 0.26902,0.69038 0,0.50563 -0.40191,0.80058 -0.39867,0.29495 -1.0988,0.29495 -0.29171,0 -0.60935,-0.05834 -0.3144,-0.0551 -0.66445,-0.16854 v -0.61583 q 0.3306,0.17178 0.65148,0.2593 0.32088,0.08427 0.63528,0.08427 0.42136,0 0.64824,-0.14261 0.22688,-0.14586 0.22688,-0.40839 0,-0.24309 -0.1653,-0.37274 -0.16206,-0.12965 -0.71631,-0.24957 L 24.3638,17.82112 q -0.55425,-0.11668 -0.80058,-0.35653 -0.24633,-0.24309 -0.24633,-0.66445 0,-0.51211 0.36302,-0.79086 0.36302,-0.27874 1.0307,-0.27874 0.3306,0 0.62231,0.04862 0.29171,0.04862 0.53804,0.14585 z"
       id="path1028" />
    <path
       d="m 29.841,16.515 q 0.22364,-0.40191 0.5348,-0.59314 0.31116,-0.19123 0.73251,-0.19123 0.56721,0 0.87513,0.39867 0.30792,0.39543 0.30792,1.1279 v 2.1911 h -0.59962 v -2.1716 q 0,-0.52184 -0.18475,-0.77465 -0.18475,-0.25282 -0.56397,-0.25282 -0.46349,0 -0.73251,0.30792 -0.26902,0.30792 -0.26902,0.83947 v 2.0517 h -0.59962 v -2.1716 q 0,-0.52508 -0.18475,-0.77465 -0.18475,-0.25282 -0.57045,-0.25282 -0.45701,0 -0.72603,0.31116 -0.26902,0.30792 -0.26902,0.83623 v 2.0517 H 26.992 v -3.6302 h 0.59962 v 0.56397 q 0.2042,-0.33384 0.48942,-0.49266 0.28523,-0.15882 0.67741,-0.15882 0.39543,0 0.67093,0.20096 0.27874,0.20096 0.41163,0.58342 z"
       id="path1030" />
    <path
       d="m 35.131,17.624 q -0.72279,0 -1.0015,0.1653 -0.27874,0.1653 -0.27874,0.56397 0,0.31764 0.20744,0.50563 0.21068,0.18475 0.57045,0.18475 0.49591,0 0.7941,-0.35005 0.30143,-0.35329 0.30143,-0.93671 V 17.624 Z m 1.1895,-0.24633 v 2.0711 h -0.59638 v -0.551 q -0.2042,0.3306 -0.50887,0.48942 -0.30467,0.15558 -0.74548,0.15558 -0.55749,0 -0.88809,-0.31116 -0.32736,-0.3144 -0.32736,-0.83947 0,-0.61259 0.40839,-0.92374 0.41163,-0.31116 1.2252,-0.31116 h 0.83623 V 17.0989 q 0,-0.41163 -0.27226,-0.63528 -0.26902,-0.22688 -0.75844,-0.22688 -0.31116,0 -0.60611,0.07455 -0.29495,0.07455 -0.56721,0.22364 v -0.55101 q 0.32736,-0.12641 0.63528,-0.18799 0.30792,-0.06482 0.59962,-0.06482 0.78761,0 1.1766,0.40839 0.38895,0.40839 0.38895,1.2381 z"
       id="path1032" />
    <path
       d="m 39.685,14.609 h 0.65472 v 2.0452 l 2.1716,-2.0452 h 0.84272 l -2.4017,2.2559 2.5735,2.5832 h -0.86216 l -2.3239,-2.3304 v 2.3304 h -0.65472 z"
       id="path1034" />
    <path
       d="m 44.692,15.147 v 3.763 h 0.79086 q 1.0015,0 1.465,-0.45377 0.46673,-0.45377 0.46673,-1.4326 0,-0.97236 -0.46673,-1.4229 -0.46349,-0.45377 -1.465,-0.45377 z m -0.65472,-0.53804 h 1.3451 q 1.4067,0 2.0647,0.58666 0.65797,0.58342 0.65797,1.828 0,1.2511 -0.66121,1.8378 -0.66121,0.5867 -2.0614,0.58666 h -1.3451 z"
       id="path1036" />
    <path
       d="m 49.149,14.609 h 3.0597 v 0.55101 h -2.405 v 1.4326 h 2.3045 v 0.551 h -2.3045 v 1.7535 h 2.4633 v 0.551 h -3.118 z"
       id="path1038" />
  </g>
  <g
     fill="#969696"
     stroke-width="0.16595"
     id="g1082"
     transform="matrix(0.86741638,0,0,0.86741638,3.9028823,8.6463322)">
    <g
       transform="matrix(0.2443,0,0,0.2443,29.92,5.093)"
       aria-label="Plasma KDE"
       id="g1060">
      <path
         d="m 14.322,15.147 v 1.8183 h 0.82327 q 0.45701,0 0.70658,-0.23661 0.24957,-0.23661 0.24957,-0.67417 0,-0.43432 -0.24957,-0.67093 -0.24957,-0.23661 -0.70658,-0.23661 z m -0.65472,-0.53804 h 1.478 q 0.81354,0 1.2284,0.3695 0.41812,0.36626 0.41812,1.0761 0,0.71631 -0.41812,1.0826 -0.41488,0.36626 -1.2284,0.36626 h -0.82327 v 1.9447 h -0.65472 z"
         id="path1042" />
      <path
         d="m 17.644,14.405 h 0.59638 v 5.0433 H 17.644 Z"
         id="path1044" />
      <path
         d="m 21.138,17.624 q -0.72279,0 -1.0015,0.1653 -0.27874,0.1653 -0.27874,0.56397 0,0.31764 0.20744,0.50563 0.21068,0.18475 0.57045,0.18475 0.4959,0 0.7941,-0.35005 0.30143,-0.35329 0.30143,-0.93671 V 17.624 Z m 1.1895,-0.24633 v 2.0711 h -0.59638 v -0.551 q -0.2042,0.3306 -0.50887,0.48942 -0.30467,0.15558 -0.74548,0.15558 -0.55749,0 -0.88809,-0.31116 -0.32736,-0.3144 -0.32736,-0.83947 0,-0.61259 0.40839,-0.92374 0.41163,-0.31116 1.2252,-0.31116 h 0.83623 V 17.0989 q 0,-0.41163 -0.27226,-0.63528 -0.26902,-0.22688 -0.75844,-0.22688 -0.31116,0 -0.60611,0.07455 -0.29495,0.07455 -0.56721,0.22364 v -0.55101 q 0.32736,-0.12641 0.63528,-0.18799 0.30792,-0.06482 0.59962,-0.06482 0.78761,0 1.1766,0.40839 0.38894,0.40839 0.38894,1.2381 z"
         id="path1046" />
      <path
         d="m 25.871,15.925 v 0.56397 q -0.25281,-0.12965 -0.52508,-0.19447 -0.27226,-0.06482 -0.56397,-0.06482 -0.44405,0 -0.66769,0.13613 -0.2204,0.13613 -0.2204,0.40839 0,0.20744 0.15882,0.32736 0.15882,0.11668 0.63852,0.22364 l 0.2042,0.04538 q 0.63528,0.13613 0.90106,0.3857 0.26902,0.24633 0.26902,0.69038 0,0.50563 -0.40191,0.80058 -0.39867,0.29495 -1.0988,0.29495 -0.29171,0 -0.60935,-0.05834 -0.3144,-0.0551 -0.66445,-0.16854 v -0.61583 q 0.3306,0.17178 0.65148,0.2593 0.32088,0.08427 0.63528,0.08427 0.42136,0 0.64824,-0.14261 0.22688,-0.14586 0.22688,-0.40839 0,-0.24309 -0.1653,-0.37274 -0.16206,-0.12965 -0.71631,-0.24957 L 24.3638,17.82112 q -0.55425,-0.11668 -0.80058,-0.35653 -0.24633,-0.24309 -0.24633,-0.66445 0,-0.51211 0.36302,-0.79086 0.36302,-0.27874 1.0307,-0.27874 0.3306,0 0.62231,0.04862 0.29171,0.04862 0.53804,0.14585 z"
         id="path1048" />
      <path
         d="m 29.841,16.515 q 0.22364,-0.40191 0.5348,-0.59314 0.31116,-0.19123 0.73251,-0.19123 0.56721,0 0.87513,0.39867 0.30792,0.39543 0.30792,1.1279 v 2.1911 h -0.59962 v -2.1716 q 0,-0.52184 -0.18475,-0.77465 -0.18475,-0.25282 -0.56397,-0.25282 -0.46349,0 -0.73251,0.30792 -0.26902,0.30792 -0.26902,0.83947 v 2.0517 h -0.59962 v -2.1716 q 0,-0.52508 -0.18475,-0.77465 -0.18475,-0.25282 -0.57045,-0.25282 -0.45701,0 -0.72603,0.31116 -0.26902,0.30792 -0.26902,0.83623 v 2.0517 H 26.992 v -3.6302 h 0.59962 v 0.56397 q 0.2042,-0.33384 0.48942,-0.49266 0.28523,-0.15882 0.67741,-0.15882 0.39543,0 0.67093,0.20096 0.27874,0.20096 0.41163,0.58342 z"
         id="path1050" />
      <path
         d="m 35.131,17.624 q -0.72279,0 -1.0015,0.1653 -0.27874,0.1653 -0.27874,0.56397 0,0.31764 0.20744,0.50563 0.21068,0.18475 0.57045,0.18475 0.49591,0 0.7941,-0.35005 0.30143,-0.35329 0.30143,-0.93671 V 17.624 Z m 1.1895,-0.24633 v 2.0711 h -0.59638 v -0.551 q -0.2042,0.3306 -0.50887,0.48942 -0.30467,0.15558 -0.74548,0.15558 -0.55749,0 -0.88809,-0.31116 -0.32736,-0.3144 -0.32736,-0.83947 0,-0.61259 0.40839,-0.92374 0.41163,-0.31116 1.2252,-0.31116 h 0.83623 V 17.0989 q 0,-0.41163 -0.27226,-0.63528 -0.26902,-0.22688 -0.75844,-0.22688 -0.31116,0 -0.60611,0.07455 -0.29495,0.07455 -0.56721,0.22364 v -0.55101 q 0.32736,-0.12641 0.63528,-0.18799 0.30792,-0.06482 0.59962,-0.06482 0.78761,0 1.1766,0.40839 0.38895,0.40839 0.38895,1.2381 z"
         id="path1052" />
      <path
         d="m 39.685,14.609 h 0.65472 v 2.0452 l 2.1716,-2.0452 h 0.84272 l -2.4017,2.2559 2.5735,2.5832 h -0.86216 l -2.3239,-2.3304 v 2.3304 h -0.65472 z"
         id="path1054" />
      <path
         d="m 44.692,15.147 v 3.763 h 0.79086 q 1.0015,0 1.465,-0.45377 0.46673,-0.45377 0.46673,-1.4326 0,-0.97236 -0.46673,-1.4229 -0.46349,-0.45377 -1.465,-0.45377 z m -0.65472,-0.53804 h 1.3451 q 1.4067,0 2.0647,0.58666 0.65797,0.58342 0.65797,1.828 0,1.2511 -0.66121,1.8378 -0.66121,0.5867 -2.0614,0.58666 h -1.3451 z"
         id="path1056" />
      <path
         d="m 49.149,14.609 h 3.0597 v 0.55101 h -2.405 v 1.4326 h 2.3045 v 0.551 h -2.3045 v 1.7535 h 2.4633 v 0.551 h -3.118 z"
         id="path1058" />
    </g>
    <g
       transform="matrix(0.2443,0,0,0.2443,39.88,5.093)"
       aria-label="Plasma KDE"
       id="g1080">
      <path
         d="m 14.322,15.147 v 1.8183 h 0.82327 q 0.45701,0 0.70658,-0.23661 0.24957,-0.23661 0.24957,-0.67417 0,-0.43432 -0.24957,-0.67093 -0.24957,-0.23661 -0.70658,-0.23661 z m -0.65472,-0.53804 h 1.478 q 0.81354,0 1.2284,0.3695 0.41812,0.36626 0.41812,1.0761 0,0.71631 -0.41812,1.0826 -0.41488,0.36626 -1.2284,0.36626 h -0.82327 v 1.9447 h -0.65472 z"
         id="path1062" />
      <path
         d="m 17.644,14.405 h 0.59638 v 5.0433 H 17.644 Z"
         id="path1064" />
      <path
         d="m 21.138,17.624 q -0.72279,0 -1.0015,0.1653 -0.27874,0.1653 -0.27874,0.56397 0,0.31764 0.20744,0.50563 0.21068,0.18475 0.57045,0.18475 0.4959,0 0.7941,-0.35005 0.30143,-0.35329 0.30143,-0.93671 V 17.624 Z m 1.1895,-0.24633 v 2.0711 h -0.59638 v -0.551 q -0.2042,0.3306 -0.50887,0.48942 -0.30467,0.15558 -0.74548,0.15558 -0.55749,0 -0.88809,-0.31116 -0.32736,-0.3144 -0.32736,-0.83947 0,-0.61259 0.40839,-0.92374 0.41163,-0.31116 1.2252,-0.31116 h 0.83623 V 17.0989 q 0,-0.41163 -0.27226,-0.63528 -0.26902,-0.22688 -0.75844,-0.22688 -0.31116,0 -0.60611,0.07455 -0.29495,0.07455 -0.56721,0.22364 v -0.55101 q 0.32736,-0.12641 0.63528,-0.18799 0.30792,-0.06482 0.59962,-0.06482 0.78761,0 1.1766,0.40839 0.38894,0.40839 0.38894,1.2381 z"
         id="path1066" />
      <path
         d="m 25.871,15.925 v 0.56397 q -0.25281,-0.12965 -0.52508,-0.19447 -0.27226,-0.06482 -0.56397,-0.06482 -0.44405,0 -0.66769,0.13613 -0.2204,0.13613 -0.2204,0.40839 0,0.20744 0.15882,0.32736 0.15882,0.11668 0.63852,0.22364 l 0.2042,0.04538 q 0.63528,0.13613 0.90106,0.3857 0.26902,0.24633 0.26902,0.69038 0,0.50563 -0.40191,0.80058 -0.39867,0.29495 -1.0988,0.29495 -0.29171,0 -0.60935,-0.05834 -0.3144,-0.0551 -0.66445,-0.16854 v -0.61583 q 0.3306,0.17178 0.65148,0.2593 0.32088,0.08427 0.63528,0.08427 0.42136,0 0.64824,-0.14261 0.22688,-0.14586 0.22688,-0.40839 0,-0.24309 -0.1653,-0.37274 -0.16206,-0.12965 -0.71631,-0.24957 L 24.3638,17.82112 q -0.55425,-0.11668 -0.80058,-0.35653 -0.24633,-0.24309 -0.24633,-0.66445 0,-0.51211 0.36302,-0.79086 0.36302,-0.27874 1.0307,-0.27874 0.3306,0 0.62231,0.04862 0.29171,0.04862 0.53804,0.14585 z"
         id="path1068" />
      <path
         d="m 29.841,16.515 q 0.22364,-0.40191 0.5348,-0.59314 0.31116,-0.19123 0.73251,-0.19123 0.56721,0 0.87513,0.39867 0.30792,0.39543 0.30792,1.1279 v 2.1911 h -0.59962 v -2.1716 q 0,-0.52184 -0.18475,-0.77465 -0.18475,-0.25282 -0.56397,-0.25282 -0.46349,0 -0.73251,0.30792 -0.26902,0.30792 -0.26902,0.83947 v 2.0517 h -0.59962 v -2.1716 q 0,-0.52508 -0.18475,-0.77465 -0.18475,-0.25282 -0.57045,-0.25282 -0.45701,0 -0.72603,0.31116 -0.26902,0.30792 -0.26902,0.83623 v 2.0517 H 26.992 v -3.6302 h 0.59962 v 0.56397 q 0.2042,-0.33384 0.48942,-0.49266 0.28523,-0.15882 0.67741,-0.15882 0.39543,0 0.67093,0.20096 0.27874,0.20096 0.41163,0.58342 z"
         id="path1070" />
      <path
         d="m 35.131,17.624 q -0.72279,0 -1.0015,0.1653 -0.27874,0.1653 -0.27874,0.56397 0,0.31764 0.20744,0.50563 0.21068,0.18475 0.57045,0.18475 0.49591,0 0.7941,-0.35005 0.30143,-0.35329 0.30143,-0.93671 V 17.624 Z m 1.1895,-0.24633 v 2.0711 h -0.59638 v -0.551 q -0.2042,0.3306 -0.50887,0.48942 -0.30467,0.15558 -0.74548,0.15558 -0.55749,0 -0.88809,-0.31116 -0.32736,-0.3144 -0.32736,-0.83947 0,-0.61259 0.40839,-0.92374 0.41163,-0.31116 1.2252,-0.31116 h 0.83623 V 17.0989 q 0,-0.41163 -0.27226,-0.63528 -0.26902,-0.22688 -0.75844,-0.22688 -0.31116,0 -0.60611,0.07455 -0.29495,0.07455 -0.56721,0.22364 v -0.55101 q 0.32736,-0.12641 0.63528,-0.18799 0.30792,-0.06482 0.59962,-0.06482 0.78761,0 1.1766,0.40839 0.38895,0.40839 0.38895,1.2381 z"
         id="path1072" />
      <path
         d="m 39.685,14.609 h 0.65472 v 2.0452 l 2.1716,-2.0452 h 0.84272 l -2.4017,2.2559 2.5735,2.5832 h -0.86216 l -2.3239,-2.3304 v 2.3304 h -0.65472 z"
         id="path1074" />
      <path
         d="m 44.692,15.147 v 3.763 h 0.79086 q 1.0015,0 1.465,-0.45377 0.46673,-0.45377 0.46673,-1.4326 0,-0.97236 -0.46673,-1.4229 -0.46349,-0.45377 -1.465,-0.45377 z m -0.65472,-0.53804 h 1.3451 q 1.4067,0 2.0647,0.58666 0.65797,0.58342 0.65797,1.828 0,1.2511 -0.66121,1.8378 -0.66121,0.5867 -2.0614,0.58666 h -1.3451 z"
         id="path1076" />
      <path
         d="m 49.149,14.609 h 3.0597 v 0.55101 h -2.405 v 1.4326 h 2.3045 v 0.551 h -2.3045 v 1.7535 h 2.4633 v 0.551 h -3.118 z"
         id="path1078" />
    </g>
  </g>
  <g
     transform="matrix(0.21190982,0,0,0.21190982,39.119027,29.66932)"
     fill="#969696"
     stroke-width="0.16595"
     aria-label="Plasma KDE"
     id="g1102">
    <path
       d="m 14.322,15.147 v 1.8183 h 0.82327 q 0.45701,0 0.70658,-0.23661 0.24957,-0.23661 0.24957,-0.67417 0,-0.43432 -0.24957,-0.67093 -0.24957,-0.23661 -0.70658,-0.23661 z m -0.65472,-0.53804 h 1.478 q 0.81354,0 1.2284,0.3695 0.41812,0.36626 0.41812,1.0761 0,0.71631 -0.41812,1.0826 -0.41488,0.36626 -1.2284,0.36626 h -0.82327 v 1.9447 h -0.65472 z"
       id="path1084" />
    <path
       d="m 17.644,14.405 h 0.59638 v 5.0433 H 17.644 Z"
       id="path1086" />
    <path
       d="m 21.138,17.624 q -0.72279,0 -1.0015,0.1653 -0.27874,0.1653 -0.27874,0.56397 0,0.31764 0.20744,0.50563 0.21068,0.18475 0.57045,0.18475 0.4959,0 0.7941,-0.35005 0.30143,-0.35329 0.30143,-0.93671 V 17.624 Z m 1.1895,-0.24633 v 2.0711 h -0.59638 v -0.551 q -0.2042,0.3306 -0.50887,0.48942 -0.30467,0.15558 -0.74548,0.15558 -0.55749,0 -0.88809,-0.31116 -0.32736,-0.3144 -0.32736,-0.83947 0,-0.61259 0.40839,-0.92374 0.41163,-0.31116 1.2252,-0.31116 h 0.83623 V 17.0989 q 0,-0.41163 -0.27226,-0.63528 -0.26902,-0.22688 -0.75844,-0.22688 -0.31116,0 -0.60611,0.07455 -0.29495,0.07455 -0.56721,0.22364 v -0.55101 q 0.32736,-0.12641 0.63528,-0.18799 0.30792,-0.06482 0.59962,-0.06482 0.78761,0 1.1766,0.40839 0.38894,0.40839 0.38894,1.2381 z"
       id="path1088" />
    <path
       d="m 25.871,15.925 v 0.56397 q -0.25281,-0.12965 -0.52508,-0.19447 -0.27226,-0.06482 -0.56397,-0.06482 -0.44405,0 -0.66769,0.13613 -0.2204,0.13613 -0.2204,0.40839 0,0.20744 0.15882,0.32736 0.15882,0.11668 0.63852,0.22364 l 0.2042,0.04538 q 0.63528,0.13613 0.90106,0.3857 0.26902,0.24633 0.26902,0.69038 0,0.50563 -0.40191,0.80058 -0.39867,0.29495 -1.0988,0.29495 -0.29171,0 -0.60935,-0.05834 -0.3144,-0.0551 -0.66445,-0.16854 v -0.61583 q 0.3306,0.17178 0.65148,0.2593 0.32088,0.08427 0.63528,0.08427 0.42136,0 0.64824,-0.14261 0.22688,-0.14586 0.22688,-0.40839 0,-0.24309 -0.1653,-0.37274 -0.16206,-0.12965 -0.71631,-0.24957 L 24.3638,17.82112 q -0.55425,-0.11668 -0.80058,-0.35653 -0.24633,-0.24309 -0.24633,-0.66445 0,-0.51211 0.36302,-0.79086 0.36302,-0.27874 1.0307,-0.27874 0.3306,0 0.62231,0.04862 0.29171,0.04862 0.53804,0.14585 z"
       id="path1090" />
    <path
       d="m 29.841,16.515 q 0.22364,-0.40191 0.5348,-0.59314 0.31116,-0.19123 0.73251,-0.19123 0.56721,0 0.87513,0.39867 0.30792,0.39543 0.30792,1.1279 v 2.1911 h -0.59962 v -2.1716 q 0,-0.52184 -0.18475,-0.77465 -0.18475,-0.25282 -0.56397,-0.25282 -0.46349,0 -0.73251,0.30792 -0.26902,0.30792 -0.26902,0.83947 v 2.0517 h -0.59962 v -2.1716 q 0,-0.52508 -0.18475,-0.77465 -0.18475,-0.25282 -0.57045,-0.25282 -0.45701,0 -0.72603,0.31116 -0.26902,0.30792 -0.26902,0.83623 v 2.0517 H 26.992 v -3.6302 h 0.59962 v 0.56397 q 0.2042,-0.33384 0.48942,-0.49266 0.28523,-0.15882 0.67741,-0.15882 0.39543,0 0.67093,0.20096 0.27874,0.20096 0.41163,0.58342 z"
       id="path1092" />
    <path
       d="m 35.131,17.624 q -0.72279,0 -1.0015,0.1653 -0.27874,0.1653 -0.27874,0.56397 0,0.31764 0.20744,0.50563 0.21068,0.18475 0.57045,0.18475 0.49591,0 0.7941,-0.35005 0.30143,-0.35329 0.30143,-0.93671 V 17.624 Z m 1.1895,-0.24633 v 2.0711 h -0.59638 v -0.551 q -0.2042,0.3306 -0.50887,0.48942 -0.30467,0.15558 -0.74548,0.15558 -0.55749,0 -0.88809,-0.31116 -0.32736,-0.3144 -0.32736,-0.83947 0,-0.61259 0.40839,-0.92374 0.41163,-0.31116 1.2252,-0.31116 h 0.83623 V 17.0989 q 0,-0.41163 -0.27226,-0.63528 -0.26902,-0.22688 -0.75844,-0.22688 -0.31116,0 -0.60611,0.07455 -0.29495,0.07455 -0.56721,0.22364 v -0.55101 q 0.32736,-0.12641 0.63528,-0.18799 0.30792,-0.06482 0.59962,-0.06482 0.78761,0 1.1766,0.40839 0.38895,0.40839 0.38895,1.2381 z"
       id="path1094" />
    <path
       d="m 39.685,14.609 h 0.65472 v 2.0452 l 2.1716,-2.0452 h 0.84272 l -2.4017,2.2559 2.5735,2.5832 h -0.86216 l -2.3239,-2.3304 v 2.3304 h -0.65472 z"
       id="path1096" />
    <path
       d="m 44.692,15.147 v 3.763 h 0.79086 q 1.0015,0 1.465,-0.45377 0.46673,-0.45377 0.46673,-1.4326 0,-0.97236 -0.46673,-1.4229 -0.46349,-0.45377 -1.465,-0.45377 z m -0.65472,-0.53804 h 1.3451 q 1.4067,0 2.0647,0.58666 0.65797,0.58342 0.65797,1.828 0,1.2511 -0.66121,1.8378 -0.66121,0.5867 -2.0614,0.58666 h -1.3451 z"
       id="path1098" />
    <path
       d="m 49.149,14.609 h 3.0597 v 0.55101 h -2.405 v 1.4326 h 2.3045 v 0.551 h -2.3045 v 1.7535 h 2.4633 v 0.551 h -3.118 z"
       id="path1100" />
  </g>
</svg>
