<?xml version="1.0" encoding="UTF-8"?>
<svg width="64" height="64" version="1.1" viewBox="0 0 16.933 16.933" xmlns="http://www.w3.org/2000/svg" xmlns:cc="http://creativecommons.org/ns#" xmlns:dc="http://purl.org/dc/elements/1.1/" xmlns:rdf="http://www.w3.org/1999/02/22-rdf-syntax-ns#">
 <defs>
  <linearGradient id="linearGradient1448-3" x1="3.9687" x2="3.9687" y1="8.9776" y2=".54085" gradientTransform="matrix(.91668 0 0 .91668 3.2946 4.145)" gradientUnits="userSpaceOnUse">
   <stop stop-color="#dcdcdc" offset="0"/>
   <stop stop-color="#f0f0f0" offset="1"/>
  </linearGradient>
 </defs>
 <metadata>
  <rdf:RDF>
   <cc:Work rdf:about="">
    <dc:format>image/svg+xml</dc:format>
    <dc:type rdf:resource="http://purl.org/dc/dcmitype/StillImage"/>
    <dc:title/>
   </cc:Work>
  </rdf:RDF>
 </metadata>
 <g transform="translate(-2.5891 -3.4396)">
  <rect x="3.7797" y="4.6301" width="14.552" height="14.552" ry="3.4396" fill="url(#linearGradient1448-3)" stroke-opacity=".95294" stroke-width=".083154"/>
  <path d="m11.08 6.6146c-0.22918-0.00102-0.45882 0.048255-0.63397 0.14833l-3.5171 2.01c-0.1358 0.077607-0.26124 0.19947-0.3649 0.34227l1.2449 0.72595 2.4627 1.4358c0.33329 0.19444 0.61018 0.52484 0.7846 0.89651 0.17438-0.37163 0.4513-0.70208 0.78459-0.8965l3.7037-2.1594c-0.0968-0.12718-0.21046-0.23602-0.33346-0.30779l-1.7494-1.0203-1.7496-1.0207c-0.17425-0.10166-0.40287-0.15307-0.63204-0.15408zm4.6605 2.8428-1.2399 0.72292-2.4611 1.4354c-0.40925 0.23875-0.78645 0.896-0.78762 1.3714 2e-6 0.0027 7.43e-4 0.0054 7.41e-4 8e-3l-3.82e-4 0.13299 0.01228 2.7164 0.0062 1.3472c0.14468-0.02212 0.28215-0.06338 0.39594-0.1284l3.5171-2.01c0.35031-0.20017 0.63601-0.69012 0.63778-1.0935l0.0093-2.0257 0.0088-2.0252c6.48e-4 -0.14494-0.03644-0.30114-0.09888-0.45152zm-9.3635 0.00309c-0.052721 0.13606-0.085284 0.27523-0.085855 0.40592l-0.00921 2.0257-0.00882 2.0252c-0.00177 0.40349 0.27934 0.896 0.62783 1.0993l1.7497 1.0203 1.7496 1.0207c0.12554 0.07322 0.27959 0.11924 0.44154 0.14029l0.0062-1.3535 0.01227-2.7164-3.82e-4 -0.133c-1.2e-5 -0.0026 7.42e-4 -0.0054 7.39e-4 -8e-3 -0.0012-0.47538-0.37842-1.1326-0.78762-1.3714l-2.4611-1.4355-1.235-0.71983z" fill="#c8f178" stroke-width=".26166" style="isolation:isolate"/>
  <path d="m11.074 7.9883c-0.16977-7.488e-4 -0.3398 0.035868-0.46954 0.11001l-1.3028 0.74438-1.3024 0.7444c-0.090133 0.051512-0.17388 0.12988-0.24569 0.22153l0.055576 0.032581 2.4627 1.4358c0.33329 0.19444 0.61018 0.52484 0.7846 0.89651 0.17438-0.37163 0.4513-0.70209 0.78459-0.8965l2.4627-1.4359 0.05174-0.030281c-0.066051-0.080292-0.14056-0.1496-0.22117-0.19663l-2.5918-1.5117c-0.12907-0.075307-0.29862-0.11346-0.46838-0.11422zm3.4737 2.1644-0.04713 0.0276-2.4611 1.4354c-0.40925 0.23875-0.78645 0.896-0.78763 1.3714 2e-6 0.0027 7.43e-4 0.0054 7.41e-4 0.0081l-3.84e-4 0.13224 0.01228 2.6857c0.08853-0.01787 0.17278-0.04453 0.24377-0.08509l1.3028-0.74438 1.3024-0.7444c0.25947-0.14826 0.47126-0.51145 0.47259-0.81025l0.0069-1.5002 0.0065-1.5001c4.09e-4 -0.08866-0.01938-0.18299-0.05173-0.27596zm-6.9793 0.0023c-0.026132 0.0818-0.041432 0.16424-0.041781 0.24224l-0.00691 1.5002-0.00654 1.5002c-0.00134 0.29886 0.20717 0.66393 0.46531 0.81448l2.5918 1.5117c0.08002 0.04666 0.17634 0.07737 0.27788 0.09544l0.01227-2.6919-3.83e-4 -0.13224c-1.2e-5 -0.0026 7.42e-4 -0.0054 7.39e-4 -0.0081-0.0012-0.47538-0.37841-1.1326-0.78761-1.3714l-2.4611-1.4354-0.043695-0.0253z" fill="#a5de37" stroke-width=".26166" style="isolation:isolate"/>
 </g>
</svg>
