<?xml version="1.0" encoding="UTF-8"?>
<svg width="64" height="64" version="1.1" viewBox="0 0 16.933 16.933" xmlns="http://www.w3.org/2000/svg" xmlns:cc="http://creativecommons.org/ns#" xmlns:dc="http://purl.org/dc/elements/1.1/" xmlns:rdf="http://www.w3.org/1999/02/22-rdf-syntax-ns#" xmlns:xlink="http://www.w3.org/1999/xlink">
 <defs>
  <linearGradient id="linearGradient3236" x1="-56.395" x2="-56.395" y1="4.4765" y2="30.514" gradientTransform="matrix(.26458 0 0 .26458 19.599 .60476)" gradientUnits="userSpaceOnUse">
   <stop stop-color="#f0f0f0" offset="0"/>
   <stop stop-color="#dcdcdc" offset="1"/>
  </linearGradient>
  <filter id="filter1191" x="-.084" y="-.084" width="1.168" height="1.168" color-interpolation-filters="sRGB">
   <feGaussianBlur stdDeviation="0.39816695"/>
  </filter>
  <linearGradient id="linearGradient996" x1="30.426" x2="41.01" y1="12.418" y2="22.868" gradientTransform="matrix(.81574 0 0 .81574 -20.757 -4.5593)" gradientUnits="userSpaceOnUse">
   <stop stop-color="#0578d2" offset="0"/>
   <stop stop-color="#0a5091" offset="1"/>
  </linearGradient>
  <filter id="filter2679" x="-.054304" y="-.026925" width="1.1086" height="1.0538" color-interpolation-filters="sRGB">
   <feGaussianBlur stdDeviation="0.28046598"/>
  </filter>
  <linearGradient id="linearGradient2667" x1="51.171" x2="51.171" y1="52.127" y2="27.199" gradientTransform="matrix(.22519 0 0 .22519 -3.4918 .34342)" gradientUnits="userSpaceOnUse">
   <stop stop-color="#afd2f5" offset="0"/>
   <stop stop-color="#fff" offset="1"/>
  </linearGradient>
 </defs>
 <metadata>
  <rdf:RDF>
   <cc:Work rdf:about="">
    <dc:format>image/svg+xml</dc:format>
    <dc:type rdf:resource="http://purl.org/dc/dcmitype/StillImage"/>
    <dc:title/>
   </cc:Work>
  </rdf:RDF>
 </metadata>
 <g transform="translate(.90714 -.60476)">
  <path d="m3.7231 1.7954c-1.9055 0-3.4396 1.5341-3.4396 3.4396v7.6729c0 1.9055 1.5341 3.4396 3.4396 3.4396h7.6729c1.9055 0 3.4396-1.5341 3.4396-3.4396v-7.6729c0-1.9055-1.5341-3.4396-3.4396-3.4396z" fill="url(#linearGradient3236)" stroke-linecap="round" stroke-width="1.2298"/>
  <path transform="matrix(.79649 0 0 .78899 -1.437 .69104)" d="m11.05 5.0283a5.4518 5.4518 0 0 0-3.9349 1.5962 5.4518 5.4518 0 0 0 0 7.7102 5.4518 5.4518 0 0 0 6.1086 1.1025l3.0909 0.93159c0.43178 0.13014 0.67492-0.113 0.54479-0.54479l-0.9301-3.0855a5.4518 5.4518 0 0 0-1.1039-6.114 5.4518 5.4518 0 0 0-3.7754-1.5962z" filter="url(#filter1191)" opacity=".6"/>
  <path d="m7.7227 4.4128a4.6403 4.6403 0 0 0-3.3492 1.3586 4.6403 4.6403 0 0 0 0 6.5625 4.6403 4.6403 0 0 0 5.1993 0.93838l2.6308 0.79292c0.3675 0.11077 0.57445-0.09618 0.46369-0.46369l-0.79165-2.6262a4.6403 4.6403 0 0 0-0.93958-5.2039 4.6403 4.6403 0 0 0-3.2134-1.3586z" fill="url(#linearGradient996)" stroke-width=".85114"/>
  <path transform="matrix(.22519 0 0 .22519 -19.432 .55998)" d="m120.76 26.394c-1.108 0-2.1582 0.12723-3.1509 0.38103-0.9695 0.25359-1.8467 0.58873-2.6316 1.0041l0.9002 2.4934c1.4542-0.7848 2.9435-1.1772 4.4668-1.1772 1.2003 0 2.1123 0.31101 2.7355 0.93438 0.62322 0.60016 0.93437 1.385 0.93437 2.3545 0 0.60013-0.13823 1.1544-0.4152 1.6623-0.25392 0.50765-0.58873 0.99259-1.0042 1.4543-0.4155 0.46153-0.85376 0.9228-1.3154 1.3845-0.46164 0.43875-0.90066 0.92337-1.3162 1.4543-0.41549 0.50762-0.76136 1.0621-1.0384 1.6623-0.25395 0.60016-0.381 1.269-0.381 2.0076 0 0.50762 0.0461 0.9927 0.13817 1.4544h2.7006c-0.0232-0.11574-0.0344-0.24154-0.0344-0.38042v-0.381c0-0.76171 0.15001-1.4431 0.4501-2.0433 0.30006-0.62322 0.6696-1.1886 1.1082-1.6965 0.43853-0.53094 0.92266-1.0386 1.4536-1.5234 0.53089-0.48488 1.0157-0.99253 1.4543-1.5234 0.43861-0.53095 0.80813-1.0963 1.1082-1.6964 0.30006-0.62334 0.4501-1.3276 0.4501-2.1124 0-0.62322-0.10345-1.2692-0.31121-1.9386-0.18467-0.69247-0.53123-1.3162-1.0391-1.8702-0.5078-0.5543-1.1885-1.004-2.0426-1.3503-0.83098-0.36937-1.9048-0.55432-3.2207-0.55432zm-0.55429 20.36c-0.71558 0-1.281 0.23033-1.6965 0.69221-0.4155 0.46156-0.62317 1.0041-0.62317 1.6274 0 0.62328 0.20764 1.1656 0.62317 1.6274 0.41549 0.46153 0.98088 0.69301 1.6965 0.69301 0.71559 0 1.2817-0.23148 1.6972-0.69301 0.41549-0.46153 0.62317-1.0041 0.62317-1.6274s-0.20765-1.1657-0.62317-1.6274c-0.4155-0.46153-0.98159-0.69221-1.6972-0.69221z" enable-background="new" filter="url(#filter2679)" opacity=".4" stroke-width="5.8347"/>
  <path d="m7.7623 6.4389c-0.24951 0-0.48601 0.028651-0.70956 0.085806-0.21833 0.057106-0.41587 0.13258-0.59262 0.22612l0.20272 0.5615c0.32748-0.17673 0.66286-0.2651 1.0059-0.2651 0.2703 0 0.47568 0.070038 0.61602 0.21042 0.14035 0.13515 0.21041 0.31189 0.21041 0.53022 0 0.13515-0.031128 0.25996-0.093501 0.37434-0.057181 0.11432-0.13258 0.22352-0.22614 0.3275-0.093568 0.10393-0.19226 0.20781-0.29622 0.31178-0.10396 0.098804-0.20282 0.20794-0.2964 0.3275-0.093566 0.11431-0.17145 0.23918-0.23384 0.37434-0.057188 0.13515-0.085799 0.28577-0.085799 0.4521 0 0.11431 0.010382 0.22355 0.031115 0.32752h0.60816c-0.00523-0.02606-0.00775-0.05439-0.00775-0.08567v-0.0858c0-0.17153 0.033781-0.32498 0.10136-0.46014 0.067575-0.14034 0.15079-0.26766 0.24956-0.38204 0.098754-0.11956 0.20778-0.23389 0.32734-0.34306 0.11955-0.10919 0.22873-0.22351 0.3275-0.34306 0.098772-0.11957 0.18199-0.24688 0.24956-0.38202 0.067572-0.14037 0.10136-0.29897 0.10136-0.4757 0-0.14035-0.023297-0.28582-0.070083-0.43656-0.041586-0.15594-0.11963-0.2964-0.234-0.42116-0.11435-0.12482-0.26764-0.22609-0.45998-0.30408-0.18713-0.08318-0.42895-0.12483-0.72528-0.12483zm-0.12482 4.5849c-0.16114 0-0.28847 0.05187-0.38204 0.15588-0.093568 0.10394-0.14033 0.22612-0.14033 0.36648 0 0.14036 0.046759 0.26248 0.14033 0.36648 0.093566 0.10393 0.22089 0.15606 0.38204 0.15606 0.16115 0 0.28863-0.05213 0.3822-0.15606 0.093566-0.10393 0.14033-0.22612 0.14033-0.36648 0-0.14036-0.046761-0.26251-0.14033-0.36648-0.093568-0.10393-0.22105-0.15588-0.3822-0.15588z" enable-background="new" fill="url(#linearGradient2667)" stroke-width="1.3139"/>
 </g>
</svg>
