<?xml version="1.0" encoding="UTF-8"?>
<svg width="64" height="64" version="1.1" viewBox="0 0 16.933 16.933" xmlns="http://www.w3.org/2000/svg" xmlns:cc="http://creativecommons.org/ns#" xmlns:dc="http://purl.org/dc/elements/1.1/" xmlns:rdf="http://www.w3.org/1999/02/22-rdf-syntax-ns#" xmlns:xlink="http://www.w3.org/1999/xlink">
 <defs>
  <linearGradient id="linearGradient1115" x1="-4.1931" x2="-59.193" y1="4.5" y2="59.5" gradientTransform="matrix(.26458 0 0 .26458 16.701 2.4001)" gradientUnits="userSpaceOnUse">
   <stop stop-color="#fff" offset="0"/>
   <stop stop-color="#e1e5ea" offset="1"/>
  </linearGradient>
 </defs>
 <metadata>
  <rdf:RDF>
   <cc:Work rdf:about="">
    <dc:format>image/svg+xml</dc:format>
    <dc:type rdf:resource="http://purl.org/dc/dcmitype/StillImage"/>
    <dc:title/>
   </cc:Work>
  </rdf:RDF>
 </metadata>
 <g transform="translate(.15119 -2.4001)">
  <rect x="1.0394" y="3.5908" width="14.552" height="14.552" ry="3.4396" fill="url(#linearGradient1115)" image-rendering="optimizeSpeed" stroke-width=".12512"/>
  <path d="m10.663 12.454c-0.26664 0.0414-0.52297 0.0812-0.79195 0.12297 0.047471-1.248 0.094742-2.4909 0.14212-3.736 0.0222-0.00573 0.04022-0.012018 0.05878-0.014893 0.5106-0.079281 1.0206-0.16256 1.5321-0.23481 0.14462-0.020483 0.29518-0.022604 0.44074-0.00891 0.4734 0.044584 0.79577 0.34037 0.87297 0.80851 0.09096 0.55045-0.03909 1.0427-0.42202 1.4602-0.24812 0.27036-0.56773 0.4012-0.9175 0.46748-0.26472 0.05011-0.53196 0.08767-0.79854 0.12766-0.0568 0.0086-0.08038 0.02529-0.08198 0.0893-0.0078 0.30385-0.02234 0.6076-0.03473 0.91849zm0.06072-1.5742c0.27432-0.05358 0.53163-0.09072 0.78157-0.15627 0.32652-0.08547 0.53454-0.30132 0.5817-0.64125 0.02257-0.16284 0.02635-0.33248 0.0085-0.49579-0.02828-0.25826-0.15875-0.38693-0.41872-0.38231-0.2959 0.0053-0.59106 0.051521-0.89242 0.080586-0.02047 0.53806-0.04 1.055-0.06058 1.595zm-6.2469 2.5334c-0.26637 0.04136-0.52545 0.08159-0.79168 0.12293 0.047271-1.2466 0.094391-2.4878 0.14168-3.7342 0.025931-0.00615 0.049661-0.013768 0.074127-0.017566 0.50096-0.077923 1.0015-0.15931 1.5035-0.23065 0.14143-0.020133 0.28845-0.024239 0.43096-0.012018 0.46832 0.040022 0.77301 0.28535 0.87897 0.74114 0.20668 0.88959-0.29688 1.6179-0.86982 1.856-0.15287 0.06343-0.31514 0.11073-0.47756 0.14341-0.25768 0.05198-0.51889 0.08662-0.77915 0.12563-0.053645 0.0081-0.074443 0.02549-0.076148 0.08432-0.00838 0.30407-0.022414 0.60803-0.034899 0.92105zm0.060636-1.573c0.27242-0.05313 0.52989-0.09016 0.77985-0.15558 0.33489-0.08776 0.54253-0.31058 0.58638-0.65915 0.01981-0.15706 0.023493-0.32007 6e-3 -0.47712-0.028828-0.25818-0.15922-0.38812-0.4182-0.38352-0.29606 0.0052-0.59136 0.05143-0.89344 0.08032-0.020471 0.53806-0.040116 1.0552-0.060584 1.595zm2.4385-3.5205c0.26705-0.041465 0.52297-0.081201 0.78549-0.12197-0.0121 0.33182-0.024016 0.65755-0.036195 0.99247 0.21359-0.033159 0.41851-0.072302 0.62528-0.09498 0.20954-0.022965 0.42213-0.050768 0.63127-0.039185 0.44199 0.024546 0.6652 0.2745 0.65637 0.72348-0.01004 0.50913-0.034211 1.0179-0.052171 1.5269-0.00323 0.08974-0.00336 0.17956-0.012039 0.26874-0.00225 0.02357-0.028573 0.06074-0.048438 0.06425-0.246 0.042-0.4929 0.07907-0.75006 0.119 0.0089-0.24728 0.017555-0.48341 0.025938-0.7195 0.01199-0.3425 0.028071-0.68492 0.033863-1.0274 0.0043-0.25065-0.10877-0.35696-0.35909-0.32921-0.25463 0.028131-0.507 0.076194-0.77447 0.11772-0.027057 0.70686-0.054342 1.4159-0.081904 2.1313-0.25908 0.04023-0.5172 0.08031-0.78577 0.12201 0.0474-1.2457 0.094468-2.4864 0.14193-3.7335z" fill="#4d4d4d" fill-rule="evenodd" vector-effect="non-scaling-stroke" style="isolation:isolate"/>
 </g>
</svg>
