<?xml version="1.0" encoding="UTF-8"?>
<svg width="64" height="64" version="1.1" viewBox="0 0 16.933 16.933" xmlns="http://www.w3.org/2000/svg" xmlns:cc="http://creativecommons.org/ns#" xmlns:dc="http://purl.org/dc/elements/1.1/" xmlns:rdf="http://www.w3.org/1999/02/22-rdf-syntax-ns#" xmlns:xlink="http://www.w3.org/1999/xlink">
 <defs>
  <linearGradient id="linearGradient7561" x1=".76043" x2="14.845" y1="1.1638" y2="14.845" gradientTransform="matrix(.48507 0 0 .48507 -2.2405 5.508)" gradientUnits="userSpaceOnUse">
   <stop stop-color="#a549d0" offset="0"/>
   <stop stop-color="#c25bef" offset="1"/>
  </linearGradient>
  <linearGradient id="linearGradient7569" x1="30.831" x2="17.515" y1="1.1508" y2="15.03" gradientTransform="matrix(.48507 0 0 .48507 -2.3204 5.508)" gradientUnits="userSpaceOnUse">
   <stop stop-color="#b143f2" offset="0"/>
   <stop stop-color="#8f32cb" offset="1"/>
  </linearGradient>
  <linearGradient id="linearGradient1670" x1=".76043" x2="14.845" y1="1.1638" y2="14.845" gradientTransform="matrix(.48507 0 0 -.48507 -2.2405 20.95)" gradientUnits="userSpaceOnUse">
   <stop stop-color="#8424d5" offset="0"/>
   <stop stop-color="#c25bef" offset="1"/>
  </linearGradient>
  <linearGradient id="linearGradient1668" x1="30.831" x2="17.515" y1="1.1508" y2="15.03" gradientTransform="matrix(.48507 0 0 -.48507 -2.3204 20.95)" gradientUnits="userSpaceOnUse">
   <stop stop-color="#6526aa" offset="0"/>
   <stop stop-color="#8f32cb" offset="1"/>
  </linearGradient>
 </defs>
 <metadata>
  <rdf:RDF>
   <cc:Work rdf:about="">
    <dc:format>image/svg+xml</dc:format>
    <dc:type rdf:resource="http://purl.org/dc/dcmitype/StillImage"/>
    <dc:title/>
   </cc:Work>
  </rdf:RDF>
 </metadata>
 <g transform="translate(2.986 -4.7625)">
  <path d="m1.5628 5.9531c-1.8604 0-3.3582 1.4977-3.3582 3.3582 0 0.020413 0.00229 0.040024 0.00263 0.060339-2.778e-4 0.00246-0.00263 0.00397-0.00263 0.00658v3.2643c0 0.03719 0.029693 0.06688 0.066901 0.06688h6.6225c0.03721 0 0.0669-0.02969 0.0669-0.0669v-6.5556c0-0.074417-0.059385-0.1338-0.1338-0.1338h-3.1305c-0.00578 0-0.00887 0.00586-0.01443 0.00656-0.040044-0.0014-0.078977-0.00656-0.11937-0.00656z" fill="url(#linearGradient7561)"/>
  <path d="m9.3985 5.9531c1.8604 0 3.3582 1.4977 3.3582 3.3582 0 0.020413-0.0023 0.040024-0.0026 0.060339 2.91e-4 0.00246 0.0026 0.00397 0.0026 0.00658v3.2643c0 0.03719-0.02969 0.06688-0.0669 0.06688h-6.6225c-0.03721 0-0.066901-0.02969-0.066901-0.0669v-6.5556c0-0.074417 0.059386-0.1338 0.1338-0.1338h3.1305c0.00578 0 0.00887 0.00586 0.014433 0.00656 0.040041-0.0014 0.078976-0.00656 0.11937-0.00656z" fill="url(#linearGradient7569)"/>
  <path d="m1.5628 20.505c-1.8604 0-3.3582-1.4977-3.3582-3.3582 0-0.02041 0.00229-0.04002 0.00263-0.06034-2.778e-4 -0.0025-0.00263-4e-3 -0.00263-0.0066v-3.2644c0-0.03719 0.029692-0.06688 0.066901-0.06688h6.6225c0.037211 0 0.0669 0.02969 0.0669 0.0669v6.5556c0 0.07442-0.059385 0.1338-0.1338 0.1338h-3.1305c-0.00578 0-0.00887-0.0059-0.01443-0.0066-0.040044 0.0014-0.078977 0.0066-0.11937 0.0066z" fill="url(#linearGradient1670)"/>
  <path d="m9.3985 20.505c1.8604 0 3.3582-1.4977 3.3582-3.3582 0-0.02041-0.0023-0.04002-0.0026-0.06034 2.91e-4 -0.0024 0.0026-0.0039 0.0026-0.0066v-3.2644c0-0.03719-0.02969-0.06688-0.0669-0.06688h-6.6225c-0.03721-3e-6 -0.066901 0.02969-0.066901 0.0669v6.5556c0 0.07442 0.059386 0.1338 0.1338 0.1338h3.1305c0.00578 0 0.00887-0.0059 0.014433-0.0066 0.040039 0.0014 0.078976 0.0066 0.11937 0.0066z" fill="url(#linearGradient1668)"/>
 </g>
</svg>
