<?xml version="1.0" encoding="UTF-8"?>
<svg width="64" height="64" version="1.1" viewBox="0 0 16.933 16.933" xmlns="http://www.w3.org/2000/svg" xmlns:cc="http://creativecommons.org/ns#" xmlns:dc="http://purl.org/dc/elements/1.1/" xmlns:rdf="http://www.w3.org/1999/02/22-rdf-syntax-ns#" xmlns:xlink="http://www.w3.org/1999/xlink">
 <defs>
  <linearGradient id="linearGradient1448-7" x1="3.9687" x2="3.9687" y1="8.9776" y2=".54085" gradientTransform="matrix(.91668 0 0 .91668 .25685 5.9363)" gradientUnits="userSpaceOnUse">
   <stop stop-color="#dcdcdc" offset="0"/>
   <stop stop-color="#f0f0f0" offset="1"/>
  </linearGradient>
  <linearGradient id="linearGradient2047" x1="19.198" x2="43.223" y1="16.363" y2="40.388" gradientTransform="matrix(.28063 0 0 .28063 1.1773 7.332)" gradientUnits="userSpaceOnUse">
   <stop stop-color="#f33d3c" offset="0"/>
   <stop stop-color="#b11525" offset="1"/>
  </linearGradient>
 </defs>
 <metadata>
  <rdf:RDF>
   <cc:Work rdf:about="">
    <dc:format>image/svg+xml</dc:format>
    <dc:type rdf:resource="http://purl.org/dc/dcmitype/StillImage"/>
    <dc:title/>
   </cc:Work>
  </rdf:RDF>
 </metadata>
 <g transform="translate(.44858 -5.2309)">
  <rect x=".74194" y="6.4214" width="14.552" height="14.552" ry="3.4396" fill="url(#linearGradient1448-7)" stroke-opacity=".95294" stroke-width=".083154"/>
  <path d="m2.8694 17.912 5.0364-9.2433 5.401 9.9974s0.03115 0.07717-0.10944 0.03732c-0.13218-0.03761-0.24527-0.14845-0.38221-0.13667-0.11534 0.0098-0.18409 0.1768-0.29831 0.15855-0.16333-0.0261-0.24695-0.33731-0.41224-0.33254-0.14565 0.0042-0.10972 0.28343-0.32721 0.30083-0.19279 0.01628-0.16136-0.51271-0.35556-0.52898-0.13161-0.01094-0.16108 0.54498-0.3244 0.5447-0.17287 0 7e-3 -0.79979-0.24218-0.81298-0.19504-0.01038-0.08784 0.70185-0.26295 0.70269-0.24162 0.0011-0.03648-1.1666-0.33451-1.1615-0.21187 0.0034 0.016 1.0807-0.25986 1.0773-0.25397-0.0031-0.00926-1.6672-0.29438-1.647-0.23517 0.01656 0.028905 1.4884-0.22983 1.4946-0.31346 0.0073-0.0014-2.0503-0.31262-2.0528-0.2753-0.0025-0.028624 1.8201-0.28063 1.8201-0.30701 0 8.466e-4 -2.3517-0.29101-2.3671-0.31767-0.01684 0.077734 2.3623-0.26856 2.3598-0.33423-0.0025 0.095414-2.9856-0.29185-3.0142-0.31711-0.02329 0.086714 2.7925-0.23881 2.8049-0.3418 0.01291 0.10327-3.28-0.30111-3.2808-0.29606-8.47e-4 0.020767 3.1548-0.28596 3.1992-0.28343-0.06258 0.056687-3.4834-0.27445-3.4846-0.3418-0.0011 0.057809 3.4012-0.29606 3.4091-0.29662 0.0039 0.126-3.4141-0.26351-3.4012-0.35808 0.01066 0.01375 3.3872-0.28063 3.3816-0.31767-0.0036 0.081382-3.1234-0.27473-3.1037-0.27137 0.14031-0.010382 2.4131-0.27081 3.1349-0.2854-0.28343 0.020487-2.2344-0.2969-2.5778-0.26042 0.37492-0.056687 2.6253-0.26856 2.6337-0.26014 0.01263-0.012629-1.7654-0.29157-1.7823-0.16697-0.0101-0.25565 2.0141-0.46023 2.0219-0.23769 0.02385-0.21159-1.1385-0.37604-1.1349-0.19055 0.02442-0.14059 1.2718-0.39063 1.2749-0.14368 0.03424-0.17848-0.49166-0.30701-0.47931-0.11534 0.01095-0.13695 0.55312-0.32749 0.65078-0.17427 0.02357-0.08952-0.16613 0.046023-0.46219" color="#000000" fill="url(#linearGradient2047)" stroke-width=".2201"/>
 </g>
</svg>
