<?xml version="1.0" encoding="UTF-8"?>
<svg width="64" height="64" version="1.1" viewBox="0 0 16.933 16.933" xmlns="http://www.w3.org/2000/svg" xmlns:cc="http://creativecommons.org/ns#" xmlns:dc="http://purl.org/dc/elements/1.1/" xmlns:rdf="http://www.w3.org/1999/02/22-rdf-syntax-ns#">
 <defs>
  <linearGradient id="linearGradient1081" x1="1.3229" x2="15.875" y1="15.875" y2="2.6458" gradientTransform="matrix(1 0 0 1 7.7957 3.4017)" gradientUnits="userSpaceOnUse">
   <stop stop-color="#ffbe32" offset="0"/>
   <stop stop-color="#ffdc6e" offset="1"/>
  </linearGradient>
 </defs>
 <metadata>
  <rdf:RDF>
   <cc:Work rdf:about="">
    <dc:format>image/svg+xml</dc:format>
    <dc:type rdf:resource="http://purl.org/dc/dcmitype/StillImage"/>
    <dc:title/>
   </cc:Work>
  </rdf:RDF>
 </metadata>
 <g transform="translate(-7.9281 -3.5341)">
  <g stroke-width=".26459">
   <path d="m12.558 4.7247c-1.9055 0-3.4396 1.5341-3.4396 3.4396v1.3229h7.9376v-2.1167l-1.8319-2.2898-0.0124-0.015502a0.92605 0.92605 0 0 0-0.0186-0.022738 0.92605 0.92605 0 0 0-0.02791-0.031007 0.92605 0.92605 0 0 0-0.02946-0.029457 0.92605 0.92605 0 0 0-0.03101-0.027906 0.92605 0.92605 0 0 0-0.03152-0.026872 0.92605 0.92605 0 0 0-0.03307-0.025321 0.92605 0.92605 0 0 0-0.03462-0.02377 0.92605 0.92605 0 0 0-0.03514-0.022219 0.92605 0.92605 0 0 0-0.03617-0.020153 0.92605 0.92605 0 0 0-0.03721-0.019121 0.92605 0.92605 0 0 0-0.03773-0.017052 0.92605 0.92605 0 0 0-0.03876-0.015502 0.92605 0.92605 0 0 0-0.03927-0.013951 0.92605 0.92605 0 0 0-0.03979-0.011885 0.92605 0.92605 0 0 0-0.04031-0.010334 0.92605 0.92605 0 0 0-0.04083-0.00827 0.92605 0.92605 0 0 0-0.04083-0.00672 0.92605 0.92605 0 0 0-0.04134-0.00465 0.92605 0.92605 0 0 0-0.04186-0.00259 0.92605 0.92605 0 0 0-0.04134-0.00103z" fill="#e1a000"/>
   <path d="m12.558 4.7247c-1.9055 0-3.4396 1.5341-3.4396 3.4396v7.673c0 1.9055 1.5341 3.4396 3.4396 3.4396h7.673c1.9055 0 3.4396-1.5341 3.4396-3.4396v-5.8209h-6.6146l0.52917-2.6459-1.8443-2.3053c-0.0061-0.0077-0.01228-0.01526-0.0186-0.02274-0.0091-0.01055-0.01837-0.02088-0.0279-0.031012-0.0096-0.01004-0.01942-0.01986-0.02946-0.029451-0.01012-0.0095-0.02046-0.01884-0.03101-0.02791-0.0103-0.0092-0.02082-0.01815-0.03152-0.026872-0.01084-0.0087-0.02186-0.01713-0.03307-0.02532-0.01136-0.0082-0.0229-0.01611-0.03462-0.02377-0.01155-0.0077-0.02326-0.01508-0.03514-0.022221-0.01191-7e-3 -0.02397-0.0137-0.03617-0.02015-0.01225-0.0067-0.02466-0.01303-0.03721-0.01912-0.01245-6e-3 -0.02502-0.01165-0.03772-0.01705-0.0128-0.0055-0.02572-0.01062-0.03876-0.0155-0.01299-0.0049-0.02608-0.0096-0.03927-0.01395-0.01317-0.0043-0.02644-0.0082-0.03979-0.01189-0.01336-0.0037-0.0268-0.0072-0.04031-0.01033-0.01354-0.0031-0.02716-0.0058-0.04082-0.0083-0.01356-0.0025-0.02717-0.0048-0.04083-0.0067-0.01374-0.0019-0.02753-0.0034-0.04134-0.0047-0.01393-0.0012-0.02789-2e-3 -0.04186-0.0026-0.01377-6.402e-4 -0.02755-9.736e-4 -0.04134-1e-3z" fill="#e1a000"/>
   <path d="m12.558 4.7246c-1.9055 0-3.4396 1.5341-3.4396 3.4396v0.20567c0-1.9055 1.5341-3.4396 3.4396-3.4396h2.466c0.01379 2.65e-5 0.02757 3.943e-4 0.04134 0.00103 0.01397 6.006e-4 0.02793 0.00138 0.04186 0.00259 0.01381 0.0013 0.0276 0.00275 0.04134 0.00465 0.01366 0.0019 0.02727 0.00422 0.04083 0.00672 0.01367 0.0025 0.02728 0.00517 0.04083 0.00827 0.01351 0.00313 0.02695 0.00664 0.04031 0.010335 0.01335 0.00369 0.02662 0.00759 0.03979 0.011885 0.01319 0.00435 0.02629 0.00905 0.03927 0.013952 0.01304 0.00488 0.02596 0.010003 0.03876 0.015503 0.0127 0.0054 0.02528 0.011053 0.03773 0.017053 0.01254 0.00609 0.02495 0.01242 0.03721 0.01912 0.0122 0.00645 0.02427 0.013154 0.03617 0.020154 0.01188 0.00714 0.02359 0.01452 0.03514 0.022221 0.01172 0.00766 0.02326 0.015571 0.03462 0.023772 0.01121 0.00819 0.02224 0.016621 0.03307 0.025321 0.0107 0.00872 0.02122 0.017671 0.03152 0.026872 0.01054 0.00907 0.02088 0.018405 0.03101 0.027906 0.01004 0.00959 0.01986 0.019415 0.02946 0.029457 0.0095 0.01013 0.01883 0.020455 0.02791 0.031007 0.0063 0.00748 0.01252 0.015037 0.0186 0.022738l0.0124 0.015498 1.7989 2.2484 0.03307-0.16433-1.8319-2.2898-0.0124-0.015503c-0.0061-0.0077-0.01228-0.015257-0.0186-0.022738-0.0091-0.01055-0.01837-0.020875-0.02791-0.031007-0.0096-0.01004-0.01942-0.019865-0.02946-0.029457-0.01012-0.0095-0.02046-0.018835-0.03101-0.027906-0.0103-0.0092-0.02082-0.018151-0.03152-0.026872-0.01083-0.0087-0.02186-0.017131-0.03307-0.025321-0.01136-0.0082-0.02291-0.016111-0.03462-0.023771-0.01155-0.0077-0.02326-0.01508-0.03514-0.022221-0.01191-7e-3 -0.02397-0.013704-0.03617-0.020154-0.01225-0.0067-0.02466-0.01303-0.03721-0.01912-0.01245-6e-3 -0.02503-0.011653-0.03773-0.017053-0.0128-0.0055-0.02572-0.010622-0.03876-0.015503-0.01299-0.0049-0.02608-0.0096-0.03927-0.013952-0.01317-0.0043-0.02644-0.0082-0.03979-0.011885-0.01336-0.0037-0.0268-0.0072-0.04031-0.010335-0.01354-0.0031-0.02716-0.00577-0.04083-0.00827-0.01356-0.0025-0.02717-0.00482-0.04083-0.00672-0.01374-0.0019-0.02753-0.00335-0.04134-0.00465-0.01393-0.0012-0.02789-0.00198-0.04186-0.00258-0.01377-6.403e-4 -0.02755-0.00101-0.04134-0.00103h-2.466zm4.5278 5.2917-0.02997 0.14573 6.6146 0.04961v-0.19534h-6.5847z" fill="#e1ffff" opacity=".2"/>
   <path d="m17.215 6.0476a1.1113 1.1113 0 0 0-0.04548 0.00103 1.1113 1.1113 0 0 0-0.05013 0.0031 1.1113 1.1113 0 0 0-0.04961 0.00568 1.1113 1.1113 0 0 0-0.04909 0.00827 1.1113 1.1113 0 0 0-0.04909 0.00982 1.1113 1.1113 0 0 0-0.04806 0.012402 1.1113 1.1113 0 0 0-0.04806 0.014469 1.1113 1.1113 0 0 0-0.04702 0.016536 1.1113 1.1113 0 0 0-0.04651 0.018604 1.1113 1.1113 0 0 0-0.04496 0.02067 1.1113 1.1113 0 0 0-0.04496 0.022737 1.1113 1.1113 0 0 0-0.04341 0.024288 1.1113 1.1113 0 0 0-0.04186 0.026356 1.1113 1.1113 0 0 0-0.04186 0.028941 1.1113 1.1113 0 0 0-0.03979 0.029972 1.1113 1.1113 0 0 0-0.03773 0.032558 1.1113 1.1113 0 0 0-0.03721 0.033589 1.1113 1.1113 0 0 0-0.03514 0.03514 1.1113 1.1113 0 0 0-0.03359 0.037206 1.1113 1.1113 0 0 0-0.02222 0.02739l-0.01499 0.018603-1.7751 2.2185h-5.4504v7.1438c0 1.9055 1.5341 3.4396 3.4396 3.4396h7.673c1.9055 0 3.4396-1.5341 3.4396-3.4396v-5.8209h-0.0078c-0.083435-2.2119-1.8866-3.9688-4.1195-3.9688h-2.3244a1.1113 1.1113 0 0 0-0.0041 0z" fill="url(#linearGradient1081)"/>
   <path d="m17.215 6.0476a1.1113 1.1113 0 0 0-0.04548 0.00103 1.1113 1.1113 0 0 0-0.05013 0.0031 1.1113 1.1113 0 0 0-0.04961 0.00568 1.1113 1.1113 0 0 0-0.04909 0.00827 1.1113 1.1113 0 0 0-0.04909 0.00982 1.1113 1.1113 0 0 0-0.04806 0.012402 1.1113 1.1113 0 0 0-0.04806 0.014469 1.1113 1.1113 0 0 0-0.04702 0.016536 1.1113 1.1113 0 0 0-0.04651 0.018604 1.1113 1.1113 0 0 0-0.04496 0.02067 1.1113 1.1113 0 0 0-0.04496 0.022737 1.1113 1.1113 0 0 0-0.04341 0.024288 1.1113 1.1113 0 0 0-0.04186 0.026356 1.1113 1.1113 0 0 0-0.04186 0.028941 1.1113 1.1113 0 0 0-0.03979 0.029972 1.1113 1.1113 0 0 0-0.03773 0.032558 1.1113 1.1113 0 0 0-0.03721 0.033589 1.1113 1.1113 0 0 0-0.03514 0.03514 1.1113 1.1113 0 0 0-0.03359 0.037206 1.1113 1.1113 0 0 0-0.02222 0.02739l-0.01499 0.018603-1.7751 2.2185h-5.4504v0.20877h5.56l1.7751-2.2185 0.01499-0.018602c0.0073-0.00921 0.01464-0.018415 0.02222-0.02739 0.01088-0.012652 0.02215-0.025059 0.03359-0.037206 0.01151-0.012041 0.02361-0.023631 0.03566-0.03514 0.01215-0.01144 0.02455-0.022706 0.03721-0.033589 0.01237-0.01103 0.02488-0.022091 0.03773-0.032558 0.013-0.010422 0.02634-0.020145 0.03979-0.029973 0.01363-0.00982 0.02728-0.019743 0.04134-0.028941 0.01386-0.0092 0.02812-0.017785 0.04238-0.026356 0.01429-0.00838 0.02876-0.016557 0.04341-0.024288 0.01471-0.00798 0.02939-0.015428 0.04444-0.022738 0.01494-0.00716 0.03024-0.014187 0.04548-0.020671 0.01536-0.00655 0.03087-0.012753 0.04651-0.018603 0.01558-0.00593 0.03119-0.011316 0.04702-0.016536 0.01581-0.00511 0.03152-0.010067 0.04754-0.01447 0.01603-0.00449 0.03236-0.00863 0.04857-0.012401 0.01625-0.00367 0.03269-0.00689 0.04909-0.00982 0.01627-0.00306 0.03219-0.00594 0.04858-0.00827 0.01649-0.00225 0.03304-0.00419 0.04961-0.00568 0.01672-0.00146 0.03388-0.00241 0.05064-0.0031 0.01652-7.673e-4 0.03307-0.00101 0.04961-0.00103h2.2143c2.2331 3e-7 4.0362 1.7568 4.1196 3.9688h0.0078v-0.20877h-0.0078c-0.083488-2.2119-1.8866-3.9688-4.1196-3.9688h-2.3244a1.1113 1.1113 0 0 0-0.0041 0z" fill="#fff" opacity=".2"/>
   <path d="m9.1186 15.66v0.17725c0 1.9055 1.5341 3.4396 3.4396 3.4396h7.673c1.9055 0 3.4396-1.5341 3.4396-3.4396v-0.17725c0 1.9055-1.5341 3.4396-3.4396 3.4396h-7.673c-1.9055 0-3.4396-1.5341-3.4396-3.4396z" opacity=".1"/>
  </g>
  <path d="m15.849 15.783v1.7704c0 0.07544 0.06073 0.13618 0.13618 0.13618h0.81709c0.07545 0 0.13618-0.06073 0.13618-0.13618v-1.7704zm0.27236 1.0894h0.54473v0.54473h-0.54473z" color="#000000" fill="#f5faff" stroke-width="1.0294"/>
  <path d="m16.394 8.4289v0.54473h0.54473v-0.54473zm0 0.54473h-0.54473v0.54473h0.54473zm0 0.54473v0.54473h0.54473v-0.54473zm0 0.54473h-0.54473v0.54473h0.54473zm0 0.54473v0.54473h0.54473v-0.54473zm0 0.54473h-0.54473v0.54473h0.54473zm0 0.54473v0.54473h0.54473v-0.54473zm0 0.54473h-0.54473v0.54473h0.54473zm0 0.54473v0.54473h0.54473v-0.54473zm0 0.54473h-0.54473v0.54473h0.54473zm0 0.54473v0.54473h0.54473v-0.54473zm0 0.54473h-0.54473v0.54473h0.54473zm0 0.54473v0.54473h0.54473v-0.54473z" color="#000000" fill="#f5faff" stroke-width="1.0294"/>
 </g>
</svg>
