<?xml version="1.0" encoding="UTF-8"?>
<svg width="64" height="64" version="1.1" viewBox="0 0 16.933 16.933" xmlns="http://www.w3.org/2000/svg" xmlns:cc="http://creativecommons.org/ns#" xmlns:dc="http://purl.org/dc/elements/1.1/" xmlns:rdf="http://www.w3.org/1999/02/22-rdf-syntax-ns#">
 <defs>
  <linearGradient id="linearGradient1448" x1="3.9687" x2="3.9687" y1="8.9776" y2=".54085" gradientTransform="matrix(.91668 0 0 .91668 -2.4223 3.2473)" gradientUnits="userSpaceOnUse">
   <stop stop-color="#dcdcdc" offset="0"/>
   <stop stop-color="#f0f0f0" offset="1"/>
  </linearGradient>
 </defs>
 <metadata>
  <rdf:RDF>
   <cc:Work rdf:about="">
    <dc:format>image/svg+xml</dc:format>
    <dc:type rdf:resource="http://purl.org/dc/dcmitype/StillImage"/>
    <dc:title/>
   </cc:Work>
  </rdf:RDF>
 </metadata>
 <g transform="translate(3.1278 -2.5419)">
  <rect x="-1.9372" y="3.7324" width="14.552" height="14.552" ry="3.4396" fill="url(#linearGradient1448)" stroke-opacity=".95294" stroke-width=".083154"/>
  <g stroke-width=".20352">
   <path d="m5.3389 11.364c0.12964 0 0.27313 0.046 0.57676 0.14715l4.4671 1.8272c0.17788 0.08955 0.24747 0.20819 0.24747 0.31545-2e-6 0.10685-0.0696 0.2255-0.24768 0.31506l-4.4754 1.8309-0.00325 0.0021c-0.38263 0.1913-0.74771 0.1913-1.1303-5e-6l-0.00325-2e-3 -4.4754-1.8309c-0.17808-0.089594-0.24769-0.20825-0.2477-0.3153-5.3e-6 -0.10705 0.069604-0.2257 0.24768-0.31525l4.4655-1.8269 0.00167-4e-6c0.30365-0.10115 0.44714-0.14714 0.57676-0.14716z" fill="#f35a23" overflow="visible" style="font-feature-settings:normal;font-variant-alternates:normal;font-variant-caps:normal;font-variant-ligatures:normal;font-variant-numeric:normal;font-variant-position:normal;isolation:auto;mix-blend-mode:normal;shape-padding:0;text-decoration-color:#000000;text-decoration-line:none;text-decoration-style:solid;text-indent:0;text-orientation:mixed;text-transform:none;white-space:normal"/>
   <path d="m5.3389 11.364-8e-7 6.35e-4c-0.12964 2e-6 -0.27312 0.04579-0.57676 0.14693l-0.00167 4e-6 -3.2662 1.3365 3.1956 1.3074c0.42678 0.21105 0.87107 0.21105 1.298 6e-6l3.1957-1.3074-3.2678-1.3369c-0.30365-0.10115-0.44714-0.14694-0.57676-0.14694z" fill-opacity=".078" overflow="visible" style="font-feature-settings:normal;font-variant-alternates:normal;font-variant-caps:normal;font-variant-ligatures:normal;font-variant-numeric:normal;font-variant-position:normal;isolation:auto;mix-blend-mode:normal;shape-padding:0;text-decoration-color:#000000;text-decoration-line:none;text-decoration-style:solid;text-indent:0;text-orientation:mixed;text-transform:none;white-space:normal"/>
   <path d="m5.3392 8.7181c0.12964-8e-7 0.27313 0.045998 0.57676 0.14715l4.4671 1.8274c0.17788 0.08955 0.24747 0.20799 0.24747 0.31504 2e-6 0.10725-0.0696 0.2259-0.24768 0.31544l-4.4751 1.8306-0.00325 0.0021c-0.38263 0.1913-0.74771 0.1913-1.1303-5e-6l-0.00325-2e-3 -4.4754-1.8309c-0.17808-0.089392-0.24769-0.20804-0.24769-0.3153 1.33e-6 -0.10705 0.069604-0.2257 0.24768-0.31506l4.4655-1.8269 0.00167-4.7e-6c0.30364-0.10115 0.44714-0.14714 0.57676-0.14715z" fill="#8bc34a" overflow="visible" style="font-feature-settings:normal;font-variant-alternates:normal;font-variant-caps:normal;font-variant-ligatures:normal;font-variant-numeric:normal;font-variant-position:normal;isolation:auto;mix-blend-mode:normal;shape-padding:0;text-decoration-color:#000000;text-decoration-line:none;text-decoration-style:solid;text-indent:0;text-orientation:mixed;text-transform:none;white-space:normal"/>
   <path d="m5.3389 11.159 5.9e-6 2e-3c-0.17523-1e-6 -0.33742 0.05597-0.6427 0.15774l-0.00325 0.0021-0.00305 2e-3 -2.1982 0.89952 2.2788 0.93213 0.00325 2e-3c0.3826 0.1913 0.74775 0.19131 1.1303 4e-6l0.00325-0.0021 2.2813-0.93332-2.2037-0.90158-0.00325-0.0022c-0.30529-0.10177-0.46747-0.15793-0.64273-0.15794z" fill="#7eb73d" overflow="visible" style="font-feature-settings:normal;font-variant-alternates:normal;font-variant-caps:normal;font-variant-ligatures:normal;font-variant-numeric:normal;font-variant-position:normal;isolation:auto;mix-blend-mode:normal;shape-padding:0;text-decoration-color:#000000;text-decoration-line:none;text-decoration-style:solid;text-indent:0;text-orientation:mixed;text-transform:none;white-space:normal"/>
   <path d="m5.3389 11.364-8e-7 6.35e-4c-0.12964 2e-6 -0.27312 0.04579-0.57676 0.14693l-0.00167 4e-6 -2.0026 0.81936 2.0126 0.82324 0.00325 2e-3c0.3826 0.1913 0.74775 0.19131 1.1303 5e-6l0.00325-0.0021 2.0122-0.82344-2.0038-0.81979c-0.30364-0.10111-0.44714-0.1469-0.57676-0.1469z" fill="#83be3f" overflow="visible" style="font-feature-settings:normal;font-variant-alternates:normal;font-variant-caps:normal;font-variant-ligatures:normal;font-variant-numeric:normal;font-variant-position:normal;isolation:auto;mix-blend-mode:normal;shape-padding:0;text-decoration-color:#000000;text-decoration-line:none;text-decoration-style:solid;text-indent:0;text-orientation:mixed;text-transform:none;white-space:normal"/>
   <path d="m5.3392 8.7181-3e-7 6.35e-4c-0.12964 6e-7 -0.27312 0.045792-0.57676 0.14693l-0.00167 4.3e-6 -3.2662 1.3365 3.1956 1.3074c0.42678 0.21105 0.87107 0.21105 1.298 7e-6l3.1957-1.3074-3.2678-1.3369c-0.30365-0.10115-0.44714-0.14694-0.57676-0.14694z" fill-opacity=".078" overflow="visible" style="font-feature-settings:normal;font-variant-alternates:normal;font-variant-caps:normal;font-variant-ligatures:normal;font-variant-numeric:normal;font-variant-position:normal;isolation:auto;mix-blend-mode:normal;shape-padding:0;text-decoration-color:#000000;text-decoration-line:none;text-decoration-style:solid;text-indent:0;text-orientation:mixed;text-transform:none;white-space:normal"/>
   <path d="m5.3389 6.0722c0.12964-1e-6 0.27313 0.045998 0.57676 0.14715l4.4671 1.8274c0.17788 0.089548 0.24747 0.20799 0.24747 0.31504-1e-6 0.10725-0.0696 0.2259-0.24768 0.31544l-4.4751 1.8306-0.00325 0.0021c-0.38263 0.1913-0.74771 0.1913-1.1303-5e-6l-0.00325-0.0021-4.4754-1.8309c-0.17808-0.089346-0.24769-0.208-0.24769-0.31525 1.06e-6 -0.10705 0.069604-0.2257 0.24768-0.31506l4.4655-1.8269 0.00167-4.2e-6c0.30364-0.10115 0.44714-0.14714 0.57676-0.14715z" fill="#29b6f6" overflow="visible" style="font-feature-settings:normal;font-variant-alternates:normal;font-variant-caps:normal;font-variant-ligatures:normal;font-variant-numeric:normal;font-variant-position:normal;isolation:auto;mix-blend-mode:normal;shape-padding:0;text-decoration-color:#000000;text-decoration-line:none;text-decoration-style:solid;text-indent:0;text-orientation:mixed;text-transform:none;white-space:normal"/>
   <path d="m5.3389 8.5134 1.4e-6 0.00122c-0.17523-1.1e-6 -0.33742 0.055968-0.6427 0.15774l-0.00325 0.00206-0.00305 0.00201-2.1982 0.89953 2.2788 0.93213 0.00325 2e-3c0.3826 0.1913 0.74775 0.19131 1.1303 4e-6l0.00325-0.0021 2.2813-0.93332-2.2037-0.90158-0.00325-0.00201c-0.30529-0.1017-0.46748-0.15766-0.6427-0.15767z" fill="#0aa8f0" overflow="visible" style="font-feature-settings:normal;font-variant-alternates:normal;font-variant-caps:normal;font-variant-ligatures:normal;font-variant-numeric:normal;font-variant-position:normal;isolation:auto;mix-blend-mode:normal;shape-padding:0;text-decoration-color:#000000;text-decoration-line:none;text-decoration-style:solid;text-indent:0;text-orientation:mixed;text-transform:none;white-space:normal"/>
   <path d="m5.3392 8.7181-3e-7 6.35e-4c-0.12964 6e-7 -0.27312 0.045792-0.57676 0.14693l-0.00167 4.3e-6 -2.0026 0.81936 2.0126 0.82324 0.00325 0.0021c0.3826 0.1913 0.74775 0.19131 1.1303 4e-6l0.00325-0.0021 2.0122-0.82344-2.0038-0.81979c-0.30365-0.10115-0.44714-0.14695-0.57676-0.14694z" fill="#10adf5" overflow="visible" style="font-feature-settings:normal;font-variant-alternates:normal;font-variant-caps:normal;font-variant-ligatures:normal;font-variant-numeric:normal;font-variant-position:normal;isolation:auto;mix-blend-mode:normal;shape-padding:0;text-decoration-color:#000000;text-decoration-line:none;text-decoration-style:solid;text-indent:0;text-orientation:mixed;text-transform:none;white-space:normal"/>
  </g>
 </g>
</svg>
