<?xml version="1.0" encoding="UTF-8"?>
<svg width="64" height="64" version="1.1" viewBox="0 0 16.933 16.933" xmlns="http://www.w3.org/2000/svg" xmlns:cc="http://creativecommons.org/ns#" xmlns:dc="http://purl.org/dc/elements/1.1/" xmlns:rdf="http://www.w3.org/1999/02/22-rdf-syntax-ns#" xmlns:xlink="http://www.w3.org/1999/xlink">
 <defs>
  <linearGradient id="linearGradient1448-3" x1="3.9687" x2="3.9687" y1="8.9776" y2=".54085" gradientTransform="matrix(.91668 0 0 .91668 -2.3278 1.8299)" gradientUnits="userSpaceOnUse">
   <stop stop-color="#dcdcdc" offset="0"/>
   <stop stop-color="#f0f0f0" offset="1"/>
  </linearGradient>
  <filter id="filter1536" x="-.062745" y="-.057485" width="1.1255" height="1.115" color-interpolation-filters="sRGB">
   <feGaussianBlur stdDeviation="0.9411685"/>
  </filter>
  <linearGradient id="c" x1="98.123" x2="510.56" y1="1517.5" y2="828.58" gradientTransform="matrix(.011503 0 0 .011048 4.4893 -1.6982)" gradientUnits="userSpaceOnUse">
   <stop stop-color="#7ccbea" offset="0"/>
   <stop stop-color="#00b9ff" offset="1"/>
  </linearGradient>
  <linearGradient id="b" x1="-323.88" x2="75.682" y1="1270.6" y2="1061.4" gradientTransform="matrix(.011503 0 0 .011048 4.4893 -1.6982)" gradientUnits="userSpaceOnUse">
   <stop stop-color="#00b2ed" offset="0"/>
   <stop stop-color="#009bdb" offset="1"/>
  </linearGradient>
  <linearGradient id="a" x1="73.727" x2="90.762" y1="1076.4" y2="571" gradientTransform="matrix(.011503 0 0 .011048 4.4893 -1.6982)" gradientUnits="userSpaceOnUse">
   <stop stop-color="#01a8ec" offset="0"/>
   <stop stop-color="#74d8ff" offset="1"/>
  </linearGradient>
 </defs>
 <metadata>
  <rdf:RDF>
   <cc:Work rdf:about="">
    <dc:format>image/svg+xml</dc:format>
    <dc:type rdf:resource="http://purl.org/dc/dcmitype/StillImage"/>
    <dc:title/>
   </cc:Work>
  </rdf:RDF>
 </metadata>
 <g transform="translate(3.0333 -1.1245)">
  <rect x="-1.8427" y="2.315" width="14.552" height="14.552" ry="3.4396" fill="url(#linearGradient1448-3)" stroke-opacity=".95294" stroke-width=".083154"/>
  <g fill-rule="evenodd">
   <path transform="matrix(.27176 0 0 .27176 -3.2631 1.2914)" d="m32.088 12.354-17.945 9.9902-0.01953-0.0098v0.02148l-0.05274 0.0293 0.05274 0.0293-0.12305 19.059 18.002 10.174v-0.04297l17.998-10.172-0.12305-19.008 0.06641-0.03516-0.06641-0.03711v-0.05859l-0.05273 0.0293-17.736-9.9688z" filter="url(#filter1536)" image-rendering="optimizeSpeed" opacity=".3" stroke-width=".048559"/>
   <g stroke-width=".013197">
    <path d="m5.4328 15.316 4.8925-2.765-0.033301-5.2015-4.8591 2.6626z" fill="url(#c)" image-rendering="optimizeSpeed"/>
    <path d="m5.434 15.327-4.8925-2.765 0.033303-5.2015 4.8591 2.6626z" fill="url(#b)" image-rendering="optimizeSpeed"/>
    <path d="m0.56077 7.375 4.8964-2.7262 4.853 2.7274-4.8793 2.6733z" fill="url(#a)" image-rendering="optimizeSpeed"/>
   </g>
  </g>
 </g>
</svg>
