<?xml version="1.0" encoding="UTF-8"?>
<svg width="64" height="64" version="1.1" viewBox="0 0 16.933 16.933" xmlns="http://www.w3.org/2000/svg" xmlns:cc="http://creativecommons.org/ns#" xmlns:dc="http://purl.org/dc/elements/1.1/" xmlns:rdf="http://www.w3.org/1999/02/22-rdf-syntax-ns#" xmlns:xlink="http://www.w3.org/1999/xlink">
 <defs>
  <linearGradient id="linearGradient1448-3-7" x1="3.9687" x2="3.9687" y1="8.9776" y2=".54085" gradientTransform="matrix(.91668 0 0 .91668 -2.8475 1.7354)" gradientUnits="userSpaceOnUse">
   <stop stop-color="#dcdcdc" offset="0"/>
   <stop stop-color="#f0f0f0" offset="1"/>
  </linearGradient>
  <filter id="filter951" x="-.062745" y="-.057485" width="1.1255" height="1.115" color-interpolation-filters="sRGB">
   <feGaussianBlur stdDeviation="0.9411685"/>
  </filter>
  <linearGradient id="linearGradient870" x1="34.004" x2="49.942" y1="52.481" y2="24.676" gradientTransform="matrix(.23216 0 0 .23216 -2.5152 2.4648)" gradientUnits="userSpaceOnUse">
   <stop stop-color="#c87137" offset="0"/>
   <stop stop-color="#e69d49" offset="1"/>
  </linearGradient>
  <linearGradient id="linearGradient862" x1="12.261" x2="30.444" y1="41.641" y2="33.253" gradientTransform="matrix(.23216 0 0 .23216 -2.5152 2.4648)" gradientUnits="userSpaceOnUse">
   <stop stop-color="#b06330" offset="0"/>
   <stop stop-color="#e9912d" offset="1"/>
  </linearGradient>
  <linearGradient id="linearGradient878" x1="32.041" x2="32.186" y1="33.383" y2="12.661" gradientTransform="matrix(.23216 0 0 .23216 -2.5152 2.4648)" gradientUnits="userSpaceOnUse">
   <stop stop-color="#dd8447" offset="0"/>
   <stop stop-color="#f0b572" offset="1"/>
  </linearGradient>
 </defs>
 <metadata>
  <rdf:RDF>
   <cc:Work rdf:about="">
    <dc:format>image/svg+xml</dc:format>
    <dc:type rdf:resource="http://purl.org/dc/dcmitype/StillImage"/>
    <dc:title/>
   </cc:Work>
  </rdf:RDF>
 </metadata>
 <g transform="translate(3.553 -1.03)">
  <rect x="-2.3625" y="2.2205" width="14.552" height="14.552" ry="3.4396" fill="url(#linearGradient1448-3-7)" stroke-opacity=".95294" stroke-width=".083154"/>
  <g fill-rule="evenodd">
   <path transform="matrix(.27176 0 0 .27176 -3.7829 1.1969)" d="m32.088 12.354-17.945 9.9902-0.01953-0.0098v0.02148l-0.05274 0.0293 0.05274 0.0293-0.12305 19.059 18.002 10.174v-0.04297l17.998-10.172-0.12305-19.008 0.06641-0.03516-0.06641-0.03711v-0.05859l-0.05273 0.0293-17.736-9.9688z" filter="url(#filter951)" image-rendering="optimizeSpeed" opacity=".3" stroke-width=".048559"/>
   <g stroke-width=".013197">
    <path d="m4.9131 15.222 4.8925-2.765-0.033301-5.2015-4.8591 2.6626z" fill="url(#linearGradient870)" image-rendering="optimizeSpeed"/>
    <path d="m4.9143 15.233-4.8925-2.765 0.033303-5.2015 4.8591 2.6626z" fill="url(#linearGradient862)" image-rendering="optimizeSpeed"/>
    <path d="m0.041057 7.2805 4.8964-2.7262 4.853 2.7274-4.8793 2.6733z" fill="url(#linearGradient878)" image-rendering="optimizeSpeed"/>
   </g>
  </g>
 </g>
</svg>
