<?xml version="1.0" encoding="UTF-8"?>
<svg width="64" height="64" version="1.1" viewBox="0 0 16.933 16.933" xmlns="http://www.w3.org/2000/svg" xmlns:cc="http://creativecommons.org/ns#" xmlns:dc="http://purl.org/dc/elements/1.1/" xmlns:rdf="http://www.w3.org/1999/02/22-rdf-syntax-ns#" xmlns:xlink="http://www.w3.org/1999/xlink">
 <defs>
  <linearGradient id="linearGradient1817" x1="100.95" x2="100.95" y1="4.3126" y2="59.331" gradientTransform="matrix(.26458 0 0 .26458 -21.168 2.9091)" gradientUnits="userSpaceOnUse">
   <stop stop-color="#3fc240" offset="0"/>
   <stop stop-color="#14ab4b" offset="1"/>
  </linearGradient>
  <linearGradient id="linearGradient1845" x1="86.819" x2="86.819" y1="3.9437" y2="59.191" gradientTransform="matrix(.26458 0 0 .26458 -19.928 2.5603)" gradientUnits="userSpaceOnUse">
   <stop stop-color="#74dc38" offset="0"/>
   <stop stop-color="#41c340" offset="1"/>
  </linearGradient>
  <linearGradient id="linearGradient3529" x1="11.993" x2="11.993" y1="15.289" y2="8.3841" gradientTransform="matrix(.78126 0 0 .78126 -6.4006 6.5846)" gradientUnits="userSpaceOnUse">
   <stop stop-color="#2e2e2e" offset="0"/>
   <stop stop-color="#5c5c5c" offset="1"/>
  </linearGradient>
 </defs>
 <metadata>
  <rdf:RDF>
   <cc:Work rdf:about="">
    <dc:format>image/svg+xml</dc:format>
    <dc:type rdf:resource="http://purl.org/dc/dcmitype/StillImage"/>
    <dc:title/>
   </cc:Work>
  </rdf:RDF>
 </metadata>
 <g transform="translate(1.1906 -3.1561)">
  <g>
   <path d="m4.2447 4.4525h7.2545c1.8016 0 3.2519 1.4504 3.2519 3.2519v7.2545c0 1.8016-1.4504 3.2519-3.2519 3.2519h-7.2545c-1.8016 0-3.2519-1.4504-3.2519-3.2519v-7.2545c0-1.8016 1.4504-3.2519 3.2519-3.2519z" color="#000000" color-rendering="auto" dominant-baseline="auto" fill="#f0f0f5" image-rendering="auto" shape-rendering="auto" solid-color="#000000" stop-color="#000000" style="font-feature-settings:normal;font-variant-alternates:normal;font-variant-caps:normal;font-variant-east-asian:normal;font-variant-ligatures:normal;font-variant-numeric:normal;font-variant-position:normal;font-variation-settings:normal;inline-size:0;isolation:auto;mix-blend-mode:normal;shape-margin:0;shape-padding:0;text-decoration-color:#000000;text-decoration-line:none;text-decoration-style:solid;text-indent:0;text-orientation:mixed;text-transform:none;white-space:normal"/>
   <path d="m5.2332 18.255 4.8381 0.34882c1.9006 0.13703 3.4396-1.5341 3.4396-3.4396v-7.6734c0-1.9055-1.5341-3.4391-3.4396-3.4391l-4.8381 0.44493z" fill="url(#linearGradient1817)" stroke-opacity=".95294" stroke-width=".083154"/>
   <path d="m5.2332 18.255v-13.758h-1.5947c-1.9055 0-3.4396 1.5335-3.4396 3.4391v6.8797c0 1.9055 1.5341 3.4396 3.4396 3.4396z" fill="url(#linearGradient1845)" stroke-opacity=".95294" stroke-width=".083154"/>
   <path d="m10.071 4.0514-1.8521 0.17053-0.00103 8.9504 1.5875-1.5172 1.5875 1.3229v-8.6641c-0.40665-0.16846-0.85291-0.26252-1.3219-0.26252z" fill="#fff" stroke-linecap="round" stroke-width=".52917"/>
  </g>
  <circle cx="3.1082" cy="15.887" r="3.3073" fill="url(#linearGradient3529)" stroke-width=".78126"/>
  <path d="m3.7644 13.561a0.15684 0.1529 0 0 0-0.015502 0.0017 0.15684 0.1529 0 0 0-0.015502 0.0028 0.15684 0.1529 0 0 0-0.014965 0.0042 0.15684 0.1529 0 0 0-0.014388 0.0058 0.15684 0.1529 0 0 0-0.013848 0.0072 0.15684 0.1529 0 0 0-0.00498 0.0028 0.15684 0.1529 0 0 0-0.013023 0.0089 0.15684 0.1529 0 0 0-0.011639 0.0097 0.15684 0.1529 0 0 0-0.01106 0.01107 0.15684 0.1529 0 0 0-0.00941 0.01218 0.15684 0.1529 0 0 0-0.00858 0.01273 0.15684 0.1529 0 0 0-0.00692 0.01384 0.15684 0.1529 0 0 0-0.00554 0.01412 0.15684 0.1529 0 0 0-0.00414 0.01495 0.527 0.51377 0 0 1-0.00719 0.02879 0.527 0.51377 0 0 1-0.016618 0.04873 0.527 0.51377 0 0 1-0.021307 0.04706 0.527 0.51377 0 0 1-0.026022 0.04457 0.527 0.51377 0 0 1-0.030454 0.0418 0.527 0.51377 0 0 1-0.034607 0.03876 0.527 0.51377 0 0 1-0.038479 0.03488 0.527 0.51377 0 0 1-0.041806 0.03128 0.527 0.51377 0 0 1-0.044849 0.02713 0.527 0.51377 0 0 1-0.04734 0.02242 0.527 0.51377 0 0 1-0.049279 0.01772 0.527 0.51377 0 0 1-0.050942 0.01302 0.527 0.51377 0 0 1-0.052323 0.0078 0.527 0.51377 0 0 1-0.052601 0.0028 0.527 0.51377 0 0 1-0.028239-8.47e-4 0.527 0.51377 0 0 1-0.052325-0.0055 0.527 0.51377 0 0 1-0.051492-0.01052 0.527 0.51377 0 0 1-0.050111-0.01578 0.527 0.51377 0 0 1-0.048448-0.02021 0.527 0.51377 0 0 1-0.046233-0.02519 0.527 0.51377 0 0 1-0.042912-0.02935 0.527 0.51377 0 0 1-0.040143-0.03322 0.527 0.51377 0 0 1-0.036544-0.0371 0.527 0.51377 0 0 1-0.032392-0.04042 0.527 0.51377 0 0 1-0.027961-0.04347 0.527 0.51377 0 0 1-0.02354-0.04596 0.527 0.51377 0 0 1-0.018828-0.04817 0.527 0.51377 0 0 1-0.013568-0.04955 0.15684 0.1529 0 0 0-5.027e-4 -3e-3 0.15684 0.1529 0 0 0-0.00442-0.01467 0.15684 0.1529 0 0 0-0.00553-0.01412 0.15684 0.1529 0 0 0-0.00692-0.01384 0.15684 0.1529 0 0 0-0.00858-0.01273 0.15684 0.1529 0 0 0-0.0097-0.01218 0.15684 0.1529 0 0 0-0.01079-0.01107 0.15684 0.1529 0 0 0-0.012179-0.0097 0.15684 0.1529 0 0 0-0.012724-0.0089 0.15136 0.14756 0 0 0-0.00719-0.0039 0.15136 0.14756 0 0 0-0.01384-0.0064 0.15136 0.14756 0 0 0-0.014113-5e-3 0.15136 0.14756 0 0 0-0.014684-0.0036 0.15136 0.14756 0 0 0-0.014957-0.0019 0.15136 0.14756 0 0 0-0.015229-5.29e-4 0.15136 0.14756 0 0 0-0.015229 8.47e-4 0.15136 0.14756 0 0 0-0.014957 0.0025 0.15136 0.14756 0 0 0-0.014385 0.0036 2.4782 2.4159 0 0 0-0.14314 0.04679 2.4782 2.4159 0 0 0-0.22784 0.09496 2.4782 2.4159 0 0 0-0.21677 0.11683 2.4782 2.4159 0 0 0-0.20376 0.13732 2.4782 2.4159 0 0 0-0.18881 0.15615 0.15684 0.1529 0 0 0-0.00251 0.0019 0.15684 0.1529 0 0 0-0.010517 0.01163 0.15684 0.1529 0 0 0-0.0094 0.01218 0.15684 0.1529 0 0 0-0.00776 0.01329 0.15684 0.1529 0 0 0-0.00692 0.01356 0.15684 0.1529 0 0 0-0.00526 0.0144 0.15684 0.1529 0 0 0-0.0036 0.01495 0.15684 0.1529 0 0 0-0.00223 0.01523 0.15684 0.1529 0 0 0-4.974e-4 0.01523 0.15684 0.1529 0 0 0 0 0.0025 0.15684 0.1529 0 0 0 7.434e-4 0.01523 0.15684 0.1529 0 0 0 0.00278 0.01495 0.15684 0.1529 0 0 0 0.00387 0.01495 0.15684 0.1529 0 0 0 0.00553 0.0144 0.15684 0.1529 0 0 0 0.00692 0.01356 0.15684 0.1529 0 0 0 0.00831 0.01301 0.15684 0.1529 0 0 0 0.0097 0.0119 0.15684 0.1529 0 0 0 0.01079 0.01107 0.52387 0.51071 0 0 1 0.00526 5e-3 0.52387 0.51071 0 0 1 0.036542 0.03682 0.52387 0.51071 0 0 1 0.032394 0.03987 0.52387 0.51071 0 0 1 0.028237 0.04319 0.52387 0.51071 0 0 1 0.02354 0.04568 0.52387 0.51071 0 0 1 0.018828 0.04762 0.52387 0.51071 0 0 1 0.01384 0.049 0.52387 0.51071 0 0 1 0.00886 0.05039 0.52387 0.51071 0 0 1 0.0036 0.05094 0.52387 0.51071 0 0 1-0.00175 0.05094 0.52387 0.51071 0 0 1-0.00692 0.05066 0.52387 0.51071 0 0 1-0.012179 0.04983 0.52387 0.51071 0 0 1-0.016891 0.04817 0.52387 0.51071 0 0 1-0.021878 0.04651 0.52387 0.51071 0 0 1-0.026577 0.04402 0.52387 0.51071 0 0 1-0.031008 0.04097 0.52387 0.51071 0 0 1-0.034882 0.03793 0.52387 0.51071 0 0 1-0.038759 0.03461 0.52387 0.51071 0 0 1-0.042081 0.03018 0.52387 0.51071 0 0 1-0.044849 0.0263 0.52387 0.51071 0 0 1-0.04762 0.02187 0.52387 0.51071 0 0 1-0.049279 0.01689 0.52387 0.51071 0 0 1-0.050939 0.01218 0.52387 0.51071 0 0 1-0.05177 0.0069 0.52387 0.51071 0 0 1-0.052326 0.0019 0.52387 0.51071 0 0 1-0.052048-3e-3 0.52387 0.51071 0 0 1-0.05177-8e-3 0.52387 0.51071 0 0 1-0.050664-0.01329 0.15684 0.1529 0 0 0-0.007466-0.0022 0.15684 0.1529 0 0 0-0.01523-3e-3 0.15684 0.1529 0 0 0-0.015776-0.0019 0.15684 0.1529 0 0 0-0.015503 0 0.15684 0.1529 0 0 0-0.015776 0.0014 0.15684 0.1529 0 0 0-0.01523 0.0028 0.15684 0.1529 0 0 0-0.014957 0.0042 0.15684 0.1529 0 0 0-0.01466 0.0058 0.15684 0.1529 0 0 0-0.013841 0.0072 0.15684 0.1529 0 0 0-0.013022 0.0086 0.15684 0.1529 0 0 0-0.012179 0.0097 0.15684 0.1529 0 0 0-0.011063 0.0108 0.15684 0.1529 0 0 0-0.009971 0.01163 0.15684 0.1529 0 0 0-0.008583 0.01273 0.15684 0.1529 0 0 0-0.007193 0.01356 0.15684 0.1529 0 0 0-0.006102 0.0144 0.15684 0.1529 0 0 0-0.004142 0.0144 2.4122 2.3517 0 0 0-0.035713 0.16638 2.4122 2.3517 0 0 0-0.02907 0.23338 2.4122 2.3517 0 0 0-0.004713 0.23504 2.4122 2.3517 0 0 0 0.019374 0.23421 2.4122 2.3517 0 0 0 0.042912 0.23144 0.15684 0.1529 0 0 0 0.001984 0.0069 0.15684 0.1529 0 0 0 0.004986 0.0144 0.15684 0.1529 0 0 0 0.006375 0.01412 0.15684 0.1529 0 0 0 0.007739 0.01329 0.15684 0.1529 0 0 0 0.009153 0.01218 0.15684 0.1529 0 0 0 0.010244 0.01163 0.15684 0.1529 0 0 0 0.011634 0.01052 0.15684 0.1529 0 0 0 0.012452 0.0091 0.15684 0.1529 0 0 0 0.013022 8e-3 0.15684 0.1529 0 0 0 0.014387 0.0066 0.15684 0.1529 0 0 0 0.014684 0.0053 0.15684 0.1529 0 0 0 0.01523 0.0039 0.15684 0.1529 0 0 0 0.015503 0.0022 0.15684 0.1529 0 0 0 0.015503 8.46e-4 0.15684 0.1529 0 0 0 0.015776-8.46e-4 0.15684 0.1529 0 0 0 0.015503-0.0022 0.15684 0.1529 0 0 0 0.01523-0.0036 0.52387 0.51071 0 0 1 0.007739-0.0025 0.52387 0.51071 0 0 1 0.050942-0.0119 0.52387 0.51071 0 0 1 0.052048-0.0072 0.52387 0.51071 0 0 1 0.052048-0.0017 0.52387 0.51071 0 0 1 0.052323 3e-3 0.52387 0.51071 0 0 1 0.05177 0.0086 0.52387 0.51071 0 0 1 0.050664 0.01301 0.52387 0.51071 0 0 1 0.048726 0.01827 0.52387 0.51071 0 0 1 0.047064 0.0227 0.52387 0.51071 0 0 1 0.044296 0.02713 0.52387 0.51071 0 0 1 0.04125 0.03156 0.52387 0.51071 0 0 1 0.037928 0.03544 0.52387 0.51071 0 0 1 0.034051 0.03848 0.52387 0.51071 0 0 1 0.029901 0.04208 0.52387 0.51071 0 0 1 0.025194 0.04457 0.52387 0.51071 0 0 1 0.021034 0.04679 0.52387 0.51071 0 0 1 0.015777 0.04873 0.52387 0.51071 0 0 1 0.01079 0.05011 0.52387 0.51071 0 0 1 0.00553 0.05066 0.52387 0.51071 0 0 1 5.027e-4 0.05094 0.52387 0.51071 0 0 1-0.00498 0.05094 0.52387 0.51071 0 0 1-0.00997 0.05011 0.52387 0.51071 0 0 1-0.014957 0.049 0.52387 0.51071 0 0 1-0.020217 0.04706 0.52387 0.51071 0 0 1-0.024633 0.04485 0.52387 0.51071 0 0 1-0.029346 0.04236 0.52387 0.51071 0 0 1-0.033223 0.03931 0.52387 0.51071 0 0 1-0.037373 0.03599 0.15684 0.1529 0 0 0-0.00305 0.0028 0.15684 0.1529 0 0 0-0.01079 0.01107 0.15684 0.1529 0 0 0-0.00997 0.0119 0.15684 0.1529 0 0 0-0.00831 0.01273 0.15684 0.1529 0 0 0-0.00692 0.01357 0.15684 0.1529 0 0 0-0.00553 0.0144 0.15684 0.1529 0 0 0-0.00442 0.01495 0.15684 0.1529 0 0 0-0.00251 0.01495 0.15684 0.1529 0 0 0-0.00124 0.01523 0.15684 0.1529 0 0 0 0 0.0039 0.15684 0.1529 0 0 0 0.00124 0.01523 0.15684 0.1529 0 0 0 0.00251 0.01523 0.15684 0.1529 0 0 0 0.00387 0.01467 0.15684 0.1529 0 0 0 0.00553 0.0144 0.15684 0.1529 0 0 0 0.00692 0.01356 0.15684 0.1529 0 0 0 0.00831 0.01301 0.15684 0.1529 0 0 0 0.0097 0.01218 0.15684 0.1529 0 0 0 0.01079 0.01107 2.4915 2.429 0 0 0 0.10437 0.09247 2.4915 2.429 0 0 0 0.19684 0.14866 2.4915 2.429 0 0 0 0.21096 0.12901 2.4915 2.429 0 0 0 0.22342 0.10769 2.4915 2.429 0 0 0 0.23283 0.08555 0.15684 0.1529 0 0 0 0.00442 0.0014 0.15684 0.1529 0 0 0 0.015229 0.0033 0.15684 0.1529 0 0 0 0.015502 0.0016 0.15684 0.1529 0 0 0 0.015777 5.29e-4 0.15684 0.1529 0 0 0 0.015775-0.0011 0.15684 0.1529 0 0 0 0.015229-0.0028 0.15684 0.1529 0 0 0 0.015229-0.0042 0.15684 0.1529 0 0 0 0.014388-0.0055 0.15684 0.1529 0 0 0 0.014113-0.0072 0.15684 0.1529 0 0 0 0.00553-3e-3 0.15684 0.1529 0 0 0 0.013023-0.0083 0.15684 0.1529 0 0 0 0.012179-0.0097 0.15684 0.1529 0 0 0 0.011062-0.0108 0.15684 0.1529 0 0 0 0.00997-0.0119 0.15684 0.1529 0 0 0 0.00858-0.01246 0.15684 0.1529 0 0 0 0.00747-0.01356 0.15684 0.1529 0 0 0 0.0061-0.01412 0.15684 0.1529 0 0 0 0.00442-0.01467 0.52622 0.51299 0 0 1 0.00553-0.02242 0.52622 0.51299 0 0 1 0.016618-0.04872 0.52622 0.51299 0 0 1 0.02131-0.04679 0.52622 0.51299 0 0 1 0.026024-0.04457 0.52622 0.51299 0 0 1 0.030452-0.0418 0.52622 0.51299 0 0 1 0.034331-0.03848 0.52622 0.51299 0 0 1 0.038479-0.03516 0.52622 0.51299 0 0 1 0.041805-0.03128 0.52622 0.51299 0 0 1 0.044571-0.02685 0.52622 0.51299 0 0 1 0.04734-0.0227 0.52622 0.51299 0 0 1 0.049557-0.01772 0.52622 0.51299 0 0 1 0.050942-0.01273 0.52622 0.51299 0 0 1 0.05177-0.0078 0.52622 0.51299 0 0 1 0.052599-0.0028h0.0061a0.52622 0.51299 0 0 1 0.029901 0.0011 0.52622 0.51299 0 0 1 0.052323 0.0064 0.52622 0.51299 0 0 1 0.051219 0.01135 0.52622 0.51299 0 0 1 0.050108 0.01606 0.52622 0.51299 0 0 1 0.047895 0.02104 0.52622 0.51299 0 0 1 0.04568 0.02547 0.52622 0.51299 0 0 1 0.042636 0.0299 0.52622 0.51299 0 0 1 0.039588 0.03378 0.52622 0.51299 0 0 1 0.035991 0.03765 0.52622 0.51299 0 0 1 0.031562 0.0407 0.52622 0.51299 0 0 1 0.027686 0.04374 0.52622 0.51299 0 0 1 0.022696 0.04623 0.52622 0.51299 0 0 1 0.017984 0.04817 0.52622 0.51299 0 0 1 0.013023 0.04956 0.15684 0.1529 0 0 0 8.202e-4 0.0044 0.15684 0.1529 0 0 0 0.00418 0.01467 0.15684 0.1529 0 0 0 0.00581 0.01412 0.15684 0.1529 0 0 0 0.00719 0.01357 0.15684 0.1529 0 0 0 0.00831 0.01301 0.15684 0.1529 0 0 0 0.00996 0.0119 0.15684 0.1529 0 0 0 0.01106 0.0108 0.15684 0.1529 0 0 0 0.011906 0.01 0.15684 0.1529 0 0 0 0.013023 0.0086 0.15684 0.1529 0 0 0 0.00719 0.0042 0.15684 0.1529 0 0 0 0.014118 0.0066 0.15684 0.1529 0 0 0 0.014676 0.0053 0.15684 0.1529 0 0 0 0.015235 0.0039 0.15684 0.1529 0 0 0 0.015235 0.0022 0.15684 0.1529 0 0 0 0.015772 8.47e-4 0.15684 0.1529 0 0 0 0.014388-0.0014 0.15684 0.1529 0 0 0 0.015502-0.0033 0.15684 0.1529 0 0 0 0.014965-0.0044 2.4821 2.4198 0 0 0 0.14036-0.04346 2.4821 2.4198 0 0 0 0.22979-0.09136 2.4821 2.4198 0 0 0 0.21954-0.11323 2.4821 2.4198 0 0 0 0.20653-0.13399 2.4821 2.4198 0 0 0 0.19185-0.1531 0.15684 0.1529 0 0 0 0.00333-3e-3 0.15684 0.1529 0 0 0 0.01079-0.01108 0.15684 0.1529 0 0 0 0.00941-0.01218 0.15684 0.1529 0 0 0 0.00831-0.01301 0.15684 0.1529 0 0 0 0.00692-0.01384 0.15684 0.1529 0 0 0 0.00556-0.01412 0.15684 0.1529 0 0 0 0.00414-0.01495 0.15684 0.1529 0 0 0 0.00251-0.01495 0.15684 0.1529 0 0 0 8.203e-4 -0.01523 0.15684 0.1529 0 0 0 0-5e-3 0.15684 0.1529 0 0 0-0.00146-0.01523 0.15684 0.1529 0 0 0-0.00275-0.01495 0.15684 0.1529 0 0 0-0.00442-0.01495 0.15684 0.1529 0 0 0-0.00554-0.01412 0.15684 0.1529 0 0 0-0.00746-0.01356 0.15684 0.1529 0 0 0-0.00858-0.01273 0.15684 0.1529 0 0 0-0.00969-0.0119 0.15684 0.1529 0 0 0-0.01106-0.0108 0.52465 0.51146 0 0 1-0.011369-0.01052 0.52465 0.51146 0 0 1-0.035436-0.03765 0.52465 0.51146 0 0 1-0.031562-0.0407 0.52465 0.51146 0 0 1-0.027132-0.04374 0.52465 0.51146 0 0 1-0.022696-0.04623 0.52465 0.51146 0 0 1-0.017714-0.0479 0.52465 0.51146 0 0 1-0.012734-0.04983 0.52465 0.51146 0 0 1-0.00746-0.05066 0.52465 0.51146 0 0 1-0.00249-0.05094 0.52465 0.51146 0 0 1 0.00306-0.05122 0.52465 0.51146 0 0 1 0.00802-0.05039 0.52465 0.51146 0 0 1 0.01329-0.04956 0.52465 0.51146 0 0 1 0.018293-0.0479 0.52465 0.51146 0 0 1 0.023241-0.04596 0.52465 0.51146 0 0 1 0.027409-0.04347 0.52465 0.51146 0 0 1 0.032114-0.04042 0.52465 0.51146 0 0 1 0.035992-0.0371 0.52465 0.51146 0 0 1 0.039586-0.03378 0.52465 0.51146 0 0 1 0.042637-0.02934 0.52465 0.51146 0 0 1 0.045678-0.02519 0.52465 0.51146 0 0 1 0.047894-0.02049 0.52465 0.51146 0 0 1 0.049832-0.01606 0.52465 0.51146 0 0 1 0.051493-0.01108 0.52465 0.51146 0 0 1 0.052048-0.0058 0.52465 0.51146 0 0 1 0.052326-8.47e-4 0.52465 0.51146 0 0 1 0.052323 0.0044 0.52465 0.51146 0 0 1 0.051495 0.0094 0.52465 0.51146 0 0 1 0.050386 0.0144 0.15684 0.1529 0 0 0 0.00471 0.0014 0.15684 0.1529 0 0 0 0.014965 0.0042 0.15684 0.1529 0 0 0 0.015502 0.0022 0.15684 0.1529 0 0 0 0.015772 0.0011 0.15684 0.1529 0 0 0 0.015502-8.47e-4 0.15684 0.1529 0 0 0 0.015502-0.0019 0.15684 0.1529 0 0 0 0.015235-0.0036 0.15684 0.1529 0 0 0 0.014965-5e-3 0.15684 0.1529 0 0 0 0.014118-0.0066 0.15684 0.1529 0 0 0 0.00442-0.0025 0.15684 0.1529 0 0 0 0.013272-8e-3 0.15684 0.1529 0 0 0 0.012176-0.0097 0.15684 0.1529 0 0 0 0.01106-0.01052 0.15684 0.1529 0 0 0 0.010253-0.0119 0.15684 0.1529 0 0 0 0.00885-0.01246 0.15684 0.1529 0 0 0 0.00777-0.01329 0.15684 0.1529 0 0 0 0.0061-0.01412 0.15684 0.1529 0 0 0 0.00442-0.01467 2.4397 2.3785 0 0 0 0.036269-0.15891 2.4397 2.3785 0 0 0 0.032945-0.2356 2.4397 2.3785 0 0 0 0.00831-0.23781 2.4397 2.3785 0 0 0-0.016039-0.23726 2.4397 2.3785 0 0 0-0.040142-0.23449 0.15684 0.1529 0 0 0-0.00124-0.0044 0.15684 0.1529 0 0 0-0.00442-0.01467 0.15684 0.1529 0 0 0-0.00581-0.01412 0.15684 0.1529 0 0 0-0.00746-0.01356 0.15684 0.1529 0 0 0-0.00858-0.01273 0.15684 0.1529 0 0 0-0.00996-0.01163 0.15684 0.1529 0 0 0-0.011369-0.0108 0.15684 0.1529 0 0 0-0.011906-0.0097 0.15684 0.1529 0 0 0-0.01329-0.0086 0.15684 0.1529 0 0 0-0.00387-0.0019 0.15684 0.1529 0 0 0-0.014118-0.0066 0.15684 0.1529 0 0 0-0.014676-0.0053 0.15684 0.1529 0 0 0-0.015235-0.0036 0.15684 0.1529 0 0 0-0.015235-0.0022 0.15684 0.1529 0 0 0-0.015772-8.47e-4 0.15684 0.1529 0 0 0-0.015772 8.47e-4 0.15684 0.1529 0 0 0-0.015502 0.0022 0.15684 0.1529 0 0 0-0.015235 0.0039 0.52465 0.51146 0 0 1-0.025472 0.0075 0.52465 0.51146 0 0 1-0.051217 0.01052 0.52465 0.51146 0 0 1-0.052046 0.0058 0.52465 0.51146 0 0 1-0.052326 5.29e-4 0.52465 0.51146 0 0 1-0.052323-0.0044 0.52465 0.51146 0 0 1-0.051495-0.0097 0.52465 0.51146 0 0 1-0.050399-0.01467 0.52465 0.51146 0 0 1-0.048448-0.0191 0.52465 0.51146 0 0 1-0.046234-0.02409 0.52465 0.51146 0 0 1-0.043739-0.02824 0.52465 0.51146 0 0 1-0.040421-0.03267 0.52465 0.51146 0 0 1-0.037097-0.03627 0.52465 0.51146 0 0 1-0.033224-0.03959 0.52465 0.51146 0 0 1-0.028792-0.04263 0.52465 0.51146 0 0 1-0.024085-0.0454 0.52465 0.51146 0 0 1-0.019637-0.04734 0.52465 0.51146 0 0 1-0.014676-0.04928 0.52465 0.51146 0 0 1-0.00942-0.05039 0.52465 0.51146 0 0 1-0.00414-0.05094 0.52465 0.51146 0 0 1 4.233e-4 -0.05094 0.52465 0.51146 0 0 1 0.00634-0.05094 0.52465 0.51146 0 0 1 0.011369-0.04983 0.52465 0.51146 0 0 1 0.01633-0.04845 0.52465 0.51146 0 0 1 0.021307-0.04679 0.52465 0.51146 0 0 1 0.025747-0.04429 0.52465 0.51146 0 0 1 0.030454-0.0418 0.52465 0.51146 0 0 1 0.034605-0.03848 0.52465 0.51146 0 0 1 0.038205-0.03488 0.16155 0.15749 0 0 0 0.00124-0.0011 0.16155 0.15749 0 0 0 0.011369-0.0108 0.16155 0.15749 0 0 0 0.010253-0.01218 0.16155 0.15749 0 0 0 0.00916-0.01301 0.16155 0.15749 0 0 0 0.00746-0.01384 0.16155 0.15749 0 0 0 0.00637-0.01467 0.16155 0.15749 0 0 0 0.00471-0.01523 0.16155 0.15749 0 0 0 0.00306-0.01523 0.16155 0.15749 0 0 0 0.00146-0.01578 0.15684 0.1529 0 0 0 2.069e-4 -0.0039 0.15684 0.1529 0 0 0-8.202e-4 -0.0155 0.15684 0.1529 0 0 0-0.00251-0.01495 0.15684 0.1529 0 0 0-0.0036-0.01495 0.15684 0.1529 0 0 0-0.00525-0.0144 0.15684 0.1529 0 0 0-0.00692-0.01357 0.15684 0.1529 0 0 0-0.00802-0.01329 0.15684 0.1529 0 0 0-0.00941-0.01218 0.15684 0.1529 0 0 0-0.01079-0.01108 2.4923 2.4297 0 0 0-0.152-0.13437 2.4923 2.4297 0 0 0-0.19961-0.14535 2.4923 2.4297 0 0 0-0.21346-0.12514 2.4923 2.4297 0 0 0-0.22508-0.10382 2.4923 2.4297 0 0 0-0.23476-0.081394 0.15684 0.1529 0 0 0-0.00471-0.0014 0.15684 0.1529 0 0 0-0.015235-3e-3 0.15684 0.1529 0 0 0-0.015502-0.0017 0.15684 0.1529 0 0 0-0.015772-2.65e-4zm-0.65613 1.5459a0.7796 0.7796 0 0 1 0.7796 0.7796 0.7796 0.7796 0 0 1-0.7796 0.7796 0.7796 0.7796 0 0 1-0.7796-0.7796 0.7796 0.7796 0 0 1 0.7796-0.7796zm0.32724 2.3452a0.84226 0.82111 0 0 1 0.017439 0.0086 0.84226 0.82111 0 0 0-0.017439-0.0086zm-1.5 0.2082a2.1543 2.1003 0 0 0 0.032114 0.01966 2.1543 2.1003 0 0 1-0.032114-0.01966z" fill="#fff" stroke-width=".31252"/>
 </g>
</svg>
