<?xml version="1.0" encoding="UTF-8"?>
<svg width="64" height="64" version="1.1" viewBox="0 0 16.933 16.933" xmlns="http://www.w3.org/2000/svg" xmlns:cc="http://creativecommons.org/ns#" xmlns:dc="http://purl.org/dc/elements/1.1/" xmlns:rdf="http://www.w3.org/1999/02/22-rdf-syntax-ns#" xmlns:xlink="http://www.w3.org/1999/xlink">
 <defs>
  <linearGradient id="linearGradient1845" x1="86.819" x2="86.819" y1="7.6079" y2="59.492" gradientTransform="matrix(.26458 0 0 .26458 -19.217 3.5818)" gradientUnits="userSpaceOnUse">
   <stop stop-color="#fc8c2e" offset="0"/>
   <stop stop-color="#ed1615" offset="1"/>
  </linearGradient>
  <linearGradient id="linearGradient1817" x1="100.95" x2="100.95" y1="6.4196" y2="59.331" gradientTransform="matrix(.26458 0 0 .26458 -20.458 3.9307)" gradientUnits="userSpaceOnUse">
   <stop stop-color="#f56503" offset="0"/>
   <stop stop-color="#ef2f0f" offset="1"/>
  </linearGradient>
 </defs>
 <metadata>
  <rdf:RDF>
   <cc:Work rdf:about="">
    <dc:format>image/svg+xml</dc:format>
    <dc:type rdf:resource="http://purl.org/dc/dcmitype/StillImage"/>
    <dc:title/>
   </cc:Work>
  </rdf:RDF>
 </metadata>
 <g transform="translate(.28154 -3.8945)">
  <g>
   <path d="m4.9548 5.5182h7.2545c1.8016 0 3.2519 1.4504 3.2519 3.2519v7.2545c0 1.8016-1.4504 3.2519-3.2519 3.2519h-7.2545c-1.8016 0-3.2519-1.4504-3.2519-3.2519v-7.2545c0-1.8016 1.4504-3.2519 3.2519-3.2519z" color="#000000" color-rendering="auto" dominant-baseline="auto" fill="#f0f0f5" image-rendering="auto" shape-rendering="auto" solid-color="#000000" stop-color="#000000" style="font-feature-settings:normal;font-variant-alternates:normal;font-variant-caps:normal;font-variant-east-asian:normal;font-variant-ligatures:normal;font-variant-numeric:normal;font-variant-position:normal;font-variation-settings:normal;inline-size:0;isolation:auto;mix-blend-mode:normal;shape-margin:0;shape-padding:0;text-decoration-color:#000000;text-decoration-line:none;text-decoration-style:solid;text-indent:0;text-orientation:mixed;text-transform:none;white-space:normal"/>
   <path d="m8.1823 19.276v-13.758h-3.8338c-1.9055 0-3.4396 1.5335-3.4396 3.4391v6.8797c0 1.9055 1.5341 3.4396 3.4396 3.4396z" fill="url(#linearGradient1845)" image-rendering="optimizeSpeed" stroke-opacity=".95294" stroke-width=".083154"/>
   <path d="m8.1701 19.276 2.6113 0.34882c1.8887 0.2523 3.4396-1.5341 3.4396-3.4396v-7.6734c0-1.9055-1.5341-3.4391-3.4396-3.4391l-2.6113 0.44493z" fill="url(#linearGradient1817)" image-rendering="optimizeSpeed" stroke-opacity=".95294" stroke-width=".083154"/>
  </g>
  <path d="m8.2141 13.654c-0.011086 7.41e-4 -0.017648 0.01189-0.02894 0.01189-0.27563 0-0.49919-0.22357-0.49919-0.49919 2.645e-4 -0.17798 0.095456-0.34199 0.2496-0.43098v-4.5594a0.49907 0.49907 0 0 0-0.49919 0.49868 0.49907 0.49907 0 0 0 0.21342 0.40876c-0.36584 1.1046-1.0343 2.908-1.7105 3.5843 0 0 0.99839 1.4968 0.99839 2.4949-0.20736 0-0.37465 0.16729-0.37465 0.37465s0.16729 0.37414 0.37465 0.37414v1.2475h1.2764z" fill="#fff" fill-opacity=".9" stroke-width=".24953"/>
  <path d="m8.2141 13.654v3.5052h1.2185v-1.2475c0.20736 0 0.37465-0.16677 0.37465-0.37414s-0.16729-0.37465-0.37465-0.37465c0-0.99814 0.99839-2.4949 0.99839-2.4949-0.67612-0.67612-1.3446-2.4791-1.7105-3.5838a0.49907 0.49907 0 0 0 0.21342-0.40928 0.49907 0.49907 0 0 0-0.49919-0.49868v4.5589c0.15429 0.08908 0.24946 0.25334 0.2496 0.4315 0 0.26434-0.21028 0.47003-0.47025 0.48731z" fill="#fff" fill-opacity=".6" stroke-width=".24953"/>
 </g>
</svg>
