<?xml version="1.0" encoding="UTF-8"?>
<svg width="64" height="64" version="1.1" viewBox="0 0 16.933 16.933" xmlns="http://www.w3.org/2000/svg" xmlns:cc="http://creativecommons.org/ns#" xmlns:dc="http://purl.org/dc/elements/1.1/" xmlns:rdf="http://www.w3.org/1999/02/22-rdf-syntax-ns#" xmlns:xlink="http://www.w3.org/1999/xlink">
 <defs>
  <linearGradient id="linearGradient1448-60" x1="3.9687" x2="3.9687" y1="8.9776" y2=".54085" gradientTransform="matrix(.91668 0 0 .91668 -.4737 5.0427)" gradientUnits="userSpaceOnUse">
   <stop stop-color="#dcdcdc" offset="0"/>
   <stop stop-color="#f0f0f0" offset="1"/>
  </linearGradient>
  <linearGradient id="f-67" x2="0" y1="42.827" y2="4.113" gradientTransform="matrix(.44978 0 0 .44978 -3.5074 2.0091)" gradientUnits="userSpaceOnUse">
   <stop stop-color="#c6cdd1" offset="0"/>
   <stop stop-color="#e0e5e7" offset="1"/>
  </linearGradient>
  <linearGradient id="b-5" x2="0" y1="45" y2="13" gradientTransform="matrix(.44978 0 0 .44978 -3.5074 2.0091)" gradientUnits="userSpaceOnUse">
   <stop stop-color="#0c35f9" offset="0"/>
   <stop stop-color="#2acbd7" offset="1"/>
  </linearGradient>
  <linearGradient id="g-3" x1="8.213" x2="40.551" gradientTransform="matrix(.44978 0 0 .44978 -3.5074 2.0091)" gradientUnits="userSpaceOnUse">
   <stop stop-color="#1d1e1e" offset="0"/>
   <stop stop-color="#2c2f32" offset="1"/>
  </linearGradient>
  <linearGradient id="a-2" x1="7" x2="11" gradientTransform="matrix(.44978 0 0 .44978 -11.455 -4.8568)" gradientUnits="userSpaceOnUse" xlink:href="#h-6"/>
  <linearGradient id="h-6" x1="7" x2="11" gradientTransform="translate(-21,-3)" gradientUnits="userSpaceOnUse">
   <stop stop-color="#1d1e1e" offset="0"/>
   <stop stop-color="#44484c" offset="1"/>
  </linearGradient>
  <linearGradient id="j-2" x1="19" x2="25" gradientTransform="matrix(.44978 0 0 .44978 -25.398 -7.1057)" gradientUnits="userSpaceOnUse" xlink:href="#h-6"/>
  <linearGradient id="i-9" x1="23" x2="28" gradientTransform="matrix(.44978 0 0 .44978 -22.249 -.80873)" gradientUnits="userSpaceOnUse" xlink:href="#h-6"/>
  <linearGradient id="k-1" x1="34" x2="42" gradientTransform="matrix(.44978 0 0 .44978 -34.843 -2.1581)" gradientUnits="userSpaceOnUse" xlink:href="#h-6"/>
 </defs>
 <metadata>
  <rdf:RDF>
   <cc:Work rdf:about="">
    <dc:format>image/svg+xml</dc:format>
    <dc:type rdf:resource="http://purl.org/dc/dcmitype/StillImage"/>
    <dc:title/>
   </cc:Work>
  </rdf:RDF>
 </metadata>
 <g transform="translate(1.1124 -4.3373)">
  <rect x=".011392" y="5.5278" width="14.552" height="14.552" ry="3.4396" fill="url(#linearGradient1448-60)" stroke-opacity=".95294" stroke-width=".083154"/>
  <path d="m3.4511 5.5279c-1.2966 0-2.4197 0.71105-3.006 1.7653 2.0471 0.04522 7.2079 0.43756 7.7628 3.2117 0.46013 2.2993-2.7595 2.7588-1.8397 5.0581 0.78327 1.959 6.3125 2.2373 7.9773 2.2789 0.13886-0.37413 0.21807-0.77785 0.21807-1.2015v-7.6729c0-1.9055-1.5341-3.4396-3.4396-3.4396z" fill="url(#f-67)" stroke-width=".29986"/>
  <path d="m0.44506 7.2932c-0.2754 0.49514-0.43357 1.0654-0.43357 1.6743v7.6729c0 1.9055 1.5341 3.4396 3.4396 3.4396h7.6729c1.4819 0 2.7357-0.92935 3.2215-2.2381-1.6644-0.041639-7.194-0.31986-7.9773-2.2789-0.91981-2.2993 2.2993-2.7588 1.8392-5.0581-0.55485-2.7742-5.7153-3.1665-7.7623-3.2117z" fill="url(#b-5)" fill-rule="evenodd" stroke-width=".29986"/>
  <path d="m0.19609 7.286c-0.003149 0.0045-0.006297 9e-3 -0.009445 0.013044 2.1581 0.064769 7.0319 0.5114 7.5708 3.2056 0.45968 2.2993-2.7792 2.7392-1.8594 5.0385 0.85054 2.1257 7.5735 3.0959 8.5864 3.1076l0.24783-0.79927c-1.0125-0.012144-7.5136-0.16237-8.3642-2.2885-0.91981-2.2993 2.2993-2.759 1.8396-5.0583-0.57572-2.8786-6.1441-3.1966-8.0111-3.2187" fill="url(#g-3)" fill-rule="evenodd" stroke-width=".29986"/>
  <g stroke-linecap="round" stroke-linejoin="bevel" stroke-width=".59971">
   <circle transform="rotate(-90)" cx="-7.4065" cy=".54062" r=".89957" fill="url(#a-2)"/>
   <circle cx=".54062" cy="7.4065" r=".44978" fill="#fff"/>
   <circle transform="rotate(-90)" cx="-15.503" cy="6.3878" r="1.3494" fill="url(#j-2)"/>
   <circle transform="rotate(-90)" cx="-10.78" cy="7.9621" r="1.1245" fill="url(#i-9)"/>
   <circle transform="rotate(-90)" cx="-17.752" cy="13.584" r="1.7991" fill="url(#k-1)"/>
  </g>
  <g fill="#fff" stroke-linecap="round" stroke-linejoin="bevel" stroke-width=".59971">
   <circle cx="7.9621" cy="10.78" r=".67468"/>
   <circle cx="6.3878" cy="15.503" r=".89957"/>
   <circle cx="13.584" cy="17.752" r="1.3494"/>
  </g>
 </g>
</svg>
