<?xml version="1.0" encoding="UTF-8"?>
<svg width="64" height="64" version="1.1" viewBox="0 0 16.933 16.933" xmlns="http://www.w3.org/2000/svg" xmlns:cc="http://creativecommons.org/ns#" xmlns:dc="http://purl.org/dc/elements/1.1/" xmlns:rdf="http://www.w3.org/1999/02/22-rdf-syntax-ns#" xmlns:xlink="http://www.w3.org/1999/xlink">
 <defs>
  <linearGradient id="linearGradient1845" x1="86.819" x2="86.819" y1="7.6079" y2="59.191" gradientTransform="matrix(.26458 0 0 .26458 -17.58 2.3123)" gradientUnits="userSpaceOnUse">
   <stop stop-color="#20bbfa" offset="0"/>
   <stop stop-color="#197cf1" offset="1"/>
  </linearGradient>
  <linearGradient id="linearGradient1817" x1="100.95" x2="100.95" y1="6.4196" y2="59.331" gradientTransform="matrix(.26458 0 0 .26458 -18.821 2.6611)" gradientUnits="userSpaceOnUse">
   <stop stop-color="#1ca6de" offset="0"/>
   <stop stop-color="#166cd2" offset="1"/>
  </linearGradient>
  <linearGradient id="linearGradient3561" x1="29.455" x2="15" y1="44" y2="16" gradientTransform="matrix(.18101 0 0 .18218 5.2789 6.2004)" gradientUnits="userSpaceOnUse">
   <stop stop-color="#f6fbff" offset="0"/>
   <stop stop-color="#eaeff2" offset="1"/>
  </linearGradient>
  <linearGradient id="linearGradient3559" x1="17.956" x2="32.278" y1="28.792" y2="28.792" gradientTransform="matrix(.16455 0 0 .16455 5.6739 6.9761)" gradientUnits="userSpaceOnUse">
   <stop stop-color="#1ea6f7" offset="0"/>
   <stop stop-color="#1a93da" offset="1"/>
  </linearGradient>
 </defs>
 <metadata>
  <rdf:RDF>
   <cc:Work rdf:about="">
    <dc:format>image/svg+xml</dc:format>
    <dc:type rdf:resource="http://purl.org/dc/dcmitype/StillImage"/>
    <dc:title/>
   </cc:Work>
  </rdf:RDF>
 </metadata>
 <g transform="translate(-1.3555 -2.625)">
  <g>
   <path d="m6.5919 4.2486h7.2545c1.8016 0 3.2519 1.4504 3.2519 3.2519v7.2545c0 1.8016-1.4504 3.2519-3.2519 3.2519h-7.2545c-1.8016 0-3.2519-1.4504-3.2519-3.2519v-7.2545c0-1.8016 1.4504-3.2519 3.2519-3.2519z" color="#000000" color-rendering="auto" dominant-baseline="auto" fill="#f0f0f5" image-rendering="auto" shape-rendering="auto" solid-color="#000000" stop-color="#000000" style="font-feature-settings:normal;font-variant-alternates:normal;font-variant-caps:normal;font-variant-east-asian:normal;font-variant-ligatures:normal;font-variant-numeric:normal;font-variant-position:normal;font-variation-settings:normal;inline-size:0;isolation:auto;mix-blend-mode:normal;shape-margin:0;shape-padding:0;text-decoration-color:#000000;text-decoration-line:none;text-decoration-style:solid;text-indent:0;text-orientation:mixed;text-transform:none;white-space:normal"/>
   <path d="m9.8194 18.007v-13.758h-3.8338c-1.9055 0-3.4396 1.5335-3.4396 3.4391v6.8797c0 1.9055 1.5341 3.4396 3.4396 3.4396z" fill="url(#linearGradient1845)" stroke-opacity=".95294" stroke-width=".083154"/>
   <path d="m9.8072 18.007 2.6113 0.34882c1.8887 0.2523 3.4396-1.5341 3.4396-3.4396v-7.6734c0-1.9055-1.5341-3.4391-3.4396-3.4391l-2.6113 0.44493z" fill="url(#linearGradient1817)" stroke-opacity=".95294" stroke-width=".083154"/>
  </g>
  <g stroke-width=".16455">
   <path d="m9.8085 9.1154h-3.2458c-0.30995 0-0.55966 0.2497-0.55966 0.55966v3.9822c0 0.30995 0.24971 0.55914 0.55966 0.55914h3.2458z" fill="url(#linearGradient3561)"/>
   <path d="m9.8085 9.1154v5.101h2.8753c0.30995 0 0.55966-0.24919 0.55966-0.55914v-3.9822c0-0.30995-0.2497-0.55966-0.55966-0.55966z" fill="#e6e6e6"/>
   <path d="m8.6439 10.53 2.3456 1.1728-2.3456 1.1728z" fill="url(#linearGradient3559)"/>
  </g>
 </g>
</svg>
