<?xml version="1.0" encoding="UTF-8"?>
<svg width="64" height="64" version="1.1" viewBox="0 0 16.933 16.933" xmlns="http://www.w3.org/2000/svg" xmlns:cc="http://creativecommons.org/ns#" xmlns:dc="http://purl.org/dc/elements/1.1/" xmlns:rdf="http://www.w3.org/1999/02/22-rdf-syntax-ns#" xmlns:xlink="http://www.w3.org/1999/xlink">
 <defs>
  <linearGradient id="linearGradient2116" x1="59.5" x2="4.5" y1="4.5" y2="59.5" gradientTransform="matrix(.26458 0 0 .26458 .27403 -.62366)" gradientUnits="userSpaceOnUse">
   <stop stop-color="#37beff" offset="0"/>
   <stop stop-color="#00a0ff" offset="1"/>
  </linearGradient>
  <filter id="e-3" x="-.058612" y="-.061455" width="1.1172" height="1.1229" color-interpolation-filters="sRGB">
   <feGaussianBlur stdDeviation="0.86839134"/>
  </filter>
  <linearGradient id="d-5" x1="32" x2="32" y1="15.043" y2="48.957" gradientTransform="matrix(.26458 0 0 .26458 .26835 -.64858)" gradientUnits="userSpaceOnUse">
   <stop stop-color="#fff" offset="0"/>
   <stop stop-color="#d2d2d2" offset="1"/>
  </linearGradient>
 </defs>
 <metadata>
  <rdf:RDF>
   <cc:Work rdf:about="">
    <dc:format>image/svg+xml</dc:format>
    <dc:type rdf:resource="http://purl.org/dc/dcmitype/StillImage"/>
    <dc:title/>
   </cc:Work>
  </rdf:RDF>
 </metadata>
 <g transform="translate(-.27403 .62366)">
  <rect x="1.4647" y=".56696" width="14.552" height="14.552" ry="3.4396" fill="url(#linearGradient2116)" stroke-width=".56197"/>
  <path transform="matrix(.26458 0 0 .26458 .27403 -.62366)" d="m49.758 28.091c0-0.5272-0.39868-0.8548-1.1971-0.98306l-10.727-1.5598-4.808-9.723c-0.27042-0.58412-0.61979-0.87604-1.0471-0.87604-0.42726 0-0.77637 0.29193-1.047 0.87604l-4.8083 9.723-10.727 1.5598c-0.79762 0.12826-1.1966 0.45586-1.1966 0.98306 0 0.29927 0.17809 0.6413 0.53428 1.0258l7.7784 7.5647-1.8376 10.685c-0.02859 0.1996-0.04276 0.34229-0.04276 0.42753 0 0.29927 0.07475 0.55186 0.22426 0.7588 0.1495 0.20668 0.37376 0.30976 0.67303 0.30976 0.25652 0 0.54136-0.08498 0.8548-0.25626l9.5945-5.0435 9.5953 5.0435c0.29953 0.17101 0.58437 0.25626 0.85453 0.25626 0.28564 0 0.50255-0.10282 0.65205-0.30976 0.14924-0.20668 0.22399-0.45953 0.22399-0.7588 0-0.18518-7e-3 -0.3276-0.0215-0.42753l-1.8379-10.685 7.7569-7.5647c0.37087-0.37035 0.55579-0.71238 0.55579-1.0258z" filter="url(#e-3)" opacity=".3" stroke-width=".26492"/>
  <path d="m13.439 6.8087c0-0.13949-0.10548-0.22617-0.31673-0.2601l-2.8382-0.4127-1.2721-2.5725c-0.071549-0.15455-0.16399-0.23179-0.27705-0.23179-0.11305 0-0.20541 0.07724-0.27702 0.23179l-1.2722 2.5725-2.8382 0.4127c-0.21104 0.033935-0.3166 0.12061-0.3166 0.2601 0 0.079182 0.04712 0.16968 0.14136 0.27141l2.058 2.0015-0.4862 2.8271c-0.00756 0.05281-0.011314 0.09056-0.011314 0.11312 0 0.07918 0.019778 0.14601 0.059335 0.20077 0.039555 0.05468 0.098891 0.08196 0.17807 0.08196 0.067871 0 0.14323-0.02248 0.22617-0.0678l2.5385-1.3344 2.5388 1.3344c0.07925 0.04525 0.15462 0.0678 0.22609 0.0678 0.07558 0 0.13297-0.02721 0.17252-0.08196 0.03949-0.05468 0.05926-0.12158 0.05926-0.20077 0-0.04899-0.0019-0.08668-0.0057-0.11312l-0.48626-2.8271 2.0523-2.0015c0.09813-0.097988 0.14705-0.18848 0.14705-0.27141z" fill="url(#d-5)" stroke-width=".070093"/>
 </g>
</svg>
