<?xml version="1.0" encoding="UTF-8"?>
<svg width="64" height="64" version="1.1" viewBox="0 0 16.933 16.933" xmlns="http://www.w3.org/2000/svg" xmlns:cc="http://creativecommons.org/ns#" xmlns:dc="http://purl.org/dc/elements/1.1/" xmlns:rdf="http://www.w3.org/1999/02/22-rdf-syntax-ns#" xmlns:xlink="http://www.w3.org/1999/xlink">
 <metadata>
  <rdf:RDF>
   <cc:Work rdf:about="">
    <dc:format>image/svg+xml</dc:format>
    <dc:type rdf:resource="http://purl.org/dc/dcmitype/StillImage"/>
    <dc:title/>
   </cc:Work>
  </rdf:RDF>
 </metadata>
 <g transform="translate(.44858 .84948)" stroke-linecap="round" stroke-width=".37814">
  <rect x=".74204" y="1.6641" width="14.552" height="13.229" ry="3.1269" fill="#ffc107"/>
  <rect x=".74204" y=".34114" width="13.229" height="14.552" ry="2.8912" fill="#e4e4e4"/>
 </g>
 <g transform="translate(-.092964 -.73804)">
  <g fill="#c2c2c2">
   <rect x="4.1329" y="4.2166" width="7.1438" height=".52917" ry=".26458"/>
   <rect x="4.1329" y="5.9385" width="7.1438" height=".52917" ry=".26458"/>
   <rect x="4.1329" y="7.6605" width="4.4979" height=".52917" ry=".26458"/>
  </g>
  <path d="m4.4254 8.2834 0.3854-0.35174-0.27908-0.093049c-0.11782-0.040095-0.23072 0.072495-0.1912 0.19049z" fill="#191919" stroke-width=".011746"/>
  <path d="m7.1313 8.7034-2.3208-0.77421-0.3854 0.35174 0.78214 2.3472z" fill="#cdcdcd" stroke-width=".011746"/>
  <path d="m12.887 15.632c0.19943-0.49137 0.09972-1.0763-0.29883-1.4749l-5.4534-5.4527-1.9238 1.9241 5.4524 5.4538c0.53146 0.53157 1.393 0.53139 1.9244-3.17e-4 0.13291-0.13281 0.23284-0.28617 0.29931-0.44996z" fill="#323232" stroke-width=".011745"/>
 </g>
</svg>
