<?xml version="1.0" encoding="UTF-8"?>
<svg width="64" height="64" version="1.1" viewBox="0 0 16.933 16.933" xmlns="http://www.w3.org/2000/svg" xmlns:cc="http://creativecommons.org/ns#" xmlns:dc="http://purl.org/dc/elements/1.1/" xmlns:rdf="http://www.w3.org/1999/02/22-rdf-syntax-ns#" xmlns:xlink="http://www.w3.org/1999/xlink">
 <defs>
  <filter id="filter873" x="-.091613" y="-.13153" width="1.1832" height="1.2631" color-interpolation-filters="sRGB">
   <feGaussianBlur stdDeviation="1.4248792"/>
  </filter>
  <linearGradient id="linearGradient1115-8" x1="-29.448" x2="-29.448" y1="4.6371" y2="59.494" gradientTransform="matrix(.2646 0 0 .2646 16.852 -.00016112)" gradientUnits="userSpaceOnUse">
   <stop stop-color="#fff" offset="0"/>
   <stop stop-color="#ccd4da" offset="1"/>
  </linearGradient>
 </defs>
 <metadata>
  <rdf:RDF>
   <cc:Work rdf:about="">
    <dc:format>image/svg+xml</dc:format>
    <dc:type rdf:resource="http://purl.org/dc/dcmitype/StillImage"/>
    <dc:title/>
   </cc:Work>
  </rdf:RDF>
 </metadata>
 <rect x="1.1905" y="1.1905" width="14.552" height="14.552" ry="3.4398" fill="url(#linearGradient1115-8)" image-rendering="optimizeSpeed" stroke-width=".12512"/>
 <g transform="translate(-1.2887 -.48686)">
  <path transform="matrix(.24253 0 0 .24253 1.9944 .90013)" d="m35.253 20.232 0.0258 2.9885 3.1322-0.02701-0.0258-2.9885zm-14.846 1.5706-1.4868 7.1054-4.7674 0.04112 0.0162 1.8772 4.3855-0.03784-1.3016 6.4271-3.9162 0.03374 0.0162 1.8772 3.4978-0.03015-1.4012 7.1065 1.9154-0.01653 1.3994-7.1064 6.3154-0.05451-1.434 7.1068 1.9135-0.01654 1.4704-7.1071 4.9239-0.04249-0.0163-1.8771-4.5237 0.03903 1.3016-6.4271 4.0544-0.035-0.0163-1.8771-3.6724 0.03168 1.4704-7.1053-1.9135 0.01653-1.4704 7.1052-6.3154 0.05446 1.4704-7.1052zm24.18 1.1303-0.88593 4.2152-2.2973 0.0198 0.0196 2.2773 2.1754-0.01863 0.10825 12.551c0.0245 2.8394 1.2892 4.2491 3.7947 4.2275 1.0788-0.0093 2.1332-0.15861 3.1632-0.44566l-0.02-2.3119c-0.78735 0.16883-1.3902 0.25575-1.8077 0.25937-0.73076 0.0062-1.2482-0.16636-1.5526-0.52503-0.29316-0.36865-0.44343-1.0058-0.45123-1.9098l-0.1024-11.872 3.4796-0.03004-0.0196-2.2773-3.4796 0.03004-0.0363-4.2072zm-9.2731 4.2876 0.16224 18.81 3.1322-0.02703-0.16224-18.81zm-14.793 3.5511 6.2626-0.05402-1.3016 6.4271-6.299 0.05432z" filter="url(#filter873)" opacity=".35"/>
  <path d="m11.304 5.5082-0.7598 0.00663 0.0066 0.72475 0.75933-0.00663zm-1.9 0.36616-0.46422 0.00426-0.35669 1.7233-1.5314 0.01279 0.35669-1.7228-0.46469 0.00379-0.36048 1.7233-1.1563 0.00995 0.00379 0.45522 1.0639-9e-3 -0.31595 1.5584-0.94975 0.00853 0.00427 0.45522 0.84791-0.0076-0.33964 1.7238 0.46469-0.0043 0.33916-1.7233 1.5319-0.01326-0.34816 1.7238 0.46422-0.0043 0.35669-1.7238 1.1942-0.0099-0.00379-0.45522-1.0971 0.00947 0.31548-1.5589 0.98339-0.00853-0.00426-0.45522-0.89054 0.00758zm3.9103 0.29132-0.50638 0.00426-0.21458 1.0222-0.55706 0.00474 0.0047 0.55233 0.52722-0.00474 0.02653 3.0444c0.0059 0.68864 0.31272 1.0303 0.92038 1.0251 0.26164-0.0022 0.5171-0.03838 0.76691-0.108l-0.0047-0.56085c-0.19096 0.04095-0.33738 0.06212-0.43864 0.063-0.17723 0.0015-0.30229-0.04044-0.37611-0.12742-0.0711-0.08941-0.10753-0.24402-0.10942-0.46327l-0.02511-2.8791 0.84412-0.00758-0.0047-0.55185-0.84412 0.00711zm-1.9957 1.0374-0.75933 0.00663 0.03932 4.5621 0.75933-0.0066zm-2.8284 0.85454-0.31548 1.5589-1.5281 0.013264 0.32495-1.5589z" fill="#323232" stroke-linecap="round" stroke-width=".91676"/>
 </g>
</svg>
