<?xml version="1.0" encoding="UTF-8"?>
<svg width="64" height="64" version="1.1" viewBox="0 0 16.933 16.933" xmlns="http://www.w3.org/2000/svg" xmlns:cc="http://creativecommons.org/ns#" xmlns:dc="http://purl.org/dc/elements/1.1/" xmlns:rdf="http://www.w3.org/1999/02/22-rdf-syntax-ns#" xmlns:xlink="http://www.w3.org/1999/xlink">
 <defs>
  <linearGradient id="linearGradient1115" x1="-29.448" x2="-29.448" y1="4.6371" y2="59.494" gradientTransform="matrix(.26459 0 0 .26459 16.852 -.00016033)" gradientUnits="userSpaceOnUse">
   <stop stop-color="#fff" offset="0"/>
   <stop stop-color="#ccd4da" offset="1"/>
  </linearGradient>
 </defs>
 <metadata>
  <rdf:RDF>
   <cc:Work rdf:about="">
    <dc:format>image/svg+xml</dc:format>
    <dc:type rdf:resource="http://purl.org/dc/dcmitype/StillImage"/>
    <dc:title/>
   </cc:Work>
  </rdf:RDF>
 </metadata>
 <rect x="1.1905" y="1.1905" width="14.552" height="14.552" ry="3.4397" fill="url(#linearGradient1115)" image-rendering="optimizeSpeed" stroke-width=".12512"/>
 <path d="m12.289 4.3518-6.6859-0.00223-0.072659 0.35059 0.19344 0.024244c0.4715 0.060611 0.68905 0.26622 0.68892 0.6531-3.61e-5 0.10881-0.02432 0.42315-0.048534 0.51986l-0.93266 5.138c-0.16954 0.83417-0.39934 1.088-1.0643 1.1724l-0.20554 0.02411-0.060568 0.35059 3.482 0.0012 0.060568-0.3506-0.25389-0.02426c-0.55613-0.04854-0.79787-0.25416-0.79773-0.66523 4.5e-5 -0.13299 0.024294-0.33852 0.04853-0.50777l0.46026-2.5025 0.90677 3.023e-4c0.44734 1.483e-4 0.79792 0.10908 0.95503 0.27839 0.15711 0.18141 0.27789 0.55624 0.27778 0.88268-1.75e-5 0.048356-0.01214 0.13299-0.024267 0.25389l-2.92e-5 0.096736 0.38689 1.32e-4 0.64195-3.506-0.39898-1.33e-4 -0.0242 0.060443-0.19364 0.58027c-0.036308 0.10876-0.13308 0.2659-0.26613 0.42303-0.29027 0.32634-0.60466 0.44714-1.1971 0.44694l-0.97931-3.264e-4 0.33915-1.886c0.096899-0.53194 0.21791-0.87042 0.32676-0.9792 0.25397-0.24172 0.56834-0.31416 1.3905-0.31388 1.5113 5.035e-4 2.4662 0.61742 3.1307 2.0201l0.45947-0.14494z" fill="#4d4d4d" stroke-width=".30227"/>
</svg>
