<?xml version="1.0" encoding="UTF-8" standalone="no"?>
<svg
   xmlns:dc="http://purl.org/dc/elements/1.1/"
   xmlns:cc="http://creativecommons.org/ns#"
   xmlns:rdf="http://www.w3.org/1999/02/22-rdf-syntax-ns#"
   xmlns:svg="http://www.w3.org/2000/svg"
   xmlns="http://www.w3.org/2000/svg"
   xmlns:xlink="http://www.w3.org/1999/xlink"
   xmlns:sodipodi="http://sodipodi.sourceforge.net/DTD/sodipodi-0.dtd"
   xmlns:inkscape="http://www.inkscape.org/namespaces/inkscape"
   inkscape:version="1.0.1 (3bc2e813f5, 2020-09-07)"
   sodipodi:docname="crystal.svg"
   id="svg12"
   viewBox="0 0 16.933 16.933"
   version="1.1"
   height="64"
   width="64">
  <metadata
     id="metadata18">
    <rdf:RDF>
      <cc:Work
         rdf:about="">
        <dc:format>image/svg+xml</dc:format>
        <dc:type
           rdf:resource="http://purl.org/dc/dcmitype/StillImage" />
        <dc:title></dc:title>
      </cc:Work>
    </rdf:RDF>
  </metadata>
  <defs
     id="defs16">
    <linearGradient
       gradientUnits="userSpaceOnUse"
       gradientTransform="matrix(0.086563,0,0,0.086563,-19.285,288.52)"
       y2="44"
       y1="268"
       x2="200"
       x1="200"
       id="c">
      <stop
         id="stop854"
         offset="0"
         stop-color="#e6e6e6" />
      <stop
         id="stop856"
         offset="1"
         stop-color="#d3d3d3" />
    </linearGradient>
    <linearGradient
       gradientUnits="userSpaceOnUse"
       gradientTransform="translate(-64,-68)"
       y2="212"
       y1="100"
       x2="152"
       x1="152"
       id="d">
      <stop
         id="stop859"
         offset="0"
         stop-opacity="0" />
      <stop
         id="stop861"
         offset=".5" />
      <stop
         id="stop863"
         offset="1"
         stop-opacity="0" />
    </linearGradient>
    <filter
       color-interpolation-filters="sRGB"
       height="1.048"
       width="1.048"
       y="-.024"
       x="-.024"
       id="a">
      <feGaussianBlur
         id="feGaussianBlur866"
         stdDeviation="1.5000091" />
    </filter>
    <linearGradient
       gradientUnits="userSpaceOnUse"
       y2="236"
       y1="124"
       x2="152"
       x1="152"
       id="b">
      <stop
         id="stop869"
         offset="0" />
      <stop
         id="stop871"
         offset="1"
         stop-opacity="0" />
    </linearGradient>
    <clipPath
       id="f">
      <path
         id="path874"
         fill="#5d5d5d"
         color="#000000"
         d="m152 68c-48.601 0-88 39.399-88 88s39.399 88 88 88 88-39.399 88-88-39.399-88-88-88z" />
    </clipPath>
    <filter
       color-interpolation-filters="sRGB"
       height="1.12"
       width="1.12"
       y="-.06"
       x="-.06"
       id="e">
      <feGaussianBlur
         id="feGaussianBlur877"
         stdDeviation="4.4" />
    </filter>
    <linearGradient
       id="a-3">
      <stop
         id="stop2"
         stop-color="#66bcff"
         offset="0" />
      <stop
         id="stop4"
         stop-color="#b29aff"
         offset="1" />
    </linearGradient>
    <linearGradient
       gradientTransform="matrix(1.07143,0,0,1,-27.4395,-280.067)"
       gradientUnits="userSpaceOnUse"
       y2="280.067"
       x2="2.117"
       y1="297"
       x1="13.229"
       id="c-6"
       xlink:href="#a-3" />
    <linearGradient
       y2="280.067"
       x2="2.117"
       y1="297"
       x1="13.229"
       gradientUnits="userSpaceOnUse"
       id="b-7"
       xlink:href="#a-3" />
    <filter
       id="filter11290"
       x="-.024"
       y="-.024"
       width="1.048"
       height="1.048"
       color-interpolation-filters="sRGB">
      <feGaussianBlur
         stdDeviation="0.15875313"
         id="feGaussianBlur848" />
    </filter>
    <linearGradient
       id="linearGradient918"
       x1="1.2518"
       x2="16.367"
       y1="1.2378"
       y2="16.353"
       gradientUnits="userSpaceOnUse">
      <stop
         stop-color="#af64ff"
         offset="0"
         id="stop851" />
      <stop
         stop-color="#3287ff"
         offset="1"
         id="stop853" />
    </linearGradient>
    <linearGradient
       id="linearGradient894"
       x1="0.52916002"
       x2="16.403999"
       y1="14.42"
       y2="2.5135"
       gradientTransform="matrix(0.99999999,0,0,1.1111,-19.58646,-0.94091994)"
       gradientUnits="userSpaceOnUse">
      <stop
         stop-color="#005ae1"
         offset="0"
         id="stop2-3" />
      <stop
         stop-color="#0096ff"
         offset="1"
         id="stop4-6" />
    </linearGradient>
    <linearGradient
       id="linearGradient864"
       x1="1.1905"
       x2="15.742"
       y1="1.1905"
       y2="15.742"
       gradientUnits="userSpaceOnUse"
       gradientTransform="translate(-6.0369873e-7,-7.115549e-5)">
      <stop
         stop-color="#2aaeea"
         offset="0"
         id="stop883"
         style="stop-color:#0092fd;stop-opacity:1" />
      <stop
         stop-color="#818ce4"
         offset="1"
         id="stop885"
         style="stop-color:#005de3;stop-opacity:1" />
    </linearGradient>
  </defs>
  <sodipodi:namedview
     inkscape:document-rotation="0"
     inkscape:current-layer="svg12"
     inkscape:window-maximized="1"
     inkscape:window-y="38"
     inkscape:window-x="0"
     inkscape:cy="32.149729"
     inkscape:cx="59.036474"
     inkscape:zoom="5.2149126"
     showgrid="false"
     id="namedview14"
     inkscape:window-height="935"
     inkscape:window-width="1920"
     inkscape:pageshadow="2"
     inkscape:pageopacity="0"
     guidetolerance="10"
     gridtolerance="10"
     objecttolerance="10"
     borderopacity="1"
     bordercolor="#666666"
     pagecolor="#ffffff" />
  <path
     id="path959"
     style="fill:#3a3a3a;fill-opacity:1;stroke-width:3;stroke-linecap:round;stroke-linejoin:round;paint-order:stroke fill markers"
     d="M 17.5 4.5 C 10.298033 4.5 4.5 10.298033 4.5 17.5 L 4.5 41.03125 L 4.5 46.5 C 4.5 53.701964 10.298033 59.5 17.5 59.5 L 39.152344 59.5 L 46.5 59.5 C 53.701964 59.5 59.5 53.701964 59.5 46.5 L 59.5 26.294922 L 59.5 17.5 C 59.5 10.298033 53.701964 4.5 46.5 4.5 L 24.8125 4.5 L 17.5 4.5 z M 32.859375 17.849609 L 25.6875 44.552734 L 6.09375 24.882812 L 32.859375 17.849609 z "
     transform="scale(0.26457812)" />
  <path
     id="rect1103"
     style="fill:#3a3a3a;fill-opacity:1;stroke-width:3;stroke-linecap:round;stroke-linejoin:round;paint-order:stroke fill markers"
     d="M 32.388672 33.558594 L 28.349609 34.640625 L 25.6875 44.552734 L 18.455078 37.292969 L 4.5 41.03125 L 4.5 46.5 C 4.5 53.701964 10.298033 59.5 17.5 59.5 L 39.152344 59.5 L 32.388672 33.558594 z "
     transform="scale(0.26457812)" />
  <path
     id="path945"
     style="fill:#262626;fill-opacity:1;stroke-width:3;stroke-linecap:round;stroke-linejoin:round;paint-order:stroke fill markers"
     d="M 32.388672 33.558594 L 39.152344 59.5 L 46.5 59.5 C 53.701964 59.5 59.5 53.701964 59.5 46.5 L 59.5 26.294922 L 32.388672 33.558594 z "
     transform="scale(0.26457812)" />
  <path
     id="path933"
     style="fill:#4d4d4d;fill-opacity:1;stroke-width:3;stroke-linecap:round;stroke-linejoin:round;paint-order:stroke fill markers"
     d="M 17.5 4.5 C 10.298033 4.5 4.5 10.298033 4.5 17.5 L 4.5 41.03125 L 18.455078 37.292969 L 6.09375 24.882812 L 28.585938 18.972656 L 24.8125 4.5 L 17.5 4.5 z M 30.542969 26.476562 L 28.349609 34.640625 L 32.388672 33.558594 L 30.542969 26.476562 z "
     transform="scale(0.26457812)" />
  <path
     id="path942"
     style="fill:#323232;fill-opacity:1;stroke-width:3;stroke-linecap:round;stroke-linejoin:round;paint-order:stroke fill markers"
     d="M 24.8125 4.5 L 28.585938 18.972656 L 32.859375 17.849609 L 30.542969 26.476562 L 32.388672 33.558594 L 59.5 26.294922 L 59.5 17.5 C 59.5 10.298033 53.701964 4.5 46.5 4.5 L 24.8125 4.5 z "
     transform="scale(0.26457812)" />
</svg>
