<?xml version="1.0" encoding="UTF-8" standalone="no"?>
<svg
   xmlns:dc="http://purl.org/dc/elements/1.1/"
   xmlns:cc="http://creativecommons.org/ns#"
   xmlns:rdf="http://www.w3.org/1999/02/22-rdf-syntax-ns#"
   xmlns:svg="http://www.w3.org/2000/svg"
   xmlns="http://www.w3.org/2000/svg"
   xmlns:xlink="http://www.w3.org/1999/xlink"
   xmlns:sodipodi="http://sodipodi.sourceforge.net/DTD/sodipodi-0.dtd"
   xmlns:inkscape="http://www.inkscape.org/namespaces/inkscape"
   width="64"
   height="64"
   version="1.1"
   viewBox="0 0 16.933 16.933"
   id="svg1080"
   sodipodi:docname="discord.svg"
   inkscape:version="1.0.1 (3bc2e813f5, 2020-09-07)">
  <sodipodi:namedview
     pagecolor="#ffffff"
     bordercolor="#666666"
     borderopacity="1"
     objecttolerance="10"
     gridtolerance="10"
     guidetolerance="10"
     inkscape:pageopacity="0"
     inkscape:pageshadow="2"
     inkscape:window-width="1920"
     inkscape:window-height="962"
     id="namedview1082"
     showgrid="false"
     inkscape:zoom="8.783592"
     inkscape:cx="21.594691"
     inkscape:cy="39.962598"
     inkscape:window-x="0"
     inkscape:window-y="36"
     inkscape:window-maximized="1"
     inkscape:current-layer="svg1080" />
  <defs
     id="defs298">
    <clipPath
       id="clipPath13429">
      <path
         d="m481 318h22v22h-22z"
         id="path2" />
    </clipPath>
    <clipPath
       id="clipPath13465">
      <path
         d="m507 318h22v22h-22z"
         id="path5" />
    </clipPath>
    <clipPath
       id="clipPath13501">
      <path
         d="m530 318h22v22h-22z"
         id="path8" />
    </clipPath>
    <clipPath
       id="clipPath13753">
      <path
         d="m672 1064c0-1.105 4.925-2 11-2s11 0.895 11 2-4.925 2-11 2-11-0.895-11-2"
         id="path11" />
    </clipPath>
    <clipPath
       id="clipPath13771">
      <path
         d="m660 1057h51v65.001h-51z"
         id="path14" />
    </clipPath>
    <clipPath
       id="clipPath14035">
      <path
         d="m659 517h53v18h-53z"
         id="path17" />
    </clipPath>
    <clipPath
       id="clipPath14127">
      <path
         d="m659 500h53v18h-53z"
         id="path20" />
    </clipPath>
    <clipPath
       id="clipPath14445">
      <path
         d="m648 112h73v60h-73z"
         id="path23" />
    </clipPath>
    <clipPath
       id="clipPath14609">
      <path
         d="m826 1056h59v60h-59z"
         id="path26" />
    </clipPath>
    <clipPath
       id="clipPath15305">
      <path
         d="m805 276h100v100h-100z"
         id="path29" />
    </clipPath>
    <clipPath
       id="clipPath15341">
      <path
         d="m145 1063.8h74.152v45.21h-74.152z"
         id="path32" />
    </clipPath>
    <clipPath
       id="clipPath15715">
      <path
         d="m151 667h57v57h-57z"
         id="path35" />
    </clipPath>
    <clipPath
       id="clipPath15807">
      <path
         d="m154 697h51v51h-51z"
         id="path38" />
    </clipPath>
    <clipPath
       id="clipPath16001">
      <path
         d="m500.04 864.45h36.012v67.52h-36.012z"
         id="path41" />
    </clipPath>
    <clipPath
       id="clipPath16093">
      <path
         d="m836 870.54h47v55.539h-47z"
         id="path44" />
    </clipPath>
    <clipPath
       id="clipPath16477">
      <path
         d="m318.03 702.35h62.848v37.991h-62.848z"
         id="path47" />
    </clipPath>
    <clipPath
       id="clipPath16579">
      <path
         d="m485.03 133.35h62.847v37.991h-62.847z"
         id="path50" />
    </clipPath>
    <clipPath
       id="clipPath16709">
      <path
         d="m493.37 677.93h45.643v68.067h-45.643z"
         id="path53" />
    </clipPath>
    <clipPath
       id="clipPath24218">
      <path
         d="m144.34 1018.2h71.467v78h-71.467z"
         id="path56" />
    </clipPath>
    <clipPath
       id="clipPath24382">
      <path
         d="m293.21 1068.6 66.323-38.292 36.047 62.435-66.323 38.292z"
         id="path59" />
    </clipPath>
    <clipPath
       id="clipPath24650">
      <path
         d="m488.86 1054.5h10v10.706h-10z"
         id="path62" />
    </clipPath>
    <clipPath
       id="clipPath24700">
      <path
         d="m508 1066.8h10.001v10.705h-10.001z"
         id="path65" />
    </clipPath>
    <clipPath
       id="clipPath24750">
      <path
         d="m525 1045.8h10v10.706h-10z"
         id="path68" />
    </clipPath>
    <clipPath
       id="clipPath24864">
      <path
         d="m836 1043.7h25.5v31.5h-25.5z"
         id="path71" />
    </clipPath>
    <clipPath
       id="clipPath24896">
      <path
         d="m838 1062.2h24v24h-24z"
         id="path74" />
    </clipPath>
    <clipPath
       id="clipPath25070">
      <path
         d="m134 489.24h7v6h-7z"
         id="path77" />
    </clipPath>
    <clipPath
       id="clipPath25100">
      <path
         d="m216 489.24h7v6h-7z"
         id="path80" />
    </clipPath>
    <clipPath
       id="clipPath25502">
      <path
         d="m838 477.24h22v22h-22z"
         id="path83" />
    </clipPath>
    <clipPath
       id="clipPath25686">
      <path
         d="m704 1061.2h25v25h-25z"
         id="path86" />
    </clipPath>
    <clipPath
       id="clipPath25788">
      <path
         d="m663.04 1078.6-1.808-3.514-21.07-47.453c13.336-18.439 48.336-26.938 73.836-3.439 0.842 0 6.476 6.246 6 7l-18.386 25.895c-0.483 0.765-1.453 0.946-2.177 0.431l-15.505-11.011c-0.359-0.255-0.847-0.153-1.07 0.238l-18.272 31.869c-0.218 0.384-0.502 0.578-0.782 0.578-0.282 0-0.561-0.197-0.766-0.594"
         id="path89" />
    </clipPath>
    <clipPath
       id="clipPath26420">
      <path
         d="m127 820.24h100v100h-100z"
         id="path92" />
    </clipPath>
    <clipPath
       id="clipPath26860">
      <path
         d="m809 680.24c0-22.092 17.908-40 40-40s40 17.908 40 40c0 22.091-17.908 40-40 40s-40-17.909-40-40"
         id="path95" />
    </clipPath>
    <clipPath
       id="clipPath27506">
      <path
         d="m658 469.24h44v45h-44z"
         id="path98" />
    </clipPath>
    <clipPath
       id="clipPath27772">
      <path
         d="m651 271.24h58v58h-58z"
         id="path101" />
    </clipPath>
    <clipPath
       id="clipPath27864">
      <path
         d="m662 307.24h38v8h-38z"
         id="path104" />
    </clipPath>
    <clipPath
       id="clipPath28028">
      <path
         d="m858.98 137.24c0.013-0.101 0.021-0.203 0.021-0.307v-6.693h15.75c1.237 0 2.25-1.013 2.25-2.25v-11.25l-27-4.5-27 4.5v-2.25l27-4.5 27 4.5v-27c0-1.237-1.013-2.25-2.25-2.25h-49.5c-1.237 0-2.25 1.013-2.25 2.25v-4.25h54v54zm-35.979 0v-9.25c0 1.237 1.013 2.25 2.25 2.25h15.75v6.693c0 0.104 7e-3 0.207 0.02 0.307zm22.5-7h9v4.5h-9zm1.125-9c-0.62 0-1.125-0.506-1.125-1.125v-2.25c0-0.619 0.505-1.125 1.125-1.125h6.75c0.619 0 1.125 0.506 1.125 1.125v2.25c0 0.619-0.506 1.125-1.125 1.125z"
         id="path107" />
    </clipPath>
    <clipPath
       id="clipPath28200">
      <path
         d="m531.27 136.24c6.325-2.29 10.727-8.277 10.727-15.484 0-11.316-10.2-20.563-25.65-34.575l-4.35-3.941-4.35 3.941c-15.45 14.012-25.65 23.259-25.65 34.575v-39.516h60v55zm-26.983 0c2.995-1.052 5.686-2.883 7.71-5.25 2.024 2.367 4.715 4.198 7.71 5.25zm-22.29 0v-15.484c0 7.207 4.402 13.194 10.727 15.484z"
         id="path110" />
    </clipPath>
    <clipPath
       id="clipPath28364">
      <path
         d="m648 79.241h64v64h-64z"
         id="path113" />
    </clipPath>
    <clipPath
       id="clipPath28984">
      <path
         d="m500 691.74c0-3.037 2.463-5.5 5.5-5.5s5.5 2.463 5.5 5.5-2.463 5.5-5.5 5.5-5.5-2.463-5.5-5.5"
         id="path116" />
    </clipPath>
    <clipPath
       id="clipPath29012">
      <path
         d="m500 669.74c0-3.037 2.463-5.5 5.5-5.5s5.5 2.463 5.5 5.5c0 3.038-2.463 5.5-5.5 5.5s-5.5-2.462-5.5-5.5"
         id="path119" />
    </clipPath>
    <clipPath
       id="clipPath29040">
      <path
         d="m494 680.74c0-3.037 2.462-5.5 5.5-5.5s5.5 2.463 5.5 5.5c0 3.038-2.462 5.5-5.5 5.5s-5.5-2.462-5.5-5.5"
         id="path122" />
    </clipPath>
    <clipPath
       id="clipPath29068">
      <path
         d="m513 691.74c0-3.037 2.463-5.5 5.5-5.5s5.5 2.463 5.5 5.5-2.463 5.5-5.5 5.5-5.5-2.463-5.5-5.5"
         id="path125" />
    </clipPath>
    <clipPath
       id="clipPath29096">
      <path
         d="m513 669.74c0-3.037 2.463-5.5 5.5-5.5s5.5 2.463 5.5 5.5c0 3.038-2.463 5.5-5.5 5.5s-5.5-2.462-5.5-5.5"
         id="path128" />
    </clipPath>
    <clipPath
       id="clipPath29124">
      <path
         d="m507 680.74c0-3.037 2.463-5.5 5.5-5.5s5.5 2.463 5.5 5.5c0 3.038-2.463 5.5-5.5 5.5s-5.5-2.462-5.5-5.5"
         id="path131" />
    </clipPath>
    <clipPath
       id="clipPath29152">
      <path
         d="m520 680.74c0-3.037 2.463-5.5 5.5-5.5s5.5 2.463 5.5 5.5c0 3.038-2.463 5.5-5.5 5.5s-5.5-2.462-5.5-5.5"
         id="path134" />
    </clipPath>
    <clipPath
       id="clipPath29252">
      <path
         d="m321 322.24c-4.97 0-9-4.029-9-9 0-4.97 4.03-9 9-9h45c4.971 0 9 4.03 9 9 0 4.971-4.029 9-9 9z"
         id="path137" />
    </clipPath>
    <clipPath
       id="clipPath29280">
      <path
         d="m322 297.24c-4.971 0-9-4.029-9-9 0-4.97 4.029-9 9-9h45c4.971 0 9 4.03 9 9 0 4.971-4.029 9-9 9z"
         id="path140" />
    </clipPath>
    <clipPath
       id="clipPath29400">
      <path
         d="m155 83.24h44v53h-44z"
         id="path143" />
    </clipPath>
    <linearGradient
       id="linearGradient2323"
       x1=".73911"
       x2="16.388"
       y1="16.296"
       y2=".64687"
       gradientTransform="matrix(0.99999,0,0,0.99999,0.2515233,-2.0015424)"
       gradientUnits="userSpaceOnUse">
      <stop
         stop-color="#0354f8"
         offset="0"
         id="stop146" />
      <stop
         stop-color="#008df8"
         offset="1"
         id="stop148" />
    </linearGradient>
    <clipPath
       id="clipPath13429-6">
      <path
         d="m481 318h22v22h-22z"
         id="path151" />
    </clipPath>
    <clipPath
       id="clipPath13465-0">
      <path
         d="m507 318h22v22h-22z"
         id="path154" />
    </clipPath>
    <clipPath
       id="clipPath13501-6">
      <path
         d="m530 318h22v22h-22z"
         id="path157" />
    </clipPath>
    <clipPath
       id="clipPath13753-2">
      <path
         d="m672 1064c0-1.105 4.925-2 11-2s11 0.895 11 2-4.925 2-11 2-11-0.895-11-2"
         id="path160" />
    </clipPath>
    <clipPath
       id="clipPath13771-6">
      <path
         d="m660 1057h51v65.001h-51z"
         id="path163" />
    </clipPath>
    <clipPath
       id="clipPath14035-1">
      <path
         d="m659 517h53v18h-53z"
         id="path166" />
    </clipPath>
    <clipPath
       id="clipPath14127-8">
      <path
         d="m659 500h53v18h-53z"
         id="path169" />
    </clipPath>
    <clipPath
       id="clipPath14445-7">
      <path
         d="m648 112h73v60h-73z"
         id="path172" />
    </clipPath>
    <clipPath
       id="clipPath14609-9">
      <path
         d="m826 1056h59v60h-59z"
         id="path175" />
    </clipPath>
    <clipPath
       id="clipPath15305-2">
      <path
         d="m805 276h100v100h-100z"
         id="path178" />
    </clipPath>
    <clipPath
       id="clipPath15341-0">
      <path
         d="m145 1063.8h74.152v45.21h-74.152z"
         id="path181" />
    </clipPath>
    <clipPath
       id="clipPath15715-2">
      <path
         d="m151 667h57v57h-57z"
         id="path184" />
    </clipPath>
    <clipPath
       id="clipPath15807-3">
      <path
         d="m154 697h51v51h-51z"
         id="path187" />
    </clipPath>
    <clipPath
       id="clipPath16001-7">
      <path
         d="m500.04 864.45h36.012v67.52h-36.012z"
         id="path190" />
    </clipPath>
    <clipPath
       id="clipPath16093-5">
      <path
         d="m836 870.54h47v55.539h-47z"
         id="path193" />
    </clipPath>
    <clipPath
       id="clipPath16477-9">
      <path
         d="m318.03 702.35h62.848v37.991h-62.848z"
         id="path196" />
    </clipPath>
    <clipPath
       id="clipPath16579-2">
      <path
         d="m485.03 133.35h62.847v37.991h-62.847z"
         id="path199" />
    </clipPath>
    <clipPath
       id="clipPath16709-2">
      <path
         d="m493.37 677.93h45.643v68.067h-45.643z"
         id="path202" />
    </clipPath>
    <clipPath
       id="clipPath24218-8">
      <path
         d="m144.34 1018.2h71.467v78h-71.467z"
         id="path205" />
    </clipPath>
    <clipPath
       id="clipPath24382-9">
      <path
         d="m293.21 1068.6 66.323-38.292 36.047 62.435-66.323 38.292z"
         id="path208" />
    </clipPath>
    <clipPath
       id="clipPath24650-7">
      <path
         d="m488.86 1054.5h10v10.706h-10z"
         id="path211" />
    </clipPath>
    <clipPath
       id="clipPath24700-3">
      <path
         d="m508 1066.8h10.001v10.705h-10.001z"
         id="path214" />
    </clipPath>
    <clipPath
       id="clipPath24750-6">
      <path
         d="m525 1045.8h10v10.706h-10z"
         id="path217" />
    </clipPath>
    <clipPath
       id="clipPath24864-1">
      <path
         d="m836 1043.7h25.5v31.5h-25.5z"
         id="path220" />
    </clipPath>
    <clipPath
       id="clipPath24896-2">
      <path
         d="m838 1062.2h24v24h-24z"
         id="path223" />
    </clipPath>
    <clipPath
       id="clipPath25070-9">
      <path
         d="m134 489.24h7v6h-7z"
         id="path226" />
    </clipPath>
    <clipPath
       id="clipPath25100-3">
      <path
         d="m216 489.24h7v6h-7z"
         id="path229" />
    </clipPath>
    <clipPath
       id="clipPath25502-1">
      <path
         d="m838 477.24h22v22h-22z"
         id="path232" />
    </clipPath>
    <clipPath
       id="clipPath25686-9">
      <path
         d="m704 1061.2h25v25h-25z"
         id="path235" />
    </clipPath>
    <clipPath
       id="clipPath25788-4">
      <path
         d="m663.04 1078.6-1.808-3.514-21.07-47.453c13.336-18.439 48.336-26.938 73.836-3.439 0.842 0 6.476 6.246 6 7l-18.386 25.895c-0.483 0.765-1.453 0.946-2.177 0.431l-15.505-11.011c-0.359-0.255-0.847-0.153-1.07 0.238l-18.272 31.869c-0.218 0.384-0.502 0.578-0.782 0.578-0.282 0-0.561-0.197-0.766-0.594"
         id="path238" />
    </clipPath>
    <clipPath
       id="clipPath26420-7">
      <path
         d="m127 820.24h100v100h-100z"
         id="path241" />
    </clipPath>
    <clipPath
       id="clipPath26860-8">
      <path
         d="m809 680.24c0-22.092 17.908-40 40-40s40 17.908 40 40c0 22.091-17.908 40-40 40s-40-17.909-40-40"
         id="path244" />
    </clipPath>
    <clipPath
       id="clipPath27506-4">
      <path
         d="m658 469.24h44v45h-44z"
         id="path247" />
    </clipPath>
    <clipPath
       id="clipPath27772-5">
      <path
         d="m651 271.24h58v58h-58z"
         id="path250" />
    </clipPath>
    <clipPath
       id="clipPath27864-0">
      <path
         d="m662 307.24h38v8h-38z"
         id="path253" />
    </clipPath>
    <clipPath
       id="clipPath28028-3">
      <path
         d="m858.98 137.24c0.013-0.101 0.021-0.203 0.021-0.307v-6.693h15.75c1.237 0 2.25-1.013 2.25-2.25v-11.25l-27-4.5-27 4.5v-2.25l27-4.5 27 4.5v-27c0-1.237-1.013-2.25-2.25-2.25h-49.5c-1.237 0-2.25 1.013-2.25 2.25v-4.25h54v54zm-35.979 0v-9.25c0 1.237 1.013 2.25 2.25 2.25h15.75v6.693c0 0.104 7e-3 0.207 0.02 0.307zm22.5-7h9v4.5h-9zm1.125-9c-0.62 0-1.125-0.506-1.125-1.125v-2.25c0-0.619 0.505-1.125 1.125-1.125h6.75c0.619 0 1.125 0.506 1.125 1.125v2.25c0 0.619-0.506 1.125-1.125 1.125z"
         id="path256" />
    </clipPath>
    <clipPath
       id="clipPath28200-6">
      <path
         d="m531.27 136.24c6.325-2.29 10.727-8.277 10.727-15.484 0-11.316-10.2-20.563-25.65-34.575l-4.35-3.941-4.35 3.941c-15.45 14.012-25.65 23.259-25.65 34.575v-39.516h60v55zm-26.983 0c2.995-1.052 5.686-2.883 7.71-5.25 2.024 2.367 4.715 4.198 7.71 5.25zm-22.29 0v-15.484c0 7.207 4.402 13.194 10.727 15.484z"
         id="path259" />
    </clipPath>
    <clipPath
       id="clipPath28364-1">
      <path
         d="m648 79.241h64v64h-64z"
         id="path262" />
    </clipPath>
    <clipPath
       id="clipPath28984-0">
      <path
         d="m500 691.74c0-3.037 2.463-5.5 5.5-5.5s5.5 2.463 5.5 5.5-2.463 5.5-5.5 5.5-5.5-2.463-5.5-5.5"
         id="path265" />
    </clipPath>
    <clipPath
       id="clipPath29012-6">
      <path
         d="m500 669.74c0-3.037 2.463-5.5 5.5-5.5s5.5 2.463 5.5 5.5c0 3.038-2.463 5.5-5.5 5.5s-5.5-2.462-5.5-5.5"
         id="path268" />
    </clipPath>
    <clipPath
       id="clipPath29040-3">
      <path
         d="m494 680.74c0-3.037 2.462-5.5 5.5-5.5s5.5 2.463 5.5 5.5c0 3.038-2.462 5.5-5.5 5.5s-5.5-2.462-5.5-5.5"
         id="path271" />
    </clipPath>
    <clipPath
       id="clipPath29068-2">
      <path
         d="m513 691.74c0-3.037 2.463-5.5 5.5-5.5s5.5 2.463 5.5 5.5-2.463 5.5-5.5 5.5-5.5-2.463-5.5-5.5"
         id="path274" />
    </clipPath>
    <clipPath
       id="clipPath29096-0">
      <path
         d="m513 669.74c0-3.037 2.463-5.5 5.5-5.5s5.5 2.463 5.5 5.5c0 3.038-2.463 5.5-5.5 5.5s-5.5-2.462-5.5-5.5"
         id="path277" />
    </clipPath>
    <clipPath
       id="clipPath29124-6">
      <path
         d="m507 680.74c0-3.037 2.463-5.5 5.5-5.5s5.5 2.463 5.5 5.5c0 3.038-2.463 5.5-5.5 5.5s-5.5-2.462-5.5-5.5"
         id="path280" />
    </clipPath>
    <clipPath
       id="clipPath29152-1">
      <path
         d="m520 680.74c0-3.037 2.463-5.5 5.5-5.5s5.5 2.463 5.5 5.5c0 3.038-2.463 5.5-5.5 5.5s-5.5-2.462-5.5-5.5"
         id="path283" />
    </clipPath>
    <clipPath
       id="clipPath29252-5">
      <path
         d="m321 322.24c-4.97 0-9-4.029-9-9 0-4.97 4.03-9 9-9h45c4.971 0 9 4.03 9 9 0 4.971-4.029 9-9 9z"
         id="path286" />
    </clipPath>
    <clipPath
       id="clipPath29280-5">
      <path
         d="m322 297.24c-4.971 0-9-4.029-9-9 0-4.97 4.029-9 9-9h45c4.971 0 9 4.03 9 9 0 4.971-4.029 9-9 9z"
         id="path289" />
    </clipPath>
    <clipPath
       id="clipPath29400-4">
      <path
         d="m155 83.24h44v53h-44z"
         id="path292" />
    </clipPath>
    <filter
       id="filter873"
       x="-.051553"
       y="-.071757"
       width="1.1031"
       height="1.1435"
       color-interpolation-filters="sRGB">
      <feGaussianBlur
         stdDeviation="0.22066716"
         id="feGaussianBlur295" />
    </filter>
    <filter
       id="filter917"
       x="-.083994"
       y="-.084006"
       width="1.168"
       height="1.168"
       color-interpolation-filters="sRGB">
      <feGaussianBlur
         stdDeviation="0.22223482"
         id="feGaussianBlur4" />
    </filter>
    <linearGradient
       id="linearGradient1005"
       x1=".73911"
       x2="16.388"
       y1="16.296"
       y2=".64687"
       gradientTransform="matrix(0.99997,0,0,0.99997,22.622572,-8.0932473)"
       gradientUnits="userSpaceOnUse">
      <stop
         stop-color="#00a0ff"
         offset="0"
         id="stop7" />
      <stop
         stop-color="#37beff"
         offset="1"
         id="stop9" />
    </linearGradient>
    <linearGradient
       inkscape:collect="always"
       xlink:href="#linearGradient2114"
       id="linearGradient2116"
       x1="59.5"
       y1="4.5"
       x2="4.5"
       y2="59.5"
       gradientUnits="userSpaceOnUse"
       gradientTransform="scale(0.26457812)" />
    <linearGradient
       inkscape:collect="always"
       id="linearGradient2114">
      <stop
         style="stop-color:#008df8;stop-opacity:1"
         offset="0"
         id="stop2110" />
      <stop
         style="stop-color:#0354f8;stop-opacity:1"
         offset="1"
         id="stop2112" />
    </linearGradient>
  </defs>
  <metadata
     id="metadata300">
    <rdf:RDF>
      <cc:Work
         rdf:about="">
        <dc:format>image/svg+xml</dc:format>
        <dc:type
           rdf:resource="http://purl.org/dc/dcmitype/StillImage" />
        <dc:title></dc:title>
      </cc:Work>
    </rdf:RDF>
  </metadata>
  <rect
     style="fill:url(#linearGradient2116);fill-opacity:1;stroke-width:0.561961"
     id="rect2106"
     width="14.551797"
     height="14.551797"
     x="1.1906016"
     y="1.1906016"
     ry="3.4395156" />
  <g
     transform="translate(-21.834 .89695)"
     fill="#5e4aa6"
     stroke-width=".26458"
     id="g310">
    <circle
       cx="-330.35"
       cy="-328.38"
       r="0"
       id="circle302" />
    <circle
       cx="-312.11"
       cy="-326.25"
       r="0"
       id="circle304" />
    <circle
       cx="-306.02"
       cy="-333.07"
       r="0"
       id="circle306" />
    <circle
       cx="-308.84"
       cy="-326.01"
       r="0"
       id="circle308" />
  </g>
  <g
     transform="translate(53.926 9.4016)"
     fill="#5e4aa6"
     stroke-width=".26458"
     id="g326">
    <g
       transform="translate(-21.833 .89722)"
       id="g320">
      <circle
         cx="-330.35"
         cy="-328.38"
         r="0"
         id="circle312" />
      <circle
         cx="-312.11"
         cy="-326.25"
         r="0"
         id="circle314" />
      <circle
         cx="-306.02"
         cy="-333.07"
         r="0"
         id="circle316" />
      <circle
         cx="-308.84"
         cy="-326.01"
         r="0"
         id="circle318" />
    </g>
    <circle
       cx="-284.23"
       cy="-330.42"
       r="0"
       id="circle322" />
    <circle
       cx="6.6786"
       cy="4.3998"
       r="0"
       fill-rule="evenodd"
       id="circle324" />
  </g>
  <g
     transform="matrix(.35277 0 0 -.35277 252.67 252.3)"
     id="g334">
    <g
       clip-path="url(#clipPath13429)"
       id="g332">
      <g
         transform="translate(448,326)"
         id="g330">
        <path
           d="m0 0c3.866 0 7 3.134 7 7s-3.134 7-7 7-7-3.134-7-7 3.134-7 7-7"
           fill="#fff"
           fill-rule="evenodd"
           id="path328" />
      </g>
    </g>
  </g>
  <g
     transform="matrix(.35277 0 0 -.35277 252.67 252.3)"
     id="g342">
    <g
       clip-path="url(#clipPath13465)"
       id="g340">
      <g
         transform="translate(474,326)"
         id="g338">
        <path
           d="m0 0c3.866 0 7 3.134 7 7s-3.134 7-7 7-7-3.134-7-7 3.134-7 7-7"
           fill="#fff"
           fill-rule="evenodd"
           id="path336" />
      </g>
    </g>
  </g>
  <g
     transform="matrix(.35277 0 0 -.35277 252.67 252.3)"
     id="g350">
    <g
       clip-path="url(#clipPath13501)"
       id="g348">
      <g
         transform="translate(497,326)"
         id="g346">
        <path
           d="m0 0c3.866 0 7 3.134 7 7s-3.134 7-7 7-7-3.134-7-7 3.134-7 7-7"
           fill="#fff"
           fill-rule="evenodd"
           id="path344" />
      </g>
    </g>
  </g>
  <g
     transform="matrix(.35277 0 0 -.35277 252.67 252.3)"
     id="g356">
    <g
       clip-path="url(#clipPath13753)"
       id="g354">
      <path
         d="m593 1073h36v-18h-36zm18-11c6.075 0 11 0.895 11 2s-4.925 2-11 2-11-0.895-11-2 4.925-2 11-2"
         fill="#fff"
         fill-rule="evenodd"
         id="path352" />
    </g>
  </g>
  <g
     transform="matrix(.35277 0 0 -.35277 252.67 252.3)"
     id="g364">
    <g
       clip-path="url(#clipPath13771)"
       id="g362">
      <g
         transform="translate(583.42,1063)"
         id="g360">
        <path
           d="m0 0s21.582 23.182 21.582 35.147c0 12.048-9.684 21.853-21.582 21.853-11.816 0-21.418-9.805-21.418-21.853 0-8.06 9.766-21.188 16.002-28.832zm0 42.542c3.938 0 7.14-3.323 7.14-7.395 0-3.822-3.202-7.146-7.14-7.146-3.856 0-7.222 3.324-7.222 7.146 0 4.072 3.366 7.395 7.222 7.395"
           fill="#fff"
           id="path358" />
      </g>
    </g>
  </g>
  <g
     transform="matrix(.35277 0 0 -.35277 252.67 252.3)"
     id="g372">
    <g
       clip-path="url(#clipPath14035)"
       id="g370">
      <g
         transform="translate(562,535)"
         id="g368">
        <path
           d="m0 0h35c2.762 0 5-2.238 5-5s-2.238-5-5-5h-35c-2.762 0-5 2.238-5 5s2.238 5 5 5"
           fill="#fff"
           fill-rule="evenodd"
           id="path366" />
      </g>
    </g>
  </g>
  <g
     transform="matrix(.35277 0 0 -.35277 252.67 252.3)"
     id="g380">
    <g
       clip-path="url(#clipPath14127)"
       id="g378">
      <g
         transform="translate(562,518)"
         id="g376">
        <path
           d="m0 0h35c2.762 0 5-2.238 5-5s-2.238-5-5-5h-35c-2.762 0-5 2.238-5 5s2.238 5 5 5"
           fill="#fff"
           fill-rule="evenodd"
           id="path374" />
      </g>
    </g>
  </g>
  <g
     transform="matrix(.35277 0 0 -.35277 252.67 252.3)"
     id="g388">
    <g
       clip-path="url(#clipPath14445)"
       id="g386">
      <g
         transform="translate(536.43,133.83)"
         id="g384">
        <path
           d="m0 0c-10.01-12.916-22.288-9.047-24.23-8.072-4.847 1.293-6.464 10.015-0.326 12.918 10.018 3.226 19.06-0.325 25.524-3.553-0.644-0.967-0.968-1.293-0.968-1.293m10.667 3.553c4.521 8.072 6.139 15.826 6.139 15.826h-15.189v5.812h17.767v2.26h-17.767v8.723h-8.074v-8.723h-16.156v-2.584h16.156v-5.812h-13.57v-2.585h27.783c0-0.325 0-0.325-0.324-0.968 0-2.909-1.936-6.779-3.554-10.014-20.677 8.079-26.491 3.235-28.108 2.584-13.564-9.689-0.968-21.963 1.293-21.638 14.538-3.227 23.905 2.91 30.369 10.657 0.324-0.325 0.967-0.325 1.292-0.325 4.528-2.578 25.848-12.592 25.848-12.592v12.274c-3.878 0.325-15.506 4.195-23.905 7.105"
           fill="#fff"
           id="path382" />
      </g>
    </g>
  </g>
  <g
     transform="matrix(.35277 0 0 -.35277 252.67 252.3)"
     id="g396">
    <g
       clip-path="url(#clipPath14609)"
       id="g394">
      <g
         transform="translate(720.03,1091.5)"
         id="g392">
        <path
           d="m0 0c-0.149 0.354-0.224 0.837-0.224 1.451 0 0.372 0.103 0.828 0.306 1.368 0.205 0.539 0.428 0.958 0.671 1.256-0.019 0.409 0.051 0.902 0.209 1.478 0.159 0.576 0.368 0.976 0.629 1.2 0 2.586 0.86 5.269 2.581 8.05 1.722 2.782 3.744 4.73 6.07 5.846 2.585 1.228 5.6 1.842 9.041 1.842 2.475 0 4.949-0.511 7.423-1.534 0.912-0.391 1.749-0.837 2.512-1.34 0.762-0.502 1.423-1.022 1.981-1.562 0.559-0.54 1.07-1.172 1.534-1.897 0.465-0.725 0.856-1.413 1.172-2.064 0.318-0.651 0.619-1.437 0.908-2.358 0.287-0.921 0.524-1.753 0.71-2.497s0.391-1.655 0.614-2.734l0.028-0.14c1.023-1.543 1.535-2.939 1.535-4.186 0-0.26-0.084-0.632-0.252-1.115-0.168-0.484-0.252-0.837-0.252-1.061 0-0.019 0.015-0.052 0.043-0.099s0.061-0.093 0.098-0.139c0.038-0.046 0.057-0.077 0.057-0.098 1.432-2.121 2.553-4.116 3.363-5.985 0.809-1.869 1.214-3.808 1.214-5.817 0-0.8-0.182-1.73-0.544-2.791-0.363-1.06-0.879-1.59-1.549-1.59-0.167 0-0.349 0.069-0.544 0.209-0.194 0.14-0.371 0.303-0.529 0.489-0.159 0.186-0.335 0.428-0.53 0.725s-0.344 0.543-0.447 0.739-0.228 0.438-0.377 0.725c-0.147 0.288-0.231 0.451-0.251 0.489-0.019 0.019-0.047 0.028-0.085 0.028l-0.138-0.111c-1.099-2.864-2.327-4.938-3.684-6.222 0.372-0.372 0.944-0.73 1.716-1.075s1.414-0.73 1.925-1.158c0.511-0.426 0.841-1.031 0.991-1.814-0.037-0.074-0.074-0.223-0.112-0.447-0.036-0.224-0.101-0.391-0.195-0.501-1.19-1.804-4-2.706-8.427-2.706-0.986 0-2.013 0.084-3.084 0.251-1.069 0.168-1.981 0.354-2.734 0.558s-1.726 0.483-2.916 0.837c-0.279 0.093-0.493 0.158-0.643 0.196-0.259 0.075-0.687 0.115-1.282 0.125-0.595 9e-3 -0.967 0.023-1.116 0.042-0.763-0.838-1.949-1.442-3.559-1.814-1.609-0.372-3.176-0.558-4.702-0.558-0.65 0-1.293 0.014-1.925 0.042s-1.498 0.113-2.595 0.252c-1.098 0.139-2.038 0.33-2.82 0.572-0.781 0.241-1.473 0.613-2.078 1.115-0.604 0.502-0.906 1.098-0.906 1.786 0 0.744 0.093 1.298 0.279 1.661 0.187 0.364 0.569 0.815 1.144 1.353 0.205 0.038 0.581 0.159 1.131 0.363 0.549 0.204 1.009 0.316 1.381 0.334 0.074 0 0.204 0.019 0.39 0.057 0.038 0.037 0.057 0.074 0.057 0.111l-0.057 0.084c-0.892 0.204-1.897 1.185-3.014 2.944-1.117 1.758-1.796 3.214-2.038 4.367l-0.139 0.084c-0.074 0-0.186-0.185-0.334-0.557-0.335-0.763-0.842-1.455-1.521-2.079-0.679-0.622-1.4-0.971-2.163-1.046h-0.028c-0.073 0-0.129 0.041-0.167 0.125-0.037 0.083-0.084 0.134-0.139 0.153-0.428 1.004-0.642 1.934-0.642 2.79 0 5.116 2.343 9.45 7.032 13.002z"
           fill="#fff"
           id="path390" />
      </g>
    </g>
  </g>
  <g
     transform="matrix(.35277 0 0 -.35277 252.67 252.3)"
     id="g404">
    <g
       clip-path="url(#clipPath15305)"
       id="g402">
      <g
         transform="translate(655,300)"
         id="g400">
        <path
           d="m0 0c16.568 0 30 13.432 30 30s-13.432 30-30 30-30-13.432-30-30 13.432-30 30-30z"
           fill="none"
           stroke="#fff"
           stroke-miterlimit="10"
           stroke-width="8"
           id="path398" />
      </g>
    </g>
  </g>
  <g
     transform="matrix(.35277 0 0 -.35277 252.67 252.3)"
     id="g412">
    <g
       clip-path="url(#clipPath15341)"
       id="g410">
      <g
         transform="translate(66.849,1083.1)"
         id="g408">
        <path
           d="m0 0c0 5.302-3.661 9.749-8.591 10.948-0.209 8.314-7.006 14.991-15.366 14.991-4.897 0-9.254-2.293-12.07-5.861-1.579 2.041-4.05 3.358-6.828 3.358-4.769 0-8.633-3.868-8.633-8.639 0-0.416 0.031-0.825 0.089-1.224-0.726 0.13-1.47 0.203-2.232 0.203-6.913 0-12.515-5.607-12.515-12.524 0-6.916 5.602-12.523 12.515-12.523h42.394c6.21 0.013 11.241 5.053 11.241 11.269z"
           fill="#fff"
           id="path406" />
      </g>
    </g>
  </g>
  <g
     transform="matrix(.35277 0 0 -.35277 252.67 252.3)"
     id="g420">
    <g
       clip-path="url(#clipPath15715)"
       id="g418">
      <g
         transform="translate(65.5,681)"
         id="g416">
        <path
           d="m0 0c9.113 0 16.5 7.387 16.5 16.5s-7.387 16.5-16.5 16.5-16.5-7.387-16.5-16.5 7.387-16.5 16.5-16.5z"
           fill="none"
           stroke="#fff"
           stroke-miterlimit="10"
           stroke-width="4"
           id="path414" />
      </g>
    </g>
  </g>
  <g
     transform="matrix(.35277 0 0 -.35277 252.67 252.3)"
     id="g428">
    <g
       clip-path="url(#clipPath15807)"
       id="g426">
      <g
         transform="translate(77.5,711)"
         id="g424">
        <path
           d="m0 0c7.456 0 13.5 6.044 13.5 13.5s-6.044 13.5-13.5 13.5-13.5-6.044-13.5-13.5 6.044-13.5 13.5-13.5z"
           fill="none"
           stroke="#fff"
           stroke-miterlimit="10"
           stroke-width="4"
           id="path422" />
      </g>
    </g>
  </g>
  <g
     transform="matrix(.35277 0 0 -.35277 252.67 252.3)"
     id="g436">
    <g
       clip-path="url(#clipPath16001)"
       id="g434">
      <g
         transform="translate(455.91,931.53)"
         id="g432">
        <path
           d="m0 0c-0.742-1.039-4.75-2.821-8.165-3.563-4.305-0.891-6.531-1.633-8.758-2.82-2.969-1.782-4.601-4.009-4.305-6.087 0.149-0.445 3.711-5.64 7.868-11.578 4.304-5.938 7.868-10.985 8.016-11.134 0.149-0.297-0.445-0.297-2.524-0.148-6.531 0.445-12.469-2.969-15.142-8.314-0.742-1.632-0.89-2.523-0.89-4.453 0-4.453 2.376-8.016 6.829-10.094 1.781-0.742 2.375-0.891 6.086-0.891 4.007 0 4.156 0 6.829 1.336 7.125 3.414 10.093 10.095 7.125 16.181-0.594 1.336-4.305 7.719-8.313 14.251l-7.274 12.024h1.187c4.75 0.297 8.017 1.781 10.244 4.305 1.929 2.227 2.523 4.453 2.374 8.016-0.148 3.266-0.445 4.008-1.187 2.969"
           fill="#fff"
           id="path430" />
      </g>
    </g>
  </g>
  <g
     transform="matrix(.35277 0 0 -.35277 252.67 252.3)"
     id="g444">
    <g
       clip-path="url(#clipPath16093)"
       id="g442">
      <g
         transform="translate(784,902.31)"
         id="g440">
        <path
           d="m0 0c0-1.565-0.904-2.931-2.251-3.674l-27.781-18.472c-0.012-8e-3 -0.026-0.014-0.037-0.02l-0.017-0.011c-0.684-0.376-1.48-0.592-2.331-0.592-2.53 0-4.583 1.913-4.583 4.269v37c0 2.356 2.053 4.27 4.583 4.27 0.851 0 1.647-0.217 2.331-0.596l0.017-8e-3c0.011-9e-3 0.022-0.014 0.037-0.02l27.781-18.471c1.347-0.743 2.251-2.11 2.251-3.675"
           fill="#fff"
           id="path438" />
      </g>
    </g>
  </g>
  <g
     transform="matrix(.35277 0 0 -.35277 252.67 252.3)"
     id="g452">
    <g
       clip-path="url(#clipPath16477)"
       id="g450">
      <g
         transform="translate(223.75,708.35)"
         id="g448">
        <path
           d="m0 0c-15.123 0-27.418 12.329-27.418 27.486 0 1.382 1.111 2.505 2.487 2.505 1.379 0 2.499-1.123 2.499-2.505 0-12.4 10.06-22.487 22.432-22.487 12.375 0 22.443 10.087 22.443 22.487 0 1.382 1.112 2.505 2.488 2.505 1.378 0 2.499-1.123 2.499-2.505 0-15.157-12.304-27.486-27.43-27.486"
           fill="#fff"
           fill-rule="evenodd"
           id="path446" />
      </g>
    </g>
  </g>
  <g
     transform="matrix(.35277 0 0 -.35277 252.67 252.3)"
     id="g460">
    <g
       clip-path="url(#clipPath16579)"
       id="g458">
      <g
         transform="translate(390.75,139.35)"
         id="g456">
        <path
           d="m0 0c-15.123 0-27.418 12.329-27.418 27.485 0 1.383 1.111 2.506 2.487 2.506 1.379 0 2.499-1.123 2.499-2.506 0-12.398 10.06-22.486 22.432-22.486 12.375 0 22.443 10.088 22.443 22.486 0 1.383 1.112 2.506 2.488 2.506 1.378 0 2.499-1.123 2.499-2.506 0-15.156-12.304-27.485-27.43-27.485"
           fill="#fff"
           fill-rule="evenodd"
           id="path454" />
      </g>
    </g>
  </g>
  <g
     transform="matrix(.35277 0 0 -.35277 252.67 252.3)"
     id="g468">
    <g
       clip-path="url(#clipPath16709)"
       id="g466">
      <g
         transform="translate(423.93,686.39)"
         id="g464">
        <path
           d="m0 0c0.245-0.286 0.605-0.456 0.986-0.456 0.382 0 0.743 0.17 0.988 0.456l17.516 20.497c0.333 0.388 0.408 0.933 0.191 1.388-0.211 0.463-0.674 0.756-1.184 0.756h-9.93c-2.118 4.172-3.109 8.382-2.973 12.63 0.135 4.248 1.954 12.361 5.455 24.34-10.956-6.59-17.656-18.44-17.656-31.225v-5.745h-9.93c-0.51 0-0.966-0.293-1.184-0.756-0.211-0.462-0.135-1 0.191-1.388z"
           fill="#fff"
           id="path462" />
      </g>
    </g>
  </g>
  <g
     transform="matrix(.35277 0 0 -.35277 217.5 293.5)"
     id="g476">
    <g
       clip-path="url(#clipPath24218)"
       id="g474">
      <g
         transform="translate(9.1685,1040.9)"
         id="g472">
        <path
           d="m0 0 25.314 21.067-26.077 18.651c5.846 7.671 15.079 12.622 25.468 12.622 17.673 0 32-14.327 32-32s-14.327-32-32-32c-9.948 0-18.836 4.539-24.705 11.66m27.349 31.812c2.835 0 5.132 2.297 5.132 5.132 0 2.834-2.297 5.132-5.132 5.132-2.834 0-5.132-2.298-5.132-5.132 0-2.835 2.298-5.132 5.132-5.132"
           fill="#fff"
           fill-rule="evenodd"
           id="path470" />
      </g>
    </g>
  </g>
  <g
     transform="matrix(.35277 0 0 -.35277 217.5 293.5)"
     id="g484">
    <g
       clip-path="url(#clipPath24382)"
       id="g482">
      <g
         transform="translate(194.25,1130.3)"
         id="g480">
        <path
           d="m0 0c20.173-11.579 43.841 2 51.309 14.862 7.467 12.861 5.032 31.138-10.468 37.638s-45.487 6.611-54.5-9-6.515-31.922 13.659-43.5"
           fill="#fff"
           fill-rule="evenodd"
           id="path478" />
      </g>
    </g>
  </g>
  <g
     transform="matrix(.35277 0 0 -.35277 217.5 293.5)"
     id="g492">
    <g
       clip-path="url(#clipPath24650)"
       id="g490">
      <g
         transform="translate(473.86,1057.5)"
         id="g488">
        <path
           d="m0 0c1.657 0 3 1.501 3 3.353s-1.343 3.353-3 3.353c-1.656 0-3-1.501-3-3.353s1.344-3.353 3-3.353"
           fill="#fff"
           fill-rule="evenodd"
           id="path486" />
      </g>
    </g>
  </g>
  <g
     transform="matrix(.35277 0 0 -.35277 217.5 293.5)"
     id="g500">
    <g
       clip-path="url(#clipPath24700)"
       id="g498">
      <g
         transform="translate(493,1069.8)"
         id="g496">
        <path
           d="m0 0c1.657 0 3 1.501 3 3.353s-1.343 3.353-3 3.353-3-1.501-3-3.353 1.343-3.353 3-3.353"
           fill="#fff"
           fill-rule="evenodd"
           id="path494" />
      </g>
    </g>
  </g>
  <g
     transform="matrix(.35277 0 0 -.35277 217.5 293.5)"
     id="g508">
    <g
       clip-path="url(#clipPath24750)"
       id="g506">
      <g
         transform="translate(510,1048.8)"
         id="g504">
        <path
           d="m0 0c1.657 0 3 1.501 3 3.353s-1.343 3.353-3 3.353-3-1.501-3-3.353 1.343-3.353 3-3.353"
           fill="#fff"
           fill-rule="evenodd"
           id="path502" />
      </g>
    </g>
  </g>
  <g
     transform="matrix(.35277 0 0 -.35277 217.5 293.5)"
     id="g516">
    <g
       clip-path="url(#clipPath24864)"
       id="g514">
      <g
         transform="translate(806.5,1072.2)"
         id="g512">
        <path
           d="m0 0c-3.667-14-9.5-21.833-17.5-23.5"
           fill="none"
           stroke="#fff"
           stroke-linecap="round"
           stroke-miterlimit="10"
           id="path510" />
      </g>
    </g>
  </g>
  <g
     transform="matrix(.35277 0 0 -.35277 217.5 293.5)"
     id="g524">
    <g
       clip-path="url(#clipPath24896)"
       id="g522">
      <g
         transform="translate(802,1066.2)"
         id="g520">
        <path
           d="m0 0c-4.971 0-9 4.029-9 9s4.029 9 9 9 9-4.029 9-9-4.029-9-9-9m0 6c1.657 0 3 1.343 3 3s-1.343 3-3 3-3-1.343-3-3 1.343-3 3-3"
           fill="#fff"
           fill-rule="evenodd"
           id="path518" />
      </g>
    </g>
  </g>
  <g
     transform="matrix(.35277 0 0 -.35277 217.5 293.5)"
     id="g532">
    <g
       clip-path="url(#clipPath25070)"
       id="g530">
      <g
         transform="translate(122,495.24)"
         id="g528">
        <path
           d="m0 0h3c0.553 0 1-0.447 1-1v-2c0-0.553-0.447-1-1-1h-3c-0.553 0-1 0.447-1 1v2c0 0.553 0.447 1 1 1"
           fill="#fff"
           fill-rule="evenodd"
           id="path526" />
      </g>
    </g>
  </g>
  <g
     transform="matrix(.35277 0 0 -.35277 217.5 293.5)"
     id="g540">
    <g
       clip-path="url(#clipPath25100)"
       id="g538">
      <g
         transform="translate(204,495.24)"
         id="g536">
        <path
           d="m0 0h3c0.553 0 1-0.447 1-1v-2c0-0.553-0.447-1-1-1h-3c-0.553 0-1 0.447-1 1v2c0 0.553 0.447 1 1 1"
           fill="#fff"
           fill-rule="evenodd"
           id="path534" />
      </g>
    </g>
  </g>
  <g
     transform="matrix(.35277 0 0 -.35277 217.5 293.5)"
     id="g548">
    <g
       clip-path="url(#clipPath25502)"
       id="g546">
      <g
         transform="translate(805,482.24)"
         id="g544">
        <path
           d="m0 0c4.418 0 8 3.582 8 8s-3.582 8-8 8-8-3.582-8-8 3.582-8 8-8"
           fill="#fff"
           fill-rule="evenodd"
           id="path542" />
      </g>
    </g>
  </g>
  <g
     transform="matrix(.35277 0 0 -.35277 217.5 293.5)"
     id="g556">
    <g
       clip-path="url(#clipPath25686)"
       id="g554">
      <g
         transform="translate(658,1075.7)"
         id="g552">
        <path
           d="m0 0c0-4.694 3.806-8.5 8.5-8.5s8.5 3.806 8.5 8.5-3.806 8.5-8.5 8.5-8.5-3.806-8.5-8.5"
           fill="#fff"
           id="path550" />
      </g>
    </g>
  </g>
  <g
     transform="matrix(.35277 0 0 -.35277 217.5 293.5)"
     id="g562">
    <g
       clip-path="url(#clipPath25788)"
       id="g560">
      <path
         d="m465.44 1082.2h85.864v-75.319h-85.864zm64.45-25.106c-0.483 0.765-1.453 0.947-2.178 0.431l-15.504-11.01c-0.359-0.255-0.847-0.153-1.071 0.238l-18.271 31.869c-0.438 0.771-1.139 0.776-1.549-0.016l-1.807-3.514-21.07-47.452c13.336-18.44 48.336-26.94 73.836-3.44 0.841 0 6.477 6.246 6 7z"
         fill="#fff"
         fill-rule="evenodd"
         id="path558" />
    </g>
  </g>
  <g
     transform="matrix(.35277 0 0 -.35277 217.5 293.5)"
     id="g570">
    <g
       clip-path="url(#clipPath26420)"
       id="g568">
      <g
         transform="translate(-23,837.24)"
         id="g566">
        <path
           d="m0 0c18.778 0 34 15.222 34 34s-15.222 34-34 34-34-15.222-34-34 15.222-34 34-34z"
           fill="none"
           stroke="#fff"
           stroke-miterlimit="10"
           stroke-width="8"
           id="path564" />
      </g>
    </g>
  </g>
  <g
     transform="matrix(.35277 0 0 -.35277 217.5 293.5)"
     id="g576">
    <g
       clip-path="url(#clipPath26860)"
       id="g574">
      <path
         d="m644 721.24h82v-82h-82zm41-81c22.092 0 40 17.908 40 40s-17.908 40-40 40-40-17.908-40-40 17.908-40 40-40"
         fill="#fff"
         fill-rule="evenodd"
         id="path572" />
    </g>
  </g>
  <g
     transform="matrix(.35277 0 0 -.35277 217.5 293.5)"
     id="g584">
    <g
       clip-path="url(#clipPath27506)"
       id="g582">
      <g
         transform="translate(613.88,476.03)"
         id="g580">
        <path
           d="m0 0c0.187-0.771 0.148-1.502-0.116-2.193-0.266-0.692-0.678-1.303-1.239-1.833-0.561-0.531-1.247-0.949-2.057-1.255-0.81-0.305-1.683-0.457-2.617-0.457-5.889-0.033-11.156-0.049-15.798-0.049h-15.891c-1.122 0-2.111 0.209-2.968 0.627s-1.543 0.932-2.056 1.543c-0.515 0.611-0.858 1.279-1.029 2.002s-0.148 1.375 0.071 1.953c0.186 0.451 0.373 0.917 0.56 1.398 0.157 0.418 0.343 0.893 0.561 1.424 0.219 0.53 0.452 1.069 0.701 1.615l1.776 4.438h5.329l-2.01-6.077h30.099l-2.009 6.077h5.094c0.655-1.64 1.246-3.119 1.777-4.438 0.218-0.578 0.435-1.14 0.654-1.687 0.218-0.547 0.412-1.037 0.584-1.472 0.171-0.433 0.312-0.804 0.421-1.109 0.108-0.306 0.163-0.474 0.163-0.507m-22.922 9.236c-0.601 0.698-1.289 1.571-2.064 2.618-0.776 1.046-1.575 2.125-2.398 3.235-0.822 1.11-1.637 2.204-2.443 3.283-0.808 1.079-1.527 2.015-2.16 2.808-0.728 0.856-1.013 1.562-0.855 2.117s0.696 0.832 1.614 0.832c0.506-0.031 1.187-0.024 2.041 0.024 0.855 0.048 1.567 0.072 2.136 0.072 0.633 0 1.029 0.19 1.187 0.57 0.158 0.381 0.237 0.889 0.237 1.523 0 0.698-8e-3 1.467-0.024 2.308s-0.024 1.705-0.024 2.593-8e-3 1.76-0.023 2.617c-0.016 0.856-0.024 1.65-0.024 2.379 0 0.318 0.024 0.65 0.071 1 0.047 0.348 0.158 0.666 0.333 0.951 0.173 0.285 0.426 0.523 0.758 0.714 0.332 0.19 0.784 0.285 1.353 0.285 0.665 0 1.274 9e-3 1.827 0.024 0.555 0.016 1.195 0.024 1.923 0.024 1.044 0 1.748-0.246 2.112-0.737 0.364-0.492 0.562-1.277 0.593-2.356v-1.855c0-0.73 8e-3 -1.507 0.023-2.331 0.017-0.826 0.025-1.651 0.025-2.475v-2.236c0-0.92 0.095-1.659 0.284-2.213 0.191-0.555 0.617-0.817 1.282-0.785 0.475 0 1.052-0.016 1.732-0.047 0.68-0.032 1.274-0.049 1.78-0.049 0.855 0 1.4-0.23 1.638-0.69 0.237-0.46 0.071-1.054-0.498-1.784-0.602-0.76-1.298-1.68-2.089-2.759-0.791-1.08-1.606-2.197-2.445-3.355-0.838-1.158-1.661-2.284-2.467-3.379-0.807-1.094-1.528-2.037-2.16-2.83-0.57-0.73-1.116-1.103-1.637-1.119-0.523-0.016-1.069 0.326-1.638 1.023"
           fill="#fff"
           id="path578" />
      </g>
    </g>
  </g>
  <g
     transform="matrix(.35277 0 0 -.35277 217.5 293.5)"
     id="g592">
    <g
       clip-path="url(#clipPath27772)"
       id="g590">
      <g
         transform="translate(588.67,331.24)"
         id="g588">
        <path
           d="m0 0h-49.301c-2.41 0-4.367-1.941-4.367-4.299v-49.402c0-2.393 1.957-4.299 4.367-4.299h49.301c2.41 0 4.332 1.941 4.332 4.299v49.367c0 2.393-1.957 4.334-4.332 4.334m-33.403-53.008h-8.839v6.795h8.839zm-8.91 24.58h8.84v-6.795h-8.84zm8.945-15.566h-8.84v6.795h8.84zm12.998-9.014h-8.84v6.795h8.84zm-8.91 24.58h8.84v-6.795h-8.84zm8.944-15.566h-8.839v6.795h8.839zm13.277-9.014h-8.84v6.795h8.84zm-8.909 24.58h8.84v-6.795h-8.84zm8.945-15.566h-8.84v6.795h8.84zm5.276 24.441c0-2.392-1.957-4.299-4.368-4.299h-37.77c-2.411-0.035-4.367 1.907-4.367 4.299v10.054c0 2.392 1.956 4.333 4.332 4.333h37.805c2.411 0 4.368-1.941 4.368-4.333z"
           fill="#fff"
           id="path586" />
      </g>
    </g>
  </g>
  <g
     transform="matrix(.35277 0 0 -.35277 217.5 293.5)"
     id="g600">
    <g
       clip-path="url(#clipPath27864)"
       id="g598">
      <g
         transform="translate(609.3,312.46)"
         id="g596">
        <path
           d="m0 0h-0.72c-0.206 0-0.377 0-0.514-0.212-0.103-0.142-0.103-0.283-0.103-0.46v-0.566c0-0.178 0-0.319 0.103-0.461 0.137-0.212 0.308-0.212 0.514-0.212h0.72c0.205 0 0.376 0 0.514 0.212 0.102 0.142 0.102 0.283 0.102 0.461v0.566c0 0.213 0 0.318-0.102 0.46-0.138 0.212-0.275 0.212-0.514 0.212m-5.003 4.779h-2.947c-0.548 0-0.993-0.46-0.993-1.026v-2.407h0.993v2.407h2.947v-2.407h0.993v2.407c0 0.566-0.445 1.026-0.993 1.026m0-6.973h-2.947v2.407h-0.993v-2.407c0-0.567 0.411-1.027 0.993-1.027h2.947c0.582 0 0.993 0.46 0.993 1.027v2.407h-0.993zm-14.357 0h-2.947v2.584h-0.994v-2.584c0-0.567 0.411-1.027 0.994-1.027h2.947c0.583 0 0.994 0.46 0.994 1.027v2.584h-0.994zm0 6.973h-2.947c-0.548 0-0.994-0.46-0.994-1.026v-2.231h0.994v2.231h2.947v-2.231h0.994v2.231c0 0.566-0.446 1.026-0.994 1.026m7.195 0h-2.946c-0.549 0-0.994-0.46-0.994-1.026v-2.231h0.994v2.231h2.946v-2.231h0.994v2.231c0 0.566-0.445 1.026-0.994 1.026m0-6.973h-2.946v2.584h-0.994v-2.584c0-0.567 0.445-1.027 0.994-1.027h2.946c0.583 0 0.994 0.46 0.994 1.027v2.584h-0.994zm18.675 6.973h-2.947c-0.548 0-0.994-0.46-0.994-1.026v-2.584h0.994v2.584h2.947v-2.584h0.994v2.584c0 0.566-0.445 1.026-0.994 1.026m0-6.973h-2.947v2.23h-0.994v-2.23c0-0.567 0.446-1.027 0.994-1.027h2.947c0.583 0 0.994 0.46 0.994 1.027v2.23h-0.994zm7.195 0h-2.946v2.053h-0.994v-2.053c0-0.567 0.411-1.027 0.994-1.027h2.946c0.583 0 0.994 0.46 0.994 1.027v2.053h-0.994zm0 6.973h-2.946c-0.548 0-0.994-0.46-0.994-1.026v-2.761h0.994v2.761h2.946v-2.761h0.994v2.761c0 0.566-0.479 1.026-0.994 1.026"
           fill="#fff"
           id="path594" />
      </g>
    </g>
  </g>
  <g
     transform="matrix(.35277 0 0 -.35277 217.5 293.5)"
     id="g608">
    <g
       clip-path="url(#clipPath28028)"
       id="g606">
      <g
         transform="translate(766.75,130.24)"
         id="g604">
        <path
           d="m0 0h-15.75v6.693c0 1.239-1.013 2.307-2.307 2.307h-13.386c-1.239 0-2.307-1.013-2.307-2.307v-6.693h-15.75c-1.237 0-2.25-1.013-2.25-2.25v-11.25l27-4.5 27 4.5v11.25c0 1.237-1.013 2.25-2.25 2.25m-29.25 4.5h9v-4.5h-9zm9-16.875c0-0.619-0.506-1.125-1.125-1.125h-6.75c-0.619 0-1.125 0.506-1.125 1.125v2.25c0 0.619 0.506 1.125 1.125 1.125h6.75c0.619 0 1.125-0.506 1.125-1.125zm-4.5-7.875 27 4.5v-27c0-1.237-1.013-2.25-2.25-2.25h-49.5c-1.237 0-2.25 1.013-2.25 2.25v27z"
           fill="#fff"
           id="path602" />
      </g>
    </g>
  </g>
  <g
     transform="matrix(.35277 0 0 -.35277 217.5 293.5)"
     id="g616">
    <g
       clip-path="url(#clipPath28200)"
       id="g614">
      <g
         transform="translate(392,82.24)"
         id="g612">
        <path
           d="M 0,0 -4.35,3.941 C -19.8,17.953 -30,27.2 -30,38.516 -30,47.762 -22.755,55 -13.5,55 -8.28,55 -3.27,52.572 0,48.75 3.27,52.572 8.28,55 13.5,55 22.755,55 30,47.762 30,38.516 30,27.2 19.8,17.953 4.35,3.941 Z"
           fill="#fff"
           id="path610" />
      </g>
    </g>
  </g>
  <g
     transform="matrix(.35277 0 0 -.35277 217.5 293.5)"
     id="g624">
    <g
       clip-path="url(#clipPath28364)"
       id="g622">
      <g
         transform="translate(542.77,113.24)"
         id="g620">
        <path
           d="m0 0c0 2.621 0.885 4.8 2.689 6.604s3.983 2.689 6.604 2.689c2.622 0 4.801-0.885 6.604-2.689 1.805-1.804 2.69-3.983 2.69-6.604s-0.885-4.834-2.69-6.639c-1.803-1.803-3.982-2.689-6.604-2.689-2.621 0-4.809 0.877-6.604 2.689-1.813 1.83-2.689 4.051-2.689 6.639m-13.141-6.06c0.545-1.94 1.363-3.846 2.35-5.617l-6.128-7.523 6.944-6.945 7.524 6.127c1.769-0.986 3.71-1.803 5.65-2.382l1.022-9.6h10.008l1.022 9.6c1.94 0.579 3.778 1.396 5.651 2.382l7.49-6.127 7.012 6.945-6.162 7.523c0.953 1.771 1.805 3.677 2.383 5.617l9.601 1.056v10.008l-9.601 1.021c-0.578 1.941-1.43 3.745-2.383 5.618l6.162 7.523-7.012 7.013-7.49-6.161c-1.907 0.953-3.711 1.803-5.651 2.382l-1.022 9.6h-10.008l-1.022-9.6c-2.008-0.579-3.88-1.429-5.65-2.382l-7.524 6.161-6.944-7.013 6.128-7.523c-0.953-1.873-1.771-3.677-2.35-5.618l-9.633-1.021v-10.008z"
           fill="#fff"
           id="path618" />
      </g>
    </g>
  </g>
  <g
     transform="matrix(.35277 0 0 -.35277 217.5 293.5)"
     id="g630">
    <g
       clip-path="url(#clipPath28984)"
       id="g628">
      <path
         d="m473 698.24h13v-13h-13zm6.5-12c3.037 0 5.5 2.463 5.5 5.5 0 3.038-2.463 5.5-5.5 5.5s-5.5-2.462-5.5-5.5c0-3.037 2.463-5.5 5.5-5.5"
         fill="#fff"
         fill-rule="evenodd"
         id="path626" />
    </g>
  </g>
  <g
     transform="matrix(.35277 0 0 -.35277 217.5 293.5)"
     id="g636">
    <g
       clip-path="url(#clipPath29012)"
       id="g634">
      <path
         d="m473 676.24h13v-13h-13zm6.5-12c3.037 0 5.5 2.463 5.5 5.5 0 3.038-2.463 5.5-5.5 5.5s-5.5-2.462-5.5-5.5c0-3.037 2.463-5.5 5.5-5.5"
         fill="#fff"
         fill-rule="evenodd"
         id="path632" />
    </g>
  </g>
  <g
     transform="matrix(.35277 0 0 -.35277 217.5 293.5)"
     id="g642">
    <g
       clip-path="url(#clipPath29040)"
       id="g640">
      <path
         d="m467 687.24h13v-13h-13zm6.5-12c3.037 0 5.5 2.463 5.5 5.5 0 3.038-2.463 5.5-5.5 5.5s-5.5-2.462-5.5-5.5c0-3.037 2.463-5.5 5.5-5.5"
         fill="#fff"
         fill-rule="evenodd"
         id="path638" />
    </g>
  </g>
  <g
     transform="matrix(.35277 0 0 -.35277 217.5 293.5)"
     id="g648">
    <g
       clip-path="url(#clipPath29068)"
       id="g646">
      <path
         d="m486 698.24h13v-13h-13zm6.5-12c3.037 0 5.5 2.463 5.5 5.5 0 3.038-2.463 5.5-5.5 5.5s-5.5-2.462-5.5-5.5c0-3.037 2.463-5.5 5.5-5.5"
         fill="#fff"
         fill-rule="evenodd"
         id="path644" />
    </g>
  </g>
  <g
     transform="matrix(.35277 0 0 -.35277 217.5 293.5)"
     id="g654">
    <g
       clip-path="url(#clipPath29096)"
       id="g652">
      <path
         d="m486 676.24h13v-13h-13zm6.5-12c3.037 0 5.5 2.463 5.5 5.5 0 3.038-2.463 5.5-5.5 5.5s-5.5-2.462-5.5-5.5c0-3.037 2.463-5.5 5.5-5.5"
         fill="#fff"
         fill-rule="evenodd"
         id="path650" />
    </g>
  </g>
  <g
     transform="matrix(.35277 0 0 -.35277 217.5 293.5)"
     id="g660">
    <g
       clip-path="url(#clipPath29124)"
       id="g658">
      <path
         d="m480 687.24h13v-13h-13zm6.5-12c3.037 0 5.5 2.463 5.5 5.5 0 3.038-2.463 5.5-5.5 5.5s-5.5-2.462-5.5-5.5c0-3.037 2.463-5.5 5.5-5.5"
         fill="#fff"
         fill-rule="evenodd"
         id="path656" />
    </g>
  </g>
  <g
     transform="matrix(.35277 0 0 -.35277 217.5 293.5)"
     id="g666">
    <g
       clip-path="url(#clipPath29152)"
       id="g664">
      <path
         d="m493 687.24h13v-13h-13zm6.5-12c3.037 0 5.5 2.463 5.5 5.5 0 3.038-2.463 5.5-5.5 5.5s-5.5-2.462-5.5-5.5c0-3.037 2.463-5.5 5.5-5.5"
         fill="#fff"
         fill-rule="evenodd"
         id="path662" />
    </g>
  </g>
  <g
     transform="matrix(.35277 0 0 -.35277 217.5 293.5)"
     id="g672">
    <g
       clip-path="url(#clipPath29252)"
       id="g670">
      <path
         d="m161 327.24h73v-28h-73zm14-5h45c4.971 0 9-4.029 9-9 0-4.97-4.029-9-9-9h-45c-4.971 0-9 4.03-9 9 0 4.971 4.029 9 9 9"
         fill="#fff"
         fill-rule="evenodd"
         id="path668" />
    </g>
  </g>
  <g
     transform="matrix(.35277 0 0 -.35277 217.5 293.5)"
     id="g678">
    <g
       clip-path="url(#clipPath29280)"
       id="g676">
      <path
         d="m162 302.24h73v-28h-73zm14-5h45c4.971 0 9-4.029 9-9 0-4.97-4.029-9-9-9h-45c-4.971 0-9 4.03-9 9 0 4.971 4.029 9 9 9"
         fill="#fff"
         fill-rule="evenodd"
         id="path674" />
    </g>
  </g>
  <g
     transform="matrix(.35277 0 0 -.35277 217.5 293.5)"
     id="g686">
    <g
       clip-path="url(#clipPath29400)"
       id="g684">
      <g
         transform="translate(104.49,129.57)"
         id="g682">
        <path
           d="m0 0c-4.298-0.338-8.165-0.637-11.604-0.898-1.458-0.113-2.906-0.225-4.344-0.336-1.44-0.114-2.747-0.207-3.924-0.282-1.178-0.074-2.168-0.149-2.972-0.224-0.803-0.074-1.28-0.113-1.428-0.113-0.188-0.037-0.403-0.065-0.645-0.084-0.244-0.018-0.459-0.065-0.645-0.139l-0.673-0.225-2.467 1.121c0.187 0.263 0.412 0.506 0.674 0.731 0.185 0.186 0.42 0.364 0.7 0.533 0.28 0.168 0.569 0.27 0.868 0.309 0.225 0.037 0.822 0.093 1.795 0.168 0.971 0.074 2.167 0.168 3.588 0.28 0 0.486 0.047 1.15 0.14 1.992 0.092 0.841 0.317 1.674 0.672 2.497 0.356 0.822 0.869 1.553 1.541 2.188 0.673 0.636 1.589 1.009 2.747 1.123 1.346 0.111 2.439-0.094 3.281-0.618 0.84-0.523 1.494-1.169 1.961-1.935 0.467-0.768 0.795-1.553 0.981-2.358 0.187-0.804 0.299-1.43 0.337-1.878 1.606 0.111 2.942 0.205 4.008 0.279 1.064 0.076 1.653 0.131 1.765 0.169 0.412 0.038 0.87-0.038 1.373-0.225 0.505-0.186 0.907-0.43 1.206-0.729 0.075-0.075 0.177-0.188 0.308-0.336 0.131-0.151 0.252-0.3 0.365-0.449 0.149-0.151 0.28-0.337 0.392-0.561m-15.528 6.676c-0.709-0.074-1.28-0.326-1.709-0.757-0.43-0.431-0.758-0.944-0.982-1.543-0.223-0.599-0.374-1.206-0.448-1.823-0.075-0.617-0.112-1.114-0.112-1.488 1.159 0.076 2.344 0.169 3.559 0.281s2.402 0.206 3.56 0.281c-0.037 0.336-0.121 0.804-0.252 1.402-0.131 0.599-0.346 1.178-0.645 1.74-0.299 0.561-0.691 1.028-1.176 1.403-0.487 0.373-1.084 0.542-1.795 0.504m21.919-41.24c0.186-1.047 0.159-1.917-0.084-2.61-0.244-0.691-0.925-1.168-2.046-1.43-0.374-0.113-1.187-0.299-2.439-0.562-1.252-0.262-2.747-0.579-4.485-0.953-1.737-0.374-3.597-0.777-5.577-1.207-1.982-0.43-3.878-0.832-5.691-1.205-1.812-0.375-3.437-0.711-4.877-1.011-1.438-0.3-2.457-0.505-3.054-0.617-1.383-0.3-2.402-0.206-3.055 0.28-0.654 0.486-0.982 1.217-0.982 2.189v34.452c0 0.934 0.197 1.691 0.589 2.271 0.393 0.58 0.962 0.889 1.709 0.926 0.299 0 0.664 0.02 1.094 0.057s0.85 0.074 1.261 0.112c0.485 0.037 0.991 0.075 1.514 0.112l0.504-8.023c-0.037-0.038-0.112-0.057-0.224-0.057-0.074 0-0.187-0.01-0.336-0.027-0.15-0.02-0.318-0.029-0.505-0.029-0.784-0.075-1.159-0.542-1.121-1.403 0.038-0.336 0.075-0.805 0.112-1.402 0.037-0.599 0.066-1.225 0.084-1.88 0.019-0.655 0.047-1.29 0.084-1.907s0.074-1.114 0.113-1.488c0.037-0.711 0.149-1.112 0.336-1.206 0.186-0.093 0.598-0.14 1.233-0.14h0.785c0.225 0 0.439 0.01 0.645 0.027 0.205 0.02 0.439 0.038 0.701 0.057 0.261 0.018 0.597 0.047 1.008 0.084 0.785 0.075 1.29 0.243 1.513 0.506 0.225 0.261 0.319 0.654 0.281 1.177 0 0.262-0.028 0.721-0.084 1.375-0.056 0.655-0.113 1.337-0.168 2.048-0.056 0.71-0.103 1.384-0.14 2.02-0.037 0.635-0.074 1.085-0.112 1.346-0.076 0.45-0.168 0.768-0.281 0.954-0.112 0.187-0.318 0.262-0.617 0.224-0.148 0-0.299-9e-3 -0.447-0.027-0.151-0.019-0.3-0.028-0.449-0.028h-0.449l-0.505 7.967c2.542 0.225 4.877 0.412 7.008 0.561 0.897 0.076 1.803 0.15 2.719 0.224 0.916 0.076 1.766 0.141 2.551 0.198 0.785 0.055 1.476 0.111 2.074 0.168 0.598 0.056 1.046 0.103 1.346 0.14 1.083 0.074 1.942-0.113 2.578-0.561 0.635-0.449 1.027-1.122 1.178-2.021 0.037-0.299 0.168-1.196 0.391-2.693 0.224-1.496 0.505-3.291 0.841-5.386s0.691-4.349 1.065-6.761c0.374-2.413 0.729-4.667 1.066-6.761 0.336-2.095 0.625-3.891 0.869-5.387 0.242-1.496 0.4-2.395 0.476-2.693m-35.261-4.881c0-0.525 0.028-0.983 0.084-1.375 0.057-0.393 0.122-0.701 0.197-0.926 0.074-0.299 0.168-0.524 0.279-0.674-0.933 0.486-1.831 0.973-2.69 1.459-0.747 0.412-1.495 0.832-2.242 1.263-0.747 0.43-1.383 0.795-1.906 1.094-0.972 0.561-1.635 1.235-1.99 2.02s-0.439 1.608-0.253 2.469c0.076 0.224 0.244 1.047 0.505 2.469 0.262 1.421 0.588 3.142 0.981 5.162 0.392 2.019 0.803 4.189 1.233 6.508 0.43 2.32 0.831 4.49 1.205 6.509 0.374 2.02 0.701 3.76 0.982 5.218 0.28 1.459 0.439 2.319 0.476 2.581 0.15 0.823 0.42 1.459 0.813 1.908 0.392 0.449 0.849 0.561 1.373 0.336 0.299-0.149 0.543-0.317 0.728-0.504 0.114-0.113 0.188-0.207 0.225-0.281z"
           fill="#fff"
           id="path680" />
      </g>
    </g>
  </g>
  <g
     transform="translate(.98123 .84787)"
     fill="#5e4aa6"
     stroke-width=".26458"
     id="g696">
    <circle
       cx="-330.35"
       cy="-328.38"
       r="0"
       id="circle688" />
    <circle
       cx="-312.11"
       cy="-326.25"
       r="0"
       id="circle690" />
    <circle
       cx="-306.02"
       cy="-333.07"
       r="0"
       id="circle692" />
    <circle
       cx="-308.84"
       cy="-326.01"
       r="0"
       id="circle694" />
  </g>
  <g
     transform="translate(15.471 22.074)"
     fill="#5e4aa6"
     stroke-width=".26458"
     id="g712">
    <g
       transform="translate(-21.833 .89722)"
       id="g706">
      <circle
         cx="-330.35"
         cy="-328.38"
         r="0"
         id="circle698" />
      <circle
         cx="-312.11"
         cy="-326.25"
         r="0"
         id="circle700" />
      <circle
         cx="-306.02"
         cy="-333.07"
         r="0"
         id="circle702" />
      <circle
         cx="-308.84"
         cy="-326.01"
         r="0"
         id="circle704" />
    </g>
    <circle
       cx="-284.23"
       cy="-330.42"
       r="0"
       id="circle708" />
    <circle
       cx="6.6786"
       cy="4.3998"
       r="0"
       fill-rule="evenodd"
       id="circle710" />
  </g>
  <g
     transform="matrix(.35277 0 0 -.35277 214.22 264.97)"
     id="g720">
    <g
       clip-path="url(#clipPath13429-6)"
       id="g718">
      <g
         transform="translate(448,326)"
         id="g716">
        <path
           d="m0 0c3.866 0 7 3.134 7 7s-3.134 7-7 7-7-3.134-7-7 3.134-7 7-7"
           fill="#fff"
           fill-rule="evenodd"
           id="path714" />
      </g>
    </g>
  </g>
  <g
     transform="matrix(.35277 0 0 -.35277 214.22 264.97)"
     id="g728">
    <g
       clip-path="url(#clipPath13465-0)"
       id="g726">
      <g
         transform="translate(474,326)"
         id="g724">
        <path
           d="m0 0c3.866 0 7 3.134 7 7s-3.134 7-7 7-7-3.134-7-7 3.134-7 7-7"
           fill="#fff"
           fill-rule="evenodd"
           id="path722" />
      </g>
    </g>
  </g>
  <g
     transform="matrix(.35277 0 0 -.35277 214.22 264.97)"
     id="g736">
    <g
       clip-path="url(#clipPath13501-6)"
       id="g734">
      <g
         transform="translate(497,326)"
         id="g732">
        <path
           d="m0 0c3.866 0 7 3.134 7 7s-3.134 7-7 7-7-3.134-7-7 3.134-7 7-7"
           fill="#fff"
           fill-rule="evenodd"
           id="path730" />
      </g>
    </g>
  </g>
  <g
     transform="matrix(.35277 0 0 -.35277 214.22 264.97)"
     id="g742">
    <g
       clip-path="url(#clipPath13753-2)"
       id="g740">
      <path
         d="m593 1073h36v-18h-36zm18-11c6.075 0 11 0.895 11 2s-4.925 2-11 2-11-0.895-11-2 4.925-2 11-2"
         fill="#fff"
         fill-rule="evenodd"
         id="path738" />
    </g>
  </g>
  <g
     transform="matrix(.35277 0 0 -.35277 214.22 264.97)"
     id="g750">
    <g
       clip-path="url(#clipPath13771-6)"
       id="g748">
      <g
         transform="translate(583.42,1063)"
         id="g746">
        <path
           d="m0 0s21.582 23.182 21.582 35.147c0 12.048-9.684 21.853-21.582 21.853-11.816 0-21.418-9.805-21.418-21.853 0-8.06 9.766-21.188 16.002-28.832zm0 42.542c3.938 0 7.14-3.323 7.14-7.395 0-3.822-3.202-7.146-7.14-7.146-3.856 0-7.222 3.324-7.222 7.146 0 4.072 3.366 7.395 7.222 7.395"
           fill="#fff"
           id="path744" />
      </g>
    </g>
  </g>
  <g
     transform="matrix(.35277 0 0 -.35277 214.22 264.97)"
     id="g758">
    <g
       clip-path="url(#clipPath14035-1)"
       id="g756">
      <g
         transform="translate(562,535)"
         id="g754">
        <path
           d="m0 0h35c2.762 0 5-2.238 5-5s-2.238-5-5-5h-35c-2.762 0-5 2.238-5 5s2.238 5 5 5"
           fill="#fff"
           fill-rule="evenodd"
           id="path752" />
      </g>
    </g>
  </g>
  <g
     transform="matrix(.35277 0 0 -.35277 214.22 264.97)"
     id="g766">
    <g
       clip-path="url(#clipPath14127-8)"
       id="g764">
      <g
         transform="translate(562,518)"
         id="g762">
        <path
           d="m0 0h35c2.762 0 5-2.238 5-5s-2.238-5-5-5h-35c-2.762 0-5 2.238-5 5s2.238 5 5 5"
           fill="#fff"
           fill-rule="evenodd"
           id="path760" />
      </g>
    </g>
  </g>
  <g
     transform="matrix(.35277 0 0 -.35277 214.22 264.97)"
     id="g774">
    <g
       clip-path="url(#clipPath14445-7)"
       id="g772">
      <g
         transform="translate(536.43,133.83)"
         id="g770">
        <path
           d="m0 0c-10.01-12.916-22.288-9.047-24.23-8.072-4.847 1.293-6.464 10.015-0.326 12.918 10.018 3.226 19.06-0.325 25.524-3.553-0.644-0.967-0.968-1.293-0.968-1.293m10.667 3.553c4.521 8.072 6.139 15.826 6.139 15.826h-15.189v5.812h17.767v2.26h-17.767v8.723h-8.074v-8.723h-16.156v-2.584h16.156v-5.812h-13.57v-2.585h27.783c0-0.325 0-0.325-0.324-0.968 0-2.909-1.936-6.779-3.554-10.014-20.677 8.079-26.491 3.235-28.108 2.584-13.564-9.689-0.968-21.963 1.293-21.638 14.538-3.227 23.905 2.91 30.369 10.657 0.324-0.325 0.967-0.325 1.292-0.325 4.528-2.578 25.848-12.592 25.848-12.592v12.274c-3.878 0.325-15.506 4.195-23.905 7.105"
           fill="#fff"
           id="path768" />
      </g>
    </g>
  </g>
  <g
     transform="matrix(.35277 0 0 -.35277 214.22 264.97)"
     id="g782">
    <g
       clip-path="url(#clipPath14609-9)"
       id="g780">
      <g
         transform="translate(720.03,1091.5)"
         id="g778">
        <path
           d="m0 0c-0.149 0.354-0.224 0.837-0.224 1.451 0 0.372 0.103 0.828 0.306 1.368 0.205 0.539 0.428 0.958 0.671 1.256-0.019 0.409 0.051 0.902 0.209 1.478 0.159 0.576 0.368 0.976 0.629 1.2 0 2.586 0.86 5.269 2.581 8.05 1.722 2.782 3.744 4.73 6.07 5.846 2.585 1.228 5.6 1.842 9.041 1.842 2.475 0 4.949-0.511 7.423-1.534 0.912-0.391 1.749-0.837 2.512-1.34 0.762-0.502 1.423-1.022 1.981-1.562 0.559-0.54 1.07-1.172 1.534-1.897 0.465-0.725 0.856-1.413 1.172-2.064 0.318-0.651 0.619-1.437 0.908-2.358 0.287-0.921 0.524-1.753 0.71-2.497s0.391-1.655 0.614-2.734l0.028-0.14c1.023-1.543 1.535-2.939 1.535-4.186 0-0.26-0.084-0.632-0.252-1.115-0.168-0.484-0.252-0.837-0.252-1.061 0-0.019 0.015-0.052 0.043-0.099s0.061-0.093 0.098-0.139c0.038-0.046 0.057-0.077 0.057-0.098 1.432-2.121 2.553-4.116 3.363-5.985 0.809-1.869 1.214-3.808 1.214-5.817 0-0.8-0.182-1.73-0.544-2.791-0.363-1.06-0.879-1.59-1.549-1.59-0.167 0-0.349 0.069-0.544 0.209-0.194 0.14-0.371 0.303-0.529 0.489-0.159 0.186-0.335 0.428-0.53 0.725s-0.344 0.543-0.447 0.739-0.228 0.438-0.377 0.725c-0.147 0.288-0.231 0.451-0.251 0.489-0.019 0.019-0.047 0.028-0.085 0.028l-0.138-0.111c-1.099-2.864-2.327-4.938-3.684-6.222 0.372-0.372 0.944-0.73 1.716-1.075s1.414-0.73 1.925-1.158c0.511-0.426 0.841-1.031 0.991-1.814-0.037-0.074-0.074-0.223-0.112-0.447-0.036-0.224-0.101-0.391-0.195-0.501-1.19-1.804-4-2.706-8.427-2.706-0.986 0-2.013 0.084-3.084 0.251-1.069 0.168-1.981 0.354-2.734 0.558s-1.726 0.483-2.916 0.837c-0.279 0.093-0.493 0.158-0.643 0.196-0.259 0.075-0.687 0.115-1.282 0.125-0.595 9e-3 -0.967 0.023-1.116 0.042-0.763-0.838-1.949-1.442-3.559-1.814-1.609-0.372-3.176-0.558-4.702-0.558-0.65 0-1.293 0.014-1.925 0.042s-1.498 0.113-2.595 0.252c-1.098 0.139-2.038 0.33-2.82 0.572-0.781 0.241-1.473 0.613-2.078 1.115-0.604 0.502-0.906 1.098-0.906 1.786 0 0.744 0.093 1.298 0.279 1.661 0.187 0.364 0.569 0.815 1.144 1.353 0.205 0.038 0.581 0.159 1.131 0.363 0.549 0.204 1.009 0.316 1.381 0.334 0.074 0 0.204 0.019 0.39 0.057 0.038 0.037 0.057 0.074 0.057 0.111l-0.057 0.084c-0.892 0.204-1.897 1.185-3.014 2.944-1.117 1.758-1.796 3.214-2.038 4.367l-0.139 0.084c-0.074 0-0.186-0.185-0.334-0.557-0.335-0.763-0.842-1.455-1.521-2.079-0.679-0.622-1.4-0.971-2.163-1.046h-0.028c-0.073 0-0.129 0.041-0.167 0.125-0.037 0.083-0.084 0.134-0.139 0.153-0.428 1.004-0.642 1.934-0.642 2.79 0 5.116 2.343 9.45 7.032 13.002z"
           fill="#fff"
           id="path776" />
      </g>
    </g>
  </g>
  <g
     transform="matrix(.35277 0 0 -.35277 214.22 264.97)"
     id="g790">
    <g
       clip-path="url(#clipPath15305-2)"
       id="g788">
      <g
         transform="translate(655,300)"
         id="g786">
        <path
           d="m0 0c16.568 0 30 13.432 30 30s-13.432 30-30 30-30-13.432-30-30 13.432-30 30-30z"
           fill="none"
           stroke="#fff"
           stroke-miterlimit="10"
           stroke-width="8"
           id="path784" />
      </g>
    </g>
  </g>
  <g
     transform="matrix(.35277 0 0 -.35277 214.22 264.97)"
     id="g798">
    <g
       clip-path="url(#clipPath15341-0)"
       id="g796">
      <g
         transform="translate(66.849,1083.1)"
         id="g794">
        <path
           d="m0 0c0 5.302-3.661 9.749-8.591 10.948-0.209 8.314-7.006 14.991-15.366 14.991-4.897 0-9.254-2.293-12.07-5.861-1.579 2.041-4.05 3.358-6.828 3.358-4.769 0-8.633-3.868-8.633-8.639 0-0.416 0.031-0.825 0.089-1.224-0.726 0.13-1.47 0.203-2.232 0.203-6.913 0-12.515-5.607-12.515-12.524 0-6.916 5.602-12.523 12.515-12.523h42.394c6.21 0.013 11.241 5.053 11.241 11.269z"
           fill="#fff"
           id="path792" />
      </g>
    </g>
  </g>
  <g
     transform="matrix(.35277 0 0 -.35277 214.22 264.97)"
     id="g806">
    <g
       clip-path="url(#clipPath15715-2)"
       id="g804">
      <g
         transform="translate(65.5,681)"
         id="g802">
        <path
           d="m0 0c9.113 0 16.5 7.387 16.5 16.5s-7.387 16.5-16.5 16.5-16.5-7.387-16.5-16.5 7.387-16.5 16.5-16.5z"
           fill="none"
           stroke="#fff"
           stroke-miterlimit="10"
           stroke-width="4"
           id="path800" />
      </g>
    </g>
  </g>
  <g
     transform="matrix(.35277 0 0 -.35277 214.22 264.97)"
     id="g814">
    <g
       clip-path="url(#clipPath15807-3)"
       id="g812">
      <g
         transform="translate(77.5,711)"
         id="g810">
        <path
           d="m0 0c7.456 0 13.5 6.044 13.5 13.5s-6.044 13.5-13.5 13.5-13.5-6.044-13.5-13.5 6.044-13.5 13.5-13.5z"
           fill="none"
           stroke="#fff"
           stroke-miterlimit="10"
           stroke-width="4"
           id="path808" />
      </g>
    </g>
  </g>
  <g
     transform="matrix(.35277 0 0 -.35277 214.22 264.97)"
     id="g822">
    <g
       clip-path="url(#clipPath16001-7)"
       id="g820">
      <g
         transform="translate(455.91,931.53)"
         id="g818">
        <path
           d="m0 0c-0.742-1.039-4.75-2.821-8.165-3.563-4.305-0.891-6.531-1.633-8.758-2.82-2.969-1.782-4.601-4.009-4.305-6.087 0.149-0.445 3.711-5.64 7.868-11.578 4.304-5.938 7.868-10.985 8.016-11.134 0.149-0.297-0.445-0.297-2.524-0.148-6.531 0.445-12.469-2.969-15.142-8.314-0.742-1.632-0.89-2.523-0.89-4.453 0-4.453 2.376-8.016 6.829-10.094 1.781-0.742 2.375-0.891 6.086-0.891 4.007 0 4.156 0 6.829 1.336 7.125 3.414 10.093 10.095 7.125 16.181-0.594 1.336-4.305 7.719-8.313 14.251l-7.274 12.024h1.187c4.75 0.297 8.017 1.781 10.244 4.305 1.929 2.227 2.523 4.453 2.374 8.016-0.148 3.266-0.445 4.008-1.187 2.969"
           fill="#fff"
           id="path816" />
      </g>
    </g>
  </g>
  <g
     transform="matrix(.35277 0 0 -.35277 214.22 264.97)"
     id="g830">
    <g
       clip-path="url(#clipPath16093-5)"
       id="g828">
      <g
         transform="translate(784,902.31)"
         id="g826">
        <path
           d="m0 0c0-1.565-0.904-2.931-2.251-3.674l-27.781-18.472c-0.012-8e-3 -0.026-0.014-0.037-0.02l-0.017-0.011c-0.684-0.376-1.48-0.592-2.331-0.592-2.53 0-4.583 1.913-4.583 4.269v37c0 2.356 2.053 4.27 4.583 4.27 0.851 0 1.647-0.217 2.331-0.596l0.017-8e-3c0.011-9e-3 0.022-0.014 0.037-0.02l27.781-18.471c1.347-0.743 2.251-2.11 2.251-3.675"
           fill="#fff"
           id="path824" />
      </g>
    </g>
  </g>
  <g
     transform="matrix(.35277 0 0 -.35277 214.22 264.97)"
     id="g838">
    <g
       clip-path="url(#clipPath16477-9)"
       id="g836">
      <g
         transform="translate(223.75,708.35)"
         id="g834">
        <path
           d="m0 0c-15.123 0-27.418 12.329-27.418 27.486 0 1.382 1.111 2.505 2.487 2.505 1.379 0 2.499-1.123 2.499-2.505 0-12.4 10.06-22.487 22.432-22.487 12.375 0 22.443 10.087 22.443 22.487 0 1.382 1.112 2.505 2.488 2.505 1.378 0 2.499-1.123 2.499-2.505 0-15.157-12.304-27.486-27.43-27.486"
           fill="#fff"
           fill-rule="evenodd"
           id="path832" />
      </g>
    </g>
  </g>
  <g
     transform="matrix(.35277 0 0 -.35277 214.22 264.97)"
     id="g846">
    <g
       clip-path="url(#clipPath16579-2)"
       id="g844">
      <g
         transform="translate(390.75,139.35)"
         id="g842">
        <path
           d="m0 0c-15.123 0-27.418 12.329-27.418 27.485 0 1.383 1.111 2.506 2.487 2.506 1.379 0 2.499-1.123 2.499-2.506 0-12.398 10.06-22.486 22.432-22.486 12.375 0 22.443 10.088 22.443 22.486 0 1.383 1.112 2.506 2.488 2.506 1.378 0 2.499-1.123 2.499-2.506 0-15.156-12.304-27.485-27.43-27.485"
           fill="#fff"
           fill-rule="evenodd"
           id="path840" />
      </g>
    </g>
  </g>
  <g
     transform="matrix(.35277 0 0 -.35277 214.22 264.97)"
     id="g854">
    <g
       clip-path="url(#clipPath16709-2)"
       id="g852">
      <g
         transform="translate(423.93,686.39)"
         id="g850">
        <path
           d="m0 0c0.245-0.286 0.605-0.456 0.986-0.456 0.382 0 0.743 0.17 0.988 0.456l17.516 20.497c0.333 0.388 0.408 0.933 0.191 1.388-0.211 0.463-0.674 0.756-1.184 0.756h-9.93c-2.118 4.172-3.109 8.382-2.973 12.63 0.135 4.248 1.954 12.361 5.455 24.34-10.956-6.59-17.656-18.44-17.656-31.225v-5.745h-9.93c-0.51 0-0.966-0.293-1.184-0.756-0.211-0.462-0.135-1 0.191-1.388z"
           fill="#fff"
           id="path848" />
      </g>
    </g>
  </g>
  <g
     transform="matrix(.35277 0 0 -.35277 179.05 306.17)"
     id="g862">
    <g
       clip-path="url(#clipPath24218-8)"
       id="g860">
      <g
         transform="translate(9.1685,1040.9)"
         id="g858">
        <path
           d="m0 0 25.314 21.067-26.077 18.651c5.846 7.671 15.079 12.622 25.468 12.622 17.673 0 32-14.327 32-32s-14.327-32-32-32c-9.948 0-18.836 4.539-24.705 11.66m27.349 31.812c2.835 0 5.132 2.297 5.132 5.132 0 2.834-2.297 5.132-5.132 5.132-2.834 0-5.132-2.298-5.132-5.132 0-2.835 2.298-5.132 5.132-5.132"
           fill="#fff"
           fill-rule="evenodd"
           id="path856" />
      </g>
    </g>
  </g>
  <g
     transform="matrix(.35277 0 0 -.35277 179.05 306.17)"
     id="g870">
    <g
       clip-path="url(#clipPath24382-9)"
       id="g868">
      <g
         transform="translate(194.25,1130.3)"
         id="g866">
        <path
           d="m0 0c20.173-11.579 43.841 2 51.309 14.862 7.467 12.861 5.032 31.138-10.468 37.638s-45.487 6.611-54.5-9-6.515-31.922 13.659-43.5"
           fill="#fff"
           fill-rule="evenodd"
           id="path864" />
      </g>
    </g>
  </g>
  <g
     transform="matrix(.35277 0 0 -.35277 179.05 306.17)"
     id="g878">
    <g
       clip-path="url(#clipPath24650-7)"
       id="g876">
      <g
         transform="translate(473.86,1057.5)"
         id="g874">
        <path
           d="m0 0c1.657 0 3 1.501 3 3.353s-1.343 3.353-3 3.353c-1.656 0-3-1.501-3-3.353s1.344-3.353 3-3.353"
           fill="#fff"
           fill-rule="evenodd"
           id="path872" />
      </g>
    </g>
  </g>
  <g
     transform="matrix(.35277 0 0 -.35277 179.05 306.17)"
     id="g886">
    <g
       clip-path="url(#clipPath24700-3)"
       id="g884">
      <g
         transform="translate(493,1069.8)"
         id="g882">
        <path
           d="m0 0c1.657 0 3 1.501 3 3.353s-1.343 3.353-3 3.353-3-1.501-3-3.353 1.343-3.353 3-3.353"
           fill="#fff"
           fill-rule="evenodd"
           id="path880" />
      </g>
    </g>
  </g>
  <g
     transform="matrix(.35277 0 0 -.35277 179.05 306.17)"
     id="g894">
    <g
       clip-path="url(#clipPath24750-6)"
       id="g892">
      <g
         transform="translate(510,1048.8)"
         id="g890">
        <path
           d="m0 0c1.657 0 3 1.501 3 3.353s-1.343 3.353-3 3.353-3-1.501-3-3.353 1.343-3.353 3-3.353"
           fill="#fff"
           fill-rule="evenodd"
           id="path888" />
      </g>
    </g>
  </g>
  <g
     transform="matrix(.35277 0 0 -.35277 179.05 306.17)"
     id="g902">
    <g
       clip-path="url(#clipPath24864-1)"
       id="g900">
      <g
         transform="translate(806.5,1072.2)"
         id="g898">
        <path
           d="m0 0c-3.667-14-9.5-21.833-17.5-23.5"
           fill="none"
           stroke="#fff"
           stroke-linecap="round"
           stroke-miterlimit="10"
           id="path896" />
      </g>
    </g>
  </g>
  <g
     transform="matrix(.35277 0 0 -.35277 179.05 306.17)"
     id="g910">
    <g
       clip-path="url(#clipPath24896-2)"
       id="g908">
      <g
         transform="translate(802,1066.2)"
         id="g906">
        <path
           d="m0 0c-4.971 0-9 4.029-9 9s4.029 9 9 9 9-4.029 9-9-4.029-9-9-9m0 6c1.657 0 3 1.343 3 3s-1.343 3-3 3-3-1.343-3-3 1.343-3 3-3"
           fill="#fff"
           fill-rule="evenodd"
           id="path904" />
      </g>
    </g>
  </g>
  <g
     transform="matrix(.35277 0 0 -.35277 179.05 306.17)"
     id="g918">
    <g
       clip-path="url(#clipPath25070-9)"
       id="g916">
      <g
         transform="translate(122,495.24)"
         id="g914">
        <path
           d="m0 0h3c0.553 0 1-0.447 1-1v-2c0-0.553-0.447-1-1-1h-3c-0.553 0-1 0.447-1 1v2c0 0.553 0.447 1 1 1"
           fill="#fff"
           fill-rule="evenodd"
           id="path912" />
      </g>
    </g>
  </g>
  <g
     transform="matrix(.35277 0 0 -.35277 179.05 306.17)"
     id="g926">
    <g
       clip-path="url(#clipPath25100-3)"
       id="g924">
      <g
         transform="translate(204,495.24)"
         id="g922">
        <path
           d="m0 0h3c0.553 0 1-0.447 1-1v-2c0-0.553-0.447-1-1-1h-3c-0.553 0-1 0.447-1 1v2c0 0.553 0.447 1 1 1"
           fill="#fff"
           fill-rule="evenodd"
           id="path920" />
      </g>
    </g>
  </g>
  <g
     transform="matrix(.35277 0 0 -.35277 179.05 306.17)"
     id="g934">
    <g
       clip-path="url(#clipPath25502-1)"
       id="g932">
      <g
         transform="translate(805,482.24)"
         id="g930">
        <path
           d="m0 0c4.418 0 8 3.582 8 8s-3.582 8-8 8-8-3.582-8-8 3.582-8 8-8"
           fill="#fff"
           fill-rule="evenodd"
           id="path928" />
      </g>
    </g>
  </g>
  <g
     transform="matrix(.35277 0 0 -.35277 179.05 306.17)"
     id="g942">
    <g
       clip-path="url(#clipPath25686-9)"
       id="g940">
      <g
         transform="translate(658,1075.7)"
         id="g938">
        <path
           d="m0 0c0-4.694 3.806-8.5 8.5-8.5s8.5 3.806 8.5 8.5-3.806 8.5-8.5 8.5-8.5-3.806-8.5-8.5"
           fill="#fff"
           id="path936" />
      </g>
    </g>
  </g>
  <g
     transform="matrix(.35277 0 0 -.35277 179.05 306.17)"
     id="g948">
    <g
       clip-path="url(#clipPath25788-4)"
       id="g946">
      <path
         d="m465.44 1082.2h85.864v-75.319h-85.864zm64.45-25.106c-0.483 0.765-1.453 0.947-2.178 0.431l-15.504-11.01c-0.359-0.255-0.847-0.153-1.071 0.238l-18.271 31.869c-0.438 0.771-1.139 0.776-1.549-0.016l-1.807-3.514-21.07-47.452c13.336-18.44 48.336-26.94 73.836-3.44 0.841 0 6.477 6.246 6 7z"
         fill="#fff"
         fill-rule="evenodd"
         id="path944" />
    </g>
  </g>
  <g
     transform="matrix(.35277 0 0 -.35277 179.05 306.17)"
     id="g956">
    <g
       clip-path="url(#clipPath26420-7)"
       id="g954">
      <g
         transform="translate(-23,837.24)"
         id="g952">
        <path
           d="m0 0c18.778 0 34 15.222 34 34s-15.222 34-34 34-34-15.222-34-34 15.222-34 34-34z"
           fill="none"
           stroke="#fff"
           stroke-miterlimit="10"
           stroke-width="8"
           id="path950" />
      </g>
    </g>
  </g>
  <g
     transform="matrix(.35277 0 0 -.35277 179.05 306.17)"
     id="g962">
    <g
       clip-path="url(#clipPath26860-8)"
       id="g960">
      <path
         d="m644 721.24h82v-82h-82zm41-81c22.092 0 40 17.908 40 40s-17.908 40-40 40-40-17.908-40-40 17.908-40 40-40"
         fill="#fff"
         fill-rule="evenodd"
         id="path958" />
    </g>
  </g>
  <g
     transform="matrix(.35277 0 0 -.35277 179.05 306.17)"
     id="g970">
    <g
       clip-path="url(#clipPath27506-4)"
       id="g968">
      <g
         transform="translate(613.88,476.03)"
         id="g966">
        <path
           d="m0 0c0.187-0.771 0.148-1.502-0.116-2.193-0.266-0.692-0.678-1.303-1.239-1.833-0.561-0.531-1.247-0.949-2.057-1.255-0.81-0.305-1.683-0.457-2.617-0.457-5.889-0.033-11.156-0.049-15.798-0.049h-15.891c-1.122 0-2.111 0.209-2.968 0.627s-1.543 0.932-2.056 1.543c-0.515 0.611-0.858 1.279-1.029 2.002s-0.148 1.375 0.071 1.953c0.186 0.451 0.373 0.917 0.56 1.398 0.157 0.418 0.343 0.893 0.561 1.424 0.219 0.53 0.452 1.069 0.701 1.615l1.776 4.438h5.329l-2.01-6.077h30.099l-2.009 6.077h5.094c0.655-1.64 1.246-3.119 1.777-4.438 0.218-0.578 0.435-1.14 0.654-1.687 0.218-0.547 0.412-1.037 0.584-1.472 0.171-0.433 0.312-0.804 0.421-1.109 0.108-0.306 0.163-0.474 0.163-0.507m-22.922 9.236c-0.601 0.698-1.289 1.571-2.064 2.618-0.776 1.046-1.575 2.125-2.398 3.235-0.822 1.11-1.637 2.204-2.443 3.283-0.808 1.079-1.527 2.015-2.16 2.808-0.728 0.856-1.013 1.562-0.855 2.117s0.696 0.832 1.614 0.832c0.506-0.031 1.187-0.024 2.041 0.024 0.855 0.048 1.567 0.072 2.136 0.072 0.633 0 1.029 0.19 1.187 0.57 0.158 0.381 0.237 0.889 0.237 1.523 0 0.698-8e-3 1.467-0.024 2.308s-0.024 1.705-0.024 2.593-8e-3 1.76-0.023 2.617c-0.016 0.856-0.024 1.65-0.024 2.379 0 0.318 0.024 0.65 0.071 1 0.047 0.348 0.158 0.666 0.333 0.951 0.173 0.285 0.426 0.523 0.758 0.714 0.332 0.19 0.784 0.285 1.353 0.285 0.665 0 1.274 9e-3 1.827 0.024 0.555 0.016 1.195 0.024 1.923 0.024 1.044 0 1.748-0.246 2.112-0.737 0.364-0.492 0.562-1.277 0.593-2.356v-1.855c0-0.73 8e-3 -1.507 0.023-2.331 0.017-0.826 0.025-1.651 0.025-2.475v-2.236c0-0.92 0.095-1.659 0.284-2.213 0.191-0.555 0.617-0.817 1.282-0.785 0.475 0 1.052-0.016 1.732-0.047 0.68-0.032 1.274-0.049 1.78-0.049 0.855 0 1.4-0.23 1.638-0.69 0.237-0.46 0.071-1.054-0.498-1.784-0.602-0.76-1.298-1.68-2.089-2.759-0.791-1.08-1.606-2.197-2.445-3.355-0.838-1.158-1.661-2.284-2.467-3.379-0.807-1.094-1.528-2.037-2.16-2.83-0.57-0.73-1.116-1.103-1.637-1.119-0.523-0.016-1.069 0.326-1.638 1.023"
           fill="#fff"
           id="path964" />
      </g>
    </g>
  </g>
  <g
     transform="matrix(.35277 0 0 -.35277 179.05 306.17)"
     id="g978">
    <g
       clip-path="url(#clipPath27772-5)"
       id="g976">
      <g
         transform="translate(588.67,331.24)"
         id="g974">
        <path
           d="m0 0h-49.301c-2.41 0-4.367-1.941-4.367-4.299v-49.402c0-2.393 1.957-4.299 4.367-4.299h49.301c2.41 0 4.332 1.941 4.332 4.299v49.367c0 2.393-1.957 4.334-4.332 4.334m-33.403-53.008h-8.839v6.795h8.839zm-8.91 24.58h8.84v-6.795h-8.84zm8.945-15.566h-8.84v6.795h8.84zm12.998-9.014h-8.84v6.795h8.84zm-8.91 24.58h8.84v-6.795h-8.84zm8.944-15.566h-8.839v6.795h8.839zm13.277-9.014h-8.84v6.795h8.84zm-8.909 24.58h8.84v-6.795h-8.84zm8.945-15.566h-8.84v6.795h8.84zm5.276 24.441c0-2.392-1.957-4.299-4.368-4.299h-37.77c-2.411-0.035-4.367 1.907-4.367 4.299v10.054c0 2.392 1.956 4.333 4.332 4.333h37.805c2.411 0 4.368-1.941 4.368-4.333z"
           fill="#fff"
           id="path972" />
      </g>
    </g>
  </g>
  <g
     transform="matrix(.35277 0 0 -.35277 179.05 306.17)"
     id="g986">
    <g
       clip-path="url(#clipPath27864-0)"
       id="g984">
      <g
         transform="translate(609.3,312.46)"
         id="g982">
        <path
           d="m0 0h-0.72c-0.206 0-0.377 0-0.514-0.212-0.103-0.142-0.103-0.283-0.103-0.46v-0.566c0-0.178 0-0.319 0.103-0.461 0.137-0.212 0.308-0.212 0.514-0.212h0.72c0.205 0 0.376 0 0.514 0.212 0.102 0.142 0.102 0.283 0.102 0.461v0.566c0 0.213 0 0.318-0.102 0.46-0.138 0.212-0.275 0.212-0.514 0.212m-5.003 4.779h-2.947c-0.548 0-0.993-0.46-0.993-1.026v-2.407h0.993v2.407h2.947v-2.407h0.993v2.407c0 0.566-0.445 1.026-0.993 1.026m0-6.973h-2.947v2.407h-0.993v-2.407c0-0.567 0.411-1.027 0.993-1.027h2.947c0.582 0 0.993 0.46 0.993 1.027v2.407h-0.993zm-14.357 0h-2.947v2.584h-0.994v-2.584c0-0.567 0.411-1.027 0.994-1.027h2.947c0.583 0 0.994 0.46 0.994 1.027v2.584h-0.994zm0 6.973h-2.947c-0.548 0-0.994-0.46-0.994-1.026v-2.231h0.994v2.231h2.947v-2.231h0.994v2.231c0 0.566-0.446 1.026-0.994 1.026m7.195 0h-2.946c-0.549 0-0.994-0.46-0.994-1.026v-2.231h0.994v2.231h2.946v-2.231h0.994v2.231c0 0.566-0.445 1.026-0.994 1.026m0-6.973h-2.946v2.584h-0.994v-2.584c0-0.567 0.445-1.027 0.994-1.027h2.946c0.583 0 0.994 0.46 0.994 1.027v2.584h-0.994zm18.675 6.973h-2.947c-0.548 0-0.994-0.46-0.994-1.026v-2.584h0.994v2.584h2.947v-2.584h0.994v2.584c0 0.566-0.445 1.026-0.994 1.026m0-6.973h-2.947v2.23h-0.994v-2.23c0-0.567 0.446-1.027 0.994-1.027h2.947c0.583 0 0.994 0.46 0.994 1.027v2.23h-0.994zm7.195 0h-2.946v2.053h-0.994v-2.053c0-0.567 0.411-1.027 0.994-1.027h2.946c0.583 0 0.994 0.46 0.994 1.027v2.053h-0.994zm0 6.973h-2.946c-0.548 0-0.994-0.46-0.994-1.026v-2.761h0.994v2.761h2.946v-2.761h0.994v2.761c0 0.566-0.479 1.026-0.994 1.026"
           fill="#fff"
           id="path980" />
      </g>
    </g>
  </g>
  <g
     transform="matrix(.35277 0 0 -.35277 179.05 306.17)"
     id="g994">
    <g
       clip-path="url(#clipPath28028-3)"
       id="g992">
      <g
         transform="translate(766.75,130.24)"
         id="g990">
        <path
           d="m0 0h-15.75v6.693c0 1.239-1.013 2.307-2.307 2.307h-13.386c-1.239 0-2.307-1.013-2.307-2.307v-6.693h-15.75c-1.237 0-2.25-1.013-2.25-2.25v-11.25l27-4.5 27 4.5v11.25c0 1.237-1.013 2.25-2.25 2.25m-29.25 4.5h9v-4.5h-9zm9-16.875c0-0.619-0.506-1.125-1.125-1.125h-6.75c-0.619 0-1.125 0.506-1.125 1.125v2.25c0 0.619 0.506 1.125 1.125 1.125h6.75c0.619 0 1.125-0.506 1.125-1.125zm-4.5-7.875 27 4.5v-27c0-1.237-1.013-2.25-2.25-2.25h-49.5c-1.237 0-2.25 1.013-2.25 2.25v27z"
           fill="#fff"
           id="path988" />
      </g>
    </g>
  </g>
  <g
     transform="matrix(.35277 0 0 -.35277 179.05 306.17)"
     id="g1002">
    <g
       clip-path="url(#clipPath28200-6)"
       id="g1000">
      <g
         transform="translate(392,82.24)"
         id="g998">
        <path
           d="M 0,0 -4.35,3.941 C -19.8,17.953 -30,27.2 -30,38.516 -30,47.762 -22.755,55 -13.5,55 -8.28,55 -3.27,52.572 0,48.75 3.27,52.572 8.28,55 13.5,55 22.755,55 30,47.762 30,38.516 30,27.2 19.8,17.953 4.35,3.941 Z"
           fill="#fff"
           id="path996" />
      </g>
    </g>
  </g>
  <g
     transform="matrix(.35277 0 0 -.35277 179.05 306.17)"
     id="g1010">
    <g
       clip-path="url(#clipPath28364-1)"
       id="g1008">
      <g
         transform="translate(542.77,113.24)"
         id="g1006">
        <path
           d="m0 0c0 2.621 0.885 4.8 2.689 6.604s3.983 2.689 6.604 2.689c2.622 0 4.801-0.885 6.604-2.689 1.805-1.804 2.69-3.983 2.69-6.604s-0.885-4.834-2.69-6.639c-1.803-1.803-3.982-2.689-6.604-2.689-2.621 0-4.809 0.877-6.604 2.689-1.813 1.83-2.689 4.051-2.689 6.639m-13.141-6.06c0.545-1.94 1.363-3.846 2.35-5.617l-6.128-7.523 6.944-6.945 7.524 6.127c1.769-0.986 3.71-1.803 5.65-2.382l1.022-9.6h10.008l1.022 9.6c1.94 0.579 3.778 1.396 5.651 2.382l7.49-6.127 7.012 6.945-6.162 7.523c0.953 1.771 1.805 3.677 2.383 5.617l9.601 1.056v10.008l-9.601 1.021c-0.578 1.941-1.43 3.745-2.383 5.618l6.162 7.523-7.012 7.013-7.49-6.161c-1.907 0.953-3.711 1.803-5.651 2.382l-1.022 9.6h-10.008l-1.022-9.6c-2.008-0.579-3.88-1.429-5.65-2.382l-7.524 6.161-6.944-7.013 6.128-7.523c-0.953-1.873-1.771-3.677-2.35-5.618l-9.633-1.021v-10.008z"
           fill="#fff"
           id="path1004" />
      </g>
    </g>
  </g>
  <g
     transform="matrix(.35277 0 0 -.35277 179.05 306.17)"
     id="g1016">
    <g
       clip-path="url(#clipPath28984-0)"
       id="g1014">
      <path
         d="m473 698.24h13v-13h-13zm6.5-12c3.037 0 5.5 2.463 5.5 5.5 0 3.038-2.463 5.5-5.5 5.5s-5.5-2.462-5.5-5.5c0-3.037 2.463-5.5 5.5-5.5"
         fill="#fff"
         fill-rule="evenodd"
         id="path1012" />
    </g>
  </g>
  <g
     transform="matrix(.35277 0 0 -.35277 179.05 306.17)"
     id="g1022">
    <g
       clip-path="url(#clipPath29012-6)"
       id="g1020">
      <path
         d="m473 676.24h13v-13h-13zm6.5-12c3.037 0 5.5 2.463 5.5 5.5 0 3.038-2.463 5.5-5.5 5.5s-5.5-2.462-5.5-5.5c0-3.037 2.463-5.5 5.5-5.5"
         fill="#fff"
         fill-rule="evenodd"
         id="path1018" />
    </g>
  </g>
  <g
     transform="matrix(.35277 0 0 -.35277 179.05 306.17)"
     id="g1028">
    <g
       clip-path="url(#clipPath29040-3)"
       id="g1026">
      <path
         d="m467 687.24h13v-13h-13zm6.5-12c3.037 0 5.5 2.463 5.5 5.5 0 3.038-2.463 5.5-5.5 5.5s-5.5-2.462-5.5-5.5c0-3.037 2.463-5.5 5.5-5.5"
         fill="#fff"
         fill-rule="evenodd"
         id="path1024" />
    </g>
  </g>
  <g
     transform="matrix(.35277 0 0 -.35277 179.05 306.17)"
     id="g1034">
    <g
       clip-path="url(#clipPath29068-2)"
       id="g1032">
      <path
         d="m486 698.24h13v-13h-13zm6.5-12c3.037 0 5.5 2.463 5.5 5.5 0 3.038-2.463 5.5-5.5 5.5s-5.5-2.462-5.5-5.5c0-3.037 2.463-5.5 5.5-5.5"
         fill="#fff"
         fill-rule="evenodd"
         id="path1030" />
    </g>
  </g>
  <g
     transform="matrix(.35277 0 0 -.35277 179.05 306.17)"
     id="g1040">
    <g
       clip-path="url(#clipPath29096-0)"
       id="g1038">
      <path
         d="m486 676.24h13v-13h-13zm6.5-12c3.037 0 5.5 2.463 5.5 5.5 0 3.038-2.463 5.5-5.5 5.5s-5.5-2.462-5.5-5.5c0-3.037 2.463-5.5 5.5-5.5"
         fill="#fff"
         fill-rule="evenodd"
         id="path1036" />
    </g>
  </g>
  <g
     transform="matrix(.35277 0 0 -.35277 179.05 306.17)"
     id="g1046">
    <g
       clip-path="url(#clipPath29124-6)"
       id="g1044">
      <path
         d="m480 687.24h13v-13h-13zm6.5-12c3.037 0 5.5 2.463 5.5 5.5 0 3.038-2.463 5.5-5.5 5.5s-5.5-2.462-5.5-5.5c0-3.037 2.463-5.5 5.5-5.5"
         fill="#fff"
         fill-rule="evenodd"
         id="path1042" />
    </g>
  </g>
  <g
     transform="matrix(.35277 0 0 -.35277 179.05 306.17)"
     id="g1052">
    <g
       clip-path="url(#clipPath29152-1)"
       id="g1050">
      <path
         d="m493 687.24h13v-13h-13zm6.5-12c3.037 0 5.5 2.463 5.5 5.5 0 3.038-2.463 5.5-5.5 5.5s-5.5-2.462-5.5-5.5c0-3.037 2.463-5.5 5.5-5.5"
         fill="#fff"
         fill-rule="evenodd"
         id="path1048" />
    </g>
  </g>
  <g
     transform="matrix(.35277 0 0 -.35277 179.05 306.17)"
     id="g1058">
    <g
       clip-path="url(#clipPath29252-5)"
       id="g1056">
      <path
         d="m161 327.24h73v-28h-73zm14-5h45c4.971 0 9-4.029 9-9 0-4.97-4.029-9-9-9h-45c-4.971 0-9 4.03-9 9 0 4.971 4.029 9 9 9"
         fill="#fff"
         fill-rule="evenodd"
         id="path1054" />
    </g>
  </g>
  <g
     transform="matrix(.35277 0 0 -.35277 179.05 306.17)"
     id="g1064">
    <g
       clip-path="url(#clipPath29280-5)"
       id="g1062">
      <path
         d="m162 302.24h73v-28h-73zm14-5h45c4.971 0 9-4.029 9-9 0-4.97-4.029-9-9-9h-45c-4.971 0-9 4.03-9 9 0 4.971 4.029 9 9 9"
         fill="#fff"
         fill-rule="evenodd"
         id="path1060" />
    </g>
  </g>
  <g
     transform="matrix(.35277 0 0 -.35277 179.05 306.17)"
     id="g1072">
    <g
       clip-path="url(#clipPath29400-4)"
       id="g1070">
      <g
         transform="translate(104.49,129.57)"
         id="g1068">
        <path
           d="m0 0c-4.298-0.338-8.165-0.637-11.604-0.898-1.458-0.113-2.906-0.225-4.344-0.336-1.44-0.114-2.747-0.207-3.924-0.282-1.178-0.074-2.168-0.149-2.972-0.224-0.803-0.074-1.28-0.113-1.428-0.113-0.188-0.037-0.403-0.065-0.645-0.084-0.244-0.018-0.459-0.065-0.645-0.139l-0.673-0.225-2.467 1.121c0.187 0.263 0.412 0.506 0.674 0.731 0.185 0.186 0.42 0.364 0.7 0.533 0.28 0.168 0.569 0.27 0.868 0.309 0.225 0.037 0.822 0.093 1.795 0.168 0.971 0.074 2.167 0.168 3.588 0.28 0 0.486 0.047 1.15 0.14 1.992 0.092 0.841 0.317 1.674 0.672 2.497 0.356 0.822 0.869 1.553 1.541 2.188 0.673 0.636 1.589 1.009 2.747 1.123 1.346 0.111 2.439-0.094 3.281-0.618 0.84-0.523 1.494-1.169 1.961-1.935 0.467-0.768 0.795-1.553 0.981-2.358 0.187-0.804 0.299-1.43 0.337-1.878 1.606 0.111 2.942 0.205 4.008 0.279 1.064 0.076 1.653 0.131 1.765 0.169 0.412 0.038 0.87-0.038 1.373-0.225 0.505-0.186 0.907-0.43 1.206-0.729 0.075-0.075 0.177-0.188 0.308-0.336 0.131-0.151 0.252-0.3 0.365-0.449 0.149-0.151 0.28-0.337 0.392-0.561m-15.528 6.676c-0.709-0.074-1.28-0.326-1.709-0.757-0.43-0.431-0.758-0.944-0.982-1.543-0.223-0.599-0.374-1.206-0.448-1.823-0.075-0.617-0.112-1.114-0.112-1.488 1.159 0.076 2.344 0.169 3.559 0.281s2.402 0.206 3.56 0.281c-0.037 0.336-0.121 0.804-0.252 1.402-0.131 0.599-0.346 1.178-0.645 1.74-0.299 0.561-0.691 1.028-1.176 1.403-0.487 0.373-1.084 0.542-1.795 0.504m21.919-41.24c0.186-1.047 0.159-1.917-0.084-2.61-0.244-0.691-0.925-1.168-2.046-1.43-0.374-0.113-1.187-0.299-2.439-0.562-1.252-0.262-2.747-0.579-4.485-0.953-1.737-0.374-3.597-0.777-5.577-1.207-1.982-0.43-3.878-0.832-5.691-1.205-1.812-0.375-3.437-0.711-4.877-1.011-1.438-0.3-2.457-0.505-3.054-0.617-1.383-0.3-2.402-0.206-3.055 0.28-0.654 0.486-0.982 1.217-0.982 2.189v34.452c0 0.934 0.197 1.691 0.589 2.271 0.393 0.58 0.962 0.889 1.709 0.926 0.299 0 0.664 0.02 1.094 0.057s0.85 0.074 1.261 0.112c0.485 0.037 0.991 0.075 1.514 0.112l0.504-8.023c-0.037-0.038-0.112-0.057-0.224-0.057-0.074 0-0.187-0.01-0.336-0.027-0.15-0.02-0.318-0.029-0.505-0.029-0.784-0.075-1.159-0.542-1.121-1.403 0.038-0.336 0.075-0.805 0.112-1.402 0.037-0.599 0.066-1.225 0.084-1.88 0.019-0.655 0.047-1.29 0.084-1.907s0.074-1.114 0.113-1.488c0.037-0.711 0.149-1.112 0.336-1.206 0.186-0.093 0.598-0.14 1.233-0.14h0.785c0.225 0 0.439 0.01 0.645 0.027 0.205 0.02 0.439 0.038 0.701 0.057 0.261 0.018 0.597 0.047 1.008 0.084 0.785 0.075 1.29 0.243 1.513 0.506 0.225 0.261 0.319 0.654 0.281 1.177 0 0.262-0.028 0.721-0.084 1.375-0.056 0.655-0.113 1.337-0.168 2.048-0.056 0.71-0.103 1.384-0.14 2.02-0.037 0.635-0.074 1.085-0.112 1.346-0.076 0.45-0.168 0.768-0.281 0.954-0.112 0.187-0.318 0.262-0.617 0.224-0.148 0-0.299-9e-3 -0.447-0.027-0.151-0.019-0.3-0.028-0.449-0.028h-0.449l-0.505 7.967c2.542 0.225 4.877 0.412 7.008 0.561 0.897 0.076 1.803 0.15 2.719 0.224 0.916 0.076 1.766 0.141 2.551 0.198 0.785 0.055 1.476 0.111 2.074 0.168 0.598 0.056 1.046 0.103 1.346 0.14 1.083 0.074 1.942-0.113 2.578-0.561 0.635-0.449 1.027-1.122 1.178-2.021 0.037-0.299 0.168-1.196 0.391-2.693 0.224-1.496 0.505-3.291 0.841-5.386s0.691-4.349 1.065-6.761c0.374-2.413 0.729-4.667 1.066-6.761 0.336-2.095 0.625-3.891 0.869-5.387 0.242-1.496 0.4-2.395 0.476-2.693m-35.261-4.881c0-0.525 0.028-0.983 0.084-1.375 0.057-0.393 0.122-0.701 0.197-0.926 0.074-0.299 0.168-0.524 0.279-0.674-0.933 0.486-1.831 0.973-2.69 1.459-0.747 0.412-1.495 0.832-2.242 1.263-0.747 0.43-1.383 0.795-1.906 1.094-0.972 0.561-1.635 1.235-1.99 2.02s-0.439 1.608-0.253 2.469c0.076 0.224 0.244 1.047 0.505 2.469 0.262 1.421 0.588 3.142 0.981 5.162 0.392 2.019 0.803 4.189 1.233 6.508 0.43 2.32 0.831 4.49 1.205 6.509 0.374 2.02 0.701 3.76 0.982 5.218 0.28 1.459 0.439 2.319 0.476 2.581 0.15 0.823 0.42 1.459 0.813 1.908 0.392 0.449 0.849 0.561 1.373 0.336 0.299-0.149 0.543-0.317 0.728-0.504 0.114-0.113 0.188-0.207 0.225-0.281z"
           fill="#fff"
           id="path1066" />
      </g>
    </g>
  </g>
  <path
     transform="matrix(1.1741882,0,0,1.2116146,-1.9965978,-1.092844)"
     d="m 10.792,11.321 c 0.62511,-0.19624 1.1645,-0.50057 1.5837,-1.0425 -2.2945,1.326 -4.5644,1.2854 -6.8546,0.0092 0.18686,0.26661 0.41187,0.46916 0.6745,0.6212 0.26185,0.1516 0.53978,0.27545 0.82004,0.41624 -0.12085,0.15091 -0.26427,0.3087 -0.3824,0.48353 C 6.5208,11.97525 6.3933,12.0336 6.18779,12.00971 5.41343,11.91972 4.71729,11.66201 4.14009,11.12301 4.12336,11.10734 4.10763,11.09061 4.09065,11.07531 3.85499,10.86307 3.75661,10.62618 3.77689,10.28351 3.87277,8.66151 4.27748,7.12671 4.98599,5.66891 5.02072,5.597453 5.08004,5.52867 5.14494,5.48262 5.71094,5.08087 6.33164,4.80335 7.01834,4.68339 7.14941,4.660478 7.28239,4.643321 7.41511,4.637432 c 0.05395,-0.00238 0.10958,0.032329 0.16324,0.07116 -0.81592,0.27275 -1.5913,0.60135 -2.2732,1.1504 2.3432,-1.1162 4.6728,-1.1714 7.0088,-0.028293 -0.62447,-0.50465 -1.3464,-0.81737 -2.1016,-1.0645 0.05638,-0.116 0.13508,-0.13831 0.25569,-0.12708 0.81731,0.075948 1.5471,0.37637 2.2134,0.8437 0.06252,0.043851 0.1209,0.1083 0.15455,0.17635 0.51692,1.0465 0.86535,2.1476 1.0629,3.2979 0.09173,0.53459 0.13898,1.0729 0.14835,1.6143 0.0012,0.07611 -0.03103,0.16682 -0.0779,0.22763 -0.43529,0.56479 -1.0155,0.91363 -1.6988,1.0881 -0.2639,0.06738 -0.53912,0.09137 -0.8101,0.12864 -0.04197,0.0058 -0.10548,-0.0092 -0.13064,-0.03879 -0.18048,-0.21153 -0.35356,-0.42927 -0.53783,-0.6559 z M 7.1727,9.8746 C 7.47224,9.873871 7.64983,9.81043 7.8057,9.68095 8.06047,9.46917 8.15552,9.19017 8.17514,8.86628 8.19704,8.50408 8.05642,8.23469 7.7555,8.05089 7.44504,7.8613 7.12064,7.84563 6.80641,8.04279 c -0.50436,0.3165 -0.59909,1.0694 -0.19778,1.5231 0.1756,0.1985 0.39373,0.30659 0.56408,0.3087 z m 3.3061,0.01398 C 10.58177,9.86496 10.68956,9.85373 10.78693,9.81568 11.38787,9.58122 11.57922,8.77428 11.1637,8.24248 10.8399,7.82808 10.23658,7.79074 9.8677,8.16607 9.62368,8.41431 9.54756,8.718 9.58915,9.05787 c 0.0551,0.45044 0.44937,0.81476 0.8897,0.83071 z"
     filter="url(#filter873)"
     opacity="0.2"
     stroke-width="0.045727"
     id="path1076" />
  <path
     d="m 10.745612,12.215427 c 0.757366,-0.237762 1.410863,-0.606471 1.918705,-1.263086 -2.7798993,1.606484 -5.5300122,1.557328 -8.3048189,0.01114 C 4.5858936,11.28649 4.858505,11.5319 5.1767072,11.7161 5.4939525,11.899775 5.8306905,12.049828 6.1702451,12.220408 6.0238265,12.403254 5.8500596,12.59443 5.7069362,12.806248 5.5707115,13.008066 5.4162289,13.078767 5.1672464,13.049821 4.2291151,12.940799 3.3855918,12.628561 2.6862955,11.975489 2.6660265,11.956505 2.6469683,11.936234 2.6263961,11.9177 2.3408823,11.660561 2.2216809,11.37355 2.2462512,10.958347 2.3624199,8.9932646 2.852753,7.1336703 3.7111311,5.3674493 3.7532093,5.2808746 3.8250774,5.1975408 3.9037116,5.1417407 4.5894572,4.6549958 5.3414284,4.318744 6.1734537,4.1734367 6.33225,4.1456771 6.4933613,4.1248903 6.654164,4.1177554 6.7195276,4.1148722 6.7869238,4.1569235 6.8519378,4.2039675 5.8634159,4.5344239 4.9239727,4.9325413 4.0978122,5.5976985 6.9367455,4.2454067 9.7592419,4.1784248 12.589378,5.5634197 11.832792,4.9520023 10.958124,4.5731229 10.043143,4.2737111 c 0.06831,-0.1405383 0.163658,-0.1675703 0.309791,-0.1539656 0.99022,0.092015 1.87441,0.4559934 2.681665,1.0221672 0.07575,0.053128 0.146472,0.1312088 0.187248,0.2136628 0.626288,1.2679472 1.048481,2.6020275 1.287779,3.9956814 0.111138,0.6476941 0.168381,1.2998181 0.179732,1.9558231 0.0015,0.09222 -0.0376,0.20211 -0.09438,0.27579 -0.527382,0.68428 -1.230367,1.106898 -2.058225,1.318261 -0.319738,0.08163 -0.653181,0.110705 -0.981422,0.155856 -0.05085,0.0071 -0.127798,-0.01114 -0.15828,-0.04699 -0.218663,-0.256283 -0.428359,-0.520089 -0.651622,-0.794676 z M 6.3606185,10.463019 C 6.7235318,10.46217 6.9386916,10.38528 7.1275371,10.228398 7.4362014,9.9718141 7.5513669,9.6337874 7.5751424,9.2414191 7.6016758,8.8025879 7.4313089,8.4762058 7.0667211,8.2535144 6.6905811,8.0238162 6.2975491,8.0048329 5.9168408,8.243701 5.3057706,8.6271565 5.1910064,9.5393516 5.6772188,10.089096 c 0.2127521,0.240494 0.4770293,0.371456 0.6834228,0.37401 z m 4.0055585,0.01694 c 0.124758,-0.02862 0.255349,-0.04223 0.373316,-0.08833 0.72808,-0.284055 0.95997,-1.2617737 0.45648,-1.9060493 C 10.803674,7.9835036 10.072715,7.9382755 9.6257583,8.393011 9.3301123,8.6937733 9.2378811,9.0617103 9.2882718,9.4735172 9.3550283,10.019257 9.8327151,10.46065 10.366154,10.480019 Z"
     fill="#fff"
     stroke-width="0.0554012"
     id="path1078"
     style="fill:#ffffff;fill-opacity:1" />
  <g
     transform="translate(-58.35144,-6.4906)"
     fill="#5e4aa6"
     stroke-width="0.26458"
     id="g28">
    <circle
       cx="-330.35001"
       cy="-328.38"
       r="0"
       id="circle20" />
    <circle
       cx="-312.10999"
       cy="-326.25"
       r="0"
       id="circle22" />
    <circle
       cx="-306.01999"
       cy="-333.07001"
       r="0"
       id="circle24" />
    <circle
       cx="-308.84"
       cy="-326.01001"
       r="0"
       id="circle26" />
  </g>
</svg>
