<?xml version="1.0" encoding="UTF-8" standalone="no"?>
<svg
   xmlns:dc="http://purl.org/dc/elements/1.1/"
   xmlns:cc="http://creativecommons.org/ns#"
   xmlns:rdf="http://www.w3.org/1999/02/22-rdf-syntax-ns#"
   xmlns:svg="http://www.w3.org/2000/svg"
   xmlns="http://www.w3.org/2000/svg"
   xmlns:xlink="http://www.w3.org/1999/xlink"
   xmlns:sodipodi="http://sodipodi.sourceforge.net/DTD/sodipodi-0.dtd"
   xmlns:inkscape="http://www.inkscape.org/namespaces/inkscape"
   width="64"
   height="64"
   version="1.1"
   viewBox="0 0 16.933 16.933"
   id="svg105"
   sodipodi:docname="gnome-tweak-tool.svg"
   inkscape:version="1.0.1 (3bc2e813f5, 2020-09-07)">
  <sodipodi:namedview
     pagecolor="#ffffff"
     bordercolor="#666666"
     borderopacity="1"
     objecttolerance="10"
     gridtolerance="10"
     guidetolerance="10"
     inkscape:pageopacity="0"
     inkscape:pageshadow="2"
     inkscape:window-width="1920"
     inkscape:window-height="1002"
     id="namedview107"
     showgrid="false"
     inkscape:zoom="3.2460938"
     inkscape:cx="24.526968"
     inkscape:cy="90.567582"
     inkscape:window-x="0"
     inkscape:window-y="0"
     inkscape:window-maximized="1"
     inkscape:current-layer="svg105" />
  <defs
     id="defs39">
    <linearGradient
       id="i"
       x1="400.4"
       x2="400.4"
       y1="545.62"
       y2="517.62"
       gradientTransform="matrix(.41967 0 0 .41967 -173.34 -178.23)"
       gradientUnits="userSpaceOnUse">
      <stop
         stop-color="#d3d3d3"
         offset="0"
         id="stop2" />
      <stop
         stop-color="#fcf9f9"
         offset="1"
         id="stop4" />
    </linearGradient>
    <linearGradient
       id="f"
       x1="400.4"
       x2="400.4"
       y1="545.62"
       y2="517.62"
       gradientTransform="matrix(.43343 0 0 .43343 -193.09 -179.69)"
       gradientUnits="userSpaceOnUse">
      <stop
         stop-color="#8d3aff"
         offset="0"
         id="stop7" />
      <stop
         stop-color="#ff3680"
         offset="1"
         id="stop9" />
    </linearGradient>
    <filter
       id="filter1136"
       x="-.067753"
       y="-.053987"
       width="1.1355"
       height="1.108"
       color-interpolation-filters="sRGB">
      <feGaussianBlur
         stdDeviation="0.14286305"
         id="feGaussianBlur12" />
    </filter>
    <linearGradient
       id="linearGradient967"
       x1="400.4"
       x2="400.4"
       y1="545.62"
       y2="517.62"
       gradientTransform="matrix(.41967 0 0 .41967 -173.34 -178.23)"
       gradientUnits="userSpaceOnUse"
       xlink:href="#i" />
    <linearGradient
       id="linearGradient969"
       x1="400.4"
       x2="400.4"
       y1="545.62"
       y2="517.62"
       gradientTransform="matrix(.43343 0 0 .43343 -193.09 -179.69)"
       gradientUnits="userSpaceOnUse"
       xlink:href="#f" />
    <linearGradient
       id="linearGradient1025"
       x1="400.4"
       x2="400.4"
       y1="545.62"
       y2="517.62"
       gradientTransform="matrix(.41967 0 0 .41967 -173.34 -178.23)"
       gradientUnits="userSpaceOnUse"
       xlink:href="#i" />
    <linearGradient
       id="linearGradient1027"
       x1="400.4"
       x2="400.4"
       y1="545.62"
       y2="517.62"
       gradientTransform="matrix(.43343 0 0 .43343 -193.09 -179.69)"
       gradientUnits="userSpaceOnUse"
       xlink:href="#f" />
    <linearGradient
       id="linearGradient1089"
       x1="5.7058"
       x2="11.226"
       y1="7.9178"
       y2="7.9178"
       gradientTransform="matrix(0.15144,1.4684e-4,-1.4608e-4,0.15224,2.0709446,1.7135)"
       gradientUnits="userSpaceOnUse">
      <stop
         stop-color="#1496da"
         offset="0"
         id="stop19" />
      <stop
         stop-color="#37ecff"
         offset="1"
         id="stop21" />
    </linearGradient>
    <linearGradient
       id="linearGradient7975"
       x1="3.1749"
       x2="13.758"
       y1="8.4665"
       y2="8.4665"
       gradientTransform="translate(22.482245,-7.2683)"
       gradientUnits="userSpaceOnUse">
      <stop
         stop-color="#0364c8"
         offset="0"
         id="stop24" />
      <stop
         stop-color="#0979ea"
         offset="1"
         id="stop26" />
    </linearGradient>
    <linearGradient
       id="linearGradient7983"
       x1=".52911"
       x2="16.404"
       y1="8.4665"
       y2="8.4665"
       gradientTransform="translate(22.482245,-7.2682)"
       gradientUnits="userSpaceOnUse">
      <stop
         stop-color="#0a3e82"
         offset="0"
         id="stop29" />
      <stop
         stop-color="#054b9e"
         offset="1"
         id="stop31" />
    </linearGradient>
    <linearGradient
       id="linearGradient7991"
       x1="7.429"
       x2="9.504"
       y1="8.4665"
       y2="8.4665"
       gradientTransform="translate(10.010845,35.189)"
       gradientUnits="userSpaceOnUse">
      <stop
         stop-color="#004486"
         offset="0"
         id="stop34" />
      <stop
         stop-color="#0174cf"
         offset="1"
         id="stop36" />
    </linearGradient>
    <linearGradient
       inkscape:collect="always"
       id="linearGradient1113">
      <stop
         style="stop-color:#0a3e82;stop-opacity:1"
         offset="0"
         id="stop1109" />
      <stop
         style="stop-color:#054b9e;stop-opacity:1"
         offset="1"
         id="stop1111" />
    </linearGradient>
    <linearGradient
       id="a">
      <stop
         stop-color="#111"
         offset="0"
         id="stop4-3" />
      <stop
         stop-color="#626262"
         offset="1"
         id="stop6" />
    </linearGradient>
    <linearGradient
       id="linearGradient825"
       x1="-741.83"
       x2="-741.83"
       y1="959.05"
       y2="93.836"
       gradientTransform="matrix(0.06680372,0,0,0.06680372,151.19721,-2.3478103)"
       gradientUnits="userSpaceOnUse">
      <stop
         stop-color="#ccd4da"
         offset="0"
         id="stop9-6" />
      <stop
         stop-color="#fff"
         offset="1"
         id="stop11" />
    </linearGradient>
    <linearGradient
       id="linearGradient835"
       x1="-738.76"
       x2="-738.76"
       y1="931.43"
       y2="152.13"
       gradientTransform="matrix(0.06680372,0,0,0.06680372,151.19721,-2.3478103)"
       gradientUnits="userSpaceOnUse">
      <stop
         stop-color="#dfe3e8"
         offset="0"
         id="stop14" />
      <stop
         stop-color="#fefeff"
         offset="1"
         id="stop16" />
    </linearGradient>
    <linearGradient
       id="e-3"
       x1="32"
       x2="32"
       y1="-3.5763"
       y2="57"
       gradientTransform="translate(-93.831,13.017)"
       gradientUnits="userSpaceOnUse"
       xlink:href="#a" />
    <linearGradient
       id="b-5"
       x1="124.73"
       x2="124.87"
       y1="193.81"
       y2="232.94"
       gradientTransform="matrix(1.3333,0,0,1.3333,-228.33,-240.93)"
       gradientUnits="userSpaceOnUse"
       xlink:href="#a" />
    <linearGradient
       id="linearGradient1107">
      <stop
         stop-color="#505050"
         offset="0"
         id="stop861" />
      <stop
         stop-color="#0a0a0a"
         offset="1"
         id="stop863" />
    </linearGradient>
    <style
       type="text/css"
       id="style866" />
    <linearGradient
       id="linearGradient1034"
       x1="-71.993"
       x2="-73.616"
       y1="2.5497"
       y2="13.762"
       gradientTransform="translate(78.585,0.33847)"
       gradientUnits="userSpaceOnUse">
      <stop
         stop-color="#32d2ff"
         offset="0"
         id="stop868" />
      <stop
         stop-color="#32b4ff"
         offset="1"
         id="stop870" />
    </linearGradient>
    <linearGradient
       id="linearGradient1042"
       x1="-74.394"
       x2="-75.461"
       y1="-16.69"
       y2="-4.4751"
       gradientTransform="translate(75.82,20.666)"
       gradientUnits="userSpaceOnUse">
      <stop
         stop-color="#0073d2"
         offset="0"
         id="stop873" />
      <stop
         stop-color="#143c73"
         offset="1"
         id="stop875" />
    </linearGradient>
    <linearGradient
       id="linearGradient1050"
       x1="-66.237"
       x2="-59.585"
       y1="21.255"
       y2="31.868"
       gradientTransform="translate(75.995,-20.012)"
       gradientUnits="userSpaceOnUse">
      <stop
         stop-color="#fff"
         offset="0"
         id="stop878" />
      <stop
         stop-color="#d2d2d2"
         offset="1"
         id="stop880" />
    </linearGradient>
    <filter
       id="filter1058"
       x="-.092516"
       y="-.076919"
       width="1.185"
       height="1.1538"
       color-interpolation-filters="sRGB">
      <feGaussianBlur
         stdDeviation="0.46236326"
         id="feGaussianBlur883" />
    </filter>
    <filter
       id="filter1072"
       x="-.0996"
       y="-.072625"
       width="1.1992"
       height="1.1452"
       color-interpolation-filters="sRGB">
      <feGaussianBlur
         stdDeviation="0.38429972"
         id="feGaussianBlur886" />
    </filter>
    <style
       type="text/css"
       id="style889" />
    <linearGradient
       id="linearGradient1109"
       x1="720.94"
       x2="626.77"
       y1="456.88"
       y2="819.08"
       gradientUnits="userSpaceOnUse"
       xlink:href="#linearGradient1107" />
    <linearGradient
       id="linearGradient1448"
       x1="3.9686999"
       x2="3.9686999"
       y1="16.374857"
       y2="0.54084998"
       gradientTransform="matrix(3.46461,0,0,3.46461,2.6662068,2.6662068)"
       gradientUnits="userSpaceOnUse">
      <stop
         stop-color="#c8c8c8"
         offset="0"
         id="stop892"
         style="stop-color:#ccd4da;stop-opacity:1" />
      <stop
         stop-color="#f0f0f0"
         offset="1"
         id="stop894"
         style="stop-color:#ffffff;stop-opacity:1" />
    </linearGradient>
    <linearGradient
       inkscape:collect="always"
       xlink:href="#linearGradient1113"
       id="linearGradient1115"
       x1="-59.284492"
       y1="32.340435"
       x2="-3.5327206"
       y2="32.340435"
       gradientUnits="userSpaceOnUse"
       gradientTransform="matrix(0.26457812,0,0,0.26457812,16.851813,0)" />
    <linearGradient
       inkscape:collect="always"
       xlink:href="#linearGradient7975"
       id="linearGradient1073"
       gradientUnits="userSpaceOnUse"
       gradientTransform="translate(22.482245,-7.2683)"
       x1="3.1749"
       y1="8.4665"
       x2="13.758"
       y2="8.4665" />
    <linearGradient
       inkscape:collect="always"
       xlink:href="#linearGradient1089"
       id="linearGradient1075"
       gradientUnits="userSpaceOnUse"
       gradientTransform="matrix(0.15144,1.4684e-4,-1.4608e-4,0.15224,2.0709446,1.7135)"
       x1="5.7058"
       y1="7.9178"
       x2="11.226"
       y2="7.9178" />
    <linearGradient
       inkscape:collect="always"
       xlink:href="#linearGradient7991"
       id="linearGradient1077"
       gradientUnits="userSpaceOnUse"
       gradientTransform="translate(10.010845,35.189)"
       x1="7.429"
       y1="8.4665"
       x2="9.504"
       y2="8.4665" />
  </defs>
  <metadata
     id="metadata41">
    <rdf:RDF>
      <cc:Work
         rdf:about="">
        <dc:format>image/svg+xml</dc:format>
        <dc:type
           rdf:resource="http://purl.org/dc/dcmitype/StillImage" />
        <dc:title></dc:title>
      </cc:Work>
    </rdf:RDF>
  </metadata>
  <g
     transform="translate(-21.834 .89695)"
     fill="#5e4aa6"
     stroke-width=".26458"
     id="g51">
    <circle
       cx="-330.35"
       cy="-328.38"
       r="0"
       id="circle43" />
    <circle
       cx="-312.11"
       cy="-326.25"
       r="0"
       id="circle45" />
    <circle
       cx="-306.02"
       cy="-333.07"
       r="0"
       id="circle47" />
    <circle
       cx="-308.84"
       cy="-326.01"
       r="0"
       id="circle49" />
  </g>
  <circle
     cx="-5.2346"
     cy="44.956"
     r="0"
     fill="url(#i)"
     image-rendering="optimizeSpeed"
     stroke-width=".26458"
     id="circle53" />
  <circle
     cx="-19.466"
     cy="50.818"
     r="0"
     fill="none"
     image-rendering="optimizeSpeed"
     stroke="url(#f)"
     stroke-width=".56347"
     id="circle55" />
  <g
     transform="translate(-21.834 .89695)"
     fill="#5e4aa6"
     stroke-width=".26458"
     id="g65">
    <circle
       cx="-330.35"
       cy="-328.38"
       r="0"
       id="circle57" />
    <circle
       cx="-312.11"
       cy="-326.25"
       r="0"
       id="circle59" />
    <circle
       cx="-306.02"
       cy="-333.07"
       r="0"
       id="circle61" />
    <circle
       cx="-308.84"
       cy="-326.01"
       r="0"
       id="circle63" />
  </g>
  <g
     transform="translate(-21.834 .89695)"
     fill="#5e4aa6"
     stroke-width=".26458"
     id="g75">
    <circle
       cx="-330.35"
       cy="-328.38"
       r="0"
       id="circle67" />
    <circle
       cx="-312.11"
       cy="-326.25"
       r="0"
       id="circle69" />
    <circle
       cx="-306.02"
       cy="-333.07"
       r="0"
       id="circle71" />
    <circle
       cx="-308.84"
       cy="-326.01"
       r="0"
       id="circle73" />
  </g>
  <circle
     cx="-5.2346"
     cy="44.956"
     r="0"
     fill="url(#linearGradient1025)"
     image-rendering="optimizeSpeed"
     stroke-width=".26458"
     id="circle77" />
  <circle
     cx="-19.466"
     cy="50.818"
     r="0"
     fill="none"
     image-rendering="optimizeSpeed"
     stroke="url(#linearGradient1027)"
     stroke-width=".56347"
     id="circle79" />
  <g
     transform="translate(-21.834 .8963)"
     fill="#5e4aa6"
     stroke-width=".26458"
     id="g89">
    <circle
       cx="-330.35"
       cy="-328.38"
       r="0"
       id="circle81" />
    <circle
       cx="-312.11"
       cy="-326.25"
       r="0"
       id="circle83" />
    <circle
       cx="-306.02"
       cy="-333.07"
       r="0"
       id="circle85" />
    <circle
       cx="-308.84"
       cy="-326.01"
       r="0"
       id="circle87" />
  </g>
  <circle
     cx="-5.2349"
     cy="44.955"
     r="0"
     fill="url(#linearGradient967)"
     image-rendering="optimizeSpeed"
     stroke-width=".26458"
     id="circle91" />
  <circle
     cx="-19.466"
     cy="50.817"
     r="0"
     fill="none"
     image-rendering="optimizeSpeed"
     stroke="url(#linearGradient969)"
     stroke-width=".56347"
     id="circle93" />
  <rect
     style="fill:url(#linearGradient1115);fill-opacity:1;stroke-width:0.125122;image-rendering:optimizeSpeed"
     id="rect1107"
     width="14.551797"
     height="14.551797"
     x="1.1906016"
     y="1.1906016"
     ry="3.4395156" />
  <g
     transform="translate(-38.206642,0.89695015)"
     fill="#5e4aa6"
     stroke-width="0.26458"
     id="g911"
     style="image-rendering:optimizeSpeed">
    <circle
       cx="-330.35001"
       cy="-328.38"
       r="0"
       id="circle903" />
    <circle
       cx="-312.10999"
       cy="-326.25"
       r="0"
       id="circle905" />
    <circle
       cx="-306.01999"
       cy="-333.07001"
       r="0"
       id="circle907" />
    <circle
       cx="-308.84"
       cy="-326.01001"
       r="0"
       id="circle909" />
  </g>
  <g
     transform="translate(5.2953578,-4.3049999)"
     fill="#5e4aa6"
     stroke-width="0.26458"
     id="g919"
     style="image-rendering:optimizeSpeed">
    <circle
       cx="-322.63"
       cy="-345.67001"
       r="0"
       id="circle913" />
    <circle
       cx="-31.726"
       cy="-10.849"
       r="0"
       fill-rule="evenodd"
       id="circle915" />
    <circle
       cx="-306.92001"
       cy="-328.72"
       r="0"
       id="circle917" />
  </g>
  <g
     id="g1071"
     transform="translate(-19.58993)">
    <path
       d="m 33.347945,8.4664 c 0,0.63435 -0.11166,1.2425 -0.31642,1.8063 -0.14233,0.39178 -0.32958,0.7622 -0.55594,1.1048 -0.09481,0.14405 -0.19676,0.28316 -0.30496,0.41685 -0.34643,0.42785 -0.75813,0.80046 -1.2203,1.1029 -0.1702,0.11145 -0.34709,0.2134 -0.53023,0.30474 -0.7112,0.35592 -1.5141,0.55613 -2.3637,0.55613 -0.8496,0 -1.6525,-0.20021 -2.3637,-0.55614 -0.18316,-0.09137 -0.36026,-0.1933 -0.53046,-0.30474 -0.46804,-0.30648 -0.88466,-0.68493 -1.2339,-1.1199 -0.10841,-0.13477 -0.21015,-0.27516 -0.30496,-0.42051 -0.22031,-0.33692 -0.4028,-0.70046 -0.54232,-1.0847 -0.20473,-0.56351 -0.3162,-1.1715 -0.3162,-1.8056 0,-2.9224 2.3691,-5.2916 5.2916,-5.2916 1.467,0 2.7944,0.59698 3.7529,1.5611 0.27623,0.27774 0.52182,0.58618 0.73086,0.91966 0.19763,0.31404 0.36284,0.65053 0.49135,1.0045 0.20478,0.56372 0.31644,1.1719 0.31644,1.8063 z"
       fill="url(#linearGradient7975)"
       stroke-width="0.020671"
       id="path1059"
       style="fill:url(#linearGradient1073)" />
    <path
       transform="matrix(1.0875,0,0,1.1564,-77.558055,-19.425)"
       d="m 97.12,20.657 c -0.04854,0.0012 -0.09504,0.0192 -0.10852,0.05012 -0.02298,0.05361 -0.3775,0.92564 -0.54104,1.3275 -1.0826,0.2868 -1.8815,1.2704 -1.8815,2.4432 0,0.30321 0.05299,0.59404 0.15089,0.8635 0.06671,0.18372 0.15406,0.35719 0.25941,0.5183 0.04533,0.0695 0.09388,0.13657 0.14572,0.20102 0.16699,0.20798 0.36633,0.38932 0.59013,0.53587 0.08138,0.05329 0.16614,0.10204 0.25372,0.14572 0.34008,0.1702 0.72385,0.26561 1.1301,0.26561 0.40629,0 0.79007,-0.09542 1.1301,-0.26561 0.08757,-0.04367 0.17234,-0.09243 0.25372,-0.14572 0.221,-0.1446 0.41776,-0.32302 0.58342,-0.52761 0.05174,-0.06393 0.10039,-0.13059 0.14572,-0.19947 0.10824,-0.16383 0.19807,-0.34078 0.26613,-0.52812 0.09792,-0.26955 0.15141,-0.56017 0.15141,-0.8635 0,-0.30332 -0.05348,-0.59446 -0.15141,-0.86402 -0.06145,-0.16926 -0.14062,-0.3299 -0.23512,-0.48006 -0.09995,-0.15945 -0.21724,-0.30695 -0.34932,-0.43976 -0.30873,-0.31052 -0.69849,-0.53864 -1.1338,-0.65628 -0.15526,-0.3904 -0.50706,-1.2727 -0.54052,-1.3306 -0.02065,-0.03577 -0.07082,-0.05134 -0.11937,-0.05012 z"
       filter="url(#filter1136)"
       opacity="0.35"
       id="path1061" />
    <path
       d="m 28.056845,4.4538 c -0.05295,0.00131 -0.10368,0.020945 -0.11838,0.054676 -0.02507,0.058483 -0.41182,1.0098 -0.59022,1.4482 -1.181,0.31287 -2.0525,1.3859 -2.0525,2.6653 0,0.33077 0.05781,0.64804 0.16461,0.94199 0.07277,0.20042 0.16806,0.38966 0.28299,0.56541 0.04945,0.07582 0.10241,0.14898 0.15897,0.21929 0.18217,0.22689 0.39963,0.42471 0.64377,0.58458 0.08878,0.05813 0.18124,0.11132 0.27678,0.15897 0.37099,0.18567 0.78965,0.28975 1.2328,0.28975 0.44322,0 0.86189,-0.10409 1.2328,-0.28975 0.09553,-0.04764 0.18801,-0.10083 0.27678,-0.15897 0.24109,-0.15774 0.45574,-0.35238 0.63645,-0.57557 0.05644,-0.06974 0.10952,-0.14246 0.15897,-0.2176 0.11808,-0.17872 0.21608,-0.37176 0.29032,-0.57613 0.10682,-0.29405 0.16517,-0.61109 0.16517,-0.94199 0,-0.33089 -0.05834,-0.6485 -0.16517,-0.94256 -0.06704,-0.18465 -0.1534,-0.35989 -0.25649,-0.5237 -0.10904,-0.17394 -0.23699,-0.33485 -0.38107,-0.47973 -0.33679,-0.33875 -0.76198,-0.5876 -1.2369,-0.71594 -0.16937,-0.42589 -0.55315,-1.3884 -0.58965,-1.4516 -0.02253,-0.039022 -0.07726,-0.056007 -0.13022,-0.054676 z"
       fill="url(#linearGradient1089)"
       stroke-width="1.0909"
       id="path1063"
       style="fill:url(#linearGradient1075)" />
    <path
       d="m 29.093945,8.4665 c 0,0.12437 -0.02189,0.24361 -0.06204,0.35413 -0.02791,0.07681 -0.06462,0.14943 -0.109,0.2166 -0.01859,0.02824 -0.03857,0.05552 -0.05979,0.08173 -0.06792,0.08388 -0.14863,0.15693 -0.23925,0.21622 -0.03337,0.02185 -0.06805,0.04184 -0.10396,0.05975 -0.13943,0.06978 -0.29684,0.10903 -0.46342,0.10903 -0.16658,0 -0.32398,-0.03925 -0.46342,-0.10904 -0.03591,-0.01791 -0.07063,-0.0379 -0.104,-0.05975 -0.09176,-0.06009 -0.17344,-0.13428 -0.24191,-0.21955 -0.02126,-0.02642 -0.0412,-0.05395 -0.05979,-0.08244 -0.04319,-0.06606 -0.07897,-0.13733 -0.10633,-0.21265 -0.04014,-0.11048 -0.06199,-0.22968 -0.06199,-0.354 0,-0.57297 0.46448,-1.0374 1.0374,-1.0374 0.28761,0 0.54786,0.11704 0.73579,0.30606 0.05416,0.05445 0.10231,0.11492 0.14328,0.1803 0.03875,0.06157 0.07114,0.12754 0.09633,0.19694 0.04015,0.11052 0.06204,0.22976 0.06204,0.35413 z"
       fill="url(#linearGradient7991)"
       stroke-width="0.0040526"
       id="path1065"
       style="fill:url(#linearGradient1077)" />
  </g>
</svg>
