<?xml version="1.0" encoding="UTF-8"?>
<svg width="64" height="64" version="1.1" viewBox="0 0 16.933 16.933" xmlns="http://www.w3.org/2000/svg" xmlns:cc="http://creativecommons.org/ns#" xmlns:dc="http://purl.org/dc/elements/1.1/" xmlns:rdf="http://www.w3.org/1999/02/22-rdf-syntax-ns#">
 <defs>
  <linearGradient id="linearGradient864" x1="1.1905" x2="15.742" y1="1.1905" y2="15.742" gradientTransform="matrix(3.7796,0,0,3.7796,-106.29,-61.448)" gradientUnits="userSpaceOnUse">
   <stop stop-color="#2aaeea" offset="0"/>
   <stop stop-color="#818ce4" offset="1"/>
  </linearGradient>
 </defs>
 <metadata>
  <rdf:RDF>
   <cc:Work rdf:about="">
    <dc:format>image/svg+xml</dc:format>
    <dc:type rdf:resource="http://purl.org/dc/dcmitype/StillImage"/>
    <dc:title/>
   </cc:Work>
  </rdf:RDF>
 </metadata>
 <g transform="matrix(.26458 0 0 .26458 -7.902e-5 6.6478e-5)">
  <g transform="matrix(3.7796,0,0,3.7796,-151.13,-27.199)" fill="#5e4aa6" stroke-width=".26458">
   <circle cx="-330.35" cy="-328.38" r="0"/>
   <circle cx="-312.11" cy="-326.25" r="0"/>
   <circle cx="-306.02" cy="-333.07" r="0"/>
   <circle cx="-308.84" cy="-326.01" r="0"/>
  </g>
  <g transform="translate(106.29,61.448)">
   <rect x="-101.79" y="-56.949" width="55.001" height="55.001" ry="13" fill="url(#linearGradient864)" stroke-linecap="round" stroke-width="8.3159"/>
   <path d="m-62.661-32.11c-1.446 0-2.892 0.55411-4 1.6621l-27.391 27.391c1.608 0.70932 3.3855 1.1094 5.2617 1.1094h29c7.202 0 13-5.798 13-13v-3.6289l-11.871-11.871c-1.108-1.108-2.554-1.6621-4-1.6621z" fill="#406ccd"/>
   <path d="m-82.292-37.802c-1.0181 0-2.0363 0.38984-2.8164 1.1699l-16.682 16.682v5.002c0 7.202 5.798 13 13 13h29c4.1126 0 7.7619-1.8944 10.141-4.8574l-29.826-29.826c-0.7801-0.7801-1.7983-1.1699-2.8164-1.1699z" fill="#13427e"/>
   <circle cx="-64.291" cy="-44.448" r="5" fill="#fff" stroke-width="3.7796"/>
  </g>
 </g>
</svg>
