<?xml version="1.0" encoding="UTF-8" standalone="no"?>
<svg
   xmlns:dc="http://purl.org/dc/elements/1.1/"
   xmlns:cc="http://creativecommons.org/ns#"
   xmlns:rdf="http://www.w3.org/1999/02/22-rdf-syntax-ns#"
   xmlns:svg="http://www.w3.org/2000/svg"
   xmlns="http://www.w3.org/2000/svg"
   xmlns:xlink="http://www.w3.org/1999/xlink"
   xmlns:sodipodi="http://sodipodi.sourceforge.net/DTD/sodipodi-0.dtd"
   xmlns:inkscape="http://www.inkscape.org/namespaces/inkscape"
   width="64"
   height="64"
   version="1.1"
   id="svg37"
   sodipodi:docname="plasma.svg"
   inkscape:version="1.0.1 (3bc2e813f5, 2020-09-07)">
  <sodipodi:namedview
     pagecolor="#ffffff"
     bordercolor="#666666"
     borderopacity="1"
     objecttolerance="10"
     gridtolerance="10"
     guidetolerance="10"
     inkscape:pageopacity="0"
     inkscape:pageshadow="2"
     inkscape:window-width="1920"
     inkscape:window-height="962"
     id="namedview39"
     showgrid="false"
     inkscape:zoom="4.391796"
     inkscape:cx="68.526303"
     inkscape:cy="38.449804"
     inkscape:window-x="0"
     inkscape:window-y="36"
     inkscape:window-maximized="1"
     inkscape:current-layer="svg37" />
  <metadata
     id="metadata2">
    <rdf:RDF>
      <cc:Work
         rdf:about="">
        <dc:format>image/svg+xml</dc:format>
        <dc:type
           rdf:resource="http://purl.org/dc/dcmitype/StillImage" />
        <dc:title></dc:title>
      </cc:Work>
    </rdf:RDF>
  </metadata>
  <defs
     id="defs17">
    <filter
       id="e"
       x="-.036006"
       y="-.035994"
       width="1.072"
       height="1.072"
       color-interpolation-filters="sRGB">
      <feGaussianBlur
         stdDeviation="0.48008593"
         id="feGaussianBlur4" />
    </filter>
    <linearGradient
       id="linearGradient1005"
       x1=".73911"
       x2="16.388"
       y1="16.296"
       y2=".64687"
       gradientTransform="matrix(3.7795,0,0,3.7795,112.48844,0.025163)"
       gradientUnits="userSpaceOnUse">
      <stop
         stop-color="#00a0ff"
         offset="0"
         id="stop7" />
      <stop
         stop-color="#37beff"
         offset="1"
         id="stop9" />
    </linearGradient>
    <linearGradient
       id="linearGradient962"
       x1="-80.001"
       x2="-48"
       y1="32"
       y2="32"
       gradientTransform="translate(96,4.4952e-4)"
       gradientUnits="userSpaceOnUse">
      <stop
         stop-color="#fafafa"
         offset="0"
         id="stop12" />
      <stop
         stop-color="#fff"
         offset="1"
         id="stop14" />
    </linearGradient>
    <filter
       id="filter917"
       x="-.083994"
       y="-.084006"
       width="1.168"
       height="1.168"
       color-interpolation-filters="sRGB">
      <feGaussianBlur
         stdDeviation="0.22223482"
         id="feGaussianBlur4-6" />
    </filter>
    <linearGradient
       id="linearGradient1005-7"
       x1=".73911"
       x2="16.388"
       y1="16.296"
       y2=".64687"
       gradientTransform="matrix(0.99997,0,0,0.99997,22.622572,-8.0932473)"
       gradientUnits="userSpaceOnUse">
      <stop
         stop-color="#00a0ff"
         offset="0"
         id="stop7-5" />
      <stop
         stop-color="#37beff"
         offset="1"
         id="stop9-3" />
    </linearGradient>
    <linearGradient
       inkscape:collect="always"
       xlink:href="#linearGradient2114"
       id="linearGradient2116"
       x1="59.5"
       y1="4.5"
       x2="4.5"
       y2="59.5"
       gradientUnits="userSpaceOnUse" />
    <linearGradient
       inkscape:collect="always"
       id="linearGradient2114">
      <stop
         style="stop-color:#37beff;stop-opacity:1"
         offset="0"
         id="stop2110" />
      <stop
         style="stop-color:#00a0ff;stop-opacity:1"
         offset="1"
         id="stop2112" />
    </linearGradient>
  </defs>
  <g
     fill="#5e4aa6"
     id="g27">
    <circle
       cx="-1331.1"
       cy="-1237.8"
       r="0"
       id="circle19" />
    <circle
       cx="-1262.2"
       cy="-1229.7"
       r="0"
       id="circle21" />
    <circle
       cx="-1239.2"
       cy="-1255.5"
       r="0"
       id="circle23" />
    <circle
       cx="-1249.8"
       cy="-1228.8"
       r="0"
       id="circle25" />
  </g>
  <rect
     style="fill:url(#linearGradient2116);fill-opacity:1;stroke-width:2.12399"
     id="rect2106"
     width="55"
     height="55"
     x="4.5"
     y="4.5"
     ry="13" />
  <g
     transform="matrix(3.779602,0,0,3.779602,-155.21692,-24.531885)"
     fill="#5e4aa6"
     stroke-width="0.26458"
     id="g28">
    <circle
       cx="-330.35001"
       cy="-328.38"
       r="0"
       id="circle20" />
    <circle
       cx="-312.10999"
       cy="-326.25"
       r="0"
       id="circle22" />
    <circle
       cx="-306.01999"
       cy="-333.07001"
       r="0"
       id="circle24" />
    <circle
       cx="-308.84"
       cy="-326.01001"
       r="0"
       id="circle26" />
  </g>
  <g
     transform="matrix(1.0199,0,0,1.0199,-0.63726573,-0.63793)"
     id="g35">
    <path
       d="m 34.002,15.994 c -1.1039,0 -1.9998,0.89593 -1.9998,1.9998 0,1.1039 0.89593,1.9998 1.9998,1.9998 1.1039,0 1.9998,-0.89593 1.9998,-1.9998 0,-1.1039 -0.89593,-1.9998 -1.9998,-1.9998 m 6.6662,0 c -1.1039,0 -1.9998,0.89593 -1.9998,1.9998 0,1.1039 0.89593,1.9998 1.9998,1.9998 1.1039,0 1.9998,-0.89593 1.9998,-1.9998 0,-1.1039 -0.89593,-1.9998 -1.9998,-1.9998 m 5.3329,2.6665 c -1.1039,0 -1.9998,0.89593 -1.9998,1.9998 0,1.1039 0.89593,1.9998 1.9998,1.9998 1.1039,0 1.9998,-0.89593 1.9998,-1.9998 0,-1.1039 -0.89593,-1.9998 -1.9998,-1.9998 m -17.527,0.20532 c -1.5265,0.08799 -3.8597,1.0466 -5.9369,2.7758 -5.3276,4.4263 -10.057,13.259 -2.9064,20.842 6.8901,7.3061 16.947,5.8542 20.353,4.0877 4.5836,-2.3692 4.5157,-7.1528 4.1943,-8.306 -1.1586,-4.169 -4.3397,-5.3329 -6.3635,-5.1009 -2.4425,0.28264 -7.1714,1.8305 -9.9579,-1.9145 -2.3638,-3.1771 -0.23465,-7.7581 2.1505,-9.3726 0.97859,-0.67195 0.95193,-2.0998 -0.29998,-2.8065 -0.29731,-0.16799 -0.72394,-0.24398 -1.2346,-0.20532 z"
       fill="#157ce0"
       filter="url(#e)"
       id="path31" />
    <path
       d="m 34.001,15.994 c -1.1039,0 -1.9998,0.89593 -1.9998,1.9998 0,1.1039 0.89593,1.9998 1.9998,1.9998 1.1039,0 1.9998,-0.89593 1.9998,-1.9998 0,-1.1039 -0.89593,-1.9998 -1.9998,-1.9998 m 6.6662,0 c -1.1039,0 -1.9998,0.89593 -1.9998,1.9998 0,1.1039 0.89593,1.9998 1.9998,1.9998 1.1039,0 1.9998,-0.89593 1.9998,-1.9998 0,-1.1039 -0.89593,-1.9998 -1.9998,-1.9998 m 5.3329,2.6665 c -1.1039,0 -1.9998,0.89593 -1.9998,1.9998 0,1.1039 0.89593,1.9998 1.9998,1.9998 1.1039,0 1.9998,-0.89593 1.9998,-1.9998 0,-1.1039 -0.89593,-1.9998 -1.9998,-1.9998 m -17.527,0.20532 c -1.5265,0.08799 -3.8597,1.0466 -5.9369,2.7758 -5.3276,4.4263 -10.057,13.259 -2.9064,20.842 6.8901,7.3061 16.947,5.8542 20.353,4.0877 4.5836,-2.3692 4.5157,-7.1528 4.1943,-8.306 -1.1586,-4.169 -4.3397,-5.3329 -6.3635,-5.1009 -2.4425,0.28264 -7.1714,1.8305 -9.9579,-1.9145 -2.3638,-3.1771 -0.23465,-7.7581 2.1505,-9.3726 0.97859,-0.67195 0.95193,-2.0998 -0.29998,-2.8065 -0.29731,-0.16799 -0.72394,-0.24398 -1.2346,-0.20532 z"
       fill="url(#linearGradient962)"
       id="path33"
       style="fill:url(#linearGradient962)" />
  </g>
</svg>
