<?xml version="1.0" encoding="UTF-8" standalone="no"?>
<svg
   xmlns:dc="http://purl.org/dc/elements/1.1/"
   xmlns:cc="http://creativecommons.org/ns#"
   xmlns:rdf="http://www.w3.org/1999/02/22-rdf-syntax-ns#"
   xmlns:svg="http://www.w3.org/2000/svg"
   xmlns="http://www.w3.org/2000/svg"
   xmlns:xlink="http://www.w3.org/1999/xlink"
   xmlns:sodipodi="http://sodipodi.sourceforge.net/DTD/sodipodi-0.dtd"
   xmlns:inkscape="http://www.inkscape.org/namespaces/inkscape"
   inkscape:version="1.0.2 (e86c870879, 2021-01-15)"
   sodipodi:docname="preferences-desktop-emoticons.svg"
   viewBox="0 0 64 64"
   version="1.1"
   image-rendering="optimizeSpeed"
   enable-background="new 0 0 1024 1024"
   height="64"
   width="64"
   id="Iterm">
  <metadata
     id="metadata45">
    <rdf:RDF>
      <cc:Work
         rdf:about="">
        <dc:format>image/svg+xml</dc:format>
        <dc:type
           rdf:resource="http://purl.org/dc/dcmitype/StillImage" />
        <dc:title></dc:title>
      </cc:Work>
    </rdf:RDF>
  </metadata>
  <sodipodi:namedview
     inkscape:current-layer="Iterm"
     inkscape:window-maximized="1"
     inkscape:window-y="38"
     inkscape:window-x="0"
     inkscape:cy="26.72708"
     inkscape:cx="34.657343"
     inkscape:zoom="4.5906698"
     showgrid="false"
     id="namedview43"
     inkscape:window-height="938"
     inkscape:window-width="1920"
     inkscape:pageshadow="2"
     inkscape:pageopacity="0"
     guidetolerance="10"
     gridtolerance="10"
     objecttolerance="10"
     borderopacity="1"
     bordercolor="#666666"
     pagecolor="#ffffff"
     inkscape:document-rotation="0" />
  <defs
     id="defs19">
    <linearGradient
       gradientUnits="userSpaceOnUse"
       gradientTransform="matrix(3.7796,0,0,3.7796,-5.3439318,-27.929029)"
       y2="1.852"
       y1="15.081"
       x2="7.9373"
       x1="7.9373"
       id="linearGradient862">
      <stop
         id="stop2"
         offset="0"
         stop-color="#e6e6e6" />
      <stop
         id="stop4"
         offset="1"
         stop-color="#fff" />
    </linearGradient>
    <linearGradient
       xlink:href="#linearGradient4207"
       gradientUnits="userSpaceOnUse"
       gradientTransform="translate(-371.07,-499.41)"
       y2="534.8"
       y1="538.8"
       x2="0"
       id="linearGradient4213" />
    <linearGradient
       id="linearGradient4207">
      <stop
         id="stop8"
         offset="0"
         stop-color="#814b13" />
      <stop
         id="stop10"
         offset="1"
         stop-color="#9d5b17" />
    </linearGradient>
    <linearGradient
       xlink:href="#linearGradient4207"
       gradientUnits="userSpaceOnUse"
       gradientTransform="translate(-371.07,-499.41)"
       y2="524.8"
       y1="528.8"
       x2="0"
       id="linearGradient882" />
    <linearGradient
       gradientUnits="userSpaceOnUse"
       y2="43.477"
       y1="20.91"
       x2="29.234"
       x1="29.234"
       id="linearGradient905">
      <stop
         id="stop14"
         offset="0"
         stop-color="#ffe999" />
      <stop
         id="stop16"
         offset="1"
         stop-color="#ffb633" />
    </linearGradient>
    <linearGradient
       y2="524.8"
       x2="0"
       y1="528.8"
       gradientTransform="translate(-371.07,-499.41)"
       gradientUnits="userSpaceOnUse"
       id="linearGradient870"
       xlink:href="#linearGradient4207"
       inkscape:collect="always" />
    <linearGradient
       id="c"
       x1="200"
       x2="200"
       y1="268"
       y2="44"
       gradientTransform="matrix(0.086563,0,0,0.086563,-19.285,288.52)"
       gradientUnits="userSpaceOnUse">
      <stop
         stop-color="#e6e6e6"
         offset="0"
         id="stop854" />
      <stop
         stop-color="#d3d3d3"
         offset="1"
         id="stop856" />
    </linearGradient>
    <linearGradient
       id="d"
       x1="152"
       x2="152"
       y1="100"
       y2="212"
       gradientTransform="translate(-64,-68)"
       gradientUnits="userSpaceOnUse">
      <stop
         stop-opacity="0"
         offset="0"
         id="stop859" />
      <stop
         offset=".5"
         id="stop861" />
      <stop
         stop-opacity="0"
         offset="1"
         id="stop863" />
    </linearGradient>
    <filter
       id="a"
       x="-.024"
       y="-.024"
       width="1.048"
       height="1.048"
       color-interpolation-filters="sRGB">
      <feGaussianBlur
         stdDeviation="1.5000091"
         id="feGaussianBlur866" />
    </filter>
    <linearGradient
       id="b"
       x1="152"
       x2="152"
       y1="124"
       y2="236"
       gradientUnits="userSpaceOnUse">
      <stop
         offset="0"
         id="stop869" />
      <stop
         stop-opacity="0"
         offset="1"
         id="stop871" />
    </linearGradient>
    <clipPath
       id="f">
      <path
         d="m152 68c-48.601 0-88 39.399-88 88s39.399 88 88 88 88-39.399 88-88-39.399-88-88-88z"
         color="#000000"
         fill="#5d5d5d"
         id="path874" />
    </clipPath>
    <filter
       id="e"
       x="-.06"
       y="-.06"
       width="1.12"
       height="1.12"
       color-interpolation-filters="sRGB">
      <feGaussianBlur
         stdDeviation="4.4"
         id="feGaussianBlur877" />
    </filter>
    <linearGradient
       id="linearGradient825"
       x1="-741.83002"
       x2="-741.83002"
       y1="959.04999"
       y2="93.835999"
       gradientTransform="matrix(0.06680372,0,0,0.06680372,80.249417,-2.3477563)"
       gradientUnits="userSpaceOnUse">
      <stop
         stop-color="#ccd4da"
         offset="0"
         id="stop9" />
      <stop
         stop-color="#fff"
         offset="1"
         id="stop11" />
    </linearGradient>
    <linearGradient
       id="linearGradient835"
       x1="-738.76001"
       x2="-738.76001"
       y1="931.42999"
       y2="152.13"
       gradientTransform="matrix(0.06680372,0,0,0.06680372,80.249417,-2.3477563)"
       gradientUnits="userSpaceOnUse">
      <stop
         stop-color="#dfe3e8"
         offset="0"
         id="stop14-3" />
      <stop
         stop-color="#fefeff"
         offset="1"
         id="stop16-6" />
    </linearGradient>
    <linearGradient
       id="e-3"
       x1="32"
       x2="32"
       y1="-3.5762999"
       y2="57"
       gradientTransform="translate(-93.831,13.017)"
       gradientUnits="userSpaceOnUse"
       xlink:href="#a-3" />
    <linearGradient
       id="a-3">
      <stop
         stop-color="#111"
         offset="0"
         id="stop4-7" />
      <stop
         stop-color="#626262"
         offset="1"
         id="stop6" />
    </linearGradient>
    <linearGradient
       id="b-5"
       x1="124.73"
       x2="124.87"
       y1="193.81"
       y2="232.94"
       gradientTransform="matrix(1.3333,0,0,1.3333,-228.33,-240.93)"
       gradientUnits="userSpaceOnUse"
       xlink:href="#a-3" />
    <linearGradient
       gradientTransform="matrix(0.95009,0,0,0.95009,230.57883,193.89727)"
       id="linearGradient1058"
       x1="-183.25999"
       x2="-133.33"
       y1="-122.79"
       y2="-134.57001"
       gradientUnits="userSpaceOnUse">
      <stop
         stop-color="#3c8cff"
         offset="0"
         id="stop4-6" />
      <stop
         stop-color="#55b4ff"
         offset="1"
         id="stop6-7" />
    </linearGradient>
    <linearGradient
       id="linearGradient873"
       x1="-48.646"
       x2="-32.771999"
       y1="-6.3007002"
       y2="9.5740004"
       gradientTransform="matrix(3.779602,0,0,3.779602,185.86345,25.81351)"
       gradientUnits="userSpaceOnUse">
      <stop
         style="stop-color:#fefeff;stop-opacity:1"
         stop-color="#28afea"
         offset="0"
         id="stop2-5" />
      <stop
         style="stop-color:#e0e4e9;stop-opacity:1"
         stop-color="#838be4"
         offset="1"
         id="stop4-5" />
    </linearGradient>
    <style
       type="text/css"
       id="style880" />
    <linearGradient
       id="linearGradient919"
       x1="4.3106"
       x2="14.36"
       y1="8.4665"
       y2="8.4665"
       gradientTransform="translate(9.9041,-18.316)"
       gradientUnits="userSpaceOnUse">
      <stop
         stop-color="#3c8cff"
         offset="0"
         id="stop882" />
      <stop
         stop-color="#55b4ff"
         offset="1"
         id="stop884" />
    </linearGradient>
    <linearGradient
       id="linearGradient1448"
       x1="3.9687"
       x2="3.9687"
       y1="16.385"
       y2=".54085"
       gradientTransform="matrix(3.46461,0,0,3.46461,2.6662085,2.6663588)"
       gradientUnits="userSpaceOnUse">
      <stop
         stop-color="#cfdef0"
         offset="0"
         id="stop887" />
      <stop
         stop-color="#f5faff"
         offset="1"
         id="stop889" />
    </linearGradient>
  </defs>
  <mask
     id="mask24">
    <g
       id="g">
      <path
         id="path21"
         fill="#fff"
         d="m969.75 392.05c-1.1-4.35-2.35-9-3.65-13.6-1-3.4-2-6.85-3.15-10.5-1.6-5.15-3.4-10.5-5.3-15.85-6.45-18.25-14.15-36.05-23.15-53.65-3.8-7.4-7.95-14.95-12.3-22.4-20.3-34.5-45.8-67.2-76.35-97.75-72.6-72.6-157.15-116.65-253.65-132.05-16.25-2.6-32.8-4.4-50.05-5.35-9.7-0.55-19.85-0.85-30.1-0.85-9.35 0-18.6 0.25-27.9 0.75-118.35 6.1-220.3 51.95-305.85 137.5q-138.25 138.25-138.25 333.75c0 130.35 46.1 241.65 138.25 333.8 56.7 56.65 120.55 95.9 191.1 117.55 36.75 11.25 74.8 17.85 114.75 19.95h0.4c8.5 0.45 16.6 0.7 24.5 0.7h3c10.3 0 20.5-0.3 30.1-0.8 2.5-0.15 4.75-0.3 6.95-0.45 20.2-1.45 39.9-4.05 58.7-7.7 7.95-1.55 15.8-3.3 23.4-5.15 80.8-20.3 152.15-61.6 214.65-124.1 48.6-48.6 84.4-102.5 107.35-161.8 18.45-47.65 28.65-98.8 30.55-153.5 0.2-6.05 0.3-12.25 0.3-18.5v-3c-0.2-40.65-4.95-79.5-14.3-117z" />
    </g>
  </mask>
  <rect
     x="4.4996166"
     y="4.4996166"
     width="55.000767"
     height="55.000767"
     ry="12.999942"
     fill="url(#linearGradient1448)"
     stroke-opacity="0.95294"
     stroke-width="0.314281"
     id="rect928"
     style="fill:url(#linearGradient1448)" />
  <g
     id="g40"
     transform="matrix(1.4285714,0,0,1.4285714,-10.13857,-14.264285)">
    <rect
       style="fill:url(#linearGradient905)"
       id="rect32"
       fill="url(#linearGradient905)"
       ry="14"
       rx="14"
       height="28"
       width="28"
       y="18.385"
       x="15.497" />
    <circle
       r="2"
       style="fill:url(#linearGradient870)"
       id="ellipse34"
       stroke-width="5.0394"
       fill="url(#linearGradient882)"
       cy="27.385"
       cx="24.497" />
    <circle
       r="2"
       style="fill:url(#linearGradient882)"
       id="ellipse36"
       stroke-width="5.0394"
       fill="url(#linearGradient882)"
       cy="27.385"
       cx="34.497002" />
    <path
       style="fill:url(#linearGradient4213)"
       id="path38"
       stroke-width="1.2312"
       fill="url(#linearGradient4213)"
       d="m 24.171,35.692 a 6.1563,7.3876 0 0 0 5.3266,3.6938 6.1563,7.3876 0 0 0 5.3218,-3.6938 h -0.7479 a 6.1563,7.3876 0 0 1 -4.5739,2.4625 6.1563,7.3876 0 0 1 -4.5763,-2.4625 z" />
  </g>
  <g
     fill="#5e4aa6"
     id="g926"
     transform="matrix(3.779602,0,0,3.779602,-60.254352,-0.00377983)">
    <g
       stroke-width="0.26458"
       id="g904">
      <circle
         cx="-330.35001"
         cy="-328.38"
         r="0"
         id="circle896" />
      <circle
         cx="-330.35001"
         cy="-328.37"
         r="0"
         id="circle898" />
      <circle
         cx="-330.35001"
         cy="-328.37"
         r="0"
         id="circle900" />
      <circle
         cx="-352.63"
         cy="-336.82999"
         r="0"
         id="circle902" />
    </g>
    <g
       transform="translate(32.665,-10.979)"
       stroke-width="0.26458"
       id="g914">
      <circle
         cx="-330.35001"
         cy="-328.38"
         r="0"
         id="circle906" />
      <circle
         cx="-312.10999"
         cy="-326.25"
         r="0"
         id="circle908" />
      <circle
         cx="-306.01999"
         cy="-333.07001"
         r="0"
         id="circle910" />
      <circle
         cx="-308.84"
         cy="-326.01001"
         r="0"
         id="circle912" />
    </g>
    <g
       transform="translate(-39.276,0.89826)"
       stroke-width="0.26458"
       id="g924">
      <circle
         cx="-330.35001"
         cy="-328.38"
         r="0"
         id="circle916" />
      <circle
         cx="-312.10999"
         cy="-326.25"
         r="0"
         id="circle918" />
      <circle
         cx="-306.01999"
         cy="-333.07001"
         r="0"
         id="circle920" />
      <circle
         cx="-308.84"
         cy="-326.01001"
         r="0"
         id="circle922" />
    </g>
  </g>
</svg>
