<?xml version="1.0" encoding="UTF-8"?>
<svg width="64" height="64" version="1.1" viewBox="0 0 64 64" xmlns="http://www.w3.org/2000/svg" xmlns:cc="http://creativecommons.org/ns#" xmlns:dc="http://purl.org/dc/elements/1.1/" xmlns:rdf="http://www.w3.org/1999/02/22-rdf-syntax-ns#">
 <metadata>
  <rdf:RDF>
   <cc:Work rdf:about="">
    <dc:format>image/svg+xml</dc:format>
    <dc:type rdf:resource="http://purl.org/dc/dcmitype/StillImage"/>
    <dc:title/>
   </cc:Work>
  </rdf:RDF>
 </metadata>
 <defs>
  <linearGradient id="a" x1="32" x2="32" y1="13" y2="51" gradientUnits="userSpaceOnUse">
   <stop stop-color="#4265ce" offset="0"/>
   <stop stop-color="#429cce" offset="1"/>
  </linearGradient>
  <linearGradient id="linearGradient1448" x1="3.9687" x2="3.9687" y1="13.958" y2=".54085" gradientTransform="matrix(3.4646 0 0 3.4646 2.6661 2.6661)" gradientUnits="userSpaceOnUse">
   <stop stop-color="#e6e6e6" offset="0"/>
   <stop stop-color="#f0f0f0" offset="1"/>
  </linearGradient>
 </defs>
 <rect x="4.4995" y="4.4995" width="55.001" height="55.001" ry="13" fill="url(#linearGradient1448)" stroke-opacity=".95294" stroke-width=".31428"/>
 <g transform="matrix(1.0526 0 0 1.0526 -1.6844 -1.6838)">
  <path d="m32 13c-2.5333 0-6.3333 2.5333-6.3333 7.6001 0 8.8669 20.267 3.8001 20.267 22.8 0 0.52315-0.0342 1.0501-0.08613 1.5757 3.3021-3.5151 5.1503-8.1537 5.1527-12.976 0.0062-10.493-8.5068-19-18.999-19zm-13.856 6.0346c-3.2958 3.5138-5.1401 8.1487-5.1438 12.965-0.0063 10.493 8.5068 19 18.999 19 2.5333 0 6.3333-2.5333 6.3333-7.6001 0-12.667-20.267-6.3335-20.267-22.8 0-0.52315 0.02914-1.045 0.07727-1.5657z" fill="url(#a)" stroke-width="1.2391"/>
 </g>
 <g transform="translate(70.284 -9.9659e-5)" fill="#5e4aa6">
  <g transform="matrix(3.7796,0,0,3.7796,-71.985,-28.735)" stroke-width=".26458">
   <circle cx="-330.35" cy="-328.38" r="0"/>
   <circle cx="-312.11" cy="-326.25" r="0"/>
   <circle cx="-306.02" cy="-333.07" r="0"/>
   <circle cx="-308.84" cy="-326.01" r="0"/>
  </g>
  <circle cx="-1328.7" cy="-1277.1" r="0"/>
  <circle cx="-229.1" cy="-11.553" r="0" fill-rule="evenodd"/>
 </g>
</svg>
