<?xml version="1.0" encoding="UTF-8"?>
<svg width="64" height="64" version="1.1" xmlns="http://www.w3.org/2000/svg" xmlns:cc="http://creativecommons.org/ns#" xmlns:dc="http://purl.org/dc/elements/1.1/" xmlns:rdf="http://www.w3.org/1999/02/22-rdf-syntax-ns#" xmlns:xlink="http://www.w3.org/1999/xlink">
 <metadata>
  <rdf:RDF>
   <cc:Work rdf:about="">
    <dc:format>image/svg+xml</dc:format>
    <dc:type rdf:resource="http://purl.org/dc/dcmitype/StillImage"/>
    <dc:title/>
   </cc:Work>
  </rdf:RDF>
 </metadata>
 <defs>
  <linearGradient id="b" x1="46.168" x2="46.168" y1="57" y2="27.346" gradientTransform="matrix(1.1 0 0 1.1 -3.1997 -3.1997)" gradientUnits="userSpaceOnUse">
   <stop offset="0"/>
   <stop stop-opacity="0" offset="1"/>
  </linearGradient>
 </defs>
 <rect x="4.4995" y="4.4995" width="55.001" height="55.001" ry="13" fill="#4d4d4d" stroke-opacity=".95294" stroke-width=".31428"/>
 <path d="m32.002 4.5v27.498h27.498v-14.498c0-7.202-5.798-13-13-13zm-27.502 27.502v14.498c0 7.202 5.798 13 13 13h14.502v-27.498z" fill="#1f8fd7"/>
 <path d="m59.5 26.881a49.5 49.5 0 0 1-23.83 32.619h10.83c7.202 0 13-5.798 13-13v-19.619z" fill="url(#b)" opacity=".25" stroke-width="3.9995"/>
 <g fill="#fff" stroke-width="3.9995">
  <path d="m18.253 10.2 2.2866 4.8768 5.1138 0.78162-3.7002 3.7917 0.87308 5.3632-4.5733-2.5361-4.5774 2.5361 0.87308-5.3632-3.7002-3.7917 5.1138-0.78162z"/>
  <circle cx="45.751" cy="18.249" r="6.3444"/>
  <path d="m39.407 39.402h12.693v12.693h-12.693z"/>
  <circle cx="18.249" cy="45.751" r="6.3444"/>
 </g>
 <g transform="matrix(3.7796 0 0 3.7796 96.027 -10.983)" fill="#5e4aa6" stroke-width=".26458">
  <circle cx="-330.35" cy="-328.38" r="0"/>
  <circle cx="-312.11" cy="-326.25" r="0"/>
  <circle cx="-306.02" cy="-333.07" r="0"/>
  <circle cx="-308.84" cy="-326.01" r="0"/>
 </g>
</svg>
