<?xml version="1.0" encoding="UTF-8" standalone="no"?>
<svg
   xmlns:dc="http://purl.org/dc/elements/1.1/"
   xmlns:cc="http://creativecommons.org/ns#"
   xmlns:rdf="http://www.w3.org/1999/02/22-rdf-syntax-ns#"
   xmlns:svg="http://www.w3.org/2000/svg"
   xmlns="http://www.w3.org/2000/svg"
   xmlns:xlink="http://www.w3.org/1999/xlink"
   xmlns:sodipodi="http://sodipodi.sourceforge.net/DTD/sodipodi-0.dtd"
   xmlns:inkscape="http://www.inkscape.org/namespaces/inkscape"
   height="64"
   width="64"
   version="1.1"
   id="svg8"
   sodipodi:docname="zotero.svg"
   inkscape:version="1.0.2 (e86c870879, 2021-01-15)">
  <metadata
     id="metadata14">
    <rdf:RDF>
      <cc:Work
         rdf:about="">
        <dc:format>image/svg+xml</dc:format>
        <dc:type
           rdf:resource="http://purl.org/dc/dcmitype/StillImage" />
        <dc:title></dc:title>
      </cc:Work>
    </rdf:RDF>
  </metadata>
  <defs
     id="defs12">
    <radialGradient
       gradientUnits="userSpaceOnUse"
       gradientTransform="matrix(0.057428,0,0,0.057428,103.83996,56.098396)"
       r="470.16"
       cy="512.01"
       cx="512.01"
       id="a-3">
      <stop
         id="stop4"
         offset="0"
         stop-color="#14c878" />
      <stop
         id="stop6"
         offset="1"
         stop-color="#149632" />
    </radialGradient>
    <linearGradient
       id="a"
       x1="-6.1472"
       x2="-6.1472"
       y1="-137.82"
       y2="-100.78"
       gradientTransform="matrix(2.0044363,0,0,2.0044363,43.49944,271.60788)"
       gradientUnits="userSpaceOnUse">
      <stop
         stop-color="#ff8214"
         offset="0"
         id="stop864" />
      <stop
         stop-color="#ff6464"
         offset="1"
         id="stop866" />
    </linearGradient>
    <clipPath
       id="SVGID_2_">
      <use
         width="100%"
         height="100%"
         xlink:href="#SVGID_1_"
         id="use869" />
    </clipPath>
    <rect
       id="SVGID_1_"
       x="247.79"
       y="352.04"
       width="99.69"
       height="99.8" />
    <linearGradient
       id="a-36"
       x1="-6.1472"
       x2="-6.1472"
       y1="-137.82"
       y2="-100.78"
       gradientTransform="matrix(2.0044363,0,0,2.0044363,43.499439,271.60788)"
       gradientUnits="userSpaceOnUse">
      <stop
         stop-color="#14dc78"
         offset="0"
         id="stop908" />
      <stop
         stop-color="#14a03c"
         offset="1"
         id="stop910" />
    </linearGradient>
    <linearGradient
       id="linearGradient1092"
       x1="10.973"
       x2="36.937"
       y1="24"
       y2="24"
       gradientTransform="matrix(1.0014,0,0,1.0026,-88.438,0.43837)"
       gradientUnits="userSpaceOnUse">
      <stop
         stop-color="#2a2c2f"
         offset="0"
         id="stop858" />
      <stop
         stop-color="#424649"
         offset="1"
         id="stop860" />
    </linearGradient>
    <linearGradient
       id="linearGradient1094"
       x1="319.21"
       x2="657.65"
       y1="235.15"
       y2="269.49"
       gradientTransform="matrix(0.088238,0,0,0.087173,-107.37,3.3915)"
       gradientUnits="userSpaceOnUse">
      <stop
         stop-color="#e54c18"
         offset="0"
         id="stop863" />
      <stop
         stop-color="#fec350"
         offset="1"
         id="stop865" />
    </linearGradient>
    <style
       type="text/css"
       id="style868" />
    <style
       type="text/css"
       id="style870" />
    <linearGradient
       id="linearGradient1115"
       x1="-29.448"
       x2="-29.448"
       y1="4.6371"
       y2="59.494"
       gradientTransform="translate(63.692996)"
       gradientUnits="userSpaceOnUse">
      <stop
         stop-color="#fff"
         offset="0"
         id="stop872" />
      <stop
         stop-color="#ccd4da"
         offset="1"
         id="stop874" />
    </linearGradient>
  </defs>
  <sodipodi:namedview
     inkscape:document-rotation="0"
     pagecolor="#c8c8c8"
     bordercolor="#666666"
     borderopacity="1"
     objecttolerance="10"
     gridtolerance="10"
     guidetolerance="10"
     inkscape:pageopacity="0"
     inkscape:pageshadow="2"
     inkscape:window-width="1920"
     inkscape:window-height="935"
     id="namedview10"
     showgrid="false"
     inkscape:zoom="5.6568542"
     inkscape:cx="34.241916"
     inkscape:cy="36.635438"
     inkscape:window-x="0"
     inkscape:window-y="38"
     inkscape:window-maximized="1"
     inkscape:current-layer="svg8" />
  <rect
     x="4.5"
     y="4.5"
     width="55"
     height="55"
     ry="13"
     fill="url(#linearGradient1115)"
     image-rendering="optimizeSpeed"
     stroke-width="0.47291"
     id="rect895"
     style="fill:url(#linearGradient1115)" />
  <g
     style="image-rendering:optimizeSpeed"
     id="g19"
     fill="#5e4aa6"
     transform="translate(91.864184,1.335144e-5)">
    <circle
       id="circle11"
       r="0"
       cy="-1241.6"
       cx="-1248.7" />
    <circle
       id="circle13"
       fill-rule="evenodd"
       r="0"
       cy="23.855"
       cx="-149.14999" />
    <circle
       id="circle15"
       r="0"
       cy="-1241.6"
       cx="-1248.7" />
    <circle
       id="circle17"
       fill-rule="evenodd"
       r="0"
       cy="23.855"
       cx="-149.14999" />
  </g>
  <circle
     cx="-1248.6936"
     cy="-1241.6389"
     r="0"
     fill="#5e4aa6"
     stroke-width="1.00001"
     id="circle875" />
  <circle
     cx="-149.14687"
     cy="23.855019"
     r="0"
     fill="#5e4aa6"
     fill-rule="evenodd"
     stroke-width="1.00001"
     id="ellipse877" />
  <circle
     cx="-1316.1913"
     cy="-1241.6389"
     r="0"
     fill="#5e4aa6"
     stroke-width="1.00001"
     id="circle915" />
  <circle
     cx="-216.6445"
     cy="23.855019"
     r="0"
     fill="#5e4aa6"
     fill-rule="evenodd"
     stroke-width="1.00001"
     id="ellipse927" />
  <path
     inkscape:connector-curvature="0"
     id="path849"
     d=""
     style="fill:#000000;stroke-width:1.33333" />
  <path
     inkscape:connector-curvature="0"
     id="path847"
     d=""
     style="fill:#000000;stroke-width:1.33333" />
  <path
     inkscape:connector-curvature="0"
     id="path849-3"
     d=""
     style="fill:#000000;stroke-width:1.33333" />
  <path
     inkscape:connector-curvature="0"
     id="path847-6"
     d=""
     style="fill:#000000;stroke-width:1.33333" />
  <path
     d="m 19.500233,17.000032 v 4.999201 h 2.500192 14.79726 L 20.047931,42.937315 a 2.5002411,2.5002411 0 0 0 -0.01423,0.0166 2.5002411,2.5002411 0 0 0 -0.06164,0.08298 2.5002411,2.5002411 0 0 0 -0.05927,0.08535 2.5002411,2.5002411 0 0 0 -0.05571,0.08773 2.5002411,2.5002411 0 0 0 -0.05098,0.0901 2.5002411,2.5002411 0 0 0 -0.04861,0.09128 2.5002411,2.5002411 0 0 0 -0.04386,0.09365 2.5002411,2.5002411 0 0 0 -0.03913,0.09602 2.5002411,2.5002411 0 0 0 -0.03675,0.09721 2.5002411,2.5002411 0 0 0 -0.03201,0.09839 2.5002411,2.5002411 0 0 0 -0.02727,0.09958 2.5002411,2.5002411 0 0 0 -0.02371,0.100768 2.5002411,2.5002411 0 0 0 -0.02015,0.101957 2.5002411,2.5002411 0 0 0 -0.01541,0.101957 2.5002411,2.5002411 0 0 0 -0.01071,0.103136 2.5002411,2.5002411 0 0 0 -0.0071,0.104325 2.5002411,2.5002411 0 0 0 -0.0024,0.103135 2.5002411,2.5002411 0 0 0 0.0024,0.103136 2.5002411,2.5002411 0 0 0 0.006,0.103135 2.5002411,2.5002411 0 0 0 0.01071,0.103136 2.5002411,2.5002411 0 0 0 0.01423,0.103135 2.5002411,2.5002411 0 0 0 0.01896,0.101947 2.5002411,2.5002411 0 0 0 0.02252,0.100767 2.5002411,2.5002411 0 0 0 0.02727,0.09958 2.5002411,2.5002411 0 0 0 0.032,0.09958 2.5002411,2.5002411 0 0 0 0.03557,0.09721 2.5002411,2.5002411 0 0 0 0.03912,0.09484 2.5002411,2.5002411 0 0 0 0.04386,0.09484 2.5002411,2.5002411 0 0 0 0.04623,0.09247 2.5002411,2.5002411 0 0 0 0.05098,0.0901 2.5002411,2.5002411 0 0 0 0.05572,0.08773 2.5002411,2.5002411 0 0 0 0.05808,0.08535 2.5002411,2.5002411 0 0 0 0.06165,0.08298 2.5002411,2.5002411 0 0 0 0.0652,0.08061 2.5002411,2.5002411 0 0 0 0.06758,0.07825 2.5002411,2.5002411 0 0 0 0.07231,0.07469 2.5002411,2.5002411 0 0 0 0.07468,0.07113 2.5002411,2.5002411 0 0 0 0.07706,0.06875 2.5002411,2.5002411 0 0 0 0.08061,0.06639 2.5002411,2.5002411 0 0 0 0.08298,0.06165 2.5002411,2.5002411 0 0 0 0.08535,0.05809 2.5002411,2.5002411 0 0 0 0.08773,0.05571 2.5002411,2.5002411 0 0 0 0.0901,0.05098 2.5002411,2.5002411 0 0 0 0.09246,0.04742 2.5002411,2.5002411 0 0 0 0.09365,0.04386 2.5002411,2.5002411 0 0 0 0.09602,0.03912 2.5002411,2.5002411 0 0 0 0.09721,0.03556 2.5002411,2.5002411 0 0 0 0.0984,0.03201 2.5002411,2.5002411 0 0 0 0.09958,0.02727 2.5002411,2.5002411 0 0 0 0.100768,0.02371 2.5002411,2.5002411 0 0 0 0.101957,0.01896 2.5002411,2.5002411 0 0 0 0.103135,0.01423 2.5002411,2.5002411 0 0 0 0.103136,0.01071 2.5002411,2.5002411 0 0 0 0.103135,0.0071 2.5002411,2.5002411 0 0 0 0.103136,0.0024 h 20.000337 2.500194 V 41.999634 H 42.000791 27.20116 L 43.950918,21.062753 a 2.5002411,2.5002411 0 0 0 0.01304,-0.01541 2.5002411,2.5002411 0 0 0 0.06164,-0.08298 2.5002411,2.5002411 0 0 0 0.05928,-0.08535 2.5002411,2.5002411 0 0 0 0.05572,-0.08773 2.5002411,2.5002411 0 0 0 0.05097,-0.0901 2.5002411,2.5002411 0 0 0 0.04742,-0.09128 2.5002411,2.5002411 0 0 0 0.04505,-0.09365 2.5002411,2.5002411 0 0 0 0.03912,-0.09602 2.5002411,2.5002411 0 0 0 0.03675,-0.09721 2.5002411,2.5002411 0 0 0 0.03201,-0.0984 2.5002411,2.5002411 0 0 0 0.02845,-0.09958 2.5002411,2.5002411 0 0 0 0.02371,-0.100768 2.5002411,2.5002411 0 0 0 0.01897,-0.101957 2.5002411,2.5002411 0 0 0 0.01541,-0.101946 2.5002411,2.5002411 0 0 0 0.01185,-0.103136 2.5002411,2.5002411 0 0 0 0.0059,-0.103135 2.5002411,2.5002411 0 0 0 0.0036,-0.103136 2.5002411,2.5002411 0 0 0 -0.0024,-0.104325 2.5002411,2.5002411 0 0 0 -0.006,-0.103136 2.5002411,2.5002411 0 0 0 -0.01067,-0.103136 2.5002411,2.5002411 0 0 0 -0.01423,-0.101945 2.5002411,2.5002411 0 0 0 -0.01897,-0.101957 2.5002411,2.5002411 0 0 0 -0.02252,-0.101946 2.5002411,2.5002411 0 0 0 -0.02726,-0.09958 2.5002411,2.5002411 0 0 0 -0.03082,-0.0984 2.5002411,2.5002411 0 0 0 -0.03556,-0.09721 2.5002411,2.5002411 0 0 0 -0.03912,-0.09602 2.5002411,2.5002411 0 0 0 -0.04386,-0.09484 2.5002411,2.5002411 0 0 0 -0.04742,-0.09129 2.5002411,2.5002411 0 0 0 -0.04979,-0.09129 2.5002411,2.5002411 0 0 0 -0.05572,-0.08773 2.5002411,2.5002411 0 0 0 -0.05809,-0.08535 2.5002411,2.5002411 0 0 0 -0.06165,-0.08298 2.5002411,2.5002411 0 0 0 -0.0652,-0.08061 2.5002411,2.5002411 0 0 0 -0.06757,-0.07825 2.5002411,2.5002411 0 0 0 -0.07231,-0.07469 2.5002411,2.5002411 0 0 0 -0.0735,-0.07231 2.5002411,2.5002411 0 0 0 -0.07824,-0.06875 2.5002411,2.5002411 0 0 0 -0.08061,-0.0652 2.5002411,2.5002411 0 0 0 -0.0818,-0.06165 2.5002411,2.5002411 0 0 0 -0.08654,-0.05927 2.5002411,2.5002411 0 0 0 -0.08773,-0.05452 2.5002411,2.5002411 0 0 0 -0.08891,-0.05098 2.5002411,2.5002411 0 0 0 -0.09247,-0.04861 2.5002411,2.5002411 0 0 0 -0.09365,-0.04268 2.5002411,2.5002411 0 0 0 -0.09602,-0.04031 2.5002411,2.5002411 0 0 0 -0.09721,-0.03556 2.5002411,2.5002411 0 0 0 -0.0984,-0.032 2.5002411,2.5002411 0 0 0 -0.09958,-0.02727 2.5002411,2.5002411 0 0 0 -0.100767,-0.02371 2.5002411,2.5002411 0 0 0 -0.101952,-0.01896 2.5002411,2.5002411 0 0 0 -0.103137,-0.01541 2.5002411,2.5002411 0 0 0 -0.103137,-0.01071 2.5002411,2.5002411 0 0 0 -0.103137,-0.006 2.5002411,2.5002411 0 0 0 -0.103138,-0.0024 H 22.000447 Z"
     style="fill:#ff3232;fill-opacity:1;stroke-width:1.21394;stroke-linecap:round"
     id="rect969" />
  <g
     transform="translate(-315.43498,-499.8)"
     font-size="12.666px"
     id="g881">
    <text
       x="730.88"
       y="132.19"
       font-family="'Droid Sans'"
       id="text879" />
  </g>
  <rect
     x="115.11502"
     y="22.530001"
     width="0.045000002"
     height="0"
     fill="#000cff"
     opacity="0.40741"
     id="rect883" />
  <g
     transform="translate(69.135463,6.5706e-5)"
     fill="#5e4aa6"
     id="g893">
    <circle
       cx="-1469.1"
       cy="-1265.6"
       r="0"
       id="circle885" />
    <circle
       cx="-1400.2"
       cy="-1257.6"
       r="0"
       id="circle887" />
    <circle
       cx="-1377.2"
       cy="-1283.4"
       r="0"
       id="circle889" />
    <circle
       cx="-1387.8"
       cy="-1256.7"
       r="0"
       id="circle891" />
  </g>
  <g
     transform="matrix(3.7796,0,0,3.7796,-13.388977,3.3901)"
     fill="#5e4aa6"
     image-rendering="optimizeSpeed"
     stroke-width="0.26458"
     id="g905">
    <circle
       cx="-330.35001"
       cy="-328.38"
       r="0"
       id="circle897" />
    <circle
       cx="-312.10999"
       cy="-326.25"
       r="0"
       id="circle899" />
    <circle
       cx="-306.01999"
       cy="-333.07001"
       r="0"
       id="circle901" />
    <circle
       cx="-308.84"
       cy="-326.01001"
       r="0"
       id="circle903" />
  </g>
  <g
     transform="matrix(3.7796,0,0,3.7796,151.03102,-16.271)"
     fill="#5e4aa6"
     image-rendering="optimizeSpeed"
     stroke-width="0.26458"
     id="g913">
    <circle
       cx="-322.63"
       cy="-345.67001"
       r="0"
       id="circle907" />
    <circle
       cx="-31.726"
       cy="-10.849"
       r="0"
       fill-rule="evenodd"
       id="circle909" />
    <circle
       cx="-306.92001"
       cy="-328.72"
       r="0"
       id="circle911" />
  </g>
</svg>
