<?xml version="1.0" encoding="UTF-8"?>
<svg width="64" height="64" version="1.1" viewBox="0 0 64 64" xmlns="http://www.w3.org/2000/svg" xmlns:cc="http://creativecommons.org/ns#" xmlns:dc="http://purl.org/dc/elements/1.1/" xmlns:rdf="http://www.w3.org/1999/02/22-rdf-syntax-ns#">
 <metadata>
  <rdf:RDF>
   <cc:Work rdf:about="">
    <dc:format>image/svg+xml</dc:format>
    <dc:type rdf:resource="http://purl.org/dc/dcmitype/StillImage"/>
    <dc:title/>
   </cc:Work>
  </rdf:RDF>
 </metadata>
 <defs>
  <style id="current-color-scheme" type="text/css">.ColorScheme-Text { color:#565656; } .ColorScheme-Highlight { color:#5294e2; }</style>
  <style type="text/css"/>
  <style type="text/css">.ColorScheme-Text {
        color:#4d4d4d;
      }</style>
  <style type="text/css">.ColorScheme-Text {
        color:#4d4d4d;
      }</style>
  <style type="text/css"/>
  <style type="text/css">.ColorScheme-Text {
        color:#4d4d4d;
      }</style>
  <style type="text/css">.ColorScheme-Text {
        color:#4d4d4d;
      }</style>
  <style type="text/css">.ColorScheme-Text { color:#565656; } .ColorScheme-Highlight { color:#5294e2; }</style>
  <linearGradient id="linearGradient3481" x1="25" x2="25" y1="155" y2="167.78" gradientTransform="matrix(.26458 0 0 .26458 -2.3076 -56.702)" gradientUnits="userSpaceOnUse">
   <stop stop-color="#e1a000" offset="0"/>
   <stop stop-color="#af7d00" offset="1"/>
  </linearGradient>
  <linearGradient id="linearGradient3421" x1="-16.147" x2="-.24118" y1="-47.834" y2="-47.834" gradientTransform="matrix(1,0,0,1.1,15.152,44.098)" gradientUnits="userSpaceOnUse">
   <stop stop-color="#ffbe0a" offset="0"/>
   <stop stop-color="#ffdc6e" offset="1"/>
  </linearGradient>
 </defs>
 <g transform="matrix(3.7796 0 0 3.7796 5.7336 66.31)" stroke-width=".26458">
  <path d="m0.3382-15.692c-0.73288 0-1.3229 0.59-1.3229 1.3229v10.583c0 0.73288 0.59 1.3229 1.3229 1.3229h13.222c0.18322 0 0.35735-0.0371 0.51572-0.10387 0.15838-0.06676 0.30108-0.16311 0.42064-0.28266s0.2159-0.26226 0.28266-0.42064c0.06677-0.15838 0.10387-0.3325 0.10387-0.51572v-8.9957c0-0.18322-0.0371-0.35735-0.10387-0.51572-0.06676-0.15838-0.16311-0.30108-0.28266-0.42064-0.11956-0.11956-0.26226-0.2159-0.42064-0.28266s-0.3325-0.10387-0.51572-0.10387h-7.666c-0.19843 0-0.39687-0.06616-0.58703-0.1695-0.19017-0.10335-0.37206-0.24391-0.53742-0.39273-0.33072-0.29765-0.5953-0.62837-0.72759-0.76066-0.11517-0.11517-0.29264-0.18102-0.46973-0.21859-0.16944-0.03594-0.33336-0.04414-0.44648-0.04599h-0.14211z" fill="url(#linearGradient3481)"/>
  <path d="m10.776-14.105c-0.11312 0.0019-0.27704 0.01005-0.44648 0.04599-0.17709 0.03757-0.35456 0.10342-0.46973 0.21859-0.13229 0.13229-0.39687 0.46301-0.72759 0.76066-0.16536 0.14882-0.34725 0.28938-0.53742 0.39273-0.19016 0.10334-0.3886 0.1695-0.58703 0.1695h-8.2019c-0.21986 0-0.41824 0.08855-0.56171 0.23202-0.14347 0.14346-0.23202 0.34185-0.23202 0.56171v7.9373c0 0.73288 0.58999 1.3229 1.3229 1.3229h13.229c0.73288 0 1.3229-0.58999 1.3229-1.3229v-8.9957c0-0.73289-0.59001-1.3229-1.3229-1.3229z" fill="url(#linearGradient3421)"/>
  <path d="m10.776-14.105c-0.11312 0.0019-0.27704 0.01005-0.44648 0.04599-0.17709 0.03757-0.35456 0.10342-0.46973 0.21859-0.13229 0.13229-0.39687 0.46301-0.72759 0.76066-0.16536 0.14882-0.34725 0.28938-0.53742 0.39273-0.19016 0.10334-0.3886 0.1695-0.58703 0.1695h-8.2019c-0.21986 0-0.41824 0.08855-0.56171 0.23202-0.14347 0.14346-0.23202 0.34185-0.23202 0.56171v0.2651c0-0.21986 0.088553-0.41825 0.23202-0.56171 0.14347-0.14347 0.34185-0.23202 0.56171-0.23202h8.3084c0.19843 0 0.39687-0.06616 0.58703-0.1695 0.19017-0.10335 0.37206-0.24391 0.53742-0.39273 0.33072-0.29765 0.5953-0.62837 0.72759-0.76066 0.11517-0.11517 0.29264-0.18102 0.46973-0.21859 0.16944-0.03594 0.33336-0.04414 0.44648-0.04599h2.6814c0.73288 0 1.3229 0.59 1.3229 1.3229v-0.2651c0-0.73289-0.59001-1.3229-1.3229-1.3229z" fill="#ffdc78"/>
 </g>
 <path d="m32.017 30.476c-3.7316 0-4.5966 2.3257-4.4066 5.3683 0.0063 0.10056 0.02497 0.20857 0.03348 0.31064-0.0023-0.0013-0.0091-0.01436-0.01116-0.01488 0 0-1.332-0.05154-0.97656 1.2723 0.3554 1.3239 1.0301 2.7355 1.7764 2.8943 0.02518 0.0054 0.04267-0.0068 0.06325-0.01116 0.18256 0.4947 0.3871 0.93855 0.62128 1.3151v0.59896s0.23078 1.828-1.0751 2.5037c-1.306 0.67564-5.6291 2.7013-5.8612 3.0766-0.23216 0.37536-0.57934 1.4584 0.40737 1.7336h18.824c0.98673-0.27526 0.63955-1.3583 0.40737-1.7336-0.23218-0.37536-4.5554-2.4009-5.8612-3.0766-1.306-0.67564-1.0751-2.5037-1.0751-2.5037v-0.54129c0.14843-0.23256 0.29062-0.47779 0.41853-0.75707 0.06869-0.14998 0.12496-0.32963 0.18787-0.49293 0.02409 0.0081 0.04707 0.01963 0.07813 0.01302 0.74634-0.15884 1.421-1.5705 1.7764-2.8943 0.35133-1.3087-0.93752-1.2715-0.96726-1.2705 0.29357-3.2432-0.46089-5.7906-4.3601-5.7906z" fill="none" stroke="#e1a000" stroke-width=".95238"/>
</svg>
