<?xml version="1.0" encoding="UTF-8"?>
<svg width="64" height="64" version="1.1" viewBox="0 0 16.933 16.933" xmlns="http://www.w3.org/2000/svg" xmlns:cc="http://creativecommons.org/ns#" xmlns:dc="http://purl.org/dc/elements/1.1/" xmlns:rdf="http://www.w3.org/1999/02/22-rdf-syntax-ns#" xmlns:xlink="http://www.w3.org/1999/xlink">
 <defs>
  <linearGradient id="linearGradient3481" x1="25" x2="25" y1="155" y2="167.78" gradientTransform="matrix(.26458 0 0 .26458 -6.6007 -65.952)" gradientUnits="userSpaceOnUse">
   <stop stop-color="#e1a000" offset="0"/>
   <stop stop-color="#af7d00" offset="1"/>
  </linearGradient>
  <linearGradient id="linearGradient3421" x1="-16.147" x2="-.24118" y1="-47.834" y2="-47.834" gradientTransform="matrix(1 0 0 1.1 10.859 34.848)" gradientUnits="userSpaceOnUse">
   <stop stop-color="#ffbe0a" offset="0"/>
   <stop stop-color="#ffdc6e" offset="1"/>
  </linearGradient>
 </defs>
 <metadata>
  <rdf:RDF>
   <cc:Work rdf:about="">
    <dc:format>image/svg+xml</dc:format>
    <dc:type rdf:resource="http://purl.org/dc/dcmitype/StillImage"/>
    <dc:title/>
   </cc:Work>
  </rdf:RDF>
 </metadata>
 <g transform="translate(5.8103 26.794)" stroke-width=".26458">
  <path d="m-3.9549-24.942c-0.73288 0-1.3229 0.59-1.3229 1.3229v10.583c0 0.73288 0.59 1.3229 1.3229 1.3229h13.222c0.18322 0 0.35735-0.0371 0.51572-0.10387 0.15838-0.06676 0.30108-0.16311 0.42064-0.28266s0.2159-0.26226 0.28266-0.42064c0.06677-0.15838 0.10387-0.3325 0.10387-0.51572v-8.9957c0-0.18322-0.0371-0.35735-0.10387-0.51572-0.06676-0.15838-0.16311-0.30108-0.28266-0.42064-0.11956-0.11956-0.26226-0.2159-0.42064-0.28266-0.15838-0.06676-0.3325-0.10387-0.51572-0.10387h-7.666c-0.19843 0-0.39687-0.06616-0.58703-0.1695-0.19017-0.10335-0.37206-0.24391-0.53742-0.39273-0.33072-0.29765-0.5953-0.62837-0.72759-0.76066-0.11517-0.11517-0.29264-0.18102-0.46973-0.21859-0.16944-0.03594-0.33336-0.04414-0.44648-0.04599h-0.14211z" fill="url(#linearGradient3481)"/>
  <path d="m6.4827-23.354c-0.11312 0.0019-0.27704 0.01005-0.44648 0.04599-0.17709 0.03757-0.35456 0.10342-0.46973 0.21859-0.13229 0.13229-0.39687 0.46301-0.72759 0.76066-0.16536 0.14882-0.34725 0.28938-0.53742 0.39273-0.19016 0.10334-0.3886 0.1695-0.58703 0.1695h-8.2019c-0.21986 0-0.41824 0.08855-0.56171 0.23202-0.14347 0.14346-0.23202 0.34185-0.23202 0.56171v7.9373c0 0.73288 0.58999 1.3229 1.3229 1.3229h13.229c0.73288 0 1.3229-0.58999 1.3229-1.3229v-8.9957c0-0.73289-0.59001-1.3229-1.3229-1.3229z" fill="url(#linearGradient3421)"/>
  <path d="m6.4827-23.354c-0.11312 0.0019-0.27704 0.01005-0.44648 0.04599-0.17709 0.03757-0.35456 0.10342-0.46973 0.21859-0.13229 0.13229-0.39687 0.46301-0.72759 0.76066-0.16536 0.14882-0.34725 0.28938-0.53742 0.39273-0.19016 0.10334-0.3886 0.1695-0.58703 0.1695h-8.2019c-0.21986 0-0.41824 0.08855-0.56171 0.23202-0.14347 0.14346-0.23202 0.34185-0.23202 0.56171v0.26509c0-0.21986 0.088553-0.41825 0.23202-0.56171 0.14347-0.14347 0.34185-0.23202 0.56171-0.23202h8.3084c0.19843 0 0.39687-0.06616 0.58703-0.1695 0.19017-0.10335 0.37206-0.24391 0.53742-0.39273 0.33072-0.29765 0.5953-0.62837 0.72759-0.76066 0.11517-0.11517 0.29264-0.18102 0.46973-0.21859 0.16944-0.03594 0.33336-0.04414 0.44648-0.04599h2.6814c0.73288 0 1.3229 0.59 1.3229 1.3229v-0.2651c0-0.73289-0.59001-1.3229-1.3229-1.3229z" fill="#ffdc78"/>
 </g>
 <g fill="#5e4aa6" stroke-width=".26458">
  <circle cx="-330.35" cy="-328.38" r="0"/>
  <circle cx="-312.11" cy="-326.25" r="0"/>
  <circle cx="-306.02" cy="-333.07" r="0"/>
  <circle cx="-308.84" cy="-326.01" r="0"/>
  <circle cx="-328.8" cy="-330.45" r="0"/>
  <g transform="translate(-1.4001e-4,5e-6)">
   <circle cx="-330.35" cy="-328.38" r="0"/>
   <circle cx="-312.11" cy="-326.25" r="0"/>
   <circle cx="-306.02" cy="-333.07" r="0"/>
   <circle cx="-308.84" cy="-326.01" r="0"/>
   <circle cx="-328.8" cy="-330.45" r="0"/>
  </g>
  <g transform="translate(.000295 -.00032978)">
   <circle cx="-330.35" cy="-328.38" r="0"/>
   <circle cx="-312.11" cy="-326.25" r="0"/>
   <circle cx="-306.02" cy="-333.07" r="0"/>
   <circle cx="-308.84" cy="-326.01" r="0"/>
   <circle cx="-328.8" cy="-330.45" r="0"/>
  </g>
 </g>
 <path d="m11.245 8.9957c0-0.29315-0.236-0.52916-0.52916-0.52916h-4.4979c-0.29316 0-0.52916 0.23601-0.52916 0.52916v3.4395c0 0.29316 0.236 0.52916 0.52916 0.52916h4.4979c0.29316 0 0.52916-0.236 0.52916-0.52916zm-0.26458 0v3.4395c0 0.14658-0.118 0.26458-0.26458 0.26458h-4.4979c-0.14658 0-0.26458-0.118-0.26458-0.26458v-3.4395c0-0.14658 0.118-0.26458 0.26458-0.26458h4.4979c0.14658 0 0.26458 0.118 0.26458 0.26458z" fill="#e1a000" stroke-width=".26458"/>
 <path d="m10.054 8.9957a0.52916 0.52916 0 0 0-0.52916 0.52916 0.52916 0.52916 0 0 0 0.52916 0.52916 0.52916 0.52916 0 0 0 0.52916-0.52916 0.52916 0.52916 0 0 0-0.52916-0.52916zm0 0.26458a0.26458 0.26458 0 0 1 0.26458 0.26458 0.26458 0.26458 0 0 1-0.26458 0.26458 0.26458 0.26458 0 0 1-0.26458-0.26458 0.26458 0.26458 0 0 1 0.26458-0.26458z" fill="#e1a000" stroke-width=".26458"/>
 <g transform="translate(.064609)" fill="none" stroke="#e1a000" stroke-linecap="round" stroke-linejoin="round" stroke-width=".26458px">
  <path d="m6.0853 11.641 1.0583-1.3229 1.5875 2.1166"/>
  <path d="m8.3365 11.377 0.79373-1.0583 1.5875 1.852"/>
 </g>
</svg>
