<?xml version="1.0" encoding="UTF-8"?>
<svg width="64" height="64" version="1.1" xmlns="http://www.w3.org/2000/svg" xmlns:cc="http://creativecommons.org/ns#" xmlns:dc="http://purl.org/dc/elements/1.1/" xmlns:rdf="http://www.w3.org/1999/02/22-rdf-syntax-ns#">
 <metadata>
  <rdf:RDF>
   <cc:Work rdf:about="">
    <dc:format>image/svg+xml</dc:format>
    <dc:type rdf:resource="http://purl.org/dc/dcmitype/StillImage"/>
    <dc:title/>
   </cc:Work>
  </rdf:RDF>
 </metadata>
 <defs>
  <style type="text/css"/>
  <style type="text/css"/>
  <style type="text/css"/>
  <style id="current-color-scheme" type="text/css">.ColorScheme-Text {
        color:#4d4d4d;
      }</style>
  <style type="text/css">.ColorScheme-Text {
        color:#4d4d4d;
      }</style>
  <linearGradient id="linearGradient3481" x1="25" x2="25" y1="155" y2="167.78" gradientTransform="matrix(.26458 0 0 .26458 -2.3076 -56.702)" gradientUnits="userSpaceOnUse">
   <stop stop-color="#e1a000" offset="0"/>
   <stop stop-color="#af7d00" offset="1"/>
  </linearGradient>
  <linearGradient id="linearGradient3421" x1="-16.147" x2="-.24118" y1="-47.834" y2="-47.834" gradientTransform="matrix(1,0,0,1.1,15.152,44.098)" gradientUnits="userSpaceOnUse">
   <stop stop-color="#ffbe0a" offset="0"/>
   <stop stop-color="#ffdc6e" offset="1"/>
  </linearGradient>
 </defs>
 <g transform="matrix(3.7796 0 0 3.7796 5.7336 66.31)" stroke-width=".26458">
  <path d="m0.3382-15.692c-0.73288 0-1.3229 0.59-1.3229 1.3229v10.583c0 0.73288 0.59 1.3229 1.3229 1.3229h13.222c0.18322 0 0.35735-0.0371 0.51572-0.10387 0.15838-0.06676 0.30108-0.16311 0.42064-0.28266s0.2159-0.26226 0.28266-0.42064c0.06677-0.15838 0.10387-0.3325 0.10387-0.51572v-8.9957c0-0.18322-0.0371-0.35735-0.10387-0.51572-0.06676-0.15838-0.16311-0.30108-0.28266-0.42064-0.11956-0.11956-0.26226-0.2159-0.42064-0.28266s-0.3325-0.10387-0.51572-0.10387h-7.666c-0.19843 0-0.39687-0.06616-0.58703-0.1695-0.19017-0.10335-0.37206-0.24391-0.53742-0.39273-0.33072-0.29765-0.5953-0.62837-0.72759-0.76066-0.11517-0.11517-0.29264-0.18102-0.46973-0.21859-0.16944-0.03594-0.33336-0.04414-0.44648-0.04599h-0.14211z" fill="url(#linearGradient3481)"/>
  <path d="m10.776-14.105c-0.11312 0.0019-0.27704 0.01005-0.44648 0.04599-0.17709 0.03757-0.35456 0.10342-0.46973 0.21859-0.13229 0.13229-0.39687 0.46301-0.72759 0.76066-0.16536 0.14882-0.34725 0.28938-0.53742 0.39273-0.19016 0.10334-0.3886 0.1695-0.58703 0.1695h-8.2019c-0.21986 0-0.41824 0.08855-0.56171 0.23202-0.14347 0.14346-0.23202 0.34185-0.23202 0.56171v7.9373c0 0.73288 0.58999 1.3229 1.3229 1.3229h13.229c0.73288 0 1.3229-0.58999 1.3229-1.3229v-8.9957c0-0.73289-0.59001-1.3229-1.3229-1.3229z" fill="url(#linearGradient3421)"/>
  <path d="m10.776-14.105c-0.11312 0.0019-0.27704 0.01005-0.44648 0.04599-0.17709 0.03757-0.35456 0.10342-0.46973 0.21859-0.13229 0.13229-0.39687 0.46301-0.72759 0.76066-0.16536 0.14882-0.34725 0.28938-0.53742 0.39273-0.19016 0.10334-0.3886 0.1695-0.58703 0.1695h-8.2019c-0.21986 0-0.41824 0.08855-0.56171 0.23202-0.14347 0.14346-0.23202 0.34185-0.23202 0.56171v0.2651c0-0.21986 0.088553-0.41825 0.23202-0.56171 0.14347-0.14347 0.34185-0.23202 0.56171-0.23202h8.3084c0.19843 0 0.39687-0.06616 0.58703-0.1695 0.19017-0.10335 0.37206-0.24391 0.53742-0.39273 0.33072-0.29765 0.5953-0.62837 0.72759-0.76066 0.11517-0.11517 0.29264-0.18102 0.46973-0.21859 0.16944-0.03594 0.33336-0.04414 0.44648-0.04599h2.6814c0.73288 0 1.3229 0.59 1.3229 1.3229v-0.2651c0-0.73289-0.59001-1.3229-1.3229-1.3229z" fill="#ffdc78"/>
 </g>
 <g transform="matrix(12.283,0,0,12.283,227.22,-3.994)" fill="#5e4aa6" stroke-width=".26458">
  <circle cx="-330.35" cy="-328.38" r="0"/>
  <circle cx="-312.11" cy="-326.25" r="0"/>
  <circle cx="-306.02" cy="-333.07" r="0"/>
  <circle cx="-308.84" cy="-326.01" r="0"/>
  <circle cx="-328.8" cy="-330.45" r="0"/>
 </g>
 <g transform="matrix(12.283,0,0,12.283,-40.062,-131.15)" fill="#5e4aa6" stroke-width=".26458">
  <circle cx="-330.35" cy="-328.38" r="0"/>
  <circle cx="-312.11" cy="-326.25" r="0"/>
  <circle cx="-306.02" cy="-333.07" r="0"/>
  <circle cx="-308.84" cy="-326.01" r="0"/>
  <circle cx="-328.8" cy="-330.45" r="0"/>
 </g>
 <path d="m39.613 37.433 2.6274-2.6274c0.08312-0.08312 0.12288-0.19878 0.10842-0.31081-0.01807-0.11926-0.08312-0.22046-0.18432-0.27828l-7.0872-4.0912c-0.14818-0.08312-0.3325-0.05782-0.45176 0.06144l-2.6274 2.6238-2.6274-2.6238c-0.11926-0.11926-0.30358-0.14818-0.45176-0.06144l-7.0836 4.0912c-0.10119 0.05783-0.16986 0.15902-0.18432 0.27828-0.0144 0.11204 0.0217 0.2313 0.10481 0.31081l2.6274 2.6274-2.6274 2.6274c-0.0831 0.08313-0.11926 0.19878-0.10481 0.31081 0.0144 0.11565 0.0795 0.21685 0.18432 0.27467l2.7033 1.5613v3.4009c0 0.13372 0.0723 0.2566 0.18793 0.32527l7.0872 4.0912c0.0578 0.03614 0.12288 0.0506 0.18793 0.0506 0.065 0 0.12649-0.01446 0.18793-0.0506l7.0836-4.0912c0.11565-0.06867 0.18793-0.18793 0.18793-0.32527v-3.4009l2.7033-1.5577c0.1012-0.05782 0.16625-0.15902 0.18432-0.27467 0.01446-0.11565-0.0253-0.2313-0.10842-0.31081zm-1.2794 0-6.3319 3.6611-6.3391-3.6611 4.7525-2.7431 1.5866-0.91436 5.7283 3.3069zm-3.3792-6.5162 6.415 3.7081-2.3455 2.3419-0.38309-0.22046-6.0319-3.4804zm-5.9054 0 2.3455 2.3455-6.4186 3.7044-2.3456-2.3419zm-4.0731 6.9824 6.415 3.7044-2.3456 2.3455-6.415-3.7009zm0.31081 4.7453 3.6322 2.0962c0.0578 0.03614 0.12288 0.0506 0.18793 0.0506 7e-3 0 0.0145-0.01084 0.0217-0.01084 0.0867-0.0036 0.17709-0.03253 0.24214-0.09758l2.2552-2.2552v6.6319l-6.3391-3.6647zm13.423 2.7539-6.3355 3.6575v-6.6282l2.2516 2.2552c0.06505 0.06505 0.15179 0.09397 0.24214 0.09758 0.0072 0 0.01446 0.01084 0.02168 0.01084 0.06505 0 0.12649-0.01446 0.18793-0.0506l3.6322-2.0962zm-3.7587-1.4492-2.3455-2.3419 6.415-3.7044 2.3455 2.3455z" fill="#e1a000" stroke="#e1a000" stroke-width=".15" p-id="6965"/>
</svg>
