<?xml version="1.0" encoding="UTF-8" standalone="no"?>
<svg
   xmlns:dc="http://purl.org/dc/elements/1.1/"
   xmlns:cc="http://creativecommons.org/ns#"
   xmlns:rdf="http://www.w3.org/1999/02/22-rdf-syntax-ns#"
   xmlns:svg="http://www.w3.org/2000/svg"
   xmlns="http://www.w3.org/2000/svg"
   xmlns:xlink="http://www.w3.org/1999/xlink"
   xmlns:sodipodi="http://sodipodi.sourceforge.net/DTD/sodipodi-0.dtd"
   xmlns:inkscape="http://www.inkscape.org/namespaces/inkscape"
   width="64"
   height="64"
   version="1.1"
   viewBox="0 0 16.933 16.933"
   id="svg50"
   sodipodi:docname="folder-html.svg"
   inkscape:version="1.0.1 (3bc2e813f5, 2020-09-07)">
  <sodipodi:namedview
     pagecolor="#ffffff"
     bordercolor="#666666"
     borderopacity="1"
     objecttolerance="10"
     gridtolerance="10"
     guidetolerance="10"
     inkscape:pageopacity="0"
     inkscape:pageshadow="2"
     inkscape:window-width="1920"
     inkscape:window-height="932"
     id="namedview52"
     showgrid="false"
     inkscape:zoom="5.9765625"
     inkscape:cx="45.651328"
     inkscape:cy="36.805721"
     inkscape:window-x="0"
     inkscape:window-y="36"
     inkscape:window-maximized="1"
     inkscape:current-layer="svg50" />
  <defs
     id="defs12">
    <linearGradient
       id="linearGradient3481"
       x1="25"
       x2="25"
       y1="155"
       y2="167.78"
       gradientTransform="matrix(0.26458,0,0,0.26458,-2.2181,-54.486)"
       gradientUnits="userSpaceOnUse">
      <stop
         stop-color="#e1a000"
         offset="0"
         id="stop2" />
      <stop
         stop-color="#af7d00"
         offset="1"
         id="stop4" />
    </linearGradient>
    <linearGradient
       id="linearGradient3421"
       x1="-16.147"
       x2="-.24118"
       y1="-47.834"
       y2="-47.834"
       gradientTransform="matrix(1,0,0,1.1,15.242,46.314)"
       gradientUnits="userSpaceOnUse">
      <stop
         stop-color="#ffbe0a"
         offset="0"
         id="stop7" />
      <stop
         stop-color="#ffdc6e"
         offset="1"
         id="stop9" />
    </linearGradient>
    <linearGradient
       inkscape:collect="always"
       xlink:href="#linearGradient2156"
       id="linearGradient2158"
       x1="-11.134952"
       y1="1.858956"
       x2="-11.134952"
       y2="5.2934809"
       gradientUnits="userSpaceOnUse"
       gradientTransform="translate(20.161915)" />
    <linearGradient
       inkscape:collect="always"
       id="linearGradient2156">
      <stop
         style="stop-color:#323232;stop-opacity:1"
         offset="0"
         id="stop2152" />
      <stop
         style="stop-color:#1e1e1e;stop-opacity:1"
         offset="1"
         id="stop2154" />
    </linearGradient>
    <linearGradient
       inkscape:collect="always"
       xlink:href="#linearGradient1693"
       id="linearGradient1695"
       x1="-87.035156"
       y1="35"
       x2="-26.035156"
       y2="35"
       gradientUnits="userSpaceOnUse"
       gradientTransform="matrix(0.26457812,0,0,0.26457812,23.424465,3e-7)" />
    <linearGradient
       inkscape:collect="always"
       id="linearGradient1693">
      <stop
         style="stop-color:#323232;stop-opacity:1"
         offset="0"
         id="stop1689" />
      <stop
         style="stop-color:#646464;stop-opacity:0.99607843"
         offset="1"
         id="stop1691" />
    </linearGradient>
  </defs>
  <metadata
     id="metadata14">
    <rdf:RDF>
      <cc:Work
         rdf:about="">
        <dc:format>image/svg+xml</dc:format>
        <dc:type
           rdf:resource="http://purl.org/dc/dcmitype/StillImage" />
        <dc:title></dc:title>
      </cc:Work>
    </rdf:RDF>
  </metadata>
  <g
     fill="#5e4aa6"
     stroke-width=".26458"
     id="g34">
    <circle
       cx="-330.35"
       cy="-328.38"
       r="0"
       id="circle24" />
    <circle
       cx="-312.11"
       cy="-326.25"
       r="0"
       id="circle26" />
    <circle
       cx="-306.02"
       cy="-333.07"
       r="0"
       id="circle28" />
    <circle
       cx="-308.84"
       cy="-326.01"
       r="0"
       id="circle30" />
    <circle
       cx="-328.8"
       cy="-330.45"
       r="0"
       id="circle32" />
  </g>
  <g
     transform="translate(.000295 -.00032978)"
     fill="#5e4aa6"
     stroke-width=".26458"
     id="g46">
    <circle
       cx="-330.35"
       cy="-328.38"
       r="0"
       id="circle36" />
    <circle
       cx="-312.11"
       cy="-326.25"
       r="0"
       id="circle38" />
    <circle
       cx="-306.02"
       cy="-333.07"
       r="0"
       id="circle40" />
    <circle
       cx="-308.84"
       cy="-326.01"
       r="0"
       id="circle42" />
    <circle
       cx="-328.8"
       cy="-330.45"
       r="0"
       id="circle44" />
  </g>
  <path
     id="rect2148"
     style="fill:url(#linearGradient2158);fill-opacity:1;stroke:none;stroke-width:0.264578;stroke-linecap:round;stroke-opacity:1"
     d="m 1.855406,1.8520472 c -0.73288,0 -1.32289,0.5899906 -1.32289,1.3228906 V 13.758062 c 0,0.73288 0.58999,1.322891 1.32289,1.322891 h 13.222188 c 0.18322,0 0.35735,-0.0371 0.51572,-0.103868 0.15838,-0.06676 0.301078,-0.163114 0.420638,-0.282664 0.11956,-0.11955 0.215905,-0.262258 0.282665,-0.420638 0.06677,-0.15838 0.103867,-0.332501 0.103867,-0.515721 V 4.7624066 c 0,-0.1832201 -0.0371,-0.3573506 -0.103867,-0.5157207 C 16.229857,4.088306 16.133502,3.9456081 16.013952,3.8260482 15.894392,3.706488 15.751694,3.6101434 15.593314,3.5433835 15.434934,3.4766235 15.260814,3.439516 15.077594,3.439516 H 7.4115461 c -0.1984301,0 -0.396873,-0.06615 -0.5870332,-0.1694954 C 6.6343429,3.1666706 6.4524491,3.0261074 6.2870891,2.8772875 5.9563691,2.5796375 5.6917899,2.2489153 5.5595001,2.1166254 5.44433,2.0014554 5.26686,1.9356084 5.0897699,1.8980384 4.9203301,1.8620984 4.756415,1.8538974 4.6432948,1.8520474 H 4.501187 Z" />
  <path
     id="rect1669"
     style="fill:url(#linearGradient1695);fill-opacity:1;stroke:none;stroke-width:0.264578;stroke-linecap:round;stroke-opacity:1"
     d="m 12.293064,3.4395159 c -0.11312,0.00185 -0.277035,0.010051 -0.446475,0.045991 -0.17709,0.03757 -0.35456,0.103417 -0.46973,0.2185871 -0.132291,0.1322901 -0.39687,0.463012 -0.72759,0.7606621 -0.16536,0.14882 -0.347254,0.2893832 -0.537424,0.3927332 -0.1901597,0.10334 -0.3886023,0.1694954 -0.5870322,0.1694954 H 1.322891 c -0.21986,0 -0.418242,0.088556 -0.561712,0.2320226 -0.14347,0.1434601 -0.232022,0.3418519 -0.232022,0.5617115 v 7.9373432 c 0,0.73288 0.58998,1.322891 1.32289,1.322891 h 13.228906 c 0.73288,0 1.322891,-0.589981 1.322891,-1.322891 V 4.7624066 c 0,-0.73289 -0.590001,-1.3228907 -1.322891,-1.3228907 z" />
  <path
     id="rect2138"
     style="fill:#505050;fill-opacity:0.995699;stroke:none;stroke-width:0.264578;stroke-linecap:round;stroke-opacity:1"
     d="m 12.293323,3.4395159 c -0.113121,0.00185 -0.277039,0.01005 -0.446476,0.045991 -0.177091,0.03757 -0.354557,0.1034181 -0.469729,0.2185871 -0.13229,0.1322901 -0.396865,0.4630096 -0.72759,0.7606621 -0.165363,0.148821 -0.347271,0.2893882 -0.537424,0.3927332 C 9.9219422,4.9608291 9.7235063,5.0269847 9.5250713,5.0269847 H 1.322632 c -0.21986,0 -0.418256,0.088554 -0.561711,0.2320226 C 0.617449,5.4024679 0.528898,5.6008795 0.528898,5.8207188 v 0.2650951 c 0,-0.2198607 0.08855,-0.4182565 0.232023,-0.5617118 C 0.904392,5.3806309 1.102793,5.2920795 1.322632,5.2920795 h 8.3083738 c 0.1984325,0 0.3968522,-0.066156 0.5870322,-0.1694953 0.190172,-0.1033501 0.372089,-0.2439069 0.537424,-0.3927332 0.330726,-0.2976526 0.5953,-0.6283721 0.72759,-0.7606622 0.115172,-0.1151716 0.292646,-0.1810167 0.46973,-0.218587 0.169442,-0.035941 0.333368,-0.044141 0.446476,-0.045991 h 2.681954 c 0.732886,0 1.32289,0.5900039 1.32289,1.3228906 V 4.7624066 c 0,-0.7328868 -0.590004,-1.3228907 -1.32289,-1.3228907 z" />
  <path
     id="rect987"
     style="fill:#1e1e1e;fill-opacity:1;stroke-width:4.648;stroke-linecap:round"
     d="M 32 30 C 31.654015 30 31.305739 30.029231 30.96875 30.064453 A 9.8001299 9.8624934 0 0 0 29.03125 30.441406 A 10.04467 10.108923 0 0 0 22.4375 37.076172 A 9.8001299 9.8624934 0 0 0 22.0625 39.025391 A 10.02993 10.094183 0 0 0 22 40.0625 C 22 40.410677 22.027463 40.762419 22.0625 41.101562 A 9.8001299 9.8624934 0 0 0 22.4375 43.050781 A 10.04467 10.108923 0 0 0 29.03125 49.685547 A 9.8001299 9.8624934 0 0 0 30.96875 50.064453 C 31.305777 50.09847 31.653977 50.126953 32 50.126953 C 32.34606 50.126953 32.694223 50.099414 33.03125 50.064453 A 9.8001299 9.8624934 0 0 0 34.96875 49.6875 A 10.21513 10.280139 0 0 0 36.78125 48.900391 A 9.9815508 10.045426 0 0 0 41.5625 43.050781 A 9.8001299 9.8624934 0 0 0 41.9375 41.101562 C 41.97265 40.762419 42 40.410715 42 40.0625 C 42 39.715381 41.972159 39.363514 41.9375 39.025391 A 9.8001299 9.8624934 0 0 0 41.5625 37.076172 A 10.070371 10.134247 0 0 0 39.71875 33.648438 C 39.514651 33.399895 39.289503 33.183555 39.0625 32.955078 C 38.159477 32.046348 37.103061 31.293399 35.90625 30.785156 A 10.362157 10.427922 0 0 0 34.96875 30.441406 A 9.8001299 9.8624934 0 0 0 33.03125 30.0625 A 10.313778 10.379543 0 0 0 32 30 z M 31.996094 31.005859 A 9.0699108 9.1277387 0 0 1 31.998047 31.005859 L 32 31.005859 C 33.512937 31.005859 34.935696 31.380763 36.1875 32.044922 C 36.220383 32.063631 36.248481 32.089336 36.28125 32.107422 C 36.306195 32.140796 36.299642 32.17716 36.34375 32.201172 C 36.375877 32.219881 36.40565 32.247457 36.435547 32.263672 C 36.488499 32.295458 36.540333 32.339483 36.529297 32.390625 C 36.516068 32.466092 36.394775 32.460118 36.34375 32.515625 C 36.349797 32.621034 36.306397 32.600463 36.279297 32.671875 C 36.295171 32.718028 36.336796 32.713008 36.34375 32.767578 C 36.334301 32.825894 36.257262 32.832082 36.279297 32.892578 C 36.377264 32.968979 36.469522 32.905089 36.5625 32.892578 C 36.765351 32.867633 36.93645 32.896441 37.0625 32.798828 C 37.049271 32.720243 37.121225 32.699026 37.154297 32.642578 C 37.221385 32.689668 37.278816 32.750805 37.34375 32.798828 C 37.305803 32.8144 37.220546 32.839191 37.185547 32.861328 C 37.135467 32.895647 37.120517 32.950236 37.0625 32.988281 C 37.020584 33.016364 36.919146 33.113281 36.875 33.113281 C 36.822048 33.113281 36.723683 33.068229 36.685547 33.080078 C 36.631688 33.09565 36.654526 33.185824 36.59375 33.207031 C 36.473748 33.251313 36.260779 33.088662 36.21875 33.269531 C 36.26883 33.373999 36.438284 33.34035 36.529297 33.396484 C 36.586293 33.432693 36.672382 33.616614 36.6875 33.677734 A 0.73297821 0.73766491 0 0 1 36.6875 33.962891 C 36.630504 34.108832 36.478664 34.091016 36.310547 34.087891 C 36.265494 34.087891 36.228509 34.09101 36.1875 34.087891 C 35.905579 34.069219 35.627977 33.979258 35.5 34.181641 C 35.509449 34.337561 35.534772 34.422592 35.5 34.558594 C 35.475055 34.65712 35.369973 34.725083 35.375 34.810547 C 35.377052 34.854836 35.458054 34.939523 35.46875 35 C 35.474797 35.032353 35.452876 35.09598 35.46875 35.125 C 35.515693 35.214803 35.634654 35.10939 35.71875 35.125 C 35.798764 35.137586 35.873047 35.255508 35.873047 35.34375 A 0.57102226 0.57465068 0 0 1 35.810547 35.595703 C 35.730533 35.716393 35.582856 35.68779 35.46875 35.753906 C 35.373655 35.808178 35.336369 35.941671 35.279297 36.037109 C 35.219163 36.13971 35.163537 36.174375 35.1875 36.320312 A 0.67503691 0.67930786 0 0 1 34.84375 36.666016 A 0.98798795 0.99429989 0 0 0 34.685547 36.761719 A 0.79201559 0.79708026 0 0 0 34.5625 36.886719 C 34.498587 36.957189 34.408046 36.987719 34.373047 37.042969 C 34.348102 37.085074 34.370065 37.175085 34.341797 37.232422 C 34.301809 37.308845 34.236231 37.374786 34.185547 37.451172 C 34.163625 37.487834 34.118582 37.530767 34.09375 37.578125 C 34.035809 37.684748 33.955798 37.767783 33.966797 37.861328 C 33.976246 37.951131 34.088723 37.972166 34.09375 38.050781 C 34.099797 38.095078 34.059791 38.128687 34.060547 38.175781 C 34.063499 38.246233 34.086569 38.277718 34.09375 38.332031 C 34.106601 38.467984 34.023219 38.523642 33.998047 38.617188 C 33.985196 38.660502 34.007496 38.706256 33.998047 38.740234 C 33.976125 38.808834 33.874937 38.849258 33.873047 38.929688 C 33.870995 38.986117 33.960825 39.038711 33.966797 39.119141 C 33.969896 39.173718 33.925758 39.225903 33.935547 39.277344 C 33.954445 39.375878 34.13992 39.513042 34.216797 39.589844 C 34.319829 39.694312 34.420837 39.764333 34.466797 39.875 C 34.504744 39.967638 34.520627 40.120173 34.591797 40.189453 C 34.643766 40.239986 34.743497 40.261123 34.810547 40.314453 C 34.87446 40.364949 34.963179 40.388076 35.03125 40.441406 C 35.141123 40.528753 35.289647 40.704521 35.466797 40.691406 C 35.558755 40.685359 35.644108 40.647918 35.748047 40.628906 C 35.855123 40.610008 35.982755 40.555143 36.091797 40.566406 C 36.174948 40.575855 36.253619 40.634198 36.341797 40.628906 C 36.431865 40.622859 36.551341 40.580058 36.654297 40.535156 C 36.834471 40.456578 37.111045 40.307302 37.373047 40.345703 C 37.573063 40.377452 37.576914 40.601867 37.716797 40.691406 C 37.876787 40.703879 37.996128 40.659658 38.123047 40.691406 C 38.219087 40.71673 38.33299 40.898186 38.341797 40.974609 C 38.351246 41.053187 38.290333 41.114512 38.279297 41.164062 C 38.254352 41.269513 38.234712 41.411125 38.216797 41.478516 C 38.200923 41.531846 38.184791 41.583426 38.185547 41.636719 C 38.185547 41.683813 38.260467 41.793143 38.310547 41.855469 C 38.37068 41.932837 38.457522 41.991925 38.529297 42.076172 C 38.662225 42.230228 38.717569 42.438328 38.810547 42.642578 C 38.832469 42.693111 38.788625 42.702682 38.810547 42.767578 C 38.770559 43.075389 38.666776 43.277023 38.466797 43.617188 C 38.371702 43.72793 38.277445 43.857168 38.279297 43.994141 C 38.27325 44.323193 38.449418 44.493502 38.435547 44.8125 C 38.402664 45.2402 38.43741 45.306717 38.404297 45.535156 C 38.548224 45.608745 38.47648 45.822556 38.435547 45.974609 C 38.373524 46.155463 38.314258 46.201545 38.279297 46.322266 A 0.39995748 0.40252761 0 0 0 38.498047 46.353516 A 8.9928069 9.0502569 0 0 1 31.998047 49.121094 A 8.982602 9.039674 0 0 1 28.623047 48.460938 C 28.620053 48.458957 28.626067 48.428112 28.623047 48.427734 C 28.718142 48.387519 28.897706 48.498087 28.966797 48.365234 C 29.000813 48.300981 28.920837 48.179488 28.966797 48.115234 C 28.998923 48.070937 29.212209 48.030417 29.279297 48.019531 C 29.376281 48.003657 29.475173 48.023152 29.529297 47.988281 A 0.28500089 0.28681887 0 0 0 29.654297 47.736328 C 29.64825 47.682998 29.60148 47.658687 29.560547 47.611328 C 29.525775 47.571113 29.551974 47.520243 29.529297 47.484375 C 29.486474 47.420122 29.42225 47.388467 29.404297 47.294922 C 29.535298 47.269599 29.715468 47.444295 29.904297 47.390625 C 29.994365 47.365302 30.143631 47.192236 30.185547 47.107422 C 30.198775 47.082099 30.169673 46.982089 30.185547 46.951172 C 30.201421 46.916022 30.242075 46.904823 30.248047 46.886719 C 30.261275 46.837433 30.238598 46.823206 30.248047 46.792969 C 30.280929 46.699386 30.380402 46.640601 30.435547 46.572266 C 30.47648 46.521732 30.521504 46.469384 30.560547 46.416016 C 30.60337 46.359586 30.625307 46.340566 30.654297 46.291016 C 30.682644 46.123844 30.551809 45.995653 30.591797 45.849609 C 30.63462 45.684327 30.872368 45.578478 31.029297 45.503906 C 31.084441 45.478583 31.139285 45.426371 31.185547 45.410156 C 31.294551 45.370848 31.427248 45.383688 31.529297 45.345703 C 31.700324 45.28334 31.758608 45.094429 31.841797 44.9375 C 31.881785 44.863873 31.92863 44.801377 31.935547 44.748047 C 31.944996 44.700915 31.926098 44.647055 31.935547 44.591797 C 31.944996 44.537522 31.950545 44.495794 31.966797 44.435547 A 1.5899652 1.6000945 0 0 0 31.998047 44.119141 C 31.998047 44.046497 31.966797 44.029034 31.966797 43.962891 C 31.953568 43.725607 32.036078 43.715729 32.123047 43.585938 C 32.167155 43.521684 32.185653 43.411421 32.216797 43.365234 C 32.363899 43.146017 32.609788 43.038137 32.591797 42.705078 C 32.58575 42.594374 32.546773 42.363426 32.466797 42.328125 C 32.420837 42.309227 32.314795 42.322576 32.248047 42.296875 C 32.03295 42.216407 31.878276 41.967285 31.654297 41.949219 C 31.607354 41.947234 31.582211 41.951279 31.529297 41.949219 C 31.442366 41.947234 31.346014 41.86643 31.248047 41.855469 C 31.186024 41.849421 31.06611 41.874367 31.029297 41.855469 C 30.973245 41.830145 30.982515 41.730438 30.9375 41.699219 C 30.90046 41.673895 30.836293 41.655931 30.779297 41.634766 A 0.74499734 0.74972184 0 0 0 30.529297 41.572266 C 30.49717 41.570206 30.408991 41.578313 30.373047 41.572266 C 30.316995 41.562817 30.27072 41.511587 30.21875 41.478516 C 30.152645 41.438301 30.120812 41.410588 30.09375 41.353516 C 30.153581 41.156409 29.944323 41.122561 29.904297 41.007812 C 29.885399 40.954482 29.923195 40.8667 29.904297 40.818359 C 29.882375 40.750667 29.822996 40.718577 29.748047 40.662109 C 29.617953 40.559531 29.498506 40.465407 29.310547 40.441406 C 29.227396 40.431957 29.131069 40.447454 29.03125 40.441406 A 0.48696392 0.49006319 0 0 1 28.71875 40.283203 C 28.641873 40.192455 28.627332 40.106558 28.560547 40.064453 C 28.497503 40.024238 28.386611 40.011119 28.34375 39.96875 C 28.324852 39.949852 28.329823 39.916122 28.310547 39.875 C 28.27842 39.808592 28.208059 39.796887 28.248047 39.716797 C 28.174987 39.680891 28.201133 39.764022 28.123047 39.75 C 28.053162 39.649576 28.003741 39.592772 27.84375 39.623047 C 27.77069 39.638921 27.709739 39.74811 27.625 39.75 C 27.555115 39.75206 27.497199 39.635822 27.404297 39.623047 C 27.334412 39.613598 27.23535 39.696772 27.1875 39.685547 C 27.108431 39.673074 27.102118 39.576429 27.03125 39.529297 C 26.97928 39.494147 26.872702 39.402105 26.84375 39.404297 C 26.752737 39.406361 26.686597 39.59699 26.560547 39.529297 C 26.499431 39.450719 26.666507 39.444342 26.59375 39.371094 C 26.538606 39.316819 26.511875 39.375141 26.46875 39.404297 C 26.417688 39.438313 26.367505 39.478998 26.310547 39.498047 C 26.185518 39.546086 26.098232 39.540319 26 39.591797 C 25.909932 39.639836 25.89572 39.718993 25.84375 39.8125 C 25.801834 39.888924 25.720201 39.997947 25.65625 40.001953 C 25.580356 40.008 25.505533 39.905312 25.4375 39.875 C 25.22743 39.784252 25.10951 39.93561 24.9375 39.9375 C 24.777509 39.939484 24.554487 39.681237 24.5625 39.529297 C 24.568547 39.435752 24.614039 39.298418 24.625 39.183594 C 24.634449 39.092846 24.716822 39.016153 24.71875 38.931641 C 24.720768 38.820936 24.540865 38.72375 24.46875 38.710938 C 24.297723 38.679189 24.069007 38.788571 23.875 38.710938 C 23.839094 38.648536 23.946979 38.614934 23.96875 38.554688 C 23.981979 38.519537 23.955899 38.49896 23.96875 38.460938 C 23.990672 38.402618 24.065705 38.364833 24.09375 38.302734 C 24.112648 38.255603 24.103078 38.171601 24.125 38.113281 C 24.149945 38.048121 24.212476 38.00507 24.21875 37.957031 C 24.224797 37.894668 24.174097 37.809746 24.125 37.769531 A 0.97396563 0.98020197 0 0 0 23.78125 37.830078 C 23.585315 37.920826 23.635665 38.177795 23.4375 38.240234 C 23.369505 38.262156 23.263394 38.290904 23.1875 38.302734 A 8.9104116 8.9671057 0 0 1 23.78125 36.416016 C 23.851135 36.428602 23.908541 36.472616 23.96875 36.478516 C 24.135695 36.491102 24.14303 36.364593 24.28125 36.291016 C 24.42325 36.309687 24.496116 36.27843 24.625 36.291016 C 24.711931 36.30054 24.83731 36.411027 24.90625 36.416016 C 24.964191 36.418042 24.976106 36.344146 25.03125 36.353516 C 25.086394 36.36304 25.177749 36.475545 25.1875 36.541016 C 25.196949 36.623354 25.133232 36.702213 25.15625 36.792969 C 25.242236 36.880603 25.409131 36.93097 25.53125 36.982422 C 25.611264 36.916324 25.544479 36.763827 25.53125 36.667969 C 25.529266 36.625887 25.537297 36.581014 25.53125 36.542969 C 25.521801 36.477805 25.5 36.410875 25.5 36.353516 C 25.5 36.091873 25.700004 35.983555 25.875 35.880859 C 25.94995 35.836566 26.027947 35.75767 26.09375 35.724609 C 26.18567 35.679402 26.234615 35.67389 26.310547 35.630859 C 26.449447 35.552255 26.578546 35.46871 26.685547 35.378906 C 26.735627 35.260083 26.6795 35.118645 26.685547 35.001953 C 26.735627 34.969978 26.758577 35.008038 26.810547 35.001953 C 26.894643 34.983282 26.92177 34.860834 26.96875 34.8125 C 26.997097 34.784304 27.090278 34.777345 27.123047 34.75 C 27.207143 34.683887 27.207447 34.589835 27.279297 34.560547 C 27.304242 34.551022 27.364309 34.542601 27.404297 34.529297 C 27.459441 34.513687 27.536116 34.465089 27.623047 34.433594 C 27.679098 34.414923 27.820064 34.424795 27.841797 34.402344 C 27.869766 34.374148 27.83575 34.255279 27.841797 34.212891 C 27.88462 34.006434 28.189056 33.99828 28.373047 33.929688 C 28.500004 33.879147 28.637222 33.775616 28.779297 33.802734 C 28.75095 33.901299 28.631279 33.873402 28.654297 33.992188 C 28.685668 34.158388 28.876623 33.952766 28.935547 33.929688 C 29.04542 33.882613 29.259236 33.8577 29.404297 33.804688 C 29.532161 33.759468 29.743163 33.669301 29.623047 33.521484 C 29.52285 33.515248 29.492173 33.61062 29.404297 33.646484 C 29.344466 33.655858 29.330322 33.618938 29.279297 33.615234 C 29.230162 33.613176 29.203432 33.654928 29.154297 33.646484 C 29.105162 33.637111 29.037158 33.54855 29.029297 33.490234 C 29.010399 33.336178 29.186024 33.287745 29.248047 33.173828 C 29.206131 33.035056 29.021276 33.166279 28.904297 33.113281 C 28.917525 33.030954 28.963524 32.94098 29.060547 32.923828 A 0.61804051 0.6219713 0 0 1 29.373047 32.986328 C 29.401016 33.008136 29.363477 33.073985 29.404297 33.113281 C 29.452184 33.155378 29.529698 33.122655 29.591797 33.113281 C 29.613719 33.008813 29.448844 33.054002 29.466797 32.986328 C 29.589936 32.905872 29.81584 32.943784 29.966797 32.923828 C 30.053728 32.911318 30.13871 32.838972 30.216797 32.796875 C 30.288912 32.754778 30.359652 32.696685 30.435547 32.765625 C 30.457469 32.841092 30.38273 32.88383 30.341797 32.921875 C 30.201611 33.046927 30.075649 33.187197 29.966797 33.332031 C 30.033885 33.39721 30.134961 33.350204 30.248047 33.363281 C 30.292155 33.369518 30.358224 33.389001 30.404297 33.396484 C 30.459441 33.405858 30.516741 33.387111 30.560547 33.396484 C 30.636441 33.415193 30.640865 33.521484 30.716797 33.521484 C 30.839936 33.521484 30.850202 33.416857 30.779297 33.332031 C 30.801219 33.246582 30.841426 33.173471 30.810547 33.113281 C 30.75355 32.999481 30.541316 33.132681 30.529297 32.988281 C 30.52325 32.896596 30.62217 32.868369 30.654297 32.798828 C 30.641068 32.623572 30.79725 32.612137 30.779297 32.453125 C 30.769848 32.387016 30.699312 32.389559 30.654297 32.328125 C 30.632375 32.294751 30.619048 32.22425 30.591797 32.201172 C 30.496664 32.120715 30.322566 32.134522 30.310547 31.980469 C 30.3045 31.889721 30.323775 31.828308 30.310547 31.728516 C 30.297318 31.635896 30.203023 31.369686 30.123047 31.351562 C 30.021035 31.329754 29.962706 31.515817 29.841797 31.572266 A 0.49297348 0.49614835 0 0 1 29.591797 31.603516 C 29.547689 31.594142 29.471862 31.562408 29.466797 31.478516 C 29.46075 31.430492 29.476125 31.412127 29.498047 31.382812 C 29.504094 31.376576 29.492 31.358404 29.498047 31.351562 A 9.0699108 9.1277387 0 0 1 31.996094 31.005859 z M 28.28125 31.824219 C 28.193374 32.110187 27.935728 32.272743 27.59375 32.263672 C 27.509654 32.344128 27.545015 32.499656 27.5 32.611328 A 0.27599787 0.27775539 0 0 1 27.25 32.767578 C 27.182912 32.761342 27.060547 32.674636 27.060547 32.611328 C 27.060547 32.558939 27.112074 32.499281 27.125 32.453125 A 8.9240182 8.9807122 0 0 1 28.28125 31.824219 z M 35.9375 32.138672 A 0.27399846 0.27574464 0 0 0 35.84375 32.169922 C 35.773865 32.212019 35.77072 32.276609 35.71875 32.296875 C 35.6438 32.324957 35.542362 32.323907 35.53125 32.390625 C 35.521801 32.44707 35.59564 32.466436 35.59375 32.517578 C 35.565403 32.585252 35.513833 32.591501 35.5 32.673828 C 35.592903 32.825696 35.822449 32.676395 35.9375 32.642578 C 35.98758 32.627006 36.0354 32.650535 36.0625 32.609375 C 36.093871 32.558853 36.067671 32.45986 36.09375 32.390625 C 36.118695 32.314224 36.197629 32.331032 36.1875 32.263672 C 36.181453 32.195998 36.050586 32.127443 35.9375 32.138672 z M 26.029297 33.302734 L 26.03125 33.302734 C 26.098338 33.383191 26.154389 33.502295 26.03125 33.554688 C 26.012352 33.564061 25.794146 33.593739 25.75 33.585938 C 25.737149 33.583941 25.731223 33.565308 25.71875 33.554688 C 25.81392 33.461135 25.93012 33.392549 26.029297 33.302734 z M 26.28125 33.615234 L 26.28125 33.617188 C 26.325358 33.619218 26.355225 33.708133 26.40625 33.710938 C 26.45633 33.717174 26.532263 33.671244 26.5625 33.679688 C 26.638394 33.698397 26.666281 33.841989 26.59375 33.898438 C 26.533881 33.904523 26.514811 33.824615 26.470703 33.833984 C 26.346619 33.855679 26.310708 34.093742 26.21875 34.085938 C 26.130874 34.076413 26.067127 33.898234 26.15625 33.833984 C 26.158234 33.779721 26.121598 33.764495 26.125 33.708984 C 26.153347 33.674666 26.208152 33.609304 26.28125 33.615234 z M 25.875 33.679688 C 25.899945 33.679688 25.896801 33.670314 25.90625 33.679688 C 25.893021 33.777292 25.8562 33.791734 25.78125 33.837891 A 0.51198488 0.51523534 0 0 0 25.53125 34.181641 C 25.518021 34.232181 25.373578 34.382973 25.3125 34.371094 C 25.168535 34.339496 25.373178 34.067514 25.40625 34.025391 C 25.44329 33.979234 25.489372 33.951536 25.53125 33.900391 C 25.573166 33.84985 25.584974 33.741189 25.625 33.710938 C 25.669108 33.679151 25.798765 33.677155 25.875 33.679688 z M 38.1875 33.931641 C 38.330482 33.922116 38.401901 34.096266 38.466797 34.183594 C 38.521941 34.255002 38.692051 34.353368 38.78125 34.402344 C 38.832275 34.43054 38.880504 34.471847 38.9375 34.498047 C 38.996424 34.522803 39.086327 34.557543 39.15625 34.623047 C 39.226135 34.687296 39.27936 34.783489 39.28125 34.841797 C 39.283302 34.901053 39.241383 34.94481 39.25 35 C 39.313006 35.009525 39.34601 34.946714 39.375 34.875 C 39.610923 35.213157 39.811058 35.574054 40 35.943359 A 0.11799539 0.11874753 0 0 0 39.935547 36.039062 C 39.916649 36.141664 39.996446 36.27097 39.84375 36.289062 C 39.746765 36.301649 39.633004 36.193082 39.5 36.164062 C 39.446141 36.151476 39.354693 36.176649 39.310547 36.164062 C 39.21069 36.129026 39.240358 36.003534 39.154297 35.943359 A 0.69998228 0.70444221 0 0 0 38.904297 35.849609 C 38.855124 35.843524 38.830322 35.855695 38.779297 35.849609 C 38.717274 35.840085 38.612542 35.850713 38.5625 35.818359 C 38.51242 35.786384 38.387964 35.733526 38.375 35.691406 C 38.356102 35.623729 38.526424 35.529101 38.529297 35.472656 C 38.532396 35.428363 38.477859 35.412466 38.46875 35.345703 C 38.462703 35.305484 38.478199 35.245951 38.46875 35.220703 C 38.455899 35.17268 38.385496 35.12882 38.310547 35.126953 C 38.245651 35.126953 38.181959 35.158203 38.125 35.158203 C 38.044986 35.160203 37.879154 35.11871 37.779297 35.126953 C 37.719428 35.133038 37.681089 35.154424 37.625 35.158203 C 37.466899 35.170789 37.374047 35.148679 37.25 35.158203 C 37.159932 35.164288 36.988431 35.215857 36.904297 35.253906 C 36.862381 35.272577 36.834441 35.320504 36.779297 35.347656 C 36.754352 35.360242 36.720572 35.362163 36.6875 35.378906 C 36.636438 35.400601 36.54921 35.459556 36.5 35.472656 C 36.430115 35.491327 36.347521 35.466571 36.21875 35.472656 C 36.125847 35.478741 35.970942 35.459797 35.96875 35.347656 C 35.966785 35.176463 36.276463 35.250982 36.435547 35.220703 C 36.495378 35.208117 36.520993 35.136833 36.59375 35.095703 C 36.627766 35.077032 36.652475 35.055329 36.685547 35.033203 C 36.740691 34.994852 36.834944 34.919988 36.84375 34.876953 C 36.849797 34.836734 36.806011 34.77902 36.810547 34.75 C 36.816594 34.711648 36.88742 34.674282 36.9375 34.625 C 37.013357 34.547344 37.060449 34.453273 37.154297 34.404297 C 37.21821 34.36926 37.344095 34.361999 37.373047 34.310547 C 37.379094 34.252239 37.370995 34.23856 37.373047 34.185547 C 37.413035 34.149338 37.40085 34.129903 37.435547 34.123047 C 37.533514 34.101352 37.633147 34.159286 37.748047 34.154297 C 37.798127 34.152301 37.852252 34.158141 37.904297 34.123047 C 37.948405 34.091071 37.986172 34.049167 38.029297 34.027344 C 38.077184 34.002209 38.126661 33.93763 38.185547 33.933594 L 38.1875 33.931641 z M 26.716797 34.025391 L 26.71875 34.025391 C 26.743776 34.022699 26.78288 34.028357 26.8125 34.025391 C 26.853433 34.023361 26.892485 34.025391 26.9375 34.025391 C 26.982553 34.025391 27.043602 34.006719 27.0625 34.025391 C 27.031129 34.146081 26.751194 34.102105 26.65625 34.058594 C 26.65917 34.037428 26.692868 34.029215 26.716797 34.025391 z M 26.375 34.244141 L 26.375 34.246094 C 26.406371 34.246094 26.435716 34.233508 26.46875 34.246094 C 26.384654 34.316591 26.269948 34.356183 26.125 34.402344 C 26.055115 34.424039 25.948511 34.448277 25.935547 34.371094 C 25.922318 34.275345 25.999431 34.286369 26.060547 34.277344 C 26.140561 34.267819 26.282097 34.244141 26.375 34.244141 z M 38.21875 34.246094 C 38.158919 34.264765 38.128682 34.386424 38.21875 34.402344 C 38.260666 34.377209 38.260545 34.322495 38.25 34.246094 C 38.225055 34.221337 38.236892 34.240009 38.21875 34.246094 z M 38.185547 34.498047 C 38.1572 34.507571 38.124629 34.495295 38.09375 34.529297 C 38.095806 34.631894 38.112648 34.690494 38.09375 34.78125 C 38.151691 34.895088 38.282502 34.827183 38.310547 34.75 C 38.345697 34.55885 38.274582 34.474016 38.1875 34.498047 L 38.185547 34.498047 z M 38.966797 35 L 38.96875 35.001953 A 0.26900183 0.27071399 0 0 0 38.779297 35.0625 C 38.847292 35.173212 38.972127 35.193891 39.123047 35.220703 C 39.177171 35.180484 39.161534 35.070497 39.1875 35 C 39.121697 35 39.078099 35.006085 38.998047 35 L 38.966797 35 z M 23.09375 38.869141 C 23.157663 38.951498 23.225544 39.046189 23.310547 39.089844 C 23.356507 39.111765 23.408856 39.108243 23.466797 39.121094 C 23.51374 39.130543 23.546782 39.171827 23.591797 39.185547 C 23.687837 39.218807 23.828138 39.213086 23.904297 39.248047 C 24.021162 39.29858 24.08666 39.503803 24.1875 39.5625 C 24.193547 39.620819 24.168602 39.6757 24.1875 39.71875 C 24.234443 39.783003 24.328365 39.803258 24.404297 39.845703 C 24.497199 39.897144 24.536154 40.0242 24.623047 40.064453 C 24.654418 40.076926 24.701104 40.05198 24.748047 40.064453 C 24.868049 40.100359 24.894146 40.283841 24.998047 40.253906 C 25.065135 40.235008 25.080798 40.129954 25.091797 40.064453 C 25.13685 40.01392 25.177142 39.939453 25.248047 39.939453 C 25.361095 39.937476 25.393631 40.080702 25.435547 40.191406 C 25.457469 40.253807 25.513574 40.314149 25.529297 40.380859 A 1.6400071 1.6504388 0 0 1 25.529297 40.882812 C 25.501328 40.966342 25.378542 41.012163 25.310547 41.103516 C 25.277664 41.147813 25.241667 41.199488 25.216797 41.228516 C 25.172689 41.284038 25.124906 41.304267 25.091797 41.353516 C 25.072899 41.381485 25.076799 41.442446 25.060547 41.480469 C 25.006688 41.598317 24.920837 41.685495 24.966797 41.826172 C 24.985695 41.882601 25.060547 41.947025 25.060547 42.015625 C 25.060547 42.096055 24.8862 42.115174 24.873047 42.203125 C 24.863598 42.267378 24.946652 42.400569 24.966797 42.486328 C 24.979648 42.550581 25.085251 42.602162 25.123047 42.644531 C 25.18696 42.715059 25.25253 42.804829 25.310547 42.896484 C 25.42454 43.073634 25.479694 43.289785 25.591797 43.462891 C 25.651628 43.553639 25.772474 43.617191 25.8125 43.712891 C 25.831398 43.760022 25.793602 43.857744 25.8125 43.902344 C 25.877396 44.050504 26.194808 44.206993 26.341797 44.279297 C 26.411682 44.314447 26.466253 44.336914 26.529297 44.373047 C 26.626319 44.428531 26.824139 44.539505 26.873047 44.625 C 26.917155 44.702368 26.945064 44.879003 26.966797 45.001953 C 26.995144 45.162851 26.96075 45.300445 26.966797 45.474609 C 26.972844 45.569099 26.998047 45.630825 26.998047 45.726562 C 26.998047 45.759445 27.000065 45.818529 26.998047 45.851562 C 26.996063 45.965404 27.007496 46.084432 26.998047 46.199219 A 1.3019973 1.3103124 0 0 0 26.998047 46.386719 C 27.004094 46.444131 27.058418 46.462471 27.0625 46.511719 C 27.065599 46.565049 26.992075 46.627553 26.998047 46.669922 C 27.011275 46.784671 27.132489 46.878584 27.154297 46.984375 C 27.173195 47.068887 27.197289 47.260564 27.1875 47.361328 C 27.178051 47.414658 27.161478 47.492462 27.154297 47.550781 C 27.14825 47.595985 27.160344 47.634621 27.154297 47.675781 C 24.663312 46.065557 23 43.267666 23 40.064453 C 23 39.653875 23.040836 39.265696 23.09375 38.869141 z M 26.529297 39.78125 C 26.617173 39.741035 26.600202 39.895327 26.529297 39.90625 C 26.462209 39.915699 26.464401 39.812129 26.529297 39.78125 z "
     transform="scale(0.26457812)" />
</svg>
