<?xml version="1.0" encoding="UTF-8"?>
<svg width="64" height="64" version="1.1" viewBox="0 0 16.933 16.933" xmlns="http://www.w3.org/2000/svg" xmlns:cc="http://creativecommons.org/ns#" xmlns:dc="http://purl.org/dc/elements/1.1/" xmlns:rdf="http://www.w3.org/1999/02/22-rdf-syntax-ns#" xmlns:xlink="http://www.w3.org/1999/xlink">
 <defs>
  <style type="text/css"/>
  <filter id="filter1733" x="-.011" y="-.0132" width="1.022" height="1.0264" color-interpolation-filters="sRGB">
   <feGaussianBlur stdDeviation="0.072761339"/>
  </filter>
  <style type="text/css"/>
  <style id="current-color-scheme" type="text/css">.ColorScheme-Text {
        color:#4d4d4d;
      }</style>
  <style type="text/css">.ColorScheme-Text {
        color:#4d4d4d;
      }</style>
  <linearGradient id="linearGradient3421" x1="-16.147" x2="-.24118" y1="-47.834" y2="-47.834" gradientTransform="matrix(1 0 0 1.1 16.669 61.642)" gradientUnits="userSpaceOnUse">
   <stop stop-color="#ffbe0a" offset="0"/>
   <stop stop-color="#ffdc6e" offset="1"/>
  </linearGradient>
  <linearGradient id="linearGradient3481" x1="25" x2="25" y1="155" y2="167.78" gradientTransform="matrix(.26458 0 0 .26458 -.79038 -39.158)" gradientUnits="userSpaceOnUse">
   <stop stop-color="#e1a000" offset="0"/>
   <stop stop-color="#af7d00" offset="1"/>
  </linearGradient>
  <style type="text/css">.ColorScheme-Text {
        color:#4d4d4d;
      }</style>
  <style type="text/css">.ColorScheme-Text {
        color:#4d4d4d;
      }</style>
  <style type="text/css"/>
 </defs>
 <metadata>
  <rdf:RDF>
   <cc:Work rdf:about="">
    <dc:format>image/svg+xml</dc:format>
    <dc:type rdf:resource="http://purl.org/dc/dcmitype/StillImage"/>
    <dc:title/>
   </cc:Work>
  </rdf:RDF>
 </metadata>
 <path d="m1.8554 1.852c-0.73288 0-1.3229 0.59-1.3229 1.3229v10.583c0 0.73288 0.59 1.3229 1.3229 1.3229h13.222c0.18322 0 0.35735-0.0371 0.51572-0.10387 0.15838-0.06676 0.30108-0.16311 0.42064-0.28266s0.2159-0.26226 0.28266-0.42064c0.06677-0.15838 0.10387-0.3325 0.10387-0.51572v-8.9957c0-0.18322-0.0371-0.35735-0.10387-0.51572-0.066764-0.15838-0.16311-0.30108-0.28266-0.42064-0.11956-0.11956-0.26226-0.2159-0.42064-0.28266s-0.3325-0.10387-0.51572-0.10387h-7.666c-0.19843 0-0.39687-0.066155-0.58703-0.1695-0.19017-0.10335-0.37206-0.24391-0.53742-0.39273-0.33072-0.29765-0.5953-0.62837-0.72759-0.76066-0.11517-0.11517-0.29264-0.18102-0.46973-0.21859-0.16944-0.03594-0.33336-0.044141-0.44648-0.045991h-0.14211z" fill="url(#linearGradient3481)" stroke-width=".26458"/>
 <path d="m12.293 3.4395c-0.11312 0.00185-0.27704 0.010051-0.44648 0.045991-0.17709 0.03757-0.35456 0.10342-0.46973 0.21859-0.13229 0.13229-0.39687 0.46301-0.72759 0.76066-0.16536 0.14882-0.34725 0.28938-0.53742 0.39273-0.19016 0.10334-0.3886 0.1695-0.58703 0.1695h-8.2019c-0.21986 0-0.41824 0.088553-0.56171 0.23202-0.14347 0.14346-0.23202 0.34185-0.23202 0.56171v7.9373c0 0.73288 0.58999 1.3229 1.3229 1.3229h13.229c0.73288 0 1.3229-0.58999 1.3229-1.3229v-8.9957c0-0.73289-0.59001-1.3229-1.3229-1.3229z" fill="url(#linearGradient3421)" stroke-width=".26458"/>
 <g fill="#5e4aa6" stroke-width=".26458">
  <circle cx="-330.35" cy="-328.38" r="0"/>
  <circle cx="-312.11" cy="-326.25" r="0"/>
  <circle cx="-306.02" cy="-333.07" r="0"/>
  <circle cx="-308.84" cy="-326.01" r="0"/>
  <circle cx="-328.8" cy="-330.45" r="0"/>
  <g transform="translate(-21.76 -10.352)">
   <circle cx="-330.35" cy="-328.38" r="0"/>
   <circle cx="-312.11" cy="-326.25" r="0"/>
   <circle cx="-306.02" cy="-333.07" r="0"/>
   <circle cx="-308.84" cy="-326.01" r="0"/>
   <circle cx="-328.8" cy="-330.45" r="0"/>
  </g>
  <g transform="translate(.000295 -.00033978)">
   <circle cx="-330.35" cy="-328.38" r="0"/>
   <circle cx="-312.11" cy="-326.25" r="0"/>
   <circle cx="-306.02" cy="-333.07" r="0"/>
   <circle cx="-308.84" cy="-326.01" r="0"/>
   <circle cx="-328.8" cy="-330.45" r="0"/>
  </g>
 </g>
 <g transform="translate(-.79387 -39.158)" filter="url(#filter1733)" opacity=".5"></g>
 <g transform="translate(23.731 -.264)">
  <g transform="translate(-22.839 13.493)" stroke-width=".26458">
   <path d="m5.8207-5.4239c-0.29315 0-0.52916 0.236-0.52916 0.52916v4.2332c0 0.29315 0.236 0.52916 0.52916 0.52916h2.3812l1.3229-1.3229v-3.4395c0-0.29315-0.236-0.52916-0.52916-0.52916z" fill="none" stroke="#e1a000"/>
   <path d="m8.6861-1.5875c-0.29315 0-0.52916 0.236-0.52916 0.52916v0.79373l1.3229-1.3229z" fill="#e1a000"/>
  </g>
  <g transform="translate(-23.897 13.493)" fill="#e1a000">
   <rect x="7.1436" y="-4.7624" width="2.6458" height=".26458"/>
   <rect x="7.1436" y="-3.9687" width="2.6458" height=".26458"/>
   <rect x="7.1436" y="-3.1749" width="2.6458" height=".26458"/>
   <rect x="7.1436" y="-2.3812" width="1.5875" height=".26458"/>
  </g>
 </g>
 <path transform="scale(.26458)" d="m46.463 13c-0.42755 0.006992-1.0471 0.037989-1.6875 0.17383-0.66933 0.142-1.3401 0.39088-1.7754 0.82617-0.5 0.5-1.5 1.75-2.75 2.875-0.625 0.56248-1.3125 1.0938-2.0312 1.4844-0.71873 0.39058-1.4688 0.64062-2.2188 0.64062h-31c-0.83098 0-1.5808 0.3347-2.123 0.87695-0.54226 0.54222-0.87695 1.2921-0.87695 2.123v1.002c0-0.83098 0.33469-1.5808 0.87695-2.123 0.54226-0.54226 1.2921-0.87695 2.123-0.87695h31.402c0.74999 0 1.5-0.25004 2.2188-0.64062 0.71877-0.39062 1.4063-0.9219 2.0312-1.4844 1.25-1.125 2.25-2.375 2.75-2.875 0.4353-0.4353 1.1061-0.68417 1.7754-0.82617 0.64042-0.13584 1.26-0.16684 1.6875-0.17383h10.135c2.77 0 5 2.23 5 5v-1.002c0-2.77-2.23-5-5-5h-10.537z" fill="#ffdc78"/>
 <g transform="translate(-26.262 -.46282)" fill="#5e4aa6" stroke-width=".26458">
  <circle cx="-330.35" cy="-328.38" r="0"/>
  <circle cx="-312.11" cy="-326.25" r="0"/>
  <circle cx="-306.02" cy="-333.07" r="0"/>
  <circle cx="-308.84" cy="-326.01" r="0"/>
  <circle cx="-328.8" cy="-330.45" r="0"/>
  <g transform="translate(-21.76,-10.352)">
   <circle cx="-330.35" cy="-328.38" r="0"/>
   <circle cx="-312.11" cy="-326.25" r="0"/>
   <circle cx="-306.02" cy="-333.07" r="0"/>
   <circle cx="-308.84" cy="-326.01" r="0"/>
   <circle cx="-328.8" cy="-330.45" r="0"/>
  </g>
  <g transform="translate(2.95e-4,-3.3978e-4)">
   <circle cx="-330.35" cy="-328.38" r="0"/>
   <circle cx="-312.11" cy="-326.25" r="0"/>
   <circle cx="-306.02" cy="-333.07" r="0"/>
   <circle cx="-308.84" cy="-326.01" r="0"/>
   <circle cx="-328.8" cy="-330.45" r="0"/>
  </g>
 </g>
</svg>
