<?xml version="1.0" encoding="UTF-8"?>
<svg width="64" height="64" version="1.1" viewBox="0 0 16.933 16.933" xmlns="http://www.w3.org/2000/svg" xmlns:cc="http://creativecommons.org/ns#" xmlns:dc="http://purl.org/dc/elements/1.1/" xmlns:rdf="http://www.w3.org/1999/02/22-rdf-syntax-ns#">
 <defs>
  <linearGradient id="linearGradient894" x1=".52916" x2="16.404" y1="14.42" y2="2.5135" gradientTransform="matrix(1 0 0 1.1111 0 -.94071)" gradientUnits="userSpaceOnUse">
   <stop stop-color="#e1a000" offset="0"/>
   <stop stop-color="#ffc832" offset="1"/>
  </linearGradient>
  <style id="current-color-scheme" type="text/css">.ColorScheme-Text {
        color:#4d4d4d;
      }</style>
  <style type="text/css">.ColorScheme-Text {
        color:#4d4d4d;
      }</style>
 </defs>
 <metadata>
  <rdf:RDF>
   <cc:Work rdf:about="">
    <dc:format>image/svg+xml</dc:format>
    <dc:type rdf:resource="http://purl.org/dc/dcmitype/StillImage"/>
    <dc:title/>
   </cc:Work>
  </rdf:RDF>
 </metadata>
 <circle cx="-330.35" cy="-328.38" r="0" fill="#5e4aa6" stroke-width=".26458"/>
 <circle cx="-312.93" cy="-341.25" r="0" fill="#5e4aa6" stroke-width=".26458"/>
 <rect x=".52915" y="1.8521" width="15.875" height="13.229" ry="1.1911" fill="url(#linearGradient894)" fill-rule="evenodd" stroke-width="1.0541" style="paint-order:stroke fill markers"/>
 <g transform="translate(-20.9 -8.0053e-5)" fill="#5e4aa6" stroke-width=".27889">
  <circle cx="-302.94" cy="-362.51" r="0"/>
  <circle cx="-302.94" cy="-362.51" r="0"/>
  <circle cx="-330.35" cy="-365.81" r="0"/>
  <circle cx="-312.93" cy="-380.11" r="0"/>
 </g>
 <g transform="translate(20.9)" fill="#fff">
  <rect x="-17.725" y="11.906" width="10.583" height="2.6458" ry=".52916" opacity=".3" stroke-opacity=".95294" stroke-width=".052588"/>
  <g transform="matrix(1 0 0 1.1111 -20.9 -312.86)">
   <rect x="4.4979" y="292.77" width="1.3229" height="1.3229" ry=".13229" style="paint-order:stroke markers fill"/>
   <rect x="6.7028" y="292.77" width="1.3229" height="1.3229" ry=".13229" style="paint-order:stroke markers fill"/>
   <rect x="8.9076" y="292.77" width="1.3229" height="1.3229" ry=".13229" style="paint-order:stroke markers fill"/>
   <rect x="11.112" y="292.77" width="1.3229" height="1.3229" ry=".13229" style="paint-order:stroke markers fill"/>
  </g>
 </g>
 <path d="m1.7202 1.852c-0.65989 0-1.1911 0.53125-1.1911 1.1911v0.26458c0-0.65989 0.53125-1.1911 1.1911-1.1911h13.493c0.65989 0 1.1911 0.53125 1.1911 1.1911v-0.26458c0-0.65989-0.53125-1.1911-1.1911-1.1911z" fill="#fff" fill-rule="evenodd" opacity=".3" stroke-width="1.0541" style="paint-order:stroke fill markers"/>
</svg>
