<?xml version="1.0" encoding="UTF-8" standalone="no"?>
<svg
   xmlns:dc="http://purl.org/dc/elements/1.1/"
   xmlns:cc="http://creativecommons.org/ns#"
   xmlns:rdf="http://www.w3.org/1999/02/22-rdf-syntax-ns#"
   xmlns:svg="http://www.w3.org/2000/svg"
   xmlns="http://www.w3.org/2000/svg"
   xmlns:xlink="http://www.w3.org/1999/xlink"
   xmlns:sodipodi="http://sodipodi.sourceforge.net/DTD/sodipodi-0.dtd"
   xmlns:inkscape="http://www.inkscape.org/namespaces/inkscape"
   width="64"
   height="64"
   version="1.1"
   viewBox="0 0 16.933 16.933"
   id="svg165"
   sodipodi:docname="user-trash.svg"
   inkscape:version="1.0.1 (3bc2e813f5, 2020-09-07)">
  <sodipodi:namedview
     pagecolor="#ffffff"
     bordercolor="#666666"
     borderopacity="1"
     objecttolerance="10"
     gridtolerance="10"
     guidetolerance="10"
     inkscape:pageopacity="0"
     inkscape:pageshadow="2"
     inkscape:window-width="1920"
     inkscape:window-height="932"
     id="namedview167"
     showgrid="false"
     inkscape:zoom="5.9765625"
     inkscape:cx="-33.835519"
     inkscape:cy="41.35701"
     inkscape:window-x="0"
     inkscape:window-y="36"
     inkscape:window-maximized="1"
     inkscape:current-layer="svg165"
     inkscape:document-rotation="0" />
  <metadata
     id="metadata2">
    <rdf:RDF>
      <cc:Work
         rdf:about="">
        <dc:format>image/svg+xml</dc:format>
        <dc:type
           rdf:resource="http://purl.org/dc/dcmitype/StillImage" />
        <dc:title></dc:title>
      </cc:Work>
    </rdf:RDF>
  </metadata>
  <defs
     id="defs87">
    <linearGradient
       id="linearGradient1260-3"
       x1="-30.796"
       x2="-17.736"
       y1="87.688"
       y2="87.688"
       gradientTransform="matrix(1.0427,0,0,1.0427,33.769,-88.388)"
       gradientUnits="userSpaceOnUse">
      <stop
         stop-color="#e2e9ed"
         offset="0"
         id="stop4" />
      <stop
         stop-color="#dee2e3"
         stop-opacity=".78431"
         offset="1"
         id="stop6" />
    </linearGradient>
    <filter
       id="c-3-6"
       x="-.085574"
       y="-.069658"
       width="1.1711"
       height="1.1393"
       color-interpolation-filters="sRGB">
      <feGaussianBlur
         stdDeviation="0.93845522"
         id="feGaussianBlur9" />
    </filter>
    <filter
       id="ac-2"
       x="-.37642"
       y="-.28625"
       width="1.7528"
       height="1.5725"
       color-interpolation-filters="sRGB">
      <feGaussianBlur
         stdDeviation="0.46610163"
         id="feGaussianBlur12" />
    </filter>
    <filter
       id="ag-9"
       x="-.080085"
       y="-.1059"
       width="1.1602"
       height="1.2118"
       color-interpolation-filters="sRGB">
      <feGaussianBlur
         stdDeviation="0.20389857"
         id="feGaussianBlur15" />
    </filter>
    <filter
       id="ab-1"
       x="-.37642"
       y="-.28625"
       width="1.7528"
       height="1.5725"
       color-interpolation-filters="sRGB">
      <feGaussianBlur
         stdDeviation="0.46610163"
         id="feGaussianBlur18" />
    </filter>
    <filter
       id="af-2"
       x="-.080085"
       y="-.1059"
       width="1.1602"
       height="1.2118"
       color-interpolation-filters="sRGB">
      <feGaussianBlur
         stdDeviation="0.20389857"
         id="feGaussianBlur21" />
    </filter>
    <filter
       id="z-7"
       x="-.24316"
       y="-.78397"
       width="1.4863"
       height="2.5679"
       color-interpolation-filters="sRGB">
      <feGaussianBlur
         stdDeviation="0.89514091"
         id="feGaussianBlur24" />
    </filter>
    <filter
       id="v-0"
       x="-.24316"
       y="-.78397"
       width="1.4863"
       height="2.5679"
       color-interpolation-filters="sRGB">
      <feGaussianBlur
         stdDeviation="0.89514091"
         id="feGaussianBlur27" />
    </filter>
    <filter
       id="y-9"
       x="-.24316"
       y="-.78397"
       width="1.4863"
       height="2.5679"
       color-interpolation-filters="sRGB">
      <feGaussianBlur
         stdDeviation="0.89514091"
         id="feGaussianBlur30" />
    </filter>
    <filter
       id="u-3"
       x="-.24316"
       y="-.78397"
       width="1.4863"
       height="2.5679"
       color-interpolation-filters="sRGB">
      <feGaussianBlur
         stdDeviation="0.89514091"
         id="feGaussianBlur33" />
    </filter>
    <filter
       id="t-6"
       x="-.16005"
       y="-.24367"
       width="1.3201"
       height="1.4873"
       color-interpolation-filters="sRGB">
      <feGaussianBlur
         stdDeviation="0.5727377"
         id="feGaussianBlur36" />
    </filter>
    <filter
       id="x-0"
       x="-.24316"
       y="-.78397"
       width="1.4863"
       height="2.5679"
       color-interpolation-filters="sRGB">
      <feGaussianBlur
         stdDeviation="0.89514091"
         id="feGaussianBlur39" />
    </filter>
    <filter
       id="w-6"
       x="-.24316"
       y="-.78397"
       width="1.4863"
       height="2.5679"
       color-interpolation-filters="sRGB">
      <feGaussianBlur
         stdDeviation="0.89514091"
         id="feGaussianBlur42" />
    </filter>
    <filter
       id="ah-6"
       x="-.080085"
       y="-.1059"
       width="1.1602"
       height="1.2118"
       color-interpolation-filters="sRGB">
      <feGaussianBlur
         stdDeviation="0.20389857"
         id="feGaussianBlur45" />
    </filter>
    <filter
       id="aj-7"
       x="-.080085"
       y="-.1059"
       width="1.1602"
       height="1.2118"
       color-interpolation-filters="sRGB">
      <feGaussianBlur
         stdDeviation="0.20389857"
         id="feGaussianBlur48" />
    </filter>
    <filter
       id="ae-5"
       x="-.37642"
       y="-.28625"
       width="1.7528"
       height="1.5725"
       color-interpolation-filters="sRGB">
      <feGaussianBlur
         stdDeviation="0.46610163"
         id="feGaussianBlur51" />
    </filter>
    <filter
       id="ad-3"
       x="-.37642"
       y="-.28625"
       width="1.7528"
       height="1.5725"
       color-interpolation-filters="sRGB">
      <feGaussianBlur
         stdDeviation="0.46610163"
         id="feGaussianBlur54" />
    </filter>
    <filter
       id="ai-5"
       x="-.080085"
       y="-.1059"
       width="1.1602"
       height="1.2118"
       color-interpolation-filters="sRGB">
      <feGaussianBlur
         stdDeviation="0.20389857"
         id="feGaussianBlur57" />
    </filter>
    <linearGradient
       id="l"
       x1="-.68508"
       x2="-3.3545"
       y1="217.79"
       y2="211.6"
       gradientUnits="userSpaceOnUse"
       xlink:href="#a" />
    <linearGradient
       id="a">
      <stop
         stop-color="#fff"
         offset="0"
         id="stop61" />
      <stop
         stop-color="#fff"
         stop-opacity="0"
         offset="1"
         id="stop63" />
    </linearGradient>
    <radialGradient
       id="radialGradient1591"
       cx="1.4014"
       cy="209.31"
       r="1.1949"
       gradientTransform="matrix(1.5723,1.7816,-0.76333,0.67366,158.91,65.624)"
       gradientUnits="userSpaceOnUse"
       xlink:href="#a" />
    <filter
       id="aa-6"
       x="-.054222"
       y="-.07024"
       width="1.1084"
       height="1.1405"
       color-interpolation-filters="sRGB">
      <feGaussianBlur
         stdDeviation="0.053991352"
         id="feGaussianBlur67" />
    </filter>
    <linearGradient
       id="linearGradient1168-2"
       x1="1.6576"
       x2="9.1599"
       y1="2.7155"
       y2="15.845"
       gradientTransform="translate(-1.0053e-4,-19.072)"
       gradientUnits="userSpaceOnUse">
      <stop
         stop-color="#d3d7d9"
         offset="0"
         id="stop70" />
      <stop
         stop-color="#cfd1d3"
         offset="1"
         id="stop72" />
    </linearGradient>
    <linearGradient
       id="linearGradient2093"
       x1="11.527"
       x2="51.715"
       y1="57.103"
       y2="57.103"
       gradientTransform="matrix(0.26458,0,0,0.26458,4.977e-5,-19.072)"
       gradientUnits="userSpaceOnUse">
      <stop
         stop-color="#aeaeae"
         offset="0"
         id="stop75" />
      <stop
         stop-color="#a2a2a2"
         offset=".57164"
         id="stop77" />
      <stop
         stop-color="#828282"
         offset="1"
         id="stop79" />
    </linearGradient>
    <linearGradient
       id="linearGradient1252-9"
       x1="-23.601"
       x2="-17.977"
       y1="99.967"
       y2="88.087"
       gradientTransform="matrix(1.0427,0,0,1.0427,33.769,-88.388)"
       gradientUnits="userSpaceOnUse">
      <stop
         stop-color="#afb4b8"
         offset="0"
         id="stop82" />
      <stop
         stop-color="#aeb4ba"
         offset="1"
         id="stop84" />
    </linearGradient>
  </defs>
  <path
     d="M 1.6574,2.715 7.2916,0.5287 15.2755,3.5526 9.1596,5.5578 Z"
     fill="url(#linearGradient1260-3)"
     opacity="0.8"
     id="path89"
     style="fill:url(#linearGradient1260-3);opacity:0.7" />
  <g
     transform="matrix(0.37157,0,0,0.37157,10.189,-73.314)"
     fill-opacity="0.26812"
     filter="url(#c-3-6)"
     id="g115">
    <g
       fill-rule="evenodd"
       id="g99" />
  </g>
  <g
     id="g157"
     transform="translate(0,19.072)">
    <path
       d="m 1.6574,-16.357 0.71412,0.28223 4.9103,-1.8789 0.0098,-0.58965 z"
       fill="#b3b3b3"
       fill-opacity="0.53726"
       id="path145" />
    <path
       d="m 7.2916,-18.543 7.984,3.0239 -0.83455,0.25693 -7.1592,-2.6912 z"
       fill="#b3b3b3"
       fill-opacity="0.53726"
       id="path147" />
    <path
       d="m 1.6573,-16.357 7.5023,2.8428 v 10.287 L 3.0497,-5.261 Z"
       fill="url(#linearGradient1168-2)"
       opacity="0.5"
       id="path149"
       style="fill:url(#linearGradient1168-2);opacity:0.7" />
    <path
       d="m 3.0499,-5.2603 v 0.53691 l 6.1137,2.0551 -0.00413,-0.55861 z m 10.633,0.46301 -4.5226,1.5709 0.00413,0.55861 4.5185,-1.574 z"
       fill="url(#linearGradient2093)"
       id="path151"
       style="fill:url(#linearGradient2093)" />
    <path
       d="m 1.6574,-16.357 0.27805,-0.11105 7.2266,2.7015 -0.00238,0.25232 z"
       fill="#f0f1f1"
       id="path153" />
    <path
       d="m 9.1597,-13.514 0.00238,-0.25232 5.8626,-1.8477 0.25087,0.09484 z"
       fill="#f0f1f1"
       id="path155" />
  </g>
  <path
     d="m 4.0332,9.8732 c -0.051785,0.07369 -0.089091,0.19917 -0.083821,0.28839 0.00123,0.02072 0.00279,0.04718 0.010558,0.08589 L 3.176747,8.86128 A 0.37763,0.24251 43.763 0 1 3.128567,8.71025 C 3.125767,8.66288 3.13939,8.61137 3.160309,8.58317 l 0.31133,-0.42749 -0.39578,-0.33718 1.2485,0.42876 0.66683,1.2208 -0.40193,-0.34481 z M 4.38826,6.7684 C 4.48691,6.63429 4.65921,6.60378 4.87676,6.68209 5.11202,6.76677 5.30163,6.93278 5.44523,7.18459 L 5.65782,7.55378 5.05172,8.50384 3.91532,7.40424 Z M 4.7173,11.0078 A 0.70789,0.4546 43.763 0 1 4.08909,10.24772 C 4.08412,10.16364 4.115852,10.03636 4.16793,9.96778 l 0.16559,-0.23305 1.3587,0.48908 0.068542,1.1596 z m 0.83867,-3.85 C 5.462099,6.99052 5.34177,6.85447 5.20089,6.75237 l 1.4102,0.50761 C 6.73723,7.30539 6.8375,7.38785 6.90036,7.498 L 7.28212,8.16936 7.64822,8.10081 7.09953,8.87923 5.85493,8.41555 6.22717,8.35443 Z m 2.3556,3.8751 c 0.17185,0.06186 0.31276,0.07164 0.42812,0.03106 l -0.64393,0.87743 a 0.36574,0.23487 43.763 0 1 -0.27238,0.04046 l -0.67103,-0.24155 0.023873,0.40403 -0.69988,-1.2122 0.5839,-0.75026 0.024193,0.40938 z m 0.49421,-0.74647 c 0.056507,0.10264 0.090669,0.20206 0.09625,0.2966 0.011147,0.18868 -0.10926,0.34065 -0.28672,0.3691 A 0.75607,0.48554 43.763 0 1 7.8927,10.90305 l -0.37864,-0.1363 -0.73943,-1.314 1.0609,-0.17816 z"
     fill="#0078d7"
     stroke-width="0.21208"
     id="path159" />
  <path
     d="m 9.1597,5.558 6.1159,-2.0052 -1.5928,10.721 -4.5231,1.571 z"
     fill="url(#linearGradient1252-9)"
     opacity="0.5"
     id="path161"
     style="fill:url(#linearGradient1252-9);opacity:0.7" />
</svg>
