<?xml version="1.0" encoding="UTF-8"?>
<svg width="64" height="64" version="1.1" viewBox="0 0 16.933 16.933" xmlns="http://www.w3.org/2000/svg" xmlns:cc="http://creativecommons.org/ns#" xmlns:dc="http://purl.org/dc/elements/1.1/" xmlns:rdf="http://www.w3.org/1999/02/22-rdf-syntax-ns#" xmlns:xlink="http://www.w3.org/1999/xlink">
 <defs>
  <style type="text/css"/>
  <style type="text/css"/>
  <linearGradient id="linearGradient2158" x1="-11.135" x2="-11.135" y1="1.859" y2="5.2935" gradientTransform="translate(20.162)" gradientUnits="userSpaceOnUse">
   <stop stop-color="#0078dc" offset="0"/>
   <stop stop-color="#0050b4" offset="1"/>
  </linearGradient>
  <linearGradient id="linearGradient1695" x1="-87.035" x2="-26.035" y1="35" y2="35" gradientTransform="matrix(.26458 0 0 .26458 23.424 -1e-7)" gradientUnits="userSpaceOnUse">
   <stop stop-color="#0078dc" offset="0"/>
   <stop stop-color="#0af" stop-opacity=".99608" offset="1"/>
  </linearGradient>
 </defs>
 <metadata>
  <rdf:RDF>
   <cc:Work rdf:about="">
    <dc:format>image/svg+xml</dc:format>
    <dc:type rdf:resource="http://purl.org/dc/dcmitype/StillImage"/>
    <dc:title/>
   </cc:Work>
  </rdf:RDF>
 </metadata>
 <g fill="#5e4aa6" stroke-width=".26458">
  <circle cx="-330.35" cy="-328.38" r="0"/>
  <circle cx="-312.11" cy="-326.25" r="0"/>
  <circle cx="-306.02" cy="-333.07" r="0"/>
  <circle cx="-308.84" cy="-326.01" r="0"/>
  <circle cx="-328.8" cy="-330.45" r="0"/>
 </g>
 <g transform="translate(.000295 -.00032978)" fill="#5e4aa6" stroke-width=".26458">
  <circle cx="-330.35" cy="-328.38" r="0"/>
  <circle cx="-312.11" cy="-326.25" r="0"/>
  <circle cx="-306.02" cy="-333.07" r="0"/>
  <circle cx="-308.84" cy="-326.01" r="0"/>
  <circle cx="-328.8" cy="-330.45" r="0"/>
 </g>
 <path d="m1.8554 1.852c-0.73288 0-1.3229 0.58999-1.3229 1.3229v10.583c0 0.73288 0.58999 1.3229 1.3229 1.3229h13.222c0.18322 0 0.35735-0.0371 0.51572-0.10387 0.15838-0.06676 0.30108-0.16311 0.42064-0.28266s0.2159-0.26226 0.28266-0.42064c0.06677-0.15838 0.10387-0.3325 0.10387-0.51572v-8.9957c0-0.18322-0.0371-0.35735-0.10387-0.51572-0.06676-0.15838-0.16312-0.30108-0.28266-0.42064-0.11956-0.11956-0.26226-0.2159-0.42064-0.28266-0.15838-0.06676-0.3325-0.10387-0.51572-0.10387h-7.666c-0.19843 0-0.39687-0.06615-0.58703-0.1695-0.19017-0.10335-0.37206-0.24391-0.53742-0.39273-0.33072-0.29765-0.5953-0.62837-0.72759-0.76066-0.11517-0.11517-0.29264-0.18102-0.46973-0.21859-0.16944-0.03594-0.33336-0.044141-0.44648-0.045991h-0.14211z" fill="url(#linearGradient2158)"/>
 <path d="m12.293 3.4395c-0.11312 0.00185-0.27704 0.010051-0.44648 0.045991-0.17709 0.03757-0.35456 0.10342-0.46973 0.21859-0.13229 0.13229-0.39687 0.46301-0.72759 0.76066-0.16536 0.14882-0.34725 0.28938-0.53742 0.39273-0.19016 0.10334-0.3886 0.1695-0.58703 0.1695h-8.2019c-0.21986 0-0.41824 0.088556-0.56171 0.23202-0.14347 0.14346-0.23202 0.34185-0.23202 0.56171v7.9373c0 0.73288 0.58998 1.3229 1.3229 1.3229h13.229c0.73288 0 1.3229-0.58998 1.3229-1.3229v-8.9957c0-0.73289-0.59-1.3229-1.3229-1.3229z" fill="url(#linearGradient1695)"/>
 <path d="m12.293 3.4395c-0.11312 0.00185-0.27704 0.01005-0.44648 0.045991-0.17709 0.03757-0.35456 0.10342-0.46973 0.21859-0.13229 0.13229-0.39686 0.46301-0.72759 0.76066-0.16536 0.14882-0.34727 0.28939-0.53742 0.39273-0.19016 0.10334-0.3886 0.1695-0.58703 0.1695h-8.2024c-0.21986 0-0.41826 0.088554-0.56171 0.23202-0.14347 0.14346-0.23202 0.34187-0.23202 0.56171v0.2651c0-0.21986 0.08855-0.41826 0.23202-0.56171 0.14347-0.14347 0.34187-0.23202 0.56171-0.23202h8.3084c0.19843 0 0.39685-0.066156 0.58703-0.1695 0.19017-0.10335 0.37209-0.24391 0.53742-0.39273 0.33073-0.29765 0.5953-0.62837 0.72759-0.76066 0.11517-0.11517 0.29265-0.18102 0.46973-0.21859 0.16944-0.035941 0.33337-0.044141 0.44648-0.045991h2.682c0.73289 0 1.3229 0.59 1.3229 1.3229v-0.26509c0-0.73289-0.59-1.3229-1.3229-1.3229z" fill="#008cff" fill-opacity=".9957"/>
 <path transform="scale(.26458)" d="m32.016 30-2.4141 7.7305-7.5957 0.005859 6.1191 4.7617-2.3613 7.7148 6.2148-4.7246 6.2012 4.7539-0.44922-1.4844-1.875-6.2363 6.1406-4.7324-7.5957-0.052734-2.3848-7.7363zm-0.007813 3.3672 1.6543 5.3672 5.4258 0.035156-4.3848 3.3828 1.623 5.4023-4.3398-3.3281-4.3633 3.3203 1.6621-5.4102-4.3711-3.4023 5.418-0.007813 1.6758-5.3594z" fill="#0050b4"/>
</svg>
