<?xml version="1.0" encoding="UTF-8" standalone="no"?>
<svg
   xmlns:dc="http://purl.org/dc/elements/1.1/"
   xmlns:cc="http://creativecommons.org/ns#"
   xmlns:rdf="http://www.w3.org/1999/02/22-rdf-syntax-ns#"
   xmlns:svg="http://www.w3.org/2000/svg"
   xmlns="http://www.w3.org/2000/svg"
   xmlns:xlink="http://www.w3.org/1999/xlink"
   xmlns:sodipodi="http://sodipodi.sourceforge.net/DTD/sodipodi-0.dtd"
   xmlns:inkscape="http://www.inkscape.org/namespaces/inkscape"
   width="64"
   height="64"
   version="1.1"
   viewBox="0 0 16.933 16.933"
   id="svg77"
   sodipodi:docname="default-folder-open.svg"
   inkscape:version="1.0.1 (3bc2e813f5, 2020-09-07)">
  <sodipodi:namedview
     pagecolor="#ffffff"
     bordercolor="#666666"
     borderopacity="1"
     objecttolerance="10"
     gridtolerance="10"
     guidetolerance="10"
     inkscape:pageopacity="0"
     inkscape:pageshadow="2"
     inkscape:window-width="1920"
     inkscape:window-height="932"
     id="namedview79"
     showgrid="false"
     inkscape:zoom="8.4521358"
     inkscape:cx="15.622135"
     inkscape:cy="22.732923"
     inkscape:window-x="0"
     inkscape:window-y="36"
     inkscape:window-maximized="1"
     inkscape:current-layer="svg77"
     inkscape:document-rotation="0" />
  <defs
     id="defs17">
    <linearGradient
       inkscape:collect="always"
       id="linearGradient1284">
      <stop
         style="stop-color:#0078dc;stop-opacity:1"
         offset="0"
         id="stop1280" />
      <stop
         style="stop-color:#0050b4;stop-opacity:0.99607843"
         offset="1"
         id="stop1282" />
    </linearGradient>
    <linearGradient
       inkscape:collect="always"
       id="linearGradient1046">
      <stop
         style="stop-color:#0078dc;stop-opacity:1"
         offset="0"
         id="stop1042" />
      <stop
         style="stop-color:#00aaff;stop-opacity:1"
         offset="1"
         id="stop1044" />
    </linearGradient>
    <style
       type="text/css"
       id="style2" />
    <linearGradient
       id="linearGradient3481"
       x1="25"
       x2="25"
       y1="155"
       y2="178.63263"
       gradientTransform="matrix(0.26458,0,0,0.26458,-0.79038,-39.158)"
       gradientUnits="userSpaceOnUse">
      <stop
         stop-color="#e1a000"
         offset="0"
         id="stop4"
         style="stop-color:#0078dc;stop-opacity:1" />
      <stop
         stop-color="#af7d00"
         offset="1"
         id="stop6"
         style="stop-color:#008cff;stop-opacity:1" />
    </linearGradient>
    <linearGradient
       id="linearGradient3421"
       x1="-16.147"
       x2="-.24118"
       y1="-47.834"
       y2="-47.834"
       gradientTransform="matrix(1,0,0,1.1,16.669,61.642)"
       gradientUnits="userSpaceOnUse">
      <stop
         stop-color="#ffbe0a"
         offset="0"
         id="stop9"
         style="stop-color:#0078dc;stop-opacity:1" />
      <stop
         stop-color="#ffdc6e"
         offset="1"
         id="stop11"
         style="stop-color:#008cff;stop-opacity:1" />
    </linearGradient>
    <style
       id="current-color-scheme"
       type="text/css">.ColorScheme-Text {
        color:#4d4d4d;
      }</style>
    <style
       type="text/css"
       id="style15">.ColorScheme-Text {
        color:#4d4d4d;
      }</style>
    <linearGradient
       inkscape:collect="always"
       xlink:href="#linearGradient1046"
       id="linearGradient1048"
       x1="1.374403"
       y1="37.233398"
       x2="61.206051"
       y2="37.233398"
       gradientUnits="userSpaceOnUse" />
    <linearGradient
       inkscape:collect="always"
       xlink:href="#linearGradient1284"
       id="linearGradient1286"
       x1="17.221113"
       y1="7.3317738"
       x2="17.221113"
       y2="25.222534"
       gradientUnits="userSpaceOnUse" />
  </defs>
  <metadata
     id="metadata19">
    <rdf:RDF>
      <cc:Work
         rdf:about="">
        <dc:format>image/svg+xml</dc:format>
        <dc:type
           rdf:resource="http://purl.org/dc/dcmitype/StillImage" />
        <dc:title></dc:title>
      </cc:Work>
    </rdf:RDF>
  </metadata>
  <path
     id="rect1276"
     style="fill:url(#linearGradient1286);fill-opacity:1;stroke-width:4.648;stroke-linecap:round"
     d="M 7.0117188 7 C 4.2417241 7 2.0117188 9.2299297 2.0117188 12 L 2.0117188 52 C 2.0117188 54.769995 4.2416485 57 7.0117188 57 L 56.986328 57 C 57.678827 57 58.336971 56.859786 58.935547 56.607422 C 59.53416 56.355096 60.073501 55.990914 60.525391 55.539062 C 60.97728 55.087211 61.341424 54.547832 61.59375 53.949219 C 61.846114 53.350605 61.986328 52.692499 61.986328 52 L 61.986328 18 C 61.986328 17.307501 61.846114 16.649357 61.59375 16.050781 C 61.341424 15.452168 60.977242 14.912827 60.525391 14.460938 C 60.073501 14.009048 59.53416 13.644942 58.935547 13.392578 C 58.336934 13.140252 57.678827 13 56.986328 13 L 28.011719 13 C 27.261732 13 26.511698 12.749959 25.792969 12.359375 C 25.074202 11.968753 24.386714 11.43748 23.761719 10.875 C 22.511729 9.7500015 21.511722 8.5000035 21.011719 8 C 20.576422 7.5647032 19.905658 7.3158278 19.236328 7.1738281 C 18.595912 7.0379892 17.976377 7.0069923 17.548828 7 L 17.011719 7 L 7.0117188 7 z "
     transform="scale(0.26457812)" />
  <g
     fill="#5e4aa6"
     stroke-width=".26458"
     id="g67">
    <circle
       cx="-330.35"
       cy="-328.38"
       r="0"
       id="circle21" />
    <circle
       cx="-312.11"
       cy="-326.25"
       r="0"
       id="circle23" />
    <circle
       cx="-306.02"
       cy="-333.07"
       r="0"
       id="circle25" />
    <circle
       cx="-308.84"
       cy="-326.01"
       r="0"
       id="circle27" />
    <circle
       cx="-328.8"
       cy="-330.45"
       r="0"
       id="circle29" />
    <g
       transform="translate(24.108 -4.592)"
       id="g41">
      <circle
         cx="-330.35"
         cy="-328.38"
         r="0"
         id="circle31" />
      <circle
         cx="-312.11"
         cy="-326.25"
         r="0"
         id="circle33" />
      <circle
         cx="-306.02"
         cy="-333.07"
         r="0"
         id="circle35" />
      <circle
         cx="-308.84"
         cy="-326.01"
         r="0"
         id="circle37" />
      <circle
         cx="-328.8"
         cy="-330.45"
         r="0"
         id="circle39" />
    </g>
    <g
       transform="translate(2.3479 -14.944)"
       id="g53">
      <circle
         cx="-330.35"
         cy="-328.38"
         r="0"
         id="circle43" />
      <circle
         cx="-312.11"
         cy="-326.25"
         r="0"
         id="circle45" />
      <circle
         cx="-306.02"
         cy="-333.07"
         r="0"
         id="circle47" />
      <circle
         cx="-308.84"
         cy="-326.01"
         r="0"
         id="circle49" />
      <circle
         cx="-328.8"
         cy="-330.45"
         r="0"
         id="circle51" />
    </g>
    <g
       transform="translate(.000295 -.00036978)"
       id="g65">
      <circle
         cx="-330.35"
         cy="-328.38"
         r="0"
         id="circle55" />
      <circle
         cx="-312.11"
         cy="-326.25"
         r="0"
         id="circle57" />
      <circle
         cx="-306.02"
         cy="-333.07"
         r="0"
         id="circle59" />
      <circle
         cx="-308.84"
         cy="-326.01"
         r="0"
         id="circle61" />
      <circle
         cx="-328.8"
         cy="-330.45"
         r="0"
         id="circle63" />
    </g>
  </g>
  <path
     id="rect1038"
     style="fill:url(#linearGradient1048);fill-opacity:1;stroke-width:4.648;stroke-linecap:round"
     d="M 48.419922 17.466797 C 47.992373 17.4736 47.372838 17.504786 46.732422 17.640625 C 46.063092 17.782625 45.392328 18.0315 44.957031 18.466797 C 44.457028 18.9668 43.457021 20.216798 42.207031 21.341797 C 41.582036 21.904277 40.894548 22.43555 40.175781 22.826172 C 39.457052 23.216756 38.707018 23.466797 37.957031 23.466797 L 3.03125 23.466797 C 2.2002667 23.466797 1.4504626 23.801502 0.90820312 24.34375 C 0.36594363 24.885972 -0.032587477 25.63827 0.03125 26.466797 L 1.9980469 52 C 2.2108498 54.761793 4.2279388 57 6.9980469 57 L 57 57 C 59.769995 57 61.816689 54.764023 62 52 L 63.958984 22.466797 C 64.142295 19.70285 61.729017 17.466797 58.958984 17.466797 L 48.419922 17.466797 z "
     transform="scale(0.26457812)" />
  <path
     id="rect1122"
     style="fill:#008cff;fill-opacity:1;stroke-width:4.648;stroke-linecap:round"
     d="M 48.443359 17.466797 C 48.015811 17.4736 47.396275 17.504786 46.755859 17.640625 C 46.08653 17.782625 45.415766 18.0315 44.980469 18.466797 C 44.480465 18.9668 43.480459 20.216798 42.230469 21.341797 C 41.605474 21.904277 40.917948 22.43555 40.199219 22.826172 C 39.48049 23.216756 38.730455 23.466797 37.980469 23.466797 L 3.0058594 23.466797 C 2.1748761 23.466797 1.425072 23.801502 0.8828125 24.34375 C 0.49956086 24.750208 -0.045728224 25.548338 0.029296875 26.451172 L 0.11328125 27.460938 C 0.11328125 26.629954 0.34056813 25.887925 0.8828125 25.345703 C 1.425072 24.803444 2.1748761 24.46875 3.0058594 24.46875 L 38.382812 24.46875 C 39.132799 24.46875 39.882833 24.218728 40.601562 23.828125 C 41.320329 23.437503 42.007818 22.90623 42.632812 22.34375 C 43.882802 21.218751 44.882809 19.968754 45.382812 19.46875 C 45.818109 19.033453 46.488873 18.784578 47.158203 18.642578 C 47.798619 18.506739 48.418155 18.475742 48.845703 18.46875 L 58.980469 18.46875 C 61.750463 18.46875 63.890625 20.69868 63.890625 23.46875 L 63.955078 22.394531 C 64.119377 19.671933 61.750577 17.466797 58.980469 17.466797 L 48.443359 17.466797 z "
     transform="scale(0.26457812)" />
</svg>
