<?xml version="1.0" encoding="UTF-8" standalone="no"?>
<svg
   xmlns:dc="http://purl.org/dc/elements/1.1/"
   xmlns:cc="http://creativecommons.org/ns#"
   xmlns:rdf="http://www.w3.org/1999/02/22-rdf-syntax-ns#"
   xmlns:svg="http://www.w3.org/2000/svg"
   xmlns="http://www.w3.org/2000/svg"
   xmlns:xlink="http://www.w3.org/1999/xlink"
   xmlns:sodipodi="http://sodipodi.sourceforge.net/DTD/sodipodi-0.dtd"
   xmlns:inkscape="http://www.inkscape.org/namespaces/inkscape"
   width="64"
   height="64"
   version="1.1"
   viewBox="0 0 16.933 16.933"
   id="svg52"
   sodipodi:docname="default-folder-music.svg"
   inkscape:version="1.0.1 (3bc2e813f5, 2020-09-07)">
  <sodipodi:namedview
     pagecolor="#ffffff"
     bordercolor="#666666"
     borderopacity="1"
     objecttolerance="10"
     gridtolerance="10"
     guidetolerance="10"
     inkscape:pageopacity="0"
     inkscape:pageshadow="2"
     inkscape:window-width="1920"
     inkscape:window-height="932"
     id="namedview54"
     showgrid="false"
     inkscape:zoom="11.953125"
     inkscape:cx="34.873137"
     inkscape:cy="35.525298"
     inkscape:window-x="0"
     inkscape:window-y="36"
     inkscape:window-maximized="1"
     inkscape:current-layer="svg52"
     inkscape:document-rotation="0" />
  <defs
     id="defs14">
    <style
       type="text/css"
       id="style2" />
    <linearGradient
       id="linearGradient3481"
       x1="25"
       x2="25"
       y1="155"
       y2="167.78"
       gradientTransform="matrix(0.26458,0,0,0.26458,-0.24158,-55.012)"
       gradientUnits="userSpaceOnUse">
      <stop
         stop-color="#e1a000"
         offset="0"
         id="stop4" />
      <stop
         stop-color="#af7d00"
         offset="1"
         id="stop6" />
    </linearGradient>
    <linearGradient
       id="linearGradient3421"
       x1="-16.147"
       x2="-.24118"
       y1="-47.834"
       y2="-47.834"
       gradientTransform="matrix(1,0,0,1.1,17.218,45.788)"
       gradientUnits="userSpaceOnUse">
      <stop
         stop-color="#ffbe0a"
         offset="0"
         id="stop9" />
      <stop
         stop-color="#ffdc6e"
         offset="1"
         id="stop11" />
    </linearGradient>
    <linearGradient
       inkscape:collect="always"
       xlink:href="#linearGradient2156"
       id="linearGradient2158"
       x1="-11.134952"
       y1="1.858956"
       x2="-11.134952"
       y2="5.2934809"
       gradientUnits="userSpaceOnUse"
       gradientTransform="translate(20.161915)" />
    <linearGradient
       inkscape:collect="always"
       id="linearGradient2156">
      <stop
         style="stop-color:#0078dc;stop-opacity:1"
         offset="0"
         id="stop2152" />
      <stop
         style="stop-color:#0050b4;stop-opacity:1"
         offset="1"
         id="stop2154" />
    </linearGradient>
    <linearGradient
       inkscape:collect="always"
       xlink:href="#linearGradient1693"
       id="linearGradient1695"
       x1="-87.035156"
       y1="35"
       x2="-26.035156"
       y2="35"
       gradientUnits="userSpaceOnUse"
       gradientTransform="matrix(0.26457812,0,0,0.26457812,23.424465,2.4e-7)" />
    <linearGradient
       inkscape:collect="always"
       id="linearGradient1693">
      <stop
         style="stop-color:#0078dc;stop-opacity:1"
         offset="0"
         id="stop1689" />
      <stop
         style="stop-color:#00aaff;stop-opacity:0.99607843"
         offset="1"
         id="stop1691" />
    </linearGradient>
  </defs>
  <metadata
     id="metadata16">
    <rdf:RDF>
      <cc:Work
         rdf:about="">
        <dc:format>image/svg+xml</dc:format>
        <dc:type
           rdf:resource="http://purl.org/dc/dcmitype/StillImage" />
        <dc:title></dc:title>
      </cc:Work>
    </rdf:RDF>
  </metadata>
  <g
     fill="#5e4aa6"
     stroke-width=".26458"
     id="g36">
    <circle
       cx="-330.35"
       cy="-328.38"
       r="0"
       id="circle26" />
    <circle
       cx="-312.11"
       cy="-326.25"
       r="0"
       id="circle28" />
    <circle
       cx="-306.02"
       cy="-333.07"
       r="0"
       id="circle30" />
    <circle
       cx="-308.84"
       cy="-326.01"
       r="0"
       id="circle32" />
    <circle
       cx="-328.8"
       cy="-330.45"
       r="0"
       id="circle34" />
  </g>
  <g
     transform="translate(.000295 -.00033978)"
     fill="#5e4aa6"
     stroke-width=".26458"
     id="g48">
    <circle
       cx="-330.35"
       cy="-328.38"
       r="0"
       id="circle38" />
    <circle
       cx="-312.11"
       cy="-326.25"
       r="0"
       id="circle40" />
    <circle
       cx="-306.02"
       cy="-333.07"
       r="0"
       id="circle42" />
    <circle
       cx="-308.84"
       cy="-326.01"
       r="0"
       id="circle44" />
    <circle
       cx="-328.8"
       cy="-330.45"
       r="0"
       id="circle46" />
  </g>
  <path
     id="rect2148"
     style="fill:url(#linearGradient2158);fill-opacity:1;stroke:none;stroke-width:0.264578;stroke-linecap:round;stroke-opacity:1"
     d="m 1.8554063,1.8520471 c -0.7328803,0 -1.3228903,0.5899907 -1.3228903,1.3228906 V 13.758062 c 0,0.73288 0.58999,1.322891 1.3228903,1.322891 H 15.077595 c 0.18322,0 0.35735,-0.0371 0.51572,-0.103868 0.158379,-0.06676 0.301078,-0.163114 0.420638,-0.282664 0.11956,-0.11955 0.215905,-0.262258 0.282664,-0.420638 0.06677,-0.15838 0.103867,-0.332501 0.103867,-0.515721 V 4.7624065 c 0,-0.1832201 -0.0371,-0.3573506 -0.103867,-0.5157207 C 16.229858,4.0883059 16.133502,3.945608 16.013953,3.8260481 15.894392,3.7064879 15.751694,3.6101433 15.593315,3.5433834 c -0.15838,-0.06676 -0.3325,-0.1038675 -0.51572,-0.1038675 H 7.4115465 c -0.1984301,0 -0.396873,-0.06615 -0.5870332,-0.1694954 C 6.6343433,3.1666705 6.4524495,3.0261073 6.2870895,2.8772874 5.9563695,2.5796375 5.6917903,2.2489152 5.5595005,2.1166253 5.4443304,2.0014553 5.2668604,1.9356083 5.0897703,1.8980383 4.9203305,1.8620983 4.7564154,1.8538973 4.6432952,1.8520473 H 4.5011874 Z" />
  <path
     id="rect1669"
     style="fill:url(#linearGradient1695);fill-opacity:1;stroke:none;stroke-width:0.264578;stroke-linecap:round;stroke-opacity:1"
     d="m 12.293064,3.4395158 c -0.11312,0.00185 -0.277035,0.010051 -0.446475,0.045991 -0.17709,0.03757 -0.35456,0.103417 -0.46973,0.2185871 -0.132291,0.1322901 -0.39687,0.463012 -0.72759,0.7606621 -0.165359,0.14882 -0.347253,0.2893832 -0.537423,0.3927332 -0.1901603,0.10334 -0.3886029,0.1694954 -0.5870328,0.1694954 H 1.322891 c -0.21986,0 -0.418242,0.088556 -0.561712,0.2320226 -0.14347,0.1434601 -0.232022,0.3418519 -0.232022,0.5617115 v 7.9373433 c 0,0.73288 0.58998,1.322891 1.3228905,1.322891 H 15.080954 c 0.732879,0 1.32289,-0.589981 1.32289,-1.322891 V 4.7624065 c 0,-0.73289 -0.59,-1.3228907 -1.32289,-1.3228907 z" />
  <path
     id="rect2138"
     style="fill:#008cff;fill-opacity:0.995699;stroke:none;stroke-width:0.264578;stroke-linecap:round;stroke-opacity:1"
     d="m 12.293323,3.4395158 c -0.113121,0.00185 -0.277039,0.01005 -0.446476,0.045991 -0.177091,0.03757 -0.354557,0.1034181 -0.469729,0.2185871 -0.13229,0.1322901 -0.396865,0.4630096 -0.72759,0.7606621 -0.165362,0.148821 -0.34727,0.2893882 -0.537423,0.3927332 C 9.9219426,4.960829 9.7235067,5.0269846 9.5250717,5.0269846 H 1.322633 c -0.219861,0 -0.418257,0.088554 -0.561712,0.2320226 C 0.617449,5.4024678 0.528898,5.6008794 0.528898,5.8207187 v 0.2650951 c 0,-0.2198607 0.08855,-0.4182565 0.232023,-0.5617118 C 0.904392,5.3806308 1.102793,5.2920794 1.322633,5.2920794 h 8.3083732 c 0.1984325,0 0.3968528,-0.066156 0.5870328,-0.1694953 0.190172,-0.1033501 0.372088,-0.2439069 0.537423,-0.3927332 0.330726,-0.2976526 0.5953,-0.6283721 0.72759,-0.7606622 0.115172,-0.1151716 0.292646,-0.1810167 0.46973,-0.218587 0.169442,-0.035941 0.333368,-0.044141 0.446477,-0.045991 h 2.681953 c 0.732887,0 1.32289,0.5900039 1.32289,1.3228906 V 4.7624065 c 0,-0.7328868 -0.590003,-1.3228907 -1.32289,-1.3228907 z" />
  <path
     id="rect860"
     style="fill:#0050b4;stroke-width:4.648;stroke-linecap:round"
     d="M 39.386719 30.001953 C 39.302212 29.997759 39.215806 30.00339 39.130859 30.021484 L 29.130859 32.095703 C 28.572537 32.212455 28.167969 32.779914 28.167969 33.445312 L 28.167969 45.136719 C 27.673219 44.641742 27.033362 44.341797 26.333984 44.341797 C 24.772253 44.341797 23.5 45.834774 23.5 47.669922 C 23.5 49.50507 24.772253 51 26.333984 51 C 27.895716 51 29.166016 49.50507 29.166016 47.669922 L 29.166016 37.197266 L 39.5 35.052734 L 39.5 42.785156 C 39.00525 42.29018 38.365431 41.990234 37.666016 41.990234 C 36.104322 41.990234 34.833984 43.483211 34.833984 45.318359 C 34.833984 47.153507 36.104284 48.648437 37.666016 48.648438 C 39.227747 48.648438 40.5 47.153507 40.5 45.318359 L 40.5 31.371094 C 40.5 30.964824 40.348304 30.581785 40.082031 30.320312 C 39.883829 30.12418 39.64024 30.014536 39.386719 30.001953 z M 39.304688 31.177734 C 39.372229 31.166018 39.417569 31.199449 39.439453 31.222656 C 39.461375 31.243822 39.498047 31.291684 39.498047 31.371094 L 39.498047 33.863281 L 29.166016 36.003906 L 29.166016 33.445312 C 29.166016 33.349575 29.22524 33.268281 29.304688 33.251953 L 39.304688 31.177734 z M 37.666016 43.164062 C 38.677324 43.164062 39.5 44.131892 39.5 45.320312 C 39.5 46.508733 38.677362 47.474609 37.666016 47.474609 C 36.65467 47.474609 35.832031 46.508733 35.832031 45.320312 C 35.832031 44.131892 36.654708 43.164063 37.666016 43.164062 z M 26.333984 45.513672 C 27.34533 45.513672 28.167969 46.479549 28.167969 47.667969 C 28.167969 48.856389 27.345292 49.824219 26.333984 49.824219 C 25.322638 49.824219 24.5 48.856389 24.5 47.667969 C 24.5 46.479549 25.322638 45.513672 26.333984 45.513672 z "
     transform="scale(0.26457812)" />
</svg>
