<?xml version="1.0" encoding="UTF-8" standalone="no"?>
<svg
   xmlns:dc="http://purl.org/dc/elements/1.1/"
   xmlns:cc="http://creativecommons.org/ns#"
   xmlns:rdf="http://www.w3.org/1999/02/22-rdf-syntax-ns#"
   xmlns:svg="http://www.w3.org/2000/svg"
   xmlns="http://www.w3.org/2000/svg"
   xmlns:xlink="http://www.w3.org/1999/xlink"
   xmlns:sodipodi="http://sodipodi.sourceforge.net/DTD/sodipodi-0.dtd"
   xmlns:inkscape="http://www.inkscape.org/namespaces/inkscape"
   width="64"
   height="64"
   version="1.1"
   viewBox="0 0 16.933 16.933"
   id="svg70"
   sodipodi:docname="default-folder-pictures.svg"
   inkscape:version="1.0.1 (3bc2e813f5, 2020-09-07)">
  <sodipodi:namedview
     pagecolor="#ffffff"
     bordercolor="#666666"
     borderopacity="1"
     objecttolerance="10"
     gridtolerance="10"
     guidetolerance="10"
     inkscape:pageopacity="0"
     inkscape:pageshadow="2"
     inkscape:window-width="1920"
     inkscape:window-height="932"
     id="namedview72"
     showgrid="false"
     inkscape:zoom="5.9765625"
     inkscape:cx="15.099781"
     inkscape:cy="31.043229"
     inkscape:window-x="0"
     inkscape:window-y="36"
     inkscape:window-maximized="1"
     inkscape:current-layer="svg70"
     inkscape:document-rotation="0" />
  <defs
     id="defs12">
    <linearGradient
       id="linearGradient3481"
       x1="25"
       x2="25"
       y1="155"
       y2="167.78"
       gradientTransform="matrix(0.26458,0,0,0.26458,-6.6007,-65.952)"
       gradientUnits="userSpaceOnUse">
      <stop
         stop-color="#e1a000"
         offset="0"
         id="stop2" />
      <stop
         stop-color="#af7d00"
         offset="1"
         id="stop4" />
    </linearGradient>
    <linearGradient
       id="linearGradient3421"
       x1="-16.147"
       x2="-.24118"
       y1="-47.834"
       y2="-47.834"
       gradientTransform="matrix(1,0,0,1.1,10.859,34.848)"
       gradientUnits="userSpaceOnUse">
      <stop
         stop-color="#ffbe0a"
         offset="0"
         id="stop7" />
      <stop
         stop-color="#ffdc6e"
         offset="1"
         id="stop9" />
    </linearGradient>
    <linearGradient
       inkscape:collect="always"
       xlink:href="#linearGradient2156"
       id="linearGradient2158"
       x1="-11.134952"
       y1="1.858956"
       x2="-11.134952"
       y2="5.2934809"
       gradientUnits="userSpaceOnUse"
       gradientTransform="translate(20.161915)" />
    <linearGradient
       inkscape:collect="always"
       id="linearGradient2156">
      <stop
         style="stop-color:#0078dc;stop-opacity:1"
         offset="0"
         id="stop2152" />
      <stop
         style="stop-color:#0050b4;stop-opacity:1"
         offset="1"
         id="stop2154" />
    </linearGradient>
    <linearGradient
       inkscape:collect="always"
       xlink:href="#linearGradient1693"
       id="linearGradient1695"
       x1="-87.035156"
       y1="35"
       x2="-26.035156"
       y2="35"
       gradientUnits="userSpaceOnUse"
       gradientTransform="matrix(0.26457812,0,0,0.26457812,23.424465,0)" />
    <linearGradient
       inkscape:collect="always"
       id="linearGradient1693">
      <stop
         style="stop-color:#0078dc;stop-opacity:1"
         offset="0"
         id="stop1689" />
      <stop
         style="stop-color:#00aaff;stop-opacity:0.99607843"
         offset="1"
         id="stop1691" />
    </linearGradient>
  </defs>
  <metadata
     id="metadata14">
    <rdf:RDF>
      <cc:Work
         rdf:about="">
        <dc:format>image/svg+xml</dc:format>
        <dc:type
           rdf:resource="http://purl.org/dc/dcmitype/StillImage" />
        <dc:title></dc:title>
      </cc:Work>
    </rdf:RDF>
  </metadata>
  <g
     fill="#5e4aa6"
     stroke-width=".26458"
     id="g58">
    <circle
       cx="-330.35"
       cy="-328.38"
       r="0"
       id="circle24" />
    <circle
       cx="-312.11"
       cy="-326.25"
       r="0"
       id="circle26" />
    <circle
       cx="-306.02"
       cy="-333.07"
       r="0"
       id="circle28" />
    <circle
       cx="-308.84"
       cy="-326.01"
       r="0"
       id="circle30" />
    <circle
       cx="-328.8"
       cy="-330.45"
       r="0"
       id="circle32" />
    <g
       transform="translate(-1.4001e-4,5e-6)"
       id="g44">
      <circle
         cx="-330.35"
         cy="-328.38"
         r="0"
         id="circle34" />
      <circle
         cx="-312.11"
         cy="-326.25"
         r="0"
         id="circle36" />
      <circle
         cx="-306.02"
         cy="-333.07"
         r="0"
         id="circle38" />
      <circle
         cx="-308.84"
         cy="-326.01"
         r="0"
         id="circle40" />
      <circle
         cx="-328.8"
         cy="-330.45"
         r="0"
         id="circle42" />
    </g>
    <g
       transform="translate(.000295 -.00032978)"
       id="g56">
      <circle
         cx="-330.35"
         cy="-328.38"
         r="0"
         id="circle46" />
      <circle
         cx="-312.11"
         cy="-326.25"
         r="0"
         id="circle48" />
      <circle
         cx="-306.02"
         cy="-333.07"
         r="0"
         id="circle50" />
      <circle
         cx="-308.84"
         cy="-326.01"
         r="0"
         id="circle52" />
      <circle
         cx="-328.8"
         cy="-330.45"
         r="0"
         id="circle54" />
    </g>
  </g>
  <path
     id="rect2148"
     style="fill:url(#linearGradient2158);fill-opacity:1;stroke:none;stroke-width:0.264578;stroke-linecap:round;stroke-opacity:1"
     d="m 1.855406,1.8520469 c -0.73288,0 -1.32289,0.5899907 -1.32289,1.3228906 V 13.758062 c 0,0.73288 0.58999,1.322891 1.32289,1.322891 h 13.222188 c 0.18322,0 0.35735,-0.0371 0.51572,-0.103868 0.15838,-0.06676 0.301078,-0.163114 0.420638,-0.282664 0.11956,-0.11955 0.215905,-0.262258 0.282665,-0.420638 0.06677,-0.15838 0.103867,-0.332501 0.103867,-0.515721 V 4.7624063 c 0,-0.1832201 -0.0371,-0.3573506 -0.103867,-0.5157207 -0.06676,-0.1583799 -0.163115,-0.3010778 -0.282665,-0.4206377 -0.11956,-0.1195602 -0.262258,-0.2159048 -0.420638,-0.2826647 -0.15838,-0.06676 -0.3325,-0.1038675 -0.51572,-0.1038675 H 7.411546 c -0.19843,0 -0.396873,-0.06615 -0.587033,-0.1694954 C 6.634343,3.1666703 6.452449,3.0261071 6.287089,2.8772872 5.956369,2.5796373 5.69179,2.248915 5.5595,2.1166251 5.44433,2.0014551 5.26686,1.9356081 5.08977,1.8980381 4.92033,1.8620981 4.756415,1.8538971 4.643295,1.8520471 H 4.501187 Z" />
  <path
     id="rect1669"
     style="fill:url(#linearGradient1695);fill-opacity:1;stroke:none;stroke-width:0.264578;stroke-linecap:round;stroke-opacity:1"
     d="m 12.293064,3.4395156 c -0.11312,0.00185 -0.277035,0.010051 -0.446475,0.045991 -0.17709,0.03757 -0.35456,0.103417 -0.46973,0.2185871 -0.132291,0.1322901 -0.39687,0.463012 -0.72759,0.7606621 -0.16536,0.14882 -0.347254,0.2893832 -0.537424,0.3927332 -0.19016,0.10334 -0.388602,0.1694954 -0.587032,0.1694954 H 1.322891 c -0.21986,0 -0.418242,0.088556 -0.561712,0.2320226 -0.14347,0.1434601 -0.232022,0.3418519 -0.232022,0.5617115 v 7.9373435 c 0,0.73288 0.58998,1.322891 1.32289,1.322891 h 13.228906 c 0.73288,0 1.322891,-0.589981 1.322891,-1.322891 V 4.7624063 c 0,-0.73289 -0.590001,-1.3228907 -1.322891,-1.3228907 z" />
  <path
     id="rect2138"
     style="fill:#008cff;fill-opacity:0.995699;stroke:none;stroke-width:0.264578;stroke-linecap:round;stroke-opacity:1"
     d="m 12.293323,3.4395156 c -0.113121,0.00185 -0.277039,0.01005 -0.446476,0.045991 -0.177091,0.03757 -0.354557,0.1034181 -0.469729,0.2185871 -0.13229,0.1322901 -0.396865,0.4630096 -0.72759,0.7606621 C 10.484165,4.6135768 10.302257,4.754144 10.112104,4.857489 9.921942,4.9608288 9.723506,5.0269844 9.525071,5.0269844 H 1.322633 c -0.219861,0 -0.418257,0.088554 -0.561712,0.2320226 C 0.617449,5.4024676 0.528898,5.6008792 0.528898,5.8207185 v 0.2650951 c 0,-0.2198607 0.08855,-0.4182565 0.232023,-0.5617118 C 0.904392,5.3806306 1.102793,5.2920792 1.322633,5.2920792 h 8.308373 c 0.198432,0 0.396852,-0.066156 0.587032,-0.1694953 0.190173,-0.1033501 0.372089,-0.2439069 0.537424,-0.3927332 0.330726,-0.2976526 0.5953,-0.6283721 0.72759,-0.7606622 0.115172,-0.1151716 0.292646,-0.1810167 0.46973,-0.218587 0.169442,-0.035941 0.333368,-0.044141 0.446476,-0.045991 h 2.681954 c 0.732886,0 1.32289,0.5900039 1.32289,1.3228906 V 4.7624063 c 0,-0.7328868 -0.590004,-1.3228907 -1.32289,-1.3228907 z" />
  <path
     d="m 6.149519,11.641 1.0583,-1.3229 1.5875,2.1166"
     id="path64"
     style="fill:none;stroke:#0050b4;stroke-width:0.26458px;stroke-linecap:round;stroke-linejoin:round;stroke-opacity:1" />
  <path
     d="m 8.400719,11.377 0.79373,-1.0583 1.5875,1.852"
     id="path66"
     style="fill:none;stroke:#0050b4;stroke-width:0.26458px;stroke-linecap:round;stroke-linejoin:round;stroke-opacity:1" />
  <path
     id="rect1039"
     style="fill:#0050b4;fill-opacity:1;stroke:none;stroke-width:4.64800009;stroke-linecap:round;stroke-opacity:1;stroke-miterlimit:4;stroke-dasharray:none"
     d="M 23.5 32 C 22.391972 32 21.5 32.89201 21.5 34 L 21.5 47 C 21.5 48.108028 22.391972 49 23.5 49 L 40.5 49 C 41.608028 49 42.5 48.108028 42.5 47 L 42.5 34 C 42.5 32.89201 41.608028 32 40.5 32 L 23.5 32 z M 23.5 33 L 40.5 33 C 41.054014 33 41.5 33.445986 41.5 34 L 41.5 47 C 41.5 47.554014 41.054014 48 40.5 48 L 23.5 48 C 22.945986 48 22.5 47.554014 22.5 47 L 22.5 34 C 22.5 33.445986 22.945986 33 23.5 33 z "
     transform="scale(0.26457812)" />
  <path
     id="rect1045"
     style="fill:#0050b4;fill-opacity:1;stroke:none;stroke-width:4.648;stroke-linecap:round;stroke-miterlimit:4;stroke-dasharray:none;stroke-opacity:1"
     d="M 37.998047 34 A 2.0000142 2.0000142 0 0 0 35.998047 36 A 2.0000142 2.0000142 0 0 0 37.998047 38 A 2.0000142 2.0000142 0 0 0 39.998047 36 A 2.0000142 2.0000142 0 0 0 37.998047 34 z M 37.998047 35 A 1.0000071 1.0000071 0 0 1 38.998047 36 A 1.0000071 1.0000071 0 0 1 37.998047 37 A 1.0000071 1.0000071 0 0 1 36.998047 36 A 1.0000071 1.0000071 0 0 1 37.998047 35 z "
     transform="scale(0.26457812)" />
</svg>
