<?xml version="1.0" encoding="UTF-8"?>
<svg width="64" height="64" version="1.1" viewBox="0 0 64 64" xmlns="http://www.w3.org/2000/svg" xmlns:cc="http://creativecommons.org/ns#" xmlns:dc="http://purl.org/dc/elements/1.1/" xmlns:rdf="http://www.w3.org/1999/02/22-rdf-syntax-ns#" xmlns:xlink="http://www.w3.org/1999/xlink">
 <metadata>
  <rdf:RDF>
   <cc:Work rdf:about="">
    <dc:format>image/svg+xml</dc:format>
    <dc:type rdf:resource="http://purl.org/dc/dcmitype/StillImage"/>
    <dc:title/>
   </cc:Work>
  </rdf:RDF>
 </metadata>
 <defs>
  <style id="current-color-scheme" type="text/css">.ColorScheme-Text { color:#565656; } .ColorScheme-Highlight { color:#5294e2; }</style>
  <style type="text/css"/>
  <style type="text/css">.ColorScheme-Text {
        color:#4d4d4d;
      }</style>
  <style type="text/css">.ColorScheme-Text {
        color:#4d4d4d;
      }</style>
  <style type="text/css"/>
  <style type="text/css">.ColorScheme-Text {
        color:#4d4d4d;
      }</style>
  <style type="text/css">.ColorScheme-Text {
        color:#4d4d4d;
      }</style>
  <style type="text/css">.ColorScheme-Text { color:#565656; } .ColorScheme-Highlight { color:#5294e2; }</style>
  <linearGradient id="linearGradient2158" x1="-11.135" x2="-11.135" y1="1.859" y2="5.2935" gradientTransform="matrix(3.7796 0 0 3.7796 76.204 0)" gradientUnits="userSpaceOnUse">
   <stop stop-color="#0078dc" offset="0"/>
   <stop stop-color="#0050b4" offset="1"/>
  </linearGradient>
  <linearGradient id="linearGradient1695" x1="-87.035" x2="-26.035" y1="35" y2="35" gradientTransform="translate(88.535)" gradientUnits="userSpaceOnUse">
   <stop stop-color="#0078dc" offset="0"/>
   <stop stop-color="#00aaff" stop-opacity=".99608" offset="1"/>
  </linearGradient>
 </defs>
 <path d="m7.0127 7c-2.77 0-5 2.2299-5 5v40c0 2.77 2.2299 5 5 5h49.975c0.6925 0 1.3506-0.14022 1.9492-0.39258 0.59861-0.25233 1.138-0.61651 1.5898-1.0684 0.45188-0.45185 0.81603-0.99123 1.0684-1.5898 0.25236-0.59861 0.39257-1.2567 0.39257-1.9492v-34c0-0.6925-0.14022-1.3506-0.39257-1.9492-0.25233-0.59861-0.61651-1.138-1.0684-1.5898-0.45189-0.45189-0.99124-0.81604-1.5898-1.0684-0.59861-0.25233-1.2567-0.39258-1.9492-0.39258h-28.975c-0.74998 0-1.5-0.25002-2.2188-0.64063-0.71876-0.39062-1.4062-0.92189-2.0312-1.4844-1.25-1.125-2.25-2.375-2.75-2.875-0.4353-0.4353-1.1061-0.68417-1.7754-0.82617-0.64041-0.13584-1.2599-0.16684-1.6875-0.17383h-0.53711z" fill="url(#linearGradient2158)"/>
 <path d="m46.463 13c-0.42755 7e-3 -1.0471 0.038-1.6875 0.17383-0.66933 0.142-1.3401 0.39087-1.7754 0.82617-0.50001 0.5-1.5 1.75-2.75 2.875-0.625 0.56248-1.3125 1.0938-2.0312 1.4844-0.71873 0.39059-1.4688 0.64063-2.2188 0.64063h-31c-0.83098 0-1.5808 0.33471-2.123 0.87695-0.54226 0.54223-0.87695 1.2921-0.87695 2.123v30c0 2.77 2.2299 5 5 5h50c2.77 0 5-2.2299 5-5v-34c0-2.77-2.23-5-5-5z" fill="url(#linearGradient1695)"/>
 <path d="m46.464 13c-0.42755 7e-3 -1.0471 0.038-1.6875 0.17383-0.66934 0.142-1.3401 0.39088-1.7754 0.82617-0.50001 0.5-1.5 1.75-2.75 2.875-0.62501 0.56248-1.3126 1.0938-2.0312 1.4844-0.71874 0.39059-1.4688 0.64063-2.2188 0.64063h-31.002c-0.83098 0-1.5808 0.3347-2.123 0.87695-0.54227 0.54223-0.87696 1.2921-0.87696 2.123v1.002c0-0.83098 0.33469-1.5808 0.87696-2.123 0.54226-0.54227 1.2921-0.87696 2.123-0.87696h31.402c0.74999 0 1.4999-0.25004 2.2188-0.64062 0.71877-0.39062 1.4064-0.92187 2.0312-1.4844 1.25-1.125 2.25-2.375 2.75-2.875 0.4353-0.4353 1.1061-0.68417 1.7754-0.82617 0.64042-0.13584 1.26-0.16683 1.6875-0.17383h10.137c2.77 0 5 2.23 5 5v-1.002c0-2.77-2.23-5-5-5z" fill="#008cff" fill-opacity=".9957"/>
 <path d="m32.017 30.476c-3.7316 0-4.5966 2.3257-4.4066 5.3683 0.0063 0.10056 0.02497 0.20857 0.03348 0.31064-0.0023-0.0013-0.0091-0.01436-0.01116-0.01488 0 0-1.332-0.05154-0.97656 1.2723 0.3554 1.3239 1.0301 2.7355 1.7764 2.8943 0.02518 0.0054 0.04267-0.0068 0.06325-0.01116 0.18256 0.4947 0.3871 0.93855 0.62128 1.3151v0.59896s0.23078 1.828-1.0751 2.5037c-1.306 0.67564-5.6291 2.7013-5.8612 3.0766-0.23216 0.37536-0.57934 1.4584 0.40737 1.7336h18.824c0.98673-0.27526 0.63955-1.3583 0.40737-1.7336-0.23218-0.37536-4.5554-2.4009-5.8612-3.0766-1.306-0.67564-1.0751-2.5037-1.0751-2.5037v-0.54129c0.14843-0.23256 0.29062-0.47779 0.41853-0.75707 0.06869-0.14998 0.12496-0.32963 0.18787-0.49293 0.02409 0.0081 0.04707 0.01963 0.07813 0.01302 0.74634-0.15884 1.421-1.5705 1.7764-2.8943 0.35133-1.3087-0.93752-1.2715-0.96726-1.2705 0.29357-3.2432-0.46089-5.7906-4.3601-5.7906z" fill="none" stroke="#0050b4" stroke-width=".95238"/>
</svg>
