<?xml version="1.0" encoding="UTF-8" standalone="no"?>
<svg
   xmlns:dc="http://purl.org/dc/elements/1.1/"
   xmlns:cc="http://creativecommons.org/ns#"
   xmlns:rdf="http://www.w3.org/1999/02/22-rdf-syntax-ns#"
   xmlns:svg="http://www.w3.org/2000/svg"
   xmlns="http://www.w3.org/2000/svg"
   xmlns:xlink="http://www.w3.org/1999/xlink"
   xmlns:sodipodi="http://sodipodi.sourceforge.net/DTD/sodipodi-0.dtd"
   xmlns:inkscape="http://www.inkscape.org/namespaces/inkscape"
   width="64"
   height="64"
   version="1.1"
   viewBox="0 0 16.933 16.933"
   id="svg46"
   sodipodi:docname="default-folder.svg"
   inkscape:version="1.0.1 (3bc2e813f5, 2020-09-07)">
  <sodipodi:namedview
     pagecolor="#ffffff"
     bordercolor="#666666"
     borderopacity="1"
     objecttolerance="10"
     gridtolerance="10"
     guidetolerance="10"
     inkscape:pageopacity="0"
     inkscape:pageshadow="2"
     inkscape:window-width="1920"
     inkscape:window-height="932"
     id="namedview48"
     showgrid="false"
     inkscape:zoom="4.2260679"
     inkscape:cx="-26.837958"
     inkscape:cy="44.818737"
     inkscape:window-x="0"
     inkscape:window-y="36"
     inkscape:window-maximized="1"
     inkscape:current-layer="svg46" />
  <defs
     id="defs12">
    <linearGradient
       id="linearGradient3481"
       x1="25"
       x2="25"
       y1="155"
       y2="167.78"
       gradientTransform="matrix(.26458 0 0 .26458 -2.3076 -56.702)"
       gradientUnits="userSpaceOnUse">
      <stop
         stop-color="#e1a000"
         offset="0"
         id="stop2" />
      <stop
         stop-color="#af7d00"
         offset="1"
         id="stop4" />
    </linearGradient>
    <linearGradient
       id="linearGradient3421"
       x1="-16.147"
       x2="-.24118"
       y1="-47.834"
       y2="-47.834"
       gradientTransform="matrix(1 0 0 1.1 15.152 44.098)"
       gradientUnits="userSpaceOnUse">
      <stop
         stop-color="#ffbe0a"
         offset="0"
         id="stop7" />
      <stop
         stop-color="#ffdc6e"
         offset="1"
         id="stop9" />
    </linearGradient>
    <linearGradient
       inkscape:collect="always"
       xlink:href="#linearGradient2156"
       id="linearGradient2158"
       x1="-11.134952"
       y1="1.858956"
       x2="-11.134952"
       y2="5.2934809"
       gradientUnits="userSpaceOnUse"
       gradientTransform="translate(20.161915)" />
    <linearGradient
       inkscape:collect="always"
       id="linearGradient2156">
      <stop
         style="stop-color:#0078dc;stop-opacity:1"
         offset="0"
         id="stop2152" />
      <stop
         style="stop-color:#0050b4;stop-opacity:1"
         offset="1"
         id="stop2154" />
    </linearGradient>
    <linearGradient
       inkscape:collect="always"
       xlink:href="#linearGradient1693"
       id="linearGradient1695"
       x1="-87.035156"
       y1="35"
       x2="-26.035156"
       y2="35"
       gradientUnits="userSpaceOnUse"
       gradientTransform="matrix(0.26457812,0,0,0.26457812,23.424465,0)" />
    <linearGradient
       inkscape:collect="always"
       id="linearGradient1693">
      <stop
         style="stop-color:#0078dc;stop-opacity:1"
         offset="0"
         id="stop1689" />
      <stop
         style="stop-color:#00aaff;stop-opacity:0.99607843"
         offset="1"
         id="stop1691" />
    </linearGradient>
  </defs>
  <metadata
     id="metadata14">
    <rdf:RDF>
      <cc:Work
         rdf:about="">
        <dc:format>image/svg+xml</dc:format>
        <dc:type
           rdf:resource="http://purl.org/dc/dcmitype/StillImage" />
        <dc:title></dc:title>
      </cc:Work>
    </rdf:RDF>
  </metadata>
  <g
     fill="#5e4aa6"
     stroke-width=".26458"
     id="g24">
    <circle
       cx="-330.35"
       cy="-328.38"
       r="0"
       id="circle16" />
    <circle
       cx="-312.11"
       cy="-326.25"
       r="0"
       id="circle18" />
    <circle
       cx="-306.02"
       cy="-333.07"
       r="0"
       id="circle20" />
    <circle
       cx="-308.84"
       cy="-326.01"
       r="0"
       id="circle22" />
  </g>
  <g
     transform="translate(.000295 -.00032978)"
     fill="#5e4aa6"
     stroke-width=".26458"
     id="g36">
    <circle
       cx="-330.35"
       cy="-328.38"
       r="0"
       id="circle26" />
    <circle
       cx="-312.11"
       cy="-326.25"
       r="0"
       id="circle28" />
    <circle
       cx="-306.02"
       cy="-333.07"
       r="0"
       id="circle30" />
    <circle
       cx="-308.84"
       cy="-326.01"
       r="0"
       id="circle32" />
    <circle
       cx="-328.8"
       cy="-330.45"
       r="0"
       id="circle34" />
  </g>
  <path
     id="rect2148"
     style="fill:url(#linearGradient2158);fill-opacity:1;stroke:none;stroke-width:0.264578;stroke-linecap:round;stroke-opacity:1"
     d="m 1.855405,1.8520469 c -0.73288,0 -1.32289,0.5899906 -1.32289,1.3228906 V 13.758062 c 0,0.73288 0.58999,1.322891 1.32289,1.322891 h 13.222189 c 0.18322,0 0.35735,-0.0371 0.51572,-0.103868 0.15838,-0.06676 0.301078,-0.163114 0.420638,-0.282664 0.11956,-0.11955 0.215905,-0.262258 0.282665,-0.420638 0.06677,-0.15838 0.103867,-0.332501 0.103867,-0.515721 V 4.7624063 c 0,-0.1832201 -0.0371,-0.3573506 -0.103867,-0.5157207 -0.06676,-0.1583799 -0.163115,-0.3010778 -0.282665,-0.4206377 -0.11956,-0.1195602 -0.262258,-0.2159048 -0.420638,-0.2826647 -0.15838,-0.06676 -0.3325,-0.1038675 -0.51572,-0.1038675 H 7.411546 c -0.198431,0 -0.396873,-0.06615 -0.587034,-0.1694954 C 6.634342,3.1666703 6.452449,3.0261071 6.287089,2.8772872 5.956369,2.5796372 5.691789,2.248915 5.5595,2.1166251 5.444329,2.0014551 5.266859,1.9356081 5.089769,1.8980381 4.92033,1.8620981 4.756414,1.8538971 4.643294,1.8520471 H 4.501186 Z" />
  <path
     id="rect1669"
     style="fill:url(#linearGradient1695);fill-opacity:1;stroke:none;stroke-width:0.264578;stroke-linecap:round;stroke-opacity:1"
     d="m 12.293064,3.4395156 c -0.11312,0.00185 -0.277035,0.010051 -0.446475,0.045991 -0.17709,0.03757 -0.35456,0.103417 -0.46973,0.2185871 -0.132291,0.1322901 -0.39687,0.463012 -0.72759,0.7606621 -0.16536,0.14882 -0.347254,0.2893832 -0.537424,0.3927332 -0.19016,0.10334 -0.388603,0.1694954 -0.587033,0.1694954 H 1.32289 c -0.21986,0 -0.418242,0.088556 -0.561711,0.2320226 C 0.617708,5.4024671 0.529156,5.6008589 0.529156,5.8207185 v 7.9373435 c 0,0.73288 0.589981,1.322891 1.322891,1.322891 h 13.228906 c 0.73288,0 1.322891,-0.589981 1.322891,-1.322891 V 4.7624063 c 0,-0.73289 -0.590001,-1.3228907 -1.322891,-1.3228907 z" />
  <path
     id="rect2138"
     style="fill:#008cff;fill-opacity:0.995699;stroke:none;stroke-width:0.264578;stroke-linecap:round;stroke-opacity:1"
     d="m 12.293323,3.4395156 c -0.113121,0.00185 -0.277039,0.01005 -0.446476,0.045991 -0.177091,0.03757 -0.354557,0.1034181 -0.469729,0.2185871 -0.13229,0.1322901 -0.396865,0.4630096 -0.72759,0.7606621 C 10.484165,4.6135768 10.302257,4.754144 10.112104,4.857489 9.921942,4.9608288 9.723506,5.0269844 9.525071,5.0269844 H 1.322632 c -0.219861,0 -0.418257,0.088554 -0.561712,0.2320226 C 0.617448,5.4024676 0.528898,5.6008792 0.528898,5.8207185 v 0.2650951 c 0,-0.2198607 0.08855,-0.4182565 0.232022,-0.5617118 C 0.904391,5.3806306 1.102792,5.2920792 1.322632,5.2920792 h 8.308373 c 0.198433,0 0.396853,-0.066156 0.587033,-0.1694953 0.190172,-0.1033501 0.372089,-0.2439069 0.537424,-0.3927332 0.330726,-0.2976526 0.5953,-0.6283721 0.72759,-0.7606622 0.115172,-0.1151716 0.292646,-0.1810167 0.46973,-0.218587 0.169442,-0.035941 0.333368,-0.044141 0.446476,-0.045991 h 2.681954 c 0.732886,0 1.32289,0.5900039 1.32289,1.3228906 V 4.7624063 c 0,-0.7328868 -0.590004,-1.3228907 -1.32289,-1.3228907 z" />
</svg>
