<?xml version="1.0" encoding="UTF-8" standalone="no"?>
<svg
   xmlns:dc="http://purl.org/dc/elements/1.1/"
   xmlns:cc="http://creativecommons.org/ns#"
   xmlns:rdf="http://www.w3.org/1999/02/22-rdf-syntax-ns#"
   xmlns:svg="http://www.w3.org/2000/svg"
   xmlns="http://www.w3.org/2000/svg"
   xmlns:xlink="http://www.w3.org/1999/xlink"
   xmlns:sodipodi="http://sodipodi.sourceforge.net/DTD/sodipodi-0.dtd"
   xmlns:inkscape="http://www.inkscape.org/namespaces/inkscape"
   width="64"
   height="64"
   version="1.1"
   viewBox="0 0 16.933 16.933"
   id="svg58"
   sodipodi:docname="default-user-home.svg"
   inkscape:version="1.0.1 (3bc2e813f5, 2020-09-07)">
  <sodipodi:namedview
     pagecolor="#ffffff"
     bordercolor="#666666"
     borderopacity="1"
     objecttolerance="10"
     gridtolerance="10"
     guidetolerance="10"
     inkscape:pageopacity="0"
     inkscape:pageshadow="2"
     inkscape:window-width="1920"
     inkscape:window-height="932"
     id="namedview60"
     showgrid="false"
     inkscape:zoom="5.9765625"
     inkscape:cx="58.797867"
     inkscape:cy="35.160481"
     inkscape:window-x="0"
     inkscape:window-y="36"
     inkscape:window-maximized="1"
     inkscape:current-layer="svg58" />
  <defs
     id="defs12">
    <linearGradient
       id="linearGradient3481"
       x1="25"
       x2="25"
       y1="155"
       y2="167.78"
       gradientTransform="matrix(0.26458,0,0,0.26458,0.44709,-54.949)"
       gradientUnits="userSpaceOnUse">
      <stop
         stop-color="#e1a000"
         offset="0"
         id="stop2" />
      <stop
         stop-color="#af7d00"
         offset="1"
         id="stop4" />
    </linearGradient>
    <linearGradient
       id="linearGradient3421"
       x1="-16.147"
       x2="-.24118"
       y1="-47.834"
       y2="-47.834"
       gradientTransform="matrix(1,0,0,1.1,17.907,45.851)"
       gradientUnits="userSpaceOnUse">
      <stop
         stop-color="#ffbe0a"
         offset="0"
         id="stop7" />
      <stop
         stop-color="#ffdc6e"
         offset="1"
         id="stop9" />
    </linearGradient>
    <linearGradient
       inkscape:collect="always"
       xlink:href="#linearGradient2156"
       id="linearGradient2158"
       x1="-11.134952"
       y1="1.858956"
       x2="-11.134952"
       y2="5.2934809"
       gradientUnits="userSpaceOnUse"
       gradientTransform="translate(20.161915)" />
    <linearGradient
       inkscape:collect="always"
       id="linearGradient2156">
      <stop
         style="stop-color:#0078dc;stop-opacity:1"
         offset="0"
         id="stop2152" />
      <stop
         style="stop-color:#0050b4;stop-opacity:1"
         offset="1"
         id="stop2154" />
    </linearGradient>
    <linearGradient
       inkscape:collect="always"
       xlink:href="#linearGradient1693"
       id="linearGradient1695"
       x1="-87.035156"
       y1="35"
       x2="-26.035156"
       y2="35"
       gradientUnits="userSpaceOnUse"
       gradientTransform="matrix(0.26457812,0,0,0.26457812,23.424465,1e-7)" />
    <linearGradient
       inkscape:collect="always"
       id="linearGradient1693">
      <stop
         style="stop-color:#0078dc;stop-opacity:1"
         offset="0"
         id="stop1689" />
      <stop
         style="stop-color:#00aaff;stop-opacity:0.99607843"
         offset="1"
         id="stop1691" />
    </linearGradient>
  </defs>
  <metadata
     id="metadata14">
    <rdf:RDF>
      <cc:Work
         rdf:about="">
        <dc:format>image/svg+xml</dc:format>
        <dc:type
           rdf:resource="http://purl.org/dc/dcmitype/StillImage" />
        <dc:title></dc:title>
      </cc:Work>
    </rdf:RDF>
  </metadata>
  <g
     fill="#5e4aa6"
     stroke-width=".26458"
     id="g34">
    <circle
       cx="-330.35"
       cy="-328.38"
       r="0"
       id="circle24" />
    <circle
       cx="-312.11"
       cy="-326.25"
       r="0"
       id="circle26" />
    <circle
       cx="-306.02"
       cy="-333.07"
       r="0"
       id="circle28" />
    <circle
       cx="-308.84"
       cy="-326.01"
       r="0"
       id="circle30" />
    <circle
       cx="-328.8"
       cy="-330.45"
       r="0"
       id="circle32" />
  </g>
  <g
     transform="translate(.000295 -.00032978)"
     fill="#5e4aa6"
     stroke-width=".26458"
     id="g46">
    <circle
       cx="-330.35"
       cy="-328.38"
       r="0"
       id="circle36" />
    <circle
       cx="-312.11"
       cy="-326.25"
       r="0"
       id="circle38" />
    <circle
       cx="-306.02"
       cy="-333.07"
       r="0"
       id="circle40" />
    <circle
       cx="-308.84"
       cy="-326.01"
       r="0"
       id="circle42" />
    <circle
       cx="-328.8"
       cy="-330.45"
       r="0"
       id="circle44" />
  </g>
  <path
     id="rect2148"
     style="fill:url(#linearGradient2158);fill-opacity:1;stroke:none;stroke-width:0.264578;stroke-linecap:round;stroke-opacity:1"
     d="m 1.855406,1.852047 c -0.73288,0 -1.32289,0.5899906 -1.32289,1.3228906 V 13.758062 c 0,0.73288 0.58999,1.322891 1.32289,1.322891 h 13.222188 c 0.18322,0 0.35735,-0.0371 0.51572,-0.103868 0.15838,-0.06676 0.301078,-0.163114 0.420638,-0.282664 0.11956,-0.11955 0.215905,-0.262258 0.282665,-0.420638 0.06677,-0.15838 0.103867,-0.332501 0.103867,-0.515721 V 4.7624063 c 0,-0.1832201 -0.0371,-0.3573506 -0.103867,-0.5157206 C 16.229857,4.0883058 16.133502,3.9456079 16.013952,3.826048 15.894392,3.7064878 15.751694,3.6101432 15.593314,3.5433833 c -0.15838,-0.06676 -0.3325,-0.1038675 -0.51572,-0.1038675 H 7.411546 c -0.1984301,0 -0.396873,-0.06615 -0.587033,-0.1694954 C 6.634343,3.1666704 6.452449,3.0261072 6.287089,2.8772873 5.956369,2.5796373 5.69179,2.2489151 5.5595,2.1166252 5.44433,2.0014552 5.26686,1.9356082 5.08977,1.8980382 4.92033,1.8620982 4.756415,1.8538972 4.643295,1.8520472 H 4.501187 Z" />
  <path
     id="rect1669"
     style="fill:url(#linearGradient1695);fill-opacity:1;stroke:none;stroke-width:0.264578;stroke-linecap:round;stroke-opacity:1"
     d="m 12.293064,3.4395157 c -0.11312,0.00185 -0.277035,0.010051 -0.446475,0.045991 -0.17709,0.03757 -0.35456,0.103417 -0.46973,0.2185871 -0.132291,0.1322901 -0.39687,0.463012 -0.72759,0.7606621 C 10.483909,4.6135758 10.302015,4.754139 10.111845,4.857489 9.9216852,4.960829 9.7232426,5.0269845 9.5248127,5.0269845 H 1.322891 c -0.21986,0 -0.418242,0.088556 -0.561712,0.2320225 -0.14347,0.1434601 -0.232023,0.3418519 -0.232023,0.5617116 v 7.9373434 c 0,0.73288 0.589981,1.322891 1.322891,1.322891 h 13.228906 c 0.73288,0 1.322891,-0.589981 1.322891,-1.322891 V 4.7624063 c 0,-0.7328899 -0.590001,-1.3228906 -1.322891,-1.3228906 z" />
  <path
     id="rect2138"
     style="fill:#008cff;fill-opacity:0.995699;stroke:none;stroke-width:0.264578;stroke-linecap:round;stroke-opacity:1"
     d="m 12.293323,3.4395157 c -0.113121,0.00185 -0.277039,0.01005 -0.446476,0.045991 -0.177091,0.03757 -0.354557,0.1034181 -0.469729,0.2185871 -0.13229,0.1322901 -0.396865,0.4630096 -0.72759,0.7606621 C 10.484165,4.6135768 10.302257,4.754144 10.112104,4.857489 9.9219421,4.9608289 9.7235062,5.0269845 9.5250712,5.0269845 H 1.322632 c -0.219861,0 -0.418256,0.088554 -0.561711,0.2320225 C 0.617449,5.4024676 0.528898,5.6008792 0.528898,5.8207186 v 0.2650951 c 0,-0.2198608 0.08855,-0.4182565 0.232023,-0.5617119 C 0.904392,5.3806306 1.102793,5.2920792 1.322632,5.2920792 h 8.3083737 c 0.1984325,0 0.3968523,-0.066156 0.5870323,-0.1694953 0.190172,-0.1033501 0.372089,-0.2439069 0.537424,-0.3927332 0.330726,-0.2976526 0.5953,-0.628372 0.72759,-0.7606621 0.115172,-0.1151716 0.292646,-0.1810167 0.46973,-0.218587 0.169442,-0.035941 0.333368,-0.044141 0.446476,-0.045991 h 2.681954 c 0.732886,0 1.32289,0.5900039 1.32289,1.3228905 V 4.7624063 c 0,-0.7328867 -0.590004,-1.3228906 -1.32289,-1.3228906 z" />
  <g
     transform="matrix(0,-0.054052,-0.051444,0,28.702528,32.383)"
     enable-background="new"
     fill="#e1a000"
     stroke="#e1a000"
     id="g931"
     style="fill:#0050b4;fill-opacity:1;stroke:#0050b4;stroke-opacity:1">
    <path
       d="m 417.99,353.36 h 12.005 v 12.011 z"
       color="#000000"
       enable-background="accumulate"
       id="path923"
       style="fill:#0050b4;fill-opacity:1;stroke:#0050b4;stroke-opacity:1" />
    <path
       d="m 403.99,433.36 h -54.021 l -1.5e-4,-52 h 4.0016 l 1.5e-4,47.988 54.021,0.0117 z m 4.0016,-76 -58.023,2e-5 v -4.0117 l 54.022,0.0117 z"
       id="path925"
       style="fill:#0050b4;fill-opacity:1;stroke:#0050b4;stroke-opacity:1" />
    <path
       d="m 395.38,341.93 -2.7949,2.8613 49.554,48.57 -49.554,48.568 2.7949,2.8613 52.486,-51.432 z"
       color="#000000"
       color-rendering="auto"
       enable-background="accumulate"
       image-rendering="auto"
       shape-rendering="auto"
       solid-color="#000000"
       style="font-variant-ligatures:none;font-variant-position:normal;font-variant-caps:normal;font-variant-numeric:normal;font-variant-alternates:normal;font-feature-settings:normal;text-indent:0;text-decoration:none;text-decoration-line:none;text-decoration-style:solid;text-decoration-color:#000000;text-transform:none;white-space:normal;shape-padding:0;isolation:auto;mix-blend-mode:normal;fill:#0050b4;fill-opacity:1;stroke:#0050b4;stroke-opacity:1"
       id="path927" />
    <path
       d="m 388.75,397.36 c 0.2538,-1.0158 0.5239,-2.3651 0.80985,-4.0476 0.28572,-1.6825 0.42858,-3.619 0.42858,-5.8095 0,-1.9682 -0.28571,-3.6032 -0.85748,-4.9048 -0.5399,-1.3016 -1.318,-2.3333 -2.3343,-3.0952 -0.98451,-0.79367 -2.1755,-1.3492 -3.5728,-1.6667 -1.3974,-0.31762 -2.9376,-0.47618 -4.6208,-0.47618 h -28.63 l 1.9e-4,20 z"
       id="path929"
       style="fill:#0050b4;fill-opacity:1;stroke:#0050b4;stroke-opacity:1" />
  </g>
</svg>
