<?xml version="1.0" encoding="UTF-8" standalone="no"?>
<svg
   xmlns:dc="http://purl.org/dc/elements/1.1/"
   xmlns:cc="http://creativecommons.org/ns#"
   xmlns:rdf="http://www.w3.org/1999/02/22-rdf-syntax-ns#"
   xmlns:svg="http://www.w3.org/2000/svg"
   xmlns="http://www.w3.org/2000/svg"
   xmlns:sodipodi="http://sodipodi.sourceforge.net/DTD/sodipodi-0.dtd"
   xmlns:inkscape="http://www.inkscape.org/namespaces/inkscape"
   viewBox="0 0 22 22"
   version="1.1"
   id="svg6"
   sodipodi:docname="compass.svg"
   inkscape:version="1.0.2 (e86c870879, 2021-01-15)">
  <metadata
     id="metadata10">
    <rdf:RDF>
      <cc:Work
         rdf:about="">
        <dc:format>image/svg+xml</dc:format>
        <dc:type
           rdf:resource="http://purl.org/dc/dcmitype/StillImage" />
        <dc:title></dc:title>
      </cc:Work>
    </rdf:RDF>
  </metadata>
  <sodipodi:namedview
     pagecolor="#ffffff"
     bordercolor="#666666"
     borderopacity="1"
     objecttolerance="10"
     gridtolerance="10"
     guidetolerance="10"
     inkscape:pageopacity="0"
     inkscape:pageshadow="2"
     inkscape:window-width="1920"
     inkscape:window-height="998"
     id="namedview8"
     showgrid="true"
     inkscape:zoom="13.354676"
     inkscape:cx="9.4033477"
     inkscape:cy="10.953558"
     inkscape:window-x="0"
     inkscape:window-y="0"
     inkscape:window-maximized="1"
     inkscape:current-layer="svg6"
     inkscape:document-rotation="0">
    <inkscape:grid
       type="xygrid"
       id="grid835" />
  </sodipodi:namedview>
  <defs
     id="defs3051">
    <style
       type="text/css"
       id="current-color-scheme">
      .ColorScheme-Text {
        color:#5d656b;
      }
      </style>
    <style
       type="text/css"
       id="style841" />
    <style
       type="text/css"
       id="style843" />
    <filter
       id="filter926"
       x="-.12"
       y="-.12"
       width="1.24"
       height="1.24"
       color-interpolation-filters="sRGB">
      <feGaussianBlur
         stdDeviation="1.0779662"
         id="feGaussianBlur845" />
    </filter>
    <linearGradient
       id="linearGradient947"
       x1="327.23"
       x2="694.26"
       y1="243.81"
       y2="644.29"
       gradientTransform="matrix(0.081878,0,0,0.081878,71.595,-8.4803)"
       gradientUnits="userSpaceOnUse">
      <stop
         stop-color="#d63902"
         offset="0"
         id="stop848" />
      <stop
         stop-color="#b83b1a"
         offset="1"
         id="stop850" />
    </linearGradient>
    <linearGradient
       id="linearGradient972"
       x1="521.49"
       x2="521.49"
       y1="858.73"
       y2="631.85"
       gradientTransform="matrix(0.082753,0,0,0.082753,71.136,-9.2332)"
       gradientUnits="userSpaceOnUse">
      <stop
         stop-color="#d24314"
         offset="0"
         id="stop853" />
      <stop
         stop-color="#e85512"
         offset="1"
         id="stop855" />
    </linearGradient>
    <filter
       id="filter876"
       x="-.073724"
       y="-.10139"
       width="1.1474"
       height="1.2028"
       color-interpolation-filters="sRGB">
      <feGaussianBlur
         stdDeviation="0.80426171"
         id="feGaussianBlur858" />
    </filter>
    <linearGradient
       id="linearGradient876"
       x1="3.9687"
       x2="3.9687"
       y1="16.281"
       y2=".54085"
       gradientTransform="matrix(3.4646,0,0,3.4646,2.6662,2.6662)"
       gradientUnits="userSpaceOnUse">
      <stop
         stop-color="#e6e6e6"
         offset="0"
         id="stop861" />
      <stop
         stop-color="#f0f0f0"
         offset="1"
         id="stop863" />
    </linearGradient>
    <style
       type="text/css"
       id="style909" />
  </defs>
  <path
     style="fill:currentColor;fill-opacity:1;stroke:none"
     d="m 11,3 a 8,8 0 0 0 -8,8 8,8 0 0 0 8,8 8,8 0 0 0 8,-8 8,8 0 0 0 -8,-8 m 0,1 a 7,7 0 0 1 7,7 7,7 0 0 1 -7,7 7,7 0 0 1 -7,-7 7,7 0 0 1 7,-7 m 3,4 -3,1 a 2,2 0 0 0 -2,2 l -1,3 3,-1 a 2,2 0 0 0 2,-2 l 1,-3 m -3,2 a 1,1 0 0 1 1,1 1,1 0 0 1 -1,1 1,1 0 0 1 -1,-1 1,1 0 0 1 1,-1"
     class="ColorScheme-Text"
     id="path4" />
  <path
     d="m -10,4.6663904 c -1.261756,-1.2690583 -3.001917,-1.9848432 -4.81877,-1.9848432 -1.816853,0 -3.557014,0.7157849 -4.818769,1.9866692 -2.65863,2.6695864 -2.65863,6.9076926 0,9.5772806 L -14.81877,19.038699 -10,14.245497 c 2.65863,-2.671414 2.65863,-6.9076942 0,-9.5791066 z m -0.724917,8.9034906 -4.102983,3.832738 -4.05003,-4.008033 c -2.236829,-2.220395 -2.236829,-5.7481918 0,-7.9667609 1.062722,-1.0535917 2.525335,-1.6488624 4.051856,-1.6488624 1.526523,0 2.987309,0.5952707 4.051858,1.6488624 2.235002,2.2203951 2.309867,5.8778369 0.04931,8.1420559 z m -4.092028,-7.0720302 c -1.656165,0 -2.998263,1.3420974 -2.998263,2.9982634 0,1.6561668 1.342098,2.9982628 2.998263,2.9982628 1.656168,0 2.998264,-1.342096 2.998264,-2.9982628 0,-1.656166 -1.342096,-2.9982634 -2.998264,-2.9982634 z m 0,4.9082402 c -1.053591,0 -1.908151,-0.854559 -1.908151,-1.9081508 0,-1.053592 0.854559,-1.908151 1.908151,-1.908151 1.053593,0 1.908153,0.854559 1.908153,1.908151 0,1.0535918 -0.85456,1.9081508 -1.908153,1.9081508 z"
     fill="#333333"
     p-id="1221"
     id="path913"
     style="stroke:#323232;stroke-width:1;stroke-miterlimit:4;stroke-dasharray:none;stroke-opacity:1" />
</svg>
