<?xml version="1.0" encoding="UTF-8"?>
<svg width="64" height="64" version="1.1" xmlns="http://www.w3.org/2000/svg" xmlns:cc="http://creativecommons.org/ns#" xmlns:dc="http://purl.org/dc/elements/1.1/" xmlns:rdf="http://www.w3.org/1999/02/22-rdf-syntax-ns#" xmlns:xlink="http://www.w3.org/1999/xlink">
 <metadata>
  <rdf:RDF>
   <cc:Work rdf:about="">
    <dc:format>image/svg+xml</dc:format>
    <dc:type rdf:resource="http://purl.org/dc/dcmitype/StillImage"/>
    <dc:title/>
   </cc:Work>
  </rdf:RDF>
 </metadata>
 <defs>
  <style type="text/css"/>
  <style type="text/css"/>
  <style type="text/css"/>
  <style id="current-color-scheme" type="text/css">.ColorScheme-Text {
        color:#4d4d4d;
      }</style>
  <style type="text/css">.ColorScheme-Text {
        color:#4d4d4d;
      }</style>
  <linearGradient id="linearGradient2158" x1="-11.135" x2="-11.135" y1="1.859" y2="5.2935" gradientTransform="matrix(3.7796 0 0 3.7796 76.204 2e-6)" gradientUnits="userSpaceOnUse">
   <stop stop-color="#323232" offset="0"/>
   <stop stop-color="#1e1e1e" offset="1"/>
  </linearGradient>
  <linearGradient id="linearGradient1695" x1="-87.035" x2="-26.035" y1="35" y2="35" gradientTransform="translate(88.535)" gradientUnits="userSpaceOnUse">
   <stop stop-color="#323232" offset="0"/>
   <stop stop-color="#646464" stop-opacity=".99608" offset="1"/>
  </linearGradient>
 </defs>
 <g transform="matrix(12.283,0,0,12.283,227.22,-3.994)" fill="#5e4aa6" stroke-width=".26458">
  <circle cx="-330.35" cy="-328.38" r="0"/>
  <circle cx="-312.11" cy="-326.25" r="0"/>
  <circle cx="-306.02" cy="-333.07" r="0"/>
  <circle cx="-308.84" cy="-326.01" r="0"/>
  <circle cx="-328.8" cy="-330.45" r="0"/>
 </g>
 <g transform="matrix(12.283,0,0,12.283,-40.062,-131.15)" fill="#5e4aa6" stroke-width=".26458">
  <circle cx="-330.35" cy="-328.38" r="0"/>
  <circle cx="-312.11" cy="-326.25" r="0"/>
  <circle cx="-306.02" cy="-333.07" r="0"/>
  <circle cx="-308.84" cy="-326.01" r="0"/>
  <circle cx="-328.8" cy="-330.45" r="0"/>
 </g>
 <path d="m7.0127 7c-2.77 0-5 2.2299-5 5v40c0 2.77 2.2299 5 5 5h49.975c0.6925 0 1.3506-0.14022 1.9492-0.39258 0.59861-0.25233 1.138-0.61651 1.5898-1.0684s0.81604-0.99123 1.0684-1.5898c0.25236-0.59861 0.39258-1.2567 0.39258-1.9492v-34c0-0.6925-0.14022-1.3506-0.39258-1.9492-0.25233-0.59861-0.61651-1.138-1.0684-1.5898-0.45189-0.45189-0.99123-0.81604-1.5898-1.0684-0.59861-0.25233-1.2567-0.39258-1.9492-0.39258h-28.975c-0.74999 0-1.5-0.25002-2.2188-0.64063-0.71877-0.39062-1.4063-0.92189-2.0312-1.4844-1.25-1.125-2.25-2.375-2.75-2.875-0.4353-0.4353-1.1061-0.68417-1.7754-0.82617-0.64042-0.13584-1.2599-0.16684-1.6875-0.17383h-0.53711z" fill="url(#linearGradient2158)"/>
 <path d="m46.463 13c-0.42755 7e-3 -1.0471 0.038-1.6875 0.17383-0.66933 0.142-1.3401 0.39087-1.7754 0.82617-0.50001 0.5-1.5 1.75-2.75 2.875-0.625 0.56248-1.3125 1.0938-2.0312 1.4844-0.71873 0.39059-1.4688 0.64063-2.2187 0.64063h-31c-0.83098 0-1.5808 0.33471-2.123 0.87694-0.54226 0.54223-0.87695 1.2921-0.87695 2.123v30c0 2.77 2.2299 5 5 5h50c2.77 0 5-2.2299 5-5v-34c0-2.77-2.23-5-5-5z" fill="url(#linearGradient1695)"/>
 <path d="m46.464 13c-0.42755 7e-3 -1.0471 0.038-1.6875 0.17383-0.66933 0.142-1.3401 0.39088-1.7754 0.82617-0.5 0.5-1.5 1.75-2.75 2.875-0.62501 0.56248-1.3125 1.0938-2.0312 1.4844-0.71874 0.39059-1.4687 0.64063-2.2188 0.64063h-31.002c-0.83098 0-1.5808 0.3347-2.123 0.87694-0.54227 0.54223-0.87696 1.2921-0.87696 2.123v1.002c0-0.83098 0.33468-1.5808 0.87696-2.123 0.54226-0.54227 1.2921-0.87696 2.123-0.87696h31.402c0.75 0 1.4999-0.25004 2.2187-0.64062 0.71877-0.39062 1.4063-0.92187 2.0312-1.4844 1.25-1.125 2.25-2.375 2.75-2.875 0.4353-0.4353 1.1061-0.68417 1.7754-0.82617 0.64042-0.13584 1.26-0.16683 1.6875-0.17383h10.137c2.77 0 5 2.23 5 5v-1.002c0-2.77-2.23-5-5-5z" fill="#505050" fill-opacity=".9957"/>
 <path d="m39.613 37.433 2.6274-2.6274c0.08312-0.08312 0.12288-0.19878 0.10842-0.31081-0.01807-0.11926-0.08312-0.22046-0.18432-0.27828l-7.0872-4.0912c-0.14818-0.08312-0.3325-0.05782-0.45176 0.06144l-2.6274 2.6238-2.6274-2.6238c-0.11926-0.11926-0.30358-0.14818-0.45176-0.06144l-7.0836 4.0912c-0.10119 0.05783-0.16986 0.15902-0.18432 0.27828-0.0144 0.11204 0.0217 0.2313 0.10481 0.31081l2.6274 2.6274-2.6274 2.6274c-0.0831 0.08313-0.11926 0.19878-0.10481 0.31081 0.0144 0.11565 0.0795 0.21685 0.18432 0.27467l2.7033 1.5613v3.4009c0 0.13372 0.0723 0.2566 0.18793 0.32527l7.0872 4.0912c0.0578 0.03614 0.12288 0.0506 0.18793 0.0506 0.065 0 0.12649-0.01446 0.18793-0.0506l7.0836-4.0912c0.11565-0.06867 0.18793-0.18793 0.18793-0.32527v-3.4009l2.7033-1.5577c0.1012-0.05782 0.16625-0.15902 0.18432-0.27467 0.01446-0.11565-0.0253-0.2313-0.10842-0.31081zm-1.2794 0-6.3319 3.6611-6.3391-3.6611 4.7525-2.7431 1.5866-0.91436 5.7283 3.3069zm-3.3792-6.5162 6.415 3.7081-2.3455 2.3419-0.38309-0.22046-6.0319-3.4804zm-5.9054 0 2.3455 2.3455-6.4186 3.7044-2.3456-2.3419zm-4.0731 6.9824 6.415 3.7044-2.3456 2.3455-3.9466-2.2769-2.4684-1.424zm0.31081 4.7453 3.6322 2.0962c0.0578 0.03614 0.12288 0.0506 0.18793 0.0506 7e-3 0 0.0145-0.01084 0.0217-0.01084 0.0867-0.0036 0.17709-0.03253 0.24214-0.09758l2.2552-2.2552v6.6319l-6.3391-3.6647zm13.423 2.7539-6.3355 3.6575v-6.6282l2.2516 2.2552c0.06505 0.06505 0.15179 0.09397 0.24214 0.09758 0.0072 0 0.01446 0.01084 0.02168 0.01084 0.06505 0 0.12649-0.01446 0.18793-0.0506l3.6322-2.0962zm-3.7587-1.4492-2.3455-2.3419 6.415-3.7044 2.3455 2.3455z" fill="#1e1e1e" stroke="#1e1e1e" stroke-width=".15" p-id="6965"/>
</svg>
