<?xml version="1.0" encoding="UTF-8" standalone="no"?>
<svg
   xmlns:dc="http://purl.org/dc/elements/1.1/"
   xmlns:cc="http://creativecommons.org/ns#"
   xmlns:rdf="http://www.w3.org/1999/02/22-rdf-syntax-ns#"
   xmlns:svg="http://www.w3.org/2000/svg"
   xmlns="http://www.w3.org/2000/svg"
   xmlns:xlink="http://www.w3.org/1999/xlink"
   xmlns:sodipodi="http://sodipodi.sourceforge.net/DTD/sodipodi-0.dtd"
   xmlns:inkscape="http://www.inkscape.org/namespaces/inkscape"
   width="64"
   height="64"
   version="1.1"
   viewBox="0 0 16.933 16.933"
   id="svg80"
   sodipodi:docname="default-folder-video.svg"
   inkscape:version="1.0.1 (3bc2e813f5, 2020-09-07)">
  <sodipodi:namedview
     pagecolor="#ffffff"
     bordercolor="#666666"
     borderopacity="1"
     objecttolerance="10"
     gridtolerance="10"
     guidetolerance="10"
     inkscape:pageopacity="0"
     inkscape:pageshadow="2"
     inkscape:window-width="1920"
     inkscape:window-height="932"
     id="namedview82"
     showgrid="false"
     inkscape:zoom="5.9765625"
     inkscape:cx="63.133886"
     inkscape:cy="32.627863"
     inkscape:window-x="0"
     inkscape:window-y="36"
     inkscape:window-maximized="1"
     inkscape:current-layer="svg80" />
  <defs
     id="defs12">
    <linearGradient
       id="linearGradient3481"
       x1="25"
       x2="25"
       y1="155"
       y2="167.78"
       gradientTransform="matrix(0.26458,0,0,0.26458,-0.7129,-54.885)"
       gradientUnits="userSpaceOnUse">
      <stop
         stop-color="#e1a000"
         offset="0"
         id="stop2" />
      <stop
         stop-color="#af7d00"
         offset="1"
         id="stop4" />
    </linearGradient>
    <linearGradient
       id="linearGradient3421"
       x1="-16.147"
       x2="-.24118"
       y1="-47.834"
       y2="-47.834"
       gradientTransform="matrix(1,0,0,1.1,16.747,45.915)"
       gradientUnits="userSpaceOnUse">
      <stop
         stop-color="#ffbe0a"
         offset="0"
         id="stop7" />
      <stop
         stop-color="#ffdc6e"
         offset="1"
         id="stop9" />
    </linearGradient>
    <linearGradient
       inkscape:collect="always"
       xlink:href="#linearGradient2156"
       id="linearGradient2158"
       x1="-11.134952"
       y1="1.858956"
       x2="-11.134952"
       y2="5.2934809"
       gradientUnits="userSpaceOnUse"
       gradientTransform="translate(20.161915)" />
    <linearGradient
       inkscape:collect="always"
       id="linearGradient2156">
      <stop
         style="stop-color:#323232;stop-opacity:1"
         offset="0"
         id="stop2152" />
      <stop
         style="stop-color:#1e1e1e;stop-opacity:1"
         offset="1"
         id="stop2154" />
    </linearGradient>
    <linearGradient
       inkscape:collect="always"
       xlink:href="#linearGradient1693"
       id="linearGradient1695"
       x1="-87.035156"
       y1="35"
       x2="-26.035156"
       y2="35"
       gradientUnits="userSpaceOnUse"
       gradientTransform="matrix(0.26457812,0,0,0.26457812,23.424465,-2e-7)" />
    <linearGradient
       inkscape:collect="always"
       id="linearGradient1693">
      <stop
         style="stop-color:#323232;stop-opacity:1"
         offset="0"
         id="stop1689" />
      <stop
         style="stop-color:#646464;stop-opacity:0.99607843"
         offset="1"
         id="stop1691" />
    </linearGradient>
  </defs>
  <metadata
     id="metadata14">
    <rdf:RDF>
      <cc:Work
         rdf:about="">
        <dc:format>image/svg+xml</dc:format>
        <dc:type
           rdf:resource="http://purl.org/dc/dcmitype/StillImage" />
        <dc:title></dc:title>
      </cc:Work>
    </rdf:RDF>
  </metadata>
  <g
     fill="#5e4aa6"
     stroke-width=".26458"
     id="g34">
    <circle
       cx="-330.35"
       cy="-328.38"
       r="0"
       id="circle24" />
    <circle
       cx="-312.11"
       cy="-326.25"
       r="0"
       id="circle26" />
    <circle
       cx="-306.02"
       cy="-333.07"
       r="0"
       id="circle28" />
    <circle
       cx="-308.84"
       cy="-326.01"
       r="0"
       id="circle30" />
    <circle
       cx="-328.8"
       cy="-330.45"
       r="0"
       id="circle32" />
  </g>
  <g
     transform="translate(.000295 -.00032978)"
     fill="#5e4aa6"
     stroke-width=".26458"
     id="g46">
    <circle
       cx="-330.35"
       cy="-328.38"
       r="0"
       id="circle36" />
    <circle
       cx="-312.11"
       cy="-326.25"
       r="0"
       id="circle38" />
    <circle
       cx="-306.02"
       cy="-333.07"
       r="0"
       id="circle40" />
    <circle
       cx="-308.84"
       cy="-326.01"
       r="0"
       id="circle42" />
    <circle
       cx="-328.8"
       cy="-330.45"
       r="0"
       id="circle44" />
  </g>
  <path
     id="rect2148"
     style="fill:url(#linearGradient2158);fill-opacity:1;stroke:none;stroke-width:0.264578;stroke-linecap:round;stroke-opacity:1"
     d="m 1.855406,1.8520467 c -0.73288,0 -1.32289,0.5899907 -1.32289,1.3228906 V 13.758062 c 0,0.73288 0.58999,1.322891 1.32289,1.322891 h 13.222188 c 0.18322,0 0.35735,-0.0371 0.51572,-0.103868 0.15838,-0.06676 0.301078,-0.163114 0.420638,-0.282664 0.11956,-0.11955 0.215905,-0.262258 0.282665,-0.420638 0.06677,-0.15838 0.103867,-0.332501 0.103867,-0.515721 V 4.7624061 c 0,-0.1832201 -0.0371,-0.3573506 -0.103867,-0.5157207 C 16.229857,4.0883055 16.133502,3.9456076 16.013952,3.8260477 15.894392,3.7064875 15.751694,3.6101429 15.593314,3.543383 15.434934,3.476623 15.260814,3.4395155 15.077594,3.4395155 H 7.4115457 c -0.1984301,0 -0.396873,-0.06615 -0.5870332,-0.1694954 C 6.6343425,3.1666701 6.4524487,3.0261069 6.2870887,2.877287 5.9563687,2.5796371 5.6917895,2.2489149 5.5594997,2.1166249 5.4443296,2.0014549 5.2668596,1.9356079 5.08977,1.8980379 4.92033,1.8620979 4.756415,1.8538969 4.643294,1.8520469 H 4.501187 Z" />
  <path
     id="rect1669"
     style="fill:url(#linearGradient1695);fill-opacity:1;stroke:none;stroke-width:0.264578;stroke-linecap:round;stroke-opacity:1"
     d="m 12.293064,3.4395154 c -0.11312,0.00185 -0.277035,0.010051 -0.446475,0.045991 -0.17709,0.03757 -0.35456,0.103417 -0.46973,0.2185871 -0.132291,0.1322901 -0.39687,0.463012 -0.72759,0.7606621 -0.16536,0.14882 -0.347254,0.2893832 -0.537424,0.3927332 -0.1901601,0.10334 -0.3886027,0.1694954 -0.5870326,0.1694954 H 1.322891 c -0.219861,0 -0.418242,0.088556 -0.561712,0.2320226 -0.14347,0.1434601 -0.232023,0.3418519 -0.232023,0.5617115 v 7.9373437 c 0,0.73288 0.589981,1.322891 1.322891,1.322891 h 13.228906 c 0.73288,0 1.322891,-0.589981 1.322891,-1.322891 V 4.7624061 c 0,-0.73289 -0.590001,-1.3228907 -1.322891,-1.3228907 z" />
  <path
     id="rect2138"
     style="fill:#505050;fill-opacity:0.995699;stroke:none;stroke-width:0.264578;stroke-linecap:round;stroke-opacity:1"
     d="m 12.293323,3.4395154 c -0.113121,0.00185 -0.277039,0.01005 -0.446476,0.045991 -0.177091,0.03757 -0.354557,0.1034181 -0.469729,0.2185871 -0.13229,0.1322901 -0.396865,0.4630096 -0.72759,0.7606621 -0.165363,0.148821 -0.347271,0.2893882 -0.537424,0.3927332 C 9.9219418,4.9608286 9.7235059,5.0269842 9.5250709,5.0269842 H 1.322632 c -0.219861,0 -0.418257,0.088554 -0.561711,0.2320226 C 0.617448,5.4024674 0.528898,5.600879 0.528898,5.8207183 v 0.2650951 c 0,-0.2198607 0.08855,-0.4182565 0.232023,-0.5617118 C 0.904391,5.3806304 1.102792,5.292079 1.322632,5.292079 h 8.3083734 c 0.1984325,0 0.3968526,-0.066156 0.5870326,-0.1694953 0.190172,-0.1033501 0.372089,-0.2439069 0.537424,-0.3927332 0.330726,-0.2976526 0.5953,-0.6283721 0.72759,-0.7606622 0.115172,-0.1151716 0.292646,-0.1810167 0.46973,-0.218587 0.169442,-0.035941 0.333368,-0.044141 0.446476,-0.045991 h 2.681954 c 0.732886,0 1.32289,0.5900039 1.32289,1.3228906 V 4.7624061 c 0,-0.7328868 -0.590004,-1.3228907 -1.32289,-1.3228907 z" />
  <g
     transform="translate(-0.7939,0.26458)"
     fill="#e1a000"
     id="g975"
     style="fill:#1e1e1e;fill-opacity:1">
    <rect
       x="7.4081998"
       y="10.319"
       width="3.7040999"
       height="0.26458001"
       id="rect945"
       style="fill:#1e1e1e;fill-opacity:1" />
    <path
       d="m 6.6145,7.6728 v 5.5561 H 7.6728 V 7.6728 Z m 0.26458,0.26458 h 0.52916 v 5.027 H 6.87908 Z"
       id="path947"
       style="fill:#1e1e1e;fill-opacity:1" />
    <path
       d="m 10.848,7.6728 v 5.5561 h 1.0583 V 7.6728 Z m 0.26458,0.26458 h 0.52916 v 5.027 h -0.52916 z"
       id="path949"
       style="fill:#1e1e1e;fill-opacity:1" />
    <path
       transform="scale(0.26458)"
       d="M 28,29 V 50 H 42 V 29 Z m 1,1 H 41 V 49 H 29 Z"
       id="path951"
       style="fill:#1e1e1e;fill-opacity:1" />
    <rect
       x="6.6145"
       y="8.4665003"
       width="1.0583"
       height="0.52916002"
       id="rect953"
       style="fill:#1e1e1e;fill-opacity:1" />
    <rect
       x="6.6145"
       y="9.5248003"
       width="1.0583"
       height="0.52916002"
       id="rect955"
       style="fill:#1e1e1e;fill-opacity:1" />
    <rect
       x="6.6145"
       y="10.583"
       width="1.0583"
       height="0.52916002"
       id="rect957"
       style="fill:#1e1e1e;fill-opacity:1" />
    <rect
       x="6.6145"
       y="11.641"
       width="1.0583"
       height="0.52916002"
       id="rect959"
       style="fill:#1e1e1e;fill-opacity:1" />
    <rect
       x="6.6145"
       y="12.7"
       width="1.0583"
       height="0.52916002"
       id="rect961"
       style="fill:#1e1e1e;fill-opacity:1" />
    <rect
       x="6.6145"
       y="12.7"
       width="1.0583"
       height="0.52916002"
       id="rect963"
       style="fill:#1e1e1e;fill-opacity:1" />
    <rect
       x="10.848"
       y="8.4665003"
       width="1.0583"
       height="0.52916002"
       id="rect965"
       style="fill:#1e1e1e;fill-opacity:1" />
    <rect
       x="10.848"
       y="9.5248003"
       width="1.0583"
       height="0.52916002"
       id="rect967"
       style="fill:#1e1e1e;fill-opacity:1" />
    <rect
       x="10.848"
       y="10.583"
       width="1.0583"
       height="0.52916002"
       id="rect969"
       style="fill:#1e1e1e;fill-opacity:1" />
    <rect
       x="10.848"
       y="11.641"
       width="1.0583"
       height="0.52916002"
       id="rect971"
       style="fill:#1e1e1e;fill-opacity:1" />
    <rect
       x="10.848"
       y="12.7"
       width="1.0583"
       height="0.52916002"
       id="rect973"
       style="fill:#1e1e1e;fill-opacity:1" />
  </g>
</svg>
