<?xml version="1.0" encoding="UTF-8"?>
<svg width="64" height="64" version="1.1" xmlns="http://www.w3.org/2000/svg" xmlns:cc="http://creativecommons.org/ns#" xmlns:dc="http://purl.org/dc/elements/1.1/" xmlns:rdf="http://www.w3.org/1999/02/22-rdf-syntax-ns#" xmlns:xlink="http://www.w3.org/1999/xlink">
 <metadata>
  <rdf:RDF>
   <cc:Work rdf:about="">
    <dc:format>image/svg+xml</dc:format>
    <dc:type rdf:resource="http://purl.org/dc/dcmitype/StillImage"/>
   </cc:Work>
  </rdf:RDF>
 </metadata>
 <defs>
  <linearGradient id="linearGradient854" x1=".5768" x2="16.311" y1=".54085" y2="16.275" gradientTransform="matrix(3.4646 0 0 -3.4646 2.6656 61.334)" gradientUnits="userSpaceOnUse">
   <stop stop-color="#8e631d" offset="0"/>
   <stop stop-color="#c8a845" offset="1"/>
  </linearGradient>
 </defs>
 <path d="m17.499 59.5h29.001c7.202 0 13-5.798 13-13v-29.001c0-7.202-5.798-13-13-13h-29.001c-7.202 0-13 5.798-13 13v29.001c0 7.202 5.798 13 13 13z" color="#000000" color-rendering="auto" dominant-baseline="auto" fill="url(#linearGradient854)" image-rendering="optimizeSpeed" shape-rendering="auto" solid-color="#000000" stop-color="#000000" style="font-feature-settings:normal;font-variant-alternates:normal;font-variant-caps:normal;font-variant-east-asian:normal;font-variant-ligatures:normal;font-variant-numeric:normal;font-variant-position:normal;font-variation-settings:normal;inline-size:0;isolation:auto;mix-blend-mode:normal;shape-margin:0;shape-padding:0;text-decoration-color:#000000;text-decoration-line:none;text-decoration-style:solid;text-indent:0;text-orientation:mixed;text-transform:none;white-space:normal"/>
 <g transform="translate(78.402)">
  <circle cx="-46.402" cy="32" r="23" fill="#564120" stroke-linecap="round" stroke-width="1.1685"/>
  <circle cx="-46.402" cy="32" r="22.5" fill="#aa8237" stroke-linecap="round" stroke-width="1.1431"/>
  <path d="m-44.402 10.102v19.898h19.89a22 22 0 0 0-19.89-19.898zm-4 0.0078a22 22 0 0 0-19.898 19.891h19.898zm-19.891 23.89a22 22 0 0 0 19.891 19.898v-19.898zm23.89 0v19.89a22 22 0 0 0 19.898-19.89z" fill="#070601"/>
  <g stroke-linecap="round">
   <path d="m-68.31 30a22 22 0 0 0-4e-3 0.03125 22 22 0 0 0-0.0312 0.39258 22 22 0 0 0-0.0254 0.39258 22 22 0 0 0-0.0176 0.39453 22 22 0 0 0-0.01 0.39453 22 22 0 0 0-4e-3 0.39453 22 22 0 0 0 2e-3 0.24414 22 22 0 0 0 8e-3 0.39453 22 22 0 0 0 0.0137 0.39258 22 22 0 0 0 0.0234 0.39453 22 22 0 0 0 0.0293 0.39258 22 22 0 0 0 0.0156 0.18164h43.816a22 22 0 0 0 0.0039-0.03125 22 22 0 0 0 0.03125-0.39258 22 22 0 0 0 0.02539-0.39258 22 22 0 0 0 0.01758-0.39453 22 22 0 0 0 0.0098-0.39453 22 22 0 0 0 0.0039-0.39453 22 22 0 0 0-2e-3 -0.24414 22 22 0 0 0-0.0078-0.39453 22 22 0 0 0-0.01367-0.39258 22 22 0 0 0-0.02344-0.39453 22 22 0 0 0-0.0293-0.39258 22 22 0 0 0-0.01541-0.18164z" fill="#564120" stroke-width="1.0485"/>
   <path d="m-44.402 10.092a22 22 0 0 0-0.03125-0.0039 22 22 0 0 0-0.39258-0.03125 22 22 0 0 0-0.39258-0.02539 22 22 0 0 0-0.39453-0.01758 22 22 0 0 0-0.39453-0.0098 22 22 0 0 0-0.39453-0.0039 22 22 0 0 0-0.24414 2e-3 22 22 0 0 0-0.39453 0.0078 22 22 0 0 0-0.39258 0.01367 22 22 0 0 0-0.39453 0.02344 22 22 0 0 0-0.39258 0.0293 22 22 0 0 0-0.18164 0.01563v43.816a22 22 0 0 0 0.03125 0.0039 22 22 0 0 0 0.39258 0.03125 22 22 0 0 0 0.39258 0.02539 22 22 0 0 0 0.39453 0.01758 22 22 0 0 0 0.39453 0.0098 22 22 0 0 0 0.39453 0.0039 22 22 0 0 0 0.24414-2e-3 22 22 0 0 0 0.39453-0.0078 22 22 0 0 0 0.39258-0.01367 22 22 0 0 0 0.39453-0.02344 22 22 0 0 0 0.39258-0.0293 22 22 0 0 0 0.18164-0.01563z" fill="#564120" stroke-width="1.0485"/>
   <path d="m-68.851 30.5a22.5 22.5 0 0 0-0.0195 0.30469 22.5 22.5 0 0 0-0.0176 0.39844 22.5 22.5 0 0 0-0.01 0.39844 22.5 22.5 0 0 0-4e-3 0.39844 22.5 22.5 0 0 0 2e-3 0.24219 22.5 22.5 0 0 0 8e-3 0.39844 22.5 22.5 0 0 0 0.0137 0.39844 22.5 22.5 0 0 0 0.0234 0.39844 22.5 22.5 0 0 0 4e-3 0.0625h44.898a22.5 22.5 0 0 0 0.01953-0.30469 22.5 22.5 0 0 0 0.01758-0.39844 22.5 22.5 0 0 0 0.0098-0.39844 22.5 22.5 0 0 0 0.0039-0.39844 22.5 22.5 0 0 0-2e-3 -0.24219 22.5 22.5 0 0 0-0.0078-0.39844 22.5 22.5 0 0 0-0.01367-0.39844 22.5 22.5 0 0 0-0.02344-0.39844 22.5 22.5 0 0 0-0.0039-0.0625z" fill="#aa8237" stroke-width=".90809"/>
   <path d="m-47.902 54.449a22.5 22.5 0 0 0 0.30469 0.01953 22.5 22.5 0 0 0 0.39844 0.01758 22.5 22.5 0 0 0 0.39844 0.0098 22.5 22.5 0 0 0 0.39844 0.0039 22.5 22.5 0 0 0 0.24219-2e-3 22.5 22.5 0 0 0 0.39844-0.0078 22.5 22.5 0 0 0 0.39844-0.01367 22.5 22.5 0 0 0 0.39844-0.02344 22.5 22.5 0 0 0 0.0625-0.0039v-44.898a22.5 22.5 0 0 0-0.30469-0.019531 22.5 22.5 0 0 0-0.39844-0.017578 22.5 22.5 0 0 0-0.39844-0.009766 22.5 22.5 0 0 0-0.39844-0.003906 22.5 22.5 0 0 0-0.24219 0.00195 22.5 22.5 0 0 0-0.39844 0.00781 22.5 22.5 0 0 0-0.39844 0.013672 22.5 22.5 0 0 0-0.39844 0.023437 22.5 22.5 0 0 0-0.0625 0.00391z" fill="#aa8237" stroke-width=".90809"/>
  </g>
 </g>
</svg>
