<?xml version="1.0" encoding="UTF-8"?>
<svg width="64" height="64" version="1.1" xmlns="http://www.w3.org/2000/svg" xmlns:cc="http://creativecommons.org/ns#" xmlns:dc="http://purl.org/dc/elements/1.1/" xmlns:rdf="http://www.w3.org/1999/02/22-rdf-syntax-ns#">
 <metadata>
  <rdf:RDF>
   <cc:Work rdf:about="">
    <dc:format>image/svg+xml</dc:format>
    <dc:type rdf:resource="http://purl.org/dc/dcmitype/StillImage"/>
   </cc:Work>
  </rdf:RDF>
 </metadata>
 <defs>
  <style type="text/css"/>
  <linearGradient id="linearGradient1448-7" x1="3.9687" x2="3.9687" y1="15.338" y2=".54085" gradientTransform="matrix(3.4646 0 0 -3.4646 2.6661 61.334)" gradientUnits="userSpaceOnUse">
   <stop stop-color="#333132" offset="0"/>
   <stop stop-color="#212427" offset="1"/>
  </linearGradient>
 </defs>
 <path d="m17.5 59.5h29.001c7.202 0 13-5.798 13-13v-29.001c0-7.202-5.798-13-13-13h-29.001c-7.202 0-13 5.798-13 13v29.001c0 7.202 5.798 13 13 13z" color="#000000" color-rendering="auto" dominant-baseline="auto" fill="url(#linearGradient1448-7)" image-rendering="optimizeSpeed" shape-rendering="auto" solid-color="#000000" stop-color="#000000" style="font-feature-settings:normal;font-variant-alternates:normal;font-variant-caps:normal;font-variant-east-asian:normal;font-variant-ligatures:normal;font-variant-numeric:normal;font-variant-position:normal;font-variation-settings:normal;inline-size:0;isolation:auto;mix-blend-mode:normal;shape-margin:0;shape-padding:0;text-decoration-color:#000000;text-decoration-line:none;text-decoration-style:solid;text-indent:0;text-orientation:mixed;text-transform:none;white-space:normal"/>
 <path d="m12 22v15h8v-15h-8zm24 0-15 15h7v9h8v-24zm9 0a8 8 0 0 0-8 8 8 8 0 0 0 8 8 8 8 0 0 0 8-8 8 8 0 0 0-8-8z" fill="#fff"/>
 <g fill="#5e4aa6">
  <circle cx="-1192.8" cy="-1340.1" r="0"/>
  <circle cx="-93.28" cy="-74.58" r="0" fill-rule="evenodd"/>
  <circle cx="-1133.4" cy="-1276" r="0"/>
 </g>
</svg>
