<?xml version="1.0" encoding="UTF-8"?>
<svg width="64" height="64" version="1.1" xmlns="http://www.w3.org/2000/svg" xmlns:cc="http://creativecommons.org/ns#" xmlns:dc="http://purl.org/dc/elements/1.1/" xmlns:rdf="http://www.w3.org/1999/02/22-rdf-syntax-ns#" xmlns:xlink="http://www.w3.org/1999/xlink">
 <metadata>
  <rdf:RDF>
   <cc:Work rdf:about="">
    <dc:format>image/svg+xml</dc:format>
    <dc:type rdf:resource="http://purl.org/dc/dcmitype/StillImage"/>
   </cc:Work>
  </rdf:RDF>
 </metadata>
 <defs>
  <linearGradient id="linearGradient1115" x1="-29.448" x2="-29.448" y1="4.6371" y2="59.494" gradientTransform="translate(63.693)" gradientUnits="userSpaceOnUse">
   <stop stop-color="#fff" offset="0"/>
   <stop stop-color="#ccd4da" offset="1"/>
  </linearGradient>
 </defs>
 <rect x="4.5" y="4.5" width="55" height="55" ry="13" fill="url(#linearGradient1115)" image-rendering="optimizeSpeed" stroke-width=".47291"/>
 <g transform="matrix(.875 0 0 .875 4 4)">
  <path d="m26.988 36.676-7.0703 12.234 3.4648 2.0039 7.0703-12.234z" fill="#7f80a1"/>
  <path d="m40.562 13.188-7.1758 12.422 3.4609 2 7.1797-12.422z" fill="#0d65d7"/>
  <path d="m20.445 24-8.082 14 8.082 14h16.164l8.082-14-8.082-14zm2.3086 4h11.547l5.7734 10-5.7734 10h-11.547l-5.7734-10z" fill="#7f80a1"/>
  <path d="m27.391 12-8.082 14 8.082 14h16.164l8.082-14-8.0781-14zm2.3086 4h11.551l5.7695 10-5.7734 10h-11.543l-5.7773-10z" fill="#0d65d7"/>
 </g>
</svg>
