<?xml version="1.0" encoding="UTF-8"?>
<svg width="64" height="64" version="1.1" viewBox="0 0 16.933 16.933" xmlns="http://www.w3.org/2000/svg" xmlns:cc="http://creativecommons.org/ns#" xmlns:dc="http://purl.org/dc/elements/1.1/" xmlns:rdf="http://www.w3.org/1999/02/22-rdf-syntax-ns#" xmlns:xlink="http://www.w3.org/1999/xlink">
 <defs>
  <linearGradient id="linearGradient2116" x1="32.499" x2="32.499" y1="14.673" y2="47.063" gradientTransform="scale(.26458)" gradientUnits="userSpaceOnUse">
   <stop stop-color="#faed1c" offset="0"/>
   <stop stop-color="#fad31c" offset="1"/>
  </linearGradient>
 </defs>
 <metadata>
  <rdf:RDF>
   <cc:Work rdf:about="">
    <dc:format>image/svg+xml</dc:format>
    <dc:type rdf:resource="http://purl.org/dc/dcmitype/StillImage"/>
    <dc:title/>
   </cc:Work>
  </rdf:RDF>
 </metadata>
 <rect x="1.1906" y="1.1906" width="14.552" height="14.552" ry="3.4396" fill="url(#linearGradient2116)" stroke-width=".56197"/>
 <path d="m2.4682 5.2919v1.5875h1.0583v4.7624h1.5875v-6.3498zm6.879 0c-1.7534 0-3.1749 1.4215-3.1749 3.1749 0 1.7534 1.4215 3.1749 3.1749 3.1749h4.6028c0.23737-0.50134 0.39438-1.0312 0.51507-1.5875h-5.118c-0.87675 0-1.5875-0.7107-1.5875-1.5875 0-0.87675 0.7107-1.5875 1.5875-1.5875 0.4507 8.466e-4 0.87977 0.19322 1.1803 0.52915h1.8086c-0.44766-1.2668-1.6446-2.1145-2.9886-2.1166z" fill="#fe3838" stroke-width=".26458"/>
</svg>
