<?xml version="1.0" encoding="UTF-8"?>
<svg width="64" height="64" version="1.1" viewBox="0 0 16.933 16.933" xmlns="http://www.w3.org/2000/svg" xmlns:cc="http://creativecommons.org/ns#" xmlns:dc="http://purl.org/dc/elements/1.1/" xmlns:rdf="http://www.w3.org/1999/02/22-rdf-syntax-ns#" xmlns:xlink="http://www.w3.org/1999/xlink">
 <defs>
  <linearGradient id="linearGradient2116" x1="32.499" x2="32.499" y1="14.673" y2="47.063" gradientUnits="userSpaceOnUse" xlink:href="#linearGradient2114"/>
  <linearGradient id="linearGradient2114">
   <stop stop-color="#faed1c" offset="0"/>
   <stop stop-color="#fad31c" offset="1"/>
  </linearGradient>
 </defs>
 <metadata>
  <rdf:RDF>
   <cc:Work rdf:about="">
    <dc:format>image/svg+xml</dc:format>
    <dc:type rdf:resource="http://purl.org/dc/dcmitype/StillImage"/>
    <dc:title/>
   </cc:Work>
  </rdf:RDF>
 </metadata>
 <g stroke-width="2.124">
  <path transform="scale(.26458)" d="m59.439 47.1-50.518 9.0215c2.2952 2.044 5.2488 3.3789 8.5781 3.3789h29c6.9965 0 12.621-5.4852 12.939-12.4z" fill="#80d511"/>
  <path transform="scale(.26458)" d="m59.5 45.09-52.084 9.3008c0.47995 0.61369 0.92474 1.2129 1.5059 1.7305l50.518-9.0215c0.009339-0.20311 0.060547-0.39411 0.060547-0.59961v-1.4102z" fill="url(#linearGradient2116)"/>
  <path transform="scale(.26458)" d="m59.5 21.91-53.887-9.623c-0.69959 1.5988-1.1133 3.3503-1.1133 5.2129v29c0 3.0297 1.191 5.685 2.916 7.8906l52.084-9.3008v-23.18z" fill="#40c412"/>
  <path transform="scale(.26458)" d="m59.5 19.91-52.686-9.4082c-0.39544 0.60293-0.90898 1.1174-1.2012 1.7852l53.887 9.623v-2z" fill="url(#linearGradient2116)"/>
  <path transform="scale(.26458)" d="m17.5 4.5c-4.5615 0-8.3669 2.4666-10.686 6.002l52.686 9.4082v-2.4102c0-7.202-5.798-13-13-13h-29z" fill="#fbc72b"/>
 </g>
 <path transform="scale(.26458)" d="m59.5 45.09-52.301 9.3379c0.47723 0.62023 1.008 1.193 1.5879 1.7168l50.684-9.0508c0.008905-0.19837 0.029297-0.39311 0.029297-0.59375v-1.4102z" fill="#fff"/>
 <path transform="scale(.26458)" d="m6.5703 10.459c-0.37252 0.5787-0.70418 1.1868-0.98242 1.8242l53.912 9.627v-2l-52.93-9.4512z" fill="#fff"/>
 <path d="m7.9375 13.494 1.0583-0.26458s-0.26458-1.8521 0.26458-3.4396c0.16262-0.48787 0.52917-1.0583 1.3229-1.0583h1.0583s0.26458-1.7595 0.26458-2.6458c0-0.52917-0.52917-3.175-3.4396-3.175-2.6458 0-3.4396 2.6458-3.4396 3.175 0 1.0583 0.26458 2.6458 0.26458 2.6458h1.0583c0.79375 0 1.1358 0.49707 1.3229 1.0583 0.52917 1.5875 0.26458 3.7042 0.26458 3.7042z" fill="#1ca3f4" stroke-width=".26458"/>
 <path d="m8.4667 2.6458c-1.4111 0-2.3614 0.72192-2.9259 1.4981-0.28225 0.38809-0.4742 0.78959-0.59738 1.1327-0.12318 0.34315-0.18087 0.6103-0.18087 0.80874 0 1.1024 0.2682 2.6892 0.2682 2.6892a0.26461 0.26461 0 0 0 0.26097 0.22118h1.0583c0.34164 0 0.54699 0.09667 0.70848 0.24753 0.16149 0.15086 0.27763 0.37297 0.36328 0.62994 0.49849 1.4955 0.25321 3.5874 0.25321 3.5874a0.26461 0.26461 0 0 0 0.3266 0.2899l1.0583-0.26458a0.26461 0.26461 0 0 0 0.19792-0.29404s-0.24755-1.8148 0.25373-3.3187c0.072236-0.21671 0.18861-0.4427 0.35708-0.60513 0.16847-0.16242 0.38119-0.27234 0.71468-0.27234h1.0583a0.26461 0.26461 0 0 0 0.26148-0.22531s0.26768-1.7461 0.26768-2.6851c0-0.35278-0.14016-1.1513-0.67438-1.9348-0.53422-0.78351-1.4944-1.5048-3.0298-1.5048zm0 0.52917c1.375 0 2.1346 0.60161 2.5926 1.2733 0.45797 0.67169 0.58239 1.4607 0.58239 1.6371 0 0.76162-0.20099 2.1198-0.23875 2.3812h-0.81959c-0.46026 0-0.8277 0.17536-1.0816 0.42013-0.25389 0.24477-0.40209 0.54791-0.49248 0.81907-0.4989 1.4967-0.33214 2.9869-0.29042 3.3197l-0.49764 0.12454c0.05039-0.48921 0.18035-2.0118-0.29714-3.4442-0.10143-0.3043-0.24961-0.61106-0.50436-0.84904-0.25475-0.23799-0.6176-0.39016-1.0697-0.39016h-0.82889c-0.04854-0.30823-0.22944-1.4888-0.22944-2.3812 0-0.06615 0.04153-0.32817 0.14986-0.62994 0.10833-0.30177 0.28018-0.66094 0.5271-1.0005 0.49384-0.67903 1.2633-1.28 2.498-1.28z" fill="#fff" stroke-width=".26458"/>
</svg>
