<?xml version="1.0" encoding="UTF-8"?>
<svg width="64" height="64" version="1.1" viewBox="0 0 16.933 16.933" xmlns="http://www.w3.org/2000/svg" xmlns:cc="http://creativecommons.org/ns#" xmlns:dc="http://purl.org/dc/elements/1.1/" xmlns:rdf="http://www.w3.org/1999/02/22-rdf-syntax-ns#" xmlns:xlink="http://www.w3.org/1999/xlink">
 <defs>
  <linearGradient id="linearGradient2116-6" x1="25.774" x2="25.774" y1="4.9279" y2="59.284" gradientTransform="matrix(.26459 0 0 .26459 -.00010197 -.00010052)" gradientUnits="userSpaceOnUse">
   <stop stop-color="#353938" offset="0"/>
   <stop stop-color="#1b1b1b" offset="1"/>
  </linearGradient>
  <linearGradient id="linearGradient1226" x1="3.3786" x2="3.3786" y1="53.094" y2="112.97" gradientTransform="translate(28.631 -51.189)" gradientUnits="userSpaceOnUse">
   <stop stop-color="#72b144" offset="0"/>
   <stop stop-color="#68d623" offset="1"/>
  </linearGradient>
 </defs>
 <metadata>
  <rdf:RDF>
   <cc:Work rdf:about="">
    <dc:format>image/svg+xml</dc:format>
    <dc:type rdf:resource="http://purl.org/dc/dcmitype/StillImage"/>
    <dc:title/>
   </cc:Work>
  </rdf:RDF>
 </metadata>
 <g>
  <rect x="1.1905" y="1.1905" width="14.552" height="14.552" ry="3.4397" fill="url(#linearGradient2116-6)" stroke-width=".56198"/>
  <path transform="scale(.26458)" d="m17.5 4.5c-7.2022 0-13 5.7978-13 13v12.615c0.046689 0.050786 0.082193 0.10878 0.13086 0.1582 0.49709 0.5048 1.0991 0.93678 1.8301 1.2422 0.73101 0.30542 1.5906 0.48438 2.6016 0.48438 0.85227 0 1.5975-0.12781 2.25-0.35156 0.65252-0.22371 1.212-0.54422 1.6914-0.92774 0.95881-0.76705 1.5973-1.7898 2.0234-2.8125 0.42614-1.0227 0.63956-2.0455 0.74609-2.8125 0.10654-0.76704 0.10742-1.2773 0.10742-1.2773v-2.7266s-0.001111-0.68342 0.33984-1.3652c0.17046-0.34091 0.42703-0.68182 0.81055-0.9375 0.38352-0.25568 0.89435-0.42578 1.5762-0.42578s1.1926 0.1701 1.5762 0.42578c0.38352 0.25568 0.64009 0.59659 0.81055 0.9375 0.34091 0.68182 0.3418 1.3652 0.3418 1.3652v25.908s-0.001112 0.68146 0.33984 1.3633c0.17046 0.34091 0.42702 0.68182 0.81055 0.9375s0.89435 0.42578 1.5762 0.42578c0.68182 0 1.1926-0.17008 1.5762-0.42578 0.38352-0.25568 0.64009-0.59659 0.81055-0.9375 0.34091-0.68182 0.33984-1.3633 0.33984-1.3633v-23.182s-1.74e-4 -1.3629 0.68164-2.7266c0.34091-0.68182 0.8521-1.3636 1.6191-1.875 0.38352-0.25568 0.8315-0.46999 1.3535-0.61914 0.52202-0.14915 1.119-0.23438 1.8008-0.23438 0.68182 0 1.2788 0.085228 1.8008 0.23438 0.52202 0.14915 0.96999 0.36346 1.3535 0.61914 0.76704 0.51136 1.2782 1.1932 1.6191 1.875 0.68182 1.3636 0.68164 2.7266 0.68164 2.7266v15s-1.79e-4 1.3629 0.68164 2.7266c0.34091 0.68182 0.8521 1.3636 1.6191 1.875 0.38352 0.25568 0.8315 0.47 1.3535 0.61914 0.52202 0.14914 1.117 0.23438 1.7988 0.23438 1.3636 0 2.3873-0.25712 3.1543-0.64063 0.76705-0.38352 1.2782-0.89488 1.6191-1.4062 0.68182-1.0227 0.68164-2.0449 0.68164-2.0449v-10.908s9.02e-4 -0.68342 0.3418-1.3652c0.17046-0.34091 0.42507-0.68182 0.80859-0.9375 0.38352-0.25568 0.89631-0.42578 1.5781-0.42578 0.68182 0 1.1927 0.17008 1.5762 0.42578 0.38352 0.25568 0.63814 0.59659 0.80859 0.9375 0.34091 0.68182 0.3418 1.3652 0.3418 1.3652v8.1816s-0.001111 0.68147 0.33984 1.3633c0.17046 0.34091 0.42702 0.68182 0.81055 0.9375 0.38352 0.25568 0.89435 0.42578 1.5762 0.42578 0.68182 0 1.1946-0.17012 1.5781-0.42578 0.38352-0.25568 0.63814-0.59659 0.80859-0.9375 0.27132-0.54263 0.31269-0.99062 0.32422-1.1895v-20.129c0-7.2022-5.7978-13-13-13h-29z" fill="url(#linearGradient1226)" stroke-linecap="round" stroke-width="1.9608"/>
 </g>
</svg>
