<?xml version="1.0" encoding="UTF-8"?>
<svg width="64" height="64" version="1.1" viewBox="0 0 16.933 16.933" xmlns="http://www.w3.org/2000/svg" xmlns:cc="http://creativecommons.org/ns#" xmlns:dc="http://purl.org/dc/elements/1.1/" xmlns:rdf="http://www.w3.org/1999/02/22-rdf-syntax-ns#">
 <defs>
  <linearGradient id="linearGradient2116-6" x1="25.774" x2="25.774" y1="8.7705" y2="59.284" gradientTransform="matrix(.26459 0 0 .26459 -.00010197 -.00010052)" gradientUnits="userSpaceOnUse">
   <stop stop-color="#ff4b00" offset="0"/>
   <stop stop-color="#f5102d" offset="1"/>
  </linearGradient>
 </defs>
 <metadata>
  <rdf:RDF>
   <cc:Work rdf:about="">
    <dc:format>image/svg+xml</dc:format>
    <dc:type rdf:resource="http://purl.org/dc/dcmitype/StillImage"/>
    <dc:title/>
   </cc:Work>
  </rdf:RDF>
 </metadata>
 <rect x="1.1905" y="1.1905" width="14.552" height="14.552" ry="3.4397" fill="url(#linearGradient2116-6)" stroke-width=".56198"/>
 <g transform="translate(19.681)">
  <rect x="-15.628" y="5.0334" width="8.0111" height="6.8666" ry="0" fill="none" stroke="#fff" stroke-linecap="round" stroke-width=".45778"/>
  <g fill="#fff">
   <path d="m-13.682 6.6167a0.51373 0.51373 0 0 0-0.02157 5.036e-4 0.51373 0.51373 0 0 0-0.02157 0.00126 0.51373 0.51373 0 0 0-0.02157 0.00227 0.51373 0.51373 0 0 0-0.02132 0.00326 0.51373 0.51373 0 0 0-0.02107 0.00401 0.51373 0.51373 0 0 0-0.02107 0.00502 0.51373 0.51373 0 0 0-0.02082 0.00577 0.51373 0.51373 0 0 0-0.02057 0.00677 0.51373 0.51373 0 0 0-0.02032 0.00753 0.51373 0.51373 0 0 0-0.01982 0.00853 0.51373 0.51373 0 0 0-0.01957 0.00903 0.51373 0.51373 0 0 0-0.01906 0.010034 0.51373 0.51373 0 0 0-0.01856 0.011037 0.51373 0.51373 0 0 0-0.01831 0.011538 0.51373 0.51373 0 0 0-0.01781 0.012291 0.51373 0.51373 0 0 0-0.01706 0.013044 0.51373 0.51373 0 0 0-0.01656 0.013797 0.51373 0.51373 0 0 0-0.01605 0.014548 0.51373 0.51373 0 0 0-0.0153 0.015301 0.51373 0.51373 0 0 0-0.0148 0.015802 0.51373 0.51373 0 0 0-0.01405 0.016306 0.51373 0.51373 0 0 0-0.01355 0.017057 0.51373 0.51373 0 0 0-0.01254 0.017309 0.51373 0.51373 0 0 0-0.01179 0.018061 0.51373 0.51373 0 0 0-0.01129 0.018563 0.51373 0.51373 0 0 0-0.01028 0.019064 0.51373 0.51373 0 0 0-0.0095 0.01932 0.51373 0.51373 0 0 0-0.0085 0.01982 0.51373 0.51373 0 0 0-8e-3 0.02007 0.51373 0.51373 0 0 0-7e-3 0.02032 0.51373 0.51373 0 0 0-6e-3 0.02082 0.51373 0.51373 0 0 0-0.0053 0.02082 0.51373 0.51373 0 0 0-0.0045 0.02132 0.51373 0.51373 0 0 0-0.0035 0.02132 0.51373 0.51373 0 0 0-0.0025 0.02132 0.51373 0.51373 0 0 0-0.0018 0.02157 0.51373 0.51373 0 0 0-7.55e-4 0.02157 0.51373 0.51373 0 0 0 0 0.0078 0.51373 0.51373 0 0 0 5.03e-4 0.02157 0.51373 0.51373 0 0 0 0.0013 0.02157 0.51373 0.51373 0 0 0 0.0023 0.02157 0.51373 0.51373 0 0 0 0.0033 0.02132 0.51373 0.51373 0 0 0 4e-3 0.02132 0.51373 0.51373 0 0 0 5e-3 0.02082 0.51373 0.51373 0 0 0 0.0058 0.02082 0.51373 0.51373 0 0 0 0.0068 0.02057 0.51373 0.51373 0 0 0 0.0075 0.02032 0.51373 0.51373 0 0 0 0.0083 0.01982 0.51373 0.51373 0 0 0 0.0093 0.01957 0.51373 0.51373 0 0 0 0.01003 0.01906 0.51373 0.51373 0 0 0 0.01079 0.01881 0.51373 0.51373 0 0 0 0.01179 0.01806 0.51373 0.51373 0 0 0 0.01229 0.01781 0.51373 0.51373 0 0 0 0.01304 0.01706 0.51373 0.51373 0 0 0 0.0138 0.01656 0.51373 0.51373 0 0 0 0.01455 0.01605 0.51373 0.51373 0 0 0 0.01505 0.01555 0.51373 0.51373 0 0 0 0.0158 0.01455 0.51373 0.51373 0 0 0 0.01656 0.01405 0.51373 0.51373 0 0 0 0.01681 0.01355 0.51373 0.51373 0 0 0 0.01756 0.01254 0.51373 0.51373 0 0 0 0.01806 0.01179 0.51373 0.51373 0 0 0 0.01856 0.01129 0.51373 0.51373 0 0 0 0.01906 0.01028 0.51373 0.51373 0 0 0 0.01932 0.0095 0.51373 0.51373 0 0 0 0.01982 0.0088 0.51373 0.51373 0 0 0 0.02007 0.0078 0.51373 0.51373 0 0 0 0.02032 7e-3 0.51373 0.51373 0 0 0 0.02082 6e-3 0.51373 0.51373 0 0 0 0.02082 0.0053 0.51373 0.51373 0 0 0 0.02132 0.0045 0.51373 0.51373 0 0 0 0.02132 0.0035 0.51373 0.51373 0 0 0 0.02132 0.0025 0.51373 0.51373 0 0 0 0.02157 0.0018 0.51373 0.51373 0 0 0 0.02157 7.55e-4 0.51373 0.51373 0 0 0 0.0078 0 0.51373 0.51373 0 0 0 0.02157-5.03e-4 0.51373 0.51373 0 0 0 0.02157-0.0013 0.51373 0.51373 0 0 0 0.02157-0.0023 0.51373 0.51373 0 0 0 0.02132-0.0033 0.51373 0.51373 0 0 0 0.02107-4e-3 0.51373 0.51373 0 0 0 0.02107-5e-3 0.51373 0.51373 0 0 0 0.02082-0.0058 0.51373 0.51373 0 0 0 0.02057-0.0068 0.51373 0.51373 0 0 0 0.02032-0.0075 0.51373 0.51373 0 0 0 0.01982-0.0083 0.51373 0.51373 0 0 0 0.01957-0.0093 0.51373 0.51373 0 0 0 0.01906-0.01003 0.51373 0.51373 0 0 0 0.01881-0.01079 0.51373 0.51373 0 0 0 0.01806-0.01179 0.51373 0.51373 0 0 0 0.01781-0.01229 0.51373 0.51373 0 0 0 0.01706-0.01304 0.51373 0.51373 0 0 0 0.01656-0.0138 0.51373 0.51373 0 0 0 0.01605-0.01455 0.51373 0.51373 0 0 0 0.01555-0.01505 0.51373 0.51373 0 0 0 0.01455-0.0158 0.51373 0.51373 0 0 0 0.01405-0.01656 0.51373 0.51373 0 0 0 0.01355-0.01681 0.51373 0.51373 0 0 0 0.01254-0.01756 0.51373 0.51373 0 0 0 0.01179-0.01806 0.51373 0.51373 0 0 0 0.01129-0.01856 0.51373 0.51373 0 0 0 0.01028-0.01881 0.51373 0.51373 0 0 0 0.0095-0.01957 0.51373 0.51373 0 0 0 0.0085-0.01982 0.51373 0.51373 0 0 0 8e-3 -0.02007 0.51373 0.51373 0 0 0 7e-3 -0.02032 0.51373 0.51373 0 0 0 6e-3 -0.02082 0.51373 0.51373 0 0 0 0.0053-0.02082 0.51373 0.51373 0 0 0 0.0045-0.02132 0.51373 0.51373 0 0 0 0.0035-0.02107 0.51373 0.51373 0 0 0 0.0025-0.02157 0.51373 0.51373 0 0 0 0.0018-0.02157 0.51373 0.51373 0 0 0 7.56e-4 -0.02157 0.51373 0.51373 0 0 0 0-0.0078 0.51373 0.51373 0 0 0-5.04e-4 -0.02157 0.51373 0.51373 0 0 0-0.0013-0.02157 0.51373 0.51373 0 0 0-0.0023-0.02132 0.51373 0.51373 0 0 0-0.0033-0.02157 0.51373 0.51373 0 0 0-4e-3 -0.02107 0.51373 0.51373 0 0 0-5e-3 -0.02107 0.51373 0.51373 0 0 0-0.0058-0.02082 0.51373 0.51373 0 0 0-0.0068-0.02057 0.51373 0.51373 0 0 0-0.0075-0.02007 0.51373 0.51373 0 0 0-0.0083-0.02007 0.51373 0.51373 0 0 0-0.0093-0.01957 0.51373 0.51373 0 0 0-0.01003-0.019064 0.51373 0.51373 0 0 0-0.01078-0.018563 0.51373 0.51373 0 0 0-0.01179-0.018311 0.51373 0.51373 0 0 0-0.01229-0.01781 0.51373 0.51373 0 0 0-0.01304-0.017057 0.51373 0.51373 0 0 0-0.0138-0.016555 0.51373 0.51373 0 0 0-0.01455-0.016054 0.51373 0.51373 0 0 0-0.01505-0.015301 0.51373 0.51373 0 0 0-0.0158-0.0148 0.51373 0.51373 0 0 0-0.01655-0.014047 0.51373 0.51373 0 0 0-0.01681-0.013294 0.51373 0.51373 0 0 0-0.01756-0.012792 0.51373 0.51373 0 0 0-0.01806-0.01179 0.51373 0.51373 0 0 0-0.01856-0.011037 0.51373 0.51373 0 0 0-0.01906-0.010536 0.51373 0.51373 0 0 0-0.01932-0.00953 0.51373 0.51373 0 0 0-0.01982-0.00853 0.51373 0.51373 0 0 0-0.02007-0.00803 0.51373 0.51373 0 0 0-0.02032-0.00702 0.51373 0.51373 0 0 0-0.02082-0.00602 0.51373 0.51373 0 0 0-0.02082-0.00527 0.51373 0.51373 0 0 0-0.02132-0.00452 0.51373 0.51373 0 0 0-0.02132-0.00326 0.51373 0.51373 0 0 0-0.02132-0.00276 0.51373 0.51373 0 0 0-0.02157-0.00176 0.51373 0.51373 0 0 0-0.02157-7.553e-4 0.51373 0.51373 0 0 0-0.0078 0z"/>
   <path d="m-8.2274 8.9689-0.64106-1.283-1.3379 2.0068-1.3379-1.1149-1.3379 1.7838-0.8919-1.3379-1.3379 2.2271 6.8844 0.0044z"/>
   <rect x="-7.0287" y="5.8764" width=".45778" height="6.8666" ry="0"/>
   <rect transform="rotate(-90)" x="-12.972" y="-13.438" width=".45778" height="6.8666" ry="0"/>
  </g>
 </g>
</svg>
