<?xml version="1.0" encoding="UTF-8"?>
<svg width="64" height="64" version="1.1" xmlns="http://www.w3.org/2000/svg" xmlns:cc="http://creativecommons.org/ns#" xmlns:dc="http://purl.org/dc/elements/1.1/" xmlns:rdf="http://www.w3.org/1999/02/22-rdf-syntax-ns#" xmlns:xlink="http://www.w3.org/1999/xlink">
 <metadata>
  <rdf:RDF>
   <cc:Work rdf:about="">
    <dc:format>image/svg+xml</dc:format>
    <dc:type rdf:resource="http://purl.org/dc/dcmitype/StillImage"/>
   </cc:Work>
  </rdf:RDF>
 </metadata>
 <defs>
  <style type="text/css"/>
  <linearGradient id="linearGradient1448" x1="3.9687" x2="3.9687" y1="15.338" y2=".54085" gradientTransform="matrix(.91666 0 0 .91666 26.674 -20.554)" gradientUnits="userSpaceOnUse">
   <stop stop-color="#8c05eb" offset="0"/>
   <stop stop-color="#5a00a0" offset="1"/>
  </linearGradient>
  <linearGradient id="linearGradient956" x1="32.014" x2="32.014" y1="48.181" y2="11.537" gradientTransform="translate(-69.682)" gradientUnits="userSpaceOnUse">
   <stop stop-color="#e0e3e5" offset="0"/>
   <stop stop-color="#f3f5f5" offset="1"/>
  </linearGradient>
  <linearGradient id="linearGradient958" x1="32" x2="32" y1="29.887" y2="52.08" gradientTransform="translate(-69.176 -2.0639)" gradientUnits="userSpaceOnUse">
   <stop stop-color="#f5f6f6" offset="0"/>
   <stop stop-color="#e0e3e5" offset="1"/>
  </linearGradient>
 </defs>
 <g transform="matrix(3.7796 0 0 3.7796 -98.154 -16.352)">
  <rect transform="scale(1,-1)" x="27.16" y="-20.069" width="14.552" height="14.552" ry="3.4395" fill="url(#linearGradient1448)" image-rendering="optimizeSpeed" stroke-opacity=".95294" stroke-width=".083152"/>
 </g>
 <g transform="translate(69.682 1.2648)" stroke="#5e4492" stroke-opacity=".93726" stroke-width=".3">
  <path d="m-23.804 30.786v-1.9138c0-7.3988-5.9979-13.397-13.397-13.397-7.3988 0-13.397 5.9979-13.397 13.397v19.138h-0.95691c-9.6891 0.0083-12.009-13.513-2.8707-16.734v-2.4037c0-9.5126 7.7117-17.224 17.224-17.224 9.5126 0 17.224 7.7117 17.224 17.224v2.8095c7.702 3.8181 5.6727 15.324-2.8707 16.277v0.05165l-0.95691 2.7e-5z" fill="url(#linearGradient956)" p-id="8838"/>
  <path d="m-37.176 27.823a11 11 0 0 0-11 11 11 11 0 0 0 11 11 11 11 0 0 0 11-11 11 11 0 0 0-11-11zm0 3.3008a2.5667 2.5667 0 0 1 2.5664 2.5664 2.5667 2.5667 0 0 1-2.5664 2.5664 2.5667 2.5667 0 0 1-2.5664-2.5664 2.5667 2.5667 0 0 1 2.5664-2.5664zm-5.1328 5.1328a2.5667 2.5667 0 0 1 2.5664 2.5664 2.5667 2.5667 0 0 1-2.5664 2.5684 2.5667 2.5667 0 0 1-2.5664-2.5684 2.5667 2.5667 0 0 1 2.5664-2.5664zm10.266 0a2.5667 2.5667 0 0 1 2.5664 2.5664 2.5667 2.5667 0 0 1-2.5664 2.5684 2.5667 2.5667 0 0 1-2.5664-2.5684 2.5667 2.5667 0 0 1 2.5664-2.5664zm-5.1328 1.834a0.73333 0.73333 0 0 1 0.73242 0.73242 0.73333 0.73333 0 0 1-0.73242 0.73438 0.73333 0.73333 0 0 1-0.73242-0.73438 0.73333 0.73333 0 0 1 0.73242-0.73242zm0 3.3008a2.5667 2.5667 0 0 1 2.5664 2.5664 2.5667 2.5667 0 0 1-2.5664 2.5664 2.5667 2.5667 0 0 1-2.5664-2.5664 2.5667 2.5667 0 0 1 2.5664-2.5664z" fill="url(#linearGradient958)"/>
 </g>
</svg>
