<?xml version="1.0" encoding="UTF-8"?>
<svg width="64" height="64" version="1" xmlns="http://www.w3.org/2000/svg" xmlns:cc="http://creativecommons.org/ns#" xmlns:dc="http://purl.org/dc/elements/1.1/" xmlns:rdf="http://www.w3.org/1999/02/22-rdf-syntax-ns#">
 <metadata>
  <rdf:RDF>
   <cc:Work rdf:about="">
    <dc:format>image/svg+xml</dc:format>
    <dc:type rdf:resource="http://purl.org/dc/dcmitype/StillImage"/>
   </cc:Work>
  </rdf:RDF>
 </metadata>
 <defs>
  <style type="text/css"/>
  <linearGradient id="linearGradient2116" x1="59.5" x2="4.5" y1="4.5" y2="59.5" gradientTransform="matrix(1 0 0 1 -.0003777 -.00037779)" gradientUnits="userSpaceOnUse">
   <stop stop-color="#3981ff" offset="0"/>
   <stop stop-color="#00a0ff" offset="1"/>
  </linearGradient>
 </defs>
 <rect x="4.4996" y="4.4996" width="55.001" height="55.001" ry="13" fill="url(#linearGradient2116)" stroke-width="2.124"/>
 <g transform="matrix(.66667 0 0 .66667 62.624 15.696)" fill="#fff">
  <circle transform="scale(-1,1)" cx="28.793" cy="32.598" r="12.857"/>
  <circle transform="scale(-1,1)" cx="42.936" cy="18.455" r="15"/>
  <circle transform="scale(-1,1)" cx="54.507" cy="21.169" r="10"/>
  <circle transform="scale(-1,1)" cx="63.079" cy="32.598" r="12.857"/>
  <rect transform="scale(-1,1)" x="28.796" y="28.315" width="34.286" height="17.143"/>
 </g>
 <path d="m37.638 25.532-9.1195 1.7464c-0.47304 0.09061-0.81522 0.50631-0.81522 0.9904v9.6978c-0.72991-0.29354-1.6852-0.29561-2.6132 0.06154-1.595 0.61378-2.5049 2.0559-2.0323 3.2212 0.47258 1.1652 2.1487 1.6123 3.7438 0.9985 1.3456-0.5178 2.2036-1.6252 2.1553-2.6585v-8.866l8.0229-1.5364v6.7755c-0.72988-0.29527-1.6863-0.29809-2.6154 0.05967-1.5938 0.61378-2.503 2.056-2.0307 3.2212 0.47222 1.1652 2.147 1.6122 3.7408 0.9985 1.3208-0.50866 2.1714-1.5862 2.1552-2.6036l0.0034-1e-3v-11.61c0-0.31622-0.28626-0.55435-0.59526-0.49521z" fill="#258cff" stroke-width=".018998" p-id="12170"/>
</svg>
