<?xml version="1.0" encoding="UTF-8"?>
<svg width="64" height="64" version="1.1" viewBox="0 0 16.933 16.933" xmlns="http://www.w3.org/2000/svg" xmlns:cc="http://creativecommons.org/ns#" xmlns:dc="http://purl.org/dc/elements/1.1/" xmlns:rdf="http://www.w3.org/1999/02/22-rdf-syntax-ns#" xmlns:xlink="http://www.w3.org/1999/xlink">
 <defs>
  <linearGradient id="linearGradient1115" x1="-55.539" x2="-8.8028" y1="32.572" y2="32.572" gradientTransform="matrix(.26459 0 0 .26459 16.852 -.00010029)" gradientUnits="userSpaceOnUse">
   <stop stop-color="#dcdcdc" offset="0"/>
   <stop stop-color="#d1d1d1" offset="1"/>
  </linearGradient>
  <linearGradient id="linearGradient9463" x1="10" x2="55" y1="11" y2="11" gradientUnits="userSpaceOnUse">
   <stop stop-color="#787878" offset="0"/>
   <stop stop-color="#5b5b5b" offset="1"/>
  </linearGradient>
 </defs>
 <metadata>
  <rdf:RDF>
   <cc:Work rdf:about="">
    <dc:format>image/svg+xml</dc:format>
    <dc:type rdf:resource="http://purl.org/dc/dcmitype/StillImage"/>
   </cc:Work>
  </rdf:RDF>
 </metadata>
 <rect x="1.1905" y="1.1905" width="14.552" height="14.552" ry="3.4396" fill="url(#linearGradient1115)" image-rendering="optimizeSpeed" stroke-width=".12512"/>
 <path d="m7.7663 5.4736v4.4357h-1.8676l1.4007-3.9687h-1.4007l-1.4007 3.9687v1.1673h3.2684v2.3346h1.4007v-2.3346h0.70037s2.568 0 2.568-3.2684c0-2.3346-2.568-2.3346-2.568-2.3346h-0.70037zm1.4007 1.1673h0.70037s1.1673 0 1.1673 1.1673c0 2.1011-1.1673 2.1011-1.1673 2.1011h-0.70037z" fill="#3174fc" stroke-width=".23346"/>
 <path d="m8.4669 1.1919h3.8365c0.02977 0 0.05981 2.89e-4 0.0894 1e-3 0.02959 7.44e-4 0.05897 0.0016 0.08837 0.0031 0.02939 0.0015 0.05866 0.0035 0.08785 0.0057s0.05836 0.0048 0.08733 0.0078c0.02898 0.0029 0.05754 0.0062 0.0863 0.0098s0.05777 0.0076 0.0863 0.01189c0.02853 0.0043 0.05646 0.0089 0.08475 0.01395 0.02829 5e-3 0.05671 0.01083 0.08475 0.01654 0.05608 0.01142 0.11136 0.02415 0.1664 0.03824 0.05503 0.01409 0.1099 0.02929 0.16382 0.04599 0.05392 0.0167 0.10695 0.03451 0.15968 0.05374 0.05273 0.01924 0.10511 0.0398 0.15658 0.0615 0.05147 0.0217 0.1023 0.04464 0.15245 0.06873 0.05014 0.02409 0.09957 0.04955 0.14831 0.07596 0.04874 0.02641 0.0969 0.05402 0.14418 0.08268 0.04727 0.02867 0.09379 0.05856 0.13953 0.0894 0.04573 0.03084 0.09076 0.06265 0.13488 0.0956 0.04412 0.03296 0.08727 0.06681 0.12971 0.1018 0.04244 0.03499 0.08386 0.07104 0.12454 0.108 0.04068 0.03696 0.08052 0.07483 0.11937 0.11369 0.03886 0.03886 0.07673 0.07869 0.11369 0.11937 0.03696 0.04068 0.07301 0.0821 0.108 0.12454 0.03499 0.04244 0.06885 0.08559 0.1018 0.12971 0.03295 0.04412 0.06476 0.08914 0.0956 0.13488 0.03084 0.04573 0.06074 0.09225 0.0894 0.13953 0.02867 0.04727 0.05627 0.09543 0.08268 0.14418 0.02641 0.04875 0.05187 0.09817 0.07596 0.14831 0.02409 0.05014 0.04703 0.10097 0.06873 0.15244 0.0217 0.05147 0.04226 0.10385 0.0615 0.15658 0.01923 0.05273 0.03704 0.10576 0.05374 0.15968 0.0167 0.05392 0.0319 0.10878 0.04599 0.16381 0.01409 0.05503 0.02682 0.11032 0.03824 0.1664 0.0057 0.02804 0.01151 0.05646 0.01654 0.08475 5e-3 0.02829 0.0096 0.05622 0.01395 0.08475 0.0043 0.02853 0.0083 0.05754 0.01189 0.0863 0.0036 0.02876 0.0069 0.05732 0.0098 0.0863s0.0055 0.05814 0.0077 0.08733 0.0042 0.05846 0.0057 0.08785 0.0024 0.05878 0.0031 0.08837c7.45e-4 0.02959 1e-3 0.05963 1e-3 0.0894v7.6729c0 0.02977-2.89e-4 0.05981-1e-3 0.0894-7.44e-4 0.02959-0.0016 0.05897-0.0031 0.08837-0.0015 0.02939-0.0035 0.05866-0.0057 0.08785s-0.0048 0.05836-0.0077 0.08733c-0.0029 0.02898-0.0062 0.05754-0.0098 0.0863s-0.0076 0.05777-0.01189 0.0863c-0.0043 0.02853-0.0089 0.05646-0.01395 0.08475-5e-3 0.02829-0.01083 0.05671-0.01654 0.08475-0.01142 0.05608-0.02415 0.11137-0.03824 0.1664-0.01409 0.05503-0.02929 0.1099-0.04599 0.16381-0.0167 0.05392-0.03451 0.10695-0.05374 0.15968-0.01924 0.05273-0.0398 0.10511-0.0615 0.15658-0.0217 0.05147-0.04464 0.1023-0.06873 0.15244-0.02409 0.05014-0.04955 0.09957-0.07596 0.14831-0.02641 0.04874-0.05402 0.0969-0.08268 0.14418-0.02867 0.04727-0.05856 0.09379-0.0894 0.13953-0.03084 0.04573-0.06265 0.09076-0.0956 0.13488-0.03296 0.04412-0.06681 0.08727-0.1018 0.12971-0.03499 0.04244-0.07104 0.08386-0.108 0.12454-0.03696 0.04068-0.07483 0.08052-0.11369 0.11937-0.03886 0.03886-0.07869 0.07673-0.11937 0.11369-0.04068 0.03696-0.0821 0.07301-0.12454 0.108-0.04244 0.03499-0.08559 0.06885-0.12971 0.1018-0.04412 0.03295-0.08914 0.06476-0.13488 0.0956-0.04573 0.03085-0.09225 0.06074-0.13953 0.0894-0.04727 0.02867-0.09543 0.05627-0.14418 0.08268-0.04874 0.02641-0.09817 0.05187-0.14831 0.07596-0.05014 0.02409-0.10097 0.04703-0.15245 0.06873-0.05147 0.0217-0.10385 0.04226-0.15658 0.0615-0.05273 0.01923-0.10576 0.03704-0.15968 0.05374-0.05392 0.0167-0.10878 0.0319-0.16382 0.04599-0.05503 0.01409-0.11032 0.02682-0.1664 0.03824-0.02804 0.0057-0.05646 0.01151-0.08475 0.01654-0.02829 5e-3 -0.05622 0.0096-0.08475 0.01395-0.02853 0.0043-0.05754 0.0083-0.0863 0.01188-0.02876 0.0036-0.05732 0.0069-0.0863 0.0098s-0.05814 0.0055-0.08733 0.0078c-0.02919 0.0022-0.05846 0.0042-0.08785 0.0057-0.01478 7.44e-4 -0.02961 9.91e-4 -0.04444 0.0015h-3.9698z" fill-rule="evenodd" opacity=".15" stroke-linecap="round" stroke-linejoin="round" stroke-width=".23058" style="paint-order:stroke fill markers"/>
 <path transform="scale(.26458)" d="m17.5 4.5c-7.202 0-13 5.798-13 13h55c0-7.202-5.798-13-13-13h-29z" fill="url(#linearGradient9463)" fill-rule="evenodd" stroke-linecap="round" stroke-linejoin="round" stroke-width="1.983" style="paint-order:stroke fill markers"/>
</svg>
