<?xml version="1.0" encoding="UTF-8"?>
<svg width="64" height="64" version="1.1" xmlns="http://www.w3.org/2000/svg" xmlns:cc="http://creativecommons.org/ns#" xmlns:dc="http://purl.org/dc/elements/1.1/" xmlns:rdf="http://www.w3.org/1999/02/22-rdf-syntax-ns#">
 <metadata>
  <rdf:RDF>
   <cc:Work rdf:about="">
    <dc:format>image/svg+xml</dc:format>
    <dc:type rdf:resource="http://purl.org/dc/dcmitype/StillImage"/>
   </cc:Work>
  </rdf:RDF>
 </metadata>
 <defs>
  <linearGradient id="linearGradient1115" x1="-52.431" x2="-21.018" y1="27.334" y2="27.334" gradientTransform="translate(63.693)" gradientUnits="userSpaceOnUse">
   <stop stop-color="#f5faff" offset="0"/>
   <stop stop-color="#dbe1e6" offset="1"/>
  </linearGradient>
 </defs>
 <rect x="4.5" y="4.5" width="55" height="55" ry="13" fill="url(#linearGradient1115)" image-rendering="optimizeSpeed" stroke-width=".47291"/>
 <g transform="matrix(.87172 0 0 .87172 -78.992 4.2974)" fill="#0a0f14">
  <path d="m104.64 27c-3 0-3 3-3 3v7s0 3 3 3h2c3 0 3-3 3-3v-2s0-3-3-3h-2v-2h5v-3zm0 8h2v2h-2z"/>
  <rect x="112.64" y="27" width="3" height="13"/>
  <path d="m120.64 27c-2 0-2 2.2-2 2.2v2.8l2 1.5-2 1.5v3s0 2 2 2h4c2 0 2-2.4 2-2.4v-2.6l-2-1.5 2-1.5v-2.8s0-2.2-2-2.2zm1 3h2v2h-2zm0 5h2v2h-2z"/>
  <path d="m131.64 27c-1 0-2 1-2 2v9c0 1.3573 0.6427 2 2 2h4c1.3573 0 2-0.6427 2-2v-9c0-1-1-2-2-2zm1 3h2v7h-2z"/>
 </g>
 <path d="m36.719 4.5a51.254 51.254 0 0 1 0.070312 0.11133 51.254 51.254 0 0 1 0.31836 0.50977 51.254 51.254 0 0 1 0.3125 0.51367 51.254 51.254 0 0 1 0.30664 0.51953 51.254 51.254 0 0 1 0.30078 0.52148 51.254 51.254 0 0 1 0.29492 0.52539 51.254 51.254 0 0 1 0.28711 0.52734 51.254 51.254 0 0 1 0.2832 0.53125 51.254 51.254 0 0 1 0.27539 0.53516 51.254 51.254 0 0 1 0.26953 0.53906 51.254 51.254 0 0 1 0.26367 0.54102 51.254 51.254 0 0 1 0.25586 0.54492 51.254 51.254 0 0 1 0.25 0.54883 51.254 51.254 0 0 1 0.24414 0.54883 51.254 51.254 0 0 1 0.23828 0.55469 51.254 51.254 0 0 1 0.23047 0.55469 51.254 51.254 0 0 1 0.22461 0.55859 51.254 51.254 0 0 1 0.2168 0.5625 51.254 51.254 0 0 1 0.21094 0.5625 51.254 51.254 0 0 1 0.20508 0.56641 51.254 51.254 0 0 1 0.19726 0.56836 51.254 51.254 0 0 1 0.19141 0.57227 51.254 51.254 0 0 1 0.18359 0.57227 51.254 51.254 0 0 1 0.17774 0.57617 51.254 51.254 0 0 1 0.17188 0.57617 51.254 51.254 0 0 1 0.16406 0.58008 51.254 51.254 0 0 1 0.15625 0.58008 51.254 51.254 0 0 1 0.15039 0.58398 51.254 51.254 0 0 1 0.14453 0.58398 51.254 51.254 0 0 1 0.13672 0.58594 51.254 51.254 0 0 1 0.12891 0.58789 51.254 51.254 0 0 1 0.12305 0.58984 51.254 51.254 0 0 1 0.11719 0.58984 51.254 51.254 0 0 1 0.10938 0.5918 51.254 51.254 0 0 1 0.10156 0.59375 51.254 51.254 0 0 1 0.09375 0.5957 51.254 51.254 0 0 1 0.089844 0.59375 51.254 51.254 0 0 1 0.080078 0.59766 51.254 51.254 0 0 1 0.074219 0.59766 51.254 51.254 0 0 1 0.066406 0.59766 51.254 51.254 0 0 1 0.060547 0.59961 51.254 51.254 0 0 1 0.052734 0.59961 51.254 51.254 0 0 1 0.046875 0.59961 51.254 51.254 0 0 1 0.039063 0.60156 51.254 51.254 0 0 1 0.03125 0.60156 51.254 51.254 0 0 1 0.02539 0.59961 51.254 51.254 0 0 1 0.017578 0.60352 51.254 51.254 0 0 1 0.009766 0.60156 51.254 51.254 0 0 1 0.003906 0.60156 51.254 51.254 0 0 1 0 0.001953 51.254 51.254 0 0 1 0 0.001953 51.254 51.254 0 0 1 0 0.001953 51.254 51.254 0 0 1 0 0.001953 51.254 51.254 0 0 1 0 0.001954 51.254 51.254 0 0 1 0 0.001953 51.254 51.254 0 0 1 0 0.001953 51.254 51.254 0 0 1 0 0.001953 51.254 51.254 0 0 1 0 0.001953 51.254 51.254 0 0 1 0 0.001953 51.254 51.254 0 0 1 0 0.001953 51.254 51.254 0 0 1 0 0.001954 51.254 51.254 0 0 1 0 0.001953 51.254 51.254 0 0 1 0 0.001953 51.254 51.254 0 0 1 0 0.001953 51.254 51.254 0 0 1 0 0.001953 51.254 51.254 0 0 1 0 0.001953 51.254 51.254 0 0 1 0 0.001953 51.254 51.254 0 0 1 0 0.001953 51.254 51.254 0 0 1 0 0.001953 51.254 51.254 0 0 1 0 0.001954 51.254 51.254 0 0 1 0 0.001953 51.254 51.254 0 0 1 0 0.001953 51.254 51.254 0 0 1 0 0.001953 51.254 51.254 0 0 1 0 0.001953 51.254 51.254 0 0 1 0 0.001953 51.254 51.254 0 0 1 0 0.001953 51.254 51.254 0 0 1 0 0.001954 51.254 51.254 0 0 1 0 0.001953 51.254 51.254 0 0 1 0 0.001953 51.254 51.254 0 0 1 0 0.001953 51.254 51.254 0 0 1 0 0.001953 51.254 51.254 0 0 1 0 0.001953 51.254 51.254 0 0 1 0 0.001953 51.254 51.254 0 0 1 0 0.001953 51.254 51.254 0 0 1 0 0.001953 51.254 51.254 0 0 1 0 0.001954 51.254 51.254 0 0 1 0 0.001953 51.254 51.254 0 0 1 0 0.001953 51.254 51.254 0 0 1 0 0.001953 51.254 51.254 0 0 1 0 0.001953 51.254 51.254 0 0 1 0 0.001953 51.254 51.254 0 0 1 0 0.001953 51.254 51.254 0 0 1 0 0.001954 51.254 51.254 0 0 1 0 0.001953 51.254 51.254 0 0 1 0 0.001953 51.254 51.254 0 0 1 0 0.001953 51.254 51.254 0 0 1 0 0.001953 51.254 51.254 0 0 1 0 0.001953 51.254 51.254 0 0 1 0 0.001953 51.254 51.254 0 0 1 0 0.001953 51.254 51.254 0 0 1 0 0.001953 51.254 51.254 0 0 1 0 0.001954 51.254 51.254 0 0 1 0 0.001953 51.254 51.254 0 0 1 0 0.001953 51.254 51.254 0 0 1 0 0.001953 51.254 51.254 0 0 1 0 0.001953 51.254 51.254 0 0 1 0 0.001953 51.254 51.254 0 0 1 0 0.001953 51.254 51.254 0 0 1 0 0.001954 51.254 51.254 0 0 1 0 0.001953 51.254 51.254 0 0 1 0 0.001953 51.254 51.254 0 0 1 0 0.001953 51.254 51.254 0 0 1 0 0.001953 51.254 51.254 0 0 1 0 0.001953 51.254 51.254 0 0 1 0 0.001953 51.254 51.254 0 0 1 0 0.001953 51.254 51.254 0 0 1 0 0.001953 51.254 51.254 0 0 1 0 0.001954 51.254 51.254 0 0 1 0 0.001953 51.254 51.254 0 0 1 0 0.001953 51.254 51.254 0 0 1 0 0.001953 51.254 51.254 0 0 1 0 0.001953 51.254 51.254 0 0 1 0 0.001953 51.254 51.254 0 0 1 0 0.001953 51.254 51.254 0 0 1 0 0.001954 51.254 51.254 0 0 1 0 0.001953 51.254 51.254 0 0 1 0 0.001953 51.254 51.254 0 0 1 0 0.001953 51.254 51.254 0 0 1 0 0.001953 51.254 51.254 0 0 1 0 0.001953 51.254 51.254 0 0 1 0 0.001953 51.254 51.254 0 0 1 0 0.001953 51.254 51.254 0 0 1 0 0.001953 51.254 51.254 0 0 1 0 0.001954 51.254 51.254 0 0 1 0 0.001953 51.254 51.254 0 0 1 0 0.001953 51.254 51.254 0 0 1 0 0.001953 51.254 51.254 0 0 1 0 0.001953 51.254 51.254 0 0 1 0 0.001953 51.254 51.254 0 0 1 0 0.001953 51.254 51.254 0 0 1 0 0.001954 51.254 51.254 0 0 1 0 0.001953 51.254 51.254 0 0 1 0 0.001953 51.254 51.254 0 0 1 0 0.001953 51.254 51.254 0 0 1 0 0.001953 51.254 51.254 0 0 1 0 0.001953 51.254 51.254 0 0 1 0 0.001953 51.254 51.254 0 0 1 0 0.001953 51.254 51.254 0 0 1 0 0.001953 51.254 51.254 0 0 1 0 0.001954 51.254 51.254 0 0 1 0 0.001953 51.254 51.254 0 0 1 0 0.001953 51.254 51.254 0 0 1 0 0.001953 51.254 51.254 0 0 1 0 0.001953 51.254 51.254 0 0 1 0 0.001953 51.254 51.254 0 0 1 0 0.001953 51.254 51.254 0 0 1 0 0.001954 51.254 51.254 0 0 1 0 0.001953 51.254 51.254 0 0 1 0 0.001953 51.254 51.254 0 0 1 0 0.001953 51.254 51.254 0 0 1 0 0.001953 51.254 51.254 0 0 1 0 0.001953 51.254 51.254 0 0 1 0 0.001953 51.254 51.254 0 0 1 0 0.001953 51.254 51.254 0 0 1 0 0.001953 51.254 51.254 0 0 1 0 0.001954 51.254 51.254 0 0 1 0 0.001953 51.254 51.254 0 0 1 0 0.001953 51.254 51.254 0 0 1 0 0.001953 51.254 51.254 0 0 1 0 0.001953 51.254 51.254 0 0 1 0 0.001953 51.254 51.254 0 0 1 0 0.001953 51.254 51.254 0 0 1 0 0.001954 51.254 51.254 0 0 1 0 0.001953 51.254 51.254 0 0 1 0 0.001953 51.254 51.254 0 0 1 0 0.001953 51.254 51.254 0 0 1 0 0.001953 51.254 51.254 0 0 1 0 0.001953 51.254 51.254 0 0 1 0 0.001953 51.254 51.254 0 0 1 0 0.001953 51.254 51.254 0 0 1 0 0.001953 51.254 51.254 0 0 1 0 0.001954 51.254 51.254 0 0 1 0 0.001953 51.254 51.254 0 0 1-0.001953 0.007812 51.254 51.254 0 0 1 0 0.001953 51.254 51.254 0 0 1 0 0.001954 51.254 51.254 0 0 1 0 0.001953 51.254 51.254 0 0 1 0 0.001953 51.254 51.254 0 0 1 0 0.001953 51.254 51.254 0 0 1 0 0.001953 51.254 51.254 0 0 1 0 0.001953 51.254 51.254 0 0 1 0 0.001953 51.254 51.254 0 0 1 0 0.001953 51.254 51.254 0 0 1 0 0.001953 51.254 51.254 0 0 1 0 0.001954 51.254 51.254 0 0 1 0 0.001953 51.254 51.254 0 0 1 0 0.001953 51.254 51.254 0 0 1 0 0.001953 51.254 51.254 0 0 1 0 0.001953 51.254 51.254 0 0 1 0 0.001953 51.254 51.254 0 0 1 0 0.001953 51.254 51.254 0 0 1 0 0.001954 51.254 51.254 0 0 1 0 0.001953 51.254 51.254 0 0 1 0 0.001953 51.254 51.254 0 0 1 0 0.001953 51.254 51.254 0 0 1 0 0.001953 51.254 51.254 0 0 1 0 0.001953 51.254 51.254 0 0 1 0 0.001953 51.254 51.254 0 0 1 0 0.001953 51.254 51.254 0 0 1 0 0.001953 51.254 51.254 0 0 1 0 0.001954 51.254 51.254 0 0 1 0 0.001953 51.254 51.254 0 0 1 0 0.001953 51.254 51.254 0 0 1 0 0.001953 51.254 51.254 0 0 1 0 0.001953 51.254 51.254 0 0 1 0 0.001953 51.254 51.254 0 0 1 0 0.001953 51.254 51.254 0 0 1 0 0.001954 51.254 51.254 0 0 1 0 0.001953 51.254 51.254 0 0 1 0 0.001953 51.254 51.254 0 0 1 0 0.001953 51.254 51.254 0 0 1 0 0.001953 51.254 51.254 0 0 1 0 0.001953 51.254 51.254 0 0 1 0 0.001953 51.254 51.254 0 0 1 0 0.001953 51.254 51.254 0 0 1 0 0.001953 51.254 51.254 0 0 1 0 0.001954 51.254 51.254 0 0 1 0 0.001953 51.254 51.254 0 0 1 0 0.001953 51.254 51.254 0 0 1 0 0.001953 51.254 51.254 0 0 1 0 0.001953 51.254 51.254 0 0 1 0 0.001953 51.254 51.254 0 0 1 0 0.001953 51.254 51.254 0 0 1 0 0.001954 51.254 51.254 0 0 1 0 0.001953 51.254 51.254 0 0 1 0 0.001953 51.254 51.254 0 0 1 0 0.001953 51.254 51.254 0 0 1 0 0.001953 51.254 51.254 0 0 1 0 0.001953 51.254 51.254 0 0 1 0 0.001953 51.254 51.254 0 0 1 0 0.001953 51.254 51.254 0 0 1 0 0.001953 51.254 51.254 0 0 1 0 0.001954 51.254 51.254 0 0 1 0 0.001953 51.254 51.254 0 0 1 0 0.001953 51.254 51.254 0 0 1 0 0.001953 51.254 51.254 0 0 1 0 0.001953 51.254 51.254 0 0 1 0 0.001953 51.254 51.254 0 0 1 0 0.001953 51.254 51.254 0 0 1 0 0.001954 51.254 51.254 0 0 1 0 0.001953 51.254 51.254 0 0 1 0 0.001953 51.254 51.254 0 0 1 0 0.001953 51.254 51.254 0 0 1 0 0.001953 51.254 51.254 0 0 1 0 0.001953 51.254 51.254 0 0 1 0 0.001953 51.254 51.254 0 0 1 0 0.001953 51.254 51.254 0 0 1 0 0.001953 51.254 51.254 0 0 1 0 0.001954 51.254 51.254 0 0 1 0 0.001953 51.254 51.254 0 0 1 0 0.001953 51.254 51.254 0 0 1 0 0.001953 51.254 51.254 0 0 1 0 0.001953 51.254 51.254 0 0 1 0 0.001953 51.254 51.254 0 0 1 0 0.001953 51.254 51.254 0 0 1 0 0.001954 51.254 51.254 0 0 1 0 0.001953 51.254 51.254 0 0 1 0 0.001953 51.254 51.254 0 0 1 0 0.001953 51.254 51.254 0 0 1 0 0.001953 51.254 51.254 0 0 1 0 0.001953 51.254 51.254 0 0 1 0 0.001953 51.254 51.254 0 0 1 0 0.001953 51.254 51.254 0 0 1 0 0.001953 51.254 51.254 0 0 1 0 0.001954 51.254 51.254 0 0 1 0 0.001953 51.254 51.254 0 0 1 0 0.001953 51.254 51.254 0 0 1 0 0.001953 51.254 51.254 0 0 1 0 0.001953 51.254 51.254 0 0 1 0 0.001953 51.254 51.254 0 0 1 0 0.001953 51.254 51.254 0 0 1 0 0.001954 51.254 51.254 0 0 1 0 0.001953 51.254 51.254 0 0 1 0 0.001953 51.254 51.254 0 0 1 0 0.001953 51.254 51.254 0 0 1-0.009765 0.60156 51.254 51.254 0 0 1-0.015626 0.60352 51.254 51.254 0 0 1-0.023437 0.60156 51.254 51.254 0 0 1-0.029297 0.59961 51.254 51.254 0 0 1-0.037109 0.60156 51.254 51.254 0 0 1-0.044922 0.59961 51.254 51.254 0 0 1-0.052735 0.59961 51.254 51.254 0 0 1-0.05664 0.59961 51.254 51.254 0 0 1-0.066406 0.59961 51.254 51.254 0 0 1-0.072266 0.59766 51.254 51.254 0 0 1-0.080078 0.5957 51.254 51.254 0 0 1-0.085938 0.5957 51.254 51.254 0 0 1-0.09375 0.5957 51.254 51.254 0 0 1-0.10156 0.59375 51.254 51.254 0 0 1-0.10742 0.5918 51.254 51.254 0 0 1-0.11328 0.58984 51.254 51.254 0 0 1-0.12109 0.58984 51.254 51.254 0 0 1-0.12891 0.58984 51.254 51.254 0 0 1-0.13477 0.58594 51.254 51.254 0 0 1-0.14258 0.58398 51.254 51.254 0 0 1-0.14844 0.58398 51.254 51.254 0 0 1-0.15625 0.58203 51.254 51.254 0 0 1-0.16211 0.58008 51.254 51.254 0 0 1-0.16992 0.57617 51.254 51.254 0 0 1-0.17578 0.57617 51.254 51.254 0 0 1-0.18359 0.57422 51.254 51.254 0 0 1-0.18945 0.57031 51.254 51.254 0 0 1-0.19531 0.57031 51.254 51.254 0 0 1-0.20312 0.56641 51.254 51.254 0 0 1-0.21094 0.56445 51.254 51.254 0 0 1-0.21484 0.56055 51.254 51.254 0 0 1-0.22266 0.56055 51.254 51.254 0 0 1-0.23047 0.55664 51.254 51.254 0 0 1-0.23633 0.55273 51.254 51.254 0 0 1-0.24219 0.55078 51.254 51.254 0 0 1-0.24805 0.54883 51.254 51.254 0 0 1-0.25586 0.54492 51.254 51.254 0 0 1-0.26172 0.54297 51.254 51.254 0 0 1-0.26758 0.53906 51.254 51.254 0 0 1-0.27539 0.53516 51.254 51.254 0 0 1-0.2793 0.5332 51.254 51.254 0 0 1-0.28711 0.5293 51.254 51.254 0 0 1-0.29297 0.52539 51.254 51.254 0 0 1-0.29883 0.52344 51.254 51.254 0 0 1-0.30664 0.51758 51.254 51.254 0 0 1-0.31055 0.51562 51.254 51.254 0 0 1-0.31836 0.51172 51.254 51.254 0 0 1-0.14258 0.22461h9.7832c7.202 0 13-5.798 13-13v-29c0-7.202-5.798-13-13-13h-9.7812zm22.07 23.867a30 30 0 0 1 0.009766 0.082031 30 30 0 0 0-0.009766-0.082031zm0.1543 1.6484a30 30 0 0 1 0.00586 0.082031 30 30 0 0 0-0.00586-0.082031zm0.064453 1.6602a30 30 0 0 1 0.001954 0.1582 30 30 0 0 0-0.001954-0.1582z" fill="#0a0f14"/>
</svg>
