<?xml version="1.0" encoding="UTF-8"?>
<svg width="64" height="64" version="1.1" xmlns="http://www.w3.org/2000/svg" xmlns:cc="http://creativecommons.org/ns#" xmlns:dc="http://purl.org/dc/elements/1.1/" xmlns:rdf="http://www.w3.org/1999/02/22-rdf-syntax-ns#">
 <metadata>
  <rdf:RDF>
   <cc:Work rdf:about="">
    <dc:format>image/svg+xml</dc:format>
    <dc:type rdf:resource="http://purl.org/dc/dcmitype/StillImage"/>
   </cc:Work>
  </rdf:RDF>
 </metadata>
 <defs>
  <style type="text/css"/>
  <linearGradient id="linearGradient1115" x1="-29.448" x2="-29.448" y1="4.6371" y2="59.494" gradientTransform="translate(63.693)" gradientUnits="userSpaceOnUse">
   <stop stop-color="#646464" offset="0"/>
   <stop stop-color="#464646" offset="1"/>
  </linearGradient>
 </defs>
 <g fill="#5e4aa6">
  <circle cx="-1121.7" cy="-1340.1" r="0"/>
  <circle cx="-22.232" cy="-74.58" r="0" fill-rule="evenodd"/>
  <circle cx="-1062.4" cy="-1276" r="0"/>
 </g>
 <rect x="4.5" y="4.5" width="55" height="55" ry="13" fill="url(#linearGradient1115)" image-rendering="optimizeSpeed" stroke-width=".47291"/>
 <path d="m10.5 17.498v28h4v4h-4v4h-3.9551c2.2983 3.6 6.3138 5.9864 10.916 6h29.078c4.1612-0.012281 7.8413-1.9658 10.209-5h-3.248v-5h-4v-4h4v-28h-43z" fill="#3f3f3f"/>
 <path d="m14.5 21.497v24h35v-24zm5 6h8v4h-8zm17 0h8v4h-8zm-22 22v5h3v5h27v-6h5v-4z" fill="#fff"/>
 <path d="m10.5 17.498v1h43v-1h-43zm0 32v1h4v-1h-4zm39 0v1h4v-1h-4zm-42.955 4c0.22026 0.345 0.45607 0.6784 0.70703 1h3.248v-1h-3.9551zm46.955 1v1h2.3867c0.3046-0.31777 0.59012-0.65245 0.86133-1h-3.248z" fill="#fff" opacity=".1"/>
</svg>
