<?xml version="1.0" encoding="UTF-8" standalone="no"?>
<svg
   xmlns:dc="http://purl.org/dc/elements/1.1/"
   xmlns:cc="http://creativecommons.org/ns#"
   xmlns:rdf="http://www.w3.org/1999/02/22-rdf-syntax-ns#"
   xmlns:svg="http://www.w3.org/2000/svg"
   xmlns="http://www.w3.org/2000/svg"
   xmlns:xlink="http://www.w3.org/1999/xlink"
   xmlns:sodipodi="http://sodipodi.sourceforge.net/DTD/sodipodi-0.dtd"
   xmlns:inkscape="http://www.inkscape.org/namespaces/inkscape"
   width="64"
   height="64"
   version="1.1"
   viewBox="0 0 16.933 16.933"
   id="svg30"
   sodipodi:docname="abiword.svg"
   inkscape:version="1.0.1 (3bc2e813f5, 2020-09-07)">
  <sodipodi:namedview
     pagecolor="#ffffff"
     bordercolor="#666666"
     borderopacity="1"
     objecttolerance="10"
     gridtolerance="10"
     guidetolerance="10"
     inkscape:pageopacity="0"
     inkscape:pageshadow="2"
     inkscape:window-width="1920"
     inkscape:window-height="932"
     id="namedview32"
     showgrid="false"
     inkscape:zoom="5.9765625"
     inkscape:cx="56.096571"
     inkscape:cy="14.781566"
     inkscape:window-x="0"
     inkscape:window-y="36"
     inkscape:window-maximized="1"
     inkscape:current-layer="svg30" />
  <metadata
     id="metadata2">
    <rdf:RDF>
      <cc:Work
         rdf:about="">
        <dc:format>image/svg+xml</dc:format>
        <dc:type
           rdf:resource="http://purl.org/dc/dcmitype/StillImage" />
        <dc:title></dc:title>
      </cc:Work>
    </rdf:RDF>
  </metadata>
  <defs
     id="defs12">
    <filter
       id="filter917"
       x="-.083994"
       y="-.084006"
       width="1.168"
       height="1.168"
       color-interpolation-filters="sRGB">
      <feGaussianBlur
         stdDeviation="0.22223482"
         id="feGaussianBlur4" />
    </filter>
    <linearGradient
       id="linearGradient1005"
       x1=".73911"
       x2="16.388"
       y1="16.296"
       y2=".64687"
       gradientTransform="matrix(0.99997,0,0,0.99997,22.622572,-8.0932473)"
       gradientUnits="userSpaceOnUse">
      <stop
         stop-color="#00a0ff"
         offset="0"
         id="stop7" />
      <stop
         stop-color="#37beff"
         offset="1"
         id="stop9" />
    </linearGradient>
    <linearGradient
       inkscape:collect="always"
       xlink:href="#linearGradient2114"
       id="linearGradient2116"
       x1="59.5"
       y1="4.5"
       x2="4.5"
       y2="59.5"
       gradientUnits="userSpaceOnUse"
       gradientTransform="scale(0.26457812)" />
    <linearGradient
       inkscape:collect="always"
       id="linearGradient2114">
      <stop
         style="stop-color:#37beff;stop-opacity:1"
         offset="0"
         id="stop2110" />
      <stop
         style="stop-color:#00a0ff;stop-opacity:1"
         offset="1"
         id="stop2112" />
    </linearGradient>
  </defs>
  <rect
     style="opacity:1;fill:url(#linearGradient2116);fill-opacity:1;stroke-width:0.561961"
     id="rect2106"
     width="14.551797"
     height="14.551797"
     x="1.1906016"
     y="1.1906016"
     ry="3.4395156" />
  <path
     transform="matrix(1.1772 0 0 1.1772 -1.5003 -1.5002)"
     d="m5.2915 11.239c-4e-3 -1.524 2.2-5.925 3.226-5.947 0.513-0.013 1.282 0.962 1.928 2.222 0.647 1.259 1.17 2.804 1.196 3.932 0 0-2.483-4.849-3.102-4.863-0.63-0.017-2.342 3.416-2.138 3.798 0.2 0.373 3.888-0.83 3.888-0.83-0.08 0.123-2.487 1.715-4.293 2.09-0.273-0.012-0.682 0-0.705-0.402"
     fill="#157ce0"
     fill-rule="evenodd"
     filter="url(#filter917)"
     id="path16" />
  <path
     d="m4.7289 11.73c-0.00471-1.7941 2.5898-6.9749 3.7977-7.0008 0.6039-0.015304 1.5092 1.1325 2.2696 2.6157 0.76165 1.4821 1.3773 3.3009 1.4079 4.6288 0 0-2.923-5.7083-3.6517-5.7247-0.74164-0.020012-2.757 4.0213-2.5169 4.471 0.23544 0.4391 4.577-0.97708 4.577-0.97708-0.09418 0.1448-2.9277 2.0189-5.0537 2.4604-0.32138-0.01413-0.80285 0-0.82993-0.47324"
     fill="#fff"
     fill-rule="evenodd"
     stroke-width="1.1772"
     id="path18" />
  <g
     transform="translate(-41.067 -6.4906)"
     fill="#5e4aa6"
     stroke-width=".26458"
     id="g28">
    <circle
       cx="-330.35"
       cy="-328.38"
       r="0"
       id="circle20" />
    <circle
       cx="-312.11"
       cy="-326.25"
       r="0"
       id="circle22" />
    <circle
       cx="-306.02"
       cy="-333.07"
       r="0"
       id="circle24" />
    <circle
       cx="-308.84"
       cy="-326.01"
       r="0"
       id="circle26" />
  </g>
</svg>
