<?xml version="1.0" encoding="UTF-8" standalone="no"?>
<svg
   xmlns:dc="http://purl.org/dc/elements/1.1/"
   xmlns:cc="http://creativecommons.org/ns#"
   xmlns:rdf="http://www.w3.org/1999/02/22-rdf-syntax-ns#"
   xmlns:svg="http://www.w3.org/2000/svg"
   xmlns="http://www.w3.org/2000/svg"
   xmlns:sodipodi="http://sodipodi.sourceforge.net/DTD/sodipodi-0.dtd"
   xmlns:inkscape="http://www.inkscape.org/namespaces/inkscape"
   width="64"
   height="64"
   version="1.1"
   id="svg19"
   sodipodi:docname="accessories-character-map.svg"
   inkscape:version="1.0.1 (3bc2e813f5, 2020-09-07)">
  <sodipodi:namedview
     pagecolor="#ffffff"
     bordercolor="#666666"
     borderopacity="1"
     objecttolerance="10"
     gridtolerance="10"
     guidetolerance="10"
     inkscape:pageopacity="0"
     inkscape:pageshadow="2"
     inkscape:window-width="1920"
     inkscape:window-height="932"
     id="namedview21"
     showgrid="false"
     inkscape:zoom="5.9765625"
     inkscape:cx="14.037534"
     inkscape:cy="32.957682"
     inkscape:window-x="0"
     inkscape:window-y="36"
     inkscape:window-maximized="1"
     inkscape:current-layer="svg19" />
  <metadata
     id="metadata2">
    <rdf:RDF>
      <cc:Work
         rdf:about="">
        <dc:format>image/svg+xml</dc:format>
        <dc:type
           rdf:resource="http://purl.org/dc/dcmitype/StillImage" />
        <dc:title></dc:title>
      </cc:Work>
    </rdf:RDF>
  </metadata>
  <defs
     id="defs9">
    <linearGradient
       id="b"
       x1="97.425"
       x2="97.425"
       y1="-9.0071"
       y2="209.87"
       gradientTransform="matrix(0.3,0,0,0.3,5.690002,-9.3384509)"
       gradientUnits="userSpaceOnUse">
      <stop
         stop-color="#5beaff"
         offset="0"
         id="stop4" />
      <stop
         stop-color="#4076ff"
         offset="1"
         id="stop6" />
    </linearGradient>
    <linearGradient
       id="linearGradient1448"
       x1="3.9687"
       x2="3.9687"
       y1="16.209"
       y2=".54085"
       gradientTransform="matrix(3.4646,0,0,3.4646,2.6661017,2.6661002)"
       gradientUnits="userSpaceOnUse">
      <stop
         stop-color="#1864ee"
         offset="0"
         id="stop848" />
      <stop
         stop-color="#15c4fc"
         offset="1"
         id="stop850" />
    </linearGradient>
    <linearGradient
       id="linearGradient876"
       x1="29.565"
       x2="29.728"
       y1="11.048"
       y2="53.559"
       gradientTransform="translate(-75.16894,-9.9138252)"
       gradientUnits="userSpaceOnUse">
      <stop
         stop-color="#fff"
         offset="0"
         id="stop853" />
      <stop
         stop-color="#dbf6f8"
         offset="1"
         id="stop855" />
    </linearGradient>
  </defs>
  <rect
     x="4.4995003"
     y="4.4995003"
     width="55.000999"
     height="55.000999"
     ry="13"
     fill="url(#linearGradient1448)"
     stroke-opacity="0.95294"
     stroke-width="0.31428"
     id="rect860"
     style="fill:url(#linearGradient1448);image-rendering:optimizeSpeed" />
  <g
     transform="matrix(.15595 0 0 .15595 15.937 15.938)"
     fill="#fff"
     stroke-width="15.938"
     id="g17">
    <path
       d="m103 61.363c22.958 0 41.635 18.678 41.635 41.635 0 3.313 2.687 6 6 6s6-2.687 6-6c0-29.574-24.061-53.635-53.635-53.635s-53.636 24.061-53.636 53.635 24.061 53.635 53.635 53.635c18.99 0 36.745-10.195 46.336-26.607 1.672-2.861 0.708-6.535-2.153-8.208-2.86-1.67-6.535-0.707-8.208 2.153-7.448 12.745-21.233 20.662-35.976 20.662-22.958 0-41.635-18.678-41.635-41.635s18.679-41.635 41.637-41.635z"
       id="path13" />
    <path
       d="m205.7 95.053c-3.76-50.059-44.326-90.782-94.359-94.727-30.244-2.385-59.829 8.491-81.176 29.839-21.348 21.348-32.224 50.935-29.839 81.176 3.931 49.847 44.483 90.399 94.329 94.329 2.747 0.217 5.484 0.323 8.214 0.323 27.329 0 53.553-10.753 72.962-30.161 2.343-2.344 2.343-6.143 0-8.485s-6.142-2.344-8.485-1e-3c-18.862 18.861-45.012 28.47-71.747 26.361-44.023-3.471-79.838-39.286-83.31-83.31-2.108-26.735 7.5-52.887 26.361-71.747 18.861-18.861 45.008-28.473 71.747-26.361 44.189 3.483 80.016 39.451 83.337 83.662 0.455 6.057 0.321 12.142-0.397 18.086-0.762 6.304-4.578 11.805-10.208 14.713-5.095 2.633-10.819 2.623-15.706-0.026-2.913-1.582-6.556-0.499-8.134 2.415-1.58 2.913-0.499 6.555 2.415 8.134 8.435 4.573 18.251 4.623 26.933 0.139 9.164-4.734 15.375-13.682 16.613-23.935 0.812-6.719 0.963-13.59 0.45-20.424z"
       id="path15" />
  </g>
</svg>
