<?xml version="1.0" encoding="UTF-8" standalone="no"?>
<svg
   xmlns:dc="http://purl.org/dc/elements/1.1/"
   xmlns:cc="http://creativecommons.org/ns#"
   xmlns:rdf="http://www.w3.org/1999/02/22-rdf-syntax-ns#"
   xmlns:svg="http://www.w3.org/2000/svg"
   xmlns="http://www.w3.org/2000/svg"
   xmlns:xlink="http://www.w3.org/1999/xlink"
   xmlns:sodipodi="http://sodipodi.sourceforge.net/DTD/sodipodi-0.dtd"
   xmlns:inkscape="http://www.inkscape.org/namespaces/inkscape"
   width="64"
   height="64"
   viewBox="0 0 16.933333 16.933334"
   version="1.1"
   id="svg8"
   inkscape:version="1.0.2 (e86c870879, 2021-01-15)"
   sodipodi:docname="accessories-podcast.svg">
  <defs
     id="defs2">
    <filter
       id="filter3440"
       x="-0.068743996"
       y="-0.082507998"
       width="1.1375"
       height="1.165"
       color-interpolation-filters="sRGB">
      <feGaussianBlur
         stdDeviation="0.99297596"
         id="feGaussianBlur21" />
    </filter>
    <linearGradient
       inkscape:collect="always"
       xlink:href="#linearGradient2114"
       id="linearGradient2116"
       x1="59.5"
       y1="4.5"
       x2="4.5000014"
       y2="59.5"
       gradientUnits="userSpaceOnUse"
       gradientTransform="matrix(0.26458333,0,0,0.26458333,1.313467,2.2111608)" />
    <linearGradient
       inkscape:collect="always"
       id="linearGradient2114">
      <stop
         style="stop-color:#b496ff;stop-opacity:1"
         offset="0"
         id="stop2110" />
      <stop
         style="stop-color:#a53cff;stop-opacity:1"
         offset="1"
         id="stop2112" />
    </linearGradient>
  </defs>
  <sodipodi:namedview
     id="base"
     pagecolor="#ffffff"
     bordercolor="#666666"
     borderopacity="1.0"
     inkscape:pageopacity="0.0"
     inkscape:pageshadow="2"
     inkscape:zoom="5.6"
     inkscape:cx="32.133622"
     inkscape:cy="36.489463"
     inkscape:document-units="mm"
     inkscape:current-layer="layer1"
     inkscape:document-rotation="0"
     showgrid="false"
     units="px"
     inkscape:window-width="1920"
     inkscape:window-height="992"
     inkscape:window-x="0"
     inkscape:window-y="0"
     inkscape:window-maximized="1" />
  <metadata
     id="metadata5">
    <rdf:RDF>
      <cc:Work
         rdf:about="">
        <dc:format>image/svg+xml</dc:format>
        <dc:type
           rdf:resource="http://purl.org/dc/dcmitype/StillImage" />
        <dc:title></dc:title>
      </cc:Work>
    </rdf:RDF>
  </metadata>
  <g
     inkscape:label="图层 1"
     inkscape:groupmode="layer"
     id="layer1">
    <g
       id="g3489"
       transform="translate(-1.3134673,-2.2111607)">
      <rect
         style="fill:url(#linearGradient2116);fill-opacity:1;stroke-width:0.561972"
         id="rect2106"
         width="14.552083"
         height="14.552083"
         x="2.5040925"
         y="3.4017859"
         ry="3.4395833" />
      <path
         d="M 9.7814569,4.7928062 C 9.5562012,4.7927133 9.3310567,4.7988387 9.2230538,4.8111365 7.8993698,4.9617665 6.8155571,5.5088428 5.880308,6.4984902 5.2507584,7.1645788 4.8202019,7.968039 4.589644,8.9070452 4.5142166,9.2142265 4.4945078,9.3486348 4.4765823,9.679946 c -0.018428,0.340678 5.556e-4,0.930169 0.039563,1.227508 0.056478,0.430874 0.2251393,0.982345 0.4498711,1.470977 0.4156868,0.903923 1.0868554,1.664388 1.9551914,2.215806 0.2741612,0.17408 0.8315589,0.45974 1.064551,0.545518 0.070435,0.02594 0.082968,0.02577 0.1052566,-0.0011 0.041307,-0.04977 -0.012906,-0.50837 -0.074224,-0.627909 C 7.9774164,14.433986 7.9377044,14.403336 7.767075,14.318193 6.8335197,13.852409 6.0912576,13.097844 5.6182355,12.133941 5.4140645,11.717936 5.2741714,11.302593 5.2269697,10.971943 5.1737514,10.599146 5.1644698,9.9815552 5.2050119,9.506337 5.2412572,9.0814956 5.3640318,8.6617871 5.5895573,8.1918341 5.9318753,7.4785704 6.4217778,6.8805062 7.04675,6.4124319 7.6552388,5.9567665 8.3776571,5.652919 9.0897831,5.5533298 c 0.1855021,-0.025942 0.9824239,-0.035706 1.2262379,-0.015063 0.556948,0.047157 1.029494,0.1875631 1.584166,0.4707466 0.999014,0.5100902 1.800543,1.3957565 2.22041,2.4535871 0.224483,0.5655998 0.283422,0.9241631 0.283475,1.7247665 3e-5,0.639736 -0.03433,0.89445 -0.178938,1.327361 -0.216683,0.6486 -0.558192,1.233117 -1.014809,1.736725 -0.364993,0.402537 -0.909003,0.817589 -1.370807,1.04603 -0.210986,0.104357 -0.250661,0.139354 -0.292364,0.257517 -0.05411,0.153347 -0.09023,0.544036 -0.05372,0.580548 0.03031,0.03031 0.142465,-0.01126 0.468392,-0.173132 0.326099,-0.161962 0.768112,-0.419285 0.971815,-0.565838 0.937763,-0.674688 1.681718,-1.749584 1.990249,-2.875492 0.127381,-0.464767 0.153111,-0.660638 0.164417,-1.252379 0.0095,-0.4959878 -0.0091,-0.8595517 -0.05608,-1.0954013 C 14.852323,8.2697804 14.505341,7.5014304 13.982762,6.8491796 13.712834,6.5122327 13.371019,6.1668192 13.07249,5.9294615 12.267548,5.2894873 11.392359,4.9313738 10.340932,4.8115704 10.232262,4.7991879 10.006869,4.792793 9.7816289,4.7926951 Z M 9.7660317,6.5619691 C 9.367384,6.5639535 8.9793461,6.6133353 8.7216419,6.6997059 8.1713879,6.8841046 7.6268225,7.2279465 7.2159775,7.6506448 6.8296065,8.0481019 6.5550219,8.4996133 6.3799207,9.025261 6.2550982,9.3999904 6.2162653,9.7148181 6.2300236,10.239169 c 0.00476,0.181483 0.019095,0.393753 0.032486,0.479452 0.1049708,0.671989 0.5444331,1.489101 1.0665354,1.983422 0.071445,0.06763 0.1536911,0.139092 0.1829276,0.158798 0.029231,0.0197 0.1093232,0.0759 0.1780302,0.124857 0.068707,0.04895 0.1320006,0.08672 0.1406393,0.08384 0.00864,-0.0029 0.020082,-0.0247 0.025225,-0.04846 0.00514,-0.02375 0.010107,-0.19313 0.01107,-0.376396 L 7.8685776,12.3115 7.6970853,12.10444 C 7.331484,11.663167 7.1265378,11.283332 7.0098301,10.830656 6.7238684,9.721602 7.1278766,8.5648173 8.0542199,7.8403352 8.4918142,7.4980702 9.0169063,7.3051625 9.6823598,7.2421917 10.01928,7.2103147 10.63994,7.3387249 11.027978,7.5205862 c 0.685747,0.3213365 1.252749,0.9698302 1.496853,1.7115102 0.112954,0.3432704 0.13279,0.4773877 0.13212,0.8961436 -5.55e-4,0.335571 -0.0035,0.376555 -0.0401,0.548058 -0.0792,0.371475 -0.23794,0.751258 -0.439526,1.051666 -0.05706,0.08503 -0.18424,0.251254 -0.282549,0.369305 l -0.178752,0.214503 0.0045,0.365681 c 0.0032,0.265536 0.0094,0.370734 0.02269,0.38399 0.02452,0.02449 0.168132,-0.07374 0.36658,-0.250622 0.699003,-0.62304 1.070954,-1.311751 1.216634,-2.253218 0.03951,-0.255389 0.03577,-0.7300909 -0.0076,-0.9770794 C 13.251994,9.2001586 13.159064,8.910969 12.997787,8.5813246 12.444464,7.4502309 11.339194,6.668149 10.163835,6.5762328 10.03302,6.565996 9.8989345,6.5614187 9.7660343,6.5620776 Z m 0.02704,1.9029362 C 9.5578231,8.4647847 9.5228796,8.4681808 9.4125219,8.5021084 9.1026948,8.5973637 8.8065467,8.8594546 8.6613963,9.1672179 8.5900672,9.3184405 8.5634978,9.4281606 8.5541421,9.6100246 8.5399737,9.8855088 8.6065614,10.149298 8.7421524,10.3557 c 0.078822,0.119988 0.2910417,0.329962 0.4186502,0.414126 0.3001962,0.198014 0.6656123,0.260339 1.0106554,0.172399 0.439102,-0.111905 0.768059,-0.433413 0.904108,-0.883602 0.03453,-0.1142524 0.03938,-0.1557126 0.03938,-0.3375554 0,-0.1818376 -0.0048,-0.2231179 -0.03938,-0.3373702 C 10.939678,8.934038 10.619583,8.6204274 10.170558,8.4973697 10.069768,8.4697472 10.01356,8.4650006 9.7930774,8.4648841 Z m -0.03321,2.9834417 c -0.5893858,0.003 -1.0211065,0.199575 -1.1975571,0.549143 -0.088172,0.17467 -0.1159219,0.476276 -0.088016,0.958188 0.046651,0.805603 0.2393844,2.262161 0.3647546,2.756958 0.091361,0.360416 0.2220674,0.574728 0.4322762,0.708316 0.082531,0.05245 0.2675467,0.112819 0.403225,0.131752 0.1635099,0.02282 0.4247356,0.006 0.5574766,-0.03593 0.294958,-0.09319 0.461222,-0.293899 0.564568,-0.681619 0.09128,-0.342398 0.254982,-1.563555 0.33737,-2.516717 0.03234,-0.374121 0.03289,-0.907124 0.0011,-1.06344 -0.04541,-0.223207 -0.121102,-0.3429 -0.305964,-0.483632 -0.29808,-0.226911 -0.529511,-0.305038 -0.9492983,-0.32086 -0.040664,-0.0015 -0.080663,-0.0022 -0.1199568,-0.002 z"
         fill="#ffffff"
         stroke-width="0.264578"
         style="paint-order:fill markers stroke"
         id="path552" />
    </g>
  </g>
</svg>
