<?xml version="1.0" encoding="UTF-8"?>
<svg width="64" height="64" version="1.1" xmlns="http://www.w3.org/2000/svg" xmlns:cc="http://creativecommons.org/ns#" xmlns:dc="http://purl.org/dc/elements/1.1/" xmlns:rdf="http://www.w3.org/1999/02/22-rdf-syntax-ns#" xmlns:xlink="http://www.w3.org/1999/xlink">
 <metadata>
  <rdf:RDF>
   <cc:Work rdf:about="">
    <dc:format>image/svg+xml</dc:format>
    <dc:type rdf:resource="http://purl.org/dc/dcmitype/StillImage"/>
    <dc:title/>
   </cc:Work>
  </rdf:RDF>
 </metadata>
 <defs>
  <linearGradient id="linearGradient1096" x1="-159.99" x2="-159.99" y1="8" y2="71.186" gradientUnits="userSpaceOnUse">
   <stop stop-color="#24b1e5" offset="0"/>
   <stop stop-color="#1270c3" offset="1"/>
  </linearGradient>
  <filter id="filter1163" x="-.06633" y="-.054773" width="1.1327" height="1.1095" color-interpolation-filters="sRGB">
   <feGaussianBlur stdDeviation="1.4367675"/>
  </filter>
  <style type="text/css"/>
  <linearGradient id="linearGradient1081" x1="1.3229" x2="15.875" y1="15.875" y2="2.6458" gradientTransform="matrix(3.7796 0 0 3.7796 -.5 -.49993)" gradientUnits="userSpaceOnUse">
   <stop stop-color="#ffbe32" offset="0"/>
   <stop stop-color="#ffdc6e" offset="1"/>
  </linearGradient>
 </defs>
 <g>
  <path d="m17.5 4.5001c-7.202 0-13 5.798-13 13v5h30v-8l-6.9238-8.6543-0.04687-0.05859a3.5 3.5 0 0 0-0.07031-0.085941 3.5 3.5 0 0 0-0.10547-0.11719 3.5 3.5 0 0 0-0.11133-0.11133 3.5 3.5 0 0 0-0.11719-0.10547 3.5 3.5 0 0 0-0.11914-0.10156 3.5 3.5 0 0 0-0.125-0.0957 3.5 3.5 0 0 0-0.13086-0.089841 3.5 3.5 0 0 0-0.13281-0.083979 3.5 3.5 0 0 0-0.13672-0.07617 3.5 3.5 0 0 0-0.14062-0.07227 3.5 3.5 0 0 0-0.14258-0.06445 3.5 3.5 0 0 0-0.14649-0.058591 3.5 3.5 0 0 0-0.14844-0.052729 3.5 3.5 0 0 0-0.15039-0.044921 3.5 3.5 0 0 0-0.15234-0.039058 3.5 3.5 0 0 0-0.1543-0.031257 3.5 3.5 0 0 0-0.1543-0.025399 3.5 3.5 0 0 0-0.15625-0.017575 3.5 3.5 0 0 0-0.1582-0.00979 3.5 3.5 0 0 0-0.15626-0.00389z" fill="#e1a000"/>
  <path d="m17.5 4.5001c-7.202 0-13 5.798-13 13v29c0 7.202 5.798 13 13 13h29c7.202 0 13-5.798 13-13v-22h-25l2-10-6.9707-8.7129c-0.02298-0.029103-0.04642-0.057677-0.07031-0.085948-0.03428-0.039875-0.06944-0.078918-0.10547-0.11721-0.03628-0.037947-0.07339-0.075063-0.11133-0.11131-0.03826-0.035906-0.07734-0.071208-0.11719-0.10549-0.03895-0.034772-0.07868-0.0686-0.11914-0.10156-0.04095-0.032883-0.08262-0.064745-0.125-0.0957-0.04294-0.030993-0.08657-0.060889-0.13086-0.089841-0.04364-0.029103-0.08792-0.056996-0.13281-0.083983-0.045-0.026457-0.09059-0.051781-0.13672-0.076159-0.04632-0.025323-0.09321-0.049248-0.14062-0.072266-0.04704-0.022678-0.09458-0.044032-0.14258-0.064442-0.04838-0.020788-0.09722-0.040139-0.14649-0.058584-0.04908-0.01852-0.09857-0.036284-0.14844-0.052726-0.04979-0.016252-0.09993-0.030993-0.15039-0.044939-0.05049-0.013985-0.10128-0.027213-0.15235-0.039043-0.05119-0.011717-0.10264-0.021922-0.1543-0.031371-0.05124-0.00945-0.10268-0.018142-0.1543-0.025323-0.05194-0.00718-0.10404-0.012851-0.15625-0.017764-0.05265-0.00454-0.1054-0.00756-0.1582-0.00983-0.05205-0.00242-0.10414-0.00368-0.15625-0.00378z" fill="#e1a000"/>
  <path d="m17.5 4.5c-7.202 0-13 5.798-13 13v0.77734c0-7.202 5.798-13 13-13h9.3203c0.052106 9.99e-5 0.1042 0.0014862 0.15625 0.0039062 0.052802 0.00227 0.10555 0.0052256 0.1582 0.0097656 0.052211 0.004913 0.10431 0.010398 0.15625 0.017578 0.051615 0.007181 0.10306 0.015941 0.1543 0.025391 0.05166 0.009449 0.10311 0.019533 0.1543 0.03125 0.051066 0.01183 0.10185 0.025078 0.15234 0.039062 0.05046 0.013946 0.1006 0.02867 0.15039 0.044922 0.049867 0.016442 0.099357 0.034214 0.14844 0.052734 0.049266 0.018445 0.098105 0.037806 0.14648 0.058594 0.047998 0.02041 0.095538 0.041775 0.14258 0.064453 0.047414 0.023018 0.094305 0.046943 0.14062 0.072266 0.046129 0.024378 0.091718 0.049715 0.13672 0.076172 0.044892 0.026987 0.089172 0.054881 0.13281 0.083984 0.044291 0.028952 0.087919 0.058851 0.13086 0.089844 0.042379 0.030955 0.08405 0.06282 0.125 0.095703 0.04046 0.032958 0.080191 0.06679 0.11914 0.10156 0.039847 0.034281 0.078927 0.069563 0.11719 0.10547 0.037937 0.036246 0.075048 0.073381 0.11133 0.11133 0.03603 0.038288 0.071188 0.077312 0.10547 0.11719 0.02389 0.028271 0.047333 0.056834 0.070313 0.085938l0.046875 0.058594 6.7988 8.498 0.125-0.62109-6.9238-8.6543-0.046875-0.058594c-0.02298-0.029103-0.046423-0.057666-0.070313-0.085938-0.03428-0.039875-0.069438-0.0789-0.10547-0.11719-0.03628-0.037947-0.073391-0.075082-0.11133-0.11133-0.038261-0.035906-0.077341-0.071188-0.11719-0.10547-0.03895-0.034772-0.078681-0.068605-0.11914-0.10156-0.04095-0.032883-0.082621-0.064748-0.125-0.095703-0.04294-0.030993-0.086568-0.060892-0.13086-0.089844-0.04364-0.029103-0.08792-0.056997-0.13281-0.083984-0.045001-0.026457-0.09059-0.051794-0.13672-0.076172-0.04632-0.025323-0.093211-0.049248-0.14062-0.072266-0.04704-0.022678-0.09458-0.044043-0.14258-0.064453-0.04838-0.020788-0.097219-0.040149-0.14648-0.058594-0.04908-0.01852-0.09857-0.036292-0.14844-0.052734-0.04979-0.016252-0.099931-0.030976-0.15039-0.044922-0.05049-0.013985-0.10128-0.027232-0.15234-0.039062-0.05119-0.011717-0.10264-0.021801-0.1543-0.03125-0.051239-0.00945-0.10268-0.01821-0.1543-0.025391-0.05194-0.00718-0.10404-0.012665-0.15625-0.017578-0.05265-0.00454-0.1054-0.0074956-0.1582-0.0097657-0.05205-0.0024199-0.10414-0.0038062-0.15625-0.0039062h-9.3203zm17.113 20-0.11328 0.55078 25 0.1875v-0.73828h-24.887z" fill="#e1ffff" opacity=".2"/>
  <path d="m35.1 9.5a4.2 4.2 0 0 0-0.17188 0.0039062 4.2 4.2 0 0 0-0.18945 0.011719 4.2 4.2 0 0 0-0.1875 0.021484 4.2 4.2 0 0 0-0.18555 0.03125 4.2 4.2 0 0 0-0.18555 0.037109 4.2 4.2 0 0 0-0.18164 0.046875 4.2 4.2 0 0 0-0.18164 0.054687 4.2 4.2 0 0 0-0.17773 0.0625 4.2 4.2 0 0 0-0.17578 0.070313 4.2 4.2 0 0 0-0.16992 0.078125 4.2 4.2 0 0 0-0.16992 0.085937 4.2 4.2 0 0 0-0.16406 0.091797 4.2 4.2 0 0 0-0.1582 0.099609 4.2 4.2 0 0 0-0.1582 0.10938 4.2 4.2 0 0 0-0.15039 0.11328 4.2 4.2 0 0 0-0.14258 0.12305 4.2 4.2 0 0 0-0.14062 0.12695 4.2 4.2 0 0 0-0.13281 0.13281 4.2 4.2 0 0 0-0.12695 0.14062 4.2 4.2 0 0 0-0.083985 0.10352l-0.05664 0.070312-6.709 8.3848h-20.6v27c0 7.202 5.798 13 13 13h29c7.202 0 13-5.798 13-13v-13-8.4004-0.59961h-0.029297c-0.31552-8.36-7.1304-15-15.57-15h-8.7852a4.2 4.2 0 0 0-0.015625 0z" fill="url(#linearGradient1081)"/>
  <path d="m35.1 9.5a4.2 4.2 0 0 0-0.17188 0.0039062 4.2 4.2 0 0 0-0.18945 0.011719 4.2 4.2 0 0 0-0.1875 0.021484 4.2 4.2 0 0 0-0.18555 0.03125 4.2 4.2 0 0 0-0.18555 0.037109 4.2 4.2 0 0 0-0.18164 0.046875 4.2 4.2 0 0 0-0.18164 0.054687 4.2 4.2 0 0 0-0.17773 0.0625 4.2 4.2 0 0 0-0.17578 0.070313 4.2 4.2 0 0 0-0.16992 0.078125 4.2 4.2 0 0 0-0.16992 0.085937 4.2 4.2 0 0 0-0.16406 0.091797 4.2 4.2 0 0 0-0.1582 0.099609 4.2 4.2 0 0 0-0.1582 0.10938 4.2 4.2 0 0 0-0.15039 0.11328 4.2 4.2 0 0 0-0.14258 0.12305 4.2 4.2 0 0 0-0.14062 0.12695 4.2 4.2 0 0 0-0.13281 0.13281 4.2 4.2 0 0 0-0.12695 0.14062 4.2 4.2 0 0 0-0.083985 0.10352l-0.05664 0.070312-6.709 8.3848h-20.6v0.78906h21.014l6.709-8.3848 0.056641-0.070313c0.02759-0.03481 0.055324-0.069598 0.083984-0.10352 0.04113-0.04782 0.083707-0.094706 0.12695-0.14062 0.04352-0.04551 0.089244-0.089309 0.13477-0.13281 0.04593-0.04324 0.092799-0.085824 0.14062-0.12695 0.04674-0.04169 0.094018-0.083485 0.14258-0.12305 0.04913-0.03939 0.099541-0.076137 0.15039-0.11328 0.05152-0.03712 0.1031-0.074623 0.15625-0.10938 0.05237-0.03477 0.10628-0.067215 0.16016-0.099609 0.054-0.03167 0.10871-0.062577 0.16406-0.091797 0.055591-0.03016 0.11107-0.058308 0.16797-0.085938 0.05645-0.02706 0.11428-0.053615 0.17188-0.078125 0.05806-0.02476 0.11666-0.048202 0.17578-0.070312 0.058889-0.02241 0.1179-0.04277 0.17773-0.0625 0.05975-0.01931 0.11913-0.038048 0.17969-0.054688 0.06058-0.01697 0.12231-0.032625 0.18359-0.046875 0.06142-0.01387 0.12356-0.026029 0.18555-0.037109 0.06148-0.01157 0.12166-0.02244 0.18359-0.03125 0.06233-0.0085 0.12486-0.015845 0.1875-0.021484 0.06319-0.005501 0.12803-0.009119 0.19141-0.011719 0.06245-0.0029 0.12498-0.003807 0.1875-0.003907h8.3691c8.4399 1e-6 15.255 6.64 15.57 15h0.029297v-0.18945-0.59961h-0.029297c-0.31552-8.36-7.1304-15-15.57-15h-8.7852a4.2 4.2 0 0 0-0.015625 0z" fill="#fff" opacity=".2"/>
  <path d="m4.5 45.83v0.66992c0 7.202 5.798 13 13 13h29c7.202 0 13-5.798 13-13v-0.66992c0 7.202-5.798 13-13 13h-29c-7.202 0-13-5.798-13-13z" opacity=".1"/>
 </g>
 <g transform="matrix(.95229 0 0 .95229 1.0716 1.5922)">
  <g transform="matrix(.95629 0 0 .90203 184.52 -3.6617)" filter="url(#filter1163)" opacity=".3">
   <path d="m-138.01 7.9824v16.25c0 6.1301-4.8562 10.986-10.986 10.986-6.1301 0-10.986-4.8562-10.986-10.986v-16.232a22.5 22.5 0 0 0-1.1699 0.67188 22.5 22.5 0 0 0-1.8301 1.3086 22.5 22.5 0 0 0-1.6894 1.4844 22.5 22.5 0 0 0-0.32422 0.34766v12.42c0 7.7946 5.609 14.297 13 15.707v14.998c0 6.1301-4.8562 10.986-10.986 10.986s-10.986-4.8562-10.986-10.986v-1.3281a8.5 8.5 0 0 1-0.24023 0.08008 8.5 8.5 0 0 1-0.82813 0.1875 8.5 8.5 0 0 1-0.84375 0.10156 8.5 8.5 0 0 1-0.60156 0.02148 8.5 8.5 0 0 1-0.84765-0.04297 8.5 8.5 0 0 1-0.8418-0.12695 8.5 8.5 0 0 1-0.81055-0.20508v1.3125c0 8.8206 7.1794 16 16 16s16-7.1794 16-16v-14.846c7.8718-0.99577 13.986-7.7223 13.986-15.859v-12.436a22.5 22.5 0 0 0-1.5059-1.4004 22.5 22.5 0 0 0-1.7891-1.3613 22.5 22.5 0 0 0-1.7188-1.0527z" color="#000000" color-rendering="auto" dominant-baseline="auto" image-rendering="auto" opacity="1" shape-rendering="auto" solid-color="#000000" style="font-feature-settings:normal;font-variant-alternates:normal;font-variant-caps:normal;font-variant-ligatures:normal;font-variant-numeric:normal;font-variant-position:normal;isolation:auto;mix-blend-mode:normal;shape-padding:0;text-decoration-color:#000000;text-decoration-line:none;text-decoration-style:solid;text-indent:0;text-orientation:mixed;text-transform:none;white-space:normal"/>
   <path d="m-159.99 14h2c1.108 0 2-0.892 2-2v-2c0-1.108-0.892-2-2-2h-2z" opacity="1"/>
   <path d="m-137.99 14h-2c-1.108 0-2-0.892-2-2v-2c0-1.108 0.892-2 2-2h2z" opacity="1"/>
   <circle cx="-176.49" cy="45.5" r="8.5" opacity="1"/>
   <circle cx="-176.49" cy="45.5" r="4" opacity="1"/>
  </g>
  <g transform="matrix(.95306 0 0 .95306 184.01 -5.6077)">
   <path d="m-138.01 7.9824v16.25c0 6.1301-4.8562 10.986-10.986 10.986-6.1301 0-10.986-4.8562-10.986-10.986v-16.232a22.5 22.5 0 0 0-1.1699 0.67188 22.5 22.5 0 0 0-1.8301 1.3086 22.5 22.5 0 0 0-1.6894 1.4844 22.5 22.5 0 0 0-0.32422 0.34766v12.42c0 7.7946 5.609 14.297 13 15.707v14.998c0 6.1301-4.8562 10.986-10.986 10.986s-10.986-4.8562-10.986-10.986v-1.3281a8.5 8.5 0 0 1-0.24023 0.08008 8.5 8.5 0 0 1-0.82813 0.1875 8.5 8.5 0 0 1-0.84375 0.10156 8.5 8.5 0 0 1-0.60156 0.02148 8.5 8.5 0 0 1-0.84765-0.04297 8.5 8.5 0 0 1-0.8418-0.12695 8.5 8.5 0 0 1-0.81055-0.20508v1.3125c0 8.8206 7.1794 16 16 16s16-7.1794 16-16v-14.846c7.8718-0.99577 13.986-7.7223 13.986-15.859v-12.436a22.5 22.5 0 0 0-1.5059-1.4004 22.5 22.5 0 0 0-1.7891-1.3613 22.5 22.5 0 0 0-1.7188-1.0527z" color="#000000" color-rendering="auto" dominant-baseline="auto" fill="url(#linearGradient1096)" image-rendering="auto" shape-rendering="auto" solid-color="#000000" style="font-feature-settings:normal;font-variant-alternates:normal;font-variant-caps:normal;font-variant-ligatures:normal;font-variant-numeric:normal;font-variant-position:normal;isolation:auto;mix-blend-mode:normal;shape-padding:0;text-decoration-color:#000000;text-decoration-line:none;text-decoration-style:solid;text-indent:0;text-orientation:mixed;text-transform:none;white-space:normal"/>
   <g fill="#075daa">
    <path d="m-159.99 14h2c1.108 0 2-0.892 2-2v-2c0-1.108-0.892-2-2-2h-2z"/>
    <path d="m-137.99 14h-2c-1.108 0-2-0.892-2-2v-2c0-1.108 0.892-2 2-2h2z"/>
    <circle cx="-176.49" cy="45.5" r="8.5"/>
   </g>
   <circle cx="-176.49" cy="45.5" r="4" fill="#46d5fb"/>
  </g>
 </g>
</svg>
