<?xml version="1.0" encoding="UTF-8"?>
<svg width="64" height="64" version="1.1" viewBox="0 0 16.933 16.933" xmlns="http://www.w3.org/2000/svg" xmlns:cc="http://creativecommons.org/ns#" xmlns:dc="http://purl.org/dc/elements/1.1/" xmlns:rdf="http://www.w3.org/1999/02/22-rdf-syntax-ns#" xmlns:xlink="http://www.w3.org/1999/xlink">
 <defs>
  <linearGradient id="linearGradient2116" x1="59.5" x2="4.5" y1="4.5" y2="59.5" gradientTransform="matrix(.26458 0 0 .26458 -.52917 4.29)" gradientUnits="userSpaceOnUse">
   <stop stop-color="#ff8c55" offset="0"/>
   <stop stop-color="#ff5a1e" offset="1"/>
  </linearGradient>
 </defs>
 <metadata>
  <rdf:RDF>
   <cc:Work rdf:about="">
    <dc:format>image/svg+xml</dc:format>
    <dc:type rdf:resource="http://purl.org/dc/dcmitype/StillImage"/>
    <dc:title/>
   </cc:Work>
  </rdf:RDF>
 </metadata>
 <g transform="translate(.52917 -4.29)">
  <rect x=".66146" y="5.4807" width="14.552" height="14.552" ry="3.4396" fill="url(#linearGradient2116)" stroke-width=".56197"/>
  <path d="m3.3377 9.6106v1.001c0.59513 0 1.1432 0.04573 1.648 0.13022 0.50477 0.0845 0.96635 0.20745 1.3885 0.36225 0.4222 0.15481 0.80497 0.3415 1.1524 0.55242 0.34742 0.21092 0.65956 0.44633 0.93999 0.69918 0.28043 0.25285 0.5291 0.52298 0.75034 0.80357s0.41462 0.57145 0.58446 0.86558c0.33968 0.58826 0.58448 1.1894 0.76533 1.7467 1.3312 0 2.403-1.0717 2.403-2.403v-3.7579c0-1.3312-1.0717-2.403-2.403-2.403h-4.8261c-1.3312 0-2.403 1.0717-2.403 2.403z" fill="#fff" stroke-width=".35074"/>
  <path d="m3.3449 11.678v1.2393c2.738 0 4.9573 2.2193 4.9573 4.9573h1.2393c0-3.4237-2.7742-6.1966-6.1966-6.1966m0 2.4786v1.2393c1.3688 0 2.4786 1.1098 2.4786 2.4786h1.2393c0-2.0532-1.6647-3.718-3.718-3.718m0 2.4786c-0.68443 0-1.2393 0.55489-1.2393 1.2393 0 0.68443 0.55489 1.2393 1.2393 1.2393 0.68443 0 1.2393-0.5549 1.2393-1.2393 0-0.68443-0.55489-1.2393-1.2393-1.2393" fill="#fff" stroke-linejoin="round" stroke-width="1.377"/>
  <g fill="#969696" stroke-width=".038086">
   <path d="m3.9554 9.3545v0.41731h0.18894q0.10489 0 0.16216-0.054303 0.057277-0.054303 0.057277-0.15472 0-0.099678-0.057277-0.15398-0.057277-0.054303-0.16216-0.054303zm-0.15026-0.12348h0.33921q0.18671 0 0.28192 0.084802 0.09596 0.084058 0.09596 0.24697 0 0.1644-0.09596 0.24846-0.095216 0.084058-0.28192 0.084058h-0.18894v0.44632h-0.15026z"/>
   <path d="m4.7178 9.1843h0.13687v1.1575h-0.13687z"/>
   <path d="m5.5197 9.923q-0.16588 0-0.22985 0.037937-0.063972 0.037937-0.063972 0.12943 0 0.0729 0.047608 0.11604 0.048352 0.0424 0.13092 0.0424 0.11381 0 0.18225-0.08034 0.069179-0.08108 0.069179-0.21498v-0.030499zm0.273-0.056534v0.47533h-0.13687v-0.12646q-0.046865 0.07587-0.11679 0.11232-0.069923 0.03571-0.17109 0.03571-0.12795 0-0.20382-0.07141-0.075131-0.07216-0.075131-0.19266 0-0.14059 0.093727-0.212 0.094471-0.071412 0.28119-0.071412h0.19192v-0.013391q0-0.094471-0.062485-0.1458-0.061741-0.05207-0.17406-0.05207-0.071413 0-0.1391 0.017111-0.067692 0.017111-0.13018 0.051326v-0.12647q0.07513-0.029012 0.1458-0.043145 0.070669-0.014878 0.13762-0.014878 0.18076 0 0.27003 0.093727 0.089263 0.093727 0.089263 0.28415z"/>
   <path d="m6.606 9.5331v0.12943q-0.058021-0.029755-0.12051-0.044632-0.062485-0.014878-0.12943-0.014878-0.10191 0-0.15324 0.031242-0.050583 0.031243-0.050583 0.093727 0 0.047608 0.03645 0.07513 0.03645 0.026778 0.14654 0.051326l0.046865 0.010414q0.1458 0.031243 0.2068 0.08852 0.061741 0.056533 0.061741 0.15845 0 0.11604-0.09224 0.18374-0.091496 0.06769-0.25218 0.06769-0.066949 0-0.13985-0.01339-0.072156-0.01264-0.15249-0.03868v-0.14134q0.075874 0.03942 0.14952 0.05951 0.073643 0.01934 0.1458 0.01934 0.096704 0 0.14877-0.03273 0.05207-0.03348 0.05207-0.09373 0-0.05579-0.037937-0.08555-0.037193-0.02975-0.1644-0.057277l-0.047608-0.011146q-0.1272-0.026778-0.18374-0.081825-0.056534-0.05579-0.056534-0.15249 0-0.11753 0.083315-0.18151 0.083314-0.063972 0.23655-0.063972 0.075874 0 0.14282 0.011157 0.066949 0.011157 0.12348 0.033473z"/>
   <path d="m7.5171 9.6685q0.051326-0.09224 0.12274-0.13613 0.071413-0.043888 0.16811-0.043888 0.13018 0 0.20085 0.091496 0.070669 0.090753 0.070669 0.25886v0.50287h-0.13762v-0.49839q0-0.11976-0.042401-0.17779-0.042401-0.058023-0.12943-0.058023-0.10637 0-0.16811 0.070669-0.061741 0.070669-0.061741 0.19266v0.47087h-0.13762v-0.49839q0-0.12051-0.042401-0.17779-0.042401-0.058023-0.13092-0.058023-0.10489 0-0.16663 0.071413-0.061741 0.070669-0.061741 0.19192v0.47087h-0.13762v-0.83315h0.13762v0.12943q0.046865-0.076617 0.11232-0.11307 0.065461-0.03645 0.15547-0.03645 0.090753 0 0.15398 0.046121 0.063972 0.046121 0.094471 0.1339z"/>
   <path d="m8.7312 9.923q-0.16588 0-0.22985 0.037937-0.063972 0.037937-0.063972 0.12943 0 0.0729 0.047608 0.11604 0.048352 0.0424 0.13092 0.0424 0.11381 0 0.18225-0.08034 0.069179-0.08108 0.069179-0.21498v-0.030496zm0.27299-0.056534v0.47533h-0.13687v-0.12646q-0.046865 0.07587-0.11679 0.11232-0.069923 0.03571-0.17109 0.03571-0.12795 0-0.20382-0.07141-0.07513-0.07216-0.07513-0.19266 0-0.14059 0.093727-0.212 0.094471-0.071412 0.28119-0.071412h0.19192v-0.013391q0-0.094471-0.062485-0.1458-0.061741-0.05207-0.17406-0.05207-0.071412 0-0.1391 0.017111-0.067692 0.017111-0.13018 0.051326v-0.12647q0.075131-0.029012 0.1458-0.043145 0.070669-0.014878 0.13762-0.014878 0.18076 0 0.27003 0.093727 0.089265 0.093727 0.089265 0.28415z"/>
   <path d="m9.7763 9.2311h0.15026v0.46938l0.49839-0.46938h0.19341l-0.5512 0.51774 0.59063 0.59285h-0.19787l-0.53334-0.53484v0.53484h-0.15026z"/>
   <path d="m10.925 9.3545v0.86362h0.18151q0.22985 0 0.33622-0.10414 0.10712-0.10414 0.10712-0.32879 0-0.22316-0.10712-0.32656-0.10637-0.10414-0.33622-0.10414zm-0.15026-0.12348h0.3087q0.32284 0 0.47386 0.13464 0.15101 0.1339 0.15101 0.41953 0 0.28713-0.15175 0.42178-0.15175 0.13465-0.4731 0.13464h-0.30871z"/>
   <path d="m11.948 9.2311h0.70221v0.12646h-0.55196v0.32879h0.52889v0.12646h-0.52889v0.40243h0.56534v0.12646h-0.71559z"/>
  </g>
  <path d="m3.3378 10.611c0.59513 0 1.143 0.04594 1.6478 0.13044 0.50477 0.0845 0.96603 0.20738 1.3882 0.36218 0.4222 0.15481 0.80503 0.34132 1.1525 0.55223 0.34742 0.21093 0.65955 0.44641 0.93998 0.69928 0.082908 0.07475 0.14439 0.15996 0.22188 0.23758h4.2807v-1.9817h-9.6311z" fill="#00a2ef" stroke-width=".68881"/>
  <g fill="#969696" stroke-width=".0093044">
   <path d="m3.8869 8.5958v0.10195h0.046159q0.025622 0 0.039617-0.013266 0.013994-0.013266 0.013994-0.037799 0-0.024352-0.013994-0.037617-0.013994-0.013266-0.039617-0.013266zm-0.036709-0.030167h0.082868q0.045613 0 0.068874 0.020717 0.023442 0.020534 0.023442 0.060334 0 0.040162-0.023442 0.060699-0.023262 0.020537-0.068874 0.020537h-0.046159v0.10904h-0.036709z"/>
   <path d="m4.0732 8.5542h0.033438v0.28277h-0.033438z"/>
   <path d="m4.2691 8.7347q-0.040525 0-0.056152 0.00927-0.015629 0.00927-0.015629 0.031621 0 0.017809 0.011631 0.02835 0.011811 0.010358 0.031984 0.010358 0.027804 0 0.044523-0.019627 0.016902-0.019809 0.016902-0.052519v-0.00745zm0.066693-0.013811v0.11612h-0.033438v-0.030893q-0.011449 0.018537-0.028531 0.027441-0.017081 0.00872-0.041797 0.00872-0.031257 0-0.049793-0.017447-0.018354-0.017627-0.018354-0.047067 0-0.034347 0.022897-0.051792 0.02308-0.017447 0.068694-0.017447h0.046886v-0.00327q0-0.02308-0.015264-0.035619-0.015084-0.012721-0.042524-0.012721-0.017447 0-0.033983 0.00418t-0.031802 0.012539v-0.030894q0.018354-0.00709 0.035619-0.010541 0.017264-0.00364 0.033619-0.00364 0.04416 0 0.065969 0.022897 0.021807 0.022897 0.021807 0.069417z"/>
   <path d="m4.5344 8.6394v0.031621q-0.014174-0.00727-0.02944-0.010903-0.015264-0.00364-0.03162-0.00364-0.024897 0-0.037436 0.00763-0.012356 0.00763-0.012356 0.022897 0 0.011631 0.0089 0.018354 0.00891 0.00654 0.035801 0.012539l0.011448 0.00254q0.035619 0.00763 0.05052 0.021624 0.015084 0.013811 0.015084 0.038708 0 0.02835-0.022535 0.044887-0.022352 0.016536-0.061607 0.016536-0.016356 0-0.034165-0.00327-0.017629-0.00309-0.037254-0.00945v-0.034528q0.018537 0.00963 0.036527 0.014539 0.017992 0.00473 0.035619 0.00473 0.023625 0 0.036346-8e-3 0.012721-0.00818 0.012721-0.022897 0-0.013629-0.00927-0.0209-0.00909-0.00727-0.040162-0.013994l-0.011631-0.00273q-0.031076-0.00654-0.044887-0.019989-0.013811-0.013629-0.013811-0.037254 0-0.028713 0.020354-0.044342t0.057789-0.015629q0.018537 0 0.034892 0.00273 0.016357 0.00273 0.030166 0.00818z"/>
   <path d="m4.757 8.6725q0.012539-0.022535 0.029985-0.033256 0.017447-0.010721 0.04107-0.010721 0.031802 0 0.049067 0.022352 0.017264 0.022172 0.017264 0.063239v0.12285h-0.033619v-0.12176q0-0.029258-0.010358-0.043433-0.010358-0.014174-0.031621-0.014174-0.025987 0-0.04107 0.017264-0.015084 0.017264-0.015084 0.047067v0.11503h-0.03362v-0.12176q0-0.02944-0.010359-0.043433-0.010358-0.014176-0.031984-0.014176-0.025625 0-0.040707 0.017447-0.015084 0.017264-0.015084 0.046886v0.11503h-0.033618v-0.20354h0.033619v0.031621q0.011449-0.018717 0.027441-0.027622 0.015991-0.00891 0.037981-0.00891 0.022169 0 0.037618 0.011269 0.015629 0.011269 0.02308 0.032711z"/>
   <path d="m5.0536 8.7347q-0.040525 0-0.056152 0.00927-0.015629 0.00927-0.015629 0.031621 0 0.017809 0.011631 0.02835 0.011811 0.010358 0.031984 0.010358 0.027805 0 0.044524-0.019627 0.016902-0.019809 0.016902-0.052519v-0.00745zm0.066693-0.013811v0.11612h-0.033438v-0.030893q-0.011448 0.018537-0.028531 0.027441-0.017082 0.00872-0.041797 0.00872-0.031257 0-0.049793-0.017447-0.018354-0.017627-0.018354-0.047067 0-0.034347 0.022897-0.051792 0.02308-0.017447 0.068694-0.017447h0.046886v-0.00327q0-0.02308-0.015264-0.035619-0.015084-0.012721-0.042524-0.012721-0.017447 0-0.033983 0.00418t-0.031802 0.012539v-0.030894q0.018354-0.00709 0.035619-0.010541 0.017264-0.00364 0.033619-0.00364 0.04416 0 0.065969 0.022897 0.021807 0.022897 0.021807 0.069417z"/>
   <path d="m5.3089 8.5657h0.036709v0.11467l0.12176-0.11467h0.04725l-0.13466 0.12648 0.14429 0.14483h-0.048339l-0.1303-0.13066v0.13066h-0.036709z"/>
   <path d="m5.5897 8.5958v0.21098h0.044342q0.056152 0 0.082139-0.025442 0.026167-0.025442 0.026167-0.080323 0-0.054518-0.026167-0.079779-0.025987-0.025442-0.082139-0.025442zm-0.036709-0.030167h0.075417q0.078871 0 0.11576 0.032893 0.036891 0.032711 0.036891 0.10249 0 0.070147-0.037072 0.10304-0.037073 0.032895-0.11558 0.032893h-0.075417z"/>
   <path d="m5.8396 8.5657h0.17155v0.030894h-0.13484v0.080323h0.12921v0.030893h-0.12921v0.098315h0.13811v0.030893h-0.17482z"/>
   <path d="m8.1732 8.5958v0.10195h0.046159q0.025625 0 0.039617-0.013266 0.013994-0.013266 0.013994-0.0378 0-0.024352-0.013994-0.037617-0.013994-0.013266-0.039617-0.013266zm-0.036709-0.030167h0.082868q0.045613 0 0.068874 0.020717 0.023442 0.020534 0.023442 0.060335 0 0.040162-0.023442 0.060699-0.023262 0.020534-0.068874 0.020534h-0.046158v0.10903h-0.036709z"/>
   <path d="m8.3595 8.5542h0.033438v0.28277h-0.033438z"/>
   <path d="m8.5554 8.7347q-0.040525 0-0.056152 0.00927-0.015629 0.00927-0.015629 0.031621 0 0.017809 0.011631 0.02835 0.011814 0.010358 0.031984 0.010358 0.027804 0 0.044523-0.019627 0.016902-0.019807 0.016902-0.052519v-0.00745zm0.066693-0.013811v0.11612h-0.033438v-0.030893q-0.011449 0.018537-0.028531 0.027441-0.017081 0.00872-0.041797 0.00872-0.031257 0-0.049793-0.017447-0.018354-0.017627-0.018354-0.047067 0-0.034347 0.022897-0.051792 0.02308-0.017447 0.068694-0.017447h0.046885v-0.00327q0-0.02308-0.015266-0.035619-0.015084-0.012721-0.042524-0.012721-0.017447 0-0.033983 0.00418t-0.031802 0.012539v-0.030894q0.018354-0.00709 0.035619-0.010541 0.017264-0.00364 0.033619-0.00364 0.04416 0 0.065969 0.022897 0.021807 0.022897 0.021807 0.069417z"/>
   <path d="m8.8208 8.6394v0.031621q-0.014174-0.00727-0.02944-0.010903-0.015264-0.00364-0.03162-0.00364-0.024897 0-0.037436 0.00763-0.012356 0.00763-0.012356 0.022897 0 0.011631 0.0089 0.018354 0.00891 0.00654 0.035801 0.012539l0.011449 0.00254q0.035619 0.00763 0.05052 0.021624 0.015084 0.013811 0.015084 0.038708 0 0.02835-0.022534 0.044887-0.022352 0.016537-0.061607 0.016537-0.016357 0-0.034165-0.00327-0.017629-0.00309-0.037254-0.00945v-0.034528q0.018537 0.00963 0.036527 0.014539 0.017992 0.00473 0.035619 0.00473 0.023625 0 0.036346-8e-3 0.012721-0.00818 0.012721-0.022897 0-0.013629-0.00927-0.020899-0.00909-0.00727-0.040162-0.013994l-0.011631-0.00273q-0.031076-0.00654-0.044886-0.019989-0.013811-0.013629-0.013811-0.037254 0-0.028713 0.020354-0.044342t0.057789-0.015629q0.018537 0 0.034892 0.00273 0.016357 0.00273 0.030166 0.00818z"/>
   <path d="m9.0433 8.6725q0.012539-0.022534 0.029985-0.033256 0.017447-0.010721 0.04107-0.010721 0.031802 0 0.049067 0.022352 0.017264 0.022172 0.017264 0.063239v0.12285h-0.033619v-0.12176q0-0.029258-0.010358-0.043433-0.010358-0.014174-0.031621-0.014174-0.025987 0-0.04107 0.017264-0.015084 0.017264-0.015084 0.047067v0.11503h-0.033619v-0.12176q0-0.02944-0.010358-0.043433-0.010358-0.014176-0.031984-0.014176-0.025625 0-0.040707 0.017447-0.015084 0.017264-0.015084 0.046886v0.11503h-0.033619v-0.20354h0.033619v0.031621q0.011449-0.018717 0.027441-0.027622 0.015991-0.0089 0.037981-0.0089 0.022172 0 0.037618 0.011266 0.015629 0.011269 0.02308 0.032711z"/>
   <path d="m9.3399 8.7347q-0.040525 0-0.056152 0.00927-0.015629 0.00927-0.015629 0.031621 0 0.017809 0.011631 0.02835 0.011811 0.010358 0.031984 0.010358 0.027805 0 0.044524-0.019627 0.016902-0.019807 0.016902-0.052519v-0.00745zm0.066693-0.013811v0.11612h-0.033438v-0.030893q-0.011448 0.018537-0.028531 0.027441-0.017081 0.00872-0.041797 0.00872-0.031257 0-0.049793-0.017447-0.018354-0.017627-0.018354-0.047067 0-0.034347 0.022897-0.051792 0.02308-0.017447 0.068694-0.017447h0.046886v-0.00327q0-0.02308-0.015264-0.035619-0.015084-0.012721-0.042524-0.012721-0.017447 0-0.033983 0.00418t-0.031802 0.012539v-0.030894q0.018354-0.00709 0.035619-0.010541 0.017264-0.00364 0.033619-0.00364 0.044159 0 0.065969 0.022897 0.021807 0.022897 0.021807 0.069417z"/>
   <path d="m9.5953 8.5657h0.036709v0.11467l0.12176-0.11467h0.04725l-0.13466 0.12648 0.14429 0.14483h-0.048339l-0.1303-0.13066v0.13066h-0.036709z"/>
   <path d="m9.876 8.5958v0.21098h0.044342q0.056152 0 0.08214-0.025442 0.02617-0.025442 0.02617-0.080323 0-0.054518-0.02617-0.079779-0.025988-0.025442-0.08214-0.025442zm-0.036709-0.030167h0.075417q0.078871 0 0.11576 0.032893 0.03689 0.032711 0.03689 0.10249 0 0.070147-0.03707 0.10304-0.037072 0.032895-0.11558 0.032893h-0.075417z"/>
   <path d="m10.126 8.5657h0.17155v0.030894h-0.13484v0.080323h0.12921v0.030893h-0.12921v0.098315h0.13811v0.030893h-0.17482z"/>
   <path d="m10.459 8.5958v0.10195h0.04616q0.02563 0 0.03962-0.013266t0.01399-0.0378q0-0.024352-0.01399-0.037617-0.01399-0.013266-0.03962-0.013266zm-0.03671-0.030167h0.08287q0.04561 0 0.06887 0.020717 0.02344 0.020534 0.02344 0.060335 0 0.040162-0.02344 0.060699-0.02326 0.020534-0.06887 0.020534h-0.04616v0.10904h-0.03671z"/>
   <path d="m10.645 8.5542h0.03344v0.28277h-0.03344z"/>
   <path d="m10.841 8.7347q-0.04053 0-0.05615 0.00927-0.01563 0.00927-0.01563 0.031621 0 0.017809 0.01163 0.02835 0.01181 0.010358 0.03198 0.010358 0.0278 0 0.04452-0.019627 0.0169-0.019807 0.0169-0.052519v-0.00745zm0.06669-0.013811v0.11612h-0.03344v-0.030893q-0.01145 0.018537-0.02853 0.027441-0.01708 0.00872-0.0418 0.00872-0.03126 0-0.04979-0.017447-0.01835-0.017627-0.01835-0.047067 0-0.034347 0.0229-0.051792 0.02308-0.017447 0.06869-0.017447h0.04688v-0.00327q0-0.02308-0.01527-0.035619-0.01508-0.012721-0.04252-0.012721-0.01745 0-0.03398 0.00418-0.01654 0.00418-0.0318 0.012539v-0.030894q0.01835-0.00709 0.03562-0.010541 0.01726-0.00364 0.03362-0.00364 0.04416 0 0.06597 0.022897t0.02181 0.069417z"/>
   <path d="m11.107 8.6394v0.031621q-0.01417-0.00727-0.02944-0.010903-0.01526-0.00364-0.03162-0.00364-0.0249 0-0.03744 0.00763-0.01236 0.00763-0.01236 0.022897 0 0.011631 0.0089 0.018354 0.0089 0.00654 0.0358 0.012539l0.01145 0.00254q0.03562 0.00763 0.05052 0.021624 0.01508 0.013811 0.01508 0.038708 0 0.02835-0.02253 0.044887-0.02235 0.016537-0.06161 0.016537-0.01636 0-0.03416-0.00327-0.01763-0.00309-0.03725-0.00945v-0.034528q0.01854 0.00963 0.03653 0.014539 0.01799 0.00473 0.03562 0.00473 0.02362 0 0.03634-8e-3 0.01272-0.00818 0.01272-0.022897 0-0.013629-0.0093-0.020899-0.0091-0.00727-0.04016-0.013994l-0.01163-0.00273q-0.03108-0.00654-0.04489-0.019989-0.01381-0.013629-0.01381-0.037254 0-0.028713 0.02036-0.044342 0.02035-0.015629 0.05779-0.015629 0.01854 0 0.03489 0.00273 0.01636 0.00273 0.03017 0.00818z"/>
   <path d="m11.329 8.6725q0.01254-0.022534 0.02998-0.033256 0.01745-0.010721 0.04107-0.010721 0.0318 0 0.04907 0.022352 0.01726 0.022172 0.01726 0.063239v0.12285h-0.03362v-0.12176q0-0.029258-0.01036-0.043433-0.01036-0.014174-0.03162-0.014174-0.02599 0-0.04107 0.017264t-0.01508 0.047067v0.11503h-0.03362v-0.12176q0-0.02944-0.01036-0.043433-0.01036-0.014176-0.03198-0.014176-0.02562 0-0.04071 0.017447-0.01508 0.017264-0.01508 0.046886v0.11503h-0.03362v-0.20354h0.03362v0.031621q0.01145-0.018717 0.02744-0.027622 0.01599-0.0089 0.03798-0.0089 0.02217 0 0.03762 0.011266 0.01563 0.011269 0.02308 0.032711z"/>
   <path d="m11.626 8.7347q-0.04053 0-0.05615 0.00927-0.01563 0.00927-0.01563 0.031621 0 0.017809 0.01163 0.02835 0.01181 0.010358 0.03198 0.010358 0.02781 0 0.04452-0.019627 0.0169-0.019807 0.0169-0.052519v-0.00745zm0.06669-0.013811v0.11612h-0.03344v-0.030893q-0.01145 0.018537-0.02853 0.027441-0.01708 0.00872-0.0418 0.00872-0.03126 0-0.04979-0.017447-0.01835-0.017627-0.01835-0.047067 0-0.034347 0.0229-0.051792 0.02308-0.017447 0.06869-0.017447h0.04688v-0.00327q0-0.02308-0.01526-0.035619-0.01508-0.012721-0.04252-0.012721-0.01745 0-0.03398 0.00418-0.01654 0.00418-0.0318 0.012539v-0.030894q0.01835-0.00709 0.03562-0.010541 0.01727-0.00364 0.03362-0.00364 0.04416 0 0.06597 0.022897t0.02181 0.069417z"/>
   <path d="m11.881 8.5657h0.03671v0.11467l0.12176-0.11467h0.04725l-0.13466 0.12648 0.14429 0.14483h-0.04834l-0.1303-0.13066v0.13066h-0.03671z"/>
   <path d="m12.162 8.5958v0.21098h0.04434q0.05615 0 0.08214-0.025442 0.02617-0.025442 0.02617-0.080323 0-0.054518-0.02617-0.079779-0.02599-0.025442-0.08214-0.025442zm-0.03671-0.030167h0.07542q0.07887 0 0.11576 0.032893 0.03689 0.032711 0.03689 0.10249 0 0.070147-0.03707 0.10304-0.03707 0.032895-0.11558 0.032893h-0.07542z"/>
   <path d="m12.412 8.5657h0.17155v0.030894h-0.13484v0.080323h0.12921v0.030893h-0.12921v0.098315h0.13811v0.030893h-0.17482z"/>
   <path d="m10.624 12.989v0.10195h0.04616q0.02562 0 0.03962-0.01327 0.01399-0.01327 0.01399-0.0378 0-0.02435-0.01399-0.03762t-0.03962-0.01327zm-0.03671-0.03017h0.08287q0.04561 0 0.06887 0.02072 0.02344 0.02053 0.02344 0.06033 0 0.04016-0.02344 0.0607-0.02326 0.02054-0.06887 0.02054h-0.04616v0.10904h-0.03671z"/>
   <path d="m10.81 12.948h0.03344v0.28277h-0.03344z"/>
   <path d="m11.006 13.128q-0.04053 0-0.05615 0.0093-0.01563 0.0093-0.01563 0.03162 0 0.01781 0.01163 0.02835 0.01181 0.01036 0.03198 0.01036 0.0278 0 0.04452-0.01963 0.0169-0.01981 0.0169-0.05252v-0.0074zm0.06669-0.01381v0.11612h-0.03344v-0.03089q-0.01145 0.01854-0.02853 0.02744-0.01708 0.0087-0.0418 0.0087-0.03126 0-0.04979-0.01745-0.01835-0.01763-0.01835-0.04707 0-0.03435 0.0229-0.05179 0.02308-0.01745 0.06869-0.01745h0.04689v-0.0033q0-0.02308-0.01527-0.03562-0.01508-0.01272-0.04252-0.01272-0.01745 0-0.03398 0.0042-0.01654 0.0042-0.0318 0.01254v-0.03089q0.01835-0.0071 0.03562-0.01054 0.01726-0.0036 0.03362-0.0036 0.04416 0 0.06597 0.0229t0.02181 0.06942z"/>
   <path d="m11.272 13.033v0.03162q-0.01417-0.0073-0.02944-0.0109-0.01526-0.0036-0.03162-0.0036-0.0249 0-0.03744 0.0076-0.01236 0.0076-0.01236 0.0229 0 0.01163 0.0089 0.01835 0.0089 0.0065 0.0358 0.01254l0.01145 0.0025q0.03562 0.0076 0.05052 0.02162 0.01508 0.01381 0.01508 0.03871 0 0.02835-0.02253 0.04489-0.02235 0.01654-0.06161 0.01654-0.01636 0-0.03416-0.0033-0.01763-0.0031-0.03725-0.0094v-0.03453q0.01854 0.0096 0.03653 0.01454 0.01799 0.0047 0.03562 0.0047 0.02362 0 0.03635-8e-3 0.01272-0.0082 0.01272-0.0229 0-0.01363-0.0093-0.0209-0.0091-0.0073-0.04016-0.01399l-0.01163-0.0027q-0.03108-0.0065-0.04489-0.01999-0.01381-0.01363-0.01381-0.03726 0-0.02871 0.02036-0.04434 0.02035-0.01563 0.05779-0.01563 0.01854 0 0.03489 0.0027 0.01636 0.0027 0.03017 0.0082z"/>
   <path d="m11.494 13.066q0.01254-0.02253 0.02998-0.03326 0.01745-0.01072 0.04107-0.01072 0.0318 0 0.04907 0.02235 0.01726 0.02217 0.01726 0.06324v0.12285h-0.03362v-0.12176q0-0.02926-0.01036-0.04343-0.01036-0.01418-0.03162-0.01418-0.02599 0-0.04107 0.01726t-0.01508 0.04707v0.11503h-0.03362v-0.12176q0-0.02944-0.01036-0.04343-0.01036-0.01418-0.03198-0.01418-0.02562 0-0.04071 0.01745-0.01508 0.01726-0.01508 0.04688v0.11504h-0.03362v-0.20354h0.03362v0.03162q0.01145-0.01872 0.02744-0.02762t0.03798-0.0089q0.02217 0 0.03762 0.01127 0.01563 0.01127 0.02308 0.03271z"/>
   <path d="m11.791 13.128q-0.04053 0-0.05615 0.0093-0.01563 0.0093-0.01563 0.03162 0 0.01781 0.01163 0.02835 0.01181 0.01036 0.03198 0.01036 0.02781 0 0.04452-0.01963 0.0169-0.01981 0.0169-0.05252v-0.0074zm0.06669-0.01381v0.11612h-0.03344v-0.03089q-0.01145 0.01854-0.02853 0.02744-0.01708 0.0087-0.0418 0.0087-0.03126 0-0.04979-0.01745-0.01835-0.01763-0.01835-0.04707 0-0.03435 0.0229-0.05179 0.02308-0.01745 0.06869-0.01745h0.04689v-0.0033q0-0.02308-0.01526-0.03562-0.01508-0.01272-0.04252-0.01272-0.01745 0-0.03398 0.0042-0.01654 0.0042-0.0318 0.01254v-0.03089q0.01835-0.0071 0.03562-0.01054 0.01726-0.0036 0.03362-0.0036 0.04416 0 0.06597 0.0229t0.02181 0.06942z"/>
   <path d="m12.046 12.959h0.03671v0.11467l0.12176-0.11467h0.04725l-0.13466 0.12648 0.14429 0.14484h-0.04834l-0.1303-0.13066v0.13066h-0.03671z"/>
   <path d="m12.327 12.989v0.21098h0.04434q0.05615 0 0.08214-0.02544 0.02617-0.02544 0.02617-0.08032 0-0.05452-0.02617-0.07978-0.02599-0.02544-0.08214-0.02544zm-0.03671-0.03017h0.07542q0.07887 0 0.11576 0.03289 0.03689 0.03271 0.03689 0.10249 0 0.07015-0.03707 0.10304-0.03707 0.03289-0.11558 0.03289h-0.07542z"/>
   <path d="m12.577 12.959h0.17155v0.03089h-0.13484v0.08032h0.12921v0.03089h-0.12921v0.09832h0.13811v0.03089h-0.17482z"/>
  </g>
 </g>
</svg>
