<?xml version="1.0" encoding="UTF-8"?>
<svg width="64" height="64" version="1" xmlns="http://www.w3.org/2000/svg" xmlns:cc="http://creativecommons.org/ns#" xmlns:dc="http://purl.org/dc/elements/1.1/" xmlns:rdf="http://www.w3.org/1999/02/22-rdf-syntax-ns#">
 <metadata>
  <rdf:RDF>
   <cc:Work rdf:about="">
    <dc:format>image/svg+xml</dc:format>
    <dc:type rdf:resource="http://purl.org/dc/dcmitype/StillImage"/>
   </cc:Work>
  </rdf:RDF>
 </metadata>
 <rect x="4.4996" y="4.4996" width="55.001" height="55.001" ry="13" fill="#413e4d" stroke-width="2.124"/>
 <path d="m36.463 49.07c0-0.04469 0.30586-0.18735 0.67969-0.3171 0.44006-0.15272 0.71917-0.32652 0.79167-0.49298 0.0616-0.14137 0.46054-0.45997 0.88655-0.70794 0.426-0.24797 1.1648-0.71342 1.6417-1.0344 0.7478-0.50315 0.85776-0.62132 0.79874-0.85838-0.0455-0.1824-8e-3 -0.29786 0.1081-0.34315 0.2138-0.08268 0.23501-0.31424 0.0288-0.31353-0.0813 2.29e-4 -0.38712 0.16401-0.67969 0.36385-0.73593 0.5027-1.5704 0.92207-1.7243 0.86656-0.0707-0.02556-0.41646 0.08868-0.76833 0.25381-0.35188 0.1651-0.77936 0.30072-0.94998 0.30136-0.17061 5.99e-4 -0.53635 0.08154-0.81276 0.17988-0.27639 0.09825-0.55832 0.17873-0.62649 0.17873-0.21438 0 0.40437-0.57882 1.1801-1.1039 0.77738-0.52622 0.96212-0.76005 0.44348-0.56129-0.40071 0.15358-0.99706 0.1485-0.99706-0.0086 0-0.06855 0.16446-0.21603 0.36546-0.32766 0.82695-0.45927 1.4308-0.87472 1.3661-0.93989-0.0378-0.03813-0.43896 0.15224-0.89131 0.42313-0.45236 0.27089-0.87965 0.49251-0.94955 0.49251-0.31141 0-0.0652-0.27794 0.70176-0.79195 0.85955-0.57614 1.0566-0.86883 0.26999-0.40099-0.63197 0.37586-1.5717 0.73434-1.5717 0.59957 0-0.06226 0.45685-0.41656 1.0152-0.78721 0.55837-0.37066 1.1101-0.83125 1.2262-1.0235 0.11602-0.1923 0.56121-0.64087 0.98932-0.99682 0.42812-0.35594 0.82878-0.74168 0.89034-0.85719 0.0616-0.11552 0.43745-0.61215 0.83528-1.1036 0.87164-1.0769 1.9396-3.1743 2.2447-4.4086 0.13118-0.53084 0.25548-1.6192 0.3061-2.6809 0.0756-1.5874 0.056-1.9328-0.17623-3.0884-0.68245-3.3963-1.8769-5.645-3.7847-7.1254-1.9332-1.5001-3.5333-2.0421-6.0285-2.0421-1.87 0-3.0142 0.27045-4.9794 1.1768-1.8793 0.86678-2.426 1.2462-3.736 2.5928-1.1112 1.1423-1.1241 1.1632-2.1554 3.482l-0.37093 0.83406 0.07605-0.59576c0.09664-0.75694 0.70534-2.0926 1.3645-2.9941 1.0152-1.3885 2.8728-2.9216 3.9498-3.2598 0.26005-0.08168 0.97318-0.42373 1.5847-0.76012l1.1119-0.61161-0.52088-0.0327c-0.28648-0.01799-0.64048-0.09396-0.78667-0.16897-0.19385-0.09938-0.37782-0.10167-0.67968-0.0086-0.63761 0.19726-0.49494-0.05041 0.23765-0.41265 0.65686-0.32472 0.73112-0.453 0.3884-0.67091-0.23532-0.14962-1.332 0.31077-2.5358 1.0646-1.3418 0.8402-2.7166 2.1909-1.6801 1.6506l0.37021-0.19298-0.0816 0.32755c-0.0526 0.21146-0.0295 0.35997 0.0652 0.419 0.10545 0.06569 0.0158 0.24686-0.3182 0.64318-0.68307 0.81046-1.4836 1.875-1.8533 2.4644-0.17843 0.2845-0.52635 0.77143-0.77315 1.0821-0.46218 0.58174-1.0892 2.2372-1.0892 2.8757 0 0.18062-0.05222 0.42675-0.11604 0.54696-0.08429 0.15876-0.0722 0.2355 0.04417 0.28053 0.23892 0.09239 0.335 0.78834 0.36484 2.6428 0.03181 1.9766 0.1965 2.5268 1.1975 4.0001 0.35046 0.51582 0.6372 0.9672 0.6372 1.0031 0 0.03584-0.14628 0.03213-0.32506-0.0086-0.27646-0.06255-0.19528 0.05683 0.5428 0.79835 0.47733 0.47955 0.81808 0.88865 0.75722 0.90909-0.0608 0.02042-0.35171-0.06697-0.64636-0.19429-0.48403-0.20914-0.7719-0.48829-1.6121-1.5633-0.28504-0.36468-0.46238-0.23653-0.26795 0.19362 0.24041 0.53187 0.06468 0.44302-0.40827-0.20642-0.24823-0.34086-0.47082-0.56083-0.49463-0.48882-0.05717 0.1729 0.08865 0.43525 0.83026 1.4937 0.34064 0.48617 0.7105 1.0526 0.82191 1.2587 0.13349 0.24696 0.32238 0.3989 0.55392 0.44558 0.19324 0.03899 0.38037 0.14704 0.41582 0.24019 0.0821 0.21554 1.5952 0.90574 1.8065 0.82401 0.0873-0.0337 0.42551 0.04455 0.75158 0.17416 0.32607 0.12952 0.87015 0.23559 1.2091 0.23565 1.6784 2.42e-4 3.7445 1.8424 3.7475 3.3414 1e-3 0.73442-0.58188 1.7155-1.3136 2.2092-0.92365 0.62309-2.9363 0.84596-4.2064 0.46578-1.5695-0.46981-6.0056-4.4099-7.7799-6.9101-1.0527-1.4834-1.6171-2.718-2.1244-4.6469-0.68816-3.0825 0.20634-7.3388 1.0158-9.7546 0.67155-1.9891 0.87337-2.4146 1.1841-2.4965 0.28971-0.0764 0.34425 0.01428 0.2152 0.35601-0.20977 0.55614-0.15062 0.67304 0.30306 0.59883 0.52407-0.08568 0.52397-0.06097-0.0064 1.5374-0.41761 1.2582-0.5029 1.8961-0.10696 0.80002 0.63831-1.767 1.1187-2.501 0.9529-1.4558-0.1084 0.68335 0.13923 0.56401 0.53643-0.25854 0.17159-0.35534 0.48248-0.80694 0.69086-1.0035l0.37887-0.35745-0.3297 0.68178c-0.18134 0.37499-0.29186 0.71994-0.24562 0.76654 0.1308 0.1318 0.27241-0.07169 0.66464-0.95502 0.27212-0.61288 0.31672-0.79949 0.17826-0.74594-0.11058 0.04284-0.02797-0.14902 0.20598-0.47818 0.21484-0.30228 0.45426-0.57444 0.53202-0.6048 0.07776-0.03041 0.38294-0.38568 0.67817-0.7896 0.95709-1.3095 2.19-2.1243 4.9839-3.2938 0.6439-0.26955 1.5242-0.70483 1.9563-0.96729 1.0988-0.6675 1.4829-0.75648 3.1972-0.74074 1.8434 0.01699 2.8643 0.18067 4.4599 0.71525 2.2362 0.74921 4.201 1.8991 5.9753 3.4969 0.51838 0.46681 0.96222 0.78915 0.9863 0.71629 0.13785-0.4169-1.948-2.5647-3.1948-3.2896-0.87756-0.51022-1.1276-0.76724-0.74636-0.76724 0.0959 0 0.67216 0.26809 1.2805 0.59576 1.1978 0.64509 1.3448 0.68875 1.4029 0.41633 0.0673-0.31609 1.0244 0.27225 1.9333 1.1884 2.3874 2.4065 4.0832 6.3203 4.5447 10.489 0.26508 2.3944 0.15199 3.6061-0.66167 7.0895-0.36184 1.5491-1.5118 3.9687-2.4634 5.1831-0.35946 0.45874-0.8716 1.12-1.1381 1.4695-0.54627 0.71639-3.0268 2.6328-4.2452 3.2797-1.2092 0.64205-3.9008 1.5285-3.9008 1.2847zm3.0781-1.3299c0.25746-0.13238 0.4681-0.26512 0.4681-0.29494 0-0.08268-0.58241 0.15861-0.86552 0.3585-0.35674 0.25187-0.15243 0.2192 0.39742-0.06355zm0.94679-27.097c-0.28164-0.34208-1.4768-1.0656-2.3036-1.3945-1.3006-0.51743-1.3037-0.39272-7e-3 0.2923 0.65013 0.34352 1.4468 0.79426 1.7703 1.0016 0.59758 0.38302 0.80487 0.42159 0.54056 0.10053zm-4.1808-2.0456c-0.43425-0.23727-1.9455-0.5537-2.1213-0.44418-0.14796 0.09211 0.11971 0.1875 1.2725 0.45333 0.99357 0.22909 1.2792 0.22601 0.84879-0.0086zm3.4657 21.696c0-0.05883 1.1009-1.5309 1.3347-1.7847 0.14981-0.16262-0.35819 0.84848-0.7034 1.4-0.1538 0.24574-0.35878 0.44682-0.45548 0.44682-0.0968 0-0.17582-0.02799-0.17582-0.06212zm1.961-3.2443c0.33434-0.88965 0.6069-1.9064 0.83423-3.112 0.0293-0.15518 0.0762-0.25892 0.10441-0.23055 0.0857 0.08639-0.26334 2.0229-0.47903 2.6574-0.20255 0.59588-0.73354 1.7277-0.81057 1.7277-0.0225 0 0.13543-0.46915 0.35096-1.0426zm0.90575-4.498c1e-3 -0.26214 0.0255-0.35534 0.0538-0.20713s0.0272 0.36268-3e-3 0.4766c-0.0296 0.11396-0.0527-0.0071-0.0514-0.26948zm-0.13756-1.9964c-0.0918-0.57374-0.13515-1.0751-0.0965-1.1142 0.13132-0.13237 0.33458 0.91343 0.29884 1.5372-0.0349 0.60888-0.0385 0.6012-0.20243-0.423zm-21.666-9.4637c0.5724-0.81788 2.9818-2.8762 2.7963-2.3888-0.0528 0.13866-1.4801 1.4413-2.7064 2.4699l-0.35512 0.29786zm6.6439-0.15716c0-0.06555 0.0829-0.1191 0.18428-0.1191s0.15141 0.05354 0.11124 0.1191c-0.0402 0.06555-0.12311 0.11909-0.18429 0.11909-0.0612 0-0.11122-0.05369-0.11122-0.11909zm-7.2106-0.58712c0-0.12638 0.14628-0.34589 0.32507-0.48797 0.27007-0.21461 0.3313-0.22735 0.36194-0.07525 0.04865 0.24153-0.31524 0.79292-0.52329 0.79292-0.09004 0-0.16371-0.10339-0.16371-0.22966zm11.466-4.3108c0-0.11495 0.46661-0.22205 0.9752-0.22391 0.24381-9.57e-4 0.44327 0.05198 0.44327 0.11752 0 0.12809-0.0127 0.13038-0.85699 0.1632-0.3088 0.01143-0.56148-0.01428-0.56148-0.05683zm-0.2364-0.57158c0-0.3511 1.7688-0.7454 2.2293-0.49696 0.37142 0.20038 0.32221 0.48554-0.0839 0.48554-0.18523 0-0.74375 0.0347-1.2412 0.07711-0.66622 0.05683-0.90437 0.03941-0.90437-0.06569z" fill="#b648b6"/>
</svg>
