<?xml version="1.0" encoding="UTF-8"?>
<svg width="64" height="64" version="1.1" xmlns="http://www.w3.org/2000/svg" xmlns:cc="http://creativecommons.org/ns#" xmlns:dc="http://purl.org/dc/elements/1.1/" xmlns:rdf="http://www.w3.org/1999/02/22-rdf-syntax-ns#" xmlns:xlink="http://www.w3.org/1999/xlink">
 <metadata>
  <rdf:RDF>
   <cc:Work rdf:about="">
    <dc:format>image/svg+xml</dc:format>
    <dc:type rdf:resource="http://purl.org/dc/dcmitype/StillImage"/>
   </cc:Work>
  </rdf:RDF>
 </metadata>
 <defs>
  <style type="text/css"/>
  <style type="text/css"/>
  <linearGradient id="linearGradient2200" x1="43.47" x2="43.47" y1="9.965" y2="57.411" gradientUnits="userSpaceOnUse">
   <stop stop-color="#1668ff" offset="0"/>
   <stop stop-color="#0044ed" offset="1"/>
  </linearGradient>
  <linearGradient id="linearGradient6011" x1="175.88" x2="175.88" y1="28.965" y2="48.461" gradientTransform="matrix(1.0424 0 0 1.0424 -50.091 -1.9667)" gradientUnits="userSpaceOnUse">
   <stop stop-color="#fcdf43" offset="0"/>
   <stop stop-color="#f6ae01" offset="1"/>
  </linearGradient>
  <linearGradient id="linearGradient6013" x1="162.55" x2="162.55" y1="26.733" y2="51.285" gradientTransform="matrix(1.0424 0 0 1.0424 -50.091 -1.9667)" gradientUnits="userSpaceOnUse">
   <stop stop-color="#fe5622" offset="0"/>
   <stop stop-color="#f8003f" offset="1"/>
  </linearGradient>
  <linearGradient id="linearGradient8967" x1="-12.254" x2="-12.339" y1="18.674" y2="32.93" gradientTransform="translate(2.5293 3.7184)" gradientUnits="userSpaceOnUse">
   <stop stop-color="#f5568d" offset="0"/>
   <stop stop-color="#fd2d81" offset="1"/>
  </linearGradient>
  <linearGradient id="linearGradient14280" x1="36.858" x2="36.704" y1="-15.904" y2="-.42769" gradientTransform="translate(2.3966 3.8053)" gradientUnits="userSpaceOnUse">
   <stop stop-color="#0ea8e9" offset="0"/>
   <stop stop-color="#0780eb" offset="1"/>
  </linearGradient>
 </defs>
 <path d="m17.5 4.5c-7.202 0-13 5.798-13 13v29c0 7.202 5.798 13 13 13h29c7.202 0 13-5.798 13-13v-29c0-7.202-5.798-13-13-13z" fill="url(#linearGradient2200)" stroke-linecap="round" stroke-linejoin="round" style="paint-order:stroke fill markers"/>
 <g transform="translate(0 -3.6281)">
  <g transform="translate(0 6.7504)" fill-rule="evenodd">
   <rect transform="rotate(32.203)" x="35.631" y="-15.811" width="7.5354" height="19.663" ry="2.4856" fill="url(#linearGradient14280)" style="paint-order:stroke fill markers"/>
   <rect transform="matrix(-.82685 .56243 .56243 .82685 0 0)" x="-13.493" y="19.639" width="7.5354" height="19.663" ry="3.0789" fill="url(#linearGradient8967)" style="paint-order:stroke fill markers"/>
  </g>
  <g transform="translate(-86.093 -.043016)">
   <path d="m130.15 50.291c3.3934-1.0648 5.5438-2.7455 5.9591-5.615 0.8763-6.0548 2.0892-15.646-6.0262-17.794 0.0652 0.36943 0.12946 0.74205 0.18323 1.1523 0.0694 0.52984 0.12945 1.0915 0.1812 1.6796 0.0517 0.58813 0.0948 1.2031 0.1303 1.8384 0.0355 0.63536 0.0626 1.2911 0.0835 1.9626 0.0208 0.67154 0.0351 1.3576 0.0427 2.0542 7e-3 0.69665 0.0104 1.4046 6e-3 2.1153-4e-3 0.71071-0.0141 1.424-0.0285 2.1377-0.0144 0.71372-0.0339 1.428-0.057 2.1336-0.0231 0.70566-0.051 1.4043-0.0814 2.0909-0.0609 1.3731-0.1347 2.697-0.21581 3.9272-0.0559 0.84696-0.11646 1.573-0.17712 2.3168z" fill="url(#linearGradient6011)"/>
   <path d="m130.15 50.291c0.0607-0.74389 0.12129-1.4699 0.17712-2.3168 0.0811-1.2303 0.15491-2.5542 0.21581-3.9272 0.0304-0.68655 0.0583-1.3852 0.0814-2.0909 0.0231-0.70566 0.0426-1.4199 0.057-2.1336 0.0144-0.71372 0.0244-1.427 0.0285-2.1377 4e-3 -0.71071 1e-3 -1.4186-6e-3 -2.1153-7e-3 -0.69666-0.0219-1.3827-0.0427-2.0542-0.0209-0.67154-0.048-1.3272-0.0835-1.9626s-0.0786-1.2503-0.1303-1.8384c-0.0517-0.58813-0.11176-1.1498-0.1812-1.6796-0.0538-0.41026-0.11807-0.78288-0.18323-1.1523-0.22554-0.05969-0.45408-0.11696-0.69424-0.16491-8.8818-1.7733-19.307-1.773-22.299-1.4618 0 0-7.5465 0.054-7.5654 6.0425-0.01887 5.9885-0.27271 16.096 0.25245 17.372 0.52517 1.2766 1.6835 4.487 14.066 3.6931 6.673-0.42781 12.341-0.82803 16.308-2.0725z" fill="url(#linearGradient6013)"/>
   <path d="m118.7 36.649s-8.1292-7.9526-13.352-9.2769c-5.2225-1.3242-5.8204 2.0144-5.8204 4.3001s-0.19252 16.502 0.60162 17.455c0.79412 0.9526 2.5244 2.9453 6.1441 1.1011s12.708-7.5795 13.325-10.117c0.6168-2.5371-0.37849-2.8879-0.8986-3.4622z" fill="#fff"/>
  </g>
 </g>
</svg>
