<?xml version="1.0" encoding="UTF-8"?>
<svg width="64" height="64" version="1.1" xmlns="http://www.w3.org/2000/svg" xmlns:cc="http://creativecommons.org/ns#" xmlns:dc="http://purl.org/dc/elements/1.1/" xmlns:rdf="http://www.w3.org/1999/02/22-rdf-syntax-ns#" xmlns:xlink="http://www.w3.org/1999/xlink">
 <metadata>
  <rdf:RDF>
   <cc:Work rdf:about="">
    <dc:format>image/svg+xml</dc:format>
    <dc:type rdf:resource="http://purl.org/dc/dcmitype/StillImage"/>
   </cc:Work>
  </rdf:RDF>
 </metadata>
 <defs>
  <linearGradient id="linearGradient1115" x1="-29.448" x2="-29.448" y1="4.6371" y2="59.494" gradientTransform="translate(63.693)" gradientUnits="userSpaceOnUse">
   <stop stop-color="#f04b23" offset="0"/>
   <stop stop-color="#d7360f" offset="1"/>
  </linearGradient>
 </defs>
 <rect x="4.5" y="4.5" width="55" height="55" ry="13" fill="url(#linearGradient1115)" image-rendering="optimizeSpeed" stroke-width=".47292"/>
 <path d="m32 11.44a2.3276 2.3276 0 0 0-2.3267 2.3267v1.5517h-13.19c-1.7193 0-3.1033 1.384-3.1033 3.1033v13.19h-1.5517a2.3276 2.3276 0 0 0-2.3283 2.3283 2.3276 2.3276 0 0 0 2.3283 2.3267h1.5517v13.19c0 1.7193 1.384 3.1033 3.1033 3.1033h31.035c1.7193 0 3.1033-1.384 3.1033-3.1033v-13.19h1.5517a2.3276 2.3276 0 0 0 2.3267-2.3267 2.3276 2.3276 0 0 0-2.3267-2.3283h-1.5517v-13.19c0-1.7193-1.384-3.1033-3.1033-3.1033h-13.19v-1.5517a2.3276 2.3276 0 0 0-2.3283-2.3267zm0 8.5334 12.413 6.9833v6.5966l-5.43-1.9416v-1.5517l-6.9833-3.8784-5.43 3.1033 17.843 6.2067v6.2067l-12.413 6.9833-12.413-6.9833v-6.555l5.4316 1.9v1.5517l6.9817 3.8784 5.4316-3.1033-17.845-6.2067v-6.2067z" fill="#fff" stroke-width=".77586"/>
</svg>
