<?xml version="1.0" encoding="UTF-8"?>
<svg width="64" height="64" version="1.1" xmlns="http://www.w3.org/2000/svg" xmlns:cc="http://creativecommons.org/ns#" xmlns:dc="http://purl.org/dc/elements/1.1/" xmlns:rdf="http://www.w3.org/1999/02/22-rdf-syntax-ns#" xmlns:xlink="http://www.w3.org/1999/xlink">
 <metadata>
  <rdf:RDF>
   <cc:Work rdf:about="">
    <dc:format>image/svg+xml</dc:format>
    <dc:type rdf:resource="http://purl.org/dc/dcmitype/StillImage"/>
   </cc:Work>
  </rdf:RDF>
 </metadata>
 <defs>
  <linearGradient id="linearGradient1115" x1="-29.448" x2="-29.448" y1="4.6371" y2="59.494" gradientTransform="translate(63.693)" gradientUnits="userSpaceOnUse">
   <stop stop-color="#ff8a19" offset="0"/>
   <stop stop-color="#e57100" offset="1"/>
  </linearGradient>
 </defs>
 <rect x="4.5" y="4.5" width="55" height="55" ry="13" fill="url(#linearGradient1115)" image-rendering="optimizeSpeed" stroke-width=".47292"/>
 <g transform="matrix(.81817 0 0 .81817 -52.854 6.2228)">
  <path transform="matrix(1.375 0 0 1.375 59.712 -12)" d="m32 14.031a2.1562 2.1562 0 0 0-1.8672 1.0762l-7.9668 13.799 9.834-5.5312 9.834 5.5312-7.9668-13.797a2.1562 2.1562 0 0 0-1.8672-1.0762zm0 15.094-5.0312 2.875 16.531 5.75v5.75l-10.223 5.75h16.566a2.1562 2.1562 0 0 0 1.8652-1.0781h2e-3a2.1562 2.1562 0 0 0 2e-3 -2.1543l-8.213-14.225v4.1602l-5.0312-1.7969v-1.4375zm-11.5 2.668-8.2129 14.225a2.1562 2.1562 0 0 0 2e-3 2.1543h2e-3a2.1562 2.1562 0 0 0 1.8651 1.0781h16.566l-10.223-5.75v-6.1094l5.0312 1.7969v1.4375l6.4688 3.5938 5.0312-2.875-16.531-5.75z" fill="#fff" stroke-width=".71874"/>
 </g>
</svg>
