<?xml version="1.0" encoding="UTF-8"?>
<svg width="64" height="64" version="1.1" xmlns="http://www.w3.org/2000/svg" xmlns:cc="http://creativecommons.org/ns#" xmlns:dc="http://purl.org/dc/elements/1.1/" xmlns:rdf="http://www.w3.org/1999/02/22-rdf-syntax-ns#" xmlns:xlink="http://www.w3.org/1999/xlink">
 <metadata>
  <rdf:RDF>
   <cc:Work rdf:about="">
    <dc:format>image/svg+xml</dc:format>
    <dc:type rdf:resource="http://purl.org/dc/dcmitype/StillImage"/>
   </cc:Work>
  </rdf:RDF>
 </metadata>
 <defs>
  <linearGradient id="linearGradient1115" x1="-29.448" x2="-29.448" y1="4.6371" y2="59.494" gradientTransform="translate(63.693)" gradientUnits="userSpaceOnUse">
   <stop stop-color="#16aca8" offset="0"/>
   <stop stop-color="#118885" offset="1"/>
  </linearGradient>
 </defs>
 <rect x="4.5" y="4.5" width="55" height="55" ry="13" fill="url(#linearGradient1115)" image-rendering="optimizeSpeed" stroke-width=".47292"/>
 <path d="m36.811 9.5039c-0.076296-0.0052071-0.14981-0.0057732-0.2207 0.0019532-0.47208 0.051622-0.83209 0.39693-1.2031 1.1172l-1.2402 2.4062a19.104 19.104 0 0 0-2.1465-0.13281 19.104 19.104 0 0 0-2.1426 0.14453l-1.2441-2.416c-0.63425-1.1157-1.2027-1.1787-2.2012-0.91211-2.0725 0.86052-4.1473 1.7179-6.2207 2.5762-1.0401 0.43081-1.3078 0.96664-0.91211 2.2012l0.82031 2.5664a19.104 19.104 0 0 0-3.0254 3.0508l-2.584-0.82617c-1.2348-0.39481-1.7704-0.12994-2.2012 0.91016-0.85772 2.0742-1.7163 4.1493-2.5762 6.2227-0.4309 1.0401-0.24218 1.6057 0.91016 2.1992l2.4062 1.2402a19.104 19.104 0 0 0-0.13281 2.1465 19.104 19.104 0 0 0 0.14453 2.1406l-2.418 1.248c-1.1523 0.59349-1.3411 1.1591-0.91016 2.1992 0.86069 2.0734 1.7177 4.1484 2.5762 6.2227 0.43081 1.0401 0.96639 1.305 2.2012 0.91016l2.5664-0.82226a19.104 19.104 0 0 0 3.0508 3.0273l-0.82812 2.584c-0.39566 1.2354-0.12799 1.7707 0.91211 2.2012 2.0742 0.85755 4.1493 1.7169 6.2227 2.5762 1.0401 0.43132 1.6049 0.24201 2.1992-0.91016l1.2402-2.4062a19.104 19.104 0 0 0 2.1465 0.13281 19.104 19.104 0 0 0 2.1406-0.14453l1.2461 2.418c0.59434 1.1522 1.1591 1.3415 2.1992 0.91016 2.0734-0.8601 4.1484-1.7178 6.2227-2.5762 1.0401-0.43047 1.3078-0.96579 0.91211-2.2012l-0.82226-2.5664a19.104 19.104 0 0 0 3.0273-3.0488l2.584 0.82617c1.2345 0.39481 1.7698 0.12994 2.2012-0.91016 0.85755-2.0751 1.7161-4.1504 2.5762-6.2246 0.43047-1.0401 0.24201-1.6057-0.91016-2.1992l-2.4062-1.2383a19.104 19.104 0 0 0 0.13281-2.1484 19.104 19.104 0 0 0-0.14453-2.1406l2.418-1.2461c1.1522-0.59349 1.3406-1.1611 0.91016-2.2012-0.86094-2.0725-1.7178-4.1465-2.5762-6.2207-0.43132-1.0401-0.96664-1.3069-2.2012-0.91211l-2.5664 0.82226a19.104 19.104 0 0 0-3.0488-3.0273l0.82617-2.584c0.39567-1.2345 0.12798-1.7703-0.91211-2.2012-2.0742-0.85763-4.1493-1.7162-6.2227-2.5762-0.29229-0.12118-0.5465-0.19336-0.77539-0.20898zm-4.8105 6.7891 13.586 7.6406v7.2168l-5.9453-2.1211v-1.6992l-7.6406-4.2461-5.9434 3.3965 19.529 6.793v6.793l-13.586 7.6406-13.584-7.6406v-7.2168l5.9434 2.123v1.6973l7.6406 4.2461 5.9434-3.3965-19.527-6.793v-6.793l13.584-7.6406z" fill="#fffffc" stroke-width=".84906"/>
</svg>
