<?xml version="1.0" encoding="UTF-8"?>
<svg width="64" height="64" version="1.1" xmlns="http://www.w3.org/2000/svg" xmlns:cc="http://creativecommons.org/ns#" xmlns:dc="http://purl.org/dc/elements/1.1/" xmlns:rdf="http://www.w3.org/1999/02/22-rdf-syntax-ns#" xmlns:xlink="http://www.w3.org/1999/xlink">
 <metadata>
  <rdf:RDF>
   <cc:Work rdf:about="">
    <dc:format>image/svg+xml</dc:format>
    <dc:type rdf:resource="http://purl.org/dc/dcmitype/StillImage"/>
   </cc:Work>
  </rdf:RDF>
 </metadata>
 <defs>
  <linearGradient id="linearGradient1115" x1="-29.448" x2="-29.448" y1="4.6371" y2="59.494" gradientTransform="translate(63.693)" gradientUnits="userSpaceOnUse">
   <stop stop-color="#e2222f" offset="0"/>
   <stop stop-color="#bd1924" offset="1"/>
  </linearGradient>
 </defs>
 <rect x="4.5" y="4.5" width="55" height="55" ry="13" fill="url(#linearGradient1115)" image-rendering="optimizeSpeed" stroke-width=".47292"/>
 <g transform="matrix(.81818 0 0 .81818 66.683 5.8182)" fill="#fff" stroke-width=".94828">
  <circle cx="-43.339" cy="7.819" r="3.319"/>
  <path d="m-43.812 13.035a22.759 22.759 0 0 0-22.76 22.758 22.759 22.759 0 0 0 22.76 22.758 22.759 22.759 0 0 0 22.758-22.758 22.759 22.759 0 0 0-22.758-22.758zm0 4.7402 15.172 8.5352v8.0625l-6.6387-2.373v-1.8965l-8.5332-4.7422-6.6387 3.793 21.811 7.5879v7.5859l-15.172 8.5332-15.172-8.5332v-8.0117l6.6367 2.3223v1.8965l8.5352 4.7402 6.6367-3.793-21.809-7.5859v-7.5859z"/>
  <circle cx="-20.58" cy="54.284" r="5.2155"/>
  <circle cx="-67.046" cy="52.388" r="2.3707"/>
 </g>
</svg>
