<?xml version="1.0" encoding="UTF-8"?>
<svg width="64" height="64" version="1.1" xmlns="http://www.w3.org/2000/svg" xmlns:cc="http://creativecommons.org/ns#" xmlns:dc="http://purl.org/dc/elements/1.1/" xmlns:rdf="http://www.w3.org/1999/02/22-rdf-syntax-ns#">
 <metadata>
  <rdf:RDF>
   <cc:Work rdf:about="">
    <dc:format>image/svg+xml</dc:format>
    <dc:type rdf:resource="http://purl.org/dc/dcmitype/StillImage"/>
   </cc:Work>
  </rdf:RDF>
 </metadata>
 <defs>
  <linearGradient id="b" x1="25.869" x2="24.539" y1="39.24" y2="10.624" gradientTransform="matrix(1.3028 0 0 1.3028 -5.3494 4.5378)" gradientUnits="userSpaceOnUse">
   <stop stop-color="#1973c8" offset="0"/>
   <stop stop-color="#3ca0f0" offset="1"/>
  </linearGradient>
  <linearGradient id="d" x1="27.04" x2="24.839" y1="16.621" y2="17.991" gradientTransform="matrix(1.3028 0 0 1.3028 -5.3493 4.5377)" gradientUnits="userSpaceOnUse">
   <stop stop-color="#fff" offset="0"/>
   <stop stop-color="#afd2f5" offset="1"/>
  </linearGradient>
  <linearGradient id="g" x1="3.783" x2="19.574" y1="23.644" y2="22.495" gradientTransform="matrix(1.3028 0 0 1.3028 -5.3493 4.5377)" gradientUnits="userSpaceOnUse">
   <stop stop-color="#2980b9" offset="0"/>
   <stop stop-color="#34495e" offset="1"/>
  </linearGradient>
  <linearGradient id="c" x1="29.507" x2="35.895" y1="28.849" y2="32.639" gradientUnits="userSpaceOnUse">
   <stop offset="0"/>
   <stop stop-opacity="0" offset="1"/>
  </linearGradient>
  <filter id="h" x="-.023485" y="-.024538" width="1.047" height="1.0491" color-interpolation-filters="sRGB">
   <feGaussianBlur stdDeviation="0.29216796"/>
  </filter>
  <linearGradient id="linearGradient1115" x1="-4.1931" x2="-59.193" y1="4.5" y2="59.5" gradientTransform="matrix(1 0 0 1 63.694 -.00075568)" gradientUnits="userSpaceOnUse">
   <stop stop-color="#fff" offset="0"/>
   <stop stop-color="#e1e5ea" offset="1"/>
  </linearGradient>
 </defs>
 <rect x="4.4996" y="4.4996" width="55.001" height="55.001" ry="13" fill="url(#linearGradient1115)" image-rendering="optimizeSpeed" stroke-width=".4729"/>
 <g transform="matrix(1.3028 0 0 1.3028 -5.3493 4.5377)" color="#000000" stroke-linejoin="round" stroke-width="2.3027">
  <path d="m40.01 13.424-26.867 24.652a18.5 18.5 0 0 0 11.357 3.9238 18.5 18.5 0 0 0 18.5-18.5 18.5 18.5 0 0 0-2.9902-10.076" fill="url(#c)" filter="url(#h)" opacity=".2" stroke-width="2.3027"/>
 </g>
 <g fill-rule="evenodd">
  <path d="m4.5 42.457v4.043c0 0.22507 0.0044346 0.44968 0.015625 0.67188s0.028669 0.44111 0.050781 0.66016c0.044225 0.43809 0.11096 0.87102 0.19727 1.2949 0.086305 0.42391 0.19212 0.84047 0.31836 1.248 0.12624 0.40757 0.27152 0.80622 0.43555 1.1953 0.16403 0.3891 0.3472 0.76825 0.54688 1.1367 0.19967 0.36847 0.41722 0.72656 0.65039 1.0723 0.23317 0.3457 0.48157 0.67921 0.74609 1s0.54416 0.62815 0.83789 0.92188c0.29373 0.29373 0.60109 0.57337 0.92188 0.83789 0.32079 0.26452 0.6543 0.51293 1 0.74609 0.3457 0.23317 0.70379 0.45072 1.0723 0.65039 0.36847 0.19967 0.74762 0.38285 1.1367 0.54688 0.3891 0.16403 0.78774 0.30931 1.1953 0.43555s0.82414 0.23205 1.248 0.31836 0.85683 0.15304 1.2949 0.19727c0.21905 0.022112 0.43796 0.039591 0.66016 0.050781s0.44681 0.015625 0.67188 0.015625h15.287c0.28679-1.6376 0.53081-3.1222 0.60352-3.8789 0.56541-0.83118 1.3262-0.8418 1.3262-0.8418s-0.97727-2.7697-0.88086-6.1035c0.12116-0.7908 0.32733-1.5354 0.58789-2.2441h0.98438s-0.12465-1.3599 0.43164-2.7422c1.8304-2.7828 4.3295-4.6428 5.3965-5.4609 1.0058-0.77256 5.6407-1.9569 6.6191-2.1875s1.8997-1.7869 1.957-2.248c0.0573-0.4611-0.28711-1.3242-0.28711-1.3242l-2.5898-0.57422-3.1348-0.35352s4.303-6.3746 5.0781-7.1133c0.82206-0.78298 1.2227-1.7469 1.2227-2.668s-0.67773-2.1602-0.67773-2.1602-0.77862-0.39391-2.0488-0.3457c-0.21236 0.0078-0.43021-0.021465-0.66602-0.041015h-0.003906c-0.1179-0.0098-0.23968-0.017898-0.36719-0.017579-0.12751 3.26e-4 -0.26164 0.007797-0.40234 0.029297-2.246 0.34524-7.3539 2.2459-8.9668 2.6484-1.6116 0.40256-2.3664 0.76446-4.9512 0.51953-2.9469-0.2788-4.2717-0.29754-5.0469-0.27539-1.1608-0.10292-1.7461-0.35742-1.7461-0.35742l0.10156 1.1426c-0.77126 0.58886-2.3251 1.4461-5.5156 2.3125-2.0727 0.2306-3.7989-0.40397-4.8359 0.17188-1.0357 0.57584-4.3181 2.0154-5.9883 2.418-1.6702 0.40256-2.9064 1.158-3.9082 1.4863-1.5907 0.51851 3.1525 8.1199 5.2109 9.1191 0 0-0.7126 0.74052-1.3027 1.3594-1.4318 0.9784-2.5605 1.043-2.5605 1.043l0.072266 0.78516c-0.70199 0.373-1.3832 0.6442-1.998 0.85938z" fill="url(#b)"/>
  <path d="m49.694 20.171s-0.40778-0.36609-0.85464-0.40778c-0.44816-0.04039-1.3849 0.12246-1.6689 0.08208-0.28531-0.04039-1.2624-0.61101-1.2624-0.61101s1.3028-0.73348 1.751-0.81425c0.44816-0.08208 1.222-0.20324 1.222-0.20324s0.3257 0.40778 0.57063 0.9771c0.24493 0.57063 0.24493 0.9771 0.24493 0.9771" fill="#2c3e50"/>
  <path d="m48.049 32.196c-0.87939 0.11725-1.0488 0.01954-1.0488 0.01954s0.20324-0.92108 0.42341-0.99925c0.22017-0.07817 0.86245 0.92108 0.62534 0.9797" fill="#fcfcfc"/>
  <path d="m49.246 24.039s-2.8909 1.3849-4.2745 3.5423c-1.3849 2.1574-2.362 4.3566-2.362 4.3566s0.9771 0.20324 1.8734 0.52894c0.89633 0.3257 2.5248 0.40778 3.2166 0.28531s0.89633-0.44816 0.20324-0.73348c-0.69179-0.28531-1.7106-0.48855-1.751-1.0996-0.04039-0.61101 1.2624-4.1533 1.6285-4.7226 0.36609-0.57063 1.4656-2.1574 1.4656-2.1574" fill="#2c3e50"/>
  <path d="m23.883 31.082s3.5814-0.53936 4.9454-1.3549c4.4478-2.6577 4.2966-4.1416 4.2966-4.1416s-4.7044-1.8825-7.9575 1.9985c-1.3614 1.6246-1.2846 3.498-1.2846 3.498" fill="#34495e"/>
  <path d="m25.223 29.473s3.5697-0.71914 4.8946-1.6989c1.3236-0.9784 1.8708-1.4969 1.6989-1.8422-0.17327-0.34524-1.4683-0.86376-3.0798-0.46119-1.6116 0.40256-2.7632 1.5542-3.0798 2.2747-0.31658 0.71914-0.63316 1.4969-0.43123 1.7275" fill="url(#d)"/>
  <path d="m45.403 32.777c1.3158 0.15112 1.5634 0.02475 1.5634 0.02475s-0.30225-1.1855-0.63056-1.2859c-0.3283-0.10032-1.2859 1.1855-0.9328 1.2611" fill="#fcfcfc"/>
  <path d="m10.672 36.841c1.3158 1.0084 4.638 1.6024 6.2678 1.3653 3.8446-0.56151 4.0426-0.27359 3.115-2.7268-0.66964-1.7705-4.5598-3.5827-7.1654-0.9771l-1.3028-1.3028c0.77256-1.1126-0.6514-3.7052-1.3028-3.9084-0.6514-0.20324-3.7247 0.63316-4.01 0.91847-0.28531 0.28531 3.0863 5.6242 4.3983 6.6326" fill="url(#g)"/>
 </g>
</svg>
