<?xml version="1.0" encoding="UTF-8"?>
<svg width="64" height="64" version="1.1" viewBox="0 0 16.933 16.933" xmlns="http://www.w3.org/2000/svg" xmlns:cc="http://creativecommons.org/ns#" xmlns:dc="http://purl.org/dc/elements/1.1/" xmlns:rdf="http://www.w3.org/1999/02/22-rdf-syntax-ns#">
 <defs>
  <linearGradient id="linearGradient1448" x1="3.9687" x2="3.9687" y1="15.338" y2=".54085" gradientTransform="matrix(.91666 0 0 .91666 .70539 -16.231)" gradientUnits="userSpaceOnUse">
   <stop stop-color="#333132" offset="0"/>
   <stop stop-color="#212427" offset="1"/>
  </linearGradient>
 </defs>
 <metadata>
  <rdf:RDF>
   <cc:Work rdf:about="">
    <dc:format>image/svg+xml</dc:format>
    <dc:type rdf:resource="http://purl.org/dc/dcmitype/StillImage"/>
   </cc:Work>
  </rdf:RDF>
 </metadata>
 <rect transform="scale(1,-1)" x="1.1905" y="-15.742" width="14.552" height="14.552" ry="3.4395" fill="url(#linearGradient1448)" stroke-opacity=".95294" stroke-width=".083152"/>
 <path d="m6.8782 3.9741a0.26352 0.26352 0 0 0-0.18389 0.45217l0.46831 0.46831a2.3786 2.3786 0 0 0-1.0152 1.4605h4.6381a2.3794 2.3794 0 0 0-1.1803-1.56l0.36936-0.36883a0.26352 0.26352 0 0 0-0.18389-0.45244 0.26352 0.26352 0 0 0-0.18865 0.07964l-0.52864 0.52864a2.3707 2.3707 0 0 0-1.415 0.062971l-0.59161-0.59161a0.26352 0.26352 0 0 0-0.18865-0.079375zm0.79481 1.3229a0.26458 0.26458 0 0 1 0.26458 0.26458 0.26458 0.26458 0 0 1-0.26458 0.26458 0.26458 0.26458 0 0 1-0.26458-0.26458 0.26458 0.26458 0 0 1 0.26458-0.26458zm1.5875 0a0.26458 0.26458 0 0 1 0.26458 0.26458 0.26458 0.26458 0 0 1-0.26458 0.26458 0.26458 0.26458 0 0 1-0.26458-0.26458 0.26458 0.26458 0 0 1 0.26458-0.26458zm-4.2333 1.5875c-0.29316 0-0.52917 0.23601-0.52917 0.52917v1.8521c0 0.29316 0.23601 0.52917 0.52917 0.52917s0.52917-0.23601 0.52917-0.52917v-1.8521c0-0.29316-0.23601-0.52917-0.52917-0.52917zm1.0583 0v3.7042c0 0.43974 0.35401 0.79375 0.79375 0.79375h0.26458v1.0583c0 0.29316 0.23601 0.52917 0.52917 0.52917s0.52917-0.23601 0.52917-0.52917v-1.0583h0.52917v1.0583c0 0.29316 0.23601 0.52917 0.52917 0.52917s0.52917-0.23601 0.52917-0.52917v-1.0583h0.26458c0.43974 0 0.79375-0.35401 0.79375-0.79375v-3.7042zm5.8208 0c-0.29316 0-0.52917 0.23601-0.52917 0.52917v1.8521c0 0.29316 0.23601 0.52917 0.52917 0.52917s0.52917-0.23601 0.52917-0.52917v-1.8521c0-0.29316-0.23601-0.52917-0.52917-0.52917z" fill="#fff" stroke-width=".26458"/>
</svg>
