<?xml version="1.0" encoding="UTF-8"?>
<svg width="64" height="64" version="1.1" viewBox="0 0 16.933 16.933" xmlns="http://www.w3.org/2000/svg" xmlns:cc="http://creativecommons.org/ns#" xmlns:dc="http://purl.org/dc/elements/1.1/" xmlns:rdf="http://www.w3.org/1999/02/22-rdf-syntax-ns#">
 <defs>
  <linearGradient id="linearGradient1047" x1="149.02" x2="149.02" y1="59.192" y2="25.95" gradientTransform="matrix(1 0 0 1 -116.82 2.5573)" gradientUnits="userSpaceOnUse">
   <stop stop-color="#16a085" offset="0"/>
   <stop stop-color="#2ecc85" offset="1"/>
  </linearGradient>
  <linearGradient id="linearGradient1448" x1="3.9687" x2="3.9687" y1="15.338" y2=".54085" gradientTransform="matrix(.91666 0 0 .91666 .70539 -16.23)" gradientUnits="userSpaceOnUse">
   <stop stop-color="#333132" offset="0"/>
   <stop stop-color="#212427" offset="1"/>
  </linearGradient>
 </defs>
 <metadata>
  <rdf:RDF>
   <cc:Work rdf:about="">
    <dc:format>image/svg+xml</dc:format>
    <dc:type rdf:resource="http://purl.org/dc/dcmitype/StillImage"/>
   </cc:Work>
  </rdf:RDF>
 </metadata>
 <rect transform="scale(1,-1)" x="1.1905" y="-15.742" width="14.552" height="14.552" ry="3.4395" fill="url(#linearGradient1448)" stroke-opacity=".95294" stroke-width=".083152"/>
 <path transform="scale(.26458)" d="m19.43 28.414c-0.06755-0.0014-0.13545 0.0013-0.20313 0.0098-0.18047 0.0224-0.3594 0.08127-0.52734 0.17773-0.67171 0.38782-0.89954 1.2404-0.51172 1.9121l4.6016 7.9707c-7.0385 2.9078-11.654 9.4321-11.654 19.361 1.8794 1.0529 4.0494 1.6543 6.3652 1.6543h29c2.3142 0 4.4828-0.60079 6.3613-1.6523 0-9.9926-4.6122-16.453-11.65-19.363l4.6016-7.9707c0.38779-0.67175 0.15804-1.5243-0.51367-1.9121-0.25187-0.14542-0.53025-0.20415-0.79883-0.18555-0.44762 0.03099-0.87086 0.27745-1.1133 0.69726l-4.8945 8.4766c-1.9264-0.49811-4.0726-0.79102-6.4941-0.79102-2.4219 0-4.5677 0.2929-6.4941 0.79102l-4.8906-8.4766c-0.2545-0.44088-0.71078-0.68928-1.1836-0.69922zm4.123 16.705c0.01236-8e-5 0.02475-8e-5 0.03711 0 1.5463-4.39e-4 2.8001 1.2526 2.8008 2.7988 4.38e-4 1.547-1.2537 2.8012-2.8008 2.8008-1.547 4.38e-4 -2.8012-1.2537-2.8008-2.8008 5.13e-4 -1.5319 1.2319-2.779 2.7637-2.7988zm16.801 0c0.01247 0 0.02464-8e-5 0.03711 0 1.5455 6.46e-4 2.7982 1.2533 2.7988 2.7988 4.39e-4 1.5463-1.2526 2.8001-2.7988 2.8008-1.547 4.38e-4 -2.8012-1.2537-2.8008-2.8008 5.12e-4 -1.5319 1.2318-2.7988 2.7637-2.7988zm-8.3633 9.7988c3.1782 0 5.7363 0.62478 5.7363 1.4004s-2.5584 1.4004-5.7363 1.4004c-3.1781 0-5.7363-0.62478-5.7363-1.4004s2.5584-1.4004 5.7363-1.4004z" fill="url(#linearGradient1047)"/>
 <rect x="6.027" y="4.0491" width=".96864" height="2.6548" ry=".48432" fill="#2ecc85" fill-rule="evenodd" stroke-width=".26458" style="paint-order:stroke fill markers"/>
 <rect x="9.9378" y="4.0491" width=".96864" height="2.6548" ry=".48432" fill="#2ecc85" fill-rule="evenodd" stroke-width=".26458" style="paint-order:stroke fill markers"/>
</svg>
