<?xml version="1.0" encoding="UTF-8"?>
<svg width="64" height="64" version="1.1" viewBox="0 0 16.933 16.933" xmlns="http://www.w3.org/2000/svg" xmlns:cc="http://creativecommons.org/ns#" xmlns:dc="http://purl.org/dc/elements/1.1/" xmlns:rdf="http://www.w3.org/1999/02/22-rdf-syntax-ns#" xmlns:xlink="http://www.w3.org/1999/xlink">
 <defs>
  <linearGradient id="linearGradient1448" x1="3.9687" x2="3.9687" y1="8.9776" y2=".54085" gradientTransform="matrix(.91666 0 0 .91666 .70542 .70542)" gradientUnits="userSpaceOnUse">
   <stop stop-color="#5564ff" offset="0"/>
   <stop stop-color="#7841ff" offset="1"/>
  </linearGradient>
  <linearGradient id="linearGradient868" x1="30.207" x2="14" y1="43" y2="10" gradientTransform="matrix(1.6623 0 0 1.6623 -4.749 -5.9103)" gradientUnits="userSpaceOnUse">
   <stop stop-color="#e4eef6" offset="0"/>
   <stop stop-color="#f1f1f1" offset="1"/>
  </linearGradient>
 </defs>
 <metadata>
  <rdf:RDF>
   <cc:Work rdf:about="">
    <dc:format>image/svg+xml</dc:format>
    <dc:type rdf:resource="http://purl.org/dc/dcmitype/StillImage"/>
    <dc:title/>
   </cc:Work>
  </rdf:RDF>
 </metadata>
 <rect x="1.1905" y="1.1905" width="14.552" height="14.552" ry="3.4395" fill="url(#linearGradient1448)" stroke-opacity=".95294" stroke-width=".083152"/>
 <path transform="scale(.26458)" d="m4.5 44.631v1.8691c0 0.90025 0.091067 1.7792 0.26367 2.627s0.42586 1.6652 0.75391 2.4434c0.65609 1.5563 1.6064 2.956 2.7812 4.1309s2.5745 2.1252 4.1309 2.7812c0.77817 0.32804 1.5956 0.5813 2.4434 0.75391s1.7267 0.26367 2.627 0.26367h17.955c-0.11529-2.1586-0.5333-4.4042-1.9492-6.2324-3.0535-3.9506-7.0882-17.297-0.021484-20.943 0 0 4.4661 6.2684 9.7109 6.877 0 0 0.61215 5.373 6.9512 1.9609 1.6918-0.90677 2.3205-3.9074 0.61328-6.3418l-1.3438-1.9453s-4.4497-10.687-7.6191-13.85c0 0-1.6623-4.9877 0-8.3125 0 0-1.884 1.3991-2.4941 2.4941 0 0 0.42401-3.5482 1.0352-4.1543-0.004264 0.0029245-5.3143 3.6448-5.6777 5.7129 0 0-11.244-3.5545-21.123 5.9219h4.9863s-13.072 8.1692-13.299 13.299c0.22727-0.14287 2.4042-1.2771 3.3262-1.6621 0 0-3.265 6.1954-4.0508 12.307z" fill="url(#linearGradient868)"/>
</svg>
