<?xml version="1.0" encoding="UTF-8"?>
<svg width="64" height="64" version="1.1" viewBox="0 0 16.933 16.933" xmlns="http://www.w3.org/2000/svg" xmlns:cc="http://creativecommons.org/ns#" xmlns:dc="http://purl.org/dc/elements/1.1/" xmlns:rdf="http://www.w3.org/1999/02/22-rdf-syntax-ns#">
 <defs>
  <linearGradient id="linearGradient1448" x1="3.9687" x2="3.9687" y1="15.338" y2=".54085" gradientTransform="matrix(.91666 0 0 .91666 .70539 -16.228)" gradientUnits="userSpaceOnUse">
   <stop stop-color="#333132" offset="0"/>
   <stop stop-color="#212427" offset="1"/>
  </linearGradient>
 </defs>
 <metadata>
  <rdf:RDF>
   <cc:Work rdf:about="">
    <dc:format>image/svg+xml</dc:format>
    <dc:type rdf:resource="http://purl.org/dc/dcmitype/StillImage"/>
    <dc:title/>
   </cc:Work>
  </rdf:RDF>
 </metadata>
 <rect transform="scale(1,-1)" x="1.1905" y="-15.743" width="14.552" height="14.552" ry="3.4395" fill="url(#linearGradient1448)" stroke-opacity=".95294" stroke-width=".083152"/>
 <path d="m12.833 12.3c0.14657 0 0.26458-0.11801 0.26458-0.26459v-4.498c0-0.14657-0.11801-0.26459-0.26458-0.26459h-1.5875v3.7043c0 0.14658-0.11801 0.2646-0.26458 0.2646h-2.6459c-0.14657 0-0.26459-0.11801-0.26459-0.2646v-3.7043h-1.5875c-0.14657 0-0.26459 0.11801-0.26459 0.26459v4.498c0 0.14657 0.11801 0.26459 0.26459 0.26459z" fill="#fdc409" style="paint-order:stroke fill markers"/>
 <path d="m5.688 7.2784v2.3813l2.3813-2.3813z" fill="#b61f1d" stroke-width=".26458" style="paint-order:stroke fill markers"/>
 <path d="m4.1005 4.6301c-0.14657 0-0.26459 0.11801-0.26459 0.26459v4.498c0 0.14657 0.11801 0.26458 0.26459 0.26458h1.5875v-3.7043c0-0.14658 0.11801-0.2646 0.26459-0.2646h2.6459c0.14657 0 0.26458 0.11801 0.26458 0.2646v3.7043h1.5875c0.14657 0 0.26458-0.11801 0.26458-0.26458v-4.498c0-0.14657-0.11801-0.26459-0.26458-0.26459z" fill="#e5381f" style="paint-order:stroke fill markers"/>
 <path d="m11.244 7.2784-2.3813 2.3813h2.3813z" fill="#e76f08" stroke-width=".26458" style="paint-order:stroke fill markers"/>
 <rect x="11.51" y="5.4201" width="1.0583" height="1.0583" ry="0" fill="#e76f08" style="paint-order:stroke fill markers"/>
 <rect transform="rotate(45)" x="10.695" y="3.7728" width="1.0583" height="1.0583" ry="0" fill="#f6aa08" style="paint-order:stroke fill markers"/>
</svg>
