<?xml version="1.0" encoding="UTF-8"?>
<svg width="64" height="64" version="1.1" viewBox="0 0 16.933 16.933" xmlns="http://www.w3.org/2000/svg" xmlns:cc="http://creativecommons.org/ns#" xmlns:dc="http://purl.org/dc/elements/1.1/" xmlns:rdf="http://www.w3.org/1999/02/22-rdf-syntax-ns#" xmlns:xlink="http://www.w3.org/1999/xlink">
 <defs>
  <filter id="filter4211" x="-.081843" y="-.069213" width="1.1637" height="1.1384" color-interpolation-filters="sRGB">
   <feGaussianBlur stdDeviation="0.74987949"/>
  </filter>
  <linearGradient id="linearGradient2116" x1="59.5" x2="4.5" y1="4.5" y2="59.5" gradientTransform="scale(.26458)" gradientUnits="userSpaceOnUse">
   <stop stop-color="#37beff" offset="0"/>
   <stop stop-color="#00a0ff" offset="1"/>
  </linearGradient>
 </defs>
 <metadata>
  <rdf:RDF>
   <cc:Work rdf:about="">
    <dc:format>image/svg+xml</dc:format>
    <dc:type rdf:resource="http://purl.org/dc/dcmitype/StillImage"/>
    <dc:title/>
   </cc:Work>
  </rdf:RDF>
 </metadata>
 <rect x="1.1906" y="1.1906" width="14.552" height="14.552" ry="3.4395" fill="url(#linearGradient2116)" stroke-width=".56196"/>
 <path transform="matrix(.31059 0 0 .31059 1.013 .7015)" d="m32.02 12.02c-0.652 0.18-1.746 1.621-2.301 1.727-0.637 0.121-2.535-1.133-2.977-0.668-0.438 0.469 0.953 2.305 0.875 2.941-0.082 0.633-1.898 2.066-1.586 2.625 0.313 0.555 2.508-0.191 3.09 0.078 0.586 0.27 1.391 2.391 2.023 2.27 0.633-0.121 0.59-2.391 1.031-2.859 0.441-0.465 2.738-0.578 2.816-1.215 0.078-0.633-2.105-1.281-2.422-1.84-0.313-0.559 0.27-2.789-0.316-3.059-0.07-0.031-0.145-0.023-0.238 0" fill="#000097" fill-opacity=".29804" filter="url(#filter4211)" opacity=".5"/>
 <path transform="matrix(.31059 0 0 .31059 1.013 .7015)" d="m21.07 20c-1.27 0.176-1.438 4.789-2.363 5.68-0.926 0.891-5.469 0.852-5.695 2.121-0.227 1.266 4.04 2.863 4.602 4.03 0.559 1.16-0.879 5.496 0.25 6.102 1.133 0.609 3.965-3 5.234-3.176 1.27-0.176 4.941 2.543 5.863 1.652 0.93-0.891-1.617-4.707-1.391-5.977 0.227-1.273 3.934-3.926 3.375-5.082-0.559-1.16-4.945 0.098-6.074-0.512-1.133-0.609-2.527-5.01-3.801-4.828" fill="#000097" fill-opacity=".29804" filter="url(#filter4211)" opacity=".5"/>
 <path d="m10.958 4.4349c-0.20251 0.055907-0.5423 0.50347-0.71468 0.5364-0.19785 0.03758-0.78736-0.3519-0.92464-0.20748-0.13604 0.14567 0.296 0.71592 0.27177 0.91346-0.025469 0.19661-0.58951 0.64169-0.4926 0.81531 0.097216 0.17238 0.77897-0.05932 0.95974 0.02422 0.18201 0.08386 0.43204 0.74263 0.62833 0.70505 0.19661-0.03758 0.18325-0.74263 0.32022-0.88799 0.13697-0.14443 0.85041-0.17952 0.87463-0.37737 0.02423-0.19661-0.6538-0.39787-0.75226-0.57149-0.09722-0.17362 0.08386-0.86625-0.09815-0.95011-0.02174-0.00963-0.04504-0.00714-0.07392 0" fill="#fcfcfc" stroke-width=".31059"/>
 <path d="m7.5572 6.9138c-0.39445 0.05466-0.44663 1.4874-0.73393 1.7642-0.28761 0.27674-1.6986 0.26463-1.7688 0.65877-0.070505 0.39321 1.2548 0.88923 1.4294 1.2517 0.17362 0.36029-0.27301 1.707 0.077649 1.8952 0.3519 0.18915 1.2315-0.93178 1.6257-0.98645 0.39445-0.05466 1.5346 0.78984 1.821 0.5131 0.28885-0.27674-0.50223-1.462-0.43204-1.8564 0.070505-0.39539 1.2219-1.2194 1.0483-1.5784-0.17362-0.36029-1.5359 0.03044-1.8865-0.15902-0.3519-0.18915-0.78487-1.5561-1.1806-1.4995" fill="#fcfcfc" stroke-width=".31059"/>
</svg>
