<?xml version="1.0" encoding="UTF-8"?>
<svg width="64" height="64" version="1.1" viewBox="0 0 16.933 16.933" xmlns="http://www.w3.org/2000/svg" xmlns:cc="http://creativecommons.org/ns#" xmlns:dc="http://purl.org/dc/elements/1.1/" xmlns:rdf="http://www.w3.org/1999/02/22-rdf-syntax-ns#">
 <defs>
  <linearGradient id="linearGradient1115" x1="-4.1931" x2="-59.193" y1="4.5" y2="59.5" gradientTransform="matrix(.26458 0 0 .26458 16.852 -.00022608)" gradientUnits="userSpaceOnUse">
   <stop stop-color="#fff" offset="0"/>
   <stop stop-color="#e1e5ea" offset="1"/>
  </linearGradient>
 </defs>
 <metadata>
  <rdf:RDF>
   <cc:Work rdf:about="">
    <dc:format>image/svg+xml</dc:format>
    <dc:type rdf:resource="http://purl.org/dc/dcmitype/StillImage"/>
   </cc:Work>
  </rdf:RDF>
 </metadata>
 <rect x="1.1905" y="1.1905" width="14.552" height="14.552" ry="3.4395" fill="url(#linearGradient1115)" image-rendering="optimizeSpeed" stroke-width=".12512"/>
 <g transform="matrix(.72726 0 0 .72726 2.1494 2.9026)" stroke-width=".90952">
  <path d="m6.8671 2.1935c-0.28585 0-0.57181 0.10672-0.78549 0.3204l-4.3512 4.3512c-0.42738 0.42736-0.42673 1.143 6.614e-4 1.5703l4.3512 4.3512c0.42738 0.42736 1.143 0.428 1.5703 6.62e-4l4.3512-4.3512c0.42738-0.42736 0.42738-1.1436 0-1.571l-4.3512-4.3512c-0.21368-0.21368-0.49964-0.3204-0.78549-0.3204zm0.00324 1.8184c0.073931 0 0.14748 0.027973 0.20412 0.084621l3.3493 3.3493c0.1133 0.1133 0.1133 0.2956 0 0.4089l-3.3493 3.3487c-0.1133 0.1133-0.2956 0.1133-0.4089 0l-3.3487-3.3487c-0.1133-0.1133-0.1133-0.2956 0-0.4089l3.3487-3.3493c0.05665-0.05665 0.13084-0.084621 0.20477-0.084621z" fill="#8e8e8e"/>
  <path d="m10.505 2.1934c-0.28585 0-0.57191 0.10655-0.7856 0.32023l-4.3511 4.3517c-0.42738 0.42736-0.42676 1.1426 6.085e-4 1.5699l4.3511 4.3517c0.42738 0.42736 1.1432 0.42796 1.5706 6.09e-4l4.3512-4.3517c0.42738-0.42736 0.42738-1.1432 0-1.5705l-4.3511-4.3517c-0.21368-0.21368-0.49974-0.32023-0.7856-0.32023z" fill="#e52e38"/>
 </g>
</svg>
