<?xml version="1.0" encoding="UTF-8"?>
<svg width="64" height="64" version="1" xmlns="http://www.w3.org/2000/svg" xmlns:cc="http://creativecommons.org/ns#" xmlns:dc="http://purl.org/dc/elements/1.1/" xmlns:rdf="http://www.w3.org/1999/02/22-rdf-syntax-ns#">
 <defs>
  <linearGradient id="linearGradient1448" x1="3.9687" x2="3.9687" y1="15.338" y2=".54085" gradientTransform="matrix(3.4646 0 0 3.4646 2.6661 -61.341)" gradientUnits="userSpaceOnUse">
   <stop stop-color="#333132" offset="0"/>
   <stop stop-color="#212427" offset="1"/>
  </linearGradient>
 </defs>
 <metadata>
  <rdf:RDF>
   <cc:Work rdf:about="">
    <dc:format>image/svg+xml</dc:format>
    <dc:type rdf:resource="http://purl.org/dc/dcmitype/StillImage"/>
   </cc:Work>
  </rdf:RDF>
 </metadata>
 <rect transform="scale(1,-1)" x="4.4996" y="-59.5" width="55.001" height="55.001" ry="13" fill="url(#linearGradient1448)" stroke-opacity=".95294" stroke-width=".31428"/>
 <g transform="matrix(.66669 0 0 .66669 10.667 10.667)" stroke-width="1.0714">
  <path d="m32.163 2.0019c-1.2716-0.030283-2.5272 0.28455-3.6292 0.91003l-20.391 11.588c-2.1444 1.2186-3.4654 3.4709-3.4652 5.9083v23.179c-1.1e-6 2.4371 1.3208 4.6892 3.4649 5.9077l20.969 6.3303c2.1441 1.2186 4.7857 1.2186 6.9298 0l13.334-7.8165c2.1444-1.2186 3.4654-3.4709 3.4652-5.9083l6.4784-21.693c1.56e-4 -2.4374-1.3208-4.6897-3.4652-5.9083l-20.391-11.588c-1.0056-0.57073-2.1408-0.88365-3.3013-0.91003z" fill="#17c7e1"/>
  <path d="m58.727 17.658-52.64 30.035a6.9298 6.8216 0 0 0 2.0573 1.8017l20.39 11.589a6.9298 6.8216 0 0 0 6.931 0l20.39-11.589a6.9298 6.8216 0 0 0 3.4654-5.9061v-23.179a6.9298 6.8216 0 0 0-0.59289-2.7509z" fill="#546bdc"/>
  <path d="m58.727 17.658-52.641 30.035a6.9298 6.8216 0 0 0 0.63614 0.70938l52.005-29.672a6.9298 6.8216 0 0 1 0.5922 2.7518v-1.0714a6.9298 6.8216 0 0 0-0.5922-2.7518z" opacity=".1"/>
 </g>
</svg>
