<?xml version="1.0" encoding="UTF-8"?>
<svg width="64" height="64" version="1" xmlns="http://www.w3.org/2000/svg" xmlns:cc="http://creativecommons.org/ns#" xmlns:dc="http://purl.org/dc/elements/1.1/" xmlns:rdf="http://www.w3.org/1999/02/22-rdf-syntax-ns#">
 <defs>
  <linearGradient id="linearGradient2040" x1="17.5" x2="46.5" y1="10.5" y2="53.5" gradientTransform="matrix(1 0 0 1 -3e-6 -.0001444)" gradientUnits="userSpaceOnUse">
   <stop stop-color="#80b436" offset="0"/>
   <stop stop-color="#b2cf42" offset="1"/>
  </linearGradient>
 </defs>
 <metadata>
  <rdf:RDF>
   <cc:Work rdf:about="">
    <dc:format>image/svg+xml</dc:format>
    <dc:type rdf:resource="http://purl.org/dc/dcmitype/StillImage"/>
   </cc:Work>
  </rdf:RDF>
 </metadata>
 <path d="m17.5 4.5c-7.202 0-13 5.7979-13 13v29c0 7.202 5.7979 13 13 13h29c7.202 0 13-5.7979 13-13v-29c0-7.202-5.7979-13-13-13z" fill="url(#linearGradient2040)" stroke-linecap="round" stroke-linejoin="round" style="paint-order:stroke fill markers"/>
 <g fill="#527316">
  <path d="m17.5 10.5c-7.0258 0-7 7-7 7h7zm2 0v7h7v-7zm9 0v7h7v-7zm9 0v7h7v-7zm-27 9v7h7v-7zm9 0v7h7v-7zm9 0v7h7v-7zm9 0v7h7v-7zm9 0v7h7v-7zm-36 9v7h7v-7zm9 0v7h7v-7zm9 0v7h7v-7zm9 0v7h7v-7zm9 0v7h7v-7zm-36 9v7h7v-7zm9 0v7h7v-7zm9 0v7h7v-7zm9 0v7h7v-7zm9 0v7h7v-7zm-27 9v7h7v-7zm9 0v7h7v-7zm9 0v7h7v-7zm9 0v7c7.0258 0 7-7 7-7z"/>
  <path d="m46.5 10.5c7.0258 0 7 7 7 7h-7z"/>
  <path d="m17.5 53.5c-7.0258 0-7-7-7-7h7z"/>
 </g>
</svg>
