<?xml version="1.0" encoding="UTF-8"?>
<svg width="64" height="64" version="1.1" xmlns="http://www.w3.org/2000/svg" xmlns:cc="http://creativecommons.org/ns#" xmlns:dc="http://purl.org/dc/elements/1.1/" xmlns:rdf="http://www.w3.org/1999/02/22-rdf-syntax-ns#" xmlns:xlink="http://www.w3.org/1999/xlink">
 <metadata>
  <rdf:RDF>
   <cc:Work rdf:about="">
    <dc:format>image/svg+xml</dc:format>
    <dc:type rdf:resource="http://purl.org/dc/dcmitype/StillImage"/>
   </cc:Work>
  </rdf:RDF>
 </metadata>
 <defs>
  <filter id="filter954-6" x="-.18" y="-.18" width="1.36" height="1.36" color-interpolation-filters="sRGB">
   <feGaussianBlur stdDeviation="0.11906016"/>
  </filter>
  <filter id="filter962-5" x="-.18" y="-.18" width="1.36" height="1.36" color-interpolation-filters="sRGB">
   <feGaussianBlur stdDeviation="0.11906016"/>
  </filter>
  <linearGradient id="linearGradient909" x1="-73.361" x2="-58.736" y1="6.9799" y2="17.198" gradientTransform="matrix(3.4646 0 0 3.4646 262.99 .042883)" gradientUnits="userSpaceOnUse">
   <stop stop-color="#fafafa" offset="0"/>
   <stop stop-color="#e6e6e6" offset="1"/>
  </linearGradient>
  <linearGradient id="linearGradient911" x1="-70.642" x2="-70.642" y2="2.6738" gradientTransform="matrix(3.4646 0 0 3.4646 262.99 4.4585)" gradientUnits="userSpaceOnUse">
   <stop stop-color="#ebebeb" offset="0"/>
   <stop stop-color="#fafafa" offset="1"/>
  </linearGradient>
  <linearGradient id="linearGradient913" x1="-62.705" x2="-62.705" y2="3.8515" gradientTransform="matrix(3.4646 0 0 3.4646 262.99 4.4585)" gradientUnits="userSpaceOnUse">
   <stop stop-color="#ebebeb" offset="0"/>
   <stop stop-color="#fafafa" offset="1"/>
  </linearGradient>
  <linearGradient id="linearGradient1053" x1="1" x2="47" gradientTransform="matrix(0 -.54348 .54348 0 18.957 52.608)" gradientUnits="userSpaceOnUse">
   <stop stop-color="#6c4ac4" offset="0"/>
   <stop stop-color="#7859c9" offset="1"/>
  </linearGradient>
 </defs>
 <path d="m6.334 15.372c-0.90206 0-1.6452 0.64611-1.8008 1.502-0.01122 0.22251-0.0332 0.44258-0.0332 0.66797v29c0 3.582 1.4358 6.8153 3.7637 9.1621h47.473c2.3279-2.3468 3.7637-5.5801 3.7637-9.1621v-29c0-0.22539-0.022-0.44546-0.0332-0.66797-0.15555-0.85584-0.89872-1.502-1.8008-1.502z" fill="#6244b1" stroke-width="3.4646"/>
 <rect transform="matrix(3.4646 0 0 3.4646 2.6668 2.709)" x="3.7041" y="3.7283" width="1.5875" height="1.5875" ry="0" filter="url(#filter954-6)" opacity=".5"/>
 <rect transform="matrix(3.4646 0 0 3.4646 2.6668 2.709)" x="11.641" y="3.7283" width="1.5875" height="1.5875" ry="0" filter="url(#filter962-5)" opacity=".5"/>
 <g stroke-width="3.4646">
  <path d="m15.5 13.793v5.5h-9.166c-1.0156 0-1.834 0.81636-1.834 1.832v25.416c0 7.202 5.798 13 13 13h29c7.1888 0 12.977-5.7773 12.998-12.961v-25.455c0-1.0156-0.81832-1.832-1.834-1.832h-9.166v-5.5h-5.5v5.5h-22v-5.5z" fill="url(#linearGradient909)"/>
  <path d="m21 13.793v-9.3342l-5.5 4.5833v4.751z" fill="url(#linearGradient911)"/>
  <path d="m42.998 13.793v-9.3342l5.5 4.5833v4.751z" fill="url(#linearGradient913)"/>
  <rect x="21" y="4.4585" width="22" height="5.5" ry="0" fill="#6244b1"/>
 </g>
 <path d="m32 27.065c6.9038 0 12.5 5.5962 12.5 12.5s-5.5962 12.5-12.5 12.5-12.5-5.5962-12.5-12.5 5.5962-12.5 12.5-12.5z" fill="url(#linearGradient1053)" stroke-width=".54348"/>
</svg>
