<?xml version="1.0" encoding="UTF-8"?>
<svg width="64" height="64" version="1.1" xmlns="http://www.w3.org/2000/svg" xmlns:cc="http://creativecommons.org/ns#" xmlns:dc="http://purl.org/dc/elements/1.1/" xmlns:rdf="http://www.w3.org/1999/02/22-rdf-syntax-ns#" xmlns:xlink="http://www.w3.org/1999/xlink">
 <metadata>
  <rdf:RDF>
   <cc:Work rdf:about="">
    <dc:format>image/svg+xml</dc:format>
    <dc:type rdf:resource="http://purl.org/dc/dcmitype/StillImage"/>
   </cc:Work>
  </rdf:RDF>
 </metadata>
 <defs>
  <linearGradient id="linearGradient1009" x1="3.9687" x2="3.9687" y1="16.404" y2=".54085" gradientTransform="matrix(3.2126 0 0 3.2126 5.2992 5.2999)" gradientUnits="userSpaceOnUse">
   <stop stop-color="#5387a6" offset="0"/>
   <stop stop-color="#b2c9d5" offset="1"/>
  </linearGradient>
 </defs>
 <rect x="4.9992" y="5" width="55.001" height="55.001" ry="13" fill="#627d8c" fill-opacity=".9451" stroke-opacity=".95294" stroke-width=".31428"/>
 <rect x="6.9992" y="7" width="51.001" height="51.001" ry="12" fill="url(#linearGradient1009)" stroke-opacity=".95294" stroke-width=".29142"/>
 <path d="m44.422 40.612c-0.0395-0.35142-0.44929-0.61548-0.80366-0.61548-1.1455 0-2.1621-0.67264-2.5884-1.7128-0.43552-1.0654-0.1547-2.308 0.69909-3.0909 0.26873-0.24566 0.3014-0.6569 0.076-0.94258-0.5863-0.74458-1.2526-1.417-1.9804-1.9999-0.28493-0.22864-0.70295-0.19683-0.95 0.07678-0.74507 0.82514-2.0834 1.1319-3.1176 0.70033-1.0762-0.45272-1.7549-1.5433-1.6885-2.7138 0.0219-0.3677-0.24686-0.68743-0.61345-0.73014-0.93373-0.108-1.8757-0.11135-2.812-0.0076-0.36241 0.03999-0.63114 0.35215-0.61896 0.71521 0.0407 1.1591-0.64613 2.2306-1.7116 2.6671-1.0218 0.41738-2.3507 0.11329-3.0944-0.70455-0.24576-0.26938-0.657-0.3025-0.94328-0.07931-0.74923 0.58778-1.4306 1.2608-2.0222 1.9991-0.23077 0.28706-0.19684 0.70309 0.0746 0.95008 0.87001 0.78786 1.1509 2.0412 0.69896 3.119-0.43152 1.0275-1.4985 1.6897-2.72 1.6897-0.39634-0.01274-0.67868 0.25329-0.72207 0.61365-0.10994 0.93907-0.11125 1.896-0.0051 2.8428 0.03922 0.35291 0.46149 0.61464 0.81963 0.61464 1.0886-0.02784 2.1336 0.6461 2.5721 1.713 0.437 1.0654 0.1561 2.3072-0.69896 3.0909-0.26743 0.24565-0.3014 0.65625-0.07602 0.94193 0.58082 0.73978 1.2474 1.4129 1.9775 2.0007 0.28641 0.23077 0.70317 0.19821 0.95135-0.07535 0.74785-0.82722 2.0862-1.1334 3.1163-0.70098 1.0789 0.45131 1.7576 1.5418 1.6912 2.7132-0.0216 0.36789 0.24837 0.68816 0.61346 0.73022 0.47766 0.05569 0.95821 0.08352 1.4401 0.08352 0.45739 0 0.91485-0.02511 1.3722-0.07602 0.36249-0.03999 0.63106-0.35215 0.61886-0.71586-0.0419-1.1584 0.64612-2.2299 1.7103-2.6656 1.0286-0.42016 2.3521-0.11264 3.0958 0.70433 0.24716 0.26881 0.65552 0.30129 0.94345 0.07889 0.74779-0.58638 1.4277-1.2589 2.0222-1.9994 0.23069-0.28639 0.19813-0.70309-0.0747-0.95-0.87001-0.78786-1.1524-2.0414-0.70034-3.1184 0.42491-1.0138 1.4522-1.6945 2.5572-1.6945l0.15459 0.0042c0.35841 0.02911 0.68815-0.24696 0.73157-0.61281 0.11012-0.93993 0.11145-1.896 5e-3 -2.8428zm-12.401 5.5838c-2.2993 0-4.1694-1.8701-4.1694-4.1694 0-2.2991 1.8703-4.1694 4.1694-4.1694 2.2992 0 4.1694 1.8704 4.1694 4.1694 0 2.2992-1.8703 4.1694-4.1694 4.1694z" clip-rule="evenodd" fill="#fff" fill-rule="evenodd" image-rendering="optimizeSpeed" stroke="#627d8c" stroke-opacity=".9451"/>
 <path d="m27.953 9v8.5474h-5.2027l9.2492 9.8272 9.2492-9.8272h-5.2027v-8.5474z" fill="#fff" stroke="#627d8c" stroke-linecap="round" stroke-opacity=".9451" stroke-width=".85714"/>
</svg>
