<?xml version="1.0" encoding="UTF-8"?>
<svg width="64" height="64" version="1.1" viewBox="0 0 64 64" xmlns="http://www.w3.org/2000/svg" xmlns:cc="http://creativecommons.org/ns#" xmlns:dc="http://purl.org/dc/elements/1.1/" xmlns:rdf="http://www.w3.org/1999/02/22-rdf-syntax-ns#" xmlns:xlink="http://www.w3.org/1999/xlink">
 <metadata>
  <rdf:RDF>
   <cc:Work rdf:about="">
    <dc:format>image/svg+xml</dc:format>
    <dc:type rdf:resource="http://purl.org/dc/dcmitype/StillImage"/>
   </cc:Work>
  </rdf:RDF>
 </metadata>
 <defs>
  <linearGradient id="linearGradient2116" x1="4.5" x2="32" y1="4.5" y2="32" gradientTransform="translate(-3.8682e-6)" gradientUnits="userSpaceOnUse">
   <stop stop-color="#50c5f6" offset="0"/>
   <stop stop-color="#1682ed" offset="1"/>
  </linearGradient>
  <linearGradient id="linearGradient937" x1="59.5" x2="32" y1="4.5" y2="32" gradientTransform="translate(-3.8682e-6)" gradientUnits="userSpaceOnUse">
   <stop stop-color="#1783ed" offset="0"/>
   <stop stop-color="#52c6f6" offset="1"/>
  </linearGradient>
  <linearGradient id="linearGradient942" x1="5" x2="32" y1="59" y2="32" gradientTransform="translate(-3.8682e-6)" gradientUnits="userSpaceOnUse">
   <stop stop-color="#1783ed" offset="0"/>
   <stop stop-color="#50c5f6" offset="1"/>
  </linearGradient>
  <linearGradient id="linearGradient947" x1="59.5" x2="4.5" y1="4.5" y2="59.5" gradientTransform="translate(-3.8682e-6)" gradientUnits="userSpaceOnUse">
   <stop stop-color="#37beff" offset="0"/>
   <stop stop-color="#00a0ff" offset="1"/>
  </linearGradient>
  <linearGradient id="linearGradient952" x1="32" x2="59" y1="32" y2="59" gradientTransform="translate(-3.8682e-6)" gradientUnits="userSpaceOnUse">
   <stop stop-color="#353643" offset="0"/>
   <stop stop-color="#171825" offset="1"/>
  </linearGradient>
 </defs>
 <g>
  <g stroke-width="2.124">
   <path d="m46.574 59.498h-14.574-14.574c0.024828 1.38e-4 0.049357 0.001953 0.074219 0.001953h29c0.024862 0 0.049391-0.001815 0.074219-0.001953z" fill="url(#linearGradient947)"/>
   <path d="m32 32v27.498h14.574c7.1674-0.03984 12.926-5.8209 12.926-12.998v-14.5h-27.5z" fill="url(#linearGradient952)"/>
   <path d="m4.5 32v14.5c0 7.1771 5.7584 12.958 12.926 12.998h14.574v-27.498h-27.5z" fill="url(#linearGradient942)"/>
   <path d="m32 4.5v27.5h27.5v-14.5c0-7.202-5.798-13-13-13h-14.5z" fill="url(#linearGradient937)"/>
   <path d="m4.5 17.5v14.5h27.5v-27.5h-14.5c-7.202 0-13 5.798-13 13z" fill="url(#linearGradient2116)"/>
  </g>
  <g transform="translate(2)" fill="#fcfcfc">
   <rect x="10" y="10" width="5" height="14" ry="2.5" style="paint-order:stroke fill markers"/>
   <rect transform="rotate(-90)" x="-15" y="10" width="5" height="14" ry="2.5" style="paint-order:stroke fill markers"/>
  </g>
  <g transform="matrix(-1,0,0,1,94,0)" fill="#fcfcfc">
   <rect x="42" y="10" width="5" height="14" ry="2.5" style="paint-order:stroke fill markers"/>
   <rect transform="rotate(-90)" x="-15" y="42" width="5" height="14" ry="2.5" style="paint-order:stroke fill markers"/>
  </g>
  <rect transform="scale(1,-1)" x="12" y="-54" width="5" height="14" ry="2.5" fill="#fcfcfc" style="paint-order:stroke fill markers"/>
  <rect transform="matrix(0,1,1,0,0,0)" x="49" y="12" width="5" height="14" ry="2.5" fill="#fcfcfc" style="paint-order:stroke fill markers"/>
  <g transform="translate(-1,1.25)" fill="#fcfcfc">
   <rect transform="matrix(0,1,1,0,0,0)" x="43.25" y="39" width="5" height="14" ry="2.5" style="paint-order:stroke fill markers"/>
   <rect transform="scale(1,-1)" x="43.5" y="-52.75" width="5" height="14" ry="2.5" style="paint-order:stroke fill markers"/>
  </g>
 </g>
</svg>
