<?xml version="1.0" encoding="UTF-8"?>
<svg id="Apps-Visual-Studio-Code" width="64" height="64" enable-background="new 0 0 1024 1024" image-rendering="optimizeSpeed" version="1.1" viewBox="0 0 64 64" xmlns="http://www.w3.org/2000/svg" xmlns:cc="http://creativecommons.org/ns#" xmlns:dc="http://purl.org/dc/elements/1.1/" xmlns:rdf="http://www.w3.org/1999/02/22-rdf-syntax-ns#">
 <metadata>
  <rdf:RDF>
   <cc:Work rdf:about="">
    <dc:format>image/svg+xml</dc:format>
    <dc:type rdf:resource="http://purl.org/dc/dcmitype/StillImage"/>
    <dc:title/>
   </cc:Work>
  </rdf:RDF>
 </metadata>
 <defs>
  <style type="text/css"/>
  <style type="text/css"/>
  <linearGradient id="linearGradient919" x1="8.2021" x2="8.2021" y1="293.39" y2="294.09" gradientTransform="matrix(1.9738 0 0 3.8518 14.012 -1078.8)" gradientUnits="userSpaceOnUse">
   <stop stop-color="#323232" offset="0"/>
   <stop offset="1"/>
  </linearGradient>
  <linearGradient id="linearGradient921" x1="8.2021" x2="8.2021" y1="293.56" y2="291.71" gradientTransform="matrix(13.858 0 0 3.7796 -84.776 -1057.6)" gradientUnits="userSpaceOnUse">
   <stop stop-color="#323232" offset="0"/>
   <stop offset="1"/>
  </linearGradient>
  <linearGradient id="linearGradient1095" x1=".58042" x2="16.371" y1="3.147" y2="16.397" gradientTransform="matrix(3.4646 0 0 3.4646 2.7979 -6.1528)" gradientUnits="userSpaceOnUse">
   <stop stop-color="#3c3c3c" offset="0"/>
   <stop stop-color="#1e1e1e" offset="1"/>
  </linearGradient>
  <linearGradient id="linearGradient1116" x1="8.089" x2="55.716" y1="7.1454" y2="46.857" gradientTransform="matrix(1.0375 0 0 1.0375 -1.1342 -.65681)" gradientUnits="userSpaceOnUse">
   <stop stop-color="#35affb" offset="0"/>
   <stop stop-color="#5781d6" offset="1"/>
  </linearGradient>
 </defs>
 <g transform="translate(1.2758 5.5002)">
  <rect x="25.224" y="44.969" width="11" height="7.0002" ry="0" fill="url(#linearGradient921)" stroke-width="7.2373"/>
  <rect x="15.057" y="51.962" width="31.335" height="2.0382" ry="1.0191" fill="url(#linearGradient919)" stroke-width="2.7573"/>
 </g>
 <path d="m17.5 4.5c-6.605 0-12.015 4.8803-12.869 11.244v21.938c0 7.202 5.798 13 13 13h29.002c6.6032 0 12.011-4.879 12.867-11.24v-21.941c0-7.202-5.798-13-13-13h-29z" fill="url(#linearGradient1095)" stroke-opacity=".95294" stroke-width=".31428"/>
 <rect x="7.1657" y="6.8411" width="49.799" height="41.5" ry="10.488" fill="url(#linearGradient1116)" stroke-linecap="round" stroke-width="4.7069"/>
</svg>
