<?xml version="1.0" encoding="UTF-8" standalone="no"?>
<svg
   xmlns:dc="http://purl.org/dc/elements/1.1/"
   xmlns:cc="http://creativecommons.org/ns#"
   xmlns:rdf="http://www.w3.org/1999/02/22-rdf-syntax-ns#"
   xmlns:svg="http://www.w3.org/2000/svg"
   xmlns="http://www.w3.org/2000/svg"
   xmlns:sodipodi="http://sodipodi.sourceforge.net/DTD/sodipodi-0.dtd"
   xmlns:inkscape="http://www.inkscape.org/namespaces/inkscape"
   width="64"
   height="64"
   version="1.1"
   viewBox="0 0 16.933 16.933"
   id="svg23"
   sodipodi:docname="apps.com.wechat.web.svg"
   inkscape:version="1.0.1 (3bc2e813f5, 2020-09-07)">
  <sodipodi:namedview
     pagecolor="#ffffff"
     bordercolor="#666666"
     borderopacity="1"
     objecttolerance="10"
     gridtolerance="10"
     guidetolerance="10"
     inkscape:pageopacity="0"
     inkscape:pageshadow="2"
     inkscape:window-width="1920"
     inkscape:window-height="998"
     id="namedview25"
     showgrid="false"
     inkscape:zoom="4.5906698"
     inkscape:cx="8.1983265"
     inkscape:cy="29.957959"
     inkscape:window-x="0"
     inkscape:window-y="0"
     inkscape:window-maximized="1"
     inkscape:current-layer="svg23" />
  <metadata
     id="metadata2">
    <rdf:RDF>
      <cc:Work
         rdf:about="">
        <dc:format>image/svg+xml</dc:format>
        <dc:type
           rdf:resource="http://purl.org/dc/dcmitype/StillImage" />
        <dc:title></dc:title>
      </cc:Work>
    </rdf:RDF>
  </metadata>
  <defs
     id="defs9">
    <linearGradient
       id="h"
       x1="8.4665"
       x2="8.4665"
       y1=".52916"
       y2="16.404"
       gradientUnits="userSpaceOnUse"
       gradientTransform="translate(8.8029178,-3.6182938)">
      <stop
         stop-color="#a4e20f"
         offset="0"
         id="stop4" />
      <stop
         stop-color="#19b031"
         offset="1"
         id="stop6" />
    </linearGradient>
    <linearGradient
       id="linearGradient1448"
       x1="8.0646"
       x2="8.0646"
       y1="2.2321"
       y2="14.651"
       gradientTransform="matrix(0.91665735,0,0,0.91665735,0.70539135,0.70539194)"
       gradientUnits="userSpaceOnUse">
      <stop
         stop-color="#76dd38"
         offset="0"
         id="stop854" />
      <stop
         stop-color="#14ab4b"
         offset="1"
         id="stop856" />
    </linearGradient>
    <linearGradient
       id="linearGradient865"
       x1="30.38"
       x2="35.442"
       y1="20.303"
       y2="52.039"
       gradientTransform="matrix(0.26457812,0,0,0.26457812,-21.101713,-2.6207582e-5)"
       gradientUnits="userSpaceOnUse">
      <stop
         stop-color="#fff"
         offset="0"
         id="stop859" />
      <stop
         stop-color="#aaf8ad"
         offset="1"
         id="stop861" />
    </linearGradient>
  </defs>
  <rect
     x="1.1904695"
     y="1.1904695"
     width="14.552061"
     height="14.552061"
     ry="3.4395156"
     fill="url(#linearGradient1448)"
     stroke-opacity="0.95294"
     stroke-width="0.0831516"
     id="rect866"
     style="fill:url(#linearGradient1448)" />
  <circle
     cx="-330.35"
     cy="-328.38"
     r="0"
     fill="#5e4aa6"
     stroke-width=".26458"
     id="circle11" />
  <circle
     cx="-39.434"
     cy="6.44"
     r="0"
     fill="#5e4aa6"
     fill-rule="evenodd"
     stroke-width=".26458"
     id="circle15" />
  <g
     transform="translate(-4.2864 2.8659)"
     fill="#fff"
     stroke-width=".41775"
     id="g21">
    <path
       d="m11.124 1.0471c-2.0888 0-3.8016 1.5457-3.8016 3.3838 0 1.1697 0.66841 2.1723 1.671 2.799l-0.3342 1.1697 1.3786-0.71018c0.3342 0.083552 0.66841 0.12533 1.0444 0.12533h0.1671c-0.04178-0.20888-0.08355-0.50131-0.08355-0.75196 0-1.7128 1.671-3.1749 3.718-3.1749-0.25065-1.6292-1.8381-2.8407-3.7598-2.8407zm-1.295 2.1306c0.29243 0 0.54308 0.25065 0.54308 0.54308s-0.25065 0.54308-0.54308 0.54308c-0.29243 0-0.54308-0.25065-0.54308-0.54308s0.25065-0.54308 0.54308-0.54308zm2.9243 1.0444c-0.29243 0-0.54308-0.25065-0.54308-0.54308s0.25065-0.54308 0.54308-0.54308 0.54308 0.25065 0.54308 0.54308-0.25065 0.54308-0.54308 0.54308z"
       id="path17" />
    <path
       d="m18.184 7.1046c0-1.5039-1.4621-2.7154-3.3003-2.7154-1.7963 0-3.3003 1.2115-3.3003 2.7154s1.4621 2.7154 3.3003 2.7154c0.3342 0 0.62663-0.041779 0.91906-0.12532l1.2115 0.58486-0.20888-0.96084c0.83551-0.50131 1.3786-1.295 1.3786-2.2141zm-4.6371-0.041775c-0.25065 0-0.45953-0.20888-0.45953-0.45953 0-0.25065 0.20888-0.45953 0.45953-0.45953s0.45953 0.20888 0.45953 0.45953c0 0.25065-0.20888 0.45953-0.45953 0.45953zm2.6736-0.96084c0.25065 0 0.45953 0.20888 0.45953 0.45953 0 0.25065-0.20888 0.45953-0.45953 0.45953s-0.45953-0.20888-0.45953-0.45953c0-0.25065 0.20888-0.45953 0.45953-0.45953z"
       id="path19" />
  </g>
</svg>
