<?xml version="1.0" encoding="UTF-8"?>
<svg width="64" height="64" version="1.1" xmlns="http://www.w3.org/2000/svg" xmlns:cc="http://creativecommons.org/ns#" xmlns:dc="http://purl.org/dc/elements/1.1/" xmlns:rdf="http://www.w3.org/1999/02/22-rdf-syntax-ns#" xmlns:xlink="http://www.w3.org/1999/xlink">
 <metadata>
  <rdf:RDF>
   <cc:Work rdf:about="">
    <dc:format>image/svg+xml</dc:format>
    <dc:type rdf:resource="http://purl.org/dc/dcmitype/StillImage"/>
   </cc:Work>
  </rdf:RDF>
 </metadata>
 <defs>
  <radialGradient id="radialGradient873" cx="32" cy="32" r="28" gradientTransform="matrix(.89286 0 0 .89286 3.4286 3.4286)" gradientUnits="userSpaceOnUse">
   <stop stop-color="#23c7ff" offset="0"/>
   <stop stop-color="#2f56ff" stop-opacity=".2" offset="1"/>
  </radialGradient>
 </defs>
 <path d="m17.499 4.5c-7.202 0-13 5.798-13 13v29c0 7.202 5.798 13 13 13h29.002c7.202 0 13-5.798 13-13v-29c0-7.202-5.798-13-13-13z" fill="#081a32" stroke-linecap="round" stroke-linejoin="round" stroke-width=".889" style="paint-order:stroke fill markers"/>
 <circle cx="32" cy="32" r="25" fill="url(#radialGradient873)" stroke-width=".89286"/>
 <g transform="matrix(.97436 0 0 .97436 .82051 .82051)">
  <path d="m32 9.5a22.5 22.5 0 0 0-22.5 22.5 22.5 22.5 0 0 0 22.5 22.5 22.5 22.5 0 0 0 22.5-22.5 22.5 22.5 0 0 0-22.5-22.5zm0 4.7368a17.763 17.763 0 0 1 17.763 17.763 17.763 17.763 0 0 1-17.763 17.763 17.763 17.763 0 0 1-17.763-17.763 17.763 17.763 0 0 1 17.763-17.763z" fill="#89b9e2" stroke="#081a32" stroke-opacity=".77647" stroke-width="1.1842"/>
  <g fill="#081a32" fill-opacity=".77647" shape-rendering="auto" stroke="#081a32" stroke-opacity=".77647">
   <path d="m16.6 16.605a2.3687 2.3687 0 0 0-2.0352 3.5703l18.947 32.193a2.3685 2.3685 0 0 0 3.2422 0.83984 2.3685 2.3685 0 0 0 0.83984-3.2422l-15.432-26.221 29.09 11.637a2.3685 2.3685 0 0 0 3.0781-1.3184 2.3685 2.3685 0 0 0-1.3184-3.0801l-35.527-14.209a2.3687 2.3687 0 0 0-0.88477-0.16992z" color="#000000" color-rendering="auto" dominant-baseline="auto" image-rendering="auto" solid-color="#000000" stop-color="#000000" stroke-linecap="round" stroke-linejoin="round" style="font-feature-settings:normal;font-variant-alternates:normal;font-variant-caps:normal;font-variant-east-asian:normal;font-variant-ligatures:normal;font-variant-numeric:normal;font-variant-position:normal;font-variation-settings:normal;inline-size:0;isolation:auto;mix-blend-mode:normal;shape-margin:0;shape-padding:0;text-decoration-color:#000000;text-decoration-line:none;text-decoration-style:solid;text-indent:0;text-orientation:mixed;text-transform:none;white-space:normal"/>
   <path d="m37.84 26.08a2.3684 2.3684 0 0 0-1.5938 0.69336l-9.4727 9.4727a2.3684 2.3684 0 0 0 0 3.3496 2.3684 2.3684 0 0 0 3.3496 0l9.4727-9.4727a2.3684 2.3684 0 0 0 0-3.3496 2.3684 2.3684 0 0 0-1.7559-0.69336z" color="#000000" color-rendering="auto" dominant-baseline="auto" image-rendering="auto" solid-color="#000000" stop-color="#000000" stroke-linecap="round" stroke-linejoin="round" style="font-feature-settings:normal;font-variant-alternates:normal;font-variant-caps:normal;font-variant-east-asian:normal;font-variant-ligatures:normal;font-variant-numeric:normal;font-variant-position:normal;font-variation-settings:normal;inline-size:0;isolation:auto;mix-blend-mode:normal;shape-margin:0;shape-padding:0;text-decoration-color:#000000;text-decoration-line:none;text-decoration-style:solid;text-indent:0;text-orientation:mixed;text-transform:none;white-space:normal"/>
   <path d="m44.332 40.982-3.3496 3.3496 9.4746 9.4746 3.3496-3.3496z" color="#000000" color-rendering="auto" dominant-baseline="auto" image-rendering="auto" solid-color="#000000" stop-color="#000000" style="font-feature-settings:normal;font-variant-alternates:normal;font-variant-caps:normal;font-variant-east-asian:normal;font-variant-ligatures:normal;font-variant-numeric:normal;font-variant-position:normal;font-variation-settings:normal;inline-size:0;isolation:auto;mix-blend-mode:normal;shape-margin:0;shape-padding:0;text-decoration-color:#000000;text-decoration-line:none;text-decoration-style:solid;text-indent:0;text-orientation:mixed;text-transform:none;white-space:normal"/>
  </g>
  <g transform="matrix(1.1842 0 0 1.1842 -93.521 -4.7105)">
   <path d="m106 12a19 19 0 0 0-19 19 19 19 0 0 0 19 19 19 19 0 0 0 19-19 19 19 0 0 0-19-19zm0 4a15 15 0 0 1 15 15 15 15 0 0 1-15 15 15 15 0 0 1-15-15 15 15 0 0 1 15-15z" fill="#89b9e2"/>
   <g fill="none" stroke="#89b9e2" stroke-width="4">
    <path d="m109 47.186-16-27.186 30 12" stroke-linecap="round" stroke-linejoin="round"/>
    <path d="m103 36 8-8" stroke-linecap="round" stroke-linejoin="round"/>
    <path d="m115 40 8 8"/>
   </g>
  </g>
 </g>
</svg>
