<?xml version="1.0" encoding="UTF-8"?>
<svg width="64" height="64" version="1.1" viewBox="0 0 16.933 16.933" xmlns="http://www.w3.org/2000/svg" xmlns:cc="http://creativecommons.org/ns#" xmlns:dc="http://purl.org/dc/elements/1.1/" xmlns:rdf="http://www.w3.org/1999/02/22-rdf-syntax-ns#" xmlns:xlink="http://www.w3.org/1999/xlink">
 <defs>
  <linearGradient id="linearGradient2200" x1="11.469" x2="55.385" y1="10.516" y2="54.431" gradientTransform="scale(.26458)" gradientUnits="userSpaceOnUse">
   <stop stop-color="#cc93ff" offset="0"/>
   <stop stop-color="#7a49ac" offset="1"/>
  </linearGradient>
  <linearGradient id="linearGradient914" x1="-54.828" x2="-63.444" y1="-1.7294" y2="-11.074" gradientTransform="matrix(.91341 0 0 .91341 62.414 14.451)" gradientUnits="userSpaceOnUse">
   <stop stop-color="#232223" offset="0"/>
   <stop stop-color="#49484d" offset="1"/>
  </linearGradient>
  <linearGradient id="linearGradient916" x1="-54.828" x2="-63.444" y1="-1.7294" y2="-11.074" gradientTransform="matrix(.3727 0 0 .3727 30.478 10.908)" gradientUnits="userSpaceOnUse">
   <stop stop-color="#d2d2d2" offset="0"/>
   <stop stop-color="#fff" offset="1"/>
  </linearGradient>
  <linearGradient id="linearGradient918" x1="-54.828" x2="-63.444" y1="-1.7294" y2="-11.074" gradientTransform="matrix(.14259 0 0 .14259 16.888 9.401)" gradientUnits="userSpaceOnUse">
   <stop stop-color="#232223" offset="0"/>
   <stop stop-color="#49484d" offset="1"/>
  </linearGradient>
 </defs>
 <metadata>
  <rdf:RDF>
   <cc:Work rdf:about="">
    <dc:format>image/svg+xml</dc:format>
    <dc:type rdf:resource="http://purl.org/dc/dcmitype/StillImage"/>
   </cc:Work>
  </rdf:RDF>
 </metadata>
 <path d="m4.6301 1.1906c-1.9055 0-3.4395 1.534-3.4395 3.4395v7.6728c0 1.9055 1.534 3.4395 3.4395 3.4395h7.6728c1.9055 0 3.4395-1.534 3.4395-3.4395v-7.6728c0-1.9055-1.534-3.4395-3.4395-3.4395z" fill="url(#linearGradient2200)" stroke-linecap="round" stroke-linejoin="round" stroke-width=".26458" style="paint-order:stroke fill markers"/>
 <path d="m14.183 1.7487-1.897 1.2826c-1.0807-0.76046-2.3968-1.2087-3.8189-1.2087-3.6705 0-6.646 2.9755-6.646 6.646 0 0.79641 0.14024 1.5598 0.3974 2.2675 0.17523 0.48254 0.40438 0.93902 0.68108 1.3622 0.11908 0.18255 0.24674 0.35885 0.38293 0.52813 0.43862 0.54625 0.96193 1.0217 1.5498 1.4066 0.21376 0.13996 0.43605 0.26818 0.66611 0.38293 0.89322 0.44703 1.9015 0.69815 2.9689 0.69815 1.0672 0 2.0755-0.25111 2.9689-0.69815 0.23002-0.11473 0.45235-0.24293 0.66611-0.38293 0.58049-0.3798 1.0971-0.84756 1.5322-1.3849 0.13591-0.16791 0.26436-0.34255 0.38343-0.52347 0.28429-0.43031 0.51937-0.89595 0.69815-1.388 0.25717-0.70799 0.3974-1.4719 0.3974-2.2686 0-0.79668-0.14017-1.5606-0.3974-2.2686-0.14902-0.4105-0.3461-0.79715-0.56946-1.1653l-1.588 1.0945-0.6873-0.99734 1.5389-1.0604 1.8272-1.2345c-0.2668-0.43677-0.62602-0.80872-1.0542-1.0878z" fill="url(#linearGradient914)" stroke-width=".26458"/>
 <path d="m11.178 8.467c0 0.32508-0.05722 0.63675-0.16215 0.92563-0.07294 0.20077-0.1689 0.39058-0.2849 0.56616-0.04859 0.07382-0.10083 0.14511-0.15628 0.21362-0.17753 0.21926-0.3885 0.41019-0.62535 0.56516-0.08722 0.05711-0.17787 0.10936-0.27172 0.15617-0.36445 0.18239-0.77588 0.28499-1.2113 0.28499s-0.84684-0.1026-1.2113-0.285c-0.09386-0.04682-0.18462-0.09906-0.27184-0.15617-0.23985-0.15706-0.45335-0.35099-0.63232-0.57388-0.05556-0.06906-0.10769-0.14101-0.15628-0.21549-0.1129-0.17266-0.20642-0.35895-0.27792-0.55584-0.10492-0.28878-0.16204-0.60034-0.16204-0.92529 0-1.4976 1.2141-2.7117 2.7117-2.7117 0.75176 0 1.432 0.30592 1.9232 0.79999 0.14156 0.14233 0.26741 0.30039 0.37452 0.47127 0.10128 0.16093 0.18594 0.33337 0.2518 0.51477 0.10494 0.28888 0.16216 0.60056 0.16216 0.92563z" fill="url(#linearGradient916)" stroke-width=".010593"/>
 <path d="m9.5037 8.467c0 0.12437-0.02189 0.24361-0.06204 0.35413-0.02791 0.07681-0.06462 0.14943-0.109 0.2166-0.01859 0.02824-0.03857 0.05552-0.05979 0.08173-0.06792 0.08388-0.14863 0.15693-0.23925 0.21622-0.03337 0.02185-0.06805 0.04184-0.10396 0.05975-0.13943 0.06978-0.29684 0.10903-0.46342 0.10903s-0.32398-0.03925-0.46342-0.10904c-0.03591-0.01791-0.07063-0.0379-0.104-0.05975-0.09176-0.06009-0.17344-0.13428-0.24191-0.21955-0.02126-0.02642-0.0412-0.05395-0.05979-0.08244-0.04319-0.06606-0.07897-0.13733-0.10633-0.21265-0.04014-0.11048-0.06199-0.22968-0.06199-0.354 0-0.57297 0.46448-1.0374 1.0374-1.0374 0.28761 0 0.54786 0.11704 0.73579 0.30606 0.05416 0.05445 0.10231 0.11492 0.14328 0.1803 0.03875 0.06157 0.07114 0.12754 0.09633 0.19694 0.04015 0.11052 0.06204 0.22976 0.06204 0.35413z" fill="url(#linearGradient918)" stroke-width=".0040526"/>
</svg>
