<?xml version="1.0" encoding="UTF-8"?>
<svg width="64" height="64" version="1.1" viewBox="0 0 16.933 16.933" xmlns="http://www.w3.org/2000/svg" xmlns:cc="http://creativecommons.org/ns#" xmlns:dc="http://purl.org/dc/elements/1.1/" xmlns:rdf="http://www.w3.org/1999/02/22-rdf-syntax-ns#">
 <metadata>
  <rdf:RDF>
   <cc:Work rdf:about="">
    <dc:format>image/svg+xml</dc:format>
    <dc:type rdf:resource="http://purl.org/dc/dcmitype/StillImage"/>
   </cc:Work>
  </rdf:RDF>
 </metadata>
 <defs>
  <style type="text/css"/>
  <linearGradient id="linearGradient1092" x1="-48.3" x2="-13.301" y1="32" y2="32" gradientTransform="matrix(.26459 0 0 .26459 16.615 -.0002237)" gradientUnits="userSpaceOnUse">
   <stop stop-color="#ffa000" offset="0"/>
   <stop stop-color="#ffbd01" offset="1"/>
  </linearGradient>
  <linearGradient id="linearGradient1115" x1="-29.448" x2="-29.448" y1="4.6371" y2="59.494" gradientTransform="matrix(.26458 0 0 .26458 16.852 -3.8515e-8)" gradientUnits="userSpaceOnUse">
   <stop stop-color="#fff" offset="0"/>
   <stop stop-color="#ccd4da" offset="1"/>
  </linearGradient>
 </defs>
 <rect x="1.1906" y="1.1906" width="14.552" height="14.552" ry="3.4395" fill="url(#linearGradient1115)" image-rendering="optimizeSpeed" stroke-width=".12512"/>
 <g fill="#5e4aa6" stroke-width=".26458">
  <circle cx="-330.35" cy="-328.38" r="0"/>
  <circle cx="-39.434" cy="6.44" r="0" fill-rule="evenodd"/>
  <circle cx="-308.75" cy="-331.04" r="0"/>
 </g>
 <path d="m8.4803 3.9809a0.62593 0.62593 0 0 0-0.57982 0.35554l-1.0883 2.2294-2.4355 0.3576a0.62912 0.62912 0 0 0-0.3607 0.18604 0.64418 0.64418 0 0 0 0.010852 0.90331l1.7617 1.7343-0.41548 2.4552c-0.02344 0.13833-9.688e-4 0.28071 0.063562 0.40515a0.62768 0.62768 0 0 0 0.85218 0.2682l2.1777-1.1581 2.1808 1.1602a0.62422 0.62422 0 0 0 0.4036 0.06511c0.34293-0.06077 0.57254-0.39096 0.51264-0.73793l-0.416-2.4552 1.7617-1.7369c0.098681-0.098393 0.162-0.22674 0.18139-0.36535 0.048331-0.34959-0.1922-0.67275-0.53744-0.72193l-2.435-0.35709-1.0888-2.2319a0.62593 0.62593 0 0 0-0.54881-0.35554z" fill="url(#linearGradient1092)" stroke-linecap="round" stroke-linejoin="round" stroke-width=".52917" style="paint-order:stroke fill markers"/>
</svg>
