<?xml version="1.0" encoding="UTF-8"?>
<svg width="64" height="64" version="1.1" xmlns="http://www.w3.org/2000/svg" xmlns:xlink="http://www.w3.org/1999/xlink">
 <defs>
  <linearGradient id="linearGradient2200" x1="33.067" x2="33.067" y1="5.8055" y2="58.569" gradientTransform="matrix(-1 0 0 1 64 0)" gradientUnits="userSpaceOnUse">
   <stop stop-color="#06b4f0" offset="0"/>
   <stop stop-color="#0177e1" offset="1"/>
  </linearGradient>
  <linearGradient id="linearGradient1211" x1="33.067" x2="33.067" y1="5.8055" y2="58.569" gradientTransform="matrix(-1 0 0 1 64 0)" gradientUnits="userSpaceOnUse">
   <stop stop-color="#1ca4dd" offset="0"/>
   <stop stop-color="#166dd2" offset="1"/>
  </linearGradient>
 </defs>
 <path d="m46.5 4.5c7.202 0 13 5.7979 13 13v29c0 7.202-5.7979 13-13 13h-29c-7.202 0-13-5.7979-13-13v-29c0-7.202 5.7979-13 13-13z" fill="url(#linearGradient2200)" stroke-linecap="round" stroke-linejoin="round" style="paint-order:stroke fill markers"/>
 <path d="m32.016 4.5c-0.004926 0.37923-0.015625 0.7529-0.015625 1.1367v52.727c0 0.38382 0.0107 0.75749 0.01563 1.1367h-14.516c-7.202 0-13-5.798-13-13v-29c0-7.202 5.798-13 13-13z" fill="url(#linearGradient1211)" style="paint-order:stroke fill markers"/>
 <g transform="translate(1.022)" stroke-width=".30155">
  <path d="m30.979 36.072c-2.1284 0.79296-3.4079 2.7588-2.9258 4.5859 0.34103 1.2923 1.4917 2.2062 2.9258 2.4941v-7.0801z" fill="#e6e6e6"/>
  <path d="m30.979 18.297-8.4062 2.2754c-0.99158 0.27827-1.791 1.384-1.791 2.459v17.041c-1.0055-0.55126-2.296-0.77446-3.6348-0.41016-2.4158 0.6572-3.9299 2.7817-3.4121 4.7441 0.51787 1.9623 2.8986 3.0597 5.3145 2.4023 1.9273-0.52429 3.253-2.0098 3.4648-3.5742l0.05859-16.104 8.4062-2.3594v-6.4746z" fill="#e6e6e6"/>
  <path d="m30.979 18.297v6.4746l3.4277-0.96094v12.215c-0.87672-0.312-1.8931-0.39701-2.9434-0.11133-0.16643 0.04528-0.32689 0.09953-0.48438 0.1582v7.0801c0.74363 0.14929 1.5618 0.13263 2.3867-0.0918 1.7156-0.46672 2.9502-1.6951 3.3516-3.0625 0.43268-0.79797 0.62891-1.6964 0.62891-2.0547 0-0.11319 0.01441-0.38166 0.01563-0.5v-0.44726c0.06042-0.43959 0.27552-0.79688 0.85352-0.79688 0.58566 0 0.81332 0.35933 0.90039 0.79688h0.01953v1.9902c0 0.65921 0.39692 1.1914 0.88672 1.1914s0.88672-0.5322 0.88672-1.1914v-4.377c0-0.35156 0.32873-1.5918 0.5918-1.5918 0.263 0 0.58984 1.2402 0.58984 1.5918v0.39844c0 0.65921 0.39887 1.1914 0.88867 1.1914s0.88672-0.5322 0.88672-1.1914v-3.582c0-0.35165 0.32879-0.79492 0.5918-0.79492 0.26307 0 0.5918 0.44336 0.5918 0.79492v0.39844c0 0.65921 0.39692 1.1934 0.88672 1.1934s0.88672-0.53415 0.88672-1.1934v-1.1934h2.6582c0.4898 0 0.88672-0.53415 0.88672-1.1934 0-0.65921-0.39692-1.1953-0.88672-1.1953h-2.6582v-1.1914c0-0.65912-0.39692-1.1953-0.88672-1.1953s-0.88672 0.5361-0.88672 1.1953v0.39648c0 0.35157-0.32873 0.79492-0.5918 0.79492-0.26301 0-0.5918-0.44345-0.5918-0.79492v-3.5801c0-0.65921-0.39698-1.1934-0.88672-1.1934-0.4898 0-0.88867 0.53415-0.88867 1.1934v0.39844c0 0.35166-0.32685 1.5898-0.58984 1.5898-0.26307 0-0.5918-1.2383-0.5918-1.5898v-4.375c0-0.65921-0.39692-1.1953-0.88672-1.1953s-0.88672 0.5361-0.88672 1.1953v1.9863c-0.06115 0.4396-0.28551 0.79688-0.91992 0.79688-0.57794 0-0.76572-0.35728-0.82617-0.79688l-0.17578-0.80664c-0.0012-0.11825-0.14301-1.8089-0.17969-1.916-0.095-0.27726-0.11965-0.57029-0.17383-0.84766-0.07983-0.69142-0.50468-1.2041-1.0859-1.3066l-4.7949 1.2969z" fill="#f1f6fa"/>
 </g>
</svg>
