<?xml version="1.0" encoding="UTF-8"?>
<svg width="64" height="64" version="1" xmlns="http://www.w3.org/2000/svg" xmlns:cc="http://creativecommons.org/ns#" xmlns:dc="http://purl.org/dc/elements/1.1/" xmlns:rdf="http://www.w3.org/1999/02/22-rdf-syntax-ns#">
 <metadata>
  <rdf:RDF>
   <cc:Work rdf:about="">
    <dc:format>image/svg+xml</dc:format>
    <dc:type rdf:resource="http://purl.org/dc/dcmitype/StillImage"/>
   </cc:Work>
  </rdf:RDF>
 </metadata>
 <defs>
  <linearGradient id="linearGradient2200" x1="11.469" x2="55.385" y1="10.516" y2="54.431" gradientTransform="scale(1)" gradientUnits="userSpaceOnUse">
   <stop stop-color="#532e85" offset="0"/>
   <stop stop-color="#7a49ac" offset="1"/>
  </linearGradient>
 </defs>
 <path d="m17.5 4.5c-7.202 0-13 5.7979-13 13v29c0 7.202 5.7979 13 13 13h29c7.202 0 13-5.7979 13-13v-29c0-7.202-5.7979-13-13-13z" fill="url(#linearGradient2200)" stroke-linecap="round" stroke-linejoin="round" style="paint-order:stroke fill markers"/>
 <path d="m32.024 11.435c-0.25807-9.45e-4 -0.49914 0.12869-0.6382 0.34652a0.29308 0.29328 0 0 0 0 0.0028l-18.611 29.52a0.29308 0.29328 0 0 0-0.0028 0.0028c-0.21364 0.3488-0.0928 0.81309 0.26329 1.0138l18.611 10.653a0.29308 0.29328 0 0 0 0 0.0028c0.23406 0.13252 0.52147 0.13252 0.75553 0l18.571-10.536c0.17176-0.09728 0.29994-0.25901 0.35201-0.44961 0.03008-0.11302-0.02604-0.22038-0.05152-0.3322a0.29308 0.29328 0 0 0-0.0372-0.23483v-0.0028a0.29308 0.29328 0 0 0-0.02004-0.02868l-18.548-29.608a0.29308 0.29328 0 0 0-0.0028-0.0028c-0.13902-0.21777-0.38015-0.34747-0.63822-0.34652zm0.74981 3.3305 16.049 25.616-6.6767-2.9296a0.29308 0.29328 0 0 0-0.0028 0l-0.0058-0.0028c-0.81454-0.3585-1.3103-0.67482-1.6284-1.0825-0.31916-0.40904-0.48905-0.94285-0.59813-1.8042a0.29308 0.29328 0 0 0-0.0028-0.0086c2.56e-4 0.0016-0.0026-0.02264-0.0058-0.04582-0.0022-0.0162-0.0044-0.03848-0.0086-0.06014l-0.0028-0.0058c-0.45138-2.9431-2.6625-5.2996-5.5548-6.1226h-0.0028l-0.02862-0.0086-0.88718 1.2944 0.25757 0.05728c2.4042 0.58387 4.256 2.4598 4.6935 4.8226a0.29308 0.29328 0 0 0 0.0058 0.02864l0.05722 0.34938 0.0229 0.14606c0.14274 1.1025 0.44234 1.8705 0.99307 2.46 0.55073 0.58942 1.3162 0.98668 2.361 1.4462a0.29308 0.29328 0 0 0 0.0058 0.0028c1e-4 4e-5 5e-3 -2.28e-4 0.0058 0 0.0011 3.76e-4 6e-3 0.0019 0.0086 0.0028l6.9658 3.0585-16.009 9.0838v-5.0058c0-1.0038 0.0416-1.5467 0.25184-1.9302s0.63147-0.69624 1.5225-1.1856c0.3561-0.1955 0.71769-0.39903 1.1104-0.62144l0.23754-0.1346 0.0058-0.0028c1.1678-0.62165 2.1174-1.5377 2.8161-2.6203 0.0088-0.0134 0.05774-0.08764 0.10588-0.16038l-1.1705-0.99372c-0.56491 1.0285-1.3836 1.8996-2.4269 2.4714a0.29308 0.29328 0 0 0-0.0028 0l-0.28046 0.16038v-0.0028c-0.38423 0.21705-0.77629 0.43382-1.1304 0.62716-1.1254 0.61796-1.7834 1.141-2.1435 1.8271-0.36019 0.68606-0.3978 1.4718-0.3978 2.5688v5.003l-16.164-9.2499 6.7826-2.9497 0.47507-0.20333a0.29308 0.29328 0 0 0 0.0142-0.0058c0.15224-0.07354 0.7483-0.30179 1.1047-0.31215a0.29308 0.29328 0 0 0 0.0086 0c0.43105-0.0263 1.0191 0.02298 1.2907 0.36656l1.0474 1.3145c0.82721 1.0666 1.9102 1.9411 3.2053 2.4743 0.0102 7e-3 0.02028 0.0146 0.03148 0.02004a0.29308 0.29328 0 0 0 0.02004 0.0086c0.25367 0.1031 0.50645 0.15418 0.75839 0.21478l0.87573-1.2772c-0.47756-0.10276-0.99664-0.24921-1.3937-0.43815a0.29308 0.29328 0 0 0-0.0058 0c-0.92163-0.43585-1.7123-1.0444-2.3181-1.8214a0.29308 0.29328 0 0 0-0.0114-0.0142c-0.02084-0.0235-0.03758-0.04798-0.05438-0.07446a0.29308 0.29328 0 0 0-0.0172-0.02004c-0.06624-0.0861-0.12656-0.16414-0.17744-0.24056a0.29308 0.29328 0 0 0-0.0086-0.0142c-0.17086-0.22889-0.43119-0.56893-0.79274-1.0224-0.28568-0.36109-0.67416-0.58985-1.0703-0.73312a0.29308 0.29328 0 0 0-0.12592-0.0172c-0.40075-0.1259-0.83434-0.19836-1.3053-0.19476a0.29308 0.29328 0 0 0-0.0058 0c-0.41993 0.0138-0.83339 0.12696-1.1505 0.23483-0.15854 0.05392-0.29281 0.1084-0.38921 0.14892-0.04822 0.02026-0.08688 0.03628-0.11446 0.0487-0.0276 0.0124-0.06964 0.03314-0.04006 0.02004l-0.24898 0.10596-0.0142 0.0058a0.29308 0.29328 0 0 0-0.0114 0.0028l-0.66682 0.28638 0.05724-0.0172c-9.16e-4 1.82e-4 -0.06778 0.03176-0.10302 0.0487 0.0076-6e-3 0.0194-0.0166 0.02004-0.0172l-5.5121 2.3997 15.995-25.373v10.43c0 0.98145-0.0466 1.5308-0.26615 1.9302-0.21954 0.39939-0.65118 0.72746-1.5483 1.22-0.13804 0.07408-0.27826 0.14374-0.42069 0.20905a0.29308 0.29328 0 0 0-0.0058 0.0028l-0.23753 0.11742c-0.06334 0.02874-0.11592 0.0552-0.16026 0.07732a0.29308 0.29328 0 0 0-0.0114 0.0058c-2.4012 1.1463-4.0945 3.4442-4.3357 6.1399l1.4538 0.5212c0.05092-2.3441 1.4805-4.3641 3.5516-5.3466a0.29308 0.29328 0 0 0 0.0086-0.0058c0.0054-0.0022 6e-3 -8.2e-5 0.0114-0.0028a0.29308 0.29328 0 0 0 0.0028 0c0.12344-0.06278 0.24949-0.12444 0.3749-0.18328 0.47667-0.22078 0.93423-0.48015 1.368-0.77608l0.0058-0.0028c0.08078-0.05272 0.13796-0.1007 0.18602-0.1346a0.29308 0.29328 0 0 0 0.0028-0.0028c0.13992-0.10112 0.27149-0.20614 0.38921-0.30928 0.05986-0.05186 0.12272-0.10876 0.18316-0.18042 0.39247-0.3978 0.64423-0.84071 0.78129-1.3689 0.13784-0.53114 0.1717-1.1402 0.17172-1.9101zm-4.0782 13.967h0.02004a0.29308 0.29328 0 0 0-0.02862 0.0058z" fill-rule="evenodd" opacity=".2"/>
 <path d="m32.024 10.436c-0.25807-9.45e-4 -0.49914 0.12869-0.6382 0.34652a0.29308 0.29328 0 0 0 0 0.0028l-18.611 29.52a0.29308 0.29328 0 0 0-0.0028 0.0028c-0.21364 0.3488-0.0928 0.81309 0.26329 1.0138l18.611 10.653a0.29308 0.29328 0 0 0 0 0.0028c0.23406 0.13252 0.52147 0.13252 0.75553 0l18.571-10.536c0.17176-0.09728 0.29994-0.25901 0.35201-0.44961 0.03008-0.11302-0.02604-0.22038-0.05152-0.3322a0.29308 0.29328 0 0 0-0.0372-0.23483v-0.0028a0.29308 0.29328 0 0 0-0.02004-0.02868l-18.548-29.608a0.29308 0.29328 0 0 0-0.0028-0.0028c-0.13902-0.21777-0.38015-0.34747-0.63822-0.34652zm0.74981 3.3305 16.049 25.616-6.6767-2.9296a0.29308 0.29328 0 0 0-0.0028 0l-0.0058-0.0028c-0.81454-0.3585-1.3103-0.67482-1.6284-1.0825-0.31916-0.40904-0.48905-0.94285-0.59813-1.8042a0.29308 0.29328 0 0 0-0.0028-0.0086c2.56e-4 0.0016-0.0026-0.02264-0.0058-0.04582-0.0022-0.0162-0.0044-0.03848-0.0086-0.06014l-0.0028-0.0058c-0.45138-2.9431-2.6625-5.2996-5.5548-6.1226h-0.0028l-0.02862-0.0086-0.88718 1.2944 0.25757 0.05728c2.4042 0.58387 4.256 2.4598 4.6935 4.8226a0.29308 0.29328 0 0 0 0.0058 0.02864l0.05722 0.34938 0.0229 0.14606c0.14274 1.1025 0.44234 1.8705 0.99307 2.46 0.55073 0.58942 1.3162 0.98668 2.361 1.4462a0.29308 0.29328 0 0 0 0.0058 0.0028c1e-4 4e-5 5e-3 -2.28e-4 0.0058 0 0.0011 3.76e-4 6e-3 0.0019 0.0086 0.0028l6.9658 3.0585-16.009 9.0838v-5.0058c0-1.0038 0.0416-1.5467 0.25184-1.9302s0.63147-0.69624 1.5225-1.1856c0.3561-0.1955 0.71769-0.39903 1.1104-0.62144l0.23754-0.1346 0.0058-0.0028c1.1678-0.62165 2.1174-1.5377 2.8161-2.6203 0.0088-0.0134 0.05774-0.08764 0.10588-0.16038l-1.1705-0.99372c-0.56491 1.0285-1.3836 1.8996-2.4269 2.4714a0.29308 0.29328 0 0 0-0.0028 0l-0.28046 0.16038v-0.0028c-0.38423 0.21705-0.77629 0.43382-1.1304 0.62716-1.1254 0.61796-1.7834 1.141-2.1435 1.8271-0.36019 0.68606-0.3978 1.4718-0.3978 2.5688v5.003l-16.164-9.2499 6.7826-2.9497 0.47507-0.20333a0.29308 0.29328 0 0 0 0.0142-0.0058c0.15224-0.07354 0.7483-0.30179 1.1047-0.31215a0.29308 0.29328 0 0 0 0.0086 0c0.43105-0.0263 1.0191 0.02298 1.2907 0.36656l1.0474 1.3145c0.82721 1.0666 1.9102 1.9411 3.2053 2.4743 0.0102 7e-3 0.02028 0.0146 0.03148 0.02004a0.29308 0.29328 0 0 0 0.02004 0.0086c0.25367 0.1031 0.50645 0.15418 0.75839 0.21478l0.87573-1.2772c-0.47756-0.10276-0.99664-0.24921-1.3937-0.43815a0.29308 0.29328 0 0 0-0.0058 0c-0.92163-0.43585-1.7123-1.0444-2.3181-1.8214a0.29308 0.29328 0 0 0-0.0114-0.0142c-0.02084-0.0235-0.03758-0.04798-0.05438-0.07446a0.29308 0.29328 0 0 0-0.0172-0.02004c-0.06624-0.0861-0.12656-0.16414-0.17744-0.24056a0.29308 0.29328 0 0 0-0.0086-0.0142c-0.17086-0.22889-0.43119-0.56893-0.79274-1.0224-0.28568-0.36109-0.67416-0.58985-1.0703-0.73312a0.29308 0.29328 0 0 0-0.12592-0.0172c-0.40075-0.1259-0.83434-0.19836-1.3053-0.19476a0.29308 0.29328 0 0 0-0.0058 0c-0.41993 0.0138-0.83339 0.12696-1.1505 0.23483-0.15854 0.05392-0.29281 0.1084-0.38921 0.14892-0.04822 0.02026-0.08688 0.03628-0.11446 0.0487-0.0276 0.0124-0.06964 0.03314-0.04006 0.02004l-0.24898 0.10596-0.0142 0.0058a0.29308 0.29328 0 0 0-0.0114 0.0028l-0.66682 0.28638 0.05724-0.0172c-9.16e-4 1.82e-4 -0.06778 0.03176-0.10302 0.0487 0.0076-6e-3 0.0194-0.0166 0.02004-0.0172l-5.5121 2.3997 15.995-25.373v10.43c0 0.98145-0.0466 1.5308-0.26615 1.9302-0.21954 0.39939-0.65118 0.72746-1.5483 1.22-0.13804 0.07408-0.27826 0.14374-0.42069 0.20905a0.29308 0.29328 0 0 0-0.0058 0.0028l-0.23753 0.11742c-0.06334 0.02874-0.11592 0.0552-0.16026 0.07732a0.29308 0.29328 0 0 0-0.0114 0.0058c-2.4012 1.1463-4.0945 3.4442-4.3357 6.1399l1.4538 0.5212c0.05092-2.3441 1.4805-4.3641 3.5516-5.3466a0.29308 0.29328 0 0 0 0.0086-0.0058c0.0054-0.0022 6e-3 -8.2e-5 0.0114-0.0028a0.29308 0.29328 0 0 0 0.0028 0c0.12344-0.06278 0.24949-0.12444 0.3749-0.18328 0.47667-0.22078 0.93423-0.48015 1.368-0.77608l0.0058-0.0028c0.08078-0.05272 0.13796-0.1007 0.18602-0.1346a0.29308 0.29328 0 0 0 0.0028-0.0028c0.13992-0.10112 0.27149-0.20614 0.38921-0.30928 0.05986-0.05186 0.12272-0.10876 0.18316-0.18042 0.39247-0.3978 0.64423-0.84071 0.78129-1.3689 0.13784-0.53114 0.1717-1.1402 0.17172-1.9101zm-4.0782 13.967h0.02004a0.29308 0.29328 0 0 0-0.02862 0.0058z" fill="#fff" fill-rule="evenodd"/>
</svg>
