<?xml version="1.0" encoding="UTF-8"?>
<svg width="64" height="64" version="1.1" viewBox="0 0 16.933 16.933" xmlns="http://www.w3.org/2000/svg" xmlns:cc="http://creativecommons.org/ns#" xmlns:dc="http://purl.org/dc/elements/1.1/" xmlns:rdf="http://www.w3.org/1999/02/22-rdf-syntax-ns#">
 <metadata>
  <rdf:RDF>
   <cc:Work rdf:about="">
    <dc:format>image/svg+xml</dc:format>
    <dc:type rdf:resource="http://purl.org/dc/dcmitype/StillImage"/>
   </cc:Work>
  </rdf:RDF>
 </metadata>
 <defs>
  <linearGradient id="linearGradient1242" x1="-9" x2="45" y1="50" y2="50" gradientTransform="matrix(1.1364 0 0 1.1364 11.546 -.89274)" gradientUnits="userSpaceOnUse">
   <stop stop-color="#a1aab3" offset="0"/>
   <stop stop-color="#818990" offset="1"/>
  </linearGradient>
  <linearGradient id="linearGradient1448" x1="3.9687" x2="3.9687" y1="16.378" y2=".54085" gradientTransform="matrix(.91666 0 0 .91666 .70542 .70542)" gradientUnits="userSpaceOnUse">
   <stop stop-color="#43474b" offset="0"/>
   <stop stop-color="#6c7277" offset="1"/>
  </linearGradient>
 </defs>
 <g fill="#5e4aa6" stroke-width=".26458">
  <circle cx="-330.38" cy="-328.37" r="0"/>
  <circle cx="-312.55" cy="-328.38" r="0"/>
  <circle cx="-295.13" cy="-341.25" r="0"/>
 </g>
 <rect x="1.1905" y="1.1905" width="14.552" height="14.552" ry="3.4395" fill="url(#linearGradient1448)" stroke-opacity=".95294" stroke-width=".083152"/>
 <path transform="scale(.26458)" d="m5.3496 51.143c1.8618 4.8952 6.5862 8.3574 12.15 8.3574h29c5.5641 0 10.289-3.4622 12.15-8.3574h-53.301z" fill="url(#linearGradient1242)" style="paint-order:stroke fill markers"/>
 <g transform="translate(2.5605 .21374)" fill="#fff" stroke-width=".79999">
  <rect x="1.6291" y="13.777" width="1.0583" height="1.0583" ry=".10583" style="paint-order:stroke markers fill"/>
  <rect x="5.9988" y="13.777" width="1.0583" height="1.0583" ry=".10583" style="paint-order:stroke markers fill"/>
  <rect x="7.5616" y="13.777" width="1.0583" height="1.0583" ry=".10583" style="paint-order:stroke markers fill"/>
  <rect x="9.1245" y="13.777" width="1.0583" height="1.0583" ry=".10583" style="paint-order:stroke markers fill"/>
 </g>
</svg>
