<?xml version="1.0" encoding="UTF-8"?>
<svg width="64" height="64" version="1.1" viewBox="0 0 16.933 16.933" xmlns="http://www.w3.org/2000/svg" xmlns:cc="http://creativecommons.org/ns#" xmlns:dc="http://purl.org/dc/elements/1.1/" xmlns:rdf="http://www.w3.org/1999/02/22-rdf-syntax-ns#">
 <defs>
  <filter id="filter5528" x="-.10312" y="-.058929" width="1.2062" height="1.1179" color-interpolation-filters="sRGB">
   <feGaussianBlur stdDeviation="0.515625"/>
  </filter>
  <radialGradient id="radialGradient1106" cx="8.4665" cy="8.4665" r="7.2759" gradientTransform="translate(-9.9163e-5 -.00010012)" gradientUnits="userSpaceOnUse">
   <stop stop-color="#32e6e6" offset="0"/>
   <stop stop-color="#0078d4" offset="1"/>
  </radialGradient>
  <filter id="filter2765-7" x="-.045891" y="-.037318" width="1.0918" height="1.0746" color-interpolation-filters="sRGB">
   <feGaussianBlur stdDeviation="0.16637114"/>
  </filter>
  <linearGradient id="linearGradient1236" x1="-20.825" x2="-20.825" y1="5.166" y2="15.875" gradientTransform="matrix(.88937 0 0 .88937 26.97 -.12865)" gradientUnits="userSpaceOnUse">
   <stop stop-color="#fafafa" offset="0"/>
   <stop stop-color="#f0f0f0" offset="1"/>
  </linearGradient>
  <linearGradient id="linearGradient1238" x1="-26.707" x2="-26.707" y1="18.671" y2="15.934" gradientTransform="matrix(.88937 0 0 .88937 32.298 -.12865)" gradientUnits="userSpaceOnUse">
   <stop stop-color="#232220" offset="0"/>
   <stop stop-color="#656b70" offset="1"/>
  </linearGradient>
 </defs>
 <metadata>
  <rdf:RDF>
   <cc:Work rdf:about="">
    <dc:format>image/svg+xml</dc:format>
    <dc:type rdf:resource="http://purl.org/dc/dcmitype/StillImage"/>
   </cc:Work>
  </rdf:RDF>
 </metadata>
 <rect x="1.1905" y="1.1905" width="14.552" height="14.552" ry="3.4396" fill="url(#radialGradient1106)" image-rendering="optimizeSpeed" stroke-width=".12512"/>
 <path transform="matrix(.88937 0 0 .88937 26.906 -.12865)" d="m-16.383 9.5579c0-2.4018-1.9472-4.3693-4.3504-4.3693s-4.3504 1.9675-4.3504 4.3693c0 0.95126 0.50472 2.1786 1.3153 3.0838 0.80377 0.89714 1.0507 1.5701 1.0507 2.7744v0.47225h4.1392v-0.46819c0-1.2043 0.07655-1.8746 0.87626-2.7744 0.81324-0.91473 1.3193-2.2516 1.3193-3.0879z" filter="url(#filter2765-7)" opacity=".3" stroke-width=".013531" p-id="26402"/>
 <path d="m12.336 8.3718c0-2.1361-1.7318-3.8859-3.8691-3.8859s-3.8691 1.7498-3.8691 3.8859c0 0.84602 0.44888 1.9376 1.1698 2.7426 0.71485 0.79789 0.93446 1.3964 0.93446 2.4675v0.42h3.6813v-0.41639c0-1.0711 0.06808-1.6672 0.77932-2.4675 0.72327-0.81353 1.1733-2.0025 1.1733-2.7463z" fill="url(#linearGradient1236)" stroke-width=".012034" p-id="26402"/>
 <path d="m6.7024 14.002v0.88393s0.20798 1.4326 1.8437 1.5905c1.6361-0.13536 1.8376-1.5905 1.8376-1.5905v-0.88393z" fill="url(#linearGradient1238)" stroke-width=".88937"/>
 <g transform="translate(-21.615 .95764)" fill-rule="evenodd">
  <path transform="matrix(.26458 0 0 .26458 21.615 .1583)" d="m33.5 17.282-7.5 12h4.5v9l7.5-12h-4.5z" fill="#323232" filter="url(#filter5528)" opacity=".6" stroke-width="1.5"/>
  <path d="m30.479 4.7309-1.9844 3.175h1.1906v2.3812l1.9844-3.175h-1.1906z" fill="#0079d4" stroke-width=".39688"/>
 </g>
</svg>
