<?xml version="1.0" encoding="UTF-8"?>
<svg width="64" height="64" version="1.1" viewBox="0 0 16.933 16.933" xmlns="http://www.w3.org/2000/svg" xmlns:xlink="http://www.w3.org/1999/xlink">
 <defs>
  <linearGradient id="linearGradient2116" x1="59.5" x2="4.5" y1="4.5" y2="59.5" gradientTransform="scale(.26458)" gradientUnits="userSpaceOnUse">
   <stop stop-color="#37beff" offset="0"/>
   <stop stop-color="#00a0ff" offset="1"/>
  </linearGradient>
 </defs>
 <rect x="1.1906" y="1.1906" width="14.552" height="14.552" ry="3.4395" fill="url(#linearGradient2116)" stroke-width=".56196"/>
 <g transform="matrix(.22689 0 0 .22689 3.4376 .95828)" fill="#fff">
  <g transform="matrix(.71829 0 0 .71829 2.7912 12.923)">
   <rect x=".52434" y="14.445" width="16.695" height="12.328" ry="2.6356"/>
   <rect x="19.651" y="14.445" width="16.695" height="12.328" ry="2.6356"/>
   <rect x=".30503" y="29.384" width="16.695" height="12.328" ry="2.6356"/>
   <rect x="19.432" y="29.384" width="16.695" height="12.328" ry="2.6356"/>
  </g>
  <path d="m22.644 14.434a18.658 18.658 0 0 0-12.471 4.8459h6.0381a15.27 15.27 0 0 1 6.436-1.4584 15.27 15.27 0 0 1 15.284 15.253v0.01745a15.27 15.27 0 0 1-15.266 15.27 15.27 15.27 0 0 1-6.4721-1.4591h-6.0433a18.658 18.658 0 0 0 12.516 4.8462 18.658 18.658 0 0 0 18.653-18.657v-0.02116a18.658 18.658 0 0 0-18.674-18.637z"/>
 </g>
</svg>
