<?xml version="1.0" encoding="UTF-8"?>
<svg width="64" height="64" version="1.1" viewBox="0 0 16.933 16.933" xmlns="http://www.w3.org/2000/svg" xmlns:cc="http://creativecommons.org/ns#" xmlns:dc="http://purl.org/dc/elements/1.1/" xmlns:rdf="http://www.w3.org/1999/02/22-rdf-syntax-ns#" xmlns:xlink="http://www.w3.org/1999/xlink">
 <defs>
  <linearGradient id="linearGradient1375" x1="22.211" x2="22.211" y1="4.0214" y2="59.161" gradientTransform="matrix(.26458 0 0 .26458 1.2662 -2.7025)" gradientUnits="userSpaceOnUse">
   <stop stop-color="#333" offset="0"/>
   <stop stop-color="#484848" offset="1"/>
  </linearGradient>
  <linearGradient id="linearGradient1052" x1="23.5" x2="23.5" y1="20" y2="36" gradientTransform="matrix(.44294 0 0 .38403 -3.8791 -6.2893)" gradientUnits="userSpaceOnUse" xlink:href="#b"/>
  <linearGradient id="b">
   <stop stop-color="#3af63a" offset="0"/>
   <stop stop-color="#3af68b" offset="1"/>
  </linearGradient>
  <linearGradient id="linearGradient1050" x1="32" x2="32" y1="30" y2="36" gradientTransform="matrix(.44294 0 0 .38403 -4.4671 -6.2893)" gradientUnits="userSpaceOnUse" xlink:href="#b"/>
  <linearGradient id="linearGradient1048" x1="40.5" x2="40.5" y1="26" y2="36" gradientTransform="matrix(.44294 0 0 .38403 -5.0552 -6.2893)" gradientUnits="userSpaceOnUse">
   <stop stop-color="#0ef1c9" offset="0"/>
   <stop stop-color="#0e95f1" offset="1"/>
  </linearGradient>
  <filter id="n-6" x="-.06" y="-.06" width="1.12" height="1.12" color-interpolation-filters="sRGB">
   <feGaussianBlur stdDeviation="0.14999813"/>
  </filter>
  <filter id="o-5" x="-.06" y="-.06" width="1.12" height="1.12" color-interpolation-filters="sRGB">
   <feGaussianBlur stdDeviation="0.14999813"/>
  </filter>
  <filter id="l-3" x="-.06" y="-.06" width="1.12" height="1.12" color-interpolation-filters="sRGB">
   <feGaussianBlur stdDeviation="0.14999813"/>
  </filter>
  <linearGradient id="linearGradient1095" x1="32" x2="32" y1="40" y2="45.333" gradientTransform="matrix(.49831 0 0 .49831 -26.139 -11.396)" gradientUnits="userSpaceOnUse" xlink:href="#a-5"/>
  <linearGradient id="a-5">
   <stop stop-color="#a2a2a2" offset="0"/>
   <stop stop-color="#d0d0d0" offset="1"/>
  </linearGradient>
  <linearGradient id="linearGradient1097-5" x1="32" x2="32" y1="40" y2="45.333" gradientTransform="matrix(.49831 0 0 .49831 -26.139 -15.646)" gradientUnits="userSpaceOnUse" xlink:href="#a-5"/>
  <linearGradient id="linearGradient1099" x1="32" x2="32" y1="40" y2="45.333" gradientTransform="matrix(.49831 0 0 .49831 -26.139 -7.4102)" gradientUnits="userSpaceOnUse" xlink:href="#a-5"/>
 </defs>
 <metadata>
  <rdf:RDF>
   <cc:Work rdf:about="">
    <dc:format>image/svg+xml</dc:format>
    <dc:type rdf:resource="http://purl.org/dc/dcmitype/StillImage"/>
    <dc:title/>
   </cc:Work>
  </rdf:RDF>
 </metadata>
 <g transform="translate(-1.2662 2.7025)">
  <path d="m5.8964-1.5119c-1.9055 0-3.4396 1.5341-3.4396 3.4396v7.6729c0 1.9055 1.5341 3.4396 3.4396 3.4396h7.6729c1.9055 0 3.4396-1.5341 3.4396-3.4396v-7.6729c0-1.9055-1.5341-3.4396-3.4396-3.4396z" fill="url(#linearGradient1375)" style="paint-order:stroke fill markers"/>
  <rect x="3.9747" y=".0059061" width="11.516" height="7.9729" ry="1.6627" fill="#141414" image-rendering="optimizeSpeed" stroke-width=".57264" style="paint-order:normal"/>
  <rect x="5.4227" y="1.3914" width="2.2147" height="6.1445" fill="url(#linearGradient1052)" image-rendering="optimizeSpeed" stroke-width=".53246" style="paint-order:normal"/>
  <rect x="8.3782" y="5.2317" width="2.6576" height="2.3042" fill="url(#linearGradient1050)" image-rendering="optimizeSpeed" stroke-width=".61865" style="paint-order:normal"/>
  <rect x="11.777" y="3.6956" width="2.2147" height="3.8403" fill="url(#linearGradient1048)" image-rendering="optimizeSpeed" stroke-width=".55114" style="paint-order:normal"/>
  <g stroke-width="1.5">
   <circle transform="matrix(0 -.44294 .44294 0 -4.3099 -8.41)" cx="-42" cy="41" r="3" filter="url(#n-6)" image-rendering="optimizeSpeed" opacity=".15" style="paint-order:normal"/>
   <circle transform="matrix(0 -.44294 .44294 0 -4.3099 -8.41)" cx="-42" cy="32" r="3" filter="url(#o-5)" image-rendering="optimizeSpeed" opacity=".15" style="paint-order:normal"/>
   <circle transform="matrix(0 -.44294 .44294 0 -4.3099 -8.41)" cx="-42" cy="22.407" r="3" filter="url(#l-3)" image-rendering="optimizeSpeed" opacity=".15" style="paint-order:normal"/>
  </g>
  <g stroke-width=".66441">
   <circle transform="rotate(-90)" cx="-10.194" cy="9.8642" r="1.3288" fill="url(#linearGradient1095)" image-rendering="optimizeSpeed" style="paint-order:normal"/>
   <path d="m11.193 10.194a1.3288 1.3288 0 0 0-0.18038-0.66441h-1.1484a0.66441 0.66441 0 0 0-0.66441 0.66441 0.66441 0.66441 0 0 0 0.66441 0.66441h1.1497a1.3288 1.3288 0 0 0 0.17908-0.66441z" image-rendering="optimizeSpeed" opacity=".25" style="paint-order:normal"/>
   <circle transform="rotate(-90)" cx="-10.194" cy="5.6151" r="1.3288" fill="url(#linearGradient1097-5)" image-rendering="optimizeSpeed" style="paint-order:normal"/>
   <path d="m5.6151 8.8647a1.3288 1.3288 0 0 0-0.66441 0.18037v1.1484a0.66441 0.66441 0 0 0 0.66441 0.66441 0.66441 0.66441 0 0 0 0.66441-0.66441v-1.1497a1.3288 1.3288 0 0 0-0.66441-0.17908z" image-rendering="optimizeSpeed" opacity=".25" style="paint-order:normal"/>
   <circle transform="rotate(-90)" cx="-10.194" cy="13.851" r="1.3288" fill="url(#linearGradient1099)" image-rendering="optimizeSpeed" style="paint-order:normal"/>
   <path d="m13.851 11.522a1.3288 1.3288 0 0 0 0.66441-0.18037v-1.1484a0.66441 0.66441 0 0 0-0.66441-0.66441 0.66441 0.66441 0 0 0-0.66441 0.66441v1.1497a1.3288 1.3288 0 0 0 0.66441 0.17908z" image-rendering="optimizeSpeed" opacity=".25" style="paint-order:normal"/>
  </g>
 </g>
</svg>
