<?xml version="1.0" encoding="UTF-8"?>
<svg width="64" height="64" version="1.1" viewBox="0 0 64 64" xmlns="http://www.w3.org/2000/svg">
 <defs>
  <linearGradient id="linearGradient1448" x1="3.9687" x2="3.9687" y1="16.323" y2="2.5603" gradientTransform="matrix(3.4646 0 0 3.4646 2.6662 2.6662)" gradientUnits="userSpaceOnUse">
   <stop stop-color="#f50f2d" offset="0"/>
   <stop stop-color="#ff4b00" offset="1"/>
  </linearGradient>
 </defs>
 <rect x="4.4996" y="4.4996" width="55.001" height="55.001" ry="13" fill="url(#linearGradient1448)" stroke-opacity=".95294" stroke-width=".31428"/>
 <rect x="17" y="43" width="30" height="3" rx="1.5" ry="1.5" fill="#f9f9f9" opacity=".5" stroke-width="1.3693" style="paint-order:normal"/>
 <circle cx="24.5" cy="44.5" r="3.5" fill="#fff" stroke-width="1.1667" style="paint-order:normal"/>
 <path d="m32 17c-5.5229 0-10 4.4771-10 10s4.4771 10 10 10 10-4.4771 10-10-4.4771-10-10-10zm-3 4 9 6-9 6z" fill="#fff" stroke-width="1.25" style="paint-order:normal"/>
 <g transform="translate(0,1)" fill-rule="evenodd" stroke-linecap="round" stroke-linejoin="round" stroke-width=".76029">
  <rect x="50" y="12" width="5" height="5" ry="2.5" opacity=".5"/>
  <rect x="50" y="20.25" width="5" height="5" ry="2.5" opacity=".5"/>
  <rect x="50" y="28.5" width="5" height="5" ry="2.5" opacity=".5"/>
  <rect x="50" y="36.75" width="5" height="5" ry="2.5" opacity=".5"/>
  <rect x="50" y="45" width="5" height="5" ry="2.5" opacity=".5"/>
  <g transform="translate(-41)">
   <rect x="50" y="12" width="5" height="5" ry="2.5" opacity=".5"/>
   <rect x="50" y="20.25" width="5" height="5" ry="2.5" opacity=".5"/>
   <rect x="50" y="28.5" width="5" height="5" ry="2.5" opacity=".5"/>
   <rect x="50" y="36.75" width="5" height="5" ry="2.5" opacity=".5"/>
   <rect x="50" y="45" width="5" height="5" ry="2.5" opacity=".5"/>
  </g>
 </g>
</svg>
