<?xml version="1.0" encoding="UTF-8"?>
<svg width="64" height="64" version="1.1" viewBox="0 0 16.933 16.933" xmlns="http://www.w3.org/2000/svg" xmlns:cc="http://creativecommons.org/ns#" xmlns:dc="http://purl.org/dc/elements/1.1/" xmlns:rdf="http://www.w3.org/1999/02/22-rdf-syntax-ns#" xmlns:xlink="http://www.w3.org/1999/xlink">
 <defs>
  <linearGradient id="linearGradient1115" x1="-29.448" x2="-29.448" y1="4.6371" y2="59.494" gradientTransform="matrix(.26458 0 0 .26458 16.938 1.8232)" gradientUnits="userSpaceOnUse">
   <stop stop-color="#fff" offset="0"/>
   <stop stop-color="#ccd4da" offset="1"/>
  </linearGradient>
  <filter id="filter1024" x="-.041483" y="-.056946" width="1.083" height="1.1139" color-interpolation-filters="sRGB">
   <feGaussianBlur stdDeviation="0.22461558"/>
  </filter>
  <linearGradient id="linearGradient920" x1="500.12" x2="500.12" y1="371.07" y2="951.05" gradientTransform="matrix(.011554 0 0 .011554 2.6979 4.0341)" gradientUnits="userSpaceOnUse" xlink:href="#linearGradient1006"/>
  <linearGradient id="linearGradient1006">
   <stop stop-color="#d3d3d3" offset="0"/>
   <stop stop-color="#858585" offset="1"/>
  </linearGradient>
  <linearGradient id="linearGradient926" x1="625.39" x2="625.39" y1="70.323" y2="563.17" gradientTransform="matrix(.011554 0 0 .011554 2.6979 4.0341)" gradientUnits="userSpaceOnUse" xlink:href="#linearGradient1006"/>
 </defs>
 <metadata>
  <rdf:RDF>
   <cc:Work rdf:about="">
    <dc:format>image/svg+xml</dc:format>
    <dc:type rdf:resource="http://purl.org/dc/dcmitype/StillImage"/>
    <dc:title/>
   </cc:Work>
  </rdf:RDF>
 </metadata>
 <g transform="translate(-.085958 -1.8232)">
  <rect x="1.2766" y="3.0138" width="14.552" height="14.552" ry="3.4396" fill="url(#linearGradient1115)" image-rendering="optimizeSpeed" stroke-width=".12512"/>
  <path transform="matrix(.67754 0 0 .67754 20.525 4.1915)" d="m-22.016 6.8057c-1.1875 0.022987-2.1889 0.98559-2.4138 3.0044-0.25575 1.7095 0.60436 3.8552 2.2164 3.8162 0.39436-0.0095 0.80243 0.16195 0.91776 0.21652 0.53317 0.25236 1.0564 0.23822 1.543 0.07028-0.22815-0.66528-0.3271-1.3938-0.2713-2.0851 0.05674-1.2667 0.39911-2.2265 0.95031-2.8685 0.36945-0.43033 0.83468-0.70648 1.3441-0.83456-0.44429-0.44594-1.0626-0.7108-1.7663-0.7157-0.4995-0.00183-0.89368-0.12899-1.2924-0.3178-0.41537-0.19672-0.83198-0.29343-1.2278-0.28576zm5.0585 1.5017c-1.4785-0.061644-2.6953 1.0811-2.8029 3.5392-0.1568 1.9267 0.96308 4.2561 2.7584 4.0917 0.43911-0.04002 0.90744 0.12109 1.0402 0.17311 2.1821 0.85857 3.9983-1.9489 4.2963-3.2669 0.73051-2.4258-0.79082-4.1648-2.7714-4.0462-0.55734 0.035653-1.0068-0.076535-1.4655-0.25734-0.35859-0.1412-0.71403-0.21935-1.0552-0.23357z" filter="url(#filter1024)" opacity=".5" stroke-width=".017053"/>
  <g stroke-width=".011554">
   <path d="m5.6087 8.4441c-0.80458 0.015575-1.4831 0.66778-1.6354 2.0356-0.17328 1.1583 0.40948 2.612 1.5017 2.5857 0.2672-0.0064 0.54368 0.10973 0.62182 0.1467 0.36124 0.17098 0.71578 0.1614 1.0455 0.04762-0.15458-0.45076-0.22162-0.94439-0.18381-1.4128 0.038444-0.85827 0.27041-1.5085 0.64388-1.9435 0.25032-0.29157 0.56553-0.47867 0.91067-0.56545-0.30103-0.30215-0.71998-0.4816-1.1967-0.48492-0.33843-0.0012398-0.6055-0.087397-0.87566-0.21533-0.28143-0.13329-0.5637-0.19881-0.83189-0.19362zm3.4274 1.0175c-1.0017-0.041766-1.8262 0.73252-1.8991 2.398-0.10624 1.3054 0.65253 2.8837 1.869 2.7723 0.29751-0.027115 0.61483 0.082043 0.7048 0.11729 1.4785 0.58172 2.709-1.3204 2.9109-2.2135 0.49495-1.6436-0.53582-2.8218-1.8777-2.7415-0.37762 0.024156-0.68213-0.051856-0.99295-0.17436-0.24296-0.095669-0.48378-0.14862-0.71495-0.15826z" fill="url(#linearGradient920)"/>
   <path d="m6.3009 8.7403c-0.040612 0.00655-0.069593 0.029926-0.08543 0.076327-0.0631 0.18561 0.20329 0.44435 0.59521 0.5777 0.39192 0.13335 0.76049 0.091074 0.82384-0.094533 0.063351-0.18561-0.29887-0.21572-0.69079-0.34907-0.29394-0.1002-0.52099-0.23005-0.64283-0.21042zm3.2155 1.1663c-0.08808-0.00119-0.14331 0.024636-0.15616 0.099785-0.034264 0.20015 0.30772 0.42559 0.76397 0.50348 0.45625 0.07789 0.854-0.02123 0.88826-0.22163 0.03426-0.20015-0.37004-0.1763-0.82629-0.25419-0.285-0.048681-0.52299-0.12547-0.66979-0.12744z" fill="#505050"/>
   <path d="m9.6394 4.9982c-0.38722 8.538e-4 -0.89127 0.11612-1.46 0.52343-0.33991 0.24353-0.8975 0.053012-1.39-0.21813-0.051764-0.028593-0.1045 0.035642-0.064075 0.078778 0.36621 0.39016 1.168 1.1372 2.1571 1.4376-0.80069 0.64467-1.4127 1.314-1.4127 1.314-0.59281 0.70619-0.98105 0.70445-0.98105 0.70445-0.26991 0.044615 0.042611 0.32292 0.042367 0.32316 0.086025 0.0843 0.30814 0.17842 0.44571 0.20307 0.32586 0.058172 0.55058 0.024865 0.40194-0.25909-0.1267-0.24205 0.32141-0.68729 0.32141-0.68729 0.52911-0.59186 1.1422-1.0894 1.7016-1.4884 0.11097 0.01321 0.2232 0.022299 0.33717 0.021357 0.51313-0.0041901 0.92307-0.13015 1.251-0.30496-0.54764 0.97697-0.76537 2.2895-0.76537 2.2895-0.14494 0.90659-0.46426 0.96599-0.46426 0.96599-0.30713 0.11905 0.10959 0.35492 0.10959 0.35467 0.1267 0.06754 0.24461 0.09954 0.4142 0.11729 0.4035 0.04215 0.69089-0.05931 0.44046-0.29866-0.2741-0.26177-0.10364-0.88161-0.10364-0.88161 0.36514-1.7826 0.85963-2.7286 1.1239-3.0919-0.08834 0.46341-0.03764 1.1341 0.64318 1.8063 0 0 0.52107 0.52806 0.72196 0.92047 0.02292 0.044862 0.08907 0.032779 0.09523-0.017506 0.03401-0.27977 0.10914-0.7645 0.24298-1.0273 0 0 0.3824-0.89561-0.53184-1.2962 0 2.27e-4 -0.66679-0.37808-0.89387-0.86796 0.04333-0.081529 0.07107-0.14215 0.07107-0.14215s-0.85192 0.14848-1.6515-0.292c0 0-0.30463-0.18806-0.80248-0.18697z" fill="url(#linearGradient926)"/>
  </g>
 </g>
</svg>
