<?xml version="1.0" encoding="UTF-8"?>
<!-- Created with Inkscape (http://www.inkscape.org/) -->
<svg width="64" height="64" version="1.1" viewBox="0 0 16.933 16.933" xmlns="http://www.w3.org/2000/svg" xmlns:xlink="http://www.w3.org/1999/xlink">
 <defs>
  <linearGradient id="linearGradient29430" x1="3.7041" x2="3.7041" y1="2.6458" y2="7.1436" gradientTransform="translate(21.316)" gradientUnits="userSpaceOnUse">
   <stop stop-color="#f6f6f1" offset="0"/>
   <stop stop-color="#f6f6f1" offset="1"/>
  </linearGradient>
  <filter id="filter184759" x="-.20597" y="-.073188" width="1.4119" height="1.1464" color-interpolation-filters="sRGB">
   <feGaussianBlur stdDeviation="0.046920661"/>
  </filter>
  <linearGradient id="linearGradient2116" x1="59.5" x2="4.5" y1="4.5" y2="59.5" gradientTransform="scale(.26458)" gradientUnits="userSpaceOnUse">
   <stop stop-color="#e9f0f7" offset="0"/>
   <stop stop-color="#b1c4e7" offset="1"/>
  </linearGradient>
  <linearGradient id="linearGradient27964" x1="3.7041" x2="3.7041" y1="2.6458" y2="7.1436" gradientTransform="translate(1.1889 .16466)" gradientUnits="userSpaceOnUse">
   <stop stop-color="#f6f6f1" offset="0"/>
   <stop stop-color="#a4b0c1" offset="1"/>
  </linearGradient>
  <radialGradient id="radialGradient27966" cx="3.9197" cy="4.4782" r="2.2489" gradientTransform="matrix(1.4014 0 0 1.4014 -.35094 -1.8)" gradientUnits="userSpaceOnUse">
   <stop stop-color="#f7e954" offset="0"/>
   <stop stop-color="#ebd244" offset=".51557"/>
   <stop stop-color="#927416" offset="1"/>
  </radialGradient>
  <linearGradient id="linearGradient27968" x1="3.7041" x2="3.7041" y1="2.6458" y2="7.1436" gradientTransform="translate(1.1889 7.0379)" gradientUnits="userSpaceOnUse">
   <stop stop-color="#f6f6f1" offset="0"/>
   <stop stop-color="#a4b0c1" offset="1"/>
  </linearGradient>
  <radialGradient id="radialGradient27970" cx="3.9197" cy="4.4782" r="2.2489" gradientTransform="matrix(1.4014 0 0 1.4014 -.35094 5.0733)" gradientUnits="userSpaceOnUse">
   <stop stop-color="#f9737c" offset="0"/>
   <stop stop-color="#dd4f5c" offset=".51557"/>
   <stop stop-color="#831b1f" offset="1"/>
  </radialGradient>
  <linearGradient id="linearGradient27972" x1="3.7041" x2="3.7041" y1="2.6458" y2="7.1436" gradientTransform="translate(8.0765 .16466)" gradientUnits="userSpaceOnUse">
   <stop stop-color="#f6f6f1" offset="0"/>
   <stop stop-color="#a4b0c1" offset="1"/>
  </linearGradient>
  <radialGradient id="radialGradient27974" cx="3.9197" cy="4.4782" r="2.2489" gradientTransform="matrix(1.4014 0 0 1.4014 6.5367 -1.8)" gradientUnits="userSpaceOnUse">
   <stop stop-color="#7bf2eb" offset="0"/>
   <stop stop-color="#4dcccb" offset=".51557"/>
   <stop stop-color="#246f6c" offset="1"/>
  </radialGradient>
  <linearGradient id="linearGradient27976" x1="3.7041" x2="3.7041" y1="2.6458" y2="7.1436" gradientTransform="translate(8.0909 7.0379)" gradientUnits="userSpaceOnUse">
   <stop stop-color="#f6f6f1" offset="0"/>
   <stop stop-color="#a4b0c1" offset="1"/>
  </linearGradient>
  <radialGradient id="radialGradient27978" cx="3.9197" cy="4.4782" r="2.2489" gradientTransform="matrix(1.4014 0 0 1.4014 6.5511 5.0733)" gradientUnits="userSpaceOnUse">
   <stop stop-color="#f8c477" offset="0"/>
   <stop stop-color="#cf8649" offset=".51557"/>
   <stop stop-color="#884920" offset="1"/>
  </radialGradient>
  <linearGradient id="linearGradient27980" x1="34.986" x2="35.802" y1="4.145" y2="5.7441" gradientTransform="rotate(-15,48.393,113.35)" gradientUnits="userSpaceOnUse">
   <stop stop-color="#f3f4f1" offset="0"/>
   <stop stop-color="#d3dce4" offset=".34551"/>
   <stop stop-color="#8c8d94" offset=".53765"/>
   <stop stop-color="#b4b7c1" offset="1"/>
  </linearGradient>
  <linearGradient id="linearGradient27982" x1="38.198" x2="40.44" y1="1.796" y2="4.8408" gradientTransform="rotate(-15,48.393,113.35)" gradientUnits="userSpaceOnUse">
   <stop stop-color="#d6464e" offset="0"/>
   <stop stop-color="#79171b" offset=".61013"/>
   <stop stop-color="#ad5a63" offset="1"/>
  </linearGradient>
  <linearGradient id="linearGradient27984" x1="38.724" x2="40.908" y1=".72735" y2=".72735" gradientTransform="rotate(-15,48.393,113.35)" gradientUnits="userSpaceOnUse">
   <stop stop-color="#f8acae" offset="0"/>
   <stop stop-color="#fa878d" offset=".272"/>
   <stop stop-color="#cb3740" offset=".51402"/>
   <stop stop-color="#ab2b2f" offset=".71278"/>
   <stop stop-color="#b0373c" offset=".84787"/>
   <stop stop-color="#f65a66" offset="1"/>
  </linearGradient>
  <linearGradient id="linearGradient27986" x1="41.034" x2="41.899" y1=".91859" y2="2.5852" gradientTransform="rotate(-15,48.434,113.38)" gradientUnits="userSpaceOnUse">
   <stop stop-color="#fa9296" offset="0"/>
   <stop stop-color="#dd484f" offset=".34454"/>
   <stop stop-color="#821a1b" offset=".61012"/>
   <stop stop-color="#aa4045" offset="1"/>
  </linearGradient>
  <linearGradient id="linearGradient28004" x1="3.7041" x2="3.7041" y1="2.6458" y2="7.1436" gradientTransform="matrix(1.2353 0 0 1.2353 .28622 -.98707)" gradientUnits="userSpaceOnUse" xlink:href="#linearGradient29430"/>
  <linearGradient id="linearGradient48930" x1="3.7041" x2="3.7041" y1="2.6458" y2="7.1436" gradientTransform="matrix(1.2353 0 0 1.2353 7.1734 -.98707)" gradientUnits="userSpaceOnUse" xlink:href="#linearGradient29430"/>
  <linearGradient id="linearGradient48934" x1="3.7041" x2="3.7041" y1="2.6458" y2="7.1436" gradientTransform="matrix(1.2353 0 0 1.2353 .28622 5.8865)" gradientUnits="userSpaceOnUse" xlink:href="#linearGradient29430"/>
  <linearGradient id="linearGradient48938" x1="3.7041" x2="3.7041" y1="2.6458" y2="7.1436" gradientTransform="matrix(1.2353 0 0 1.2353 7.1879 5.8865)" gradientUnits="userSpaceOnUse" xlink:href="#linearGradient29430"/>
 </defs>
 <rect x="1.1906" y="1.1906" width="14.552" height="14.552" ry="3.4395" fill="url(#linearGradient2116)" stroke-width=".56196"/>
 <g transform="translate(-.0096865 -.029635)">
  <circle cx="5.0253" cy="5.0594" r="2.7781" fill="url(#linearGradient28004)" stroke-width="1.2353"/>
  <circle cx="5.0253" cy="5.0594" r="2.2489" fill="url(#linearGradient27964)"/>
  <circle cx="5.0253" cy="5.0594" r="1.9843" fill="url(#radialGradient27966)"/>
  <circle cx="5.0253" cy="11.933" r="2.7781" fill="url(#linearGradient48934)" stroke-width="1.2353"/>
  <circle cx="5.0253" cy="11.933" r="2.2489" fill="url(#linearGradient27968)"/>
  <circle cx="5.0253" cy="11.933" r="1.9843" fill="url(#radialGradient27970)"/>
  <g transform="translate(.014488)">
   <circle cx="11.913" cy="5.0594" r="2.7781" fill="url(#linearGradient48930)" stroke-width="1.2353"/>
   <circle cx="11.913" cy="5.0594" r="2.2489" fill="url(#linearGradient27972)"/>
   <circle cx="11.913" cy="5.0594" r="1.9843" fill="url(#radialGradient27974)"/>
  </g>
  <circle cx="11.927" cy="11.933" r="2.7781" fill="url(#linearGradient48938)" stroke-width="1.2353"/>
  <circle cx="11.927" cy="11.933" r="2.2489" fill="url(#linearGradient27976)"/>
  <circle cx="11.927" cy="11.933" r="1.9843" fill="url(#radialGradient27978)"/>
 </g>
 <g transform="translate(-1.1995 -1.0765)">
  <path d="m9.8667 8.7298s-2.6306 2.4552-2.731 2.6c-0.10033 0.1448-1.0414 1.7848-1.0414 1.7848s0.10788 0.40763 0.47601 0.49227c0 0 1.7138-0.8334 1.8417-0.94327 0.12786-0.10988 2.717-2.4428 2.717-2.4428z" fill="url(#linearGradient27980)"/>
  <path d="m9.6118 7.6469s-0.19327 0.59334 0.63615 1.7382c0.82943 1.1449 2.1166 1.6338 2.4739 1.0757 0.35726-0.5581-3.11-2.8139-3.11-2.8139z" fill="url(#linearGradient27982)"/>
  <path d="m9.9046 7.0675s-0.82655 0.47922 0.23046 1.803c1.057 1.3238 2.5194 2.1269 2.7165 1.38 0.19708-0.74688-0.40214-2.1731-1.4295-2.8229-1.0273-0.64977-1.5175-0.36006-1.5175-0.36006z" fill="url(#linearGradient27984)"/>
  <ellipse transform="matrix(1.0803 -.57749 .57682 .94149 -29.501 29.885)" cx="37.998" cy=".56295" rx=".27336" ry=".76932" fill="#191919" filter="url(#filter184759)" opacity=".5"/>
  <path d="m13.123 5.8818c-0.08017 0.023335-0.14065 0.050914-0.17797 0.068552-0.11941 0.056439-1.3172 1.2046-1.3659 1.2594-0.04876 0.054846-0.21429 0.29331-0.21429 0.29331s-0.16305 0.26937-0.17304 0.3103c-0.01 0.040925 0.06533 0.41823 0.25866 0.68326 0.1934 0.26502 0.55171 0.67787 0.89283 0.48966l0.2359-0.11255s0.24641-0.2162 0.27722-0.23329c0.03081-0.017098 1.1456-1.0101 1.3835-1.3577 0.23784-0.34769 0.12697-1.133-0.34519-1.3402-0.32457-0.14248-0.59524-0.11207-0.77163-0.060734z" fill="url(#linearGradient27986)"/>
 </g>
</svg>
