<?xml version="1.0" encoding="UTF-8"?>
<svg width="64" height="64" version="1.1" viewBox="0 0 16.933 16.933" xmlns="http://www.w3.org/2000/svg" xmlns:cc="http://creativecommons.org/ns#" xmlns:dc="http://purl.org/dc/elements/1.1/" xmlns:rdf="http://www.w3.org/1999/02/22-rdf-syntax-ns#" xmlns:xlink="http://www.w3.org/1999/xlink">
 <defs>
  <linearGradient id="linearGradient4476" x2="1" gradientTransform="matrix(.080491 -.25664 .25664 .080491 4.9365 5.7419)" gradientUnits="userSpaceOnUse">
   <stop stop-color="#ff8000" offset="0"/>
   <stop stop-color="#fec919" offset="1"/>
  </linearGradient>
  <linearGradient id="linearGradient4480" x2="1" gradientTransform="matrix(0 -2.1366 2.1366 0 7.6231 2.4528)" gradientUnits="userSpaceOnUse">
   <stop stop-color="#ff8000" offset="0"/>
   <stop stop-color="#fec919" offset="1"/>
  </linearGradient>
  <linearGradient id="linearGradient4482" x2="1" gradientTransform="matrix(9.2659 13.967 -13.967 9.2659 4.4278 -1.1016)" gradientUnits="userSpaceOnUse">
   <stop stop-color="#ff8000" offset="0"/>
   <stop stop-color="#fec919" offset="1"/>
  </linearGradient>
  <linearGradient id="linearGradient4484" x2="1" gradientTransform="matrix(0 1.7387 -1.7387 0 7.5662 1.2742)" gradientUnits="userSpaceOnUse">
   <stop stop-opacity=".25" offset="0"/>
   <stop stop-opacity="0" offset="1"/>
  </linearGradient>
  <linearGradient id="linearGradient4486" x2="1" gradientTransform="matrix(.95602 1.3243 -1.3243 .95602 8.7832 6.8439)" gradientUnits="userSpaceOnUse">
   <stop stop-opacity=".25" offset="0"/>
   <stop stop-opacity="0" offset="1"/>
  </linearGradient>
  <linearGradient id="linearGradient4488" x2="1" gradientTransform="matrix(0 -.46955 .46955 0 7.6231 6.1511)" gradientUnits="userSpaceOnUse">
   <stop stop-opacity=".25" offset="0"/>
   <stop stop-opacity="0" offset="1"/>
  </linearGradient>
  <linearGradient id="linearGradient4490" x2="1" gradientTransform="matrix(5.8766 -5.4688 5.4688 5.8766 2.8027 10.649)" gradientUnits="userSpaceOnUse">
   <stop stop-color="#ff8000" offset="0"/>
   <stop stop-color="#fec919" offset="1"/>
  </linearGradient>
  <linearGradient id="linearGradient1448-59" x1="3.9687" x2="3.9687" y1="15.338" y2=".54085" gradientTransform="matrix(.91668 0 0 .91668 .70541 -16.228)" gradientUnits="userSpaceOnUse">
   <stop stop-color="#333132" offset="0"/>
   <stop stop-color="#212427" offset="1"/>
  </linearGradient>
 </defs>
 <metadata>
  <rdf:RDF>
   <cc:Work rdf:about="">
    <dc:format>image/svg+xml</dc:format>
    <dc:type rdf:resource="http://purl.org/dc/dcmitype/StillImage"/>
    <dc:title/>
   </cc:Work>
  </rdf:RDF>
 </metadata>
 <rect transform="scale(1,-1)" x="1.1905" y="-15.743" width="14.552" height="14.552" ry="3.4396" fill="url(#linearGradient1448-59)" stroke-opacity=".95294" stroke-width=".083153"/>
 <g transform="translate(.98312 2.5199)" clip-rule="evenodd" fill-rule="evenodd" stroke-linejoin="round" stroke-miterlimit="1.4142" stroke-width=".081074">
  <path d="m4.8241 5.6897c0-0.067291 0.11164-0.12185 0.25206-0.12185 0.0073 0 0.014512 8.1e-5 0.021728 3.969e-4 0.00576 2.431e-4 0.19206 0 0.19206 0l-0.33532 0.90551-0.37521-0.14691s0.24468-0.56987 0.24468-0.63716z" fill="url(#linearGradient4476)"/>
  <path d="m8.294 1.0013h-1.3248l0.65394 1.0005z" fill="url(#linearGradient4480)"/>
  <path d="m6.9151 1.0573c0.012324-0.033645 0.034457-0.056022 0.05967-0.056022 0.018727 0 0.035835 0.012486 0.048401 0.032754l0.56752 0.87981c0.014108 0.022294 0.052374 0.024889 0.069642-1.622e-4l0.5796-0.87965c0.012568-0.02027 0.029673-0.032754 0.048482-0.032754 0.025215 0 0.047266 0.022376 0.059589 0.056022l-1.62e-4 -8.202e-4 3.8065 9.4645c0.02068 0.04629 0.0124 0.0608-0.04143 0.02529l-5.5983-3.3836-3.4331 3.4248s3.8305-9.5213 3.8336-9.5302z" fill="url(#linearGradient4482)"/>
  <path d="m6.9747 1.0014c-0.025215 0-0.047104 0.022164-0.059428 0.05581-7.673e-4 0.00214-0.5868 1.4585-0.92656 2.3032h3.2856l-0.92656-2.3032v-5.291e-4c-0.012356-0.033385-0.03433-0.055294-0.059428-0.055294-0.018809 0-0.036008 0.012287-0.048576 0.032556l-0.57929 0.87953c-0.017269 0.025051-0.055656 0.02281-0.069763 5.292e-4l-0.56741-0.88005c-0.012565-0.020267-0.029849-0.032556-0.048576-0.032556z" fill="url(#linearGradient4484)"/>
  <path d="m8.7716 9.0486 2.4671-1.7625-0.60222-1.3393-5.3465 0.07402z" fill="url(#linearGradient4486)"/>
  <path d="m10.705 5.164-5.7699 0.0055933-0.50687 1.3042 5.7952-0.27614z" fill="url(#linearGradient4488)"/>
  <path d="m5.2172 7.337 2.2116-5.8311 0.37659-8.202e-4 2.8875 7.3281-3.8125-2.3969z" fill="#fff" fill-opacity=".2"/>
  <path d="m5.0762 5.8115h5.9639c0.03932-1.619e-4 0.03705 0.012891-3.97e-4 0.037051l-8.1884 5.0276c-0.049698 0.0304-0.061048 0.01735-0.035753-0.03721l2.0083-5.1574s-0.018727 0.11804 0.25206 0.12996z" fill="url(#linearGradient4490)"/>
  <path d="m4.6749 6.0716c0.00722 0.10223 0.10702 0.13401 0.20998 0.13531l4.9838-0.044915-6.7872 3.9978z" fill="#fff" opacity=".35"/>
  <path d="m8.0197 1.0013-0.39661 0.61802-0.37821-0.61802z" fill="#fff" opacity=".35"/>
 </g>
</svg>
