<?xml version="1.0" encoding="UTF-8"?>
<svg width="64" height="64" version="1.1" viewBox="0 0 64 64" xmlns="http://www.w3.org/2000/svg">
 <defs>
  <linearGradient id="linearGradient1448" x1="3.9687" x2="3.9687" y1="15.338" y2=".54085" gradientTransform="matrix(.91666 0 0 .91666 26.674 -20.554)" gradientUnits="userSpaceOnUse">
   <stop stop-color="#8c05eb" offset="0"/>
   <stop stop-color="#5a00a0" offset="1"/>
  </linearGradient>
 </defs>
 <g transform="matrix(3.7796 0 0 3.7796 -98.154 -16.352)">
  <rect transform="scale(1,-1)" x="27.16" y="-20.069" width="14.552" height="14.552" ry="3.4395" fill="url(#linearGradient1448)" image-rendering="optimizeSpeed" stroke-opacity=".95294" stroke-width=".083152"/>
 </g>
 <g transform="matrix(.23235 0 0 .23235 41.748 27.47)" fill="#f5f5f5" stroke-width=".19531">
  <path d="m42.882 31.98-12.607-41.5c-2.459-8.0898-8.2695-14.82-16.365-18.951-7.9434-4.0527-17.178-5.123-26.008-3.0195-4.748 1.1309-9.0723 3.1074-12.877 5.8828h-33.957c-3.8066-2.7754-8.1309-4.75-12.877-5.8828-8.8281-2.1055-18.064-1.0332-26.006 3.0195-8.0957 4.1289-13.908 10.859-16.365 18.951l-12.609 41.5c-2.3125 7.6094-1.373 15.652 2.6426 22.65 4.4922 7.8301 12.492 13.613 21.949 15.869 2.9199 0.69531 5.7305 1.0371 8.416 1.0371 13.139 0 23.219-8.1797 27.725-23.008l0.02539-0.08399h48.209l0.02539 0.08399c2.5332 8.3379 6.9434 14.795 12.752 18.674 6.3965 4.2715 14.467 5.4102 23.338 3.2969 9.457-2.2539 17.457-8.0371 21.949-15.869 4.0137-6.998 4.9531-15.041 2.6406-22.65zm-121.75-3.5c-12.049 0-21.85-9.8027-21.85-21.85 0-12.049 9.8027-21.85 21.85-21.85s21.85 9.8027 21.85 21.85c0 12.047-9.8027 21.85-21.85 21.85zm67.307-7.8047c-3.8789 0-7.0234-3.1445-7.0234-7.0234 0-3.8789 3.1445-7.0234 7.0234-7.0234 3.8789 0 7.0234 3.1445 7.0234 7.0234 0 3.8789-3.1445 7.0234-7.0234 7.0234zm3.5117-25.752c0-3.8789 3.1445-7.0234 7.0234-7.0234 3.8789 0 7.0234 3.1445 7.0234 7.0234 0 3.8789-3.1445 7.0234-7.0234 7.0234-3.8789 0-7.0234-3.1445-7.0234-7.0234zm17.557 25.752c-3.8789 0-7.0234-3.1445-7.0234-7.0234 0-3.8789 3.1445-7.0234 7.0234-7.0234 3.8789 0 7.0234 3.1445 7.0234 7.0234 0 3.8789-3.1445 7.0234-7.0234 7.0234z" p-id="6008"/>
  <path d="m-78.868 6.6284m-10.926 0a10.926 10.926 0 1 0 21.852 0 10.926 10.926 0 1 0-21.852 0z" p-id="6009"/>
  <path d="m-78.868 6.6284m-10.926 0a10.926 10.926 0 1 0 21.852 0 10.926 10.926 0 1 0-21.852 0z" p-id="6010"/>
 </g>
</svg>
