<?xml version="1.0" encoding="UTF-8"?>
<svg width="64" height="64" version="1.1" xmlns="http://www.w3.org/2000/svg">
 <defs>
  <linearGradient id="linearGradient887" x1="8.3364" x2=".71961" y1="15.169" y2=".62653" gradientTransform="matrix(3.4646 0 0 3.4646 2.6659 2.666)" gradientUnits="userSpaceOnUse">
   <stop stop-color="#cd50dc" offset="0"/>
   <stop stop-color="#9821a6" offset="1"/>
  </linearGradient>
 </defs>
 <path d="m44.166 59.5h2.334c7.2021 0 13-5.798 13-13v-29c0-7.2021-5.798-13-13-13h-20.746z" fill="#f0f0f5" stroke-opacity=".95294" stroke-width=".31428"/>
 <path d="m39.289 27.566-2.1144-0.11853c0.0228 0.63801-0.0228 1.2029-0.1193 1.9594-0.0483 0.40096-0.14215 1.6456-0.23607 2.2584h-0.40613c-1.4469 0-3.2541-0.16644-4.5131-0.37826l0.0254 1.841c1.3783 0.11853 2.8735 0.23706 4.5131 0.23706h0.02275c-0.59397 2.6655-1.5433 6.0608-2.7542 8.4188l1.7565 0.63801c0.23861-0.42366 0.45182-0.75404 0.7361-1.1096 1.5915-1.8636 4.206-3.6668 7.0309-3.6668 2.7794 0 4.2289 2.2042 4.2289 3.9493 0 3.8961-5.3203 4.8166-10.831 4.0601l0.49751 1.8888c7.2214 0.75404 12.283-1.0616 12.283-5.9944 0-2.7387-2.2109-5.5077-5.9879-5.5077-2.4698 0-4.607 1.425-6.6735 2.8649 0.49751-1.3466 1.0433-3.6071 1.4722-5.5893 3.0155-0.11853 6.6502-0.49679 9.4301-0.99109l-0.0228-1.7929c-2.9216 0.63548-6.2722 0.96584-9.0519 1.0844 0.1193-0.51949 0.19038-1.7162 0.26144-2.0693 0.14215-0.63801 0.26144-1.3693 0.45182-1.9821zm8.907-0.82712-1.259 0.54218c0.6422 0.87508 1.4494 2.3125 1.924 3.2809l1.2844-0.56488c-0.47466-0.96836-1.3554-2.4083-1.9494-3.2581zm2.6373-0.94312-1.259 0.54218c0.66502 0.87257 1.4494 2.2192 1.9723 3.2557l1.2819-0.58758c-0.45182-0.87508-1.3783-2.3377-1.9951-3.2103z" fill="#9248b6" stroke-width="1.21"/>
 <path d="m44.166 59.5-18.412-55h-8.254c-7.2021 0-13 5.798-13 13v29c0 7.2021 5.798 13 13 13h26.666z" fill="url(#linearGradient887)" stroke-opacity=".95294" stroke-width=".31428"/>
 <path d="m10.992 41.323h8.0178c5.8503 0 10.451-4.0617 10.451-9.1777 0-5.1986-4.6006-9.2914-10.451-9.2914h-8.0178zm7.9074-14.512c3.1076 0 5.2847 2.3781 5.2847 5.334 0 2.8939-2.1926 4.9096-5.2847 5.2197h-2.6305v-10.553z" fill="#fafafa" stroke-width=".68423"/>
</svg>
