<?xml version="1.0" encoding="UTF-8"?>
<svg width="64" height="64" version="1.1" viewBox="0 0 64 64" xmlns="http://www.w3.org/2000/svg">
 <defs>
  <linearGradient id="linearGradient1448" x1="3.9687" x2="3.9687" y1="8.9776" y2=".54085" gradientTransform="matrix(3.4646 0 0 3.4646 2.6665 2.6665)" gradientUnits="userSpaceOnUse">
   <stop stop-color="#dcdcdc" offset="0"/>
   <stop stop-color="#f0f0f0" offset="1"/>
  </linearGradient>
 </defs>
 <rect x="4.4996" y="4.4996" width="55.001" height="55.001" ry="13" fill="url(#linearGradient1448)" stroke-opacity=".95294" stroke-width=".31428"/>
 <g transform="matrix(1.0835 0 0 1.0835 -2.671 -2.671)">
  <path d="m30.191 15.851c-1.4334-0.01481-2.8748 0.26245-4.5182 0.56797-4.0216 0.74563-7.8708 4.0512-9.6528 7.35-1.5088 2.7914-1.9664 6.2531-1.0458 10.58 0 0.04711 0.0054 0.13459 0 0.18708-0.06326 1.9771 0.48318 4.7578 2.1561 7.35 1.7133 2.6555 4.6636 5.0916 9.2221 6.0323 1.8977 0.38897 3.7483 0.33648 5.1629-0.49933 1.4145-0.83581 2.0848-2.2207 1.8237-4.6447-0.18574-1.7295-0.9031-3.7645-2.502-5.4375 0.91521-0.69987 1.5505-1.6191 1.9664-2.5545 0.52625-1.1777 0.97847-2.2342 2.0296-2.9866 1.1884-0.58951 2.2557-0.91521 3.1965-0.9354 0.95155-0.02153 1.681 0.25976 2.5182 0.9354 0.61104 0.4926 1.3069 0.9206 1.9085 1.1198 1.3863 0.45895 2.3338 0.56124 3.0175-0.37551 0.8533-1.1709 0.15882-2.4024-0.29341-3.175 0.27187 0.18843 0.89772 0.39166 1.3338 0.37282 1.0727-0.04442 2.3176-0.81427 2.6447-2.3028 0.37147-1.6931 0.4778-3.4172 0.12652-4.9785-0.35263-1.5666-1.0875-3.1602-2.6447-4.1117-1.3647-0.83446-3.0148-1.0969-4.3634-1.144-1.4307-0.04845-2.891 0.27995-4.2423 1.2692-2.5761-1.5303-4.564-2.3378-6.393-2.5505-0.49126-0.05653-1.0027-0.06595-1.4482-0.07133z" fill="#911941" stroke-width="1.3459"/>
  <path d="m30.172 17.169c-1.284 0.0027-2.6057 0.24899-4.2531 0.55451-3.4496 0.6393-7.105 3.8439-8.6649 6.7241-1.3755 2.5411-1.852 5.6622-0.92598 9.8372 0.01077 0.06326 0.01077 0.12652 0 0.18977-0.08345 1.6555 0.36743 4.2732 1.9085 6.6555 1.5411 2.3903 4.1319 4.5478 8.3594 5.424 1.7187 0.35128 3.2827 0.30821 4.2396-0.25438 0.95155-0.56259 1.3782-1.432 1.1534-3.5249-0.17631-1.6447-0.70122-3.3365-2.5101-5.0027-2.7053-1.9785 2.4065-6.2383 4.6743-7.1602 1.319-0.66218 2.5653-1.0929 3.8116-1.1198 1.2302-0.02557 2.3782 0.46164 3.4469 1.3042 0.4455 0.35128 1.0767 0.64334 1.5357 0.86811 0.42396 0.20727 1.0027 0.33378 1.2302 0 0.42127-0.61912 0.23688-1.3621 0-1.7403-0.25707-0.41319-0.67295-0.9354-1.2625-1.3459-2.1763-1.5168-4.3769-2.5343-6.3957-2.8627 1.1669-0.84657 2.9691-0.65411 4.4321-0.08883 0.856 0.32975 1.4428 0.8035 2.4845 1.6743 0.87484 0.73217 2.0821 0.94348 3.0175 1.0673 0.39704 0.05249 1.1615-0.41588 1.3459-1.2517 0.34724-1.5666 0.47914-3.0592 0.18977-4.3527-0.29475-1.288-0.87753-2.459-2.1561-3.3015-1.0269-0.67699-2.3607-0.87349-3.6272-0.91252-1.2826-0.03903-2.502 0.18574-3.6851 1.1642-0.22611 0.20054-0.55182 0.22073-0.79947 0.06326-2.7053-1.6568-4.5532-2.3594-6.2719-2.5505-0.43204-0.04845-0.87888-0.05922-1.2773-0.05787z" fill="#c61346" stroke-width="1.3459"/>
  <g fill="#f9f9f9">
   <path d="m31.558 28.023v0.0054c0.0013-0.0013 0.0013-4e-3 0.0027-0.0054zm0 0.0054c-0.43338 0.92464-0.48318 1.8748-0.14132 2.6084-1.6514 3.5963-5.4105 3.8331-7.6178 3.2073-1.8237-0.51548-3.8802-1.5962-5.2208-3.288 1.0794 5.0767 6.5546 4.5761 11.077 7.3917-0.06057-0.05787-0.11036-0.11575-0.17362-0.17362-0.26245-0.2463-0.28937-0.65411-0.05787-0.93271 0.06326-0.07941 0.14805-0.14536 0.24226-0.18708 0.97847-0.42127 1.3405-1.2975 1.9085-2.4294 0.79678-1.5855 1.3944-2.852 2.5814-3.6124 0.61239-0.39166 1.28-0.59489 1.9031-0.7887-3.2907 0.87888-4.2208 0.13459-4.5007-1.7954z" stroke-width="1.3459"/>
   <path d="m29.211 18.443c-1.2921-4e-3 -2.4849 0.60684-3.4015 1.409 1.9354-0.44146 3.788-0.87816 5.8015-0.64667-0.81023-0.53702-1.6221-0.75835-2.3973-0.7597zm4.4767 1.5851c-1.0108-0.01615-2.0031 0.31718-2.8416 0.80439 1.9879-0.06326 3.8754-0.12614 5.8095 0.48894-0.92598-0.90983-1.9571-1.2772-2.9679-1.2933zm-9.1874 0.59934c-1.6218 0.01211-2.9485 0.98871-3.8327 2.1529 1.8035-0.82504 3.5277-1.6295 5.5466-1.8139-0.60027-0.23957-1.1742-0.34314-1.7139-0.3391zm4.6318 0.61249c-1.2921-0.02961-2.494 0.5599-3.4199 1.3459 1.9462-0.4105 3.7961-0.80153 5.8069-0.531-0.80216-0.55451-1.6116-0.79741-2.3868-0.8149zm-4.064 2.4841c-2.0323 0.14401-3.3284 1.6374-3.9825 3.2202 1.5303-1.2665 2.9968-2.4926 4.8999-3.1965-0.32032-0.03769-0.62671-0.04385-0.91742-0.02366zm-4.3557 0.18664c-2.3661 1.0512-2.8962 3.3286-2.6392 5.268 0.6891-1.8816 1.3458-3.6852 2.6392-5.268zm8.822 7.4551c-1.5034 1.3042-2.9393 2.565-4.8263 3.3174 2.5707 0.24226 4.1264-1.4923 4.8263-3.3174zm-2.3501 0.7045c-1.8143 0.80485-3.5486 1.5828-5.5728 1.7403 2.3917 0.99328 4.3736-0.20454 5.5728-1.7403zm-8.2464 3.7117c-0.80485 4.5222 4.989 5.0683 8.3645 7.6443-0.821-3.3863-7.8383-4.2688-8.3645-7.6443z" stroke-width="1.3459"/>
   <path d="m45.455 21.24c-0.74115 0-1.3495 0.59937-1.3495 1.3423 0 0.74294 0.60656 1.3495 1.3495 1.3495s1.3423-0.60656 1.3423-1.3495c0-0.74298-0.59937-1.3423-1.3423-1.3423z" stroke-width="1.7945"/>
  </g>
 </g>
</svg>
