<?xml version="1.0" encoding="UTF-8"?>
<svg width="64" height="64" version="1.1" viewBox="0 0 16.933 16.933" xmlns="http://www.w3.org/2000/svg" xmlns:xlink="http://www.w3.org/1999/xlink">
 <defs>
  <linearGradient id="linearGradient1108">
   <stop stop-color="#50d2ff" offset="0"/>
   <stop stop-color="#19a0e6" offset="1"/>
  </linearGradient>
  <linearGradient id="linearGradient6106" x1="-71.371" x2="-71.371" y1="4.3184" y2="29.238" gradientTransform="matrix(.26458 0 0 .26458 29.07 5.4248)" gradientUnits="userSpaceOnUse">
   <stop stop-color="#f0f0f0" offset="0"/>
   <stop stop-color="#dcdcdc" offset="1"/>
  </linearGradient>
  <linearGradient id="linearGradient4887-7" x1="7.7377" x2="16.541" y1="8.7238" y2="16.464" gradientTransform="matrix(.77324 0 0 .77324 6.6389 2.1384)" gradientUnits="userSpaceOnUse">
   <stop stop-color="#df5f59" offset="0"/>
   <stop stop-color="#a7423d" offset="1"/>
  </linearGradient>
  <filter id="filter2679-5" x="-.054304" y="-.026924" width="1.1086" height="1.0538" color-interpolation-filters="sRGB">
   <feGaussianBlur stdDeviation="0.28046598"/>
  </filter>
  <linearGradient id="linearGradient2667-3" x1="51.171" x2="51.171" y1="52.127" y2="27.199" gradientTransform="matrix(.16205 0 0 .16205 7.7611 5.0835)" gradientUnits="userSpaceOnUse">
   <stop stop-color="#afd2f5" offset="0"/>
   <stop stop-color="#fff" offset="1"/>
  </linearGradient>
  <filter id="filter888-2" x="-.1391" y="-.2244" width="1.2782" height="1.4488" color-interpolation-filters="sRGB">
   <feGaussianBlur stdDeviation="1.5399996"/>
  </filter>
  <linearGradient id="linearGradient4674" x1="12.692" x2="51.5" y1="9.5" y2="59.5" gradientTransform="matrix(.18405 0 0 .18405 4.7181 10.364)" gradientUnits="userSpaceOnUse" xlink:href="#linearGradient1108"/>
 </defs>
 <g transform="translate(-5.5628 -5.1219)">
  <path d="m10.186 6.5673c-1.9055 0-3.4396 1.5335-3.4396 3.4391v7.6734c0 1.9055 1.5341 3.4396 3.4396 3.4396h7.6734c1.9055 0 3.4396-1.5341 3.4396-3.4396v-7.6734c0-1.9055-1.5341-3.4391-3.4396-3.4391z" fill="url(#linearGradient6106)" stroke-linecap="round" stroke-width="1.2298"/>
  <path d="m12.622 8.884c-0.18619 0-0.33609 0.14989-0.33609 0.33609v4.7052c0 0.18619 0.1499 0.33609 0.33609 0.33609h1.4546v1.3836a0.18021 0.21249 0 0 0 0.29538 0.16586l1.5741-1.5494h3.2856c0.18619 0 0.33609-0.1499 0.33609-0.33609v-4.7052c0-0.18619-0.1499-0.33609-0.33609-0.33609z" fill="url(#linearGradient4887-7)" stroke-width=".0021862"/>
  <path transform="matrix(.16205 0 0 .16205 9.5235 5.2394)" d="m39.099 26.394c-1.108 0-2.1582 0.12723-3.1509 0.38103-0.9695 0.25359-1.8467 0.58873-2.6316 1.0041l0.9002 2.4934c1.4542-0.7848 2.9435-1.1772 4.4668-1.1772 1.2003 0 2.1123 0.31101 2.7355 0.93438 0.62322 0.60016 0.93437 1.385 0.93437 2.3545 0 0.60013-0.13823 1.1544-0.4152 1.6623-0.25392 0.50765-0.58873 0.99259-1.0042 1.4543-0.4155 0.46153-0.85376 0.9228-1.3154 1.3845-0.46164 0.43875-0.90066 0.92337-1.3162 1.4543-0.41549 0.50762-0.76136 1.0621-1.0384 1.6623-0.25395 0.60016-0.381 1.269-0.381 2.0076 0 0.50762 0.04612 0.9927 0.13817 1.4544h2.7006c-0.02325-0.11574-0.03442-0.24154-0.03442-0.38042v-0.381c0-0.76171 0.15001-1.4431 0.4501-2.0433 0.30006-0.62322 0.6696-1.1886 1.1082-1.6965 0.43853-0.53094 0.92266-1.0386 1.4536-1.5234 0.53089-0.48488 1.0157-0.99253 1.4543-1.5234 0.43861-0.53095 0.80813-1.0963 1.1082-1.6964 0.30006-0.62334 0.4501-1.3276 0.4501-2.1124 0-0.62322-0.10345-1.2692-0.31121-1.9386-0.18467-0.69247-0.53123-1.3162-1.0391-1.8702-0.5078-0.5543-1.1885-1.004-2.0426-1.3503-0.83098-0.36937-1.9048-0.55432-3.2207-0.55432zm-0.55429 20.36c-0.71558 0-1.281 0.23033-1.6965 0.69221-0.4155 0.46156-0.62317 1.0041-0.62317 1.6274 0 0.62328 0.20764 1.1656 0.62317 1.6274 0.41549 0.46153 0.98088 0.69301 1.6965 0.69301 0.71559 0 1.2817-0.23148 1.6972-0.69301 0.41549-0.46153 0.62317-1.0041 0.62317-1.6274s-0.20765-1.1657-0.62317-1.6274c-0.4155-0.46153-0.98159-0.69221-1.6972-0.69221z" enable-background="new" filter="url(#filter2679-5)" image-rendering="optimizeSpeed" opacity=".4" stroke-width="5.8347"/>
  <path d="m15.86 9.4698c-0.17955 0-0.34973 0.020617-0.5106 0.061744-0.15711 0.041094-0.29926 0.095406-0.42644 0.16271l0.14587 0.40405c0.23565-0.12718 0.47699-0.19076 0.72383-0.19076 0.19451 0 0.3423 0.050398 0.44328 0.15142 0.10099 0.09726 0.15141 0.22444 0.15141 0.38154 0 0.09725-0.0224 0.18707-0.06728 0.26937-0.04115 0.08226-0.0954 0.16085-0.16273 0.23567-0.06733 0.07479-0.13835 0.14954-0.21316 0.22436-0.07481 0.0711-0.14595 0.14963-0.21329 0.23567-0.06733 0.08226-0.12338 0.17211-0.16827 0.26937-0.04115 0.09726-0.06174 0.20564-0.06174 0.32533 0 0.08226 0.0075 0.16087 0.02239 0.23568h0.43763c-0.0038-0.01876-0.0056-0.03914-0.0056-0.06165v-0.06174c0-0.12343 0.02431-0.23385 0.07294-0.33111 0.04862-0.10099 0.10851-0.19261 0.17959-0.27492 0.07106-0.08604 0.14952-0.1683 0.23555-0.24687 0.08603-0.07858 0.16459-0.16084 0.23567-0.24687 0.07108-0.08604 0.13096-0.17766 0.17959-0.2749 0.04862-0.10101 0.07294-0.21513 0.07294-0.34231 0-0.10099-0.01676-0.20567-0.05043-0.31415-0.0299-0.11221-0.08606-0.21328-0.16836-0.30305-0.08229-0.089826-0.19259-0.1627-0.331-0.21881-0.13466-0.059856-0.30867-0.089826-0.52191-0.089826zm-0.08982 3.2993c-0.11596 0-0.20758 0.03732-0.27492 0.11217-0.06733 0.0748-0.10099 0.16271-0.10099 0.26372s0.03365 0.18888 0.10099 0.26372c0.06733 0.07479 0.15895 0.1123 0.27492 0.1123 0.11596 0 0.2077-0.03751 0.27503-0.1123s0.10099-0.16271 0.10099-0.26372c0-0.101-0.03365-0.1889-0.10099-0.26372-0.06733-0.07479-0.15907-0.11217-0.27503-0.11217z" enable-background="new" fill="url(#linearGradient2667-3)" image-rendering="optimizeSpeed" stroke-width=".94548"/>
  <path transform="matrix(.26575 0 0 .24533 5.5335 6.1956)" d="m19.094 42.848c-6.1755 0-11.353 4.0882-13.006 9.7148 2.2026 4.0318 6.4765 6.7559 11.412 6.7559h15.07c0.05288-0.14755 0.08789-0.30456 0.08789-0.4707v-2.4355c0-7.5149-6.0495-13.564-13.564-13.564z" filter="url(#filter888-2)" opacity=".2" stroke-width=".69563"/>
  <circle transform="matrix(.18405 0 0 .18405 4.7181 10.364)" cx="32" cy="21.5" r="11" filter="url(#filter888-2)" opacity=".2"/>
  <path d="m10.608 16.713c-1.6339 0-3.0039 1.0817-3.4411 2.5704 0.58277 1.0667 1.7136 1.7875 3.0195 1.7875h3.9874c0.01399-0.03904 0.02325-0.08058 0.02325-0.12454v-0.6444c0-1.9883-1.6006-3.5889-3.5889-3.5889z" fill="url(#linearGradient4674)" stroke-width=".18405"/>
  <circle cx="10.608" cy="14.321" r="2.0246" fill="url(#linearGradient4674)" stroke-width=".18405"/>
 </g>
</svg>
