<?xml version="1.0" encoding="UTF-8"?>
<svg width="64" height="64" version="1" xmlns="http://www.w3.org/2000/svg">
 <defs>
  <linearGradient id="linearGradient1448" x1="14.313" x2="2.8512" y1="14.382" y2="2.9196" gradientTransform="matrix(3.4646 0 0 3.4646 2.6662 2.6662)" gradientUnits="userSpaceOnUse">
   <stop stop-color="#f74058" offset="0"/>
   <stop stop-color="#ff6f33" offset="1"/>
  </linearGradient>
  <linearGradient id="linearGradient914" x1="-54.828" x2="-63.444" y1="-1.7294" y2="-11.074" gradientTransform="matrix(3.4523 0 0 3.4523 235.9 54.618)" gradientUnits="userSpaceOnUse">
   <stop stop-color="#232223" offset="0"/>
   <stop stop-color="#49484d" offset="1"/>
  </linearGradient>
  <linearGradient id="linearGradient916" x1="-54.828" x2="-63.444" y1="-1.7294" y2="-11.074" gradientTransform="matrix(1.4087 0 0 1.4087 115.19 41.228)" gradientUnits="userSpaceOnUse">
   <stop stop-color="#d2d2d2" offset="0"/>
   <stop stop-color="#fff" offset="1"/>
  </linearGradient>
  <linearGradient id="linearGradient918" x1="-54.828" x2="-63.444" y1="-1.7294" y2="-11.074" gradientTransform="matrix(.53893 0 0 .53893 63.83 35.532)" gradientUnits="userSpaceOnUse">
   <stop stop-color="#232223" offset="0"/>
   <stop stop-color="#49484d" offset="1"/>
  </linearGradient>
 </defs>
 <rect x="4.4996" y="4.4996" width="55.001" height="55.001" ry="13" fill="url(#linearGradient1448)" stroke-opacity=".95294" stroke-width=".31428"/>
 <path d="m53.604 6.6094-7.17 4.8477c-4.0846-2.8742-9.059-4.5684-14.434-4.5684-13.873 0-25.119 11.246-25.119 25.119 0 3.0101 0.53004 5.8953 1.502 8.5704 0.66229 1.8238 1.5284 3.5491 2.5742 5.1484 0.45009 0.68996 0.9326 1.3563 1.4473 1.9961 1.6578 2.0646 3.6357 3.8616 5.8574 5.3164 0.80792 0.52897 1.6481 1.0136 2.5176 1.4473 3.376 1.6896 7.1871 2.6387 11.221 2.6387 4.0334 0 7.8445-0.94911 11.221-2.6387 0.86937-0.43362 1.7097-0.91819 2.5176-1.4473 2.194-1.4355 4.1465-3.2034 5.791-5.2344 0.51367-0.63462 0.99917-1.2947 1.4492-1.9785 1.0745-1.6264 1.963-3.3863 2.6387-5.2461 0.97202-2.6759 1.502-5.563 1.502-8.5743 0-3.0111-0.5298-5.8983-1.502-8.5743-0.56324-1.5515-1.3081-3.0129-2.1523-4.4043l-6.002 4.1367-2.5977-3.7695 5.8164-4.0078 6.9062-4.666c-1.0084-1.6508-2.3661-3.0566-3.9844-4.1113z" fill="url(#linearGradient914)"/>
 <path d="m42.248 32.002c0 1.2287-0.21627 2.4067-0.61286 3.4985-0.27568 0.75883-0.63838 1.4762-1.0768 2.1399-0.18365 0.27901-0.3811 0.54846-0.59068 0.8074-0.67099 0.82872-1.4684 1.5504-2.3636 2.1361-0.32966 0.21585-0.67228 0.41334-1.027 0.59026-1.3775 0.68936-2.9325 1.0771-4.5782 1.0771-1.6457 0-3.2007-0.38779-4.5782-1.0772-0.35475-0.17696-0.69779-0.37441-1.0274-0.59026-0.90654-0.59362-1.7135-1.3266-2.3899-2.169-0.21-0.26102-0.40703-0.53296-0.59068-0.81447-0.42672-0.65259-0.78018-1.3567-1.0504-2.1009-0.39656-1.0915-0.61245-2.269-0.61245-3.4972 0-5.6603 4.5888-10.249 10.249-10.249 2.8414 0 5.4124 1.1563 7.2689 3.0236 0.53504 0.53795 1.0107 1.1354 1.4155 1.7812 0.3828 0.60825 0.70278 1.26 0.9517 1.9456 0.39663 1.0919 0.6129 2.2699 0.6129 3.4985z" fill="url(#linearGradient916)" stroke-width=".040037"/>
 <path d="m35.92 32.002c0 0.47007-0.08274 0.92075-0.23449 1.3385-0.10549 0.29031-0.24424 0.56479-0.41198 0.81866-0.07026 0.10674-0.14578 0.20984-0.22598 0.30891-0.25671 0.31703-0.56176 0.59313-0.90427 0.81723-0.12612 0.08258-0.2572 0.15814-0.39293 0.22583-0.52699 0.26374-1.1219 0.41209-1.7515 0.41209s-1.2245-0.14835-1.7515-0.41213c-0.13572-0.06769-0.26695-0.14325-0.39308-0.22583-0.34682-0.22712-0.65553-0.50752-0.91432-0.82981-0.08035-0.09986-0.15572-0.20391-0.22598-0.31159-0.16324-0.24968-0.29848-0.51905-0.40188-0.80373-0.15171-0.41757-0.2343-0.8681-0.2343-1.338 0-2.1656 1.7556-3.921 3.921-3.921 1.0871 0 2.0707 0.44236 2.781 1.1568 0.2047 0.2058 0.38669 0.43435 0.54154 0.68146 0.14646 0.23271 0.26888 0.48205 0.36409 0.74435 0.15175 0.41772 0.23449 0.8684 0.23449 1.3385z" fill="url(#linearGradient918)" stroke-width=".015317"/>
</svg>
