<?xml version="1.0" encoding="UTF-8"?>
<svg width="64" height="64" version="1.1" xmlns="http://www.w3.org/2000/svg">
 <defs>
  <linearGradient id="linearGradient1448" x1="3.9687" x2="3.9687" y1="8.9776" y2=".54085" gradientTransform="matrix(3.4646 0 0 3.4646 2.6662 2.6662)" gradientUnits="userSpaceOnUse">
   <stop stop-color="#b76728" offset="0"/>
   <stop stop-color="#b76728" offset="1"/>
  </linearGradient>
 </defs>
 <rect x="4.4996" y="4.4996" width="55.001" height="55.001" ry="13" fill="url(#linearGradient1448)" stroke-opacity=".95294" stroke-width=".31428"/>
 <g transform="translate(-75.689 -9.9182e-5)">
  <path d="m94.621 9.3846h26.135c5.2895 0 9.5478 4.2583 9.5478 9.5478v26.135c0 5.2895-4.2583 9.5478-9.5478 9.5478h-26.135c-5.2895 0-9.5478-4.2583-9.5478-9.5478v-26.135c0-5.2895 4.2583-9.5478 9.5478-9.5478z" color="#000000" fill="#4d4d4d" stroke-width=".94231" style="-inkscape-stroke:none"/>
  <path d="m90.458 16.492v1.7231h1.7231v10.338h-1.7231v1.7231h8.6154v-1.7231h1.7231v-10.338h-1.7231v-1.7231zm13.785 0v1.7231h-1.7231v10.338h1.7231v1.7231h6.8923v-1.7231h1.7231v-10.338h-1.7231v-1.7231zm12.062 0v1.7231h-1.7231v3.4462h1.7231v1.7231h3.4462v1.7231h1.7231v3.4462h-3.4462v-3.4462h-3.4462v3.4462h1.7231v1.7231h6.8923v-1.7231h1.7231v-3.4462h-1.7231v-1.7231h-1.7231v-1.7231h-3.4462v-3.4462h3.4462v3.4462h3.4462v-3.4462h-1.7231v-1.7231zm-20.677 1.7231h1.7231v10.338h-1.7231zm10.338 0h3.4462v10.338h-3.4462zm-15.508 15.508v1.7231h1.7231v10.338h-1.7231v1.7231h8.6154v-1.7231h1.7231v-5.1692h-1.7231v-1.7231h1.7231v-3.4462h-1.7231v-1.7231zm13.785 0v1.7231h-1.7231v10.338h1.7231v1.7231h6.8923v-1.7231h1.7231v-10.338h-1.7231v-1.7231zm8.6154 0v1.7231h1.7231v3.4462h1.7231v3.4462h-1.7231v3.4462h-1.7231v1.7231h3.4462v-1.7231h1.7231v-1.7231h1.7231v1.7231h1.7231v1.7231h3.4462v-1.7231h-1.7231v-3.4462h-1.7231v-3.4462h1.7231v-3.4462h1.7231v-1.7231h-3.4462v1.7231h-1.7231v1.7231h-1.7231v-1.7231h-1.7231v-1.7231zm-17.231 1.7231h1.7231v3.4462h-1.7231zm10.338 0h3.4462v10.338h-3.4462zm-10.338 5.1692h1.7231v5.1692h-1.7231z" fill="#e4e4e4" stroke-width=".86154"/>
 </g>
</svg>
