<?xml version="1.0" encoding="UTF-8"?>
<svg width="64" height="64" version="1.1" viewBox="0 0 64 64" xmlns="http://www.w3.org/2000/svg">
 <defs>
  <linearGradient id="linearGradient1448" x1="3.9687" x2="3.9687" y1="8.9776" y2=".54085" gradientTransform="matrix(3.4646 0 0 3.4646 2.6661 2.6661)" gradientUnits="userSpaceOnUse">
   <stop stop-color="#dcdcdc" offset="0"/>
   <stop stop-color="#f0f0f0" offset="1"/>
  </linearGradient>
 </defs>
 <rect x="4.4995" y="4.4995" width="55.001" height="55.001" ry="13" fill="url(#linearGradient1448)" stroke-opacity=".95294" stroke-width=".31428"/>
 <g transform="matrix(1.458 0 0 1.458 83.835 -2.9886)">
  <path d="m-38.552 12c-6.648 0-12 5.352-12 12s5.352 12 12 12c0.34 0 0.664-0.035 1-0.063-6.172-0.512-11-5.633-11-11.938 0-6.309 4.828-11.43 11-11.938-0.336-0.031-0.66-0.066-1-0.066" fill="#f4941e" fill-rule="evenodd"/>
  <path d="m-33.722 12.002c-1.2024 0.01689-2.3954 0.21441-3.5391 0.58594-3.9004 1.2683-6.8829 4.4409-7.9082 8.4121h4.207c1.2216-3.02 4.1525-4.9975 7.4102-5 2.5592 0.0035 4.9622 1.2312 6.4648 3.3027l3.2441-2.3555c-2.2933-3.1564-5.9778-5.0008-9.8789-4.9453zm0.19922 5.998c-0.61248 0.0085-1.2202 0.10729-1.8027 0.29297-1.4345 0.46006-2.6449 1.4242-3.3984 2.707h5.1719c0.99277 0 1.9207 0.49319 2.4785 1.3145l2.584-1.8418c-1.1684-1.5778-3.0456-2.4999-5.0332-2.4727zm-11.855 4c-0.05369 0.33152-0.09344 0.66515-0.11914 1h4.0156c0.04379-0.33714 0.10903-0.67116 0.19531-1zm6.1797 0c-0.11769 0.32522-0.20656 0.65979-0.26562 1h3.0879c0.13079-0.36887 0.3325-0.70859 0.59375-1zm10.646 0v1h-1v2h1v1h2v-1h1v-2h-1v-1zm5 0v1h-1v2h1v1h2v-1h1v-2h-1v-1zm-21.949 3c0.02959 0.33502 0.07325 0.66865 0.13086 1h4.0781c-0.08366-0.32902-0.14628-0.66303-0.1875-1zm6.041 0c0.05906 0.34021 0.14794 0.67478 0.26562 1h3.4121c-0.26195-0.29125-0.46433-0.63097-0.5957-1zm8.3887 0.6875c-0.55862 0.82109-1.4874 1.3125-2.4805 1.3125h-5.1758c0.75451 1.2835 1.9664 2.2478 3.4023 2.707 2.5193 0.80246 5.2789-0.07743 6.8359-2.1797zm-14.084 1.3125c1.0227 3.968 3.9994 7.1399 7.8945 8.4121 4.9448 1.6072 10.362-0.15281 13.418-4.3594l-3.2422-2.3555c-1.503 2.0721-3.9069 3.2999-6.4668 3.3027-3.2584-0.0017-6.1902-1.9794-7.4121-5z" fill="#3c2d6c" style="paint-order:normal"/>
 </g>
</svg>
