<?xml version="1.0" encoding="UTF-8"?>
<svg width="64" height="64" version="1.1" viewBox="0 0 64 64" xmlns="http://www.w3.org/2000/svg">
 <defs>
  <linearGradient id="linearGradient1115" x1="-33.092" x2="-33.092" y1="5.5433" y2="58.368" gradientTransform="translate(63.693)" gradientUnits="userSpaceOnUse">
   <stop stop-color="#00f4d7" stop-opacity=".97255" offset="0"/>
   <stop stop-color="#00ccb3" stop-opacity=".97255" offset="1"/>
  </linearGradient>
 </defs>
 <rect x="4.5" y="4.5" width="55" height="55" ry="13" fill="url(#linearGradient1115)" stroke-width=".47291"/>
 <g transform="matrix(1.3462 0 0 1.3462 87.187 1.0389)" fill="#fbfbfb">
  <path d="m-40.996 9a2 2 0 0 0-2 2 2 2 0 0 0 2 2 2 2 0 0 0 2-2 2 2 0 0 0-2-2zm0 1a1 1 0 0 1 1 1 1 1 0 0 1-1 1 1 1 0 0 1-1-1 1 1 0 0 1 1-1zm0 11a2 2 0 0 0-2 2 2 2 0 0 0 2 2 2 2 0 0 0 2-2 2 2 0 0 0-2-2zm-11 7a2 2 0 0 0-2 2 2 2 0 0 0 2 2 2 2 0 0 0 2-2 2 2 0 0 0-2-2zm22 0a2 2 0 0 0-2 2 2 2 0 0 0 2 2 2 2 0 0 0 2-2 2 2 0 0 0-2-2zm-22 1a1 1 0 0 1 1 1 1 1 0 0 1-1 1 1 1 0 0 1-1-1 1 1 0 0 1 1-1zm22 0a1 1 0 0 1 1 1 1 1 0 0 1-1 1 1 1 0 0 1-1-1 1 1 0 0 1 1-1z"/>
  <path d="m-39.488 10.496a0.50005 0.50005 0 0 0-0.25195 0.93946c2.7893 1.5672 4.1399 5.1396 4.5664 8.9492 0.42651 3.8096-0.08226 7.8132-0.79688 9.957a0.50028 0.50028 0 0 0 0.94922 0.3164c0.78539-2.3562 1.2843-6.4144 0.83984-10.385-0.4445-3.9703-1.8437-7.8961-5.0703-9.709a0.50005 0.50005 0 0 0-0.23633-0.0684zm5.8301 3.9707c-0.29041-7e-3 -0.58757 5e-3 -0.88867 0.0351a0.50063 0.50063 0 1 0 0.10156 0.9961c2.0911-0.21225 3.7073 0.59724 4.2988 2.0547 0.59154 1.4574 0.20124 3.7528-2.2305 6.625a0.50005 0.50005 0 1 0 0.76172 0.6446c2.5683-3.0336 3.178-5.7162 2.3945-7.6465-0.68553-1.689-2.4046-2.6573-4.4375-2.709zm-13.953 0.033c-2.4358 0.0408-4.1021 0.79685-5.0117 2.0312-1.2128 1.6459-0.92935 3.9622 0.40625 6.0391a0.50033 0.50033 0 1 0 0.8418-0.54101c-1.1906-1.8514-1.3439-3.6842-0.44336-4.9062 0.90052-1.2221 3.0047-2.0145 6.7441-1.4297a0.50028 0.50028 0 1 0 0.15625-0.98828c-0.984-0.154-1.882-0.219-2.694-0.205zm10.047 0.29688a0.50005 0.50005 0 0 0-0.06055 2e-3 0.50005 0.50005 0 0 0-0.08398 0.0137c-3.7868 0.86994-7.6903 2.8236-10.682 5.3164-2.991 2.493-5.105 5.542-5.105 8.672a0.50005 0.50005 0 1 0 1 0c0-2.6701 1.8854-5.5221 4.7441-7.9043s6.6544-4.2793 10.268-5.1094a0.50005 0.50005 0 0 0-0.08008-0.99023zm-12.428 9.498a0.50005 0.50005 0 0 0-0.36328 0.8535c3.0589 3.1609 6.8661 5.4972 10.449 6.7129 3.5831 1.2157 6.9741 1.3489 9.1895-0.1465a0.50023 0.50023 0 1 0-0.55859-0.83c-1.7847 1.2046-4.8937 1.1889-8.3105 0.029-3.4169-1.1593-7.1096-3.4218-10.051-6.461a0.50005 0.50005 0 0 0-0.35547-0.1582zm3.5039 6.1973a0.50005 0.50005 0 0 0-0.05078 0 0.50005 0.50005 0 0 0-0.43945 0.6368s0.38923 1.4389 1.3105 2.8867c0.921 1.449 2.443 2.984 4.672 2.984 2.9365 0 4.6367-3.2578 4.6367-3.2578a0.50007 0.50007 0 1 0-0.875-0.4844s-1.612 2.742-3.762 2.742c-1.771 0-2.999-1.215-3.828-2.518-0.829-1.302-1.19-2.613-1.19-2.613a0.50005 0.50005 0 0 0-0.47461-0.3769z"/>
 </g>
</svg>
