<?xml version="1.0" encoding="UTF-8"?>
<svg width="64" height="64" version="1.1" viewBox="0 0 16.933 16.933" xmlns="http://www.w3.org/2000/svg">
 <defs>
  <clipPath id="a">
   <circle cx="8.467" cy="288.53" r="6.879" fill="#d86eb0" stroke-opacity=".039" stroke-width=".491" style="paint-order:stroke markers fill"/>
  </clipPath>
  <linearGradient id="linearGradient1115" x1="-29.448" x2="-29.448" y1="4.6371" y2="59.494" gradientTransform="matrix(.26458 0 0 .26458 16.852 -3e-8)" gradientUnits="userSpaceOnUse">
   <stop stop-color="#00c6c5" offset="0"/>
   <stop stop-color="#00a59b" offset=".50962"/>
   <stop stop-color="#00b5b0" offset="1"/>
  </linearGradient>
 </defs>
 <rect x="1.1906" y="1.1906" width="14.552" height="14.552" ry="3.4395" fill="url(#linearGradient1115)" image-rendering="optimizeSpeed" stroke-width=".12512"/>
 <path d="m11.945 3.623c-0.08484-0.0017-0.19101 0.013686-0.32412 0.043774l-2.2811 0.46282-2.0264 0.39986c-0.23272 0.04975-0.34811 0.14949-0.39986 0.29755-0.01034 0.029609-0.01842 0.060978-0.0241 0.094432-0.01142 0.067047-0.01401 0.14146-0.0118 0.22378l0.0059 5.1278c-0.0042 0.09009-0.0101 0.16974-0.02262 0.24001-2.6e-5 1.42e-4 2.5e-5 3.5e-4 0 4.92e-4 -0.01881 0.10516-0.05309 0.18891-0.12148 0.25232-0.0685 0.06351-0.1711 0.10694-0.32658 0.13181-0.45852 0.06825-0.80177 0.15948-1.0565 0.27247-0.05094 0.0226-0.09805 0.046-0.14213 0.07033-0.08817 0.04865-0.16336 0.10049-0.22673 0.15591-0.09506 0.08313-0.16395 0.17412-0.21296 0.27199-0.01634 0.03262-0.03021 0.06564-0.0423 0.09984-0.0243 0.06862-0.04034 0.14003-0.05017 0.21493-0.0098 0.07469-0.01341 0.15237-0.0123 0.23313 0.0033 0.24128 0.07864 0.46473 0.20952 0.64579 0.0437 0.06046 0.09357 0.1161 0.14902 0.16624 0.05526 0.04997 0.11628 0.09439 0.18198 0.1323 0.13164 0.07601 0.28289 0.12626 0.44904 0.14313 0.08307 0.0084 0.16984 0.0086 0.25967-4.93e-4 0.2364-0.0263 0.45028-0.06879 0.64038-0.14213 0.31687-0.12213 0.56773-0.33057 0.74808-0.69497 0.01397-0.02746 0.02669-0.05854 0.03836-0.09295 0.03503-0.10323 0.05976-0.23552 0.07476-0.3851 0.01999-0.19945 0.02267-0.42933 0.0089-0.66052l-0.0059-4.0787c4.63e-4 -0.10685-0.0056-0.19621 0.0059-0.27003 2.6e-5 -1.644e-4 -2.6e-5 -3.276e-4 0-4.917e-4 1e-3 -0.00651 0.0036-0.011926 0.0049-0.018198 0.0037-0.017466 0.0073-0.034981 0.01377-0.050658 0.0088-0.021307 0.02024-0.040857 0.0359-0.059022 0.04703-0.054471 0.12911-0.095009 0.27101-0.12444l2.2777-0.45938v-4.919e-4l1.352-0.27247c0.10996-0.022178 0.19071-0.01425 0.24444 0.030002 0.05361 0.044327 0.08046 0.12504 0.08215 0.24886l6e-3 3.0475c-0.0085 0.1802-0.02142 0.31165-0.0841 0.40626-0.01569 0.023644-0.03444 0.0447-0.05704 0.06394-0.04513 0.038402-0.10579 0.068868-0.1869 0.091974-1.64e-4 4.64e-5 -3.28e-4 -4.66e-5 -4.93e-4 0-0.04056 0.011513-0.08656 0.021247-0.1382 0.029511-0.18343 0.027299-0.3485 0.058936-0.49679 0.094432-0.22228 0.05321-0.40723 0.11552-0.56026 0.18592-0.10208 0.04699-0.1905 0.09739-0.26608 0.15148-0.07557 0.05409-0.13831 0.11185-0.19083 0.17264-0.18383 0.21267-0.23704 0.46493-0.23313 0.7476 0.0055 0.40216 0.21445 0.74143 0.54595 0.92171 0.1326 0.07211 0.28491 0.11874 0.45152 0.13378 0.0833 0.0075 0.17032 0.0071 0.26018-2e-3 0.2364-0.0263 0.44773-0.06559 0.63496-0.13526 0.12481-0.04642 0.23886-0.10644 0.34232-0.18493 0.15519-0.11775 0.2867-0.27713 0.39495-0.49579 0.0139-0.02733 0.02646-0.05829 0.03738-0.09197 4.6e-5 -1.42e-4 -4.6e-5 -3.51e-4 0-4.93e-4 0.07663-0.23714 0.08478-0.62272 0.09295-1.0343l-0.0039-6.2393c-3.4e-5 -0.075573-0.0044-0.13932-0.01131-0.19722-0.0029-0.023961-0.0064-0.048311-0.01082-0.069348-0.0021-0.010223-0.0039-0.020948-0.0064-0.030492-0.0088-0.033061-0.01936-0.063433-0.03345-0.088529-0.01399-0.024928-0.03204-0.044602-0.05214-0.06197-0.0064-0.00545-0.01368-0.010024-0.02066-0.014756-0.0161-0.010896-0.03424-0.01994-0.0541-0.02705-0.0082-0.00295-0.01615-0.00654-0.02508-0.00885-0.02996-0.00775-0.06251-0.013005-0.10082-0.013771z" fill="#fff" stroke-width=".95177"/>
 <g transform="matrix(1.0536 0 0 1.1465 -.45458 -322.46)" clip-path="url(#a)" fill="none" stroke="#fff" stroke-opacity=".937" stroke-width=".127">
  <path d="m1.4854 287.74c0.719 0.15538 1.3906 0.6252 1.9826 1.9807 0.674 1.544 1.623 2.229 2.772 2.283 1.48 0.07 2.673-1.226 3.459-2.385 1.602-2.362 4.5188-2.1357 5.8165-1.2509" opacity=".35"/>
  <path d="m1.4927 288.13c0.89388-0.34988 2.0828-0.42377 2.8723 0.82673 0.722 1.143 1.576 2.867 4.049 2.709 1.478-0.095 2.956-0.71 3.718-2.15 0.52913-0.93299 1.2601-1.8714 2.2929-2.1036 0.38219-0.0816 0.65524-0.0703 0.97604 0.0566" opacity=".35"/>
  <path d="m1.7748 290.25c0.94712-0.44412 2.7457-0.95337 4.1972-0.52987 1.297 0.379 2.937 1.847 6.056 1.504 0.824-0.09 1.522-0.563 2.183-1.464 0.4785-0.6525 0.75018-1.0197 1.3056-1.1669" opacity=".35"/>
 </g>
</svg>
