<?xml version="1.0" encoding="UTF-8"?>
<svg width="64" height="64" version="1.1" viewBox="0 0 16.933 16.933" xmlns="http://www.w3.org/2000/svg" xmlns:cc="http://creativecommons.org/ns#" xmlns:dc="http://purl.org/dc/elements/1.1/" xmlns:rdf="http://www.w3.org/1999/02/22-rdf-syntax-ns#">
 <defs>
  <linearGradient id="linearGradient1448-3" x1="14.313" x2="2.8512" y1="14.382" y2="2.9196" gradientTransform="matrix(.91668 0 0 .91668 3.9088 8.0665)" gradientUnits="userSpaceOnUse">
   <stop stop-color="#8f62bc" offset="0"/>
   <stop stop-color="#f7904e" offset="1"/>
  </linearGradient>
  <linearGradient id="linearGradient1103" x1="6.9606" x2="9.9409" y1="302.53" y2="305.51" gradientTransform="matrix(1 0 0 1 3.1768 -288.13)" gradientUnits="userSpaceOnUse">
   <stop stop-color="#48494d" offset="0"/>
   <stop stop-color="#232323" offset="1"/>
  </linearGradient>
 </defs>
 <metadata>
  <rdf:RDF>
   <cc:Work rdf:about="">
    <dc:format>image/svg+xml</dc:format>
    <dc:type rdf:resource="http://purl.org/dc/dcmitype/StillImage"/>
    <dc:title/>
   </cc:Work>
  </rdf:RDF>
 </metadata>
 <g transform="translate(-3.2033 -7.3611)">
  <rect x="4.3939" y="8.5516" width="14.552" height="14.552" ry="3.4396" fill="url(#linearGradient1448-3)" stroke-opacity=".95294" stroke-width=".083154"/>
  <path d="m11.67 9.432c-3.5322 0-6.3958 2.8636-6.3958 6.3958 0 3.5322 2.8636 6.3958 6.3958 6.3958 3.5322 0 6.3958-2.8636 6.3958-6.3958 0-3.5322-2.8636-6.3958-6.3958-6.3958zm0 0.45683c3.28 0 5.9388 2.6588 5.9388 5.9388 0 3.28-2.6588 5.9388-5.9388 5.9388-3.28 0-5.9388-2.6588-5.9388-5.9388 0-3.28 2.6588-5.9388 5.9388-5.9388zm0 0.45683c-3.0274 0-5.4822 2.4546-5.4822 5.4822s2.4546 5.4822 5.4822 5.4822c3.0276 0 5.4822-2.4546 5.4822-5.4822s-2.4546-5.4822-5.4822-5.4822zm0 0.45683c2.7752 0 5.0252 2.2499 5.0252 5.0252s-2.2499 5.0252-5.0252 5.0252c-2.7752 0-5.0252-2.2499-5.0252-5.0252s2.2499-5.0252 5.0252-5.0252zm0 0.45683c-2.5231 0-4.5683 2.0453-4.5683 4.5683 0 2.523 2.0453 4.5683 4.5683 4.5683 2.523 0 4.5683-2.0453 4.5683-4.5683 0-2.523-2.0453-4.5683-4.5683-4.5683zm0 0.45683c2.2709 0 4.1116 1.8411 4.1116 4.1116 0 2.2709-1.8411 4.1116-4.1116 4.1116-2.2709 0-4.1116-1.8411-4.1116-4.1116 0-2.2709 1.8411-4.1116 4.1116-4.1116zm0 0.45683c-2.0183 0-3.6547 1.6364-3.6547 3.6547 0 2.0183 1.6364 3.6547 3.6547 3.6547 2.0183 0 3.6547-1.6364 3.6547-3.6547 0-2.0183-1.6364-3.6547-3.6547-3.6547zm0 0.45683c1.7661 0 3.1978 1.4317 3.1978 3.1978 0 1.766-1.4317 3.1978-3.1978 3.1978-1.766 0-3.1978-1.4317-3.1978-3.1978 0-1.766 1.4317-3.1978 3.1978-3.1978zm0 0.45683c-1.514 0-2.7411 1.2271-2.7411 2.7411 0 1.514 1.2271 2.7411 2.7411 2.7411s2.7411-1.2271 2.7411-2.7411c0-1.514-1.2271-2.7411-2.7411-2.7411z" fill="#321400" opacity=".5" stroke-width=".26458"/>
  <circle cx="11.67" cy="15.82" r="2.6458" fill="url(#linearGradient1103)" style="paint-order:normal"/>
  <circle cx="11.67" cy="15.82" r=".52918" fill="#fff" fill-rule="evenodd" stroke-width=".26459"/>
 </g>
</svg>
