<?xml version="1.0" encoding="UTF-8"?>
<svg width="64" height="64" version="1.1" viewBox="0 0 64 64" xmlns="http://www.w3.org/2000/svg">
 <defs>
  <linearGradient id="linearGradient1115" x1="-29.448" x2="-29.448" y1="4.6371" y2="59.494" gradientTransform="translate(63.693)" gradientUnits="userSpaceOnUse">
   <stop stop-color="#fff" offset="0"/>
   <stop stop-color="#ccd4da" offset="1"/>
  </linearGradient>
 </defs>
 <rect x="4.5" y="4.5" width="55" height="55" ry="13" fill="url(#linearGradient1115)" image-rendering="optimizeSpeed" stroke-width=".47291"/>
 <path d="m14.019 14c4.4183 4.6509 2.4992 7.6319 4.9056 13.117 2.25 5.0954 7.1501 1.2822 10.509 4.878-3.359 3.6028-8.2755-0.22708-10.526 4.8627-2.423 5.4844-0.49154 8.4808-4.9056 13.137 4.6564-4.4183 7.6528-2.4882 13.137-4.9056 5.0954-2.2555 1.2822-7.1557 4.878-10.509 3.5695 3.3535-0.22154 8.2755 4.8627 10.526 5.4844 2.4286 8.4587 0.47076 13.117 4.8946-4.4183-4.6564-2.466-7.6376-4.8946-13.122-2.25-5.0787-7.1557-1.3029-10.509-4.8738 3.3535-3.575 8.2591 0.20492 10.509-4.878 2.4286-5.4844 0.47076-8.4644 4.8946-13.122-4.6564 4.4238-7.6319 2.4715-13.117 4.9001-5.0843 2.2444-1.2932 7.1665-4.8627 10.52-3.6028-3.3535 0.21046-8.2534-4.878-10.509-5.4844-2.423-8.4808-0.48738-13.137-4.9056" fill="#1e3d4d" fill-rule="evenodd" stroke-width="1.3846"/>
</svg>
