<?xml version="1.0" encoding="UTF-8"?>
<svg width="64" height="64" version="1.1" viewBox="0 0 64 64" xmlns="http://www.w3.org/2000/svg">
 <defs>
  <linearGradient id="linearGradient1448" x1="3.9687" x2="3.9687" y1="15.338" y2=".54085" gradientTransform="matrix(3.4646 0 0 3.4646 2.6661 -61.335)" gradientUnits="userSpaceOnUse">
   <stop stop-color="#c6dbe0" offset="0"/>
   <stop stop-color="#a7aeb3" offset="1"/>
  </linearGradient>
 </defs>
 <rect transform="scale(1,-1)" x="4.4995" y="-59.5" width="55.001" height="55.001" ry="13" fill="url(#linearGradient1448)" image-rendering="optimizeSpeed" stroke-opacity=".95294" stroke-width=".31428"/>
 <g stroke-width="1.25">
  <path d="m17 23.25v8.75s6.25-4.3362 6.25 3.125c0 7.49-6.25 3.125-6.25 3.125v8.75h8.75s-2.9938-6.25 3.75-6.25c6.9038 0 3.75 6.25 3.75 6.25h8.75v-8.75s5 3.13 5-3.125c0-5-2.5-4.375-5-3.125v-8.75h-8.75s3.75-6.25-3.75-6.25-3.75 6.25-3.75 6.25" fill="#323232" fill-opacity=".4"/>
  <path d="m29.5 17c-4.1589 0-4.8544 1.9205-4.6523 3.6328 0.19571-1.382 1.2982-2.6328 4.6523-2.6328s4.4566 1.2508 4.6523 2.6328c0.20204-1.7123-0.4934-3.6328-4.6523-3.6328zm-12.5 6.25v1h8.75s-0.23935-0.40204-0.47656-1h-8.2734zm16.727 0c-0.23722 0.59796-0.47656 1-0.47656 1h8.75v-1h-8.2734zm10.953 7.8711c-0.80566 0.029297-1.7422 0.41016-2.6797 0.87891v1c2.4228-1.2114 4.8389-1.8199 4.9863 2.6934 0.009819-0.18057 0.013672-0.36916 0.013672-0.56836 0-3.125-0.97754-4.0527-2.3203-4.0039zm-21.443 4.5039c-0.27888 6.7818-6.2363 2.625-6.2363 2.625v1s6.25 4.365 6.25-3.125c0-0.17505-0.006953-0.33773-0.013672-0.5zm10.703 8.957c-0.12743 1.2933-0.68945 2.418-0.68945 2.418h0.39062c0.20868-0.65729 0.4039-1.552 0.29883-2.418zm-8.8203 0.06836c-0.09698 0.84456 0.072134 1.7095 0.26172 2.3496h0.36914s-0.51148-1.0857-0.63086-2.3496z" fill="#323232" fill-opacity=".4"/>
  <path d="m20.418 29.748c-1.6537 0.02863-3.418 1.252-3.418 1.252v1s5.9567-4.1293 6.2363 2.625c0.0067-0.16244 0.01367-0.32479 0.01367-0.5 0-3.4975-1.3729-4.4022-2.832-4.377zm26.568 4.9453c-0.29851 5.4894-4.9863 2.5566-4.9863 2.5566v1s5 3.13 5-3.125c0-0.15449-9e-3 -0.28774-0.01367-0.43164zm-17.486 5.0566c-3.9373 0-4.5483 2.1272-4.3809 3.9004 0.17043-1.4842 1.1706-2.9004 4.3809-2.9004 3.2361 0 4.2624 1.3729 4.4395 2.832 0.17332-1.759-0.46086-3.832-4.4395-3.832zm-12.5 6.25v1h8.75s-0.19201-0.40197-0.36914-1zm16.641 0c-0.18983 0.59795-0.39062 1-0.39062 1h8.75v-1z" fill="#d2d2d2"/>
 </g>
</svg>
