<?xml version="1.0" encoding="UTF-8"?>
<svg width="64" height="64" version="1.1" viewBox="0 0 64 64" xmlns="http://www.w3.org/2000/svg" xmlns:cc="http://creativecommons.org/ns#" xmlns:dc="http://purl.org/dc/elements/1.1/" xmlns:rdf="http://www.w3.org/1999/02/22-rdf-syntax-ns#">
 <defs>
  <linearGradient id="linearGradient1448" x1="3.9687" x2="3.9687" y1="15.338" y2=".54085" gradientTransform="matrix(3.4646 0 0 3.4646 2.666 -61.341)" gradientUnits="userSpaceOnUse">
   <stop stop-color="#333132" offset="0"/>
   <stop stop-color="#212427" offset="1"/>
  </linearGradient>
 </defs>
 <metadata>
  <rdf:RDF>
   <cc:Work rdf:about="">
    <dc:format>image/svg+xml</dc:format>
    <dc:type rdf:resource="http://purl.org/dc/dcmitype/StillImage"/>
    <dc:title>deepin-multitasking-view</dc:title>
   </cc:Work>
  </rdf:RDF>
 </metadata>
 <title>deepin-multitasking-view</title>
 <rect transform="scale(1,-1)" x="4.4996" y="-59.5" width="55.001" height="55.001" ry="13" fill="url(#linearGradient1448)" stroke-opacity=".95294" stroke-width=".31428"/>
 <g transform="matrix(0 1.3333 -1.3333 0 65.333 -.00012381)" fill-rule="evenodd">
  <path d="M 37,26 A 14,14 0 0 1 26.623,39.523 14,14 0 0 1 10.876,33 14,14 0 0 1 13.1,16.1 L 23,26" fill="#ffdc0a"/>
  <path d="M 14.1,14.1 A 14,14 0 0 1 28.789,10.845 L 24,24" fill="#406ccd"/>
  <path d="M 30.446,11.785 A 13,13 0 0 1 39,24 H 26 Z" fill="#3ebc45"/>
 </g>
</svg>
