<?xml version="1.0" encoding="UTF-8"?>
<svg width="64" height="64" version="1.1" viewBox="0 0 16.933 16.933" xmlns="http://www.w3.org/2000/svg" xmlns:cc="http://creativecommons.org/ns#" xmlns:dc="http://purl.org/dc/elements/1.1/" xmlns:rdf="http://www.w3.org/1999/02/22-rdf-syntax-ns#" xmlns:xlink="http://www.w3.org/1999/xlink">
 <defs>
  <linearGradient id="linearGradient1081-6" x1="1.3229" x2="15.875" y1="15.875" y2="2.6458" gradientTransform="matrix(1 0 0 1 -2.0175 3.7288)" gradientUnits="userSpaceOnUse">
   <stop stop-color="#ffbe32" offset="0"/>
   <stop stop-color="#ffdc6e" offset="1"/>
  </linearGradient>
 </defs>
 <metadata>
  <rdf:RDF>
   <cc:Work rdf:about="">
    <dc:format>image/svg+xml</dc:format>
    <dc:type rdf:resource="http://purl.org/dc/dcmitype/StillImage"/>
    <dc:title/>
   </cc:Work>
  </rdf:RDF>
 </metadata>
 <g transform="translate(1.8852 -3.8611)">
  <g stroke-width=".26458">
   <path d="m2.745 5.0517c-1.9055 0-3.4396 1.5341-3.4396 3.4396v1.3229h7.9376v-2.1167l-1.8319-2.2898-0.012401-0.015502a0.92605 0.92605 0 0 0-0.018603-0.022739 0.92605 0.92605 0 0 0-0.027906-0.031007 0.92605 0.92605 0 0 0-0.029456-0.029456 0.92605 0.92605 0 0 0-0.031007-0.027906 0.92605 0.92605 0 0 0-0.031523-0.026871 0.92605 0.92605 0 0 0-0.033074-0.025321 0.92605 0.92605 0 0 0-0.034624-0.02377 0.92605 0.92605 0 0 0-0.03514-0.02222 0.92605 0.92605 0 0 0-0.036174-0.020153 0.92605 0.92605 0 0 0-0.037206-0.019121 0.92605 0.92605 0 0 0-0.037725-0.017052 0.92605 0.92605 0 0 0-0.038759-0.015502 0.92605 0.92605 0 0 0-0.039275-0.013951 0.92605 0.92605 0 0 0-0.039791-0.011885 0.92605 0.92605 0 0 0-0.040307-0.010334 0.92605 0.92605 0 0 0-0.040826-0.00827 0.92605 0.92605 0 0 0-0.040826-0.00672 0.92605 0.92605 0 0 0-0.041342-0.00465 0.92605 0.92605 0 0 0-0.041858-0.00259 0.92605 0.92605 0 0 0-0.041344-0.00103z" fill="#e1a000"/>
   <path d="m2.745 5.0517c-1.9055 0-3.4396 1.5341-3.4396 3.4396v7.673c0 1.9055 1.5341 3.4396 3.4396 3.4396h7.673c1.9055 0 3.4396-1.5341 3.4396-3.4396v-5.8209h-6.6146l0.52917-2.6459-1.8443-2.3053c-0.00608-0.0077-0.012282-0.01526-0.018603-0.02274-0.00907-0.01055-0.018372-0.02088-0.027906-0.031012-0.0096-0.01004-0.019418-0.01986-0.029457-0.029451-0.010123-0.0095-0.020463-0.01884-0.031007-0.027912-0.010305-0.0092-0.020817-0.01815-0.031523-0.026872-0.010835-0.0087-0.02186-0.01713-0.033074-0.02532-0.011361-0.0082-0.022905-0.01611-0.034624-0.02377-0.011546-0.0077-0.023262-0.01508-0.03514-0.022221-0.011906-7e-3 -0.023969-0.0137-0.036174-0.02015-0.012255-0.0067-0.024661-0.01303-0.037206-0.01912-0.012446-6e-3 -0.025024-0.01165-0.037725-0.01705-0.0128-0.0055-0.025722-0.01062-0.038759-0.0155-0.012986-0.0049-0.02608-0.0096-0.039275-0.01395-0.013173-0.0043-0.02644-0.0082-0.039791-0.01189-0.013359-0.0037-0.026797-0.0072-0.04031-0.01033-0.013544-0.0031-0.027158-0.0058-0.040826-0.0083-0.013557-0.0025-0.027168-0.0048-0.040826-0.0067-0.013742-0.0019-0.027527-0.0034-0.041342-0.0047-0.01393-0.0012-0.027888-2e-3 -0.041858-0.0026-0.013771-6.403e-4 -0.027554-9.736e-4 -0.041342-1e-3z" fill="#e1a000"/>
   <path d="m2.745 5.0517c-1.9055 0-3.4396 1.5341-3.4396 3.4396v0.20567c0-1.9055 1.5341-3.4396 3.4396-3.4396h2.466c0.013787 2.64e-5 0.027569 3.942e-4 0.041342 0.00103 0.01397 6.006e-4 0.027927 0.00138 0.041858 0.00258 0.013814 0.0013 0.027599 0.00275 0.041342 0.00465 0.013655 0.0019 0.027269 0.00422 0.040826 0.00672 0.013668 0.0025 0.027281 0.00517 0.040826 0.00827 0.013512 0.00313 0.026949 0.00664 0.040307 0.010335 0.013351 0.00369 0.026618 0.00759 0.039791 0.011885 0.013195 0.00435 0.02629 0.00905 0.039275 0.013952 0.013036 0.00488 0.025958 0.010003 0.038757 0.015503 0.0127 0.0054 0.025279 0.011053 0.037725 0.017053 0.012544 0.00609 0.024953 0.01242 0.037206 0.01912 0.012205 0.00645 0.024267 0.013154 0.036174 0.020153 0.011877 0.00714 0.023593 0.01452 0.03514 0.02222 0.011718 0.00766 0.023262 0.015571 0.034624 0.023771 0.011213 0.00819 0.022238 0.016621 0.033073 0.025322 0.010705 0.00872 0.021217 0.017671 0.031523 0.026871 0.010544 0.00907 0.020883 0.018405 0.031007 0.027906 0.010038 0.00959 0.019857 0.019415 0.029457 0.029457 0.00953 0.01013 0.018835 0.020455 0.027906 0.031007 0.00632 0.00748 0.012523 0.015037 0.018603 0.022738l0.012401 0.015503 1.7989 2.2484 0.033073-0.16433-1.8319-2.2898-0.012401-0.015503c-0.00608-0.0077-0.012282-0.015257-0.018603-0.022738-0.00907-0.01055-0.018372-0.020875-0.027905-0.031007-0.0096-0.01004-0.019418-0.019865-0.029457-0.029457-0.010123-0.0095-0.020463-0.018835-0.031007-0.027906-0.010305-0.0092-0.020817-0.018152-0.031523-0.026872-0.010835-0.0087-0.02186-0.017131-0.033073-0.025322-0.011361-0.0082-0.022905-0.016111-0.034624-0.023771-0.011546-0.0077-0.023263-0.01508-0.03514-0.02222-0.011906-7e-3 -0.023968-0.013704-0.036174-0.020154-0.012255-0.0067-0.024662-0.01303-0.037206-0.01912-0.012446-6e-3 -0.025024-0.011653-0.037725-0.017053-0.0128-0.0055-0.025722-0.010623-0.038757-0.015503-0.012986-0.0049-0.02608-0.0096-0.039275-0.013952-0.013173-0.0043-0.02644-0.0082-0.039791-0.011885-0.013359-0.0037-0.026798-0.00721-0.040307-0.010335-0.013544-0.0031-0.027158-0.00577-0.040826-0.00827-0.013557-0.0025-0.027168-0.00482-0.040826-0.00672-0.013742-0.0019-0.027527-0.00335-0.041342-0.00465-0.01393-0.0012-0.027888-0.00198-0.041858-0.00259-0.013771-6.402e-4 -0.027554-0.00101-0.041342-0.00103h-2.466zm4.5278 5.2917-0.029973 0.14573 6.6146 0.04961v-0.19534h-6.5847z" fill="#e1ffff" opacity=".2"/>
   <path d="m7.4017 6.3746a1.1113 1.1113 0 0 0-0.045477 0.00103 1.1113 1.1113 0 0 0-0.050126 0.0031 1.1113 1.1113 0 0 0-0.04961 0.00568 1.1113 1.1113 0 0 0-0.049094 0.00827 1.1113 1.1113 0 0 0-0.049094 0.00982 1.1113 1.1113 0 0 0-0.048059 0.012402 1.1113 1.1113 0 0 0-0.048059 0.014469 1.1113 1.1113 0 0 0-0.047025 0.016536 1.1113 1.1113 0 0 0-0.046509 0.018603 1.1113 1.1113 0 0 0-0.044958 0.02067 1.1113 1.1113 0 0 0-0.044958 0.022737 1.1113 1.1113 0 0 0-0.043408 0.024288 1.1113 1.1113 0 0 0-0.041858 0.026355 1.1113 1.1113 0 0 0-0.041857 0.028941 1.1113 1.1113 0 0 0-0.039791 0.029973 1.1113 1.1113 0 0 0-0.037725 0.032558 1.1113 1.1113 0 0 0-0.037206 0.033589 1.1113 1.1113 0 0 0-0.03514 0.03514 1.1113 1.1113 0 0 0-0.033589 0.037206 1.1113 1.1113 0 0 0-0.022219 0.02739l-0.014987 0.01861-1.7751 2.2185h-5.4505v7.1438c0 1.9055 1.5341 3.4396 3.4396 3.4396h7.673c1.9055 0 3.4396-1.5341 3.4396-3.4396v-5.8209h-0.0078c-0.08348-2.2119-1.8866-3.9688-4.1196-3.9688h-2.3244a1.1113 1.1113 0 0 0-0.00414 0z" fill="url(#linearGradient1081-6)"/>
   <path d="m7.4017 6.3746a1.1113 1.1113 0 0 0-0.045477 0.00103 1.1113 1.1113 0 0 0-0.050126 0.0031 1.1113 1.1113 0 0 0-0.04961 0.00568 1.1113 1.1113 0 0 0-0.049094 0.00827 1.1113 1.1113 0 0 0-0.049094 0.00982 1.1113 1.1113 0 0 0-0.048059 0.012402 1.1113 1.1113 0 0 0-0.048059 0.014469 1.1113 1.1113 0 0 0-0.047025 0.016536 1.1113 1.1113 0 0 0-0.046509 0.018603 1.1113 1.1113 0 0 0-0.044958 0.02067 1.1113 1.1113 0 0 0-0.044958 0.022737 1.1113 1.1113 0 0 0-0.043408 0.024288 1.1113 1.1113 0 0 0-0.041858 0.026355 1.1113 1.1113 0 0 0-0.041857 0.028941 1.1113 1.1113 0 0 0-0.039791 0.029973 1.1113 1.1113 0 0 0-0.037725 0.032558 1.1113 1.1113 0 0 0-0.037206 0.033589 1.1113 1.1113 0 0 0-0.03514 0.03514 1.1113 1.1113 0 0 0-0.033589 0.037206 1.1113 1.1113 0 0 0-0.022219 0.02739l-0.014987 0.01861-1.7751 2.2185h-5.4505v0.20878h5.56l1.7751-2.2185 0.014986-0.018603c0.0073-0.00921 0.014637-0.018415 0.022221-0.02739 0.010882-0.012652 0.022148-0.025059 0.033589-0.037206 0.011514-0.012041 0.023611-0.02363 0.035658-0.03514 0.012152-0.01144 0.024553-0.022706 0.037206-0.033589 0.012366-0.01103 0.024877-0.022091 0.037725-0.032558 0.012999-0.010422 0.026337-0.020145 0.039791-0.029973 0.013631-0.00982 0.027278-0.019743 0.041342-0.028941 0.013856-0.0092 0.028121-0.017785 0.042376-0.026356 0.014287-0.00838 0.028763-0.016557 0.043408-0.024288 0.014708-0.00798 0.029388-0.015428 0.044442-0.022738 0.014936-0.00716 0.030237-0.014187 0.045477-0.020672 0.015362-0.00655 0.030867-0.012753 0.046509-0.018603 0.015581-0.00593 0.031195-0.011316 0.047025-0.016536 0.015809-0.00511 0.03152-0.010067 0.047543-0.01447 0.016028-0.00449 0.032362-0.00863 0.048575-0.012401 0.01625-0.00367 0.032693-0.00689 0.049094-0.00982 0.016266-0.00306 0.03219-0.00594 0.048575-0.00827 0.016491-0.00225 0.033037-0.00419 0.04961-0.00568 0.016719-0.00146 0.033875-0.00241 0.050644-0.0031 0.016523-7.673e-4 0.033068-0.00101 0.04961-0.00103h2.2143c2.2331 3e-7 4.0362 1.7568 4.1196 3.9688h0.0078v-0.20878h-0.0078c-0.083485-2.2119-1.8866-3.9688-4.1196-3.9688h-2.3244a1.1113 1.1113 0 0 0-0.00414 0z" fill="#fff" opacity=".2"/>
   <path d="m-0.6946 15.987v0.17725c0 1.9055 1.5341 3.4396 3.4396 3.4396h7.673c1.9055 0 3.4396-1.5341 3.4396-3.4396v-0.17725c0 1.9055-1.5341 3.4396-3.4396 3.4396h-7.673c-1.9055 0-3.4396-1.5341-3.4396-3.4396z" opacity=".1"/>
  </g>
  <path d="m6.0362 16.11v1.7704c0 0.07544 0.060736 0.13618 0.13618 0.13618h0.81709c0.075446 0 0.13618-0.06074 0.13618-0.13618v-1.7704zm0.27236 1.0894h0.54473v0.54473h-0.54473z" color="#000000" fill="#f5faff" stroke-width="1.0294"/>
  <path d="m6.5808 8.7559v0.54473h0.54473v-0.54473zm0 0.54473h-0.54473v0.54473h0.54473zm0 0.54473v0.54473h0.54473v-0.54473zm0 0.54473h-0.54473v0.54473h0.54473zm0 0.54473v0.54473h0.54473v-0.54473zm0 0.54473h-0.54473v0.54473h0.54473zm0 0.54473v0.54473h0.54473v-0.54473zm0 0.54473h-0.54473v0.54473h0.54473zm0 0.54473v0.54473h0.54473v-0.54473zm0 0.54473h-0.54473v0.54473h0.54473zm0 0.54473v0.54473h0.54473v-0.54473zm0 0.54473h-0.54473v0.54473h0.54473zm0 0.54473v0.54473h0.54473v-0.54473z" color="#000000" fill="#f5faff" stroke-width="1.0294"/>
 </g>
</svg>
