<?xml version="1.0" encoding="UTF-8"?>
<svg width="64" height="64" version="1.1" viewBox="0 0 16.933 16.933" xmlns="http://www.w3.org/2000/svg" xmlns:cc="http://creativecommons.org/ns#" xmlns:dc="http://purl.org/dc/elements/1.1/" xmlns:rdf="http://www.w3.org/1999/02/22-rdf-syntax-ns#" xmlns:xlink="http://www.w3.org/1999/xlink">
 <defs>
  <filter id="filter861-3" x="-.027" y="-.027" width="1.054" height="1.054" color-interpolation-filters="sRGB">
   <feGaussianBlur stdDeviation="0.16371"/>
  </filter>
  <linearGradient id="linearGradient1584-7" x1="30.901" x2="30.901" y1="1.2898" y2="15.843" gradientTransform="matrix(1 0 0 1 -8.504 3.6379)" gradientUnits="userSpaceOnUse">
   <stop stop-color="#7364e9" offset="0"/>
   <stop stop-color="#6496ff" offset="1"/>
  </linearGradient>
 </defs>
 <metadata>
  <rdf:RDF>
   <cc:Work rdf:about="">
    <dc:format>image/svg+xml</dc:format>
    <dc:type rdf:resource="http://purl.org/dc/dcmitype/StillImage"/>
    <dc:title/>
   </cc:Work>
  </rdf:RDF>
 </metadata>
 <g transform="translate(-14.117 -3.7703)">
  <rect transform="matrix(1 0 0 1 14.117 3.7703)" x="1.1905" y="1.1905" width="14.552" height="14.552" ry="3.4395" filter="url(#filter861-3)" image-rendering="optimizeSpeed" opacity=".3" stroke-opacity=".95294" stroke-width=".083153"/>
  <rect x="15.308" y="4.9608" width="14.552" height="14.552" rx="3.4401" ry="3.4396" fill="url(#linearGradient1584-7)" stroke-linecap="round" stroke-width=".52917"/>
  <g stroke-width=".20845">
   <path d="m25.056 4.9609c-1.9937 1.1943-2.6739 3.3678-2.7368 4.4597a4.0413 4.0413 0 0 0-2.2231 0.85679 2.4154 2.4154 0 0 0-0.20877-0.15813 3.7455 3.7455 0 0 1-0.02274-1.9746 5.9836 5.9836 0 0 0-1.9446 1.5033h-0.0036c-0.32027-0.4049-0.29791-1.7437-0.27957-2.0231a1.4441 1.4441 0 0 0-0.26975 0.14366 5.8835 5.8835 0 0 0-0.78962 0.67644 7.055 7.055 0 0 0-0.75499 0.90589 6.8232 6.8232 0 0 0-0.5147 0.85731v5.8653c0 1.9055 1.5343 3.4396 3.4401 3.4396h7.6719c1.9058 0 3.4401-1.5341 3.4401-3.4396v-5.9784c-0.38089-0.70453-0.94778-1.3757-1.4113-1.6154a8.3934 8.3934 0 0 1 0.81804 2.4526l0.0016 0.01343c-0.91348-2.2773-2.4629-3.1956-3.728-5.195-0.063998-0.1011-0.12785-0.2026-0.19017-0.30954-0.035646-0.061032-0.064078-0.11575-0.088882-0.1664a1.4702 1.4702 0 0 1-0.11886-0.31368zm4.2127 5.9784 0.0016 0.0088-0.0016-1e-3zm-8.5111 5.9092c0.03773 0.01812 0.07336 0.03745 0.11214 0.05478l0.0052 0.0041c-0.03919-0.01878-0.07812-0.03811-0.11731-0.05839z" fill="#209af9"/>
   <path d="m26.144 11.47c0.01751 0.0123 0.03376 0.02461 0.05023 0.03692a4.3983 4.3983 0 0 0-0.75043-0.97867c-2.511-2.5114-0.65808-5.4454-0.34561-5.5945l0.0032-0.00492c-2.0293 1.1881-2.7178 3.3878-2.7811 4.488 0.09422-0.00689 0.18761-0.014372 0.28392-0.014372a4.0773 4.0773 0 0 1 3.5399 2.0672z" fill="#3bbfff"/>
   <path d="m22.609 11.972c-0.01334 0.20094-0.72333 0.89405-0.9716 0.89405-2.2973 0-2.6703 1.3898-2.6703 1.3898 0.10173 1.1703 0.91719 2.1341 1.9029 2.644 0.04502 0.02332 0.09067 0.0444 0.13633 0.06507q0.11861 0.05257 0.23722 0.09716a3.5927 3.5927 0 0 0 1.0512 0.20283c4.0267 0.18886 4.8067-4.8152 1.9009-6.2672a2.7891 2.7891 0 0 1 1.948 0.47297 4.0773 4.0773 0 0 0-3.5399-2.0672c-0.09589 0-0.18969 0.00787-0.28392 0.014372a4.0413 4.0413 0 0 0-2.2233 0.85694c0.1232 0.10422 0.26224 0.24347 0.5551 0.53217 0.54822 0.54009 1.9542 1.0996 1.9573 1.1652z" fill="#2a55c4"/>
   <path d="m19.72 10.003c0.06545 0.04164 0.11945 0.07797 0.16676 0.11069a3.7455 3.7455 0 0 1-0.022721-1.9747 5.9836 5.9836 0 0 0-1.9447 1.5029c0.0394-9.845e-4 1.2113-0.022051 1.8006 0.36104z" fill="#1d97f8"/>
   <path d="m17.641 7.6207a1.4441 1.4441 0 0 0-0.26975 0.14314 5.8835 5.8835 0 0 0-0.78962 0.67644 7.055 7.055 0 0 0-0.75861 0.90382 6.8232 6.8232 0 0 0-0.5147 0.85731v5.6725c0.80461 1.5809 2.1418 2.8645 3.7512 3.6391h6.9474c1.455-0.75786 2.4647-1.945 3.0117-3.1187a7.3167 7.3167 0 0 0 0.25373-5.4451c0.28178 1.8678-0.66857 3.6761-2.1539 4.9l-0.0047 0.01085c-2.8991 2.3611-5.6737 1.4241-6.2353 1.0418-0.03918-0.01874-0.07812-0.03811-0.11731-0.05839-1.6903-0.80796-2.3888-2.3478-2.2391-3.6685a2.0747 2.0747 0 0 1-1.9141-1.2041 3.0471 3.0471 0 0 1 2.9704-0.11937 4.0231 4.0231 0 0 0 3.0334 0.11937c-0.0031-0.06567-1.4093-0.62544-1.9575-1.1653-0.29287-0.2887-0.43181-0.42783-0.555-0.53227a2.4154 2.4154 0 0 0-0.20826-0.15761c-0.04794-0.03268-0.10209-0.06854-0.16692-0.1111-0.58929-0.38313-1.761-0.36175-1.7999-0.3607h-0.0041c-0.3202-0.40558-0.29742-1.7437-0.27909-2.0231zm11.631 3.3285c-5.03e-4 -0.0033-5.29e-4 -0.0065-1e-3 -0.0098l-0.0016-0.01395c-0.0012-2e-3 0 0.0023 0 0.0083v0.0078a7.3167 7.3167 0 0 1 0.0026 0.0077z" fill="#3bbfff"/>
   <path d="m25.444 10.534a4.3983 4.3983 0 0 1 0.75043 0.97972c0.04439 0.03357 0.08588 0.06694 0.12111 0.09922 1.8316 1.6884 0.87195 4.0752 0.80046 4.2452 1.4879-1.2259 2.4389-3.0389 2.1531-4.9101-0.91385-2.2784-2.4629-3.1965-3.728-5.1961-0.063998-0.1011-0.128-0.2024-0.19031-0.30934-0.03565-0.061032-0.0642-0.11611-0.089-0.16676a1.4702 1.4702 0 0 1-0.12049-0.31997 0.020845 0.020845 0 0 0-0.01834-0.020869 0.028767 0.028767 0 0 0-0.01521 0c-0.0011 0-0.0027 0.00197-0.0039 0.00197-0.0012 4.134e-4 -4e-3 0.00197-0.0058 0.00295-0.31247 0.1482-2.1654 3.0821 0.34603 5.5936z" fill="#097cf4"/>
   <path d="m26.314 11.607c-0.03523-0.03229-0.0767-0.06566-0.12111-0.09923-0.01647-0.0123-0.03273-0.02461-0.05023-0.03692a2.7891 2.7891 0 0 0-1.948-0.47297c2.9059 1.4529 2.1262 6.4561-1.9009 6.2672a3.5927 3.5927 0 0 1-1.0512-0.2028q-0.11861-0.0444-0.23722-0.09716c-0.04565-0.02087-0.0913-0.04164-0.13633-0.06507l0.0056 4e-3c0.56157 0.38334 3.3352 1.3198 6.2352-1.0423l0.0046-0.01039c0.07233-0.16884 1.0321-2.5562-0.80046-4.244z" fill="#1d97f8"/>
   <path d="m18.967 14.255s0.37292-1.3898 2.6703-1.3898c0.24827 0 0.95888-0.69309 0.9716-0.89405a4.0231 4.0231 0 0 1-3.0333-0.11923 3.0471 3.0471 0 0 0-2.9702 0.11923 2.0747 2.0747 0 0 0 1.9137 1.2038c-0.14967 1.321 0.54865 2.861 2.239 3.6688 0.03773 0.01812 0.07316 0.0377 0.11194 0.05503-0.98656-0.50966-1.8012-1.4736-1.9029-2.6439z" fill="#1d97f8"/>
  </g>
 </g>
</svg>
