<?xml version="1.0" encoding="UTF-8"?>
<svg width="64" height="64" version="1.1" viewBox="0 0 16.933 16.933" xmlns="http://www.w3.org/2000/svg" xmlns:cc="http://creativecommons.org/ns#" xmlns:dc="http://purl.org/dc/elements/1.1/" xmlns:rdf="http://www.w3.org/1999/02/22-rdf-syntax-ns#" xmlns:xlink="http://www.w3.org/1999/xlink">
 <defs>
  <filter id="filter861-2" x="-.027" y="-.027" width="1.054" height="1.054" color-interpolation-filters="sRGB">
   <feGaussianBlur stdDeviation="0.16371"/>
  </filter>
  <linearGradient id="linearGradient1116" x1="70.786" x2="6.447" y1="12.393" y2="74.468" gradientTransform="matrix(.2119 0 0 .2119 15.004 3.5058)" gradientUnits="userSpaceOnUse">
   <stop stop-color="#fff44f" offset=".048"/>
   <stop stop-color="#ffe847" offset=".111"/>
   <stop stop-color="#ffc830" offset=".225"/>
   <stop stop-color="#ff980e" offset=".368"/>
   <stop stop-color="#ff8b16" offset=".401"/>
   <stop stop-color="#ff672a" offset=".462"/>
   <stop stop-color="#ff3647" offset=".534"/>
   <stop stop-color="#e31587" offset=".705"/>
  </linearGradient>
  <radialGradient id="radialGradient1118" cx="-7907.2" cy="-8515.1" r="80.797" gradientTransform="matrix(.2119 0 0 .2119 1704.9 1809.8)" gradientUnits="userSpaceOnUse">
   <stop stop-color="#ffbd4f" offset=".129"/>
   <stop stop-color="#ffac31" offset=".186"/>
   <stop stop-color="#ff9d17" offset=".247"/>
   <stop stop-color="#ff980e" offset=".283"/>
   <stop stop-color="#ff563b" offset=".403"/>
   <stop stop-color="#ff3750" offset=".467"/>
   <stop stop-color="#f5156c" offset=".71"/>
   <stop stop-color="#eb0878" offset=".782"/>
   <stop stop-color="#e50080" offset=".86"/>
  </radialGradient>
  <radialGradient id="radialGradient1120" cx="-7936.7" cy="-8482.1" r="80.797" gradientTransform="matrix(.2119 0 0 .2119 1704.9 1809.8)" gradientUnits="userSpaceOnUse">
   <stop stop-color="#960e18" offset=".3"/>
   <stop stop-color="#b11927" stop-opacity=".74" offset=".351"/>
   <stop stop-color="#db293d" stop-opacity=".343" offset=".435"/>
   <stop stop-color="#f5334b" stop-opacity=".094" offset=".497"/>
   <stop stop-color="#ff3750" stop-opacity="0" offset=".53"/>
  </radialGradient>
  <radialGradient id="radialGradient1122" cx="-7927" cy="-8533.5" r="58.534" gradientTransform="matrix(.21189 0 0 .21189 1704.8 1809.8)" gradientUnits="userSpaceOnUse">
   <stop stop-color="#fff44f" offset=".132"/>
   <stop stop-color="#ffdc3e" offset=".252"/>
   <stop stop-color="#ff9d12" offset=".506"/>
   <stop stop-color="#ff980e" offset=".526"/>
  </radialGradient>
  <radialGradient id="radialGradient1124" cx="-7937.7" cy="-8518.4" r="27.676" gradientTransform="matrix(.21189 0 0 .21189 1704.8 1809.8)" gradientUnits="userSpaceOnUse">
   <stop stop-color="#ffe226" offset="0"/>
   <stop stop-color="#ffdb27" offset=".121"/>
   <stop stop-color="#ffc82a" offset=".295"/>
   <stop stop-color="#ffa930" offset=".502"/>
   <stop stop-color="#ff7e37" offset=".732"/>
   <stop stop-color="#ff7139" offset=".792"/>
  </radialGradient>
  <radialGradient id="radialGradient1126" cx="-7916" cy="-8536" r="118.08" gradientTransform="matrix(.2119 0 0 .2119 1704.9 1809.8)" gradientUnits="userSpaceOnUse">
   <stop stop-color="#fff44f" offset=".113"/>
   <stop stop-color="#ff980e" offset=".456"/>
   <stop stop-color="#ff5634" offset=".622"/>
   <stop stop-color="#ff3647" offset=".716"/>
   <stop stop-color="#e31587" offset=".904"/>
  </radialGradient>
  <radialGradient id="radialGradient1128" cx="-7927.2" cy="-8522.9" r="86.499" gradientTransform="matrix(.022249 .21084 -.13837 .014621 -977.52 1798.4)" gradientUnits="userSpaceOnUse">
   <stop stop-color="#fff44f" offset="0"/>
   <stop stop-color="#ffe847" offset=".06"/>
   <stop stop-color="#ffc830" offset=".168"/>
   <stop stop-color="#ff980e" offset=".304"/>
   <stop stop-color="#ff8b16" offset=".356"/>
   <stop stop-color="#ff672a" offset=".455"/>
   <stop stop-color="#ff3647" offset=".57"/>
   <stop stop-color="#e31587" offset=".737"/>
  </radialGradient>
  <radialGradient id="radialGradient1130" cx="-7938.4" cy="-8508.2" r="73.72" gradientTransform="matrix(.21189 0 0 .21189 1704.8 1809.8)" gradientUnits="userSpaceOnUse">
   <stop stop-color="#fff44f" offset=".137"/>
   <stop stop-color="#ff980e" offset=".48"/>
   <stop stop-color="#ff5634" offset=".592"/>
   <stop stop-color="#ff3647" offset=".655"/>
   <stop stop-color="#e31587" offset=".904"/>
  </radialGradient>
  <radialGradient id="radialGradient1132" cx="-7918.9" cy="-8503.9" r="80.686" gradientTransform="matrix(.21189 0 0 .21189 1704.8 1809.8)" gradientUnits="userSpaceOnUse">
   <stop stop-color="#fff44f" offset=".094"/>
   <stop stop-color="#ffe141" offset=".231"/>
   <stop stop-color="#ffaf1e" offset=".509"/>
   <stop stop-color="#ff980e" offset=".626"/>
  </radialGradient>
  <linearGradient id="linearGradient1134" x1="6.8421" x2="12.104" y1="13.003" y2="4.0901" gradientTransform="matrix(1.0334 0 0 1.0334 14.692 3.0135)" gradientUnits="userSpaceOnUse">
   <stop stop-color="#0014f0" offset="0"/>
   <stop stop-color="#a032ff" offset=".55304"/>
   <stop stop-color="#b432ff" offset="1"/>
  </linearGradient>
  <linearGradient id="linearGradient1136" x1="70.013" x2="15.267" y1="12.061" y2="66.806" gradientTransform="matrix(.2119 0 0 .2119 15.004 3.5058)" gradientUnits="userSpaceOnUse">
   <stop stop-color="#fff44f" stop-opacity=".8" offset=".167"/>
   <stop stop-color="#fff44f" stop-opacity=".634" offset=".266"/>
   <stop stop-color="#fff44f" stop-opacity=".217" offset=".489"/>
   <stop stop-color="#fff44f" stop-opacity="0" offset=".6"/>
  </linearGradient>
  <linearGradient id="linearGradient3321" x1="30.901" x2="30.901" y1="1.2898" y2="15.843" gradientTransform="matrix(1 0 0 1 -7.6063 2.4095)" gradientUnits="userSpaceOnUse">
   <stop stop-color="#7364e9" offset="0"/>
   <stop stop-color="#6496ff" offset="1"/>
  </linearGradient>
 </defs>
 <metadata>
  <rdf:RDF>
   <cc:Work rdf:about="">
    <dc:format>image/svg+xml</dc:format>
    <dc:type rdf:resource="http://purl.org/dc/dcmitype/StillImage"/>
    <dc:title/>
   </cc:Work>
  </rdf:RDF>
 </metadata>
 <g transform="translate(-15.015 -2.5419)">
  <rect transform="matrix(1 0 0 1 15.015 2.5419)" x="1.1905" y="1.1905" width="14.552" height="14.552" ry="3.4395" filter="url(#filter861-2)" image-rendering="optimizeSpeed" opacity=".3" stroke-opacity=".95294" stroke-width=".083153"/>
  <rect x="16.206" y="3.7324" width="14.552" height="14.552" rx="3.4401" ry="3.4396" fill="url(#linearGradient3321)" stroke-linecap="round" stroke-width=".52917"/>
  <g stroke-width=".2119">
   <path d="m25.686 3.7325c-1.7894 1.2439-2.4127 3.283-2.4733 4.3347a4.1082 4.1082 0 0 0-2.2604 0.87128 2.4553 2.4553 0 0 0-0.21187-0.16071 3.8074 3.8074 0 0 1-0.023255-2.0071 6.0825 6.0825 0 0 0-1.9766 1.5281h-0.0036c-0.32559-0.41159-0.30289-1.7721-0.28423-2.0562a1.468 1.468 0 0 0-0.2744 0.14521 5.9809 5.9809 0 0 0-0.80254 0.68782 7.1716 7.1716 0 0 0-0.76791 0.92089 6.9361 6.9361 0 0 0-0.40257 0.64389v6.2048c0 1.9055 1.5343 3.4396 3.4401 3.4396h7.6719c1.9058 0 3.4401-1.5341 3.4401-3.4396v-6.3082c-0.38024-0.63376-0.89112-1.2067-1.3147-1.4258a8.5323 8.5323 0 0 1 0.83149 2.4929l0.0016 0.013435c-0.9286-2.315-2.503-3.2483-3.7889-5.2809-0.065051-0.10277-0.12992-0.20548-0.19327-0.3142-0.03623-0.062043-0.065738-0.11802-0.090951-0.1695a1.4945 1.4945 0 0 1-0.055293-0.12041h-0.46146zm4.5911 5.8788 0.0016 0.0093-0.0016-0.00103zm-8.6522 6.0069c0.03835 0.01841 0.07428 0.0382 0.11369 0.05581l0.0062 0.0041c-0.03984-0.01907-0.08005-0.03881-0.11989-0.05943v-5.29e-4z" fill="url(#linearGradient1116)"/>
   <path d="m29.443 7.1113a8.5323 8.5323 0 0 1 0.83149 2.4929v0.00775l0.0016 0.00878a7.4378 7.4378 0 0 1-0.25528 5.5428c-0.54412 1.1674-1.538 2.3491-2.9663 3.1213h0.26304c1.9058 0 3.4401-1.5341 3.4401-3.4396v-6.3082c-0.38027-0.63376-0.89116-1.2067-1.3147-1.4258zm-13.236 7.7547c0.01117 1.8958 1.5403 3.419 3.4391 3.419h0.14831c-1.5117-0.75293-2.7779-1.951-3.5875-3.419z" fill="url(#radialGradient1118)"/>
   <path d="m29.443 7.1113a8.5323 8.5323 0 0 1 0.83149 2.4929v0.00775l0.0016 0.00878a7.4378 7.4378 0 0 1-0.25528 5.5428c-0.54412 1.1674-1.538 2.3491-2.9663 3.1213h0.26304c1.9058 0 3.4401-1.5341 3.4401-3.4396v-6.3082c-0.38027-0.63376-0.89116-1.2067-1.3147-1.4258zm-13.236 7.7547c0.01117 1.8958 1.5403 3.419 3.4391 3.419h0.14831c-1.5117-0.75293-2.7779-1.951-3.5875-3.419z" fill="url(#radialGradient1120)"/>
  </g>
  <path d="m27.099 10.15c0.01781 0.01251 0.03432 0.02502 0.05107 0.03753a4.471 4.471 0 0 0-0.76284-0.99485c-2.5526-2.553-0.66896-5.5355-0.35133-5.687l0.0032-5e-3c-2.0628 1.2078-2.7628 3.4438-2.8272 4.5623 0.09578-0.00701 0.19071-0.01461 0.28861-0.01461a4.1448 4.1448 0 0 1 3.5985 2.1014z" fill="url(#radialGradient1122)" stroke-width=".21189"/>
  <path d="m20.57 8.6592c0.06654 0.042329 0.12142 0.079254 0.16951 0.11251a3.8074 3.8074 0 0 1-0.0231-2.0073 6.0825 6.0825 0 0 0-1.9768 1.5278c0.04005-1e-3 1.2313-0.022416 1.8303 0.36702z" fill="url(#radialGradient1124)" stroke-width=".21189"/>
  <path d="m18.456 6.2379a1.468 1.468 0 0 0-0.2739 0.14521 5.9809 5.9809 0 0 0-0.80254 0.68782 7.1716 7.1716 0 0 0-0.77103 0.91883 6.9361 6.9361 0 0 0-0.40257 0.64337v6.2122c0 4e-3 5.03e-4 0.0079 5.16e-4 0.01188 0.81188 1.4733 2.0844 2.675 3.6029 3.4277h7.2338c1.435-0.77198 2.433-1.957 2.9787-3.1279a7.4378 7.4378 0 0 0 0.25838-5.5351c0.28628 1.8986-0.67974 3.737-2.1895 4.9811l-0.0052 0.01085c-2.9472 2.4001-5.7672 1.4479-6.3381 1.0594-0.03977-0.01907-0.07954-0.03881-0.11937-0.05943-1.7183-0.82132-2.4285-2.3868-2.2764-3.7296a2.109 2.109 0 0 1-1.9451-1.2237 3.0975 3.0975 0 0 1 3.0189-0.12144 4.0897 4.0897 0 0 0 3.0835 0.12144c-0.0032-0.06674-1.4322-0.63566-1.9895-1.1844-0.29771-0.29348-0.43908-0.4349-0.56431-0.54105a2.4553 2.4553 0 0 0-0.21188-0.16071c-0.048736-0.033224-0.1036-0.069388-0.1695-0.11266-0.59905-0.38947-1.7905-0.36796-1.8299-0.3669h-0.0036c-0.32548-0.41228-0.30289-1.7726-0.28423-2.0567zm11.824 3.3838c-5.3e-4 -0.00344-5.03e-4 -0.00689-1e-3 -0.010335l-0.0016-0.013436c-0.0013-0.00198 0 0.00175 0 0.00775v0.00827a7.4378 7.4378 0 0 1 0.0026 0.00775z" fill="url(#radialGradient1126)" stroke-width=".2119"/>
  <g stroke-width=".21189">
   <path d="m26.387 9.1997a4.471 4.471 0 0 1 0.76284 0.99592c0.04513 0.03412 0.0873 0.06805 0.12312 0.10086 1.8619 1.7163 0.88637 4.1426 0.8137 4.3154 1.5125-1.2461 2.4791-3.0891 2.1887-4.9913-0.92897-2.3161-2.5036-3.2495-3.7896-5.282-0.065051-0.10277-0.13011-0.20574-0.19345-0.31446-0.036231-0.062042-0.065271-0.11803-0.090482-0.16951a1.4944 1.4944 0 0 1-0.12247-0.32527 0.021189 0.021189 0 0 0-0.01864-0.021215 0.029242 0.029242 0 0 0-0.01547 0c-0.0011 0-0.0028 2e-3 -4e-3 2e-3 -0.0013 4.203e-4 -4e-3 2e-3 -0.0059 3e-3 -0.31765 0.15065-2.2012 3.1331 0.35174 5.686z" fill="url(#radialGradient1128)"/>
   <path d="m27.272 10.29c-0.03582-0.03282-0.07797-0.06675-0.12311-0.10087-0.01674-0.01251-0.03327-0.02502-0.05106-0.03753a2.8353 2.8353 0 0 0-1.9801-0.4808c2.954 1.4769 2.1614 6.5628-1.9323 6.371a3.6521 3.6521 0 0 1-1.0686-0.20616q-0.12057-0.04513-0.24114-0.09877c-0.04641-0.02121-0.09281-0.04233-0.13858-0.06614l0.0057 4e-3c0.57086 0.38968 3.3904 1.3417 6.3383-1.0595l0.0048-0.0106c0.07353-0.17163 1.0491-2.5985-0.8137-4.3143z" fill="url(#radialGradient1130)"/>
   <path d="m19.804 12.982s0.37909-1.4127 2.7145-1.4127c0.25238 0 0.97473-0.70455 0.98766-0.90883a4.0897 4.0897 0 0 1-3.0835-0.1212 3.0976 3.0976 0 0 0-3.0194 0.1212 2.109 2.109 0 0 0 1.9454 1.2237c-0.15214 1.3427 0.55772 2.9083 2.276 3.7295 0.03835 0.01841 0.07438 0.03833 0.11378 0.05593-1.0029-0.51808-1.831-1.4978-1.9343-2.6875z" fill="url(#radialGradient1132)"/>
   <path d="m23.501 8.0496c-0.09748 0-0.19311 0.00781-0.2889 0.014417a4.1081 4.1081 0 0 0-2.2598 0.87096c0.12523 0.10594 0.2662 0.24746 0.5639 0.54094 0.55729 0.54902 1.9869 1.1182 1.9901 1.185-0.0144 0.20474-0.73568 0.90834-0.98791 0.90834-2.3353 0-2.7144 1.4129-2.7144 1.4129 0.10341 1.1896 0.9321 2.1692 1.9341 2.6877 0.04577 0.02371 0.09244 0.0452 0.13884 0.06622 0.08038 0.03562 0.16045 0.06856 0.24084 0.09879a3.6521 3.6521 0 0 0 1.069 0.20612c4.0933 0.19197 4.8858-4.8945 1.932-6.3706a2.8353 2.8353 0 0 1 1.98 0.4806 4.1448 4.1448 0 0 0-3.5981-2.1012z" fill="url(#linearGradient1134)"/>
  </g>
  <path d="m25.686 3.7325c-1.7894 1.2439-2.4127 3.283-2.4733 4.3347 0.09578-0.00701 0.19046-0.01447 0.28834-0.01447a4.1447 4.1447 0 0 1 3.5989 2.1017 2.8353 2.8353 0 0 0-1.9803-0.48112c2.9538 1.4769 2.1611 6.563-1.9327 6.3712a3.6521 3.6521 0 0 1-1.0687-0.20516c-0.08038-0.03009-0.16043-0.06294-0.24082-0.0987-0.04641-0.02121-0.09272-0.04232-0.13849-0.06615l0.0057 0.0036c-0.0019-9.26e-4 -0.0038-0.0022-0.0057-0.0031-1.0029-0.51832-1.8314-1.4987-1.9348-2.6882 0 0 0.37918-1.4123 2.7146-1.4123 0.25237 0 0.97463-0.70472 0.98754-0.90898-0.0032-0.06671-1.4323-0.63567-1.9895-1.1844-0.29771-0.29346-0.43908-0.43488-0.56431-0.54103a2.4553 2.4553 0 0 0-0.21188-0.16071 3.8074 3.8074 0 0 1-0.023254-2.0071 6.0825 6.0825 0 0 0-1.9766 1.5276h-0.0041c-0.32553-0.41291-0.3024-1.7732-0.28375-2.0573a1.468 1.468 0 0 0-0.2744 0.14573 5.9809 5.9809 0 0 0-0.80254 0.68782 7.1716 7.1716 0 0 0-0.76791 0.92089 6.9361 6.9361 0 0 0-0.40257 0.64337v6.2048c0 1.9055 1.5343 3.4396 3.4401 3.4396h7.6719c1.9058 0 3.4401-1.5341 3.4401-3.4396v-6.3082c-0.38024-0.63376-0.89112-1.2067-1.3147-1.4258a8.5323 8.5323 0 0 1 0.83149 2.4929l0.0016 0.013436c-0.9286-2.315-2.503-3.2483-3.7889-5.2809-0.065051-0.10277-0.12992-0.20548-0.19327-0.3142-0.03623-0.062043-0.065739-0.11802-0.090951-0.1695a1.4945 1.4945 0 0 1-0.055293-0.12041h-0.46146z" fill="url(#linearGradient1136)" stroke-width=".2119"/>
 </g>
</svg>
