<?xml version="1.0" encoding="UTF-8"?>
<svg id="SimpleNote" width="64" height="64" enable-background="new 0 0 1024 1024" image-rendering="optimizeSpeed" version="1.1" viewBox="0 0 64 64" xmlns="http://www.w3.org/2000/svg" xmlns:cc="http://creativecommons.org/ns#" xmlns:dc="http://purl.org/dc/elements/1.1/" xmlns:rdf="http://www.w3.org/1999/02/22-rdf-syntax-ns#" xmlns:xlink="http://www.w3.org/1999/xlink">
 <metadata>
  <rdf:RDF>
   <cc:Work rdf:about="">
    <dc:format>image/svg+xml</dc:format>
    <dc:type rdf:resource="http://purl.org/dc/dcmitype/StillImage"/>
   </cc:Work>
  </rdf:RDF>
 </metadata>
 <defs>
  <linearGradient id="linearGradient11258" x1="59.092" x2="46.289" y1="216.78" y2="169" gradientTransform="matrix(.45529 0 0 .45529 70.519 -72.934)" gradientUnits="userSpaceOnUse">
   <stop stop-color="#0cc" offset="0"/>
   <stop stop-color="#31e5d2" offset="1"/>
  </linearGradient>
 </defs>
 <rect x="4.4995" y="4.4995" width="55.001" height="55.001" ry="13" fill="#1ca8a8" stroke-opacity=".95294" stroke-width=".31428"/>
 <g transform="translate(-73.059)" stroke-width="1.3419">
  <path d="m126.91 13.562c2.0186 0 3.6423 1.6237 3.6423 3.6423v26.862c0 2.0186-1.6237 3.6423-3.6423 3.6423h-10.927c-6.0344 0-10.927 4.8926-10.927 10.927v-33.236c0-6.0344 4.8926-11.837 10.927-11.837z" fill="#f9f9f9"/>
  <path d="m83.205 13.562c-2.0186 0-3.6423 1.6237-3.6423 3.6423v26.862c0 2.0186 1.6237 3.6423 3.6423 3.6423h10.927c6.0344 0 10.927 4.8926 10.927 10.927v-33.236c0-6.0344-4.8926-11.837-10.927-11.837z" fill="#ececec"/>
 </g>
 <path d="m-56.418 9.3847h26.135c5.2895 0 9.5478 4.2583 9.5478 9.5478v26.135c0 5.2895-4.2583 9.5478-9.5478 9.5478h-26.135c-5.2895 0-9.5478-4.2583-9.5478-9.5478v-26.135c0-5.2895 4.2583-9.5478 9.5478-9.5478z" color="#000000" fill="#f9f9f9" stroke-width=".94231" style="-inkscape-stroke:none"/>
 <g transform="translate(-73.059)">
  <path d="m122.36 18.57v2.7317h-5.4634c-1.9919 0.08359-3.8539 0.59045-5.4634 1.4939v-2.5272c1.6077-1.0635 3.4716-1.6984 5.4634-1.6984z" fill="#0cc" stroke-width="1.3419"/>
  <g transform="matrix(1.3419 0 0 1.3419 62.118 -10.94)" fill="#dedcd9">
   <path d="m46.929 26.062v1.3571h-6.1071c-1.4844 0.06229-2.872 0.44001-4.0714 1.1133v-1.2047c1.1981-0.79255 2.5871-1.2657 4.0714-1.2657z"/>
   <path d="m46.929 28.777v1.3571h-6.1071c-1.4844 0.06229-2.872 0.44001-4.0714 1.1133v-1.2047c1.1981-0.79255 2.5871-1.2657 4.0714-1.2657z"/>
   <path d="m46.929 31.491v1.3571h-6.1071c-1.4844 0.06229-2.872 0.44001-4.0714 1.1133v-1.2047c1.1981-0.79255 2.5871-1.2657 4.0714-1.2657z"/>
   <path d="m22.5 36.92h-5.4286v1.3571h5.4286z"/>
   <path d="m17.071 26.062v1.3571h6.7857c1.2127 0.05036 2.3591 0.31543 3.3929 0.77797v-1.267c-1.0338-0.54869-2.1802-0.8681-3.3929-0.8681z"/>
   <path d="m17.071 28.777v1.3571h6.7857c1.2127 0.05036 2.3591 0.31543 3.3929 0.77797v-1.267c-1.0338-0.54869-2.1802-0.86809-3.3929-0.86809z"/>
   <path d="m17.071 31.491v1.3571h6.7857c1.2127 0.05036 2.3591 0.31543 3.3929 0.77797v-1.267c-1.0338-0.54869-2.1802-0.86809-3.3929-0.86809z"/>
   <path d="m17.071 23.348v1.3571h6.7857c1.2127 0.05036 2.3591 0.31543 3.3929 0.77797v-1.267c-1.0338-0.54869-2.1802-0.86809-3.3929-0.86809z"/>
   <path d="m17.071 34.205v1.3571h6.7857c1.2127 0.05036 2.3591 0.31543 3.3929 0.77797v-1.267c-1.0338-0.54869-2.1802-0.8681-3.3929-0.8681z"/>
   <path d="m44.214 34.205v1.3571h-3.3929c-1.4844 0.06229-2.872 0.44001-4.0714 1.1133v-1.2047c1.1981-0.79255 2.5871-1.2657 4.0714-1.2657z"/>
  </g>
  <path d="m91.598 4.0007s-3.7473 9.305-3.7365 14.199c0.0071 3.6423 0.50152 7.7523 2.8278 10.555 1.7874 2.152 7.571 3.6264 7.571 3.6264l1.759-0.47129s4.2701-4.1687 4.7432-6.9254c0.61357-3.5908-1.0137-7.3967-2.8278-10.555-2.4382-4.2452-10.336-10.429-10.336-10.429z" fill="url(#linearGradient11258)" stroke-width="1.3419"/>
  <g transform="matrix(1.3419 0 0 1.3419 62.118 -10.94)" fill="#1ca8a8">
   <path d="m28.341 37.537c-3.6553-13.64-3.5585-15.163-5.3464-22.67 2.216 7.3636 3.0019 8.6783 6.6572 22.319z"/>
   <path d="m24.566 21.335c1.2273-2.1245 1.6673-2.5499 2.102-3.2563-0.39362 0.73026-0.55532 1.3161-1.7826 3.4406z"/>
   <path d="m25.417 24.632c1.7031-2.9502 2.314-3.5413 2.9171-4.5234-0.54471 1.0152-0.77002 1.829-2.4744 4.7792z"/>
   <path d="m26.354 28.17c1.8025-3.1212 2.4479-3.7467 3.0867-4.7845-0.57785 1.0735-0.81641 1.9337-2.6175 5.0548z"/>
   <path d="m24.819 21.267c-2.1258-1.2259-2.7183-1.3744-3.4485-1.7693 0.70508 0.43604 1.1385 0.86279 3.263 2.0887z"/>
   <path d="m25.731 24.549c-2.9502-1.7044-3.7746-1.9111-4.7884-2.4585 0.98075 0.60568 1.5811 1.1981 4.5326 2.9012z"/>
   <path d="m26.688 28.08c-3.1212-1.8025-3.9932-2.0211-5.0654-2.6003 1.0364 0.64146 1.6739 1.267 4.7951 3.0695z"/>
  </g>
 </g>
</svg>
