<?xml version="1.0" encoding="UTF-8"?>
<svg width="64" height="64" version="1.1" viewBox="0 0 16.933 16.933" xmlns="http://www.w3.org/2000/svg" xmlns:cc="http://creativecommons.org/ns#" xmlns:dc="http://purl.org/dc/elements/1.1/" xmlns:rdf="http://www.w3.org/1999/02/22-rdf-syntax-ns#" xmlns:xlink="http://www.w3.org/1999/xlink">
 <defs>
  <linearGradient id="linearGradient887" x1="8.3364" x2=".71961" y1="15.169" y2=".62653" gradientTransform="matrix(3.4646 0 0 3.4646 2.6662 2.6662)" gradientUnits="userSpaceOnUse">
   <stop stop-color="#5096e6" offset="0"/>
   <stop stop-color="#2d64b9" offset="1"/>
  </linearGradient>
 </defs>
 <metadata>
  <rdf:RDF>
   <cc:Work rdf:about="">
    <dc:format>image/svg+xml</dc:format>
    <dc:type rdf:resource="http://purl.org/dc/dcmitype/StillImage"/>
    <dc:title/>
   </cc:Work>
  </rdf:RDF>
 </metadata>
 <path transform="scale(.26458)" d="m44.166 59.5h2.334c7.202 0 13-5.798 13-13v-29c0-7.202-5.798-13-13-13h-20.746l18.412 55z" fill="#f0f0f5" stroke-opacity=".95294" stroke-width=".31428"/>
 <text x="6.7660055" y="12.142981" fill="#2d64b9" font-family="AkrutiMal1" font-size="6.4483px" font-weight="bold" letter-spacing="0px" stroke-width=".16121" word-spacing="0px" style="font-feature-settings:normal;font-variant-caps:normal;font-variant-ligatures:normal;font-variant-numeric:normal;line-height:1.25" xml:space="preserve"><tspan x="6.7660055" y="12.142981" fill="#2d64b9" font-family="AkrutiMal1" font-size="6.4483px" font-weight="bold" stroke-width=".16121" style="font-feature-settings:normal;font-variant-caps:normal;font-variant-ligatures:normal;font-variant-numeric:normal">文</tspan></text>
 <path transform="scale(.26458)" d="m44.166 59.5-18.412-55h-8.2539c-7.202 0-13 5.798-13 13v29c0 7.202 5.798 13 13 13h26.666z" fill="url(#linearGradient887)" stroke-opacity=".95294" stroke-width=".31428"/>
 <path d="m7.0801 11.137-0.38497-1.2653h-1.9401l-0.38614 1.2664h-1.2147l1.8779-5.3426h1.3791l1.8849 5.3426h-1.2159m-0.65491-2.2124c-0.3568-1.1479-0.5575-1.7957-0.60327-1.9483-0.03525-0.11756-0.06696-0.23616-0.09507-0.35563-0.07981 0.31103-0.30985 1.0786-0.68778 2.304h1.3861" fill="#fafafa" font-size="24px" font-weight="700" letter-spacing="0" stroke-width=".86383" word-spacing="0"/>
</svg>
