<?xml version="1.0" encoding="UTF-8"?>
<svg width="64" height="64" version="1.1" viewBox="0 0 16.933 16.933" xmlns="http://www.w3.org/2000/svg">
 <defs>
  <linearGradient id="linearGradient1448" x1="3.9687" x2="3.9687" y1="8.9776" y2=".54085" gradientTransform="matrix(.91666 0 0 .91666 .70539 .70539)" gradientUnits="userSpaceOnUse">
   <stop stop-color="#f8094a" offset="0"/>
   <stop stop-color="#fa4778" offset="1"/>
  </linearGradient>
 </defs>
 <rect x="1.1905" y="1.1905" width="14.552" height="14.552" ry="3.4395" fill="url(#linearGradient1448)" stroke-opacity=".95294" stroke-width=".083152"/>
 <path d="m11.145 6.1858c-0.01667 0.08335-0.16462 0.24901-0.24797 0.24901h-2.4776a0.35528 0.35528 0 0 0-0.33028 0.33028v0.16566c0 0.16462 0.16462 0.33028 0.33028 0.33028h2.1473c0.16566 0 0.28964 0.14795 0.24797 0.33028a9.7729 9.7729 0 0 1-0.24797 0.82621c-0.08231 0.20629-0.16462 0.49594-0.4949 0.49594h-1.6524c-0.24797 0-0.33028 0.18129-0.49594 0.41259-0.14899 0.18129-1.4868 2.065-1.4868 2.065v-5.6991c0-0.49698 0.33028-0.90956 0.90852-0.90956h3.7997c0.16566 0 0.28964 0.16566 0.24797 0.33028zm-3.7997-2.2296c-1.3221 0-1.7347 0.33028-1.7347 1.7347v7.5182c0 0.33028 0.12398 0.41258 0.20629 0.41258 0.08335 0 0.18962-0.09064 0.28964-0.24797 0.065639-0.09898 2.5609-3.6351 2.5609-3.6351h1.6097c0.82621 0 0.90852-0.49489 1.0731-1.0731 0.083351-0.41363 0.57929-2.313 0.82621-3.4695 0.16566-0.82725-0.08231-1.2398-0.90852-1.2398z" fill="#fff" stroke-width="1.0419"/>
</svg>
