<?xml version="1.0" encoding="UTF-8"?>
<svg width="64" height="64" version="1.1" viewBox="0 0 16.933 16.933" xmlns="http://www.w3.org/2000/svg">
 <defs>
  <linearGradient id="linearGradient1073" x1="31.828" x2="31.828" y1="7.4182" y2="58.005" gradientTransform="scale(.26458)" gradientUnits="userSpaceOnUse">
   <stop stop-color="#601eac" offset="0"/>
   <stop stop-color="#ba5ed2" offset="1"/>
  </linearGradient>
 </defs>
 <path d="m4.6301 1.1906c-1.9055 0-3.4395 1.534-3.4395 3.4395v7.6728c0 1.9055 1.534 3.4395 3.4395 3.4395h7.6728c1.9055 0 3.4395-1.534 3.4395-3.4395v-7.6728c0-1.9055-1.534-3.4395-3.4395-3.4395z" fill="url(#linearGradient1073)" style="paint-order:stroke fill markers"/>
 <g transform="matrix(1.25 0 0 1.25 -2.117 -2.112)">
  <path d="m6.562 11.003a0.635 0.635 0 0 1-0.635 0.635 0.635 0.635 0 0 1-0.635-0.635 0.635 0.635 0 0 1 0.635-0.635 0.635 0.635 0 0 1 0.635 0.635z" fill="#fff"/>
  <path d="m8.255 11.003a0.635 0.635 0 0 1-0.635 0.635 0.635 0.635 0 0 1-0.635-0.635 0.635 0.635 0 0 1 0.635-0.635 0.635 0.635 0 0 1 0.635 0.635z" fill="#f55"/>
  <path d="m9.948 11.003a0.635 0.635 0 0 1-0.635 0.635 0.635 0.635 0 0 1-0.635-0.635 0.635 0.635 0 0 1 0.635-0.635 0.635 0.635 0 0 1 0.635 0.635zm1.694 0a0.635 0.635 0 0 1-0.635 0.635 0.635 0.635 0 0 1-0.635-0.635 0.635 0.635 0 0 1 0.635-0.635 0.635 0.635 0 0 1 0.635 0.635z" fill="#fff"/>
  <path d="m6.562 9.31a0.635 0.635 0 0 1-0.635 0.635 0.635 0.635 0 0 1-0.635-0.635 0.635 0.635 0 0 1 0.635-0.635 0.635 0.635 0 0 1 0.635 0.635z" fill="#f55"/>
  <path d="m8.255 9.31a0.635 0.635 0 0 1-0.635 0.635 0.635 0.635 0 0 1-0.635-0.635 0.635 0.635 0 0 1 0.635-0.635 0.635 0.635 0 0 1 0.635 0.635z" fill="#fff"/>
  <path d="m9.948 9.31a0.635 0.635 0 0 1-0.635 0.635 0.635 0.635 0 0 1-0.635-0.635 0.635 0.635 0 0 1 0.635-0.635 0.635 0.635 0 0 1 0.635 0.635zm1.694 0a0.635 0.635 0 0 1-0.635 0.635 0.635 0.635 0 0 1-0.635-0.635 0.635 0.635 0 0 1 0.635-0.635 0.635 0.635 0 0 1 0.635 0.635z" fill="#f55"/>
  <path d="m9.948 7.617a0.635 0.635 0 0 1-0.635 0.635 0.635 0.635 0 0 1-0.635-0.635 0.635 0.635 0 0 1 0.635-0.635 0.635 0.635 0 0 1 0.635 0.635z" fill="#fff"/>
  <path d="m11.642 7.617a0.635 0.635 0 0 1-0.635 0.635 0.635 0.635 0 0 1-0.635-0.635 0.635 0.635 0 0 1 0.635-0.635 0.635 0.635 0 0 1 0.635 0.635z" fill="#f55"/>
  <path d="m11.642 5.923a0.635 0.635 0 0 1-0.635 0.635 0.635 0.635 0 0 1-0.635-0.635 0.635 0.635 0 0 1 0.635-0.635 0.635 0.635 0 0 1 0.635 0.635z" fill="#fff"/>
 </g>
</svg>
