<?xml version="1.0" encoding="UTF-8"?>
<svg width="64" height="64" version="1" xmlns="http://www.w3.org/2000/svg">
 <rect x="4.4995" y="4.4995" width="55.001" height="55.001" ry="13" fill="#f18d00" stroke-opacity=".95294" stroke-width=".31428"/>
 <path d="m18.932 9.3844h26.135c5.2895 0 9.5478 4.2583 9.5478 9.5478v26.135c0 5.2895-4.2583 9.5478-9.5478 9.5478h-26.135c-5.2895 0-9.5478-4.2583-9.5478-9.5478v-26.135c0-5.2895 4.2583-9.5478 9.5478-9.5478z" color="#000000" fill="#f39e26" stroke-width=".94231" style="-inkscape-stroke:none"/>
 <path d="m49.499 26.694c-3.2796-13.865-15.877-13.749-23.482-10.129-8.004 4.0453-13.8 14.413-10.639 23.095 4.886 13.098 22.871 12.901 28.958 0.72102 1.806-4.4661 3.1326-7.6372-1.8358-11.881v5.2501l-1.75-3.5001s-1.5533 3.6716-3.2033 5.3463c-2.2961 2.3293-5.5477 1.6538-5.5477 1.6538 0.61374 2.32 5.2501 3.5001 5.2501 3.5001-12.036 5.6964-12.388-3.824-12.25-6.1251 0.39499-6.6229 5.7197-11.763 12.735-11.394 2.2366 0.1715 6.5155 1.7693 6.5155 1.7693-1.6101-3.684-3.9026-4.5606-5.2501-5.2501 5.2824-1.7466 8.1017 3.7677 10.5 6.9428z" fill="#fff" fill-rule="evenodd" stroke-width=".87504"/>
</svg>
