<?xml version="1.0" encoding="UTF-8"?>
<svg width="64" height="64" version="1.1" viewBox="0 0 16.933 16.933" xmlns="http://www.w3.org/2000/svg" xmlns:xlink="http://www.w3.org/1999/xlink">
 <defs>
  <linearGradient id="linearGradient5470" x1="39.59" x2="39.59" y1="55.215" y2="8.785" gradientTransform="matrix(1.4368 0 0 1.4368 -7.8328 -8.7587)" gradientUnits="userSpaceOnUse">
   <stop offset="0"/>
   <stop stop-opacity="0" offset="1"/>
  </linearGradient>
 </defs>
 <rect x="1.1905" y="1.1905" width="14.552" height="14.552" ry="3.4395" fill="#3c6eac" stroke-opacity=".95294" stroke-width=".083152"/>
 <path transform="scale(.26458)" d="m17.5 4.5c-7.202 0-13 5.798-13 13v29c0 7.202 5.798 13 13 13h29c7.202 0 13-5.798 13-13v-27.113c-0.068594-0.078818-0.13517-0.15811-0.20508-0.23633-6.7595-7.5518-18.841-9.8233-26.713-2.5918-5.2368 4.8098-6.7878 13.524-1.6016 18.975 3.3489 3.5174 9.0694 4.5419 12.744 0.91211 2.2813-2.2532 2.9332-6.7995 0.46094-9.1875-1.4665-1.4216-4.0459-1.8155-5.5293-0.19726-0.84283 0.9215-1.0678 3.0631-0.044922 3.9453 0.54503 0.46637 1.4779 0.58296 1.9668-0.035156 0.23596-0.30342 0.30291-0.81356-0.056641-1.0664-0.15738-0.11238-0.415-0.13464-0.52734 0.050781-0.033639 0.067428-0.039515 0.19138 0.044921 0.23633 0.033639 0.016819 0.10156 0.021692 0.10156-0.017578v-0.027344c-0.050571-0.016819 0-0.029297 0-0.029296 0.028347-0.01682 0.072266 0.016775 0.072266 0.044921 0.017008 0.095522-0.068021 0.18041-0.15234 0.19727-0.21355 0.044966-0.3654-0.15661-0.41602-0.34766-0.067428-0.42142 0.33862-0.73654 0.7207-0.78711 0.78665-0.089901 1.3596 0.65164 1.4102 1.3652 0.10636 1.3485-1.1818 2.3147-2.418 2.3652-2.2027 0.10114-3.7363-1.9996-3.7812-4.0449-0.056188-3.4275 3.2313-5.7942 6.4453-5.7773 5.1638 0.028121 8.6822 4.9907 8.5586 9.8398-0.19107 7.5237-7.4509 12.624-14.564 12.326-10.676-0.44951-18.481-10.816-17.908-20.93 0.49669-8.7962 6.0151-15.818 13.373-19.869h-13.98z" fill="#6ae5e8" stroke-width="5.6189"/>
 <path transform="scale(.26458)" d="m56.768 9.5098a59.269 59.269 0 0 1 0.056641 1.8477 59.269 59.269 0 0 1-24.838 48.143h14.514c7.202 0 13-5.798 13-13v-29c0-3.0178-1.0197-5.7887-2.7324-7.9902z" fill="url(#linearGradient5470)" opacity=".3" stroke-width="1.4368"/>
</svg>
