<?xml version="1.0" encoding="UTF-8"?>
<svg width="64" height="64" version="1.1" viewBox="0 0 16.933 16.933" xmlns="http://www.w3.org/2000/svg">
 <defs>
  <linearGradient id="linearGradient1353" x1="30.901" x2="30.901" y1="1.2898" y2="15.843" gradientTransform="translate(-22.621 -.1325)" gradientUnits="userSpaceOnUse">
   <stop stop-color="#4d4d4d" offset="0"/>
   <stop stop-color="#1a1a1a" offset="1"/>
  </linearGradient>
 </defs>
 <rect x="1.1905" y="1.1905" width="14.552" height="14.552" rx="3.44" ry="3.4395" fill="url(#linearGradient1353)" image-rendering="optimizeSpeed" stroke-linecap="round" stroke-width=".52916"/>
 <g stroke-width="1.158">
  <path d="M4.354 4.354v8.226h8.226V4.354zm1.237.914h5.752l-1.371 1.37h-3.01L5.59 5.269zm-.323.324l1.37 1.371v3.01l-1.37 1.37V5.593zm6.398 0v5.752l-1.371-1.371v-3.01l1.37-1.37zm-4.57 1.504h2.742v2.742H7.096zm-.134 3.199h3.01l1.37 1.37H5.592l1.37-1.37z" fill="#c4c4c4"/>
  <path d="M4.81 3.44a1.371 1.371 0 0 0-1.37 1.37 1.371 1.371 0 0 0 1.37 1.372A1.371 1.371 0 0 0 6.183 4.81 1.371 1.371 0 0 0 4.81 3.44zm7.313 0a1.371 1.371 0 0 0-1.371 1.37 1.371 1.371 0 0 0 1.37 1.372 1.371 1.371 0 0 0 1.372-1.371 1.371 1.371 0 0 0-1.371-1.371zM6.867 6.182a.686.686 0 0 0-.685.685.686.686 0 0 0 .685.686.686.686 0 0 0 .686-.686.686.686 0 0 0-.686-.685zm3.2 0a.686.686 0 0 0-.686.685.686.686 0 0 0 .685.686.686.686 0 0 0 .686-.686.686.686 0 0 0-.686-.685zm-3.2 3.199a.686.686 0 0 0-.685.685.686.686 0 0 0 .685.686.686.686 0 0 0 .686-.686.686.686 0 0 0-.686-.685zm3.2 0a.686.686 0 0 0-.686.685.686.686 0 0 0 .685.686.686.686 0 0 0 .686-.686.686.686 0 0 0-.686-.685zM4.81 10.75a1.371 1.371 0 0 0-1.371 1.372 1.371 1.371 0 0 0 1.37 1.37 1.371 1.371 0 0 0 1.372-1.37 1.371 1.371 0 0 0-1.371-1.371zm7.312 0a1.371 1.371 0 0 0-1.371 1.372 1.371 1.371 0 0 0 1.37 1.37 1.371 1.371 0 0 0 1.372-1.37 1.371 1.371 0 0 0-1.371-1.371z" fill="#fff"/>
 </g>
</svg>
