<?xml version="1.0" encoding="UTF-8"?>
<svg width="64" height="64" version="1.1" viewBox="0 0 16.933 16.933" xmlns="http://www.w3.org/2000/svg" xmlns:cc="http://creativecommons.org/ns#" xmlns:dc="http://purl.org/dc/elements/1.1/" xmlns:rdf="http://www.w3.org/1999/02/22-rdf-syntax-ns#" xmlns:xlink="http://www.w3.org/1999/xlink">
 <metadata>
  <rdf:RDF>
   <cc:Work rdf:about="">
    <dc:format>image/svg+xml</dc:format>
    <dc:type rdf:resource="http://purl.org/dc/dcmitype/StillImage"/>
   </cc:Work>
  </rdf:RDF>
 </metadata>
 <defs>
  <linearGradient id="linearGradient3039" x1="18.875" x2="73.814" y1="-2.0845" y2="-57.191" gradientTransform="matrix(.24108 0 0 .25223 19.99 13.599)" gradientUnits="userSpaceOnUse">
   <stop stop-color="#28a8ea" offset="0"/>
   <stop stop-color="#28a8ea" offset="1"/>
  </linearGradient>
  <filter id="filter3155" x="-.036" y="-.036" width="1.072" height="1.072" color-interpolation-filters="sRGB">
   <feGaussianBlur stdDeviation="0.39858175"/>
  </filter>
  <linearGradient id="linearGradient3177" x1="58.134" x2="84.706" y1="-28.681" y2="-2.1085" gradientTransform="matrix(.24108 0 0 .25223 17.364 13.358)" gradientUnits="userSpaceOnUse">
   <stop stop-color="#0078d4" offset="0"/>
   <stop stop-color="#0078d4" offset="1"/>
  </linearGradient>
  <filter id="filter3161" x="-.036" y="-.036" width="1.072" height="1.072" color-interpolation-filters="sRGB">
   <feGaussianBlur stdDeviation="0.39858175"/>
  </filter>
  <linearGradient id="linearGradient3059" x1="-73.527" x2="-46.955" y1="-28.681" y2="-2.1085" gradientTransform="matrix(.24108 0 0 .25223 42.483 6.408)" gradientUnits="userSpaceOnUse">
   <stop stop-color="#50d9ff" offset="0"/>
   <stop stop-color="#30b9da" offset="1"/>
  </linearGradient>
  <linearGradient id="linearGradient4345" x1="9.7529" x2="17.764" y1="-29.806" y2="-23.42" gradientTransform="translate(-15.656,11.859)" gradientUnits="userSpaceOnUse">
   <stop stop-color="#6e2313" offset="0"/>
   <stop stop-color="#b74226" offset="1"/>
  </linearGradient>
  <filter id="filter3056" x="-.087333" y="-.087333" width="1.1747" height="1.1747" color-interpolation-filters="sRGB">
   <feGaussianBlur stdDeviation="0.27780551"/>
  </filter>
  <linearGradient id="linearGradient3071" x1="9.7894" x2="17.727" y1="-30.691" y2="-22.754" gradientTransform="matrix(.9112 0 0 .95333 14.575 31.298)" gradientUnits="userSpaceOnUse">
   <stop stop-color="#1683d9" offset="0"/>
   <stop stop-color="#0a65ca" offset="1"/>
  </linearGradient>
  <linearGradient id="linearGradient3073" x1="9.7529" x2="17.764" y1="-29.806" y2="-23.42" gradientTransform="matrix(.9112 0 0 .95333 14.575 31.298)" gradientUnits="userSpaceOnUse">
   <stop stop-color="#1683d9" offset="0"/>
   <stop stop-color="#106fc5" offset="1"/>
  </linearGradient>
 </defs>
 <g fill="#5e4aa6" stroke-width=".26458">
  <circle cx="-330.38" cy="-328.37" r="0"/>
  <circle cx="-312.55" cy="-328.38" r="0"/>
  <circle cx="-295.13" cy="-341.25" r="0"/>
 </g>
 <g transform="translate(-22.262 2.4648)">
  <path d="m37.786 3.6961v-3.9782c0-0.25652-0.27491-0.54413-0.52009-0.54413h-3.7677l-8.957 9.3711v3.9782c0 0.25934 0.27797 0.55016 0.52586 0.55016 1.3388 0 3.7619-6e-3 3.7619-6e-3z" fill="url(#linearGradient3039)" stroke-width=".24659"/>
  <path transform="matrix(.24108 0 0 .25223 40.813 13.203)" d="m-30.344-1.4946h15.628l2.1573-2.1573v-15.772l-8.6428-8.6428h-15.772l-2.1573 2.1573v15.628z" filter="url(#filter3155)" opacity=".3"/>
  <path d="m33.498 12.826h3.7677c0.24518 0 0.52009-0.28762 0.52009-0.54414v-3.9782l-2.0836-2.18h-3.8024c-0.24518 0-0.52009 0.28762-0.52009 0.54413v3.9418z" fill="url(#linearGradient3177)" stroke-width=".24659"/>
  <path transform="matrix(.24328 0 0 .25775 40.963 13.513)" d="m-57.814-29.048h15.628l2.1573-2.1573v-15.772l-8.6428-8.6428h-15.772l-2.1573 2.1573v15.628z" filter="url(#filter3161)" opacity=".3"/>
  <path d="m26.875 5.8761h3.7677c0.24518 0 0.52009-0.28762 0.52009-0.54413v-3.9782l-2.0836-2.18h-3.8024c-0.24518 0-0.52009 0.28762-0.52009 0.54413v3.9418z" fill="url(#linearGradient3059)" stroke-width=".24659"/>
  <rect transform="matrix(.86803 0 0 .90815 29.135 19.714)" x="-5.8659" y="-18.832" width="7.9373" height="7.9373" ry=".79373" filter="url(#filter3056)" opacity=".5" stroke="url(#linearGradient4345)" stroke-width=".052916"/>
  <rect x="23.496" y="2.0387" width="7.2325" height="7.5669" ry=".75669" fill="url(#linearGradient3071)" stroke="url(#linearGradient3073)" stroke-width=".049319"/>
  <path d="m28.531 4.4602h-2.1397v1.0186h2.0328v0.65307h-2.0328v1.058h2.2325v0.65015h-3.0236v-4.0357h2.9307z" fill="#fff" stroke-width=".50446"/>
 </g>
</svg>
