<?xml version="1.0" encoding="UTF-8"?>
<svg width="64" height="64" version="1.1" viewBox="0 0 16.933 16.933" xmlns="http://www.w3.org/2000/svg" xmlns:cc="http://creativecommons.org/ns#" xmlns:dc="http://purl.org/dc/elements/1.1/" xmlns:rdf="http://www.w3.org/1999/02/22-rdf-syntax-ns#" xmlns:xlink="http://www.w3.org/1999/xlink">
 <metadata>
  <rdf:RDF>
   <cc:Work rdf:about="">
    <dc:format>image/svg+xml</dc:format>
    <dc:type rdf:resource="http://purl.org/dc/dcmitype/StillImage"/>
    <dc:title/>
   </cc:Work>
  </rdf:RDF>
 </metadata>
 <defs>
  <linearGradient id="linearGradient1114" x1="4.4429" x2="59.203" y1="59.095" y2="4.9329" gradientTransform="scale(.26458)" gradientUnits="userSpaceOnUse">
   <stop stop-color="#39eb63" offset="0"/>
   <stop stop-color="#b94af7" offset="1"/>
  </linearGradient>
 </defs>
 <g fill="#5e4aa6">
  <g stroke-width=".26458">
   <circle cx="-330.38" cy="-328.51" r="0"/>
   <circle cx="-39.461" cy="6.312" r="0" fill-rule="evenodd"/>
   <g transform="translate(-.0272 -.128)">
    <circle cx="-306.7" cy="-329.95" r="0"/>
    <circle cx="-15.783" cy="4.8765" r="0" fill-rule="evenodd"/>
    <circle cx="-285.93" cy="-348.86" r="0"/>
    <circle cx="4.9855" cy="-14.033" r="0" fill-rule="evenodd"/>
   </g>
  </g>
  <circle cx="-325.5" cy="-337.68" r="0" stroke-width=".26458"/>
  <circle cx="-34.587" cy="-2.8609" r="0" fill-rule="evenodd" stroke-width=".26458"/>
  <g stroke-width=".26458">
   <circle cx="-333.2" cy="-328.51" r="0"/>
   <circle cx="-42.281" cy="6.312" r="0" fill-rule="evenodd"/>
   <g transform="translate(-2.8473 -.128)">
    <circle cx="-306.7" cy="-329.95" r="0"/>
    <circle cx="-15.783" cy="4.8765" r="0" fill-rule="evenodd"/>
    <circle cx="-285.93" cy="-348.86" r="0"/>
    <circle cx="4.9855" cy="-14.033" r="0" fill-rule="evenodd"/>
   </g>
  </g>
  <g stroke-width=".26458">
   <circle cx="-306.2" cy="-337.68" r="0"/>
   <circle cx="-15.283" cy="-2.8609" r="0" fill-rule="evenodd"/>
   <circle cx="-328.92" cy="-337.68" r="0"/>
   <circle cx="-38.006" cy="-2.8609" r="0" fill-rule="evenodd"/>
  </g>
  <g stroke-width=".26458">
   <circle cx="-336.62" cy="-328.51" r="0"/>
   <circle cx="-45.7" cy="6.312" r="0" fill-rule="evenodd"/>
   <g transform="translate(-6.2659 -.128)">
    <circle cx="-306.7" cy="-329.95" r="0"/>
    <circle cx="-15.783" cy="4.8765" r="0" fill-rule="evenodd"/>
    <circle cx="-285.93" cy="-348.86" r="0"/>
    <circle cx="4.9855" cy="-14.033" r="0" fill-rule="evenodd"/>
   </g>
   <circle cx="-330.38" cy="-328.51" r="0"/>
   <circle cx="-39.461" cy="6.312" r="0" fill-rule="evenodd"/>
   <g transform="translate(-.0272 -.128)">
    <circle cx="-306.7" cy="-329.95" r="0"/>
    <circle cx="-15.783" cy="4.8765" r="0" fill-rule="evenodd"/>
    <circle cx="-285.93" cy="-348.86" r="0"/>
    <circle cx="4.9855" cy="-14.033" r="0" fill-rule="evenodd"/>
   </g>
  </g>
 </g>
 <path d="m4.6301 1.1906c-1.9055 0-3.4395 1.534-3.4395 3.4395v7.6728c0 1.9055 1.534 3.4395 3.4395 3.4395h7.6728c1.9055 0 3.4395-1.534 3.4395-3.4395v-7.6728c0-1.9055-1.534-3.4395-3.4395-3.4395z" fill="url(#linearGradient1114)" stroke-linecap="round" stroke-linejoin="round" stroke-width=".79373" style="paint-order:stroke fill markers"/>
 <rect x="4.4978" y="4.4978" width="7.9373" height="7.9373" ry="1.0583" stroke-linecap="round" stroke-linejoin="round" stroke-width="1.4568" style="paint-order:stroke fill markers"/>
 <g transform="translate(-24.091)">
  <path d="m29.295 10.952h3.1059v0.62118h-3.1059z" fill="#f9f9f9" stroke-width=".26458"/>
  <g transform="translate(24.352 -.06445)" fill="#fff" stroke-width=".1127" aria-label="GO">
   <path d="m6.8538 8.8866c0.46431 0 0.8565-0.18032 1.0819-0.4012v-1.5056h-1.1856v0.54545h0.59053v0.65815c-0.094666 0.081142-0.25695 0.12622-0.41473 0.12622-0.65815 0-0.99173-0.43726-0.99173-1.163 0-0.71675 0.38768-1.1495 0.94215-1.1495 0.30203 0 0.49136 0.12171 0.65815 0.27949l0.35162-0.42374c-0.21638-0.22089-0.54996-0.42825-1.0323-0.42825-0.88805 0-1.6003 0.64463-1.6003 1.7446 0 1.1134 0.69421 1.7175 1.6003 1.7175z"/>
   <path d="m9.9777 8.8866c0.88355 0 1.4921-0.66266 1.4921-1.7446 0-1.0819-0.60856-1.7175-1.4921-1.7175s-1.4921 0.6311-1.4921 1.7175c0 1.0819 0.60856 1.7446 1.4921 1.7446zm0-0.57701c-0.49587 0-0.81142-0.4553-0.81142-1.1675 0-0.71675 0.31555-1.145 0.81142-1.145s0.81142 0.42825 0.81142 1.145c0 0.71225-0.31555 1.1675-0.81142 1.1675z"/>
  </g>
 </g>
</svg>
