<?xml version="1.0" encoding="UTF-8"?>
<svg width="64" height="64" version="1.1" viewBox="0 0 64 64" xmlns="http://www.w3.org/2000/svg" xmlns:xlink="http://www.w3.org/1999/xlink">
 <defs>
  <linearGradient id="linearGradient967" x1="400.4" x2="400.4" y1="545.62" y2="517.62" gradientTransform="matrix(1.5862 0 0 1.5862 -655.16 -673.64)" gradientUnits="userSpaceOnUse">
   <stop stop-color="#d3d3d3" offset="0"/>
   <stop stop-color="#fcf9f9" offset="1"/>
  </linearGradient>
  <linearGradient id="linearGradient969" x1="400.4" x2="400.4" y1="545.62" y2="517.62" gradientTransform="matrix(1.6382 0 0 1.6382 -729.8 -679.16)" gradientUnits="userSpaceOnUse">
   <stop stop-color="#8d3aff" offset="0"/>
   <stop stop-color="#ff3680" offset="1"/>
  </linearGradient>
  <linearGradient id="linearGradient1273" x1="127.04" x2="63.658" y1="440.86" y2="377.94" gradientTransform="matrix(.42928 .00041624 -.00041409 .43155 -11.231 -145.97)" gradientUnits="userSpaceOnUse">
   <stop stop-color="#232223" offset="0"/>
   <stop stop-color="#49484d" offset="1"/>
  </linearGradient>
  <linearGradient id="linearGradient2200" x1="11.469" x2="55.385" y1="10.516" y2="54.431" gradientTransform="translate(3e-6)" gradientUnits="userSpaceOnUse">
   <stop stop-color="#1283e2" offset="0"/>
   <stop stop-color="#399cef" offset="1"/>
  </linearGradient>
 </defs>
 <path d="m17.5 4.5c-7.202 0-13 5.798-13 13v29c0 7.202 5.798 13 13 13h29c7.202 0 13-5.798 13-13v-29c0-7.202-5.798-13-13-13z" fill="url(#linearGradient2200)" stroke-linecap="round" stroke-linejoin="round" style="paint-order:stroke fill markers"/>
 <g fill="#5e4aa6">
  <ellipse cx="-1331.1" cy="-1237.8" rx="2.765" ry="0"/>
  <ellipse cx="-1262.2" cy="-1229.7" rx="2.765" ry="0"/>
  <ellipse cx="-1239.2" cy="-1255.5" rx="2.765" ry="0"/>
  <ellipse cx="-1249.8" cy="-1228.8" rx="2.765" ry="0"/>
 </g>
 <ellipse cx="-19.786" cy="169.91" rx="2.765" ry="0" fill="url(#linearGradient967)" image-rendering="optimizeSpeed"/>
 <ellipse cx="-73.575" cy="192.07" rx="2.765" ry="0" fill="none" image-rendering="optimizeSpeed" stroke="url(#linearGradient969)" stroke-width="2.1297"/>
 <g transform="matrix(1.0667 0 0 1.0667 .53227 .53298)">
  <path d="m52 29.5c0 2.6973-0.47478 5.2832-1.3455 7.6803-0.6052 1.6659-1.4014 3.2409-2.3639 4.6976-0.40314 0.61252-0.83662 1.204-1.2967 1.7724-1.473 1.8192-3.2236 3.4036-5.1885 4.6894-0.72368 0.47387-1.4758 0.90737-2.2546 1.2958-3.024 1.5133-6.4378 2.3646-10.05 2.3646-3.6128 0-7.0265-0.8513-10.05-2.3647-0.77879-0.38849-1.5319-0.82194-2.2555-1.2958-1.9901-1.3032-3.7616-2.9123-5.2464-4.7617-0.46098-0.57305-0.89357-1.17-1.2967-1.788-0.93671-1.4326-1.7127-2.9783-2.306-4.612-0.87053-2.3961-1.3445-4.9811-1.3445-7.6774 0-12.426 10.074-22.5 22.5-22.5 6.2377 0 11.882 2.5383 15.958 6.6376 1.1746 1.181 2.2188 2.4924 3.1077 3.9104 0.84033 1.3353 1.5429 2.766 2.0892 4.2713 0.87075 2.397 1.3455 4.9831 1.3455 7.6803z" fill="url(#linearGradient1273)" stroke-width=".087892"/>
  <g transform="matrix(1.0768 0 0 1.0768 3.5304 3.545)">
   <!-- color: #419ccc -->
   <path d="m24 3.875c-2.512 0-4.906 0.473-7.125 1.313 6.102 0.105 9.543 0.742 12.668 2.449 0.258 0.141 0.523 0.289 0.777 0.449 0.773 0.477 1.539 1.02 2.332 1.641 3.41 2.68 3.707 5.941 6.605 8.434 1.762 1.516 1.523 1.387 2.34 1.387 0.895 0 1.348-0.805 1.563-1.68-2.598-8.113-10.195-13.992-19.16-13.992m-8.07 3.695c-0.426 0-0.848 0.047-1.266 0.133-0.141 0.031-0.277 0.059-0.418 0.098-3.855 1.035-7.156 5.289-8.234 7.242-0.066 0.121-0.145 0.27-0.219 0.402-0.574 1.215-1.035 2.492-1.355 3.828 0.309-0.395 0.609-0.766 0.906-1.117 2.09-2.449 4-3.773 6.75-3.773 4.898 0 5.523 2.184 14.504 8.04 4.418 2.883 11.125 6.852 16.656 7.441 0.227-0.738 0.406-1.512 0.543-2.277-2.066-0.148-3.93-0.941-5.949-2.277-0.285-0.191-0.578-0.387-0.875-0.602-2.359-1.703-4.984-4.117-8.398-7.121-2.602-2.277-9.141-10.03-12.645-10.03m-7.02 22.992c-1.555 0-2.711 0.785-2.844 2.559 2.18 4.277 5.836 7.668 10.305 9.504-0.063-0.082-0.117-0.172-0.176-0.266-0.418-0.645-0.82-1.52-0.82-2.523 0-1.172 0.754-1.633 1.609-1.633 1.133 0 4.879 1.785 11.145 1.785 3.137 0 7.05-0.461 9.914-1.563 1.129-1.102 2.125-2.336 2.977-3.676-1.832 0.742-5.219 1.816-9.625 1.816-8.52 0-16.285-3.645-18.527-4.813-0.598-0.309-2.125-1.195-3.949-1.195" fill="#f9f9f9" fill-rule="evenodd"/>
  </g>
 </g>
</svg>
