<?xml version="1.0" encoding="UTF-8"?>
<svg width="64" height="64" version="1.1" viewBox="0 0 16.933 16.933" xmlns="http://www.w3.org/2000/svg" xmlns:cc="http://creativecommons.org/ns#" xmlns:dc="http://purl.org/dc/elements/1.1/" xmlns:rdf="http://www.w3.org/1999/02/22-rdf-syntax-ns#" xmlns:xlink="http://www.w3.org/1999/xlink">
 <defs>
  <linearGradient id="linearGradient1220" x1="-96.816" x2="-50.084" y1="8.5708" y2="55.303" gradientTransform="matrix(.26458 0 0 .26458 38.821 6.8414)" gradientUnits="userSpaceOnUse">
   <stop stop-color="#0c35f9" offset="0"/>
   <stop stop-color="#2acbd7" offset="1"/>
  </linearGradient>
  <linearGradient id="linearGradient2256" x1="5.5791" x2="42.421" y1="1026.4" y2="1026.4" gradientTransform="matrix(.15518 0 0 .15518 9.9285 -138.91)" gradientUnits="userSpaceOnUse" xlink:href="#linearGradient5309-0"/>
  <linearGradient id="linearGradient5309-0" x1="332.87" x2="1204.8" y1="498.29" y2="498.29" gradientTransform="translate(-78.615)" gradientUnits="userSpaceOnUse">
   <stop stop-color="#232220" offset="0"/>
   <stop stop-color="#4c4b4b" offset="1"/>
  </linearGradient>
 </defs>
 <metadata>
  <rdf:RDF>
   <cc:Work rdf:about="">
    <dc:format>image/svg+xml</dc:format>
    <dc:type rdf:resource="http://purl.org/dc/dcmitype/StillImage"/>
    <dc:title/>
   </cc:Work>
  </rdf:RDF>
 </metadata>
 <g transform="translate(-10.905 -6.8414)">
  <path d="m15.535 8.032c-1.9055 0-3.4396 1.5341-3.4396 3.4396v7.6729c0 1.9055 1.5341 3.4396 3.4396 3.4396h7.6734c1.9055 0 3.4396-1.5341 3.4396-3.4396v-7.6729c0-1.9055-1.5341-3.4396-3.4396-3.4396z" fill="url(#linearGradient1220)" stroke-linecap="round" stroke-width="1.2298"/>
  <g fill="#eaeaea" stroke-width="1.0516">
   <path d="m14.275 8.2713c-0.04449 0.017438-0.08874 0.035049-0.13229 0.05426v13.965c0.04355 0.01921 0.0878 0.03682 0.13229 0.05426z"/>
   <path d="m24.468 8.2713v14.074c0.04449-0.01744 0.08874-0.03505 0.13229-0.05426v-13.965c-0.04355-0.019211-0.0878-0.036823-0.13229-0.05426z"/>
   <path d="m12.334 20.404c0.01744 0.04449 0.03505 0.08874 0.05426 0.13229h13.965c0.01921-0.04355 0.03682-0.0878 0.05426-0.13229z"/>
   <path d="m12.389 10.079c-0.01921 0.04355-0.03682 0.0878-0.05426 0.13229h14.074c-0.01744-0.04449-0.03505-0.08874-0.05426-0.13229z"/>
  </g>
  <circle cx="19.371" cy="15.308" r="3.6222" fill="#f0f0f0" stroke="#323232" stroke-width=".16393"/>
  <rect transform="rotate(-18.022)" x="11.596" y="19.702" width="4.1144" height="1.1751" fill="url(#linearGradient2256)" stroke-width=".15518"/>
  <rect transform="rotate(-18.022)" x="10.794" y="20.943" width="5.7173" height=".073919" fill="url(#linearGradient2256)" stroke-width=".15518"/>
 </g>
</svg>
