<?xml version="1.0" encoding="UTF-8"?>
<svg width="64" height="64" version="1.1" xmlns="http://www.w3.org/2000/svg" xmlns:cc="http://creativecommons.org/ns#" xmlns:dc="http://purl.org/dc/elements/1.1/" xmlns:rdf="http://www.w3.org/1999/02/22-rdf-syntax-ns#" xmlns:xlink="http://www.w3.org/1999/xlink">
 <metadata>
  <rdf:RDF>
   <cc:Work rdf:about="">
    <dc:format>image/svg+xml</dc:format>
    <dc:type rdf:resource="http://purl.org/dc/dcmitype/StillImage"/>
    <dc:title/>
   </cc:Work>
  </rdf:RDF>
 </metadata>
 <defs>
  <linearGradient id="c" x1="32" x2="32" y1="11" y2="53" gradientTransform="translate(-1.0175e-5 -.033043)" gradientUnits="userSpaceOnUse">
   <stop stop-color="#dcdede" offset="0"/>
   <stop stop-color="#939493" offset="1"/>
  </linearGradient>
  <filter id="f" x="-.06" y="-.06" width="1.12" height="1.12" color-interpolation-filters="sRGB">
   <feGaussianBlur stdDeviation="0.18520833"/>
  </filter>
  <linearGradient id="b" x1="8.4666" x2="8.4666" y1="284.83" y2="292.24" gradientUnits="userSpaceOnUse">
   <stop stop-color="#4c5557" offset="0"/>
   <stop stop-color="#282929" offset="1"/>
  </linearGradient>
  <linearGradient id="linearGradient977" x1="30" x2="30" y1="10" y2="70" gradientTransform="matrix(1.1023 0 0 1.1023 -3.2445 -3.2717)" gradientUnits="userSpaceOnUse">
   <stop offset="0"/>
   <stop stop-opacity=".35" offset="1"/>
  </linearGradient>
  <linearGradient id="linearGradient2116" x1="31.101" x2="31.101" y1="4.6046" y2="59.409" gradientTransform="translate(0,-8.4e-4)" gradientUnits="userSpaceOnUse">
   <stop stop-color="#21d95c" offset="0"/>
   <stop stop-color="#28953b" offset="1"/>
  </linearGradient>
 </defs>
 <g transform="matrix(3.7796 0 0 3.7796 -151.13 -27.199)" fill="#5e4aa6" stroke-width=".26458">
  <circle cx="-330.35" cy="-328.38" r="0"/>
  <circle cx="-312.11" cy="-326.25" r="0"/>
  <circle cx="-306.02" cy="-333.07" r="0"/>
  <circle cx="-308.84" cy="-326.01" r="0"/>
 </g>
 <rect x="4.5" y="4.4992" width="55" height="55" ry="13" fill="url(#linearGradient2116)" stroke-width="2.124"/>
 <g transform="matrix(3.7796 0 0 3.7796 -155.22 -24.533)" fill="#5e4aa6" stroke-width=".26458">
  <circle cx="-330.35" cy="-328.38" r="0"/>
  <circle cx="-312.11" cy="-326.25" r="0"/>
  <circle cx="-306.02" cy="-333.07" r="0"/>
  <circle cx="-308.84" cy="-326.01" r="0"/>
 </g>
 <path d="m17.5 4.5c-0.68435 0-1.3506 0.067036-2.0059 0.16797v3.2734l4.4102 4.4082v-7.8496h-2.4043zm4.6094 0v10.055l3.8574 3.8594 0.74023-0.74219h-1.291v-13.172h-3.3066zm5.5098 0v12.26l3.498-3.498h-0.18945v-8.7617h-3.3086zm5.5137 0v6.748l3.3066-3.3066v-3.4414h-3.3066zm5.5117 0v4.3535l-11.119 11.119 1.1973 1.1953 13.229-13.227v-3.4414h-3.3066zm5.5117 0v4.3535l-14.812 14.811-0.62109-0.62109-0.62305 0.62109-2.1328-2.1328-2.1328 2.1328-0.62305-0.62109-0.62109 0.62109-14.803-14.801c-2.04 2.2943-3.2871 5.311-3.2871 8.6367v5.9668l0.22461 0.22656h10.568l-8.2305-8.2344a1.6535 1.6535 0 0 1-1.4883-1.6445 1.6535 1.6535 0 0 1 1.6523-1.6523 1.6535 1.6535 0 0 1 1.6543 1.6523 1.6535 1.6535 0 0 1-0.03125 0.31641l9.5625 9.5625h31.424l8.3086-9.498h0.91797c-0.10534-0.4041-0.22706-0.79994-0.36914-1.1875h-0.54883v-1.2812c-0.35827-0.72414-0.78218-1.4076-1.2637-2.0469l-8.2324 9.2656h-3.5605l9.4961-10.687v-0.94336c-1.4247-1.1306-3.0941-1.9601-4.918-2.4141v3.9531l-14.811 14.811-1.5586-1.5586 14.166-14.166v-3.3906c-0.31926-0.023266-0.63749-0.048828-0.96289-0.048828h-2.3438zm-30.865 0.70312c-1.1911 0.40532-2.3009 0.97507-3.3066 1.6875v1.0508l13.227 13.227 1.1973-1.1953-2.2988-2.3008h-2.2051v-2.2031l-6.6133-6.6133v-3.6523zm-0.25391 32.734-8.5371 6.8301v1.7324c0 0.7337 0.075704 1.4466 0.19141 2.1465l3.5957-2.3984v2.373l-3.0918 2.0625c1.2602 3.7267 4.1542 6.6757 7.8418 8.0176v-8.8906l7.1211-5.9375h3.5605l-7.1211 5.9375v9.6426c0.29957 0.020454 0.59741 0.046875 0.90234 0.046875h3.5059v-2.2871l14.812-14.809 0.62109 0.62109 0.62305-0.62109 2.1328 2.1309 2.1328-2.1309 0.62305 0.62109 0.62109-0.62109 13.209 13.207c0.397-0.40433 0.76002-0.83939 1.1016-1.293l-10.357-10.357 1.5605-1.5566 9.9961 9.9961c0.89112-1.752 1.4035-3.729 1.4141-5.834l-4.9121-6.2539h-2.373l-2.375-2.375h-14.279l0.25976 0.25977-13.738 13.738a1.6535 1.6535 0 0 1 0.029297 0.31641 1.6535 1.6535 0 0 1-1.6523 1.6543 1.6535 1.6535 0 0 1-1.6543-1.6543 1.6535 1.6535 0 0 1 1.4883-1.6445l12.67-12.67h-19.922zm23.402 6.9609-13.229 13.227v1.375h3.3066v-2.2852l6.6152-6.6152v-2.2031h2.2031l2.2988-2.3008-1.1953-1.1973zm5.5098 0-1.1953 1.1973 11.117 11.119v1.1211c0.78897-0.35697 1.5319-0.79064 2.2266-1.291l-12.148-12.146zm-2.7539 2.7559-3.8594 3.8574v7.9883h3.3066v-11.105h1.293l-0.74024-0.74023zm1.6523 1.6543v10.191h3.3086v-6.6973h0.18945l-3.498-3.4941zm-7.7148 4.4102-4.4102 4.4062v1.375h4.4102v-5.7812zm13.227 1.0996v4.6816h0.14062c1.0947 0 2.1516-0.14986 3.166-0.40234v-0.97266l-3.3066-3.3066z" fill="url(#linearGradient977)" opacity=".2" stroke-width=".91664"/>
 <g transform="matrix(1.0131 0 0 1.0131 -86.367 -.37628)">
  <g transform="matrix(3.7796 0 0 3.7796 84.834 -1058.6)">
   <g transform="translate(0 -.0088674)">
    <path transform="matrix(.26458 0 0 .26458 2.692e-6 280.08)" d="m20 13-0.5 2h-0.5v3.9668h-4v0.5332l-2 0.5 2 0.5v0.4668h4v2h-4v0.5332l-2 0.5 2 0.5v0.4668h4v2h-4v0.5332l-2 0.5 2 0.5v0.4668h4v2h-4v0.5332l-2 0.5 2 0.5v0.4668h4v2h-4v0.5332l-2 0.5 2 0.5v0.4668h4v2h-4v0.5332l-2 0.5 2 0.5v0.4668h4v2h-4v0.5332l-2 0.5 2 0.5v0.4668h4v4.0332h0.5l0.5 2 0.5-2h0.5v-4.0332h2v4.0332h0.5l0.5 2 0.5-2h0.5v-4.0332h2v4.0332h0.5l0.5 2 0.5-2h0.5v-4.0332h2v4.0332h0.5l0.5 2 0.5-2h0.5v-4.0332h2v4.0332h0.5l0.5 2 0.5-2h0.5v-4.0332h2v4.0332h0.5l0.5 2 0.5-2h0.5v-4.0332h2v4.0332h0.5l0.5 2 0.5-2h0.5v-4.0332h4v-0.4668l2-0.5-2-0.5v-0.5332h-4v-2h4v-0.4668l2-0.5-2-0.5v-0.5332h-4v-2h4v-0.4668l2-0.5-2-0.5v-0.5332h-4v-2h4v-0.4668l2-0.5-2-0.5v-0.5332h-4v-2h4v-0.4668l2-0.5-2-0.5v-0.5332h-4v-2h4v-0.4668l2-0.5-2-0.5v-0.5332h-4v-2h4v-0.4668l2-0.5-2-0.5v-0.5332h-4v-3.9668h-0.5l-0.5-2-0.5 2h-0.5v3.9668h-2v-3.9668h-0.5l-0.5-2-0.5 2h-0.5v3.9668h-2v-3.9668h-0.5l-0.5-2-0.5 2h-0.5v3.9668h-2v-3.9668h-0.5l-0.5-2-0.5 2h-0.5v3.9668h-2v-3.9668h-0.5l-0.5-2-0.5 2h-0.5v3.9668h-2v-3.9668h-0.5l-0.5-2-0.5 2h-0.5v3.9668h-2v-3.9668h-0.5zm1 7.9668h2v2h-2zm4 0h2v2h-2zm4 0h2v2h-2zm4 0h2v2h-2zm4 0h2v2h-2zm4 0h2v2h-2zm-20 4h2v2h-2zm4 0h2v2h-2zm4 0h2v2h-2zm4 0h2v2h-2zm4 0h2v2h-2zm4 0h2v2h-2zm-20 4h2v2h-2zm4 0h2v2h-2zm4 0h2v2h-2zm4 0h2v2h-2zm4 0h2v2h-2zm4 0h2v2h-2zm-20 4h2v2h-2zm4 0h2v2h-2zm4 0h2v2h-2zm4 0h2v2h-2zm4 0h2v2h-2zm4 0h2v2h-2zm-20 4h2v2h-2zm4 0h2v2h-2zm4 0h2v2h-2zm4 0h2v2h-2zm4 0h2v2h-2zm4 0h2v2h-2zm-20 4h2v2h-2zm4 0h2v2h-2zm4 0h2v2h-2zm4 0h2v2h-2zm4 0h2v2h-2zm4 0h2v2h-2z" fill="url(#c)"/>
    <path d="m5.2917 284.83h6.35c0.29316 0 0.52917 0.236 0.52917 0.52915v6.35c0 0.29315-0.23601 0.52915-0.52917 0.52915h-6.35c-0.29316 0-0.52917-0.236-0.52917-0.52915v-6.35c0-0.29315 0.23601-0.52915 0.52917-0.52915z" fill-rule="evenodd" filter="url(#f)" opacity=".5"/>
    <path d="m5.2917 284.83h6.35c0.29316 0 0.52917 0.236 0.52917 0.52915v6.35c0 0.29315-0.23601 0.52915-0.52917 0.52915h-6.35c-0.29316 0-0.52917-0.236-0.52917-0.52915v-6.35c0-0.29315 0.23601-0.52915 0.52917-0.52915z" fill="url(#b)" fill-rule="evenodd"/>
   </g>
   <g fill-rule="evenodd">
    <path d="m5.5563 285.49a0.13229 0.13229 0 0 1-0.13229 0.13229 0.13229 0.13229 0 0 1-0.13229-0.13229 0.13229 0.13229 0 0 1 0.13229-0.13229 0.13229 0.13229 0 0 1 0.13229 0.13229" opacity=".35" style="paint-order:stroke fill markers"/>
    <path d="m11.641 285.49a0.13229 0.13229 0 0 1-0.13229 0.13229 0.13229 0.13229 0 0 1-0.13229-0.13229 0.13229 0.13229 0 0 1 0.13229-0.13229 0.13229 0.13229 0 0 1 0.13229 0.13229" opacity=".35" style="paint-order:stroke fill markers"/>
    <path d="m5.5563 291.58a0.13229 0.13229 0 0 1-0.13229 0.13229 0.13229 0.13229 0 0 1-0.13229-0.13229 0.13229 0.13229 0 0 1 0.13229-0.13229 0.13229 0.13229 0 0 1 0.13229 0.13229" opacity=".35" style="paint-order:stroke fill markers"/>
    <path d="m11.641 291.58a0.13229 0.13229 0 0 1-0.13229 0.13229 0.13229 0.13229 0 0 1-0.13229-0.13229 0.13229 0.13229 0 0 1 0.13229-0.13229 0.13229 0.13229 0 0 1 0.13229 0.13229" opacity=".35" style="paint-order:stroke fill markers"/>
   </g>
  </g>
  <path d="m119.53 25.756c-2.7223 0.03489-5.7618 0.79114-8.211 2.2305v0.36523c5.5911-2.7764 13.524-2.7587 14.246 1.2188 0.20672 1.1197-0.3197 2.2736-1.3242 3.0801v-4.1992h-1.1094v4.666c0 0.39152 0.15271 0.73907 0.53711 0.93751v0.02344c7e-3 -0.0023 0.0129-0.0074 0.0195-0.0098 0.14972 0.07304 0.327 0.12791 0.55273 0.14844v-0.39844c1.4432-0.77326 2.7142-2.4819 2.2812-4.5293-0.51797-2.4287-3.492-3.5781-6.9922-3.5332zm-9.6231 2.8359v0.99415h1.1094v-0.99415zm6.4824 0.44336v4.0469c0 0.58222 0.37915 1.1738 1.2793 1.1738h0.65039v-0.8672h-0.44726c-0.26231 0-0.38477-0.13101-0.38477-0.36914v-2.0234h0.83204v-0.83985h-0.83204v-1.1211h-1.0977zm-7.1993 0.28906c-1.6206 1.3723-2.5005 3.1087-1.9922 5.1582 0.64822 2.63 4.1025 4.1187 9.3771 3.623 2.0884-0.19395 4.8222-0.84457 6.7188-1.8516v-1.4297c-1.7237 0.99304-4.5754 1.8139-6.9512 2.0254-3.8634 0.34393-7.8896-0.19726-8.4532-3.1133-0.27993-1.4357 0.40174-2.9605 1.3008-3.9062v-0.50586zm11.447 0.76173c-1.1586 0-2.0391 0.76356-2.0391 2.1152 0 1.5806 1.0089 2.123 2.0625 2.123 0.80739 0 1.2632-0.24593 1.6992-0.6504l-0.67774-0.61328c-0.28259 0.26256-0.5251 0.39062-1.0137 0.39062-0.62172 0-0.97657-0.39059-0.97657-0.92189h2.793v-0.375c0-1.1741-0.6729-2.0684-1.8477-2.0684zm-10.73 0.07031v3.0469c0 0.54823 0.27778 1.026 1.1094 1.1016v-4.1484h-1.1094zm2.0898 0v4.1035h1.0996v-3.2656l0.91212 2e-3c0.32288 0 0.45508 0.14871 0.45508 0.39258v2.8711h1.1035v-2.875c0-0.58421-0.33206-1.2285-1.2969-1.2285h-2.2734zm8.5919 0.78906c0.56522 0 0.77849 0.4288 0.80275 0.87696h-1.6992c0.012-0.18348 0.0367-0.29797 0.10938-0.44727 0.12116-0.2477 0.41176-0.42969 0.78712-0.42969z" fill="#fff" opacity=".5"/>
 </g>
</svg>
