<?xml version="1.0" encoding="UTF-8"?>
<svg width="64" height="64" version="1.1" viewBox="0 0 16.933 16.933" xmlns="http://www.w3.org/2000/svg" xmlns:cc="http://creativecommons.org/ns#" xmlns:dc="http://purl.org/dc/elements/1.1/" xmlns:rdf="http://www.w3.org/1999/02/22-rdf-syntax-ns#">
 <defs>
  <linearGradient id="linearGradient1448-3" x1="3.9687" x2="3.9687" y1="16.401" y2=".54085" gradientTransform="matrix(.91668 0 0 .91668 12.886 9.3422)" gradientUnits="userSpaceOnUse">
   <stop stop-color="#55b4ff" offset="0"/>
   <stop stop-color="#3c8cff" offset="1"/>
  </linearGradient>
  <linearGradient id="linearGradient885" x1="5.9587" x2="16.556" y1="1.0462" y2="11.644" gradientTransform="matrix(.75001 0 0 .75001 12.12 12.382)" gradientUnits="userSpaceOnUse">
   <stop stop-color="#ffcd00" offset="0"/>
   <stop stop-color="#e16405" offset="1"/>
  </linearGradient>
  <filter id="filter1012" x="-.048061" y="-.076366" width="1.0961" height="1.1527" color-interpolation-filters="sRGB">
   <feGaussianBlur stdDeviation="0.18772996"/>
  </filter>
  <linearGradient id="linearGradient992" x1="13.152" x2="20.621" y1="9.126" y2="9.126" gradientTransform="matrix(.90485 0 0 .90485 8.9088 11.73)" gradientUnits="userSpaceOnUse">
   <stop stop-color="#fafafa" offset="0"/>
   <stop stop-color="#d4d4d4" offset="1"/>
  </linearGradient>
 </defs>
 <metadata>
  <rdf:RDF>
   <cc:Work rdf:about="">
    <dc:format>image/svg+xml</dc:format>
    <dc:type rdf:resource="http://purl.org/dc/dcmitype/StillImage"/>
    <dc:title/>
   </cc:Work>
  </rdf:RDF>
 </metadata>
 <g transform="translate(-12.18 -8.6368)">
  <rect x="13.371" y="9.8273" width="14.552" height="14.552" ry="3.4396" fill="url(#linearGradient1448-3)" stroke-opacity=".95294" stroke-width=".083154"/>
  <path d="m26.6 17.103c0 0.71366-0.12562 1.3978-0.35599 2.032-0.16012 0.44077-0.37079 0.85749-0.62545 1.2429-0.10666 0.16206-0.22136 0.31857-0.3431 0.46897-0.38975 0.48135-0.85292 0.90054-1.3728 1.2407-0.19148 0.12538-0.39049 0.24008-0.59652 0.34285-0.80012 0.40042-1.7033 0.62566-2.6593 0.62566-0.95589 0-1.8591-0.22524-2.6593-0.62567-0.20605-0.10279-0.40531-0.21748-0.59678-0.34285-0.52655-0.3448-0.99527-0.77056-1.3881-1.2598-0.12197-0.15162-0.23642-0.30957-0.3431-0.47309-0.24784-0.37905-0.45316-0.78804-0.61012-1.2202-0.23032-0.63396-0.35573-1.3179-0.35573-2.0313 0-3.2879 2.6654-5.9531 5.9531-5.9531 1.6504 0 3.1438 0.67161 4.2221 1.7562 0.31077 0.31247 0.58706 0.65947 0.82224 1.0346 0.22234 0.35331 0.40821 0.73186 0.55278 1.1301 0.23038 0.63419 0.35601 1.3184 0.35601 2.032z" fill="url(#linearGradient885)" stroke-width=".023254"/>
  <path transform="matrix(.75222 0 0 .87402 10.457 12.102)" d="m15.187 6.176a2.296 2.3606 0 0 1 2.0957 1.4016 2.296 2.3606 0 0 1 0.9664-0.22286 2.296 2.3606 0 0 1 2.296 2.3606 2.296 2.3606 0 0 1-2.296 2.3606 2.296 2.3606 0 0 1-7.47e-4 0h-5.3574a1.721 1.7695 0 0 1-1.7205-1.7697 1.721 1.7695 0 0 1 1.7205-1.7689 2.296 2.3606 0 0 0 0-7.6e-4 2.296 2.3606 0 0 1 0-1e-3 2.296 2.3606 0 0 1 2.296-2.3591z" fill-rule="evenodd" filter="url(#filter1012)" opacity=".3"/>
  <path d="m22.719 17.318a2.0775 2.1359 0 0 1 1.8963 1.2682 2.0775 2.1359 0 0 1 0.87445-0.20165 2.0775 2.1359 0 0 1 2.0775 2.1359 2.0775 2.1359 0 0 1-2.0775 2.1359 2.0775 2.1359 0 0 1-6.76e-4 0h-4.8476a1.5572 1.6011 0 0 1-1.5568-1.6013 1.5572 1.6011 0 0 1 1.5568-1.6006 2.0775 2.1359 0 0 0 0-6.87e-4 2.0775 2.1359 0 0 1 0-9.05e-4 2.0775 2.1359 0 0 1 2.0775-2.1346z" fill="url(#linearGradient992)" fill-rule="evenodd" stroke-width=".90485"/>
 </g>
</svg>
