<?xml version="1.0" encoding="UTF-8"?>
<svg width="64" height="64" version="1.1" viewBox="0 0 16.933 16.933" xmlns="http://www.w3.org/2000/svg" xmlns:cc="http://creativecommons.org/ns#" xmlns:dc="http://purl.org/dc/elements/1.1/" xmlns:rdf="http://www.w3.org/1999/02/22-rdf-syntax-ns#">
 <metadata>
  <rdf:RDF>
   <cc:Work rdf:about="">
    <dc:format>image/svg+xml</dc:format>
    <dc:type rdf:resource="http://purl.org/dc/dcmitype/StillImage"/>
   </cc:Work>
  </rdf:RDF>
 </metadata>
 <defs>
  <linearGradient id="linearGradient1353" x1="30.901" x2="30.901" y1="1.2898" y2="15.843" gradientTransform="translate(-.23864 1.3639)" gradientUnits="userSpaceOnUse">
   <stop stop-color="#4d4d4d" offset="0"/>
   <stop stop-color="#1a1a1a" offset="1"/>
  </linearGradient>
  <filter id="c-6" x="-.035763" y="-.03624" width="1.0715" height="1.0725" color-interpolation-filters="sRGB">
   <feGaussianBlur stdDeviation="7.629403"/>
  </filter>
  <linearGradient id="b-3" x1="101.53" x2="101.53" y1="18.888" y2="183.55" gradientTransform="matrix(.059421 0 0 .059421 24.941 3.8385)" gradientUnits="userSpaceOnUse">
   <stop stop-color="#fff" offset="0"/>
   <stop stop-color="#d7d7d7" offset="1"/>
  </linearGradient>
 </defs>
 <g fill="#5e4aa6" stroke-width=".26458">
  <circle cx="-330.38" cy="-328.37" r="0"/>
  <circle cx="-312.55" cy="-328.38" r="0"/>
  <circle cx="-295.13" cy="-341.25" r="0"/>
 </g>
 <g transform="translate(-22.382 -1.4964)">
  <rect x="23.573" y="2.6869" width="14.552" height="14.552" rx="3.44" ry="3.4395" fill="url(#linearGradient1353)" image-rendering="optimizeSpeed" stroke-linecap="round" stroke-width=".52916"/>
  <path transform="matrix(.018511 0 0 .018511 21.332 .068302)" d="m509.85 281.89c-15.833-0.0321-31.572 5.7249-42.935 17.354l-188.99 193.41c-63.868 79.093 43.469 69.91 89.481 92.691 16.505 16.871-63.252 29.26-46.747 46.145 16.505 16.871 99.732 32.484 116.26 49.355 16.505 16.871-33.759 34.791-17.254 51.662s54.646 0.87683 61.794 39.825c5.0937 27.832 68.861 11.961 100.01-10.834 16.505-16.885-31.552-15.23-15.047-32.101 41.045-41.974 79.25-15.322 93.293-57.38 6.9369-20.783-60.471-31.982-43.938-48.853 47.489-27.734 211.6-45.806 133.72-123.69l-195.91-200.23c-11.981-11.503-27.904-17.323-43.737-17.354zm1.605 18.358c11.304 0.0597 22.584 4.3219 30.696 12.539l74.835 75.938c7.0917 7.2465 6.9774 21.241 3.0094 25.279l-37.116-29.693-7.323 44.038-30.997-16.351-49.756 31.298-16.452-66.107-26.684 46.145h-40.728c-16.632 0-18.623-21.102-3.511-36.214 26.397-28.494 56.667-57.504 73.129-74.333 8.2737-8.4566 19.593-12.599 30.897-12.539zm-89.782 295.53c5.0515 3.1378 81.442 18.673 100.11 21.768 6.4726 1.3649 1.8989 8.0367-7.022 12.539-20.121 5.347-117.72-34.308-93.092-34.308zm297.13 53.167c-15.372 0.52941-30.53 8.3472-34.709 23.072 0 9.5964 70.622 15.945 70.622-2.2069-5.0374-14.577-20.54-21.395-35.913-20.865zm-324.22 41.53c-22.159-0.20544-48.105 16.047-28.991 32.602 16.744 14.479 42.605-3.6691 50.358-23.875-4.5629-6.0628-12.696-8.647-21.367-8.7274zm280.58 1.3041c-21.585 19.362 2.3991 38.992 23.674 26.483 4.7419-4.8122-0.10561-21.671-23.674-26.483z" filter="url(#c-6)" image-rendering="optimizeSpeed" opacity=".2" stroke-width="50.345"/>
  <path d="m30.769 5.1012c-0.29308-5.939e-4 -0.58444 0.10597-0.79476 0.32126l-3.4985 3.5802c-1.1823 1.4641 0.80465 1.2941 1.6564 1.7159 0.30553 0.3123-1.1709 0.54163-0.86533 0.8542 0.30553 0.3123 1.8461 0.60132 2.1521 0.91361 0.30553 0.3123-0.62492 0.64403-0.3194 0.95633 0.30553 0.3123 1.0116 0.01623 1.1439 0.7372 0.09429 0.51521 1.2747 0.2214 1.8513-0.20055 0.30553-0.31255-0.58407-0.28192-0.27854-0.59421 0.75978-0.77698 1.467-0.28364 1.727-1.0622 0.12841-0.3847-1.1194-0.59202-0.81334-0.90434 0.87908-0.51339 3.9171-0.8479 2.4753-2.2896l-3.6266-3.7065c-0.22179-0.21293-0.51653-0.32067-0.80963-0.32126zm0.02971 0.33981c0.20926 0.00111 0.41806 0.080004 0.56822 0.23211l1.3853 1.4057c0.13128 0.13414 0.12916 0.39319 0.05571 0.46794l-0.68707-0.54966-0.13556 0.81519-0.5738-0.30268-0.92104 0.57937-0.30454-1.2237-0.49394 0.8542h-0.75392c-0.30788 0-0.34474-0.39061-0.06499-0.67035 0.48864-0.52744 1.049-1.0645 1.3537-1.376 0.15316-0.15654 0.36269-0.23323 0.57193-0.23211zm-1.6619 5.4704c0.09351 0.05808 1.5076 0.34565 1.8532 0.40296 0.11981 0.02527 0.03515 0.14877-0.12999 0.23211-0.37247 0.09898-2.1791-0.63507-1.7233-0.63507zm5.5003 0.98418c-0.28456 0.0098-0.56515 0.15452-0.6425 0.4271 0 0.17764 1.3073 0.29516 1.3073-0.04085-0.09325-0.26984-0.38022-0.39604-0.66478-0.38624zm-6.0017 0.76877c-0.41019-0.0038-0.89048 0.29705-0.53665 0.60351 0.30995 0.26801 0.78866-0.06792 0.93219-0.44194-0.08447-0.11223-0.23502-0.16006-0.39554-0.16155zm5.1938 0.02414c-0.39955 0.3584 0.04441 0.72178 0.43823 0.49023 0.08778-0.08908-2e-3 -0.40115-0.43823-0.49023z" fill="url(#b-3)" image-rendering="optimizeSpeed" stroke-width=".93193"/>
 </g>
</svg>
