<?xml version="1.0" encoding="UTF-8"?>
<svg width="64" height="64" version="1.1" viewBox="0 0 16.933 16.933" xmlns="http://www.w3.org/2000/svg" xmlns:cc="http://creativecommons.org/ns#" xmlns:dc="http://purl.org/dc/elements/1.1/" xmlns:rdf="http://www.w3.org/1999/02/22-rdf-syntax-ns#">
 <metadata>
  <rdf:RDF>
   <cc:Work rdf:about="">
    <dc:format>image/svg+xml</dc:format>
    <dc:type rdf:resource="http://purl.org/dc/dcmitype/StillImage"/>
   </cc:Work>
  </rdf:RDF>
 </metadata>
 <defs>
  <linearGradient id="linearGradient1448-5" x1="13.411" x2="8.8851" y1="9.2773" y2=".80008" gradientTransform="matrix(.91666 0 0 .91666 22.759 4.4824)" gradientUnits="userSpaceOnUse">
   <stop stop-color="#053c91" offset="0"/>
   <stop stop-color="#0564cd" offset="1"/>
  </linearGradient>
  <linearGradient id="linearGradient6402" x1="1.1944" x2="15.745" y1="6.0035" y2="6.0035" gradientTransform="matrix(1 0 0 1 22.054 3.845)" gradientUnits="userSpaceOnUse">
   <stop stop-color="#006bbf" offset="0"/>
   <stop stop-color="#0c4e92" offset="1"/>
  </linearGradient>
  <linearGradient id="linearGradient6466" x1="8.5141" x2="12.883" y1="1.5134" y2="9.4677" gradientTransform="matrix(1 0 0 1 22.051 4.0462)" gradientUnits="userSpaceOnUse">
   <stop stop-color="#0564cd" offset="0"/>
   <stop stop-color="#053c91" offset="1"/>
  </linearGradient>
  <linearGradient id="linearGradient6406" x1="-2.4438" x2="-1.9926" y1="20.897" y2="13.978" gradientTransform="matrix(1.1117 0 0 1.1117 40.014 -4.534)" gradientUnits="userSpaceOnUse">
   <stop stop-color="#24a5e6" offset="0"/>
   <stop stop-color="#38ccf6" offset="1"/>
  </linearGradient>
  <linearGradient id="linearGradient6408" x1="16.187" x2="83.235" y1="91.738" y2="125.94" gradientTransform="matrix(.16836 .00016324 -.0001624 .16925 20.538 -2.6293)" gradientUnits="userSpaceOnUse">
   <stop stop-color="#30c8f1" offset="0"/>
   <stop stop-color="#1283e2" offset="1"/>
  </linearGradient>
  <linearGradient id="linearGradient6410" x1="97.368" x2="99.202" y1="101.32" y2="97.035" gradientTransform="matrix(.16628 .026375 -.026375 .16628 20.53 -2.5225)" gradientUnits="userSpaceOnUse">
   <stop offset="0"/>
   <stop stop-opacity="0" offset="1"/>
  </linearGradient>
 </defs>
 <g fill="#5e4aa6" stroke-width=".26458">
  <circle cx="-330.38" cy="-328.37" r="0"/>
  <circle cx="-312.55" cy="-328.38" r="0"/>
  <circle cx="-295.13" cy="-341.25" r="0"/>
 </g>
 <g transform="translate(-22.262 -3.777)">
  <rect x="23.244" y="4.9675" width="14.552" height="14.552" ry="3.4395" fill="url(#linearGradient1448-5)" stroke-opacity=".95294" stroke-width=".083152"/>
  <path d="m23.244 9.8438v6.2362c0 0.54837 0.13017 1.0643 0.35657 1.5234h13.839c0.22639-0.45912 0.35658-0.97503 0.35658-1.5234v-6.2362h-14.552z" fill="url(#linearGradient6402)"/>
  <path d="m30.509 5.1009a0.76186 0.50797 0 0 0-0.07545 0.00362 0.76186 0.50797 0 0 0-0.07493 0.00775 0.76186 0.50797 0 0 0-0.07338 0.013952 0.76186 0.50797 0 0 0-0.07183 0.01757 0.76186 0.50797 0 0 0-0.06821 0.023254 0.76186 0.50797 0 0 0-0.06408 0.026871 0.76186 0.50797 0 0 0-0.05943 0.031522 0.76186 0.50797 0 0 0-0.04031 0.024288l-6.737 4.4926v0.59584c0.27148 0.12554 0.58602 0.19844 0.925 0.19844h12.702c0.33895 0 0.65351-0.07289 0.925-0.19844v-0.59584l-6.737-4.4926a0.76186 0.50797 0 0 0-0.05633-0.034107 0.76186 0.50797 0 0 0-0.06201-0.029972 0.76186 0.50797 0 0 0-0.06459-0.025838 0.76186 0.50797 0 0 0-0.06925-0.021704 0.76186 0.50797 0 0 0-0.07183-0.016536 0.76186 0.50797 0 0 0-0.07493-0.011885 0.76186 0.50797 0 0 0-0.07493-0.00723 0.76186 0.50797 0 0 0-0.07648-0.00155z" fill="url(#linearGradient6466)" stroke-width=".26458"/>
  <rect x="23.906" y="9.842" width="13.229" height="6.6145" ry=".52916" fill="#f0f0f0"/>
  <path d="m37.796 10.13-13.545 8.3853c0.6216 0.62092 1.4808 1.0041 2.4329 1.0041h7.6728c1.9055 0 3.4395-1.534 3.4395-3.4395v-5.9499z" fill="url(#linearGradient6406)" stroke-width="1.1117" style="paint-order:fill markers stroke"/>
  <path d="m23.244 10.119v5.9607c0 1.9055 1.534 3.4395 3.4395 3.4395h7.6728c0.95196 0 1.8113-0.38277 2.4329-1.0036l-13.545-8.3967z" fill="url(#linearGradient6408)" stroke-width="1.1117" style="paint-order:fill markers stroke"/>
  <path d="m32.746 13.311-2.1197 1.3045-0.04325 0.06273 7.1987 4.4509 0.03267-0.0046c0.24759-0.27236 0.39939-0.63325 0.39942-1.032l-3e-6 -1.0451z" fill="url(#linearGradient6410)" opacity=".05" stroke-width="1.1117"/>
 </g>
</svg>
