<?xml version="1.0" encoding="UTF-8"?>
<svg width="64" height="64" version="1.1" viewBox="0 0 16.933 16.933" xmlns="http://www.w3.org/2000/svg" xmlns:cc="http://creativecommons.org/ns#" xmlns:dc="http://purl.org/dc/elements/1.1/" xmlns:rdf="http://www.w3.org/1999/02/22-rdf-syntax-ns#">
 <metadata>
  <rdf:RDF>
   <cc:Work rdf:about="">
    <dc:format>image/svg+xml</dc:format>
    <dc:type rdf:resource="http://purl.org/dc/dcmitype/StillImage"/>
    <dc:title/>
   </cc:Work>
  </rdf:RDF>
 </metadata>
 <defs>
  <linearGradient id="linearGradient1448" x1="14.473" x2="3.9687" y1="14.747" y2=".54085" gradientTransform="matrix(.91666 0 0 .91666 .7055 .7054)" gradientUnits="userSpaceOnUse">
   <stop stop-color="#0a78c8" offset="0"/>
   <stop stop-color="#28c3fa" offset="1"/>
  </linearGradient>
 </defs>
 <rect x="1.1905" y="1.1905" width="14.552" height="14.552" ry="3.4395" fill="url(#linearGradient1448)" stroke-opacity=".95294" stroke-width=".083152"/>
 <g transform="translate(0 1.2916)">
  <path d="m11.523 4.9921a2.1828 2.1828 0 0 0-2.1828 2.1828 2.1828 2.1828 0 0 0 2.1828 2.1828h4.2198v-4.3655z" fill="#fdfdfd" stroke-linecap="round" stroke-opacity=".99608" stroke-width=".79373" style="paint-order:stroke fill markers"/>
  <path d="m11.522 7.1749m-1.0186 0a1.0186 1.0186 0 1 0 2.0373 0 1.0186 1.0186 0 1 0-2.0373 0z" fill="#199de1" stroke-width=".014211" p-id="3968"/>
 </g>
 <path d="m4.5956 10.148-0.74051 0.06304-0.02791 2.9739 0.73276-0.10128 0.01188-1.2681 0.9715 1.4159 0.77358-0.23202-0.99527-1.3622 1.0283-1.2666-0.78547-0.18293-0.98907 1.2671zm-1.6836 0.7095-5.29e-4 5.29e-4c-0.0084 5.82e-4 -0.01739 0.0025-0.02377 0.0088l-0.29352 0.28111c-0.01233 0.01186-0.01365 0.03043-0.0052 0.04496l0.33434 0.55034c-0.06129 0.09844-0.11119 0.2045-0.14676 0.31677l-0.62579 0.12092c-0.01741 0.0034-0.03033 0.01932-0.03049 0.03669l-0.0036 0.40099c-1.62e-4 0.01694 0.01316 0.03146 0.02997 0.03566l0.60357 0.14882c0.03114 0.13064 0.0801 0.2558 0.14521 0.37l-0.35604 0.5183c-0.0099 0.01451-0.0079 0.03413 0.0052 0.04651l0.28835 0.28628c0.01216 0.01201 0.03066 0.01349 0.04547 0.0052l0.55344-0.32039c0.10731 0.06178 0.22348 0.11166 0.34623 0.14521l0.12247 0.60254c0.0032 0.01704 0.01839 0.02981 0.03617 0.02997l0.41082 0.0036c0.0173 1.57e-4 0.03236-0.01092 0.03669-0.02739l0.15761-0.60357c0.12723-0.03223 0.24735-0.08057 0.35863-0.14314l0.53846 0.35191c0.01487 0.0096 0.03478 0.0079 0.04754-0.0047l0.29197-0.28111c0.01238-0.01187 0.01588-0.02998 0.0072-0.04444l-0.19482-0.31935-0.06459 0.01912c-0.0094 0.0028-0.01981-0.0014-0.02532-0.0093-5e-6 1e-6 -0.12304-0.18026-0.2837-0.41444-0.19834 0.3702-0.59817 0.62064-1.0557 0.61649-0.65017-0.0059-1.1729-0.52514-1.1668-1.1596 0.0043-0.46672 0.29463-0.86513 0.70589-1.0413l0.0026-0.2961c-0.07478 0.02476-0.14722 0.05468-0.216 0.09043-1.25e-4 -7.9e-5 1.19e-4 -0.0016 0-0.0016l-0.55138-0.35966c-0.0074-5e-3 -0.01534-0.0058-0.02377-0.0052z" fill="#fdfdfd" stroke-linecap="round" stroke-opacity=".99608" stroke-width=".79373" style="paint-order:stroke fill markers"/>
</svg>
