<?xml version="1.0" encoding="UTF-8"?>
<svg width="64" height="64" version="1.1" viewBox="0 0 64 64" xmlns="http://www.w3.org/2000/svg">
 <defs>
  <linearGradient id="linearGradient2213" x1="5.0641" x2="59.447" y1="58.858" y2="5.0418" gradientTransform="matrix(1 0 0 1 .0003781 -4.882e-7)" gradientUnits="userSpaceOnUse">
   <stop stop-color="#5564ff" offset="0"/>
   <stop stop-color="#7841ff" offset="1"/>
  </linearGradient>
 </defs>
 <path d="m17.5 4.5c-7.202 0-13 5.7979-13 13v29c0 7.202 5.7979 13 13 13h29c7.202 0 13-5.7979 13-13v-29c0-7.202-5.7979-13-13-13z" fill="url(#linearGradient2213)" stroke-linecap="round" stroke-linejoin="round" style="paint-order:stroke fill markers"/>
 <path d="m24.452 16c-1.3637 0-2.4615 1.0978-2.4615 2.4615v27.077c0 1.3637 1.0978 2.4615 2.4615 2.4615 1.3637 0 2.4615-1.0978 2.4615-2.4615v-8.3077c1.2308 0.66156 2.3689 0.92311 3.6923 0.92308 2.3156-5.7e-5 4.5335-0.80742 6.1538-2.4615 1.6203 1.6542 3.8383 2.4614 6.1538 2.4615 1.3595 6.5e-5 2.4615-1.1021 2.4615-2.4615 0-1.3595-1.1021-2.4617-2.4615-2.4615-2.015 1.73e-4 -3.6923-1.6775-3.6923-3.6923v-11.077c0-1.3637-1.0978-2.4615-2.4615-2.4615s-2.4615 1.0978-2.4615 2.4615v11.077c0 2.0393-1.653 3.6923-3.6923 3.6923-2.0393 0-3.6923-1.653-3.6923-3.6923v-11.077c0-1.3637-1.0978-2.4615-2.4615-2.4615z" fill="#f0f0f4" stroke-width="1.2308"/>
</svg>
