<?xml version="1.0" encoding="UTF-8"?>
<svg width="64" height="64" version="1.1" viewBox="0 0 16.933 16.933" xmlns="http://www.w3.org/2000/svg" xmlns:cc="http://creativecommons.org/ns#" xmlns:dc="http://purl.org/dc/elements/1.1/" xmlns:rdf="http://www.w3.org/1999/02/22-rdf-syntax-ns#" xmlns:xlink="http://www.w3.org/1999/xlink">
 <metadata>
  <rdf:RDF>
   <cc:Work rdf:about="">
    <dc:format>image/svg+xml</dc:format>
    <dc:type rdf:resource="http://purl.org/dc/dcmitype/StillImage"/>
   </cc:Work>
  </rdf:RDF>
 </metadata>
 <defs>
  <linearGradient id="linearGradient890-5" x1="29.794" x2="29.794" y1="18.047" y2="45.675" gradientTransform="matrix(.27635 0 0 .27635 -.41439 -.29743)" gradientUnits="userSpaceOnUse">
   <stop stop-color="#63686e" offset="0"/>
   <stop stop-color="#222426" offset="1"/>
  </linearGradient>
  <linearGradient id="linearGradient1115" x1="-29.448" x2="-29.448" y1="4.6371" y2="59.494" gradientTransform="matrix(.26458 0 0 .26458 16.852 -.00012606)" gradientUnits="userSpaceOnUse">
   <stop stop-color="#fff" offset="0"/>
   <stop stop-color="#e6e6e6" offset="1"/>
  </linearGradient>
 </defs>
 <rect x="1.1905" y="1.1905" width="14.552" height="14.552" ry="3.4396" fill="url(#linearGradient1115)" image-rendering="optimizeSpeed" stroke-width=".12512"/>
 <path d="m4.0655 12.734v-0.31849q0.64757-0.07431 0.83866-0.21232 0.28663-0.21232 0.28663-0.80683v-6.0404q-0.49895-0.60512-0.74313-0.78558-0.18047-0.12739-0.33972-0.12739v-0.31849h2.6859l4.4163 5.4355 0.03185-3.8537q0-0.65821-0.2017-0.92359-0.25479-0.33972-0.98729-0.33972v-0.31849h2.739v0.31849q-0.64757 0.074313-0.82805 0.28663-0.15924 0.22294-0.15924 0.73252v7.5056h-0.36094l-5.669-6.9109-0.021232 5.0956q0 0.69004 0.23355 0.94484 0.24417 0.24417 0.97667 0.31849v0.31849z" fill="url(#linearGradient890-5)" stroke-width=".27177"/>
</svg>
