<?xml version="1.0" encoding="UTF-8"?>
<svg width="64" height="64" version="1.1" viewBox="0 0 16.933 16.933" xmlns="http://www.w3.org/2000/svg" xmlns:cc="http://creativecommons.org/ns#" xmlns:dc="http://purl.org/dc/elements/1.1/" xmlns:rdf="http://www.w3.org/1999/02/22-rdf-syntax-ns#">
 <defs>
  <linearGradient id="linearGradient2116-6" x1="25.774" x2="25.774" y1="5.455" y2="59.284" gradientTransform="matrix(.26459 0 0 .26459 -.00010197 -.00010052)" gradientUnits="userSpaceOnUse">
   <stop stop-color="#f2f8fe" offset="0"/>
   <stop stop-color="#d2e0f1" offset="1"/>
  </linearGradient>
  <filter id="d-3" x="-.036" y="-.036" width="1.072" height="1.072" color-interpolation-filters="sRGB">
   <feGaussianBlur stdDeviation="9"/>
  </filter>
  <linearGradient id="a-2" x2="1" gradientTransform="matrix(0 14.352 -14.352 0 -9.4037 4.047)" gradientUnits="userSpaceOnUse">
   <stop stop-color="#ff5a46" offset="0"/>
   <stop stop-color="#ff5a46" stop-opacity=".88235" offset=".3"/>
   <stop stop-color="#7814aa" offset="1"/>
  </linearGradient>
  <linearGradient id="b-1" x2="1" gradientTransform="matrix(0 12.693 -12.693 0 -5.6858 4.8927)" gradientUnits="userSpaceOnUse">
   <stop stop-color="#7814aa" offset="0"/>
   <stop stop-color="#ff5a46" stop-opacity=".88235" offset=".7"/>
   <stop stop-color="#ff5a46" offset="1"/>
  </linearGradient>
 </defs>
 <metadata>
  <rdf:RDF>
   <cc:Work rdf:about="">
    <dc:format>image/svg+xml</dc:format>
    <dc:type rdf:resource="http://purl.org/dc/dcmitype/StillImage"/>
    <dc:title/>
   </cc:Work>
  </rdf:RDF>
 </metadata>
 <rect x="1.1905" y="1.1905" width="14.552" height="14.552" ry="3.4397" fill="url(#linearGradient2116-6)" stroke-width=".56198"/>
 <g transform="matrix(.75 0 0 .75 14.555 .34433)">
  <path transform="matrix(.024681 0 0 .024681 -20.877 -1.3028)" d="m518.75 213.01c-165.67 0-300 134.33-300 300 0 160.9 126.69 292.18 285.73 299.64 4.7761 0.23881 9.4925 0.35821 14.269 0.35821 76.836 0 146.87-28.896 199.94-76.358-35.164 23.343-76.299 36.716-120.24 36.716-71.463 0-135.4-35.463-178.45-91.343-33.194-39.164-54.627-97.015-56.119-161.97v-14.149c1.4925-64.955 22.925-122.87 56.119-161.97 43.045-55.881 107.04-91.343 178.45-91.343 43.94 0 85.075 13.433 120.24 36.776-52.776-47.224-122.45-76.06-198.81-76.358h-1.1343z" fill="#010101" filter="url(#d-3)" opacity=".2" stroke-width="93.632"/>
  <path transform="matrix(.024681 0 0 .024681 -20.877 -1.3028)" d="m420 343.94c27.522-32.478 63.104-52.119 101.91-52.119 87.343 0 158.15 99.045 158.15 221.13 0 122.15-70.806 221.13-158.15 221.13-38.866 0-74.388-19.582-101.91-52.06 43.045 55.881 106.99 91.343 178.45 91.343 43.94 0 85.075-13.433 120.24-36.716 61.433-54.925 100.06-134.75 100.06-223.64 0-88.836-38.627-168.72-100.06-223.64-35.164-23.343-76.299-36.716-120.24-36.716-71.463 0-135.4 35.463-178.45 91.343" fill="#010101" filter="url(#d-3)" opacity=".2" stroke-width="93.632"/>
  <path d="m-8.1689 3.805c-4.0888 0-7.4046 3.3155-7.4046 7.4046 0 3.9711 3.1269 7.2114 7.0523 7.3957 0.11788 0.0059 0.23429 0.0088 0.35218 0.0088 1.8964 0 3.6249-0.7132 4.935-1.8846-0.86788 0.57614-1.8832 0.9062-2.9677 0.9062-1.7638 0-3.3419-0.87528-4.4043-2.2545-0.81927-0.96663-1.3483-2.3945-1.3851-3.9978v-0.34922c0.03684-1.6032 0.5658-3.0326 1.3851-3.9978 1.0624-1.3792 2.6419-2.2545 4.4043-2.2545 1.0845 0 2.0998 0.33154 2.9677 0.90768-1.3026-1.1655-3.0222-1.8772-4.9071-1.8846h-0.027994z" fill="url(#a-2)" stroke-width="2.311"/>
  <path d="m-10.606 7.0368c0.6793-0.80162 1.5575-1.2864 2.5153-1.2864 2.1558 0 3.9034 2.4446 3.9034 5.4579 0 3.0148-1.7476 5.4579-3.9034 5.4579-0.95928 0-1.836-0.48331-2.5153-1.2849 1.0624 1.3792 2.6407 2.2545 4.4043 2.2545 1.0845 0 2.0998-0.33155 2.9677-0.9062 1.5163-1.3556 2.4696-3.3258 2.4696-5.5198 0-2.1926-0.95335-4.1643-2.4696-5.5198-0.86788-0.57614-1.8832-0.90621-2.9677-0.90621-1.7638 0-3.3419 0.87528-4.4043 2.2545" fill="url(#b-1)" stroke-width="2.311"/>
 </g>
</svg>
