<?xml version="1.0" encoding="UTF-8"?>
<svg width="64" height="64" version="1.1" viewBox="0 0 16.933 16.933" xmlns="http://www.w3.org/2000/svg" xmlns:cc="http://creativecommons.org/ns#" xmlns:dc="http://purl.org/dc/elements/1.1/" xmlns:rdf="http://www.w3.org/1999/02/22-rdf-syntax-ns#">
 <defs>
  <linearGradient id="linearGradient2116-6" x1="25.774" x2="25.774" y1="5.455" y2="59.284" gradientTransform="matrix(.26459 0 0 .26459 -.00010197 -.00010052)" gradientUnits="userSpaceOnUse">
   <stop stop-color="#f2f8fe" offset="0"/>
   <stop stop-color="#d2e0f1" offset="1"/>
  </linearGradient>
  <filter id="d" x="-.036" y="-.036" width="1.072" height="1.072" color-interpolation-filters="sRGB">
   <feGaussianBlur stdDeviation="9"/>
  </filter>
  <linearGradient id="b" x1="443.88" x2="443.88" y1="220.06" y2="820.06" gradientTransform="matrix(.024681 0 0 .024681 -24.433 -4.6618)" gradientUnits="userSpaceOnUse">
   <stop stop-color="#4bd2f5" offset="0"/>
   <stop stop-color="#4bd2f5" stop-opacity=".88235" offset=".16667"/>
   <stop stop-color="#5587ff" offset="1"/>
  </linearGradient>
  <linearGradient id="a" x1="643.88" x2="643.88" y1="260.06" y2="780.06" gradientTransform="matrix(.024681 0 0 .024681 -24.433 -4.6618)" gradientUnits="userSpaceOnUse">
   <stop stop-color="#5587ff" offset="0"/>
   <stop stop-color="#4bd2f5" stop-opacity=".88235" offset=".74547"/>
   <stop stop-color="#4bd2f5" offset="1"/>
  </linearGradient>
 </defs>
 <metadata>
  <rdf:RDF>
   <cc:Work rdf:about="">
    <dc:format>image/svg+xml</dc:format>
    <dc:type rdf:resource="http://purl.org/dc/dcmitype/StillImage"/>
    <dc:title/>
   </cc:Work>
  </rdf:RDF>
 </metadata>
 <rect x="1.1905" y="1.1905" width="14.552" height="14.552" ry="3.4397" fill="url(#linearGradient2116-6)" stroke-width=".56198"/>
 <g transform="matrix(.75 0 0 .75 17.148 2.7332)">
  <path transform="matrix(.024681 0 0 .024681 -24.334 -4.488)" d="m518.75 213.01c-165.67 0-300 134.33-300 300 0 160.9 126.69 292.18 285.73 299.64 4.7761 0.23881 9.4925 0.35821 14.269 0.35821 76.836 0 146.87-28.896 199.94-76.358-35.164 23.343-76.299 36.716-120.24 36.716-71.463 0-135.4-35.463-178.45-91.343-33.194-39.164-54.627-97.015-56.119-161.97v-14.149c1.4925-64.955 22.925-122.87 56.119-161.97 43.045-55.881 107.04-91.343 178.45-91.343 43.94 0 85.075 13.433 120.24 36.776-52.776-47.224-122.45-76.06-198.81-76.358h-1.1343z" fill="#010101" filter="url(#d)" opacity=".2" stroke-width="93.632"/>
  <path transform="matrix(.024681 0 0 .024681 -24.334 -4.488)" d="m420 343.94c27.522-32.478 63.104-52.119 101.91-52.119 87.343 0 158.15 99.045 158.15 221.13 0 122.15-70.806 221.13-158.15 221.13-38.866 0-74.388-19.582-101.91-52.06 43.045 55.881 106.99 91.343 178.45 91.343 43.94 0 85.075-13.433 120.24-36.716 61.433-54.925 100.06-134.75 100.06-223.64 0-88.836-38.627-168.72-100.06-223.64-35.164-23.343-76.299-36.716-120.24-36.716-71.463 0-135.4 35.463-178.45 91.343" fill="#010101" filter="url(#d)" opacity=".2" stroke-width="93.632"/>
  <path d="m-11.626 0.61997c-4.0888 0-7.4046 3.3154-7.4046 7.4046 0 3.9711 3.1269 7.2114 7.0523 7.3957 0.11788 0.0059 0.23429 0.0088 0.35218 0.0088 1.8964 0 3.6249-0.7132 4.935-1.8846-0.86788 0.57614-1.8832 0.9062-2.9677 0.9062-1.7638 0-3.3419-0.87528-4.4043-2.2545-0.81927-0.96663-1.3483-2.3945-1.3851-3.9978v-0.34918c0.03684-1.6032 0.5658-3.0326 1.3851-3.9978 1.0624-1.3792 2.6419-2.2545 4.4043-2.2545 1.0845 0 2.0998 0.33155 2.9677 0.90768-1.3026-1.1656-3.0222-1.8772-4.9071-1.8846h-0.02799z" fill="url(#b)" stroke-width="2.311"/>
  <path d="m-14.063 3.8514c0.6793-0.80162 1.5575-1.2864 2.5153-1.2864 2.1558 0 3.9034 2.4446 3.9034 5.4579 0 3.0148-1.7476 5.4579-3.9034 5.4579-0.95928 0-1.836-0.48331-2.5153-1.2849 1.0624 1.3792 2.6407 2.2545 4.4043 2.2545 1.0845 0 2.0998-0.33155 2.9677-0.90621 1.5163-1.3556 2.4696-3.3258 2.4696-5.5198 0-2.1926-0.95335-4.1643-2.4696-5.5198-0.86788-0.57614-1.8832-0.90621-2.9677-0.90621-1.7638 0-3.3419 0.87528-4.4043 2.2545" fill="url(#a)" stroke-width="2.311"/>
 </g>
</svg>
