<?xml version="1.0" encoding="UTF-8"?>
<svg width="64" height="64" version="1.1" xmlns="http://www.w3.org/2000/svg" xmlns:cc="http://creativecommons.org/ns#" xmlns:dc="http://purl.org/dc/elements/1.1/" xmlns:rdf="http://www.w3.org/1999/02/22-rdf-syntax-ns#">
 <metadata>
  <rdf:RDF>
   <cc:Work rdf:about="">
    <dc:format>image/svg+xml</dc:format>
    <dc:type rdf:resource="http://purl.org/dc/dcmitype/StillImage"/>
   </cc:Work>
  </rdf:RDF>
 </metadata>
 <defs>
  <linearGradient id="linearGradient1448-3" x1="3.9687" x2="3.9687" y1="16.385" y2=".54085" gradientTransform="matrix(3.4646 0 0 3.4646 -82.121 9.673)" gradientUnits="userSpaceOnUse">
   <stop stop-color="#cfdef0" offset="0"/>
   <stop stop-color="#f5faff" offset="1"/>
  </linearGradient>
 </defs>
 <g transform="translate(84.788 -7.0067)">
  <rect x="-80.288" y="11.506" width="55.001" height="55.001" ry="13" fill="url(#linearGradient1448-3)" stroke-opacity=".95294" stroke-width=".31428"/>
  <path d="m-62.303 58.708c-0.24197-0.20739-0.67976-0.61063-0.9678-0.89868-0.78347-0.77195-3.1454-3.9289-3.5717-4.7929-0.19586-0.3687-0.4263-0.81806-0.58762-1.083-0.04611-0.09218-0.12673-0.2535-0.16131-0.34564-0.04611-0.09219-0.19586-0.4263-0.33412-0.74889-0.13826-0.31106-0.40325-1.0369-0.57609-1.613-0.1728-0.56456-0.35717-1.1291-0.41477-1.2328-0.05764-0.1152-0.10367-0.32259-0.10367-0.47238 0-0.14978-0.04611-0.3111-0.09219-0.3687-0.14978-0.17284-0.57609-1.4172-0.77195-2.2467-0.3687-1.613-0.16131-5.0809 0.47238-8.0075 0.51849-2.3389 1.1522-3.952 2.6039-6.5788 1.0024-1.8089 0.94479-2.5463-0.29957-3.9289-1.06-1.1752-2.3619-1.8089-4.4475-2.1546-0.59914-0.10368-1.1406-0.24196-1.1982-0.29956-0.06913-0.06914-0.03439-0.26501 0.1152-0.5415 0.28804-0.56456 0.9678-0.89868 2.5117-1.2213 1.0715-0.23044 1.4978-0.25349 5.4268-0.25349 4.7468 0 4.4588 0.03458 7.374-0.89868 0.88715-0.28804 2.1546-0.65674 2.8228-0.82955 0.66827-0.17282 1.7052-0.46085 2.3043-0.63369 1.6706-0.49543 2.65-0.62216 4.6663-0.62216 2.1661 0.01157 4.1938 0.25349 6.0833 0.7374 1.6706 0.4263 2.4311 0.71434 4.6315 1.8204 1.9471 0.9678 2.5232 1.3365 3.2837 2.0854 0.86413 0.86413 0.8526 0.84108 0.58761 1.4632-0.3111 0.67976-0.82955 1.325-2.0969 2.5809-1.1061 1.0946-1.7743 1.5324-3.3528 2.2122-0.58762 0.25349-1.2098 0.58761-1.3826 0.74889-0.46088 0.43783-0.63369 1.1637-0.71434 2.8574-0.08066 1.6937-0.21892 2.3389-0.74889 3.3758-0.39172 0.78347-0.4839 0.81802-1.3365 0.58762-1.4287-0.39172-2.5924-2.2467-2.5924-4.1364 0-0.44936 0.04611-0.80653 0.10367-0.80653 0.21892 0 5.1501-2.3965 6.6366-3.226 2.4656-1.3711 4.0903-2.673 4.2744-3.4104 0.17284-0.67976-0.58761-0.94479-2.7191-0.95628-1.2098-0.01156-1.5093 0.09219-2.6961 0.84108-0.71434 0.46088-0.8526 0.4839-1.8895 0.18435-0.41477-0.12673-0.62216-0.11521-1.2558 0.04609-0.41477 0.10368-1.0369 0.31108-1.3711 0.46088-0.53001 0.24196-0.62216 0.33412-0.69129 0.69129-0.0344 0.23044-0.01172 0.64522 0.0576 0.93326 0.19586 0.77195 0.16131 1.1061-0.23044 2.2122-0.70282 1.9932-1.7628 3.7561-3.1569 5.231-1.7167 1.8319-3.1915 2.8689-4.0442 2.8689-0.53001-0.01157-0.7374-0.14978-1.0369-0.69129-0.3226-0.58762-0.28804-3.0071 0.05762-4.8969 0.13825-0.76042 0.28804-1.613 0.3226-1.8895l0.06914-0.50696-0.39172 0.08066c-0.64522 0.12673-1.7859 0.71434-2.9035 1.4978-0.58761 0.40325-1.7628 1.1982-2.6154 1.7743-1.6245 1.083-2.9265 2.2928-3.2146 3.0071-0.23044 0.5415-0.06913 0.64522 1.06 0.63369 0.78347-0.01156 1.1752-0.09216 2.3619-0.4839 3.3528-1.1406 2.9611-0.38023-1.59 3.0302-2.9265 2.2006-3.9172 3.1224-4.4936 4.2056-0.34564 0.65674-0.39172 0.8526-0.39172 1.5554 0.01172 0.76042 0.18433 1.4748 0.57609 2.3389l0.18433 0.38023 1.7974-0.06913c0.99086-0.03439 2.2467-0.02306 2.7882 0.02306 0.86413 0.08062 0.97933 0.1152 1.0139 0.32259 0.02317 0.13826-0.10368 0.3687-0.3226 0.57609-0.18435 0.18433-0.34565 0.40325-0.34565 0.4839 0 0.08062-0.04609 0.14979-0.10368 0.14979-0.05762 0-0.13825 0.14979-0.18435 0.33412-0.10368 0.47237-0.67976 1.2328-1.083 1.4517-0.19587 0.09218-0.53001 0.1728-0.7374 0.1728-0.40324 0-0.40324 0-0.3111 0.40325 0.04611 0.23044 0.16131 0.49543 0.24197 0.59914 0.12673 0.13826 0.14979 0.72587 0.12673 2.6154-0.03439 3.0648-0.09215 3.6409-0.3687 3.6409-0.1152 0-0.40324-0.1728-0.65674-0.3687zm21.349-34.138c0.3111-0.1613 0.71434-0.41477 0.9102-0.57609l0.33412-0.27652-0.33412-0.36869c-1.3134-1.3826-4.8621-1.5093-6.7976-0.25349l-0.46088 0.31108 0.57609 0.24196c0.56456 0.25349 1.6476 0.5415 3.4565 0.92173 0.50696 0.10371 0.97933 0.20739 1.0369 0.23044 0.32259 0.10368 0.76042 0.02317 1.2789-0.23044z" stroke-width=".041886" p-id="3574"/>
 </g>
</svg>
