<?xml version="1.0" encoding="UTF-8"?>
<svg width="64" height="64" version="1.1" xmlns="http://www.w3.org/2000/svg" xmlns:cc="http://creativecommons.org/ns#" xmlns:dc="http://purl.org/dc/elements/1.1/" xmlns:rdf="http://www.w3.org/1999/02/22-rdf-syntax-ns#" xmlns:xlink="http://www.w3.org/1999/xlink">
 <metadata>
  <rdf:RDF>
   <cc:Work rdf:about="">
    <dc:format>image/svg+xml</dc:format>
    <dc:type rdf:resource="http://purl.org/dc/dcmitype/StillImage"/>
   </cc:Work>
  </rdf:RDF>
 </metadata>
 <defs>
  <linearGradient id="linearGradient1448-36" x1="3.0741" x2="13.955" y1="3.0286" y2="13.91" gradientTransform="matrix(3.4646 0 0 3.4646 82.081 31.629)" gradientUnits="userSpaceOnUse">
   <stop stop-color="#fa904f" offset="0"/>
   <stop stop-color="#8c62c2" offset="1"/>
  </linearGradient>
  <linearGradient id="linearGradient1038" x1="32" x2="32" y1="-252" y2="-239.94" gradientTransform="matrix(.83332 0 0 .83332 98.915 248.6)" gradientUnits="userSpaceOnUse" xlink:href="#linearGradient1119"/>
  <linearGradient id="linearGradient1119">
   <stop stop-color="#aa4664" offset="0"/>
   <stop stop-color="#b44b64" offset="1"/>
  </linearGradient>
  <linearGradient id="linearGradient1040" x1="32" x2="32" y1="-252" y2="-239.94" gradientTransform="matrix(.83332 0 0 .83332 68.082 248.6)" gradientUnits="userSpaceOnUse" xlink:href="#linearGradient1119"/>
  <linearGradient id="linearGradient1042" x1="32" x2="32" y1="-252" y2="-239.94" gradientTransform="matrix(.83332 0 0 .83332 78.36 248.6)" gradientUnits="userSpaceOnUse" xlink:href="#linearGradient1119"/>
  <linearGradient id="linearGradient1044" x1="32" x2="32" y1="-252" y2="-239.94" gradientTransform="matrix(.83332 0 0 .83332 88.637 248.6)" gradientUnits="userSpaceOnUse" xlink:href="#linearGradient1119"/>
  <linearGradient id="linearGradient1063" x1="18.821" x2="31.3" y1="-81.858" y2="-72.986" gradientTransform="matrix(2.8347 0 0 2.6416 39.314 270.84)" gradientUnits="userSpaceOnUse">
   <stop stop-color="#464b4b" offset="0"/>
   <stop stop-color="#1e1e1e" offset="1"/>
  </linearGradient>
  <filter id="filter1068-7" x="-.10118" y="-.071807" width="1.2024" height="1.1436" color-interpolation-filters="sRGB">
   <feGaussianBlur stdDeviation="0.22308744"/>
  </filter>
  <linearGradient id="linearGradient1065" x1="8.7997" x2="14.091" y1="-42.898" y2="-42.898" gradientTransform="matrix(2.3997 0 0 2.3997 84.994 170.55)" gradientUnits="userSpaceOnUse">
   <stop stop-color="#ebebeb" offset="0"/>
   <stop stop-color="#fff" offset="1"/>
  </linearGradient>
 </defs>
 <g transform="translate(-79.414 -28.963)">
  <rect x="83.914" y="33.462" width="55.001" height="55.001" ry="13" fill="url(#linearGradient1448-36)" stroke-opacity=".95294" stroke-width=".31428"/>
  <g stroke-width="3.1496">
   <path d="m122.25 38.604 3.3333 5-3.3333 5h5.8331l3.3333-5-3.3333-5z" fill="url(#linearGradient1038)"/>
   <path d="m91.415 38.604 3.3333 5-3.3333 5h5.8331l3.3333-5-3.3333-5z" fill="url(#linearGradient1040)"/>
   <path d="m101.69 38.604 3.3332 5-3.3332 5h5.8331l3.3333-5-3.3333-5z" fill="url(#linearGradient1042)"/>
   <path d="m111.97 38.604 3.3333 5-3.3333 5h5.8331l3.3333-5-3.3333-5z" fill="url(#linearGradient1044)"/>
  </g>
  <rect x="88.914" y="51.515" width="45" height="32.151" ry="7.9601" fill="url(#linearGradient1063)" stroke-width="2.7364"/>
  <path transform="matrix(2.3997 0 0 2.3455 84.994 168.43)" d="m13.493-43.218-4.3699-3.3114a0.46291 0.42023 0 0 0-0.75917 0.32778v6.606a0.46291 0.42023 0 0 0 0.75917 0.32778l4.3699-3.3114a0.46291 0.42023 0 0 0 0.05554-0.58832z" filter="url(#filter1068-7)" opacity=".5" stroke-width=".0049274" p-id="47316"/>
  <path d="m118.42 66.85-10.486-7.9463a1.1108 1.0084 0 0 0-1.8218 0.78656v15.852a1.1108 1.0084 0 0 0 1.8218 0.78657l10.486-7.9463a1.1108 1.0084 0 0 0 0.13327-1.4118z" fill="url(#linearGradient1065)" stroke-width=".011824" p-id="47316"/>
 </g>
</svg>
