<?xml version="1.0" encoding="UTF-8"?>
<svg width="64" height="64" version="1.1" viewBox="0 0 16.933 16.933" xmlns="http://www.w3.org/2000/svg" xmlns:cc="http://creativecommons.org/ns#" xmlns:dc="http://purl.org/dc/elements/1.1/" xmlns:rdf="http://www.w3.org/1999/02/22-rdf-syntax-ns#" xmlns:xlink="http://www.w3.org/1999/xlink">
 <metadata>
  <rdf:RDF>
   <cc:Work rdf:about="">
    <dc:format>image/svg+xml</dc:format>
    <dc:type rdf:resource="http://purl.org/dc/dcmitype/StillImage"/>
   </cc:Work>
  </rdf:RDF>
 </metadata>
 <defs>
  <linearGradient id="linearGradient1021" x1="15.548" x2="15.548" y1="10.778" y2="27.489" gradientTransform="matrix(.5 0 0 .5 -.047676 .047677)" gradientUnits="userSpaceOnUse">
   <stop stop-color="#fff" offset="0"/>
   <stop stop-color="#b0cef9" offset="1"/>
  </linearGradient>
  <linearGradient id="linearGradient2200" x1="11.469" x2="55.385" y1="10.516" y2="54.431" gradientTransform="matrix(.26458 0 0 .26458 1.1667e-6 2.6667e-7)" gradientUnits="userSpaceOnUse">
   <stop stop-color="#1283e2" offset="0"/>
   <stop stop-color="#399cef" offset="1"/>
  </linearGradient>
 </defs>
 <path d="m4.6302 1.1906c-1.9055 0-3.4396 1.5341-3.4396 3.4396v7.6729c0 1.9055 1.5341 3.4396 3.4396 3.4396h7.6729c1.9055 0 3.4396-1.5341 3.4396-3.4396v-7.6729c0-1.9055-1.5341-3.4396-3.4396-3.4396z" fill="url(#linearGradient2200)" stroke-linecap="round" stroke-linejoin="round" stroke-width=".26458" style="paint-order:stroke fill markers"/>
 <path d="m8.3713 5.2432a3.3188 3.3188 0 0 0-3.3188 3.3188s-0.057042-0.21264-0.057042-0.50646c0-0.35246 0.073194-0.87674 0.2783-1.2389-1.2479 0.16306-2.2125 1.2272-2.2125 2.5198 0 1.4052 1.1392 2.5444 2.5444 2.5444h6.3057c0.9775 0 1.77-0.79253 1.77-1.77 0-0.50003-0.20825-0.95073-0.5419-1.2722-0.19603 0.4237-0.66506 0.60845-0.79383 0.60845h-0.0026c0.40494-0.25406 0.67456-0.70345 0.67456-1.2169 0-0.7943-0.64385-1.4381-1.4381-1.4381-0.04669 0-0.06505-0.00445-0.11063 0 0.20555 0.36219 0.2783 0.91089 0.2783 1.2636 0 0.29382-0.05704 0.50646-0.05704 0.50646a3.3188 3.3188 0 0 0-3.3188-3.3188zm0 0.66376c1.464 0 2.655 1.191 2.655 2.655 0 1.464-1.191 2.655-2.655 2.655-1.464 0-2.655-1.191-2.655-2.655 0-1.464 1.191-2.655 2.655-2.655zm0 0.44251c-1.22 0-2.2125 0.99254-2.2125 2.2125 0 1.22 0.99254 2.2125 2.2125 2.2125 0.07625 0 0.15172-0.0037 0.22601-0.01123 0.59429-0.06054 1.1195-0.35743 1.4805-0.7947 0.31589-0.38261 0.50603-0.87286 0.50603-1.4066 0-1.22-0.99254-2.2125-2.2125-2.2125zm-0.77439 0.88501h1.1063c0.54893 0 0.99564 0.44671 0.99564 0.99564 0 0.11689-0.02375 0.22759-0.060932 0.33188-1.065e-4 3.04e-4 -3.305e-4 5.5e-4 -4.365e-4 8.5e-4 -0.01567 0.04382-0.034855 0.085824-0.056178 0.12662-0.00415 0.00789-0.00861 0.015565-0.012965 0.023335-0.021735 0.039015-0.04562 0.076764-0.072167 0.11236-0.0037 0.0049-0.00788 0.00942-0.01167 0.01426-0.04612 0.059526-0.099623 0.11262-0.15773 0.16032-0.01701 0.013815-0.03265 0.02923-0.05056 0.041915-0.022235 0.015925-0.04646 0.02871-0.070006 0.04278-0.026955 0.01594-0.054037 0.03155-0.082538 0.04494-0.0235 0.011145-0.047695 0.02095-0.072167 0.03025-0.03474 0.01307-0.07029 0.02411-0.10674 0.033275-0.019525 0.00495-0.0388 0.010495-0.05877 0.01426-0.059391 0.011095-0.12024 0.01858-0.18279 0.01858h-0.77438v0.55313c0 0.1832-0.14846 0.33188-0.33188 0.33188-0.18342 0-0.33188-0.14868-0.33188-0.33188v-2.2125c0-0.1832 0.14846-0.33188 0.33188-0.33188zm0.33188 0.66376v0.66376h0.77439c0.18298 0 0.33188-0.1489 0.33188-0.33188 0-0.18298-0.1489-0.33188-0.33188-0.33188z" fill="url(#linearGradient1021)" stroke-width=".22125"/>
</svg>
