<?xml version="1.0" encoding="UTF-8"?>
<svg width="64" height="64" version="1.1" xmlns="http://www.w3.org/2000/svg" xmlns:cc="http://creativecommons.org/ns#" xmlns:dc="http://purl.org/dc/elements/1.1/" xmlns:rdf="http://www.w3.org/1999/02/22-rdf-syntax-ns#" xmlns:xlink="http://www.w3.org/1999/xlink">
 <metadata>
  <rdf:RDF>
   <cc:Work rdf:about="">
    <dc:format>image/svg+xml</dc:format>
    <dc:type rdf:resource="http://purl.org/dc/dcmitype/StillImage"/>
   </cc:Work>
  </rdf:RDF>
 </metadata>
 <defs>
  <linearGradient id="linearGradient2116" x1="59.5" x2="4.5" y1="4.5" y2="59.5" gradientTransform="translate(69.137 47.882)" gradientUnits="userSpaceOnUse">
   <stop stop-color="#ff8c55" offset="0"/>
   <stop stop-color="#ff5a1e" offset="1"/>
  </linearGradient>
 </defs>
 <g transform="translate(-69.137 -47.882)">
  <rect x="73.637" y="52.382" width="55" height="55" ry="13" fill="url(#linearGradient2116)" stroke-width="2.124"/>
  <path d="m114.13 62.598c-1.029 0.04339-2.0443 0.45161-2.8414 1.2141-1.7502 1.681-1.8194 4.454-0.13854 6.2042l-0.0165-0.03523c1.317 1.3516 3.3624 1.6983 5.0606 0.86652l-3.0152-2.9988c-0.104-0.1213-0.104-0.29435 0-0.41565l3.8817-3.8629c-0.85774-0.69311-1.9018-1.0155-2.9307-0.97219zm3.3463 1.3691-3.6915 3.6915 2.8931 2.8954c0.2426-0.15595 0.45191-0.34714 0.65986-0.53776 1.6809-1.6633 1.7327-4.3337 0.13855-6.0492zm-0.1456 2.2285c0.0714 0.013 0.13515 0.05207 0.17847 0.11272 0.3119 0.58914 0.22657 1.2986-0.20664 1.8011-0.0519 0.06931-0.15523 0.12211-0.24187 0.12211-0.0693 0.01734-0.15612 0.01734-0.22544 0l-0.0188-0.01879c-0.12127-0.1213-0.10255-0.32957 0.0188-0.45087 0.25993-0.29458 0.29303-0.7266 0.11975-1.0732 0-0.01734-0.0165-0.01789-0.0165-0.03523-0.0692-0.15595 0.0178-0.34633 0.17378-0.41565 0.0692-0.04333 0.14691-0.05527 0.21839-0.04227zm-8.7122 3.0269c-1.8607-0.15029-4.9199 1.8801-12.822 9.7689l2.2872 2.2872 10.711-10.708c0.38112-0.38123 0.88353-0.58852 1.4207-0.60586-0.48946-0.39856-0.97654-0.69197-1.5968-0.74206zm1.6321 1.4043c-0.38123 0-0.7645 0.14148-1.0591 0.42739l-10.673 10.607 1.4372 1.5076 11.281-9.9474c0.31192-0.27726 0.4852-0.65963 0.50252-1.0755 0.0173-0.39855-0.13749-0.79737-0.43207-1.092-0.2946-0.28592-0.67551-0.42739-1.0567-0.42739zm1.6626 2.6817c-0.0864 0.12069-0.19233 0.22368-0.29589 0.30998l-11.279 9.9286 2.0101 2.0101c4.6614-4.4523 9.2007-9.0256 9.5646-12.249zm-16.532 6.0304-2.825 2.825-0.0517 0.0681c-0.05194 0.05199-0.06901 0.10446-0.0517 0.17377 0.01731 0.10398 0.12146 0.17232 0.22544 0.15499l4.8351-1.0379zm2.7381 2.825-1.6109 1.6109c-0.03463 0.05198-0.03463 0.12179 0 0.17377 0.05194 0.03468 0.10304 0.03468 0.15498 0l2.6512-0.67631zm1.6978 1.6462-4.3843 0.93462-9.0456 9.062 2.9471 3.034c0.08669 0.08664 0.24122 0.08664 0.3452 0 0.104-0.06931 0.1732-0.20892 0.13854-0.34755l-0.48374-2.0782c-0.05194-0.24259 0.06829-0.48692 0.29354-0.60821h0.01876v-0.03287c4.4011-2.0967 8.5245-4.75 12.267-7.8691zm-13.897 10.431-2.2708 2.2872c-0.01731 0.05199-0.01731 0.1209 0 0.19021 0.01731 0.05199 0.08801 0.10477 0.15734 0.12211l5.0606 0.32876z" fill="#fcfcfc" stroke-width="1.2023"/>
 </g>
</svg>
