<?xml version="1.0" encoding="UTF-8"?>
<svg width="64" height="64" version="1.1" xmlns="http://www.w3.org/2000/svg" xmlns:cc="http://creativecommons.org/ns#" xmlns:dc="http://purl.org/dc/elements/1.1/" xmlns:rdf="http://www.w3.org/1999/02/22-rdf-syntax-ns#" xmlns:xlink="http://www.w3.org/1999/xlink">
 <metadata>
  <rdf:RDF>
   <cc:Work rdf:about="">
    <dc:format>image/svg+xml</dc:format>
    <dc:type rdf:resource="http://purl.org/dc/dcmitype/StillImage"/>
   </cc:Work>
  </rdf:RDF>
 </metadata>
 <defs>
  <linearGradient id="linearGradient2578" x1="9.1106" x2="16.391" y1="-5.6208" y2="4.0199" gradientTransform="matrix(3.4646 0 0 3.4646 68.533 40.971)" gradientUnits="userSpaceOnUse">
   <stop stop-color="#ffdc1e" offset="0"/>
   <stop stop-color="#f0a019" offset="1"/>
  </linearGradient>
  <linearGradient id="linearGradient2531" x1="-109.09" x2="-101.26" y1="11.122" y2="18.44" gradientTransform="matrix(5.9639 0 0 5.9639 712.16 7.2149)" gradientUnits="userSpaceOnUse">
   <stop stop-color="#64d2eb" offset="0"/>
   <stop stop-color="#0082dc" offset="1"/>
  </linearGradient>
  <linearGradient id="linearGradient2533" x1="-107.04" x2="-99.66" y1="6.9531" y2="17.895" gradientTransform="matrix(5.9639 0 0 5.9639 712.16 7.2139)" gradientUnits="userSpaceOnUse">
   <stop stop-color="#a578e1" offset="0"/>
   <stop stop-color="#5046a0" offset="1"/>
  </linearGradient>
  <linearGradient id="linearGradient2535" x1="-105" x2="-97.017" y1="4.2921" y2="13.799" gradientTransform="matrix(5.9639 0 0 5.9639 712.16 7.2159)" gradientUnits="userSpaceOnUse">
   <stop stop-color="#eb82aa" offset="0"/>
   <stop stop-color="#dc2850" offset="1"/>
  </linearGradient>
 </defs>
 <g transform="translate(-65.867 -38.306)">
  <path d="m83.367 42.805c-7.202 0-13 5.7979-13 13v29c0 7.202 5.7979 13 13 13h29c7.202 0 13-5.7979 13-13v-29c0-0.30579-0.0242-0.60587-0.0449-0.90627-8e-3 -0.10811-6e-3 -0.21882-0.0155-0.32617-0.60062-6.4427-5.8648-11.475-12.402-11.74-0.17942-0.0073-0.35585-0.02733-0.53712-0.02733h-29z" fill="url(#linearGradient2578)" stroke-opacity=".95294" stroke-width=".31428"/>
  <g stroke-width="5.964">
   <path d="m70.367 82.02v2.7852c0 7.202 5.798 13 13 13h23.998c-0.35182-0.1842-0.70297-0.369-1.0781-0.55273-2.0037-0.98145-4.3464-1.9578-7.0626-2.916-2.7157-0.95831-5.8055-1.8996-9.3087-2.8223-3.5035-0.92268-6.6191-2.0015-9.3849-3.2168-2.7659-1.2153-5.1817-2.5681-7.2794-4.0293-1.0383-0.72331-1.9979-1.4731-2.8848-2.248z" fill="url(#linearGradient2531)"/>
   <path d="m75.666 45.334c-3.213 2.3624-5.2988 6.1593-5.2988 10.471v26.217c0.88601 0.77401 1.8438 1.5237 2.8809 2.2461 2.0973 1.4611 4.5131 2.814 7.2794 4.0293 2.7658 1.2153 5.8811 2.2941 9.3849 3.2168 3.5036 0.92268 6.5955 1.864 9.3106 2.8223 2.7157 0.95831 5.0564 1.9346 7.0606 2.916 0.37516 0.18376 0.7263 0.36855 1.0781 0.55273h5.0059c7.202 0 13-5.798 13-13v-3.2852c-0.0436-0.0404-0.0809-0.08281-0.12499-0.12306-1.8988-1.7334-4.2346-3.3097-7.0606-4.6992-2.8256-1.3895-6.1409-2.5928-9.9981-3.5762-3.8579-0.9834-7.3006-2.0646-10.361-3.2266-3.0607-1.162-5.7387-2.4042-8.0763-3.7129-2.3376-1.3087-4.333-2.6821-6.0215-4.1055-1.6887-1.4233-3.0716-2.8945-4.1855-4.4004-1.114-1.5058-1.9608-3.049-2.5742-4.6055-0.61333-1.5565-0.99284-3.128-1.1797-4.7031-0.11991-1.0118-0.1504-2.024-0.11914-3.0332z" fill="url(#linearGradient2533)"/>
   <path d="m83.367 42.805c-2.8906 0-5.547 0.94542-7.7013 2.5293-0.03133 1.0096-8.31e-4 2.023 0.11914 3.0352 0.18667 1.5751 0.56647 3.1447 1.1797 4.7012 0.61332 1.5565 1.4603 3.0996 2.5742 4.6055 1.114 1.5058 2.4969 2.9771 4.1855 4.4004 1.6887 1.4233 3.6842 2.7967 6.0215 4.1055 2.3376 1.3087 5.0176 2.5508 8.0782 3.7129 3.0607 1.162 6.5037 2.2432 10.361 3.2266 3.8579 0.9834 7.1708 2.1866 9.9962 3.5762 2.8257 1.3895 5.1613 2.9659 7.0606 4.6992 0.0441 0.04022 0.0814 0.08266 0.12499 0.12306v-25.715c0-0.30579-0.0242-0.60586-0.0449-0.90626-3.2132-0.68638-6.3105-1.3902-9.0156-2.1445-3.3828-0.94334-6.3958-1.933-9.0704-2.959-2.6748-1.026-5.0128-2.0882-7.0508-3.1738-2.0384-1.0856-3.7782-2.1962-5.252-3.3184-0.21735-0.16549-0.41708-0.33214-0.62305-0.49805h-10.943z" fill="url(#linearGradient2535)"/>
  </g>
 </g>
</svg>
