<?xml version="1.0" encoding="UTF-8"?>
<svg id="Apps-Visual-Studio-Code" width="64" height="64" enable-background="new 0 0 1024 1024" image-rendering="optimizeSpeed" version="1.1" viewBox="0 0 64 64" xmlns="http://www.w3.org/2000/svg" xmlns:cc="http://creativecommons.org/ns#" xmlns:dc="http://purl.org/dc/elements/1.1/" xmlns:rdf="http://www.w3.org/1999/02/22-rdf-syntax-ns#">
 <metadata>
  <rdf:RDF>
   <cc:Work rdf:about="">
    <dc:format>image/svg+xml</dc:format>
    <dc:type rdf:resource="http://purl.org/dc/dcmitype/StillImage"/>
   </cc:Work>
  </rdf:RDF>
 </metadata>
 <defs>
  <style type="text/css"/>
  <style type="text/css"/>
  <linearGradient id="linearGradient921" x1="8.2021" x2="8.2021" y1="293.56" y2="291.71" gradientTransform="matrix(12.599 0 0 2.6996 -73.504 -737.53)" gradientUnits="userSpaceOnUse">
   <stop stop-color="#9ea7af" offset="0"/>
   <stop stop-color="#828a91" offset="1"/>
  </linearGradient>
  <linearGradient id="linearGradient61257" x1="8.089" x2="55.716" y1="7.1454" y2="46.857" gradientTransform="matrix(1.1459 0 0 1.1 -4.6667 -.94969)" gradientUnits="userSpaceOnUse">
   <stop stop-color="#555a5f" offset="0"/>
   <stop stop-color="#4b4f53" offset="1"/>
  </linearGradient>
  <linearGradient id="linearGradient1116" x1="8.089" x2="55.716" y1="7.1454" y2="46.857" gradientTransform="matrix(1.0625 0 0 1 -2.0001 1.773)" gradientUnits="userSpaceOnUse">
   <stop stop-color="#0082e5" offset="0"/>
   <stop stop-color="#41b6ff" offset="1"/>
  </linearGradient>
 </defs>
 <path d="m17.5 54h28c0.554 0 0.87963 0.45924 1 1l0.6678 3c0.12037 0.54076-0.446 1-1 1h-29.335c-0.554 0-1.1203-0.45921-1-1l0.6672-3c0.12027-0.54079 0.446-1 1-1z" color="#000000" fill="#bcc5cf" stroke-width="4.3186" style="-inkscape-stroke:none"/>
 <rect x="26.5" y="50" width="10" height="5" ry="0" fill="url(#linearGradient921)" stroke-width="5.832"/>
 <rect x="15.833" y="56.962" width="31.335" height="2.0382" ry="1.0191" fill="#43474b" fill-opacity=".99608" stroke-width="2.7573"/>
 <path d="m17.5 4.9999c-7.202 0-13 5.798-13 13v2c0-7.202 5.798-13 13-13h29c7.202 0 13 5.798 13 13v-2c0-7.202-5.798-13-13-13z" fill="#b8c2cc"/>
 <rect x="4.5" y="6.9999" width="55" height="44" ry="13" fill="url(#linearGradient61257)" stroke-linecap="round" stroke-width="5.0934"/>
 <rect x="6.5" y="8.9999" width="51" height="40" ry="11" fill="url(#linearGradient1116)" stroke-linecap="round" stroke-width="4.6764"/>
 <g transform="translate(-39.176 -2.3985)" fill="#fff" stroke-width="1.0588">
  <circle transform="scale(-1,1)" cx="-71.176" cy="24.018" r="1.5882" opacity=".6"/>
  <circle transform="scale(-1,1)" cx="-71.176" cy="38.842" r="1.5882"/>
  <circle transform="matrix(0,-1,-1,0,0,0)" cx="-31.43" cy="-78.588" r="1.5882" opacity=".4"/>
  <circle transform="matrix(0,-1,-1,0,0,0)" cx="-31.43" cy="-63.765" r="1.5882" opacity=".8"/>
  <circle transform="matrix(.70711 -.70711 -.70711 -.70711 0 0)" cx="28.105" cy="-79.965" r="1.5882" opacity=".3"/>
  <circle transform="matrix(.70711 -.70711 -.70711 -.70711 0 0)" cx="28.105" cy="-65.142" r="1.5882" opacity=".7"/>
  <circle transform="rotate(225)" cx="-72.553" cy="20.693" r="1.5882" opacity=".9"/>
  <circle transform="rotate(225)" cx="-72.553" cy="35.517" r="1.5882" opacity=".5"/>
 </g>
 <path d="m17.5 8.9999c-6.094 0-11 4.906-11 11v18c0 6.094 4.906 11 11 11h0.16211l23.256-40h-23.418z" fill="#fff" opacity=".15"/>
</svg>
