<?xml version="1.0" encoding="UTF-8"?>
<svg width="64" height="64" version="1.1" xmlns="http://www.w3.org/2000/svg">
 <defs>
  <linearGradient id="linearGradient1448-53" x1="3.9687" x2="3.9687" y1="16.406" y2=".54085" gradientTransform="matrix(3.4646 0 0 3.4646 57.195 31.201)" gradientUnits="userSpaceOnUse">
   <stop stop-color="#667177" offset="0"/>
   <stop stop-color="#94a0ac" offset="1"/>
  </linearGradient>
  <filter id="filter1544" x="-.084" y="-.084001" width="1.168" height="1.168" color-interpolation-filters="sRGB">
   <feGaussianBlur stdDeviation="0.46300928"/>
  </filter>
  <linearGradient id="linearGradient1520" x1="8.6498" x2="8.6498" y1="16.427" y2=".64687" gradientTransform="matrix(2.5197 0 0 2.5197 65.107 39.217)" gradientUnits="userSpaceOnUse">
   <stop stop-color="#c3cdd2" offset="0"/>
   <stop stop-color="#fafafa" offset="1"/>
  </linearGradient>
 </defs>
 <g transform="translate(-54.529 -28.535)">
  <rect x="59.028" y="33.035" width="55.001" height="55.001" ry="13" fill="url(#linearGradient1448-53)" stroke-opacity=".95294" stroke-width=".31428"/>
  <rect transform="rotate(45)" x="99.846" y="-42.496" width="9.2309" height="6.4612" ry=".92309" fill="#414646" stroke-width="3.4889"/>
  <path transform="matrix(3.1065 0 0 2.9663 2.2794 -64.024)" d="m33.734 42.068c0 0.79293-0.13958 1.5532-0.39553 2.2578-0.17792 0.48973-0.41198 0.95273-0.69492 1.381-0.11852 0.18006-0.24595 0.35395-0.38121 0.52106-0.43304 0.53482-0.94764 1.0005-1.5254 1.3786-0.21275 0.13931-0.43387 0.26675-0.6628 0.38093-0.88898 0.4449-1.8925 0.69516-2.9546 0.69516s-2.0656-0.25026-2.9546-0.69518c-0.22895-0.11421-0.45033-0.24163-0.66307-0.38093-0.58504-0.3831-1.1058-0.85615-1.5423-1.3998-0.13552-0.16846-0.26269-0.34396-0.38121-0.52564-0.27538-0.42115-0.50349-0.87556-0.6779-1.3558-0.25591-0.7044-0.39524-1.4644-0.39524-2.257 0-3.653 2.9614-6.6144 6.6144-6.6144 1.8338 0 3.493 0.74622 4.6912 1.9514 0.34529 0.34718 0.65227 0.73272 0.91354 1.1495 0.24703 0.39256 0.45355 0.81316 0.61419 1.2556 0.25598 0.70464 0.39554 1.4649 0.39554 2.2578z" filter="url(#filter1544)" opacity=".3" stroke-width=".025838"/>
  <path d="m106.53 60.534c0 2.3976-0.42203 4.6962-1.196 6.8267-0.53799 1.4808-1.2457 2.8808-2.1012 4.1757-0.35834 0.54445-0.74367 1.0702-1.1527 1.5755-1.3094 1.6171-2.8653 3.0252-4.6122 4.1685-0.64329 0.4212-1.3119 0.80657-2.0041 1.1518-2.688 1.3452-5.7223 2.102-8.9338 2.102-3.2115 0-6.2458-0.75671-8.9338-2.102-0.69227-0.34532-1.3616-0.7306-2.0049-1.1518-1.769-1.1584-3.3434-2.5887-4.6637-4.2324-0.40978-0.50938-0.79428-1.04-1.1527-1.5894-0.83268-1.2734-1.5224-2.6474-2.0498-4.0994-0.7738-2.1299-1.1951-4.4282-1.1951-6.8244 0-11.046 8.9543-20 20-20 5.5447 0 10.562 2.2563 14.185 5.9003 1.044 1.0497 1.9723 2.2155 2.7622 3.4758 0.74692 1.1869 1.3714 2.4587 1.8571 3.7966 0.77399 2.1306 1.196 4.4293 1.196 6.8267z" fill="url(#linearGradient1520)" stroke-width=".078124"/>
  <g stroke-width="2.8995">
   <rect transform="rotate(-60)" x="-10.18" y="91.255" width="3.0685" height="15.343" ry="1.5343" fill="#414646"/>
   <rect transform="rotate(45)" x="103.22" y="-35.066" width="1.5343" height="17.644" ry=".76715" fill="#414646"/>
   <rect x="85.954" y="58.868" width="1.5343" height="17.644" ry=".76715" fill="#d73c05"/>
   <circle cx="86.72" cy="60.019" r="3.0685" fill="#0f0f0f"/>
  </g>
 </g>
</svg>
