<?xml version="1.0" encoding="UTF-8"?>
<svg width="64" height="64" version="1.1" xmlns="http://www.w3.org/2000/svg" xmlns:xlink="http://www.w3.org/1999/xlink">
 <defs>
  <linearGradient id="linearGradient1115" x1="-4.1931" x2="-59.193" y1="4.5" y2="59.5" gradientTransform="translate(108.5 21.393)" gradientUnits="userSpaceOnUse">
   <stop stop-color="#fff" offset="0"/>
   <stop stop-color="#e1e5ea" offset="1"/>
  </linearGradient>
 </defs>
 <g transform="translate(-44.81 -21.393)">
  <rect x="49.31" y="25.893" width="55" height="55" ry="13" fill="url(#linearGradient1115)" image-rendering="optimizeSpeed" stroke-width=".47291"/>
  <g>
   <path d="m67.58 64.162c-2.5477 0-4.6154 2.0677-4.6154 4.6154s2.0677 4.6154 4.6154 4.6154 4.6154-2.0677 4.6154-4.6154-2.0677-4.6154-4.6154-4.6154m0 2.3077c1.2738 0 2.3077 1.0338 2.3077 2.3077s-1.0338 2.3077-2.3077 2.3077-2.3077-1.0338-2.3077-2.3077 1.0338-2.3077 2.3077-2.3077" fill="#3497db"/>
   <path d="m92.195 41.085c-2.5477 0-4.6154 2.0677-4.6154 4.6154 0 2.5477 2.0677 4.6154 4.6154 4.6154s4.6154-2.0677 4.6154-4.6154c0-2.5477-2.0677-4.6154-4.6154-4.6154m0 2.3077c1.2738 0 2.3077 1.0338 2.3077 2.3077 0 1.2738-1.0338 2.3077-2.3077 2.3077s-2.3077-1.0338-2.3077-2.3077c0-1.2738 1.0338-2.3077 2.3077-2.3077" fill="#fd7c60"/>
   <path d="m87.58 59.546c-2.5477 0-4.6154 2.0677-4.6154 4.6154 0 2.5477 2.0677 4.6154 4.6154 4.6154 2.5477 0 4.6154-2.0677 4.6154-4.6154 0-2.5477-2.0677-4.6154-4.6154-4.6154m0 2.3077c1.2738 0 2.3077 1.0338 2.3077 2.3077 0 1.2738-1.0338 2.3077-2.3077 2.3077-1.2738 0-2.3077-1.0338-2.3077-2.3077 0-1.2738 1.0338-2.3077 2.3077-2.3077" fill="#f8c82d"/>
   <path d="m66.041 65.7v-12.308h3.0769v12.308" fill="#3497db"/>
   <path d="m76.81 44.162h12.308v3.0769h-12.308" fill="#fd7c60"/>
   <path d="m84.503 63.393 2.3077-2.3077-11.538-11.538-2.3077 2.3077z" fill="#f8c82d"/>
   <path d="m67.58 33.393c-5.9492 0-10.769 4.82-10.769 10.769s4.82 10.769 10.769 10.769 10.769-4.82 10.769-10.769-4.82-10.769-10.769-10.769m0 3.0769c4.2492 0 7.6923 3.4431 7.6923 7.6923s-3.4431 7.6923-7.6923 7.6923-7.6923-3.4431-7.6923-7.6923 3.4431-7.6923 7.6923-7.6923" fill="#25cf7f"/>
  </g>
 </g>
</svg>
