<?xml version="1.0" encoding="UTF-8"?>
<svg width="64" height="64" version="1.1" xmlns="http://www.w3.org/2000/svg" xmlns:xlink="http://www.w3.org/1999/xlink">
 <defs>
  <linearGradient id="linearGradient2116" x1="23.335" x2="40.287" y1="24.591" y2="41.543" gradientTransform="translate(43.756 20.573)" gradientUnits="userSpaceOnUse">
   <stop stop-color="#ffdc0a" offset="0"/>
   <stop stop-color="#ffd20a" offset="1"/>
  </linearGradient>
  <linearGradient id="a" x1="8.4668" x2="8.4668" y1="284.3" y2="292.77" gradientTransform="matrix(3.7796 0 0 3.7796 43.756 -1038)" gradientUnits="userSpaceOnUse">
   <stop stop-color="#f5ff8e" offset="0"/>
   <stop stop-color="#f9f9f9" offset="1"/>
  </linearGradient>
 </defs>
 <g transform="translate(-43.756 -20.573)">
  <rect x="48.256" y="25.073" width="55" height="55" ry="13" fill="url(#linearGradient2116)" stroke-width="2.124"/>
  <path d="m70.015 36.561a4.0007 4.0007 0 1 0 0 8.0001 4.0007 4.0007 0 0 0 0-8.0001zm-3.1641 9.1427c-0.64254 0-0.9986 0.38902-1.248 0.98243l-4.002 8.2325c-0.88444 1.9918 2.1576 3.2621 2.9551 1.2324 0.46111-1.2095 0.94598-2.4163 1.4902-3.5918v14.4c0 0.88822 0.71324 1.6035 1.5977 1.6035h0.0078c0.88822 0 1.8452-0.7191 1.8301-1.6035l-0.0078-7.5392h1.1074l0.0078 7.5392c0 0.88822 0.97887 1.6035 1.8633 1.6035a1.595 1.595 0 0 0 1.5977-1.6035l-0.0039-14.279 1.7285 3.4707c0.35528 0.90711 1.4347 1.2846 2.2852 0.80078l2.9043 1.6973c-0.0189 0.10583-0.06055 0.19911-0.06055 0.3125v8.7989c0 0.44221 0.66912 0.80274 1.1113 0.80274 0.44221 0 1.2124-0.3643 1.1406-0.80274v-3.7715h1.1445v3.7715c0 0.44221 0.70036 0.80274 1.1426 0.80274 0.44221 0 1.1836-0.36052 1.1836-0.80274v-8.0001l2.0547 1.707c0.75592 0.78617 1.9171-0.37676 1.1348-1.1289l-3.4238-2.9707a0.80129 0.80129 0 0 0-0.56836-0.23438h-3.9004l-3.0605-1.5684a1.6026 1.6026 0 0 0-0.13672-0.65039l-4.002-8.2247a1.6026 1.6026 0 0 0-1.4746-0.98243l-6.3984-0.0039zm16.875 4.5723a2.8649 2.8649 0 0 0-2.8574 2.8574c0 1.5723 1.2851 2.8535 2.8574 2.8535s2.8574-1.285 2.8574-2.8535a2.8649 2.8649 0 0 0-2.8574-2.8574z" fill="url(#a)" stroke-width="3.3072"/>
 </g>
</svg>
