<?xml version="1.0" encoding="UTF-8"?>
<svg width="64" height="64" version="1.1" viewBox="0 0 16.933 16.933" xmlns="http://www.w3.org/2000/svg" xmlns:cc="http://creativecommons.org/ns#" xmlns:dc="http://purl.org/dc/elements/1.1/" xmlns:rdf="http://www.w3.org/1999/02/22-rdf-syntax-ns#" xmlns:xlink="http://www.w3.org/1999/xlink">
 <metadata>
  <rdf:RDF>
   <cc:Work rdf:about="">
    <dc:format>image/svg+xml</dc:format>
    <dc:type rdf:resource="http://purl.org/dc/dcmitype/StillImage"/>
   </cc:Work>
  </rdf:RDF>
 </metadata>
 <defs>
  <linearGradient id="linearGradient21678" x1="15.648" x2="1.4878" y1="15.722" y2="1.5666" gradientTransform="matrix(.34877 0 0 .34877 -85.871 -184.91)" gradientUnits="userSpaceOnUse">
   <stop stop-color="#103d8f" offset="0"/>
   <stop stop-color="#1248a6" offset="1"/>
  </linearGradient>
  <linearGradient id="linearGradient20091" x1="15.648" x2="1.4878" y1="15.722" y2="1.5666" gradientTransform="matrix(.34877 0 0 .34877 -85.871 -184.91)" gradientUnits="userSpaceOnUse">
   <stop stop-color="#085bb7" offset="0"/>
   <stop stop-color="#0463d2" offset="1"/>
  </linearGradient>
  <linearGradient id="linearGradient20055" x1="15.648" x2="1.4878" y1="15.722" y2="1.5666" gradientTransform="matrix(.34877 0 0 .34877 -85.871 -184.91)" gradientUnits="userSpaceOnUse">
   <stop stop-color="#0c6bcd" offset="0"/>
   <stop stop-color="#0866cc" offset="1"/>
  </linearGradient>
  <linearGradient id="linearGradient21676" x1="15.648" x2="1.4878" y1="15.722" y2="1.5666" gradientTransform="matrix(.34877 0 0 .34877 -85.871 -184.91)" gradientUnits="userSpaceOnUse">
   <stop stop-color="#0645a0" offset="0"/>
   <stop stop-color="#074fb6" offset="1"/>
  </linearGradient>
  <linearGradient id="linearGradient20086" x1="15.648" x2="1.4878" y1="15.722" y2="1.5666" gradientTransform="matrix(.34877 0 0 .34877 -85.871 -184.91)" gradientUnits="userSpaceOnUse">
   <stop stop-color="#0364c8" offset="0"/>
   <stop stop-color="#0979ea" offset="1"/>
  </linearGradient>
  <linearGradient id="linearGradient20069" x1="15.648" x2="1.4878" y1="15.722" y2="1.5666" gradientTransform="matrix(.34877 0 0 .34877 -85.871 -184.91)" gradientUnits="userSpaceOnUse">
   <stop stop-color="#20a9f3" offset="0"/>
   <stop stop-color="#30c6ff" offset="1"/>
  </linearGradient>
  <linearGradient id="linearGradient20062" x1="15.648" x2="1.4878" y1="15.722" y2="1.5666" gradientTransform="matrix(.34877 0 0 .34877 -85.871 -184.91)" gradientUnits="userSpaceOnUse">
   <stop stop-color="#2ac1f0" offset="0"/>
   <stop stop-color="#44e3ff" offset="1"/>
  </linearGradient>
  <linearGradient id="linearGradient20079" x1="15.648" x2="1.4878" y1="15.722" y2="1.5666" gradientTransform="matrix(.34877 0 0 .34877 -85.871 -184.91)" gradientUnits="userSpaceOnUse">
   <stop stop-color="#138acc" offset="0"/>
   <stop stop-color="#1faaf4" offset="1"/>
  </linearGradient>
  <linearGradient id="linearGradient20096" x1="15.648" x2="1.4878" y1="15.722" y2="1.5666" gradientTransform="matrix(.34877 0 0 .34877 -85.871 -184.91)" gradientUnits="userSpaceOnUse">
   <stop stop-color="#0c4eaa" offset="0"/>
   <stop stop-color="#0a58be" offset="1"/>
  </linearGradient>
 </defs>
 <g fill="#5e4aa6" stroke-width=".26458">
  <circle cx="-330.38" cy="-328.37" r="0"/>
  <circle cx="-312.55" cy="-328.38" r="0"/>
  <circle cx="-295.13" cy="-341.25" r="0"/>
 </g>
 <g transform="translate(-22.599 -4.0104)">
  <rect x="23.789" y="5.2009" width="14.552" height="14.552" ry="3.4395" fill="#2bcaff" stroke-opacity=".95294" stroke-width=".083152"/>
  <g>
   <path d="m23.789 15.123v1.1906c0 1.9055 1.534 3.4395 3.4395 3.4395h1.1901v-4.6302z" fill="url(#linearGradient21678)"/>
   <path d="m28.419 15.123v4.6302h5.2921v-4.6302z" fill="url(#linearGradient20091)"/>
   <path d="m33.711 15.123v4.6302h1.1906c1.9055 0 3.4395-1.534 3.4395-3.4395v-1.1906z" fill="url(#linearGradient20055)"/>
   <path d="m23.789 9.8312v5.2916h4.6296v-5.2916z" fill="url(#linearGradient21676)"/>
  </g>
  <path d="m28.419 9.8312v5.2916h5.2916v-5.2916z" fill="url(#linearGradient20086)"/>
  <g>
   <path d="m33.711 9.8312v5.2916h4.6302v-5.2916z" fill="url(#linearGradient20069)"/>
   <path d="m33.711 5.2011v4.6302h4.6302v-1.1906c0-1.9055-1.534-3.4395-3.4395-3.4395z" fill="url(#linearGradient20062)"/>
   <path d="m28.419 5.2011v4.6302h5.2921v-4.6302z" fill="url(#linearGradient20079)"/>
  </g>
  <path d="m27.229 5.2011c-1.9055 0-3.4395 1.534-3.4395 3.4395v1.1906h4.6296v-4.6302z" fill="url(#linearGradient20096)" stroke-width=".26458"/>
 </g>
</svg>
