<?xml version="1.0" encoding="UTF-8"?>
<svg width="64" height="64" version="1.1" xmlns="http://www.w3.org/2000/svg" xmlns:xlink="http://www.w3.org/1999/xlink">
 <defs>
  <linearGradient id="b" x1="27.535" x2="27.535" y1="1713.3" y2="1682" gradientTransform="matrix(1.5429 0 0 1.8 -11.971 -3024.2)" gradientUnits="userSpaceOnUse">
   <stop stop-color="#197cf1" offset="0"/>
   <stop stop-color="#20bcfa" offset="1"/>
  </linearGradient>
  <linearGradient id="c" x1="25.04" x2="42.99" y1="13.01" y2="30.26" gradientUnits="userSpaceOnUse">
   <stop stop-color="#292c2f" offset="0"/>
   <stop stop-color="#292c2f" stop-opacity="0" offset="1"/>
  </linearGradient>
  <linearGradient id="d" x1="14.59" x2="36.06" y1="18.26" y2="40.44" gradientUnits="userSpaceOnUse" xlink:href="#c"/>
  <linearGradient id="e" x1="25.04" x2="42.99" y1="13.01" y2="30.26" gradientUnits="userSpaceOnUse" xlink:href="#c"/>
  <filter id="g" x="-.060696" y="-.040695" width="1.1214" height="1.0814" color-interpolation-filters="sRGB">
   <feGaussianBlur stdDeviation="0.47117776"/>
  </filter>
  <filter id="f" x="-.038666" y="-.042455" width="1.0773" height="1.0849" color-interpolation-filters="sRGB">
   <feGaussianBlur stdDeviation="0.47117776"/>
  </filter>
  <linearGradient id="linearGradient1448" x1="3.9687" x2="3.9687" y1="16.385" y2=".54085" gradientTransform="matrix(3.4646 0 0 3.4646 2.6662 2.6662)" gradientUnits="userSpaceOnUse">
   <stop stop-color="#cfdef0" offset="0"/>
   <stop stop-color="#f5faff" offset="1"/>
  </linearGradient>
 </defs>
 <rect x="4.4996" y="4.4996" width="55.001" height="55.001" ry="13" fill="url(#linearGradient1448)" stroke-opacity=".95294" stroke-width=".31428"/>
 <path d="m32 7a25 25 0 0 0-25 25 25 25 0 0 0 25 25 25 25 0 0 0 25-25 25 25 0 0 0-25-25zm1.5 8.5h3v9.1191a10.5 9 0 0 1 6-1.6191 10.5 9 0 0 1 10.5 9 10.5 9 0 0 1-10.5 9 10.5 9 0 0 1-6-1.6289v3.1289h-3v-27zm-6 6h3v27h-3v-9.1191a10.5 9 0 0 1-6 1.6191 10.5 9 0 0 1-10.5-9 10.5 9 0 0 1 10.5-9 10.5 9 0 0 1 6 1.6289v-3.1289zm-6 4.5a7.5 6 0 0 0-7.5 6 7.5 6 0 0 0 7.5 6 7.5 6 0 0 0 6-2.4141v-7.1738a7.5 6 0 0 0-6-2.4121zm21 0a7.5 6 0 0 0-6 2.4141v7.1758a7.5 6 0 0 0 6 2.4102 7.5 6 0 0 0 7.5-6 7.5 6 0 0 0-7.5-6z" color="#000000" fill="url(#b)" fill-rule="evenodd" stroke-width="1.9999"/>
 <path transform="matrix(1.5,0,0,1.5,-4,-4)" d="m23.01 17.06-0.014 0.023v17.916h-2v-6.08a7 6 0 0 1-4 1.0801 7 6 0 0 1-5.4375-2.2285l-0.021 0.021 15.906 15.904a20 20 0 0 0 13.34-8.8633l-5.869-5.869a7 6 0 0 1-3.918 1.0352 7 6 0 0 1-4-1.0859v2.086h-2v-11.953z" fill="url(#d)" filter="url(#f)" opacity=".2" stroke-width="1.3333"/>
 <path transform="matrix(1.5,0,0,1.5,-4,-4)" d="m27 13.01v6.066a7 6 0 0 1 4-1.0801 7 6 0 0 1 1.0605 0.07422zm8.773 6.563-0.023 0.023a7 6 0 0 1 0.32812 0.28125zm0.75195 0.75195a7 6 0 0 1 1.4746 3.6719 7 6 0 0 1-7 6 7 6 0 0 1-4-1.0859v2.086h-1.955l9.801 9.801a20 20 0 0 0 8.8301-13.322z" fill="url(#e)" filter="url(#g)" opacity=".2" stroke-width="1.3333"/>
</svg>
