<?xml version="1.0" encoding="UTF-8" standalone="no"?>
<svg
   xmlns:dc="http://purl.org/dc/elements/1.1/"
   xmlns:cc="http://creativecommons.org/ns#"
   xmlns:rdf="http://www.w3.org/1999/02/22-rdf-syntax-ns#"
   xmlns:svg="http://www.w3.org/2000/svg"
   xmlns="http://www.w3.org/2000/svg"
   xmlns:sodipodi="http://sodipodi.sourceforge.net/DTD/sodipodi-0.dtd"
   xmlns:inkscape="http://www.inkscape.org/namespaces/inkscape"
   width="64"
   height="64"
   version="1.1"
   id="svg31"
   sodipodi:docname="skype.svg"
   inkscape:version="1.0.1 (3bc2e813f5, 2020-09-07)">
  <sodipodi:namedview
     pagecolor="#ffffff"
     bordercolor="#666666"
     borderopacity="1"
     objecttolerance="10"
     gridtolerance="10"
     guidetolerance="10"
     inkscape:pageopacity="0"
     inkscape:pageshadow="2"
     inkscape:window-width="1920"
     inkscape:window-height="932"
     id="namedview33"
     showgrid="false"
     inkscape:zoom="2.9882813"
     inkscape:cx="89.497945"
     inkscape:cy="69.870728"
     inkscape:window-x="0"
     inkscape:window-y="36"
     inkscape:window-maximized="1"
     inkscape:current-layer="svg31" />
  <metadata
     id="metadata2">
    <rdf:RDF>
      <cc:Work
         rdf:about="">
        <dc:format>image/svg+xml</dc:format>
        <dc:type
           rdf:resource="http://purl.org/dc/dcmitype/StillImage" />
        <dc:title></dc:title>
      </cc:Work>
    </rdf:RDF>
  </metadata>
  <defs
     id="defs19">
    <linearGradient
       id="linearGradient924"
       x1="23.713"
       x2="63.713"
       y1="11.713"
       y2="11.713"
       gradientTransform="translate(1.542,-11.713)"
       gradientUnits="userSpaceOnUse">
      <stop
         stop-color="#1e78dc"
         offset="0"
         id="stop4" />
      <stop
         stop-color="#46b9ff"
         offset="1"
         id="stop6" />
    </linearGradient>
    <linearGradient
       id="linearGradient932"
       x1="18.713"
       x2="48.713"
       y1="11.713"
       y2="11.713"
       gradientTransform="translate(1.542,-11.713)"
       gradientUnits="userSpaceOnUse">
      <stop
         stop-color="#1549a8"
         offset="0"
         id="stop9" />
      <stop
         stop-color="#166de9"
         offset="1"
         id="stop11" />
    </linearGradient>
    <linearGradient
       id="linearGradient940"
       x1="38.713"
       x2="68.713"
       y1="11.713"
       y2="11.713"
       gradientTransform="translate(1.542,-11.713)"
       gradientUnits="userSpaceOnUse">
      <stop
         stop-color="#154ba8"
         offset="0"
         id="stop14" />
      <stop
         stop-color="#136ce8"
         offset="1"
         id="stop16" />
    </linearGradient>
    <linearGradient
       id="linearGradient1448"
       x1="3.9686999"
       x2="3.9686999"
       y1="8.9776001"
       y2="0.54084998"
       gradientTransform="matrix(3.4646098,0,0,3.46461,2.666207,2.6662062)"
       gradientUnits="userSpaceOnUse">
      <stop
         stop-color="#dcdcdc"
         offset="0"
         id="stop26" />
      <stop
         stop-color="#f0f0f0"
         offset="1"
         id="stop28" />
    </linearGradient>
  </defs>
  <rect
     x="4.4996166"
     y="4.4996166"
     width="55.000767"
     height="55.000767"
     ry="12.999942"
     fill="url(#linearGradient1448)"
     stroke-opacity="0.95294"
     stroke-width="0.31428"
     id="rect35"
     style="fill:url(#linearGradient1448)" />
  <g
     transform="matrix(1.0194341,0,0,1.0194341,-0.62201189,-0.62201138)"
     id="g29">
    <circle
       transform="rotate(45)"
       cx="35.255001"
       cy="-3.5171001e-07"
       r="15"
       fill="url(#linearGradient932)"
       id="circle21"
       style="fill:url(#linearGradient932)" />
    <circle
       transform="rotate(45)"
       cx="55.255001"
       cy="-3.5171001e-07"
       r="15"
       fill="url(#linearGradient940)"
       id="circle23"
       style="fill:url(#linearGradient940)" />
    <circle
       transform="rotate(45)"
       cx="45.255001"
       cy="-3.5171001e-07"
       r="20"
       fill="url(#linearGradient924)"
       id="circle25"
       style="fill:url(#linearGradient924)" />
    <path
       d="m 41.039,39.968 c 0.8097,-1.0659 1.2094,-2.318 1.2094,-3.7564 0,-1.1326 -0.22548,-2.084 -0.66961,-2.8561 -0.46292,-0.7687 -1.1155,-1.4127 -1.9576,-1.9269 -0.77384,-0.49879 -1.78,-0.94122 -3.0116,-1.3376 -1.2385,-0.3109 -2.5521,-0.61496 -3.9409,-0.92584 l -1.522,-0.34678 C 30.73842,28.73126 30.41386,28.65781 30.1696,28.59119 29.898,28.52457 29.64689,28.45111 29.40774,28.364 c -0.22548,-0.08029 -0.46462,-0.17424 -0.70377,-0.27673 -0.46462,-0.19474 -0.85411,-0.45952 -1.1633,-0.7704 -0.23915,-0.26819 -0.35873,-0.62864 -0.35873,-1.0762 0,-0.65426 0.38949,-1.2385 1.1633,-1.7561 0.87633,-0.48344 1.9474,-0.71575 3.22,-0.70037 1.4708,0 2.5042,0.21694 3.0867,0.65253 0.70378,0.51587 1.2556,1.1513 1.6501,1.9013 0.34334,0.55003 0.69183,0.96001 1.0523,1.2299 0.34334,0.26307 0.81994,0.40484 1.4195,0.42365 0.67475,0 1.2333,-0.22378 1.7031,-0.67475 0.45952,-0.42022 0.67989,-0.89341 0.66791,-1.4264 0,-0.61666 -0.17424,-1.2231 -0.51587,-1.8073 -0.33824,-0.54833 -0.90706,-1.1326 -1.6911,-1.7526 -0.39629,-0.26648 -0.83189,-0.51076 -1.3016,-0.73454 -0.47146,-0.22548 -1.001,-0.42365 -1.5767,-0.59104 -0.60302,-0.16399 -1.2368,-0.2904 -1.9047,-0.37581 -0.66961,-0.0837 -1.4007,-0.12299 -2.2104,-0.12299 -2.0396,0 -3.7598,0.2494 -5.1607,0.74822 -1.5049,0.51931 -2.6443,1.2333 -3.4164,2.1592 -0.7721,0.88144 -1.1582,1.9405 -1.1582,3.1773 0,1.3017 0.37411,2.3607 1.112,3.1773 0.74307,0.88314 1.7492,1.5511 3.0218,2.0038 1.2094,0.48344 2.7554,0.90706 4.6516,1.2726 0.70892,0.16741 1.329,0.30919 1.8774,0.41681 0.53979,0.10591 1.0301,0.22719 1.4588,0.35873 0.80801,0.22036 1.4639,0.58934 1.9645,1.1137 0.53468,0.45438 0.80286,1.0386 0.80286,1.7595 0,0.99591 -0.48854,1.8022 -1.4537,2.4171 -0.91219,0.63034 -2.1455,0.94122 -3.6984,0.91904 -1.2436,0 -2.1438,-0.14349 -2.7144,-0.43389 -0.70892,-0.32285 -1.2316,-0.73283 -1.575,-1.2214 -0.4356,-0.55687 -0.78408,-1.1753 -1.0642,-1.8432 -0.24427,-0.63374 -0.57395,-1.112 -1.0044,-1.4349 -0.40143,-0.32627 -0.8712,-0.48854 -1.423,-0.48854 -0.70378,0 -1.2846,0.19644 -1.7441,0.5825 -0.45952,0.439 -0.67989,0.9532 -0.66961,1.5306 0,1.0061 0.3724,2.0123 1.1103,3.0201 0.73284,1.0369 1.6741,1.8466 2.8203,2.4291 1.6792,0.86779 3.7888,1.3068 6.3237,1.3239 2.0686,0 3.9119,-0.30748 5.5157,-0.92074 1.575,-0.69867 2.7502,-1.5647 3.5172,-2.605 z"
       fill="#ffffff"
       stroke-width="26.686"
       id="path27" />
  </g>
</svg>
