<?xml version="1.0" encoding="UTF-8"?>
<svg id="Sublime-Text" width="64" height="64" enable-background="new 0 0 1024 1024" image-rendering="optimizeSpeed" version="1.1" viewBox="0 0 64 64" xmlns="http://www.w3.org/2000/svg" xmlns:cc="http://creativecommons.org/ns#" xmlns:dc="http://purl.org/dc/elements/1.1/" xmlns:rdf="http://www.w3.org/1999/02/22-rdf-syntax-ns#" xmlns:xlink="http://www.w3.org/1999/xlink">
 <metadata>
  <rdf:RDF>
   <cc:Work rdf:about="">
    <dc:format>image/svg+xml</dc:format>
    <dc:type rdf:resource="http://purl.org/dc/dcmitype/StillImage"/>
    <dc:title/>
   </cc:Work>
  </rdf:RDF>
 </metadata>
 <defs>
  <linearGradient id="linearGradient1022">
   <stop offset="0"/>
   <stop stop-opacity="0" offset="1"/>
  </linearGradient>
  <linearGradient id="sublime-icon-b" x1="116.53" x2="211.49" y1="400.49" y2="324.75" gradientTransform="matrix(.11943 0 0 .079621 10.946 9.5369)" gradientUnits="userSpaceOnUse">
   <stop stop-color="#FF9700" offset="0"/>
   <stop stop-color="#F48E00" offset=".57396"/>
   <stop stop-color="#CE6E00" offset="1"/>
  </linearGradient>
  <filter id="c" x="-.041377" y="-.03186" width="1.0828" height="1.0637" color-interpolation-filters="sRGB">
   <feGaussianBlur stdDeviation="6.7714073"/>
  </filter>
  <linearGradient id="linearGradient1024" x1="20.308" x2="45.273" y1="31.404" y2="31.404" gradientUnits="userSpaceOnUse" xlink:href="#linearGradient1022"/>
  <linearGradient id="linearGradient1038" x1="287.63" x2="79.111" y1="340.31" y2="340.31" gradientTransform="matrix(.11943 0 0 .079621 10.946 9.4682)" gradientUnits="userSpaceOnUse" xlink:href="#linearGradient1022"/>
  <linearGradient id="linearGradient1046" x1="20.308" x2="45.272" y1="23.514" y2="23.514" gradientUnits="userSpaceOnUse">
   <stop stop-color="#ff9800" offset="0"/>
   <stop stop-color="#ffc522" offset="1"/>
  </linearGradient>
  <linearGradient id="linearGradient1448" x1="3.9687" x2="3.9687" y1="15.338" y2=".54085" gradientTransform="matrix(3.4646 0 0 3.4646 2.6661 -61.334)" gradientUnits="userSpaceOnUse">
   <stop stop-color="#333132" offset="0"/>
   <stop stop-color="#212427" offset="1"/>
  </linearGradient>
 </defs>
 <rect transform="scale(1,-1)" x="4.4995" y="-59.5" width="55.001" height="55.001" ry="13" fill="url(#linearGradient1448)" image-rendering="optimizeSpeed" stroke-opacity=".95294" stroke-width=".31428"/>
 <g transform="matrix(1.191 0 0 1.191 -7.0534 -6.0948)">
  <path transform="matrix(.06356 0 0 .06356 .25416 -.42237)" d="m708.28 512.08c0-5.9816-4.4192-9.4308-9.8424-7.7171l-373.08 118.34c-5.434 1.7246-9.8424 7.979-9.8424 13.95v120.95c0 5.9816 4.4083 9.4417 9.8424 7.7171l373.08-118.33c5.4231-1.7246 9.8424-7.979 9.8424-13.961z" filter="url(#c)" opacity=".2" stroke-width="24.045"/>
  <path d="m45.272 31.49c0-0.38019-0.28089-0.59942-0.62558-0.49049l-23.713 7.5218c-0.34538 0.10962-0.62558 0.50715-0.62558 0.88663v7.6877c0 0.38019 0.28019 0.60011 0.62558 0.4905l23.713-7.5212c0.34469-0.10962 0.62558-0.50715 0.62558-0.88733z" fill="url(#sublime-icon-b)" stroke-width="1.5283"/>
  <path transform="matrix(.06356 0 0 .06356 .25416 -.42237)" d="m315.52 508.9c0 5.9812 4.4077 12.235 9.841 13.96l373.09 118.35c5.4333 1.7245 9.841-1.7354 9.841-7.7057v-120.96c0-5.9703-4.4077-12.224-9.841-13.949l-373.09-118.35c-5.4333-1.7245-9.841 1.7245-9.841 7.7057z" filter="url(#c)" opacity=".2" stroke-width="24.045"/>
  <path d="m45.272 31.421c0-0.38019-0.28089-0.59942-0.62558-0.49049l-23.713 7.5218c-0.34538 0.10962-0.62558 0.50715-0.62558 0.88663v7.6877c0 0.38019 0.28019 0.60011 0.62558 0.4905l23.713-7.5212c0.34469-0.10962 0.62558-0.50715 0.62558-0.88733z" fill="url(#linearGradient1038)" opacity=".15" stroke-width="1.5283"/>
  <path d="m20.308 31.287c0 0.38016 0.28015 0.77764 0.62549 0.88726l23.713 7.5218c0.34533 0.10961 0.62549-0.1103 0.62549-0.48977v-7.6877c0-0.37947-0.28015-0.777-0.62549-0.88656l-23.713-7.5218c-0.34533-0.10961-0.62549 0.10961-0.62549 0.48977z" fill="#ff9800" stroke-width="1.5283"/>
  <path transform="matrix(.06356 0 0 .06356 .25416 -.42237)" d="m708.28 263.84c0-5.9816-4.4192-9.4417-9.8424-7.7171l-373.08 118.33c-5.434 1.7246-9.8424 7.9791-9.8424 13.961v120.95c0 5.9816 4.4083 9.4308 9.8424 7.7171l373.08-118.34c5.4231-1.7246 9.8424-7.979 9.8424-13.95z" filter="url(#c)" opacity=".2" stroke-width="24.045"/>
  <path d="m20.308 31.287c0 0.38016 0.28015 0.77764 0.62549 0.88726l23.713 7.5218c0.34533 0.10961 0.62549-0.1103 0.62549-0.48977v-7.6877c0-0.37947-0.28015-0.777-0.62549-0.88656l-23.713-7.5218c-0.34533-0.10961-0.62549 0.10961-0.62549 0.48977z" fill="url(#linearGradient1024)" opacity=".15" stroke-width="1.5283"/>
  <path d="m45.272 15.712c0-0.38019-0.28089-0.60011-0.62558-0.4905l-23.713 7.5212c-0.34538 0.10962-0.62558 0.50715-0.62558 0.88733v7.6877c0 0.38019 0.28019 0.59942 0.62558 0.4905l23.713-7.5218c0.34469-0.10962 0.62558-0.50715 0.62558-0.88663z" fill="url(#linearGradient1046)" stroke-width="1.5283"/>
 </g>
</svg>
