<?xml version="1.0" encoding="UTF-8"?>
<svg width="64" height="64" version="1.1" xmlns="http://www.w3.org/2000/svg">
 <defs>
  <linearGradient id="linearGradient1115" x1="-4.1931" x2="-59.193" y1="4.5" y2="59.5" gradientTransform="translate(63.694 -.00085578)" gradientUnits="userSpaceOnUse">
   <stop stop-color="#fff" offset="0"/>
   <stop stop-color="#e1e5ea" offset="1"/>
  </linearGradient>
 </defs>
 <rect x="4.4995" y="4.4995" width="55.001" height="55.001" ry="13" fill="url(#linearGradient1115)" image-rendering="optimizeSpeed" stroke-width=".4729"/>
 <path d="m40.322 47.664h-0.80538v7.2483l-9.1189-7.2483h-6.72a8.0537 8.0537 0 0 1-8.0537-8.0537v-16.644a8.0537 8.0537 0 0 1 8.0537-8.0537h16.644a8.0537 8.0537 0 0 1 8.0537 8.0537v16.644a8.0537 8.0537 0 0 1-8.0537 8.0537zm2.8279-17.871-1.0634-3.3235a0.5396 0.5396 0 0 0-0.67516-0.34899l-7.058 2.2577-0.14336-7.5705a0.53879 0.53879 0 0 0-0.55436-0.52349l-3.5383 0.0671a0.53933 0.53933 0 0 0-0.53423 0.54496l0.14229 7.5221-7.2808-2.5101a0.53691 0.53691 0 0 0-0.68268 0.33288l-1.138 3.2993a0.53691 0.53691 0 0 0 0.33262 0.68188l7.2099 2.4859-4.5656 6.1101a0.53691 0.53691 0 0 0 0.10727 0.75168l2.7957 2.0886a0.53691 0.53691 0 0 0 0.75169-0.10738l4.5656-6.1101 4.4274 6.2094a0.53691 0.53691 0 0 0 0.74874 0.12617l2.8419-2.0268a0.53691 0.53691 0 0 0 0.12534-0.74899l-4.4271-6.2094 7.2639-2.3248a0.53503 0.53503 0 0 0 0.34845-0.67382z" fill="#0188fb" stroke-width=".039062" p-id="3776"/>
</svg>
