<?xml version="1.0" encoding="UTF-8"?>
<svg width="64" height="64" version="1.1" xmlns="http://www.w3.org/2000/svg">
 <g transform="translate(-67.336 -26.811)">
  <path d="m84.836 31.311c-7.202 0-13 5.798-13 13v29c0 7.202 5.798 13 13 13h29c7.202 0 13-5.798 13-13v-29c0-7.202-5.798-13-13-13z" fill="#fff" stroke-linecap="round" stroke-linejoin="round" style="paint-order:stroke fill markers"/>
  <path d="m85.451 33.811c-6.1582 0-11.115 4.957-11.115 11.115v27.77c0 6.1582 4.957 11.115 11.115 11.115h27.77c6.1582 0 11.115-4.957 11.115-11.115v-27.77c0-6.1582-4.957-11.115-11.115-11.115z" fill="#efefef" style="paint-order:stroke fill markers"/>
  <path d="m104.99 71.041-9e-3 1.0243-11.653 9e-3 0.0093-1.0243 0.7329-5.67e-4c1.1726-9.07e-4 2.203-0.47446 2.6862-1.2234 0.44584-0.67009 0.56151-1.3005 0.58016-3.3492l0.17432-19.147-2.3819 0.0018c-3.7378 0.0029-5.0671 1.107-5.3541 4.456l-0.95277 7.38e-4 0.45977-6.2251 20.228-0.01565 0.34642 6.2245-0.91613 7.09e-4c-0.2986-3.4273-1.4253-4.4508-4.9798-4.448l-2.7117 0.0021-0.17432 19.147c-0.019 2.0881 0.0493 2.6396 0.48255 3.3484 0.50621 0.74815 1.4913 1.2202 2.7006 1.2192z" fill="#202020" image-rendering="optimizeSpeed"/>
 </g>
</svg>
