<?xml version="1.0" encoding="UTF-8"?>
<svg width="64" height="64" version="1.1" viewBox="0 0 64 64" xmlns="http://www.w3.org/2000/svg" xmlns:cc="http://creativecommons.org/ns#" xmlns:dc="http://purl.org/dc/elements/1.1/" xmlns:rdf="http://www.w3.org/1999/02/22-rdf-syntax-ns#" xmlns:xlink="http://www.w3.org/1999/xlink">
 <defs>
  <linearGradient id="linearGradient1858" x1="6.9599" x2="57" y1="7.0523" y2="57" gradientTransform="translate(63.712 18.245)" gradientUnits="userSpaceOnUse">
   <stop stop-color="#138fdc" offset="0"/>
   <stop stop-color="#076dbf" offset="1"/>
  </linearGradient>
  <filter id="filter2146" x="-.087891" y="-.065407" width="1.1758" height="1.1308" color-interpolation-filters="sRGB">
   <feGaussianBlur stdDeviation="1.171875"/>
  </filter>
  <linearGradient id="linearGradient1419" x1="30.865" x2="30.865" y1="-23.355" y2="-65.948" gradientTransform="matrix(.82262 0 0 .81448 70.321 80.104)" gradientUnits="userSpaceOnUse">
   <stop stop-color="#3cc85a" offset="0"/>
   <stop stop-color="#50eb50" offset="1"/>
  </linearGradient>
 </defs>
 <metadata>
  <rdf:RDF>
   <cc:Work rdf:about="">
    <dc:format>image/svg+xml</dc:format>
    <dc:type rdf:resource="http://purl.org/dc/dcmitype/StillImage"/>
    <dc:title>深度用户反馈-128px</dc:title>
   </cc:Work>
  </rdf:RDF>
 </metadata>
 <title>深度用户反馈-128px</title>
 <g transform="translate(-63.712 -18.245)">
  <path d="m81.212 22.745c-7.202 0-13 5.798-13 13v29c0 7.202 5.798 13 13 13h29c7.202 0 13-5.798 13-13v-29c0-7.202-5.798-13-13-13z" fill="#b9b9b9" fill-opacity=".63922" style="paint-order:stroke fill markers"/>
  <g>
   <path d="m81.403 25.245c-5.923 0-10.691 4.7684-10.691 10.691v28.617c0 5.923 4.7684 10.691 10.691 10.691h28.617c5.923 0 10.691-4.7684 10.691-10.691v-28.617c0-5.923-4.7684-10.691-10.691-10.691z" fill="url(#linearGradient1858)" style="paint-order:stroke fill markers"/>
   <path transform="matrix(.82262 0 0 .82262 69.388 22.16)" d="m25 4.3146v26h-9l16 17 16-17h-9v-26z" filter="url(#filter2146)" opacity=".3" stroke-linecap="round" stroke-width="1.9901"/>
   <path d="m89.953 25.709v21.388h-7.4036l13.162 13.985 13.162-13.985h-7.4036v-21.388z" fill="url(#linearGradient1419)" stroke-linecap="round" stroke-width="1.6371"/>
  </g>
 </g>
</svg>
