<?xml version="1.0" encoding="UTF-8"?>
<svg width="64" height="64" version="1.1" viewBox="0 0 16.933 16.933" xmlns="http://www.w3.org/2000/svg" xmlns:cc="http://creativecommons.org/ns#" xmlns:dc="http://purl.org/dc/elements/1.1/" xmlns:rdf="http://www.w3.org/1999/02/22-rdf-syntax-ns#" xmlns:xlink="http://www.w3.org/1999/xlink">
 <defs>
  <linearGradient id="linearGradient2213" x1="5.0641" x2="59.447" y1="58.858" y2="5.0418" gradientTransform="matrix(.26458 0 0 .26458 11.751 5.4359)" gradientUnits="userSpaceOnUse">
   <stop stop-color="#5564ff" offset="0"/>
   <stop stop-color="#7841ff" offset="1"/>
  </linearGradient>
  <filter id="filter907" x="-.059999" y="-.06" width="1.12" height="1.12" color-interpolation-filters="sRGB">
   <feGaussianBlur stdDeviation="0.21166213"/>
  </filter>
 </defs>
 <metadata>
  <rdf:RDF>
   <cc:Work rdf:about="">
    <dc:format>image/svg+xml</dc:format>
    <dc:type rdf:resource="http://purl.org/dc/dcmitype/StillImage"/>
   </cc:Work>
  </rdf:RDF>
 </metadata>
 <style type="text/css">.st0{opacity:0.15;fill:#45413C;}
	.st1{fill:#FFE500;}
	.st2{fill:#EBCB00;}
	.st3{fill:none;stroke:#45413C;stroke-linecap:round;stroke-linejoin:round;stroke-miterlimit:10;}
	.st4{fill:#FFAA54;}
	.st5{fill:#FF8A14;}
	.st6{fill:#FFB0CA;stroke:#45413C;stroke-linecap:round;stroke-linejoin:round;stroke-miterlimit:10;}
	.st7{fill:#FF87AF;stroke:#45413C;stroke-linecap:round;stroke-linejoin:round;stroke-miterlimit:10;}
	.st8{fill:#FFCC99;}
	.st9{fill:#FFFFFF;}
	.st10{fill:#F0F0F0;}
	.st11{fill:#BF8256;}
	.st12{fill:#915E3A;}
	.st13{fill:#DEA47A;}
	.st14{fill:#F0D5A8;}
	.st15{fill:#DEBB7E;}
	.st16{fill:#F7E5C6;}
	.st17{fill:#FF8A14;stroke:#45413C;stroke-linecap:round;stroke-linejoin:round;stroke-miterlimit:10;}
	.st18{fill:#FFF5E3;}
	.st19{fill:#FFF48C;}
	.st20{fill:#FFFACF;}
	.st21{fill:#FFFCE5;}
	.st22{fill:#FF87AF;}
	.st23{fill:#FFB0CA;}
	.st24{fill:#FFE500;stroke:#45413C;stroke-linecap:round;stroke-linejoin:round;stroke-miterlimit:10;}
	.st25{fill:#9CEB60;stroke:#45413C;stroke-linecap:round;stroke-linejoin:round;stroke-miterlimit:10;}
	.st26{fill:#FFFACF;stroke:#45413C;stroke-linecap:round;stroke-linejoin:round;stroke-miterlimit:10;}
	.st27{fill:#00F5BC;stroke:#45413C;stroke-linecap:round;stroke-linejoin:round;stroke-miterlimit:10;}
	.st28{fill:#BF8256;stroke:#45413C;stroke-linecap:round;stroke-linejoin:round;stroke-miterlimit:10;}
	.st29{fill:#FFE3CF;stroke:#45413C;stroke-linecap:round;stroke-linejoin:round;stroke-miterlimit:10;}
	.st30{fill:#FF6242;}
	.st31{fill:#FF866E;}
	.st32{fill:none;stroke:#E04122;stroke-linecap:round;stroke-linejoin:round;stroke-miterlimit:10;}
	.st33{fill:#FFFEF2;stroke:#45413C;stroke-linecap:round;stroke-linejoin:round;stroke-miterlimit:10;}
	.st34{fill:#FF6242;stroke:#45413C;stroke-linecap:round;stroke-linejoin:round;stroke-miterlimit:10;}
	.st35{fill:#FFA694;}
	.st36{fill:#FFFFFF;stroke:#45413C;stroke-linecap:round;stroke-linejoin:round;stroke-miterlimit:10;}
	.st37{fill:#FFFEF2;}
	.st38{fill:#FF6196;}
	.st39{fill:#B89558;}
	.st40{fill:none;stroke:#915E3A;stroke-linecap:round;stroke-linejoin:round;stroke-miterlimit:10;}
	.st41{fill:#DEBB7E;stroke:#45413C;stroke-linecap:round;stroke-linejoin:round;stroke-miterlimit:10;}
	.st42{fill:#6DD627;stroke:#45413C;stroke-linecap:round;stroke-linejoin:round;stroke-miterlimit:10;}
	.st43{fill:#E5F8FF;}
	.st44{fill:#E8F4FA;}
	.st45{fill:#E8F4FA;stroke:#45413C;stroke-linecap:round;stroke-linejoin:round;stroke-miterlimit:10;}
	.st46{fill:#FFCCDD;}
	.st47{fill:#E5F8FF;stroke:#45413C;stroke-linecap:round;stroke-linejoin:round;stroke-miterlimit:10;}
	.st48{fill:#00B8F0;stroke:#45413C;stroke-linecap:round;stroke-linejoin:round;stroke-miterlimit:10;}
	.st49{fill:#00B8F0;}
	.st50{fill:#4ACFFF;}
	.st51{fill:#E04122;}
	.st52{fill:#E04122;stroke:#45413C;stroke-linecap:round;stroke-linejoin:round;stroke-miterlimit:10;}
	.st53{fill:#87898C;}
	.st54{fill:#BDBEC0;}
	.st55{fill:#656769;}
	.st56{fill:#525252;}
	.st57{fill:#FFF48C;stroke:#45413C;stroke-linecap:round;stroke-linejoin:round;stroke-miterlimit:10;}
	.st58{fill:#6DD627;}
	.st59{fill:#EB6D00;}
	.st60{fill:#46B000;}
	.st61{fill:#80DDFF;}
	.st62{fill:#DAEDF7;}
	.st63{fill:#BF8DF2;stroke:#45413C;stroke-linecap:round;stroke-linejoin:round;stroke-miterlimit:10;}
	.st64{fill:#9F5AE5;stroke:#45413C;stroke-linecap:round;stroke-linejoin:round;stroke-miterlimit:10;}
	.st65{fill:#C8FFA1;}
	.st66{fill:#E4FFD1;}
	.st67{fill:#9CEB60;}
	.st68{fill:#E5FEFF;}
	.st69{fill:#B8ECFF;}
	.st70{fill:#E0E0E0;stroke:#45413C;stroke-linecap:round;stroke-linejoin:round;stroke-miterlimit:10;}
	.st71{fill:#E0E0E0;}
	.st72{fill:none;stroke:#4F4B45;stroke-linejoin:round;stroke-miterlimit:10;}
	.st73{fill:none;stroke:#4F4B45;stroke-linecap:round;stroke-linejoin:round;stroke-miterlimit:10;}
	.st74{fill:#E0366F;stroke:#45413C;stroke-linecap:round;stroke-linejoin:round;stroke-miterlimit:10;}
	.st75{fill:none;stroke:#45413C;stroke-miterlimit:10;}
	.st76{fill:#FF866E;stroke:#45413C;stroke-linecap:round;stroke-linejoin:round;stroke-miterlimit:10;}
	.st77{fill:#45413C;stroke:#45413C;stroke-linecap:round;stroke-linejoin:round;stroke-miterlimit:10;}
	.st78{fill:#9F5AE5;}
	.st79{fill:#803EC2;}
	.st80{fill:#803EC2;stroke:#45413C;stroke-linecap:round;stroke-linejoin:round;stroke-miterlimit:10;}
	.st81{fill:#BF8DF2;}
	.st82{fill:#FFAA54;stroke:#45413C;stroke-linecap:round;stroke-linejoin:round;stroke-miterlimit:10;}
	.st83{fill:none;stroke:#45413C;stroke-linejoin:round;stroke-miterlimit:10;}
	.st84{fill:#FFCCDD;stroke:#45413C;stroke-linecap:round;stroke-linejoin:round;stroke-miterlimit:10;}
	.st85{fill:#FF6196;stroke:#45413C;stroke-linecap:round;stroke-linejoin:round;stroke-miterlimit:10;}
	.st86{fill:#FFE5EE;}
	.st87{fill:#F7E5C6;stroke:#45413C;stroke-linecap:round;stroke-linejoin:round;stroke-miterlimit:10;}
	.st88{fill:#E5FFF9;}
	.st89{fill:none;stroke:#45413C;stroke-width:1.0064;stroke-linecap:round;stroke-linejoin:round;stroke-miterlimit:10;}
	.st90{fill:#4AEFF7;}
	.st91{fill:#A6FBFF;}
	.st92{fill:#E5FEFF;stroke:#45413C;stroke-linecap:round;stroke-linejoin:round;stroke-miterlimit:10;}
	.st93{fill:#46B000;stroke:#45413C;stroke-linecap:round;stroke-linejoin:round;stroke-miterlimit:10;}
	.st94{fill:#FFFFFF;stroke:#45413C;stroke-linejoin:round;stroke-miterlimit:10;}
	.st95{fill:#FFFFFF;stroke:#45413C;stroke-miterlimit:10;}
	.st96{fill:#009FD9;}
	.st97{fill:#00DFEB;}
	.st98{fill:#C0DCEB;stroke:#45413C;stroke-linecap:round;stroke-linejoin:round;stroke-miterlimit:10;}
	.st99{fill:#00DFEB;stroke:#45413C;stroke-linecap:round;stroke-linejoin:round;stroke-miterlimit:10;}
	.st100{fill:#FFE5EE;stroke:#45413C;stroke-linecap:round;stroke-linejoin:round;stroke-miterlimit:10;}
	.st101{fill:#8CA4B8;}
	.st102{fill:#ADC4D9;}
	.st103{fill:#656769;stroke:#45413C;stroke-linecap:round;stroke-linejoin:round;stroke-miterlimit:10;}
	.st104{fill:#F0F0F0;stroke:#45413C;stroke-linecap:round;stroke-linejoin:round;stroke-miterlimit:10;}
	.st105{fill:#C0DCEB;}
	.st106{fill:#45413C;}
	.st107{fill:#FFCABF;}
	.st108{fill:#87898C;stroke:#45413C;stroke-linecap:round;stroke-linejoin:round;stroke-miterlimit:10;}
	.st109{fill:#EBCB00;stroke:#45413C;stroke-linecap:round;stroke-linejoin:round;stroke-miterlimit:10;}</style>
 <g transform="translate(-11.751 -5.4359)">
  <path d="m16.381 6.6265c-1.9055 0-3.4395 1.534-3.4395 3.4395v7.6728c0 1.9055 1.534 3.4395 3.4395 3.4395h7.6728c1.9055 0 3.4395-1.534 3.4395-3.4395v-7.6728c0-1.9055-1.534-3.4395-3.4395-3.4395z" fill="url(#linearGradient2213)" stroke-linecap="round" stroke-linejoin="round" stroke-width=".26458" style="paint-order:stroke fill markers"/>
  <path transform="matrix(.85684 0 0 .85684 12.963 6.9126)" d="m9.1933 4.2333c-0.18593 0-0.34023 0.14851-0.342 0.32847-0.00108 0.18078 0.15324 0.3328 0.3405 0.33373 0.80813 0.00607 1.4726 0.26148 2.0084 0.76518 0.5295 0.49902 0.80551 1.1904 0.81251 2.0926v7.697e-4c0.0019 0.17947 0.15633 0.3277 0.34275 0.3277 1.8e-5 0 0.0035-6.926e-4 0.0038-7.696e-4 0.18684-0.00173 0.34201-0.15236 0.3405-0.33298v-7.697e-4c-0.0044-0.52585-0.08987-1.0093-0.25711-1.4348-0.16925-0.42991-0.42652-0.81032-0.76218-1.1267-0.66289-0.6234-1.5097-0.94544-2.4842-0.95233h-0.00309zm-3.4711 0.77796c-0.13039-0.022163-0.27162 0.00208-0.41267 0.069903h-0.0112l-0.015782 0.00902c-0.26136 0.14856-0.50638 0.34774-0.73586 0.59754l-0.018037 0.019542v0.018038c-0.15878 0.19796-0.26373 0.39719-0.28788 0.59681-0.00771 0.033827-0.00757 0.064322-0.00757 0.096965 0 0.090807 0.013382 0.18309 0.041338 0.2736l0.00757 0.025558 0.015782 0.00902c0.090647 0.31099 0.29633 0.79496 0.7464 1.6145 0.29976 0.5432 0.60605 0.99697 0.91023 1.3793 0.16024 0.20093 0.34177 0.41012 0.55244 0.62086 0.00247 0.0025 0.011349 0.01158 0.021047 0.0203 0.00335 0.0033 8e-3 0.01029 0.019535 0.02179l0.021047 0.02105h0.00145c0.00742 0.0074 0.012363 0.0128 0.013527 0.01429l0.00378 0.0045 0.00378 0.0038c0.21069 0.20839 0.41849 0.391 0.62161 0.55021 0.38172 0.30422 0.83537 0.61294 1.3785 0.91323 0.82048 0.45265 1.309 0.65723 1.6183 0.7464l0.01132 0.01353 0.01879 0.0067c0.08762 0.02921 0.17881 0.04271 0.26909 0.04134 0.03662 0.0021 0.06903-5.77e-4 0.09996-0.0075 0.21185-0.02478 0.42159-0.12508 0.62914-0.29915l0.0023-0.0031 0.0023-0.0015c0.0032-0.0032 0.0013-0.0016 0.0031-0.0038 0.0019-0.0016 0.0026-0.0037 0.0045-0.0053 0.24564-0.22417 0.44389-0.468 0.59305-0.72908l0.0097-0.01654v-0.01567c0.13716-0.28529 0.08291-0.57654-0.13964-0.76218-0.0054-0.0047-0.11238-0.09406-0.24504-0.20219-0.13601-0.1104-0.2969-0.24035-0.40554-0.32006-0.20554-0.15205-0.52323-0.34872-0.7043-0.44949h-7.69e-4c-0.3478-0.19485-0.71122-0.081654-0.87116 0.12545l-0.28036 0.35102c-0.11306 0.14247-0.33901 0.12888-0.345 0.12853-1.9017-0.48925-2.4129-2.4014-2.4165-2.415-3.388e-4 -0.00598-0.013964-0.23232 0.12852-0.34726l0.34951-0.27961c0.20761-0.15901 0.32433-0.52238 0.12853-0.87116-0.10214-0.18031-0.29966-0.50037-0.44949-0.7043h-7.694e-4c-0.08032-0.10824-0.20986-0.27009-0.3202-0.40589-0.055171-0.067897-0.1054-0.13004-0.14207-0.17438-0.018342-0.02217-0.033077-0.040077-0.043593-0.052615-0.00523-0.00627-0.00975-0.010674-0.0128-0.014283-0.0016-0.00181-0.00247-0.00299-0.00378-0.00451-0.096874-0.11502-0.22033-0.18509-0.35629-0.20821zm3.4914 0.76218c-0.18339-0.012931-0.34817 0.12448-0.36154 0.30141-0.013382 0.17712 0.1295 0.3351 0.31268 0.34801 0.453 0.032015 0.75868 0.16519 0.98843 0.40812v7.696e-4c0.23448 0.24745 0.34116 0.53004 0.33223 0.91627v0.0015c-0.0039 0.17771 0.14509 0.32832 0.32922 0.33221h0.0083c0.18144 0 0.3327-0.14323 0.33673-0.31869 0.01235-0.53081-0.16049-1.0045-0.50888-1.3718-0.34998-0.36912-0.8458-0.57584-1.4371-0.61786z" filter="url(#filter907)" opacity=".15" stroke-width=".38484"/>
  <path d="m20.841 10.54c-0.15931 0-0.29152 0.12725-0.29304 0.28145-9.26e-4 0.1549 0.1313 0.28516 0.29176 0.28595 0.69244 0.0052 1.2618 0.22405 1.7209 0.65564 0.4537 0.42758 0.6902 1.02 0.69619 1.793v6.61e-4c0.0016 0.15378 0.13395 0.28079 0.29368 0.28079 1.5e-5 0 3e-3 -5.82e-4 0.0033-6.62e-4 0.16009-0.0015 0.29305-0.13055 0.29176-0.28531v-6.62e-4c-0.0038-0.45057-0.077-0.86481-0.2203-1.2294-0.14502-0.36836-0.36546-0.69432-0.65307-0.9654-0.56799-0.53416-1.2936-0.81009-2.1286-0.816h-0.0026zm-2.9742 0.66659c-0.11172-0.01899-0.23274 0.0018-0.35359 0.0599h-0.0096l-0.01352 0.0077c-0.22394 0.12729-0.43389 0.29796-0.63052 0.512l-0.01545 0.01675v0.01546c-0.13605 0.16962-0.22598 0.34033-0.24667 0.51137-0.0066 0.02898-0.0065 0.05511-0.0065 0.08308 0 0.07781 0.01147 0.15688 0.03542 0.23443l0.0065 0.0219 0.01352 0.0077c0.07767 0.26647 0.25391 0.68116 0.63955 1.3834 0.25685 0.46544 0.51929 0.85425 0.77992 1.1818 0.1373 0.17217 0.29284 0.35141 0.47335 0.53198 0.0021 0.0021 0.0097 0.0099 0.01803 0.01739 0.0029 0.0028 0.0069 0.0088 0.01674 0.01867l0.01803 0.01804h0.0012c0.0064 0.0063 0.01059 0.01097 0.01159 0.01224l0.0032 0.0039 0.0032 0.0033c0.18053 0.17856 0.35858 0.33502 0.53262 0.47144 0.32707 0.26067 0.71578 0.52519 1.1812 0.7825 0.70302 0.38785 1.1216 0.56314 1.3866 0.63955l0.0097 0.01159 0.0161 0.0057c0.07508 0.02503 0.15321 0.0366 0.23057 0.03542 0.03138 0.0018 0.05915-5.03e-4 0.08565-0.0064 0.18152-0.02123 0.36124-0.10717 0.53907-0.25632l2e-3 -0.0027 2e-3 -0.0013c0.0027-0.0027 0.0011-0.0014 0.0027-0.0033 0.0016-0.0013 0.0022-0.0032 0.0039-0.0045 0.21048-0.19208 0.38034-0.401 0.50815-0.62471l0.0083-0.01417v-0.01343c0.11752-0.24445 0.07104-0.494-0.11965-0.65307-0.0046-4e-3 -0.09629-0.08059-0.20996-0.17324-0.11654-0.0946-0.2544-0.20594-0.34748-0.27424-0.17612-0.13028-0.44833-0.2988-0.60347-0.38514h-6.62e-4c-0.29801-0.16696-0.6094-0.06996-0.74645 0.10749l-0.24022 0.30077c-0.09687 0.12208-0.29048 0.11043-0.29561 0.11013-1.6295-0.41921-2.0675-2.0576-2.0706-2.0693-2.91e-4 -0.0051-0.01197-0.19906 0.11012-0.29755l0.29948-0.23958c0.17789-0.13625 0.2779-0.4476 0.11013-0.74645-0.08752-0.1545-0.25676-0.42874-0.38514-0.60347h-6.61e-4c-0.06882-0.09275-0.17982-0.23142-0.27436-0.34778-0.04727-0.05818-0.09031-0.11142-0.12173-0.14942-0.01572-0.019-0.02834-0.03434-0.03735-0.04508-0.0045-0.0054-0.0084-0.0091-0.01097-0.01224-0.0013-0.0015-0.0021-0.0026-0.0032-0.0039-0.08301-0.09855-0.18879-0.15859-0.30528-0.1784zm2.9916 0.65307c-0.15714-0.01108-0.29833 0.10666-0.30978 0.25826-0.01147 0.15176 0.11096 0.28713 0.26792 0.29819 0.38815 0.02743 0.65007 0.14154 0.84693 0.34969v6.62e-4c0.20091 0.21203 0.29232 0.45416 0.28467 0.7851v0.0013c-0.0033 0.15227 0.12432 0.28132 0.28209 0.28465h0.0071c0.15546 0 0.28507-0.12272 0.28852-0.27307 0.01058-0.45482-0.13752-0.8607-0.43603-1.1754-0.29988-0.31628-0.72472-0.4934-1.2314-0.52941z" fill="#fff" stroke-width=".32975"/>
 </g>
</svg>
