<?xml version="1.0" encoding="UTF-8"?>
<svg width="64" height="64" version="1.1" viewBox="0 0 16.933 16.933" xmlns="http://www.w3.org/2000/svg" xmlns:cc="http://creativecommons.org/ns#" xmlns:dc="http://purl.org/dc/elements/1.1/" xmlns:rdf="http://www.w3.org/1999/02/22-rdf-syntax-ns#" xmlns:xlink="http://www.w3.org/1999/xlink">
 <defs>
  <linearGradient id="linearGradient2040" x1="32.001" x2="32.001" y1="13.739" y2="52.577" gradientTransform="matrix(.26458 0 0 .26458 3.8253 1.5789)" gradientUnits="userSpaceOnUse">
   <stop stop-color="#76dd38" offset="0"/>
   <stop stop-color="#14ab4b" offset="1"/>
  </linearGradient>
  <filter id="g" x="-.053572" y="-.068181" width="1.1071" height="1.1364" color-interpolation-filters="sRGB">
   <feGaussianBlur stdDeviation="0.81521739"/>
  </filter>
  <linearGradient id="linearGradient2716" x1="32" x2="32" y1="17.652" y2="46.348" gradientTransform="matrix(.26458 0 0 .26458 3.8256 1.5789)" gradientUnits="userSpaceOnUse">
   <stop stop-color="#fbfbfb" offset="0"/>
   <stop stop-color="#c4e4de" offset="1"/>
  </linearGradient>
 </defs>
 <metadata>
  <rdf:RDF>
   <cc:Work rdf:about="">
    <dc:format>image/svg+xml</dc:format>
    <dc:type rdf:resource="http://purl.org/dc/dcmitype/StillImage"/>
   </cc:Work>
  </rdf:RDF>
 </metadata>
 <style type="text/css">.st0{opacity:0.15;fill:#45413C;}
	.st1{fill:#FFE500;}
	.st2{fill:#EBCB00;}
	.st3{fill:none;stroke:#45413C;stroke-linecap:round;stroke-linejoin:round;stroke-miterlimit:10;}
	.st4{fill:#FFAA54;}
	.st5{fill:#FF8A14;}
	.st6{fill:#FFB0CA;stroke:#45413C;stroke-linecap:round;stroke-linejoin:round;stroke-miterlimit:10;}
	.st7{fill:#FF87AF;stroke:#45413C;stroke-linecap:round;stroke-linejoin:round;stroke-miterlimit:10;}
	.st8{fill:#FFCC99;}
	.st9{fill:#FFFFFF;}
	.st10{fill:#F0F0F0;}
	.st11{fill:#BF8256;}
	.st12{fill:#915E3A;}
	.st13{fill:#DEA47A;}
	.st14{fill:#F0D5A8;}
	.st15{fill:#DEBB7E;}
	.st16{fill:#F7E5C6;}
	.st17{fill:#FF8A14;stroke:#45413C;stroke-linecap:round;stroke-linejoin:round;stroke-miterlimit:10;}
	.st18{fill:#FFF5E3;}
	.st19{fill:#FFF48C;}
	.st20{fill:#FFFACF;}
	.st21{fill:#FFFCE5;}
	.st22{fill:#FF87AF;}
	.st23{fill:#FFB0CA;}
	.st24{fill:#FFE500;stroke:#45413C;stroke-linecap:round;stroke-linejoin:round;stroke-miterlimit:10;}
	.st25{fill:#9CEB60;stroke:#45413C;stroke-linecap:round;stroke-linejoin:round;stroke-miterlimit:10;}
	.st26{fill:#FFFACF;stroke:#45413C;stroke-linecap:round;stroke-linejoin:round;stroke-miterlimit:10;}
	.st27{fill:#00F5BC;stroke:#45413C;stroke-linecap:round;stroke-linejoin:round;stroke-miterlimit:10;}
	.st28{fill:#BF8256;stroke:#45413C;stroke-linecap:round;stroke-linejoin:round;stroke-miterlimit:10;}
	.st29{fill:#FFE3CF;stroke:#45413C;stroke-linecap:round;stroke-linejoin:round;stroke-miterlimit:10;}
	.st30{fill:#FF6242;}
	.st31{fill:#FF866E;}
	.st32{fill:none;stroke:#E04122;stroke-linecap:round;stroke-linejoin:round;stroke-miterlimit:10;}
	.st33{fill:#FFFEF2;stroke:#45413C;stroke-linecap:round;stroke-linejoin:round;stroke-miterlimit:10;}
	.st34{fill:#FF6242;stroke:#45413C;stroke-linecap:round;stroke-linejoin:round;stroke-miterlimit:10;}
	.st35{fill:#FFA694;}
	.st36{fill:#FFFFFF;stroke:#45413C;stroke-linecap:round;stroke-linejoin:round;stroke-miterlimit:10;}
	.st37{fill:#FFFEF2;}
	.st38{fill:#FF6196;}
	.st39{fill:#B89558;}
	.st40{fill:none;stroke:#915E3A;stroke-linecap:round;stroke-linejoin:round;stroke-miterlimit:10;}
	.st41{fill:#DEBB7E;stroke:#45413C;stroke-linecap:round;stroke-linejoin:round;stroke-miterlimit:10;}
	.st42{fill:#6DD627;stroke:#45413C;stroke-linecap:round;stroke-linejoin:round;stroke-miterlimit:10;}
	.st43{fill:#E5F8FF;}
	.st44{fill:#E8F4FA;}
	.st45{fill:#E8F4FA;stroke:#45413C;stroke-linecap:round;stroke-linejoin:round;stroke-miterlimit:10;}
	.st46{fill:#FFCCDD;}
	.st47{fill:#E5F8FF;stroke:#45413C;stroke-linecap:round;stroke-linejoin:round;stroke-miterlimit:10;}
	.st48{fill:#00B8F0;stroke:#45413C;stroke-linecap:round;stroke-linejoin:round;stroke-miterlimit:10;}
	.st49{fill:#00B8F0;}
	.st50{fill:#4ACFFF;}
	.st51{fill:#E04122;}
	.st52{fill:#E04122;stroke:#45413C;stroke-linecap:round;stroke-linejoin:round;stroke-miterlimit:10;}
	.st53{fill:#87898C;}
	.st54{fill:#BDBEC0;}
	.st55{fill:#656769;}
	.st56{fill:#525252;}
	.st57{fill:#FFF48C;stroke:#45413C;stroke-linecap:round;stroke-linejoin:round;stroke-miterlimit:10;}
	.st58{fill:#6DD627;}
	.st59{fill:#EB6D00;}
	.st60{fill:#46B000;}
	.st61{fill:#80DDFF;}
	.st62{fill:#DAEDF7;}
	.st63{fill:#BF8DF2;stroke:#45413C;stroke-linecap:round;stroke-linejoin:round;stroke-miterlimit:10;}
	.st64{fill:#9F5AE5;stroke:#45413C;stroke-linecap:round;stroke-linejoin:round;stroke-miterlimit:10;}
	.st65{fill:#C8FFA1;}
	.st66{fill:#E4FFD1;}
	.st67{fill:#9CEB60;}
	.st68{fill:#E5FEFF;}
	.st69{fill:#B8ECFF;}
	.st70{fill:#E0E0E0;stroke:#45413C;stroke-linecap:round;stroke-linejoin:round;stroke-miterlimit:10;}
	.st71{fill:#E0E0E0;}
	.st72{fill:none;stroke:#4F4B45;stroke-linejoin:round;stroke-miterlimit:10;}
	.st73{fill:none;stroke:#4F4B45;stroke-linecap:round;stroke-linejoin:round;stroke-miterlimit:10;}
	.st74{fill:#E0366F;stroke:#45413C;stroke-linecap:round;stroke-linejoin:round;stroke-miterlimit:10;}
	.st75{fill:none;stroke:#45413C;stroke-miterlimit:10;}
	.st76{fill:#FF866E;stroke:#45413C;stroke-linecap:round;stroke-linejoin:round;stroke-miterlimit:10;}
	.st77{fill:#45413C;stroke:#45413C;stroke-linecap:round;stroke-linejoin:round;stroke-miterlimit:10;}
	.st78{fill:#9F5AE5;}
	.st79{fill:#803EC2;}
	.st80{fill:#803EC2;stroke:#45413C;stroke-linecap:round;stroke-linejoin:round;stroke-miterlimit:10;}
	.st81{fill:#BF8DF2;}
	.st82{fill:#FFAA54;stroke:#45413C;stroke-linecap:round;stroke-linejoin:round;stroke-miterlimit:10;}
	.st83{fill:none;stroke:#45413C;stroke-linejoin:round;stroke-miterlimit:10;}
	.st84{fill:#FFCCDD;stroke:#45413C;stroke-linecap:round;stroke-linejoin:round;stroke-miterlimit:10;}
	.st85{fill:#FF6196;stroke:#45413C;stroke-linecap:round;stroke-linejoin:round;stroke-miterlimit:10;}
	.st86{fill:#FFE5EE;}
	.st87{fill:#F7E5C6;stroke:#45413C;stroke-linecap:round;stroke-linejoin:round;stroke-miterlimit:10;}
	.st88{fill:#E5FFF9;}
	.st89{fill:none;stroke:#45413C;stroke-width:1.0064;stroke-linecap:round;stroke-linejoin:round;stroke-miterlimit:10;}
	.st90{fill:#4AEFF7;}
	.st91{fill:#A6FBFF;}
	.st92{fill:#E5FEFF;stroke:#45413C;stroke-linecap:round;stroke-linejoin:round;stroke-miterlimit:10;}
	.st93{fill:#46B000;stroke:#45413C;stroke-linecap:round;stroke-linejoin:round;stroke-miterlimit:10;}
	.st94{fill:#FFFFFF;stroke:#45413C;stroke-linejoin:round;stroke-miterlimit:10;}
	.st95{fill:#FFFFFF;stroke:#45413C;stroke-miterlimit:10;}
	.st96{fill:#009FD9;}
	.st97{fill:#00DFEB;}
	.st98{fill:#C0DCEB;stroke:#45413C;stroke-linecap:round;stroke-linejoin:round;stroke-miterlimit:10;}
	.st99{fill:#00DFEB;stroke:#45413C;stroke-linecap:round;stroke-linejoin:round;stroke-miterlimit:10;}
	.st100{fill:#FFE5EE;stroke:#45413C;stroke-linecap:round;stroke-linejoin:round;stroke-miterlimit:10;}
	.st101{fill:#8CA4B8;}
	.st102{fill:#ADC4D9;}
	.st103{fill:#656769;stroke:#45413C;stroke-linecap:round;stroke-linejoin:round;stroke-miterlimit:10;}
	.st104{fill:#F0F0F0;stroke:#45413C;stroke-linecap:round;stroke-linejoin:round;stroke-miterlimit:10;}
	.st105{fill:#C0DCEB;}
	.st106{fill:#45413C;}
	.st107{fill:#FFCABF;}
	.st108{fill:#87898C;stroke:#45413C;stroke-linecap:round;stroke-linejoin:round;stroke-miterlimit:10;}
	.st109{fill:#EBCB00;stroke:#45413C;stroke-linecap:round;stroke-linejoin:round;stroke-miterlimit:10;}</style>
 <g transform="translate(-3.8253 -1.5789)">
  <path d="m8.4554 2.7695c-1.9055 0-3.4395 1.534-3.4395 3.4395v7.6728c0 1.9055 1.534 3.4395 3.4395 3.4395h7.6728c1.9055 0 3.4395-1.534 3.4395-3.4395v-7.6728c0-1.9055-1.534-3.4395-3.4395-3.4395z" fill="url(#linearGradient2040)" stroke-linecap="round" stroke-linejoin="round" stroke-width=".26458" style="paint-order:stroke fill markers"/>
  <path d="m12.292 5.2139 4.8315 4.8315-4.8315 4.8315-4.8315-4.8315z" opacity=".25" stroke-width=".26458"/>
  <path transform="matrix(.26458 0 0 .26458 3.8253 1.5789)" d="m14.392 17.652-0.65217 0.65217v1.3043l0.65217 0.65217h1.9565v25.435l0.65218 0.65217h1.9565l28.696-26.739v-1.3043l-0.65217-0.65217h-11.739l-0.65218 0.65217v1.3043l0.65218 0.65217h1.9565v1.3043l-14.348 13.043v-14.348h1.9565l0.65218-0.65217v-1.3043l-0.65218-0.65217zm20.08 15.652-0.92479 0.65217-0.43826 1.3043 0.48913 0.65217h1.4113l0.92478-0.65217 0.43565-1.3043-0.48652-0.65217m-4.7948 3.913-0.39261 1.3043h1.1739l-2.4783 6.5217h3.913l0.48131-1.3043h-1.1335l2.4783-6.5217m1.5639 0-0.45652 1.3043h0.97826l-2.4783 6.5217h3.3274l0.45653-1.3043h-0.7187l1.3709-3.913h2.7717l-1.86 5.2174h3.2609l0.52174-1.3043h-0.71609l1.3683-3.913h2.6087l-1.8261 5.2174h3.4187l0.59869-1.3043h-0.91174l1.8522-5.2174-1.0448-1.3043h-1.5639l-1.3044 1.3043h-1.1087l-1.11-1.3043h-1.2378l-1.2391 1.3043h-1.3044l-1.1739-1.3043" filter="url(#g)" opacity=".25"/>
  <path d="m7.6332 6.2492-0.17255 0.17255v0.34509l0.17255 0.17255h0.51765v6.7295l0.17255 0.17255h0.51765l7.5923-7.0746v-0.34509l-0.17255-0.17255h-3.1059l-0.17255 0.17255v0.34509l0.17255 0.17255h0.51765v0.34509l-3.7962 3.4509v-3.7962h0.51765l0.17255-0.17255v-0.34509l-0.17255-0.17255zm5.3127 4.1412-0.24468 0.17255-0.11595 0.34509 0.12941 0.17255h0.3734l0.24468-0.17255 0.11526-0.34509-0.12872-0.17255m-1.2686 1.0353-0.10388 0.34509h0.31059l-0.6557 1.7255h1.0353l0.12734-0.34509h-0.2999l0.6557-1.7255m0.41377 0-0.12079 0.34509h0.25883l-0.6557 1.7255h0.88036l0.12079-0.34509h-0.19015l0.36271-1.0353h0.73333l-0.49212 1.3804h0.86276l0.13804-0.34509h-0.18946l0.36202-1.0353h0.6902l-0.48315 1.3804h0.90451l0.1584-0.34509h-0.24123l0.49005-1.3804-0.27643-0.34509h-0.41377l-0.34512 0.34509h-0.29334l-0.29368-0.34509h-0.3275l-0.32784 0.34509h-0.34512l-0.31059-0.34509" fill="url(#linearGradient2716)" stroke-width=".26458"/>
 </g>
</svg>
