<?xml version="1.0" encoding="UTF-8"?>
<svg width="64" height="64" version="1.1" viewBox="0 0 16.933 16.933" xmlns="http://www.w3.org/2000/svg" xmlns:cc="http://creativecommons.org/ns#" xmlns:dc="http://purl.org/dc/elements/1.1/" xmlns:rdf="http://www.w3.org/1999/02/22-rdf-syntax-ns#">
 <defs>
  <linearGradient id="linearGradient2116-6" x1="25.774" x2="25.774" y1="7.0342" y2="57.034" gradientTransform="matrix(.26459 0 0 .26459 -.00010197 -.00010052)" gradientUnits="userSpaceOnUse">
   <stop stop-color="#37beff" offset="0"/>
   <stop stop-color="#00a0ff" offset="1"/>
  </linearGradient>
  <filter id="filter5339-2" x="-.1891" y="-.079887" width="1.3782" height="1.1598" color-interpolation-filters="sRGB">
   <feGaussianBlur stdDeviation="0.21156371"/>
  </filter>
  <linearGradient id="linearGradient5324" x1="63.287" x2="65.972" y1="22.316" y2="22.316" gradientTransform="matrix(1.6734 0 0 1.6734 -112.17 -28.876)" gradientUnits="userSpaceOnUse">
   <stop stop-color="#faffff" offset="0"/>
   <stop stop-color="#fff" offset="1"/>
  </linearGradient>
  <linearGradient id="f-5" x1="86" x2="63" y1="19.458" y2="39" gradientTransform="matrix(.44275 0 0 .44275 -43.397 -5.6989)" gradientUnits="userSpaceOnUse">
   <stop stop-color="#99daff" offset="0"/>
   <stop stop-color="#eef9ff" offset="1"/>
  </linearGradient>
  <linearGradient id="d-39-1" x1="87" x2="63" y1="46" y2="24" gradientTransform="matrix(.44275 0 0 .44275 -43.397 -5.6989)" gradientUnits="userSpaceOnUse">
   <stop stop-color="#cfefff" offset="0"/>
   <stop stop-color="#eaf5fa" offset=".46709"/>
   <stop stop-color="#f0f5ff" offset="1"/>
  </linearGradient>
 </defs>
 <metadata>
  <rdf:RDF>
   <cc:Work rdf:about="">
    <dc:format>image/svg+xml</dc:format>
    <dc:type rdf:resource="http://purl.org/dc/dcmitype/StillImage"/>
   </cc:Work>
  </rdf:RDF>
 </metadata>
 <rect x="1.1905" y="1.1905" width="14.552" height="14.552" ry="3.4397" fill="url(#linearGradient2116-6)" stroke-width=".56198"/>
 <g transform="translate(17.404)" fill-rule="evenodd">
  <g stroke-width=".26458">
   <path transform="matrix(1.5907 0 0 1.6781 -107.06 -28.982)" d="m63.643 18.096c-0.09052 0.0101-0.17861 0.04111-0.26664 0.09922 0.13772 0.17144-0.1403 1.7855 0.20785 2.004l0.2717 0.17053v3.8922l-0.42679 0.31977c-0.32895 0.24647 0.02978 1.6662-0.05651 1.8488 0.09533 0.05818 0.23775 0.12029 0.36237 0.10514 0.03992-0.0049 0.08033-0.01602 0.1204-0.03566l1.7368-0.85162c0.18929-0.09277 0.38033-0.16953 0.38033-0.38033v-5.9043c0-0.2108-0.19104-0.28757-0.38033-0.38033l-1.7368-0.85162c-0.04007-0.01964-0.08048-0.0308-0.1204-0.03566-0.03116-0.0038-0.06181-0.0034-0.09198 0z" filter="url(#filter5339-2)" opacity=".2" style="paint-order:stroke fill markers"/>
   <path transform="matrix(1.5907 0 0 1.6781 -107.06 -28.982)" d="m57.616 23.498 5.6511-5.2228c0.25656-0.23712 0.58887-0.15304 0.58887 0.33742v1.7579l-5.2244 3.9957c-0.09136 0.07175-0.32943 0.24313-0.53715 0.04563l-0.52855-0.50251c-0.1387-0.13187-0.05988-0.30961 0.0501-0.41126z" filter="url(#filter5339-2)" opacity=".2" style="paint-order:stroke fill markers"/>
   <path transform="matrix(1.5907 0 0 1.6781 -107.06 -28.982)" d="m57.616 21.132 5.6511 5.2228c0.25656 0.23712 0.58887 0.15304 0.58887-0.33742v-1.7579l-5.2244-3.9957c-0.09136-0.07175-0.32943-0.24313-0.53715-0.04563l-0.52855 0.50251c-0.1387 0.13186-0.05988 0.30961 0.0501 0.41126z" filter="url(#filter5339-2)" opacity=".2" style="paint-order:stroke fill markers"/>
  </g>
  <g stroke-width=".44275">
   <path d="m-5.665 1.4064c-0.15148 0.016901-0.29889 0.068794-0.4462 0.16604 0.23046 0.28689-0.23478 2.9879 0.34782 3.3535l0.45467 0.28537v6.5133l-0.7142 0.53511c-0.55047 0.41245 0.049831 2.7882-0.094562 3.0938 0.15953 0.09736 0.39785 0.2013 0.60639 0.17594 0.066801-0.0082 0.13443-0.02681 0.20148-0.05967l2.9064-1.4251c0.31676-0.15524 0.63645-0.28369 0.63645-0.63645v-9.8803c0-0.35276-0.31969-0.48122-0.63645-0.63645l-2.9064-1.4251c-0.067051-0.032866-0.13468-0.051541-0.20148-0.059674-0.052141-0.00636-0.10343-0.00569-0.15392 0z" fill="url(#linearGradient5324)" style="paint-order:stroke fill markers"/>
   <path d="m-15.751 10.446 9.4566-8.7399c0.42933-0.3968 0.98542-0.2561 0.98542 0.56464v2.9417l-8.7426 6.6865c-0.15288 0.12007-0.55127 0.40686-0.89887 0.07636l-0.88448-0.84091c-0.2321-0.22067-0.1002-0.5181 0.08384-0.68821z" fill="url(#f-5)" style="paint-order:stroke fill markers"/>
   <path d="m-15.751 6.4869 9.4566 8.7399c0.42933 0.3968 0.98542 0.2561 0.98542-0.56464v-2.9417l-8.7426-6.6865c-0.15288-0.12007-0.55127-0.40686-0.89887-0.076358l-0.88448 0.84091c-0.2321 0.22066-0.1002 0.51811 0.08384 0.68821z" fill="url(#d-39-1)" style="paint-order:stroke fill markers"/>
  </g>
 </g>
</svg>
