<?xml version="1.0" encoding="UTF-8"?>
<!-- Created with Inkscape (http://www.inkscape.org/) -->
<svg width="64" height="64" version="1.1" viewBox="0 0 16.933 16.933" xmlns="http://www.w3.org/2000/svg">
 <defs>
  <linearGradient id="linearGradient1448" x1="3.9687" x2="3.9687" y1="8.9776" y2=".54085" gradientTransform="matrix(.91666 0 0 .91666 20.015 13.706)" gradientUnits="userSpaceOnUse">
   <stop stop-color="#dcdcdc" offset="0"/>
   <stop stop-color="#f0f0f0" offset="1"/>
  </linearGradient>
  <filter id="filter965-3" x="-.04812" y="-.078735" width="1.0962" height="1.1575" color-interpolation-filters="sRGB">
   <feGaussianBlur stdDeviation="0.90213586"/>
  </filter>
  <filter id="filter969-7" x="-.048336" y="-.079084" width="1.0967" height="1.1582" color-interpolation-filters="sRGB">
   <feGaussianBlur stdDeviation="0.90618094"/>
  </filter>
  <linearGradient id="linearGradient908-5" x1="12.654" x2="9.2894" y1="-42.659" y2="-39.589" gradientTransform="matrix(1.6292 0 0 1.4131 10.142 81.879)" gradientUnits="userSpaceOnUse">
   <stop stop-color="#c81446" offset="0"/>
   <stop stop-color="#be0f46" offset="1"/>
  </linearGradient>
  <linearGradient id="linearGradient917-6" x1="9.13" x2="11.57" y1="-46.409" y2="-43.045" gradientTransform="matrix(1.6292 0 0 1.4131 10.142 81.879)" gradientUnits="userSpaceOnUse">
   <stop stop-color="#f0417d" offset="0"/>
   <stop stop-color="#e64678" offset="1"/>
  </linearGradient>
  <filter id="filter979-1" x="-.0924" y="-.077" width="1.1848" height="1.154" color-interpolation-filters="sRGB">
   <feGaussianBlur stdDeviation="0.25465645"/>
  </filter>
 </defs>
 <g transform="translate(-19.31 -13.001)">
  <rect x="20.5" y="14.191" width="14.552" height="14.552" ry="3.4395" fill="url(#linearGradient1448)" stroke-opacity=".95294" stroke-width=".083152"/>
  <path transform="matrix(.19042 0 0 .19788 21.155 14.954)" d="m61.984 32h-44.994v24.363a3.9366 3.0998 0 0 0 6.4551 2.418l37.162-24.426a3.9366 3.0998 0 0 0 1.377-2.3555z" filter="url(#filter965-3)" opacity=".5" stroke-width=".039026"/>
  <path transform="matrix(.18467 0 0 .18467 21.227 15.35)" d="m20.904 4.5a3.9366 3.0998 0 0 0-3.9141 3.1367v24.363h44.994a3.9366 3.0998 0 0 0-0.9043-1.9844l-0.47266-0.37109-37.162-24.426a3.9366 3.0998 0 0 0-2.541-0.71875z" filter="url(#filter969-7)" opacity=".5" stroke-width=".039026"/>
  <path d="m33.099 21.259h-8.6198v4.6674a0.75416 0.59385 0 0 0 1.2366 0.46323l7.1193-4.6794a0.75416 0.59385 0 0 0 0.2638-0.45126z" fill="url(#linearGradient908-5)" stroke-width=".0074764"/>
  <path d="m25.229 15.991a0.75416 0.59385 0 0 0-0.74985 0.60092v4.6674h8.6198a0.75416 0.59385 0 0 0-0.17324-0.38016l-0.09055-0.07109-7.1193-4.6794a0.75416 0.59385 0 0 0-0.4868-0.1377z" fill="url(#linearGradient917-6)" stroke-width=".0074764"/>
  <path transform="matrix(.67801 0 0 .67801 21.454 15.71)" d="m8.0964 8.1265-5.4624-3.525a0.57864 0.44734 0 0 0-0.94896 0.34893v7.0322a0.57864 0.44734 0 0 0 0.94896 0.34893l5.4624-3.525a0.57864 0.44734 0 0 0 0.069422-0.62628z" filter="url(#filter979-1)" opacity=".35" stroke-width=".0056839" p-id="47316"/>
  <path d="m27.288 21.013-3.9552-2.5524a0.41898 0.32391 0 0 0-0.68712 0.25265v5.0918a0.41898 0.32391 0 0 0 0.68712 0.25265l3.9552-2.5524a0.41898 0.32391 0 0 0 0.05027-0.45347z" fill="#911941" stroke-width=".0041156" p-id="47316"/>
 </g>
</svg>
