<?xml version="1.0" encoding="UTF-8" standalone="no"?>
<svg
   xmlns:dc="http://purl.org/dc/elements/1.1/"
   xmlns:cc="http://creativecommons.org/ns#"
   xmlns:rdf="http://www.w3.org/1999/02/22-rdf-syntax-ns#"
   xmlns:svg="http://www.w3.org/2000/svg"
   xmlns="http://www.w3.org/2000/svg"
   xmlns:sodipodi="http://sodipodi.sourceforge.net/DTD/sodipodi-0.dtd"
   xmlns:inkscape="http://www.inkscape.org/namespaces/inkscape"
   id="Calculator"
   width="64"
   height="64"
   enable-background="new 0 0 1024 1024"
   image-rendering="optimizeSpeed"
   version="1.1"
   viewBox="0 0 64 64"
   sodipodi:docname="vlc.svg"
   inkscape:version="1.0.1 (3bc2e813f5, 2020-09-07)">
  <sodipodi:namedview
     pagecolor="#ffffff"
     bordercolor="#666666"
     borderopacity="1"
     objecttolerance="10"
     gridtolerance="10"
     guidetolerance="10"
     inkscape:pageopacity="0"
     inkscape:pageshadow="2"
     inkscape:window-width="1920"
     inkscape:window-height="932"
     id="namedview21"
     showgrid="false"
     inkscape:zoom="5.9765625"
     inkscape:cx="24.91279"
     inkscape:cy="35.5712"
     inkscape:window-x="0"
     inkscape:window-y="36"
     inkscape:window-maximized="1"
     inkscape:current-layer="Calculator" />
  <metadata
     id="metadata2">
    <rdf:RDF>
      <cc:Work
         rdf:about="">
        <dc:format>image/svg+xml</dc:format>
        <dc:type
           rdf:resource="http://purl.org/dc/dcmitype/StillImage" />
        <dc:title></dc:title>
      </cc:Work>
    </rdf:RDF>
  </metadata>
  <defs
     id="defs12">
    <linearGradient
       id="c"
       x1="520.32"
       x2="520.32"
       y1="-19.132"
       y2="1028.8"
       gradientTransform="matrix(.063633 0 0 .063633 -.56761 -.53897)"
       gradientUnits="userSpaceOnUse">
      <stop
         stop-color="#ffbc64"
         offset="0"
         id="stop4" />
      <stop
         stop-color="#f34f17"
         offset="1"
         id="stop6" />
    </linearGradient>
    <filter
       id="filter827"
       x="-.058125"
       y="-.062"
       width="1.1162"
       height="1.124"
       color-interpolation-filters="sRGB">
      <feGaussianBlur
         stdDeviation="0.89780662"
         id="feGaussianBlur9" />
    </filter>
    <filter
       id="filter827-6"
       x="-.058125"
       y="-.062"
       width="1.1162"
       height="1.124"
       color-interpolation-filters="sRGB">
      <feGaussianBlur
         stdDeviation="0.89780662"
         id="feGaussianBlur848" />
    </filter>
    <linearGradient
       id="linearGradient1448"
       x1="3.9687"
       x2="3.9687"
       y1="16.404"
       y2="2.6458"
       gradientTransform="matrix(3.4646,0,0,3.4646,2.6663,2.6663)"
       gradientUnits="userSpaceOnUse">
      <stop
         stop-color="#f55019"
         offset="0"
         id="stop851" />
      <stop
         stop-color="#ffbe64"
         offset="1"
         id="stop853" />
    </linearGradient>
    <filter
       id="filter861"
       x="-.027"
       y="-.027"
       width="1.054"
       height="1.054"
       color-interpolation-filters="sRGB">
      <feGaussianBlur
         stdDeviation="0.16371"
         id="feGaussianBlur856" />
    </filter>
  </defs>
  <g
     style="image-rendering:optimizeSpeed"
     id="g886"
     transform="translate(1.6932958e-5,1.6932958e-5)">
    <rect
       x="4.4995999"
       y="4.4995999"
       width="55.000999"
       height="55.000999"
       ry="13"
       fill="url(#linearGradient1448)"
       stroke-opacity="0.95294"
       stroke-width="0.31428"
       id="rect863"
       style="fill:url(#linearGradient1448)" />
    <g
       transform="translate(0,-0.11863)"
       stroke-width="6.0561"
       id="g869">
      <path
         d="m 32,36.636 c 4.6149,0 8.478,-1.5682 8.7121,-3.6152 -0.6862,-1.925 -1.4346,-4.0241 -2.1698,-6.0874 -0.5105,1.4716 -3.3298,2.5092 -6.5419,2.5092 -3.2113,0 -6.0306,-1.038 -6.5419,-2.5089 -0.73524,2.0628 -1.4828,4.1616 -2.169,6.087 0.23324,2.047 4.0956,3.6152 8.7105,3.6152 z M 32,23.69 c 2.169,0 4.1844,-0.67152 4.774,-1.7141 -0.81286,-2.2833 -1.5114,-4.2423 -1.9528,-5.4784 -0.29309,-0.82367 -1.6222,-1.2515 -2.8213,-1.2515 -1.199,0 -2.5282,0.42786 -2.8216,1.2515 -0.4406,1.2361 -1.1388,3.195 -1.9528,5.4784 0.59005,1.0426 2.6062,1.7141 4.7744,1.7141 z m 16.954,14.853 -7.2508,-2.9205 0.83487,2.3297 c -0.0421,2.4691 -4.8351,4.4365 -10.538,4.4365 -5.702,0 -10.496,-1.9675 -10.537,-4.4365 l 0.8341,-2.3297 -7.2501,2.9205 c -2.0327,0.81904 -2.1177,2.3359 -0.18922,3.3696 l 13.636,7.3119 c 1.9285,1.0337 5.0849,1.0337 7.0134,0 l 13.636,-7.3119 c 1.9288,-1.0337 1.8435,-2.5506 -0.18922,-3.3696 z"
         filter="url(#filter827)"
         opacity="0.3"
         id="path865"
         style="filter:url(#filter827-6)" />
      <path
         d="m 31.999,35.636 c 4.6149,0 8.478,-1.5682 8.7121,-3.6152 -0.6862,-1.925 -1.4346,-4.0241 -2.1698,-6.0874 -0.5105,1.4716 -3.3298,2.5092 -6.5419,2.5092 -3.2113,0 -6.0306,-1.038 -6.5419,-2.5089 -0.73524,2.0628 -1.4828,4.1616 -2.169,6.087 0.23324,2.047 4.0956,3.6152 8.7105,3.6152 z m 0,-12.946 c 2.169,0 4.1844,-0.67152 4.774,-1.7141 -0.81286,-2.2833 -1.5114,-4.2423 -1.9528,-5.4784 -0.29309,-0.82367 -1.6222,-1.2515 -2.8213,-1.2515 -1.199,0 -2.5282,0.42786 -2.8216,1.2515 -0.4406,1.2361 -1.1388,3.195 -1.9528,5.4784 0.59005,1.0426 2.6062,1.7141 4.7744,1.7141 z m 16.954,14.853 -7.2508,-2.9205 0.83487,2.3297 c -0.0421,2.4691 -4.8351,4.4365 -10.538,4.4365 -5.702,0 -10.496,-1.9675 -10.537,-4.4365 l 0.8341,-2.3297 -7.2501,2.9205 c -2.0327,0.81904 -2.1177,2.3359 -0.18922,3.3696 l 13.636,7.3119 c 1.9285,1.0337 5.0849,1.0337 7.0134,0 l 13.636,-7.3119 c 1.9288,-1.0337 1.8435,-2.5506 -0.18922,-3.3696 z"
         fill="#ffffff"
         id="path867" />
    </g>
  </g>
</svg>
