<?xml version="1.0" encoding="UTF-8"?>
<!-- Created with Inkscape (http://www.inkscape.org/) -->
<svg width="64" height="64" version="1.1" viewBox="0 0 16.933 16.933" xmlns="http://www.w3.org/2000/svg">
 <defs>
  <linearGradient id="linearGradient1666" x1="77.279" x2="132.15" y1="4.7362" y2="58.936" gradientTransform="matrix(.19242 0 0 .19242 -11.745 2.3091)" gradientUnits="userSpaceOnUse">
   <stop stop-color="#ffeb37" offset="0"/>
   <stop stop-color="#fdc31c" offset="1"/>
  </linearGradient>
  <linearGradient id="linearGradient1448" x1="3.9687" x2="3.9687" y1="15.338" y2=".54085" gradientTransform="matrix(.91666 0 0 .91666 26.674 -20.554)" gradientUnits="userSpaceOnUse">
   <stop stop-color="#333132" offset="0"/>
   <stop stop-color="#212427" offset="1"/>
  </linearGradient>
 </defs>
 <g transform="translate(-25.969 -4.3263)">
  <rect transform="scale(1,-1)" x="27.16" y="-20.069" width="14.552" height="14.552" ry="3.4395" fill="url(#linearGradient1448)" image-rendering="optimizeSpeed" stroke-opacity=".95294" stroke-width=".083152"/>
 </g>
 <path d="m4.0566 3.175c-0.44096 0-0.88167 0.44109-0.88167 0.88203v3.0866c0 0.44096 0.44071 0.88203 0.88167 0.88203s0.88203-0.44109 0.88203-0.88203v-1.3229l0.88203 0.88203v1.3229h1.3229v-0.44121c-0.013673-0.2928 0.1326-0.43908 0.44084-0.44084h0.44084v-1.3229h-1.3229l-0.88167-0.88203h1.3229c0.44097 0 0.88167-0.44071 0.88167-0.88167 0-0.44097-0.44071-0.88203-0.88167-0.88203zm5.7328 0c-0.44097 0-0.88203 0.44109-0.88203 0.88203 0 0.44096 0.44109 0.88167 0.88203 0.88167h1.3229l-0.88203 0.88203h-1.3229v1.3229h0.44084c0.2928-0.013665 0.43945 0.1326 0.44121 0.44084v0.44121h1.3229v-1.3229l0.88167-0.88203v1.3229c0 0.44096 0.44109 0.88203 0.88203 0.88203 0.44096 0 0.88203-0.44109 0.88203-0.88203v-3.0866c0-0.44097-0.44109-0.88203-0.88203-0.88203zm-3.9686 5.7324v1.3229c0 0.44096 0.44071 0.88203 0.88167 0.88203h1.3229v-1.3229h-0.44084c-0.2928 0.013673-0.43908-0.1326-0.44084-0.44084v-0.44121zm3.9686 0v0.44121c0.013665 0.2928-0.13298 0.43908-0.44121 0.44084h-0.44084v1.3229h1.3229l0.88203 0.88203h-1.3229c-0.44097 0-0.88203 0.44071-0.88203 0.88167 0 0.44096 0.44109 0.88203 0.88203 0.88203h3.0866c0.44096 0 0.88203-0.44109 0.88203-0.88203v-3.0866c0-0.44096-0.44109-0.88203-0.88203-0.88203-0.44097 0-0.88203 0.44109-0.88203 0.88203v1.3229l-0.88167-0.88203v-1.3229z" fill="url(#linearGradient1666)" stroke-width=".72727"/>
</svg>
