<?xml version="1.0" encoding="UTF-8"?>
<svg width="64" height="64" version="1.1" viewBox="0 0 64 64" xmlns="http://www.w3.org/2000/svg" xmlns:xlink="http://www.w3.org/1999/xlink">
 <defs>
  <linearGradient id="linearGradient1353" x1="30.901" x2="30.901" y1="1.2898" y2="15.843" gradientTransform="matrix(3.7796 0 0 3.7796 -85.498 -.5008)" gradientUnits="userSpaceOnUse">
   <stop stop-color="#4d4d4d" offset="0"/>
   <stop stop-color="#1a1a1a" offset="1"/>
  </linearGradient>
  <linearGradient id="linearGradient1142" x1="32" x2="32" y1="12" y2="44.296" gradientUnits="userSpaceOnUse">
   <stop stop-color="#26edfe" offset="0"/>
   <stop stop-color="#019beb" offset="1"/>
  </linearGradient>
  <linearGradient id="linearGradient15952" x1="31.898" x2="31.898" y1="45.765" y2="51.744" gradientUnits="userSpaceOnUse">
   <stop stop-color="#ff8752" offset="0"/>
   <stop stop-color="#ff2666" offset="1"/>
  </linearGradient>
 </defs>
 <rect x="4.4996" y="4.4996" width="55.001" height="55.001" rx="13.002" ry="13" fill="url(#linearGradient1353)" image-rendering="optimizeSpeed" stroke-linecap="round" stroke-width="2"/>
 <g stroke-width="1.4815">
  <path d="m32 12c-5.9259 4.4444-7.4073 10.37-7.4073 19.259-0.83407 0.7111-2.0901 1.3215-2.9167 2.0341-1.1867 1.0933-1.74 2.8115-1.4496 4.3982 0.39407 2.0029 0.7742 3.7548 1.1979 5.7696 0.23704 1.0237 1.6213 1.4998 2.4421 0.83912 1.3422-1.1452 2.3351-1.5477 3.6892-2.6706 1.0193 0.98962 2.9629 1.4815 4.4444 1.4815 1.4815 0 3.4252-0.49185 4.4444-1.4815 1.3541 1.123 2.3469 1.5255 3.6892 2.6706 0.82073 0.66073 2.205 0.18458 2.4421-0.83912 0.4237-2.0148 0.80383-3.7666 1.1979-5.7696 0.29037-1.5867-0.26299-3.3049-1.4496-4.3982-0.82666-0.71259-2.0826-1.323-2.9167-2.0341 0-8.8888-1.4815-14.815-7.4073-19.259zm0 10.37a2.9629 2.9629 0 0 1 2.9629 2.9629 2.9629 2.9629 0 0 1-2.9629 2.9629 2.9629 2.9629 0 0 1-2.9629-2.9629 2.9629 2.9629 0 0 1 2.9629-2.9629z" fill="url(#linearGradient1142)"/>
  <path d="m27.563 45.354c-0.01185-0.56876 0.61253-0.93242 1.0978-0.62549 2.0403 1.0342 4.5777 1.0051 6.618-0.03345 0.46311-0.28366 1.1437 0.05673 1.1614 0.60804 0.0059 1.2044 0.0059 2.4089 0 3.6075 0.01185 0.59057-0.76344 0.96005-1.2191 0.59639-0.35213-0.30693-0.67023-0.65312-1.012-0.9717-0.53116 1.0284-1.0342 2.0744-1.5772 3.0969-0.25449 0.48875-1.0697 0.48875-1.3286 0.0117-0.53708-1.0226-1.0401-2.0744-1.589-3.1028-0.32994 0.32438-0.64804 0.66476-1.0002 0.9717-0.46311 0.36948-1.1614 0.16437-1.1555-0.42038-0.0059-1.187 0-2.5514 0-3.7383" fill="url(#linearGradient15952)"/>
  <circle cx="32" cy="25.333" r="1.4815" fill="#c2fefe"/>
 </g>
</svg>
