<?xml version="1.0" encoding="UTF-8"?>
<svg width="64" height="64" version="1" xmlns="http://www.w3.org/2000/svg" xmlns:cc="http://creativecommons.org/ns#" xmlns:dc="http://purl.org/dc/elements/1.1/" xmlns:rdf="http://www.w3.org/1999/02/22-rdf-syntax-ns#">
 <defs>
  <linearGradient id="linearGradient1448-3" x1="3.9687" x2="3.9687" y1="8.9776" y2=".54085" gradientTransform="matrix(3.4646 0 0 3.4646 2.6665 2.6665)" gradientUnits="userSpaceOnUse">
   <stop stop-color="#dcdcdc" offset="0"/>
   <stop stop-color="#f0f0f0" offset="1"/>
  </linearGradient>
 </defs>
 <metadata>
  <rdf:RDF>
   <cc:Work rdf:about="">
    <dc:format>image/svg+xml</dc:format>
    <dc:type rdf:resource="http://purl.org/dc/dcmitype/StillImage"/>
   </cc:Work>
  </rdf:RDF>
 </metadata>
 <rect x="4.4995" y="4.4995" width="55.001" height="55.001" ry="13" fill="url(#linearGradient1448-3)" stroke-opacity=".95294" stroke-width=".31428"/>
 <path d="m48.078 13.373a3.9215 3.9215 0 0 0-3.9215 3.9215 3.9215 3.9215 0 0 0 0.18382 1.1795l-6.7324 7.3832a7.8428 7.8428 0 0 0-3.2551-0.71996 7.8428 7.8428 0 0 0-7.8356 7.5861l-9.5163 1.3556c-0.53056-0.67639-1.3423-1.0717-2.202-1.0723-1.5472 8.73e-4 -2.8006 1.2561-2.7994 2.8032 8.73e-4 1.5457 1.2537 2.7985 2.7994 2.7994 1.1421-6.23e-4 2.1695-0.69461 2.5964-1.7539l9.5359-1.3633a7.8428 7.8428 0 0 0 7.4218 5.3307 7.8428 7.8428 0 0 0 7.8428-7.8428 7.8428 7.8428 0 0 0-1.371-4.4269l6.7247-7.3796a3.9215 3.9215 0 0 0 0.52848 0.04212 3.9215 3.9215 0 0 0 3.9215-3.9215 3.9215 3.9215 0 0 0-3.9215-3.9215zm-22.548 1.9607a2.9411 2.9411 0 0 0-2.9411 2.9411 2.9411 2.9411 0 0 0 2.9411 2.9411 2.9411 2.9411 0 0 0 2.9411-2.9411 2.9411 2.9411 0 0 0-2.9411-2.9411zm22.548 0a1.9607 1.9607 0 0 1 1.9607 1.9607 1.9607 1.9607 0 0 1-1.9607 1.9607 1.9607 1.9607 0 0 1-1.9607-1.9607 1.9607 1.9607 0 0 1 1.9607-1.9607zm-19.883 5.4341-1.4514 1.0684 0.97272 1.3901 1.4514-1.0723zm1.4514 2.0756-1.4476 1.0723 1.2753 1.8267 1.4514-1.0723zm4.7065 6.2154a3.9215 3.9215 0 0 1 3.9215 3.9215 3.9215 3.9215 0 0 1-3.9215 3.9215 3.9215 3.9215 0 0 1-3.9215-3.9215 3.9215 3.9215 0 0 1 3.9215-3.9215zm-19.554 5.3499c0.77432-6.06e-4 1.4022 0.62728 1.4016 1.4016 6.05e-4 0.77432-0.62728 1.4022-1.4016 1.4016-0.77287-0.0015-1.3984-0.62877-1.3978-1.4016-6.04e-4 -0.77287 0.62494-1.4001 1.3978-1.4016zm26.351 3.6763-1.3671 1.3671 1.7654 1.7731 1.3748-1.3748zm2.4088 2.4049-1.371 1.371 2.0488 2.045 1.3671-1.3671zm-12.653 0.21062-1.2217 3.0521 1.7539 0.61273 1.2178-3.0483zm16.681 2.0833a3.4312 3.4312 0 0 0-3.4312 3.4312 3.4312 3.4312 0 0 0 3.4312 3.4312 3.4312 3.4312 0 0 0 3.4312-3.4312 3.4312 3.4312 0 0 0-3.4312-3.4312zm-18.137 1.9607a2.9411 2.9411 0 0 0-2.9411 2.9411 2.9411 2.9411 0 0 0 2.9411 2.9411 2.9411 2.9411 0 0 0 2.9411-2.9411 2.9411 2.9411 0 0 0-2.9411-2.9411z" fill="#4c459c" stroke-width=".98036"/>
</svg>
