<?xml version="1.0" encoding="UTF-8"?>
<svg width="64" height="64" version="1.1" viewBox="0 0 64 64" xmlns="http://www.w3.org/2000/svg" xmlns:cc="http://creativecommons.org/ns#" xmlns:dc="http://purl.org/dc/elements/1.1/" xmlns:rdf="http://www.w3.org/1999/02/22-rdf-syntax-ns#">
 <defs>
  <linearGradient id="linearGradient1448-6" x1="3.9687" x2="3.9687" y1="8.9776" y2=".54085" gradientTransform="matrix(3.4646 0 0 3.4646 62.095 30.136)" gradientUnits="userSpaceOnUse">
   <stop stop-color="#dcdcdc" offset="0"/>
   <stop stop-color="#f0f0f0" offset="1"/>
  </linearGradient>
  <linearGradient id="linearGradient1852" x1="43.412" x2="54.219" y1="26.455" y2="33.666" gradientTransform="matrix(2.2467 0 0 2.2467 -11.492 -.85201)" gradientUnits="userSpaceOnUse">
   <stop stop-color="#0b4a88" offset="0"/>
   <stop stop-color="#104480" offset="1"/>
  </linearGradient>
  <filter id="filter1863" x="-.1691" y="-.095884" width="1.3382" height="1.1918" color-interpolation-filters="sRGB">
   <feGaussianBlur stdDeviation="2.1629198"/>
  </filter>
  <linearGradient id="linearGradient1836" x1="38.659" x2="47.451" y1="36.191" y2="24.568" gradientTransform="matrix(2.2467 0 0 2.2467 -11.492 -.85201)" gradientUnits="userSpaceOnUse">
   <stop stop-color="#027ad5" offset="0"/>
   <stop stop-color="#037cd5" offset=".38129"/>
   <stop stop-color="#0e8cdb" offset=".71609"/>
   <stop stop-color="#1582bd" offset="1"/>
  </linearGradient>
  <filter id="filter1842" x="-.089157" y="-.18894" width="1.1783" height="1.3779" color-interpolation-filters="sRGB">
   <feGaussianBlur stdDeviation="1.6718853"/>
  </filter>
  <linearGradient id="linearGradient1778" x1="38.672" x2="51.7" y1="21.846" y2="27.782" gradientTransform="matrix(2.2467 0 0 2.2467 -11.492 -.85201)" gradientUnits="userSpaceOnUse">
   <stop stop-color="#2cc3d7" offset="0"/>
   <stop stop-color="#34c1ee" offset=".31935"/>
   <stop stop-color="#2bc3d1" offset=".68534"/>
   <stop stop-color="#4bd766" offset="1"/>
  </linearGradient>
 </defs>
 <metadata>
  <rdf:RDF>
   <cc:Work rdf:about="">
    <dc:format>image/svg+xml</dc:format>
    <dc:type rdf:resource="http://purl.org/dc/dcmitype/StillImage"/>
    <dc:title>深度用户反馈-128px</dc:title>
   </cc:Work>
  </rdf:RDF>
 </metadata>
 <title>深度用户反馈-128px</title>
 <g transform="translate(-59.429 -27.47)">
  <rect x="63.928" y="31.969" width="55.001" height="55.001" ry="13" fill="url(#linearGradient1448-6)" stroke-opacity=".95294" stroke-width=".31428"/>
  <path d="m89.446 55.539c-4.5589 2.5214-6.7874 7.582-6.7894 11.574 3.72e-4 7.2978 5.8346 13.214 13.031 13.213 3.3442-0.0042 6.9447-1.5135 9.7128-3.8708 0.0336-0.0223 0.0548-0.02835 0.0906-0.05337 2.9777-2.0945 5.0336-5.2473 5.1386-5.771 0.0997-0.37754-0.35762-0.71857-0.51435-0.72576-0.15674-0.0072-0.34481 0.04411-0.34481 0.04411-0.16593 0.03885-0.34126 0.11082-0.52244 0.20667-2.0201 0.78514-5.2435 1.6914-7.2154 1.6962-7.7393 4.23e-4 -14.627-5.246-14.627-12.544 0.11975-2.0417 1.4025-3.2006 2.041-3.7686z" fill="url(#linearGradient1852)" stroke-width="2.2467"/>
  <path transform="matrix(.52954 0 0 .60208 -1.259 -2.1208)" d="m164.53 83.008c0.71669 0.07591 1.43 0.17845 2.1367 0.31641 0.78086 0.1522 1.5533 0.34188 2.3145 0.56836 0.76056 0.22626 1.5089 0.48897 2.2422 0.78711 0.73365 0.29799 1.4513 0.63108 2.1504 0.99805 0.69878 0.3675 1.378 0.7684 2.0352 1.2012 0.65717 0.43278 1.2914 0.8969 1.9004 1.3906 0.59337 0.48013 2.9937 2.4046 4.6523 5.3984 0.22766 0.0626 0.4545 0.12477 0.67579 0.20117 0.29375 0.10157 0.58146 0.21488 0.86132 0.33984 0.28013 0.12485 0.55296 0.26117 0.81641 0.4082 0.26359 0.14693 0.51746 0.30497 0.76172 0.47266 0.24402 0.16723 0.47688 0.34306 0.69922 0.5293 0.22229 0.1869 0.43453 0.3838 0.63281 0.58789 0.19819 0.20349 0.38238 0.41422 0.55469 0.63281 0.17268 0.21943 0.33168 0.44531 0.47656 0.67773 0.14472 0.23162 0.27495 0.47065 0.39062 0.71289 0.11526 0.24256 0.21577 0.4895 0.30079 0.74023 0.0857 0.25091 0.15642 0.50509 0.21093 0.76172 0.0154 0.09048 0.0294 0.18059 0.041 0.27149 0.0341 0.0323 0.0676 0.0532 0.10156 0.0859-0.18261-2.2982-0.52604-3.1817-2.0156-6.1035-1.825-3.1188-4.5957-5.1168-5.2656-5.6074-0.66945-0.49125-1.3674-0.95221-2.0898-1.3828-0.72242-0.4306-1.4682-0.82966-2.2363-1.1953-0.76848-0.36512-1.5587-0.69765-2.3652-0.99414-0.80613-0.29664-1.6287-0.55808-2.4648-0.7832-0.83675-0.22534-1.6846-0.41301-2.543-0.56445-0.85819-0.15163-1.7244-0.26553-2.5957-0.3418-0.79011-0.06914-1.5849-0.10281-2.3789-0.10938zm10.693 10.16c-0.20527 0-0.41049 0.0063-0.61523 0.01953-0.29001 0.01886-0.57878 0.0508-0.86524 0.0957-0.28551 0.04392-0.56841 0.1006-0.84765 0.16992-0.27981 0.07022-0.55555 0.15299-0.82617 0.24805-0.27074 0.09475-0.53606 0.20167-0.79493 0.32031-0.25836 0.1188-0.50997 0.24919-0.7539 0.39062-0.2446 0.14096-0.48123 0.29282-0.70899 0.45508-5.1522 2.8862-11.017 9.5642-11.4 19.336 0.0166 5.2987 1.9468 10.43 5.4648 14.527 3.7304 4.3704 10.122 8.5438 19.434 7.5312-7.8376-0.39085-13.401-3.9432-16.873-7.625-3.8675-4.077-5.9896-9.183-6.0078-14.455 0.42149-9.7226 6.8693-16.367 12.533-19.238 0.25038-0.16144 0.51041-0.31288 0.7793-0.45312 0.26817-0.14072 0.5441-0.27047 0.82813-0.38867 0.28457-0.11804 0.57542-0.22408 0.87304-0.31836 0.2975-0.09458 0.60061-0.17622 0.90821-0.24609 0.28126-0.06319 0.56637-0.11426 0.85351-0.15625-0.0837-0.01761-0.16571-0.04127-0.25-0.05664-0.28476-0.05201-0.57222-0.09111-0.86133-0.11719-0.28881-0.02619-0.5789-0.0391-0.86914-0.03906zm13.885 42.82c-1.7373 0.24051-3.3754 0.31842-4.9375 0.28711-1.1667 0.50706-3.1194 0.74705-4.9531 0.87109 1.8269-0.0149 7.7472-0.0667 9.8906-1.1582z" filter="url(#filter1863)" opacity=".2"/>
  <path d="m84.755 48.404c-0.33506 2.07e-4 -0.67002 0.01191-1.0042 0.03481-0.47196 0.03198-0.94198 0.0866-1.4083 0.1637-0.46659 0.07755-0.92884 0.17753-1.385 0.29952-0.4561 0.12188-0.90556 0.26565-1.3467 0.43073-0.44127 0.16486-0.87368 0.35084-1.2956 0.55726-0.42172 0.20651-0.83243 0.4332-1.2306 0.67917-0.39858 0.24601-0.78413 0.51103-1.1552 0.79411-0.37065 0.28304-0.72635 0.5837-1.0658 0.90091-0.33949 0.31748-0.66225 0.65111-0.9671 0.99961-0.30503 0.34821-0.59175 0.71089-0.85912 1.0867-0.26728 0.37564-0.51489 0.76389-0.74185 1.1633-0.10485 0.19656-0.20472 0.39552-0.29952 0.59674-0.37946 1.4966-0.57539 3.0296-0.58398 4.5684 0.0045 4.1379 1.3628 8.1731 3.8892 11.554 3.9784 5.3378 10.457 8.5157 17.369 8.5205 0.83394-0.0083 4.3015-0.01625 5.5061-0.6942-5.9233 0.90599-9.9482-1.6841-12.26-4.392-2.0912-2.4356-3.2386-5.4857-3.2484-8.6353 0.2279-5.8085 3.714-9.7779 6.7766-11.494 0.13539-0.09645 0.27602-0.18672 0.42143-0.2705 0.145-0.08407 0.29456-0.16158 0.44814-0.23219 0.15388-0.07052 0.31159-0.13408 0.47252-0.1904 0.16086-0.05651 0.32478-0.1057 0.4911-0.14745 0.16598-0.0412 0.33415-0.0749 0.50386-0.10101 0.17028-0.02668 0.34192-0.04567 0.51431-0.05689 0.1217-0.0079 0.2437-0.01168 0.36571-0.01168 0.17252-2.5e-5 0.34495 0.0076 0.51664 0.02321 0.17185 0.0155 0.34273 0.03876 0.51199 0.06967 0.16881 0.03077 0.33581 0.06915 0.50038 0.11494 0.16502 0.04606 0.32736 0.09953 0.48645 0.16021 0.15884 0.06068 0.31422 0.12851 0.46555 0.20316 0.15147 0.07459 0.29872 0.15596 0.44118 0.24381 0.14253 0.08778 0.28007 0.18194 0.41215 0.28211 0.13195 0.09991 0.25825 0.20568 0.37847 0.31694 0.1202 0.11166 0.2341 0.22869 0.34134 0.35062 0.10717 0.12157 0.20752 0.2479 0.30069 0.37847 0.09337 0.13109 0.1794 0.26632 0.25774 0.40519 0.07824 0.13837 0.14876 0.2802 0.21132 0.42491 0.06233 0.14491 0.11656 0.29254 0.16256 0.44232 0.04634 0.1499 0.08429 0.30179 0.11377 0.45511 0.0083 0.05406 0.01587 0.10824 0.02192 0.16255 0.01852 0.01931 0.03628 0.03156 0.05458 0.05109-0.098686-1.373-0.28347-1.901-1.0889-3.6466-0.98679-1.8632-2.4857-3.0564-2.8479-3.3493-0.36198-0.29348-0.73899-0.56937-1.1296-0.82661-0.39063-0.25724-0.79438-0.49555-1.2097-0.71399-0.41552-0.21813-0.84214-0.41613-1.2782-0.59325-0.43588-0.17722-0.88069-0.33338-1.3328-0.46787-0.45243-0.13462-0.9116-0.24738-1.3757-0.33785-0.46403-0.09059-0.9325-0.15877-1.4036-0.20433-0.47104-0.04554-0.94414-0.06841-1.4176-0.0685z" fill="url(#linearGradient1836)" stroke-width="2.2467"/>
  <path transform="matrix(.61035 0 0 .57971 -13.357 -.18588)" d="m183.55 104.33c0.17802-0.50501 0.43978-0.86417 0.52344-1.5879 0.0442-1.5214-0.11541-3.0129-0.46484-4.4531-0.34944-1.4402-0.88758-2.829-1.6035-4.1445s-1.6088-2.5578-2.6641-3.7051c-1.0553-1.1472-2.2731-2.1993-3.6406-3.1348-0.98921-0.68007-2.0365-1.283-3.1289-1.8047-1.0924-0.52164-2.2309-0.96253-3.4024-1.3184-1.1714-0.35583-2.3754-0.62595-3.6016-0.80859s-2.4737-0.27722-3.7305-0.2793c-1.2146 8.3e-4 -2.4348 0.09607-3.6426 0.28125s-2.4035 0.45954-3.5723 0.81641c-1.1687 0.35687-2.3106 0.7966-3.4082 1.3125s-2.1501 1.1092-3.1445 1.7715c-0.99439 0.66226-1.93 1.3935-2.7891 2.1895-0.85906 0.79597-1.6424 1.6553-2.334 2.5723-0.69163 0.91701-1.2911 1.8926-1.7832 2.918-0.49208 1.0254-0.87627 2.1015-1.1367 3.2227 0.0656-0.85916 0.32221-1.6689 0.45704-2.5117-0.70891 2.6958-1.2228 5.4703-1.4082 8.3398 2.1252-10.803 12.336-18.16 22.248-18.168 5.1275 0.01002 10.105 1.7956 14.141 5.0723 4.2341 3.4202 7.0457 8.1411 8.0859 13.42z" filter="url(#filter1842)" opacity=".2"/>
  <path d="m93.072 38.579c-11.062 0.0092-20.537 8.5429-21.329 18.925 1.2385-5.3313 7.1886-8.9622 12.965-8.9662 2.9881 0.0049 5.8885 0.88608 8.2405 2.503 3.2516 2.2243 5.0828 5.5589 4.9777 9.1765-0.19575 1.6934-0.85416 2.0712-1.7542 3.5616-0.15578 0.42201-0.24399 0.82819 0.3855 1.271 0.32574 0.22471 1.3896 0.76908 1.7453 0.90361 0.3554 0.13414 0.71808 0.25233 1.0867 0.35411 0.36885 0.10178 0.74313 0.18705 1.1215 0.25539 0.37806 0.06845 0.75973 0.12 1.1436 0.1544 0.38422 0.03477 0.77015 0.05208 1.1563 0.05227 0.27311-2.75e-4 0.5461-0.0091 0.81848-0.02684 0.38481-0.02419 0.76802-0.06576 1.1482-0.1242 0.38053-0.05862 0.75755-0.13414 1.1296-0.2264 0.37195-0.0923 0.7385-0.20123 1.0983-0.32622 0.3594-0.12469 0.71163-0.26533 1.0553-0.42143 0.34414-0.15636 0.6793-0.32803 1.0042-0.51431 2.3341-1.805 3.5884-3.2541 4.3578-5.7941 0.0276-0.14311 0.35623-0.89633 0.35623-2.3186-0.0101-2.247-0.12469-3.3351-0.82828-5.5518-3.0177-7.7225-10.966-12.875-19.878-12.887z" fill="url(#linearGradient1778)" stroke-width="2.2467"/>
 </g>
</svg>
