<?xml version="1.0" encoding="UTF-8"?>
<svg width="64" height="64" enable-background="new" version="1.0" viewBox="0 0 64 64" xmlns="http://www.w3.org/2000/svg" xmlns:cc="http://creativecommons.org/ns#" xmlns:dc="http://purl.org/dc/elements/1.1/" xmlns:rdf="http://www.w3.org/1999/02/22-rdf-syntax-ns#" xmlns:xlink="http://www.w3.org/1999/xlink">
 <metadata>
  <rdf:RDF>
   <cc:Work rdf:about="">
    <dc:format>image/svg+xml</dc:format>
    <dc:type rdf:resource="http://purl.org/dc/dcmitype/StillImage"/>
    <dc:title>Adwaita Icon Template</dc:title>
   </cc:Work>
  </rdf:RDF>
 </metadata>
 <title>Adwaita Icon Template</title>
 <defs>
  <linearGradient id="linearGradient2116" x1="31.101" x2="31.101" y1="4.6046" y2="59.409" gradientUnits="userSpaceOnUse">
   <stop stop-color="#528af0" offset="0"/>
   <stop stop-color="#2556ae" offset="1"/>
  </linearGradient>
 </defs>
 <rect x="4.5" y="4.5" width="55" height="55" ry="13" fill="url(#linearGradient2116)" stroke-width="2.124"/>
 <g transform="matrix(3.7796 0 0 3.7796 -155.22 -24.532)" fill="#5e4aa6" stroke-width=".26458">
  <circle cx="-330.35" cy="-328.38" r="0"/>
  <circle cx="-312.11" cy="-326.25" r="0"/>
  <circle cx="-306.02" cy="-333.07" r="0"/>
  <circle cx="-308.84" cy="-326.01" r="0"/>
 </g>
 <g transform="matrix(.55636 0 0 .55636 -6.2812 -100.73)">
  <g transform="translate(-3e-5,-160)" enable-background="new">
   <path d="m88 364s-16 0-16 16v16h-12v16h12v36h16v-36h14l2-16h-16v-12c0-4 4-4 4-4h12v-16z" color="#000000" enable-background="new" fill="#fff" style="text-decoration-line:none;text-indent:0;text-transform:none"/>
  </g>
 </g>
</svg>
