<?xml version="1.0" encoding="UTF-8"?>
<svg width="64" height="64" version="1.1" xmlns="http://www.w3.org/2000/svg" xmlns:cc="http://creativecommons.org/ns#" xmlns:dc="http://purl.org/dc/elements/1.1/" xmlns:rdf="http://www.w3.org/1999/02/22-rdf-syntax-ns#" xmlns:xlink="http://www.w3.org/1999/xlink">
 <rect x="4.4995" y="4.4995" width="55.001" height="55.001" ry="13" fill="url(#linearGradient1448)" stroke-opacity=".95294" stroke-width=".31428"/>
 <g transform="matrix(.51248 0 0 .51248 7.932 5.2692)">
  <path d="m11.093 25.07c-0.86117 0.1479-1.6608 0.35413-2.2312 0.9245-0.57013 0.57038-0.92438 1.6899-0.92438 2.5641v22.091h34.714v-29.697l-6.3116 0.80129z" fill="url(#linearGradient980)"/>
  <path d="m45.807 20.52v30.128h40.183v-31.531c0-0.87417-0.37151-1.6608-0.96942-2.2313-0.59792-0.57037-1.4311-1.0379-2.3401-0.9245l-30.254 3.7564z" fill="url(#linearGradient982)" stroke-width="1.0241"/>
  <path d="m7.9381 53.81v22.091c0 0.87416 0.35425 2.0553 0.92439 2.6258 0.57013 0.57037 1.3645 0.81071 2.2313 0.9245l25.247 3.3144 6.3116 0.78888v-29.744z" fill="url(#linearGradient984)"/>
  <path d="m45.807 53.81v30.165l6.6192 0.82587 30.254 3.5575c0.90939 0.11331 1.7418-0.35413 2.34-0.9245 0.59791-0.57037 0.96942-1.3571 0.96942-2.2313v-31.393z" fill="url(#linearGradient986)" stroke-width="1.0241"/>
 </g>
 <g transform="matrix(3.7796 0 0 3.7796 -284.65 -14.32)" fill="#5e4aa6" stroke-width=".26458">
  <circle cx="-322.63" cy="-345.67" r="0"/>
  <circle cx="-31.726" cy="-10.849" r="0" fill-rule="evenodd"/>
  <circle cx="-306.92" cy="-328.72" r="0"/>
 </g>
 <metadata>
  <rdf:RDF>
   <cc:Work rdf:about="">
    <dc:format>image/svg+xml</dc:format>
    <dc:type rdf:resource="http://purl.org/dc/dcmitype/StillImage"/>
    <dc:title/>
   </cc:Work>
  </rdf:RDF>
 </metadata>
 <defs>
  <linearGradient id="linearGradient922">
   <stop stop-color="#91aab4" offset="0"/>
   <stop stop-color="#648291" offset="1"/>
  </linearGradient>
  <linearGradient id="linearGradient924" x1="162.61" x2="162.61" y1="15.335" y2="27.41" gradientTransform="translate(0 -.044942)" gradientUnits="userSpaceOnUse" xlink:href="#linearGradient922"/>
  <linearGradient id="linearGradient951" x1="156.58" x2="168.85" y1="15.3" y2="27.534" gradientUnits="userSpaceOnUse" xlink:href="#linearGradient922"/>
  <linearGradient id="linearGradient965" x1="162.73" x2="163.37" y1="20.333" y2="19.09" gradientTransform="matrix(1.1538,0,0,1.1538,-22.383,-3.3235)" gradientUnits="userSpaceOnUse">
   <stop stop-color="#fafafa" offset="0"/>
   <stop stop-color="#c8e6f0" offset="1"/>
  </linearGradient>
  <linearGradient id="linearGradient1448" x1="3.9687" x2="3.9687" y1="8.9776" y2=".54085" gradientTransform="matrix(3.4646 0 0 3.4646 2.6661 2.6661)" gradientUnits="userSpaceOnUse">
   <stop stop-color="#dcdcdc" offset="0"/>
   <stop stop-color="#f0f0f0" offset="1"/>
  </linearGradient>
  <linearGradient id="linearGradient980" x1="-7.6728" x2="-5.027" y1="-29.104" y2="-27.252" gradientTransform="matrix(11.928,0,0,11.928,102.62,375.7)" gradientUnits="userSpaceOnUse">
   <stop stop-color="#00bffb" offset="0"/>
   <stop stop-color="#01a0f3" offset="1"/>
  </linearGradient>
  <linearGradient id="linearGradient982" x1="-4.7624" x2="-1.852" y1="-27.252" y2="-30.123" gradientTransform="matrix(12.509,0,0,11.928,105.38,375.7)" gradientUnits="userSpaceOnUse">
   <stop stop-color="#11c2f4" offset="0"/>
   <stop stop-color="#2dc5f4" offset="1"/>
  </linearGradient>
  <linearGradient id="linearGradient984" x1="-7.6728" x2="-5.027" y1="-26.722" y2="-24.493" gradientTransform="matrix(11.928,0,0,11.928,102.62,375.7)" gradientUnits="userSpaceOnUse">
   <stop stop-color="#0954a8" offset="0"/>
   <stop stop-color="#0954a8" offset="1"/>
  </linearGradient>
  <linearGradient id="linearGradient986" x1="-4.4978" x2="-1.852" y1="-26.722" y2="-24.111" gradientTransform="matrix(12.509,0,0,11.928,105.38,375.7)" gradientUnits="userSpaceOnUse">
   <stop stop-color="#339ed9" offset="0"/>
   <stop stop-color="#2386c9" offset="1"/>
  </linearGradient>
 </defs>
 <g transform="matrix(2.0639 0 0 2.0639 -289.56 2.5373)">
  <g fill="#5a7882">
   <path d="m161.55 13.692h2.4104c0.23461 0 0.39247 0.19093 0.42349 0.42348l0.26577 1.9928c0.031 0.23255-0.18888 0.42348-0.42349 0.42348h-2.9862c-0.23461 0-0.45956-0.19166-0.42349-0.42348l0.31006-1.9928c0.0361-0.23182 0.18888-0.42348 0.4235-0.42348z"/>
   <path d="m161.55 28.962h2.4104c0.23461 0 0.39247-0.19093 0.42349-0.42348l0.26577-1.9928c0.031-0.23255-0.18888-0.42348-0.42349-0.42348h-2.9862c-0.23461 0-0.45956 0.19166-0.42349 0.42348l0.31006 1.9928c0.0361 0.23182 0.18888 0.42348 0.4235 0.42348z"/>
   <path d="m168.75 16.486 1.2052 2.0875c0.1173 0.20318 0.0309 0.43536-0.15501 0.5785l-1.5929 1.2266c-0.18589 0.14312-0.46119 0.04817-0.57849-0.15501l-1.4931-2.5862c-0.1173-0.20318-0.0638-0.49382 0.15501-0.5785l1.8808-0.72788c0.21882-0.08465 0.46119-0.04817 0.5785 0.15502z"/>
   <path d="m155.53 24.121 1.2052 2.0875c0.11731 0.20318 0.36159 0.24442 0.57849 0.15501l1.8587-0.76624c0.21689-0.08943 0.27231-0.37532 0.155-0.5785l-1.4931-2.5862c-0.11731-0.20318-0.39577-0.30216-0.5785-0.15501l-1.5708 1.2649c-0.18271 0.14718-0.2723 0.37532-0.15499 0.5785z"/>
   <path d="m169.96 24.121-1.2052 2.0875c-0.11731 0.20317-0.36158 0.24444-0.5785 0.15501l-1.8587-0.76624c-0.21689-0.08942-0.27231-0.37532-0.155-0.57849l1.4931-2.5862c0.11731-0.20317 0.39576-0.30216 0.5785-0.155l1.5708 1.2649c0.18272 0.14718 0.27231 0.37532 0.155 0.57851z"/>
   <path d="m156.74 16.486-1.2052 2.0875c-0.1173 0.20318-0.0309 0.43536 0.155 0.57849l1.5929 1.2266c0.18589 0.14312 0.46119 0.04817 0.57849-0.15501l1.4931-2.5862c0.1173-0.20318 0.0638-0.49383-0.15501-0.5785l-1.8808-0.72788c-0.21881-0.08464-0.46119-0.04816-0.57849 0.15503z"/>
  </g>
  <g stroke-dashoffset=".42096">
   <circle cx="162.73" cy="21.327" r="6.1136" fill="url(#linearGradient924)" stroke="url(#linearGradient951)" stroke-width=".079373"/>
   <circle transform="rotate(90)" cx="21.327" cy="-162.73" r="3.4398" fill="#2a495d" stroke="#4f6c7a" stroke-width="1.7617"/>
   <path transform="rotate(90)" d="m24.767-162.73a3.4398 3.4398 0 0 1-2.9901 3.4103 3.4398 3.4398 0 0 1-3.772-2.5186 3.4398 3.4398 0 0 1 2.0039-4.0689" fill="none" stroke="#00a2f3" stroke-width="1.7617"/>
  </g>
  <circle cx="165.65" cy="19.464" r="1.3453" fill="url(#linearGradient965)"/>
 </g>
</svg>
