<?xml version="1.0" encoding="UTF-8"?>
<svg width="64" height="64" version="1.1" xmlns="http://www.w3.org/2000/svg" xmlns:cc="http://creativecommons.org/ns#" xmlns:dc="http://purl.org/dc/elements/1.1/" xmlns:rdf="http://www.w3.org/1999/02/22-rdf-syntax-ns#">
 <metadata>
  <rdf:RDF>
   <cc:Work rdf:about="">
    <dc:format>image/svg+xml</dc:format>
    <dc:type rdf:resource="http://purl.org/dc/dcmitype/StillImage"/>
   </cc:Work>
  </rdf:RDF>
 </metadata>
 <defs>
  <linearGradient id="linearGradient1081" x1="1.3229" x2="15.875" y1="15.875" y2="2.6458" gradientTransform="matrix(3.7796 0 0 3.7796 53.75 34.125)" gradientUnits="userSpaceOnUse">
   <stop stop-color="#ffbe32" offset="0"/>
   <stop stop-color="#ffdc6e" offset="1"/>
  </linearGradient>
 </defs>
 <g transform="translate(-54.25 -34.625)">
  <g>
   <path d="m71.75 39.125c-7.2021 0-13 5.798-13 13v5h30v-8.0001l-6.9238-8.6544-0.04687-0.05859a3.5 3.5 0 0 0-0.07031-0.08594 3.5 3.5 0 0 0-0.10547-0.11719 3.5 3.5 0 0 0-0.11133-0.11133 3.5 3.5 0 0 0-0.11719-0.10547 3.5 3.5 0 0 0-0.11914-0.10156 3.5 3.5 0 0 0-0.125-0.0957 3.5 3.5 0 0 0-0.13086-0.08984 3.5 3.5 0 0 0-0.13281-0.08398 3.5 3.5 0 0 0-0.13672-0.07617 3.5 3.5 0 0 0-0.14062-0.07227 3.5 3.5 0 0 0-0.14258-0.06445 3.5 3.5 0 0 0-0.14649-0.05859 3.5 3.5 0 0 0-0.14844-0.05273 3.5 3.5 0 0 0-0.15039-0.04492 3.5 3.5 0 0 0-0.15234-0.03906 3.5 3.5 0 0 0-0.1543-0.03126 3.5 3.5 0 0 0-0.1543-0.0254 3.5 3.5 0 0 0-0.15625-0.01758 3.5 3.5 0 0 0-0.1582-0.0098 3.5 3.5 0 0 0-0.15626-0.0039z" fill="#e1a000"/>
   <path d="m71.75 39.125c-7.2021 0-13 5.798-13 13v29c0 7.2021 5.798 13 13 13h29c7.202 0 13-5.798 13-13v-22h-25l2-10-6.9707-8.713c-0.02298-0.0291-0.04642-0.05768-0.07031-0.08595-0.03428-0.03987-0.06944-0.07892-0.10547-0.11721-0.03628-0.03795-0.07339-0.07506-0.11133-0.11131-0.03826-0.03591-0.07734-0.07121-0.11719-0.10549-0.03895-0.03477-0.07868-0.0686-0.11914-0.10156-0.04095-0.03288-0.08262-0.06475-0.125-0.0957-0.04294-0.03099-0.08657-0.06089-0.13086-0.08984-0.04364-0.0291-0.08792-0.057-0.13281-0.08398-0.045-0.02646-0.09059-0.05178-0.13672-0.07616-0.04632-0.02532-0.09321-0.04925-0.14062-0.07227-0.04704-0.02268-0.09458-0.04403-0.14258-0.06444-0.04838-0.02079-0.09722-0.04014-0.14649-0.05858-0.04908-0.01852-0.09857-0.03628-0.14844-0.05272-0.04979-0.01625-0.09993-0.03099-0.15039-0.04494-0.05049-0.01398-0.10128-0.02721-0.15235-0.03904-0.05119-0.01172-0.10264-0.02192-0.1543-0.03137-0.05124-0.0094-0.10268-0.01814-0.1543-0.02532-0.05194-0.0072-0.10404-0.01285-0.15625-0.01776-0.05265-0.0045-0.1054-0.0076-0.1582-0.0098-0.05205-0.0024-0.10414-0.0037-0.15625-0.0038z" fill="#e1a000"/>
   <path d="m71.75 39.125c-7.2021 0-13 5.798-13 13v0.77734c0-7.2021 5.798-13 13-13h9.3204c0.05211 1e-4 0.1042 0.0015 0.15625 0.0039 0.0528 0.0023 0.10555 0.0052 0.1582 0.0098 0.05221 0.0049 0.10431 0.01039 0.15625 0.01758 0.05161 0.0072 0.10306 0.01595 0.1543 0.0254 0.05166 0.0094 0.10311 0.01954 0.1543 0.03126 0.05107 0.01183 0.10185 0.0251 0.15234 0.03906 0.05046 0.01395 0.1006 0.02869 0.15039 0.04492 0.04987 0.01644 0.09936 0.03421 0.14844 0.05273 0.04927 0.01844 0.09811 0.03781 0.14648 0.05859 0.048 0.02041 0.09554 0.04178 0.14258 0.06445 0.04741 0.02302 0.09431 0.04694 0.14062 0.07227 0.04613 0.02438 0.09172 0.04972 0.13672 0.07617 0.04489 0.02699 0.08917 0.05488 0.13281 0.08398 0.04429 0.02895 0.08792 0.05885 0.13086 0.08985 0.04238 0.03095 0.08405 0.06282 0.125 0.0957 0.04046 0.03296 0.08019 0.06679 0.11914 0.10156 0.03985 0.03428 0.07893 0.06956 0.11719 0.10547 0.03794 0.03625 0.07505 0.07338 0.11133 0.11133 0.03602 0.03829 0.07119 0.07731 0.10547 0.11719 0.02389 0.02827 0.04733 0.05683 0.07031 0.08594l0.04687 0.0586 6.7988 8.4981 0.125-0.62109-6.9238-8.6544-0.04687-0.0586c-0.02298-0.0291-0.04642-0.05767-0.07031-0.08594-0.03428-0.03988-0.06944-0.0789-0.10547-0.11719-0.03628-0.03795-0.07339-0.07508-0.11133-0.11133-0.03826-0.03591-0.07734-0.07119-0.11719-0.10547-0.03895-0.03477-0.07868-0.0686-0.11914-0.10156-0.04095-0.03288-0.08262-0.06475-0.125-0.0957-0.04294-0.03099-0.08657-0.06089-0.13086-0.08984-0.04364-0.0291-0.08792-0.057-0.13281-0.08398-0.045-0.02646-0.09059-0.0518-0.13672-0.07617-0.04632-0.02532-0.09321-0.04925-0.14062-0.07227-0.04704-0.02268-0.09458-0.04404-0.14258-0.06445-0.04838-0.02079-0.09722-0.04015-0.14648-0.05859-0.04908-0.01852-0.09857-0.03628-0.14844-0.05273-0.04979-0.01625-0.09993-0.03099-0.15039-0.04492-0.05049-0.01398-0.10128-0.02721-0.15234-0.03906-0.05119-0.01172-0.10264-0.02181-0.1543-0.03126-0.05124-0.0094-0.10268-0.01822-0.1543-0.0254-0.05194-0.0072-0.10404-0.01266-0.15625-0.01758-0.05265-0.0045-0.1054-0.0075-0.1582-0.0098-0.05205-0.0024-0.10414-0.0038-0.15625-0.0039h-9.3204zm17.113 20-0.11328 0.55078 25 0.1875v-0.73829h-24.887z" fill="#e1ffff" opacity=".2"/>
   <path d="m89.35 44.125a4.2 4.2 0 0 0-0.17188 0.0039 4.2 4.2 0 0 0-0.18945 0.01172 4.2 4.2 0 0 0-0.1875 0.02147 4.2 4.2 0 0 0-0.18555 0.03126 4.2 4.2 0 0 0-0.18555 0.03712 4.2 4.2 0 0 0-0.18164 0.04687 4.2 4.2 0 0 0-0.18164 0.05469 4.2 4.2 0 0 0-0.17773 0.0625 4.2 4.2 0 0 0-0.17578 0.07031 4.2 4.2 0 0 0-0.16992 0.07812 4.2 4.2 0 0 0-0.16992 0.08594 4.2 4.2 0 0 0-0.16406 0.0918 4.2 4.2 0 0 0-0.1582 0.09961 4.2 4.2 0 0 0-0.1582 0.10938 4.2 4.2 0 0 0-0.15039 0.11328 4.2 4.2 0 0 0-0.14258 0.12305 4.2 4.2 0 0 0-0.14062 0.12695 4.2 4.2 0 0 0-0.13281 0.13281 4.2 4.2 0 0 0-0.12695 0.14062 4.2 4.2 0 0 0-0.08398 0.10352l-0.05664 0.07031-6.709 8.3849h-20.6v27c0 7.2021 5.798 13 13 13h29c7.202 0 13-5.798 13-13v-22h-0.0295c-0.31551-8.3601-7.1304-15-15.57-15h-8.7851a4.2 4.2 0 0 0-0.01565 0z" fill="url(#linearGradient1081)"/>
   <path d="m89.35 44.125a4.2 4.2 0 0 0-0.17188 0.0039 4.2 4.2 0 0 0-0.18945 0.01172 4.2 4.2 0 0 0-0.1875 0.02147 4.2 4.2 0 0 0-0.18555 0.03126 4.2 4.2 0 0 0-0.18555 0.03712 4.2 4.2 0 0 0-0.18164 0.04687 4.2 4.2 0 0 0-0.18164 0.05469 4.2 4.2 0 0 0-0.17773 0.0625 4.2 4.2 0 0 0-0.17578 0.07031 4.2 4.2 0 0 0-0.16992 0.07812 4.2 4.2 0 0 0-0.16992 0.08594 4.2 4.2 0 0 0-0.16406 0.0918 4.2 4.2 0 0 0-0.1582 0.09961 4.2 4.2 0 0 0-0.1582 0.10938 4.2 4.2 0 0 0-0.15039 0.11328 4.2 4.2 0 0 0-0.14258 0.12305 4.2 4.2 0 0 0-0.14062 0.12695 4.2 4.2 0 0 0-0.13281 0.13281 4.2 4.2 0 0 0-0.12695 0.14062 4.2 4.2 0 0 0-0.08398 0.10352l-0.05664 0.07031-6.709 8.3849h-20.6v0.78906h21.014l6.709-8.3849 0.05664-0.07031c0.02759-0.03481 0.05532-0.0696 0.08398-0.10352 0.04113-0.04782 0.08371-0.09471 0.12695-0.14062 0.04352-0.04551 0.08924-0.08931 0.13477-0.13281 0.04593-0.04324 0.0928-0.08582 0.14062-0.12695 0.04674-0.04169 0.09402-0.08349 0.14258-0.12305 0.04913-0.03939 0.09954-0.07614 0.15039-0.11328 0.05152-0.03712 0.1031-0.07462 0.15625-0.10938 0.05237-0.03477 0.10628-0.06722 0.16016-0.09961 0.054-0.03167 0.10871-0.06258 0.16406-0.0918 0.05559-0.03016 0.11107-0.05831 0.16797-0.08594 0.05645-0.02706 0.11428-0.05362 0.17188-0.07813 0.05806-0.02476 0.11666-0.0482 0.17578-0.07031 0.05889-0.02241 0.1179-0.04277 0.17773-0.0625 0.05975-0.01931 0.11913-0.03805 0.17969-0.05469 0.06058-0.01697 0.12231-0.03262 0.18359-0.04687 0.06142-0.01387 0.12356-0.02604 0.18555-0.03712 0.06148-0.01156 0.12166-0.02245 0.18359-0.03126 0.06233-0.0085 0.12486-0.01584 0.1875-0.02147 0.06319-0.0055 0.12803-0.0091 0.19141-0.01172 0.06245-0.0029 0.12498-0.0038 0.1875-0.0039h8.3692c8.44 1e-6 15.255 6.64 15.57 15h0.0295v-0.78905h-0.0295c-0.31552-8.3601-7.1304-15-15.57-15h-8.7853a4.2 4.2 0 0 0-0.01565 0z" fill="#fff" opacity=".2"/>
   <path d="m58.75 80.455v0.66993c0 7.202 5.798 13 13 13h29c7.202 0 13-5.798 13-13v-0.66993c0 7.202-5.798 13-13 13h-29c-7.2021 0-13-5.798-13-13z" opacity=".1"/>
  </g>
  <path d="m96.317 61.175-8.5275 1.0581-1.8655 0.22558v8.4916h11.326v-8.8874c0-0.24639-0.10538-0.46761-0.27391-0.6284-0.16853-0.16077-0.40264-0.29156-0.65886-0.2596zm-11.283 1.4054-1.7796 0.22737-7.1147 0.93454c-0.24273 0.04169-0.46765 0.09884-0.6284 0.2596-0.16069 0.16077-0.26139 0.47691-0.26139 0.7233v6.2269h9.7843zm-9.7843 9.2615v6.2269c0 0.24639 0.10069 0.57862 0.26139 0.7394 0.16069 0.16075 0.38408 0.22931 0.6284 0.2614l7.1166 0.93454 1.7778 0.22201v-8.3843zm10.674 0v8.5022l1.8655 0.23275 8.5275 1.0026c0.25629 0.03175 0.49025-0.09884 0.65886-0.25958 0.16853-0.16075 0.27391-0.38378 0.27391-0.63021v-8.848z" fill="#fff" stroke-linecap="round" stroke-width="1.8333"/>
 </g>
</svg>
