<?xml version="1.0" encoding="UTF-8"?>
<svg id="Apps-Visual-Studio-Code" width="64" height="64" enable-background="new 0 0 1024 1024" image-rendering="optimizeSpeed" version="1.1" viewBox="0 0 64 64" xmlns="http://www.w3.org/2000/svg" xmlns:cc="http://creativecommons.org/ns#" xmlns:dc="http://purl.org/dc/elements/1.1/" xmlns:rdf="http://www.w3.org/1999/02/22-rdf-syntax-ns#">
 <metadata>
  <rdf:RDF>
   <cc:Work rdf:about="">
    <dc:format>image/svg+xml</dc:format>
    <dc:type rdf:resource="http://purl.org/dc/dcmitype/StillImage"/>
   </cc:Work>
  </rdf:RDF>
 </metadata>
 <defs>
  <style type="text/css"/>
  <style type="text/css"/>
  <linearGradient id="linearGradient921" x1="8.2021" x2="8.2021" y1="293.56" y2="291.71" gradientTransform="matrix(12.599 0 0 2.6996 -73.504 -737.53)" gradientUnits="userSpaceOnUse">
   <stop stop-color="#9ea7af" offset="0"/>
   <stop stop-color="#828a91" offset="1"/>
  </linearGradient>
  <linearGradient id="linearGradient61257" x1="8.089" x2="55.716" y1="7.1454" y2="46.857" gradientTransform="matrix(1.1459 0 0 1.1 -4.6667 -.94969)" gradientUnits="userSpaceOnUse">
   <stop stop-color="#555a5f" offset="0"/>
   <stop stop-color="#4b4f53" offset="1"/>
  </linearGradient>
  <linearGradient id="linearGradient1116" x1="8.089" x2="55.716" y1="7.1454" y2="46.857" gradientTransform="matrix(1.0625 0 0 1 -2.0001 1.773)" gradientUnits="userSpaceOnUse">
   <stop stop-color="#0082e5" offset="0"/>
   <stop stop-color="#41b6ff" offset="1"/>
  </linearGradient>
 </defs>
 <path d="m17.5 54h28c0.554 0 0.87963 0.45924 1 1l0.6678 3c0.12037 0.54076-0.446 1-1 1h-29.335c-0.554 0-1.1203-0.45921-1-1l0.6672-3c0.12027-0.54079 0.446-1 1-1z" color="#000000" fill="#bcc5cf" stroke-width="4.3186" style="-inkscape-stroke:none"/>
 <rect x="26.5" y="50" width="10" height="5" ry="0" fill="url(#linearGradient921)" stroke-width="5.832"/>
 <rect x="15.833" y="56.962" width="31.335" height="2.0382" ry="1.0191" fill="#43474b" fill-opacity=".99608" stroke-width="2.7573"/>
 <path d="m17.5 4.9999c-7.202 0-13 5.798-13 13v2c0-7.202 5.798-13 13-13h29c7.202 0 13 5.798 13 13v-2c0-7.202-5.798-13-13-13z" fill="#b8c2cc"/>
 <rect x="4.5" y="6.9999" width="55" height="44" ry="13" fill="url(#linearGradient61257)" stroke-linecap="round" stroke-width="5.0934"/>
 <rect x="6.5" y="8.9999" width="51" height="40" ry="11" fill="url(#linearGradient1116)" stroke-linecap="round" stroke-width="4.6764"/>
 <path d="m6.5 31v7c0 0.19044 0.0042033 0.38036 0.013672 0.56836 0.0094685 0.188 0.024258 0.37325 0.042969 0.55859s0.042588 0.37028 0.070312 0.55274c0.027725 0.18246 0.05919 0.36363 0.095703 0.54297s0.077973 0.3572 0.12305 0.5332c0.045074 0.176 0.093077 0.34905 0.14648 0.52148s0.11231 0.34308 0.17383 0.51172c0.061514 0.16864 0.12592 0.33539 0.19531 0.5 0.069395 0.16461 0.14366 0.32792 0.2207 0.48828 0.077048 0.16036 0.15771 0.31872 0.24219 0.47461 0.084474 0.15589 0.172 0.30975 0.26367 0.46094 0.091673 0.15118 0.18651 0.29906 0.28516 0.44531s0.20125 0.29054 0.30664 0.43164 0.21426 0.27835 0.32617 0.41406 0.2275 0.27029 0.3457 0.40039 0.23902 0.25659 0.36328 0.38086c0.12427 0.12427 0.25076 0.24508 0.38086 0.36328s0.26468 0.23379 0.40039 0.3457 0.27296 0.22078 0.41406 0.32617 0.28539 0.208 0.43164 0.30664c0.14626 0.098646 0.29413 0.19348 0.44531 0.28516 0.15118 0.091674 0.30505 0.1792 0.46094 0.26367s0.31424 0.16514 0.47461 0.24219c0.16036 0.077047 0.32367 0.15131 0.48828 0.2207 0.16461 0.069394 0.33136 0.1338 0.5 0.19531 0.16864 0.061515 0.33929 0.12042 0.51172 0.17383 0.17243 0.053408 0.34548 0.10141 0.52148 0.14648 0.176 0.045073 0.35386 0.086534 0.5332 0.12305 0.17934 0.036512 0.36051 0.067978 0.54297 0.095703s0.36739 0.051602 0.55274 0.070312c0.18534 0.018711 0.37059 0.033501 0.55859 0.042969 0.188 0.009469 0.37792 0.013672 0.56836 0.013672h13v-18h-24z" fill="#ededed"/>
 <path d="m8.5 44.336c0.059603 0.084688 0.11777 0.17101 0.17969 0.25391 0.10539 0.1411 0.21426 0.27835 0.32617 0.41406s0.2275 0.27029 0.3457 0.40039 0.23902 0.25659 0.36328 0.38086c0.12427 0.12427 0.25076 0.24508 0.38086 0.36328s0.26468 0.23379 0.40039 0.3457 0.27296 0.22078 0.41406 0.32617 0.28539 0.208 0.43164 0.30664c0.005096 0.003437 0.010523 0.006337 0.015625 0.009766h17.143v-12h-20v9.1992z" fill="#fcfcfd"/>
 <g fill="#282828" stroke-width=".10209">
  <circle cx="27.6" cy="33.049" r=".9"/>
  <circle cx="24.446" cy="33.049" r=".9"/>
  <circle cx="21.297" cy="33.049" r=".9"/>
 </g>
 <path d="m17.5 8.9999c-6.094 0-11 4.906-11 11v18c0 6.094 4.906 11 11 11h0.16211l23.256-40h-23.418z" fill="#fff" opacity=".15"/>
</svg>
