<?xml version="1.0" encoding="UTF-8"?>
<svg width="64" height="64" version="1.1" viewBox="0 0 16.933 16.933" xmlns="http://www.w3.org/2000/svg" xmlns:cc="http://creativecommons.org/ns#" xmlns:dc="http://purl.org/dc/elements/1.1/" xmlns:rdf="http://www.w3.org/1999/02/22-rdf-syntax-ns#" xmlns:xlink="http://www.w3.org/1999/xlink">
 <metadata>
  <rdf:RDF>
   <cc:Work rdf:about="">
    <dc:format>image/svg+xml</dc:format>
    <dc:type rdf:resource="http://purl.org/dc/dcmitype/StillImage"/>
   </cc:Work>
  </rdf:RDF>
 </metadata>
 <defs>
  <linearGradient id="linearGradient2116" x1="59.5" x2="4.5" y1="4.5" y2="59.5" gradientTransform="scale(.26458)" gradientUnits="userSpaceOnUse">
   <stop stop-color="#37beff" offset="0"/>
   <stop stop-color="#00a0ff" offset="1"/>
  </linearGradient>
 </defs>
 <rect x="1.1906" y="1.1906" width="14.552" height="14.552" ry="3.4395" fill="url(#linearGradient2116)" stroke-width=".56196"/>
 <path d="m11.174 4.23c-0.44 0.067-0.654 2.79-0.458 3.158 0.337-0.22 0.838-1.27 0.995-1.627-0.122 0.332-0.275 1.906-0.212 1.925 0.132 0.178 1.935-2.794 1.411-3.006-0.075-0.03-0.581 0.899-1.003 1.846 5e-3 -0.405 0.333-1.63 0.2-2.002-0.268-0.079-0.775 1.084-0.983 1.629-0.065-0.277 0.285-1.789 0.05-1.923zm-3.976 0.287c-0.134 3e-3 -0.238 0.044-0.275 0.043-0.854 0.12-0.598 1.317-0.236 2.439 0.03 0.287-0.268 0.167-0.462-0.134-0.656-1.605-0.945-1.553-1.128-1.6-0.175-0.036-0.784 0.284-0.77 0.933 2e-3 0.187 0.234 1.066 0.236 1.338-0.769 1.32-1.082 2.627-0.118 3.978 0.971 1.288 3.863 1.33 4.38 1.027 0.197-0.138 3.148-1.592 3.828-2.156 1.014-0.839-0.026-1.895-0.27-2.042-2.101-1.374-4.248-1.088-4.276-1.306-0.015-0.252-6e-3 -0.952-0.043-1.2-0.142-1.158-0.573-1.327-0.866-1.32zm2.848 4.295c-0.074 0.404-0.885 1.306-1.137 1.568 0.19-0.214 1.672-1.015 1.714-0.962 0.216 0.054-1.76 2.618-2.158 2.217-0.058-0.058 0.437-0.77 1.247-1.392-0.372 0.16-1.452 0.753-1.846 0.773-0.177-0.215 0.957-0.935 1.199-1.35-0.28 0.047-1.759 0.742-1.973 0.578-0.109-0.432 2.484-1.187 2.954-1.432z" fill="#fff" fill-rule="evenodd"/>
</svg>
