<?xml version="1.0" encoding="UTF-8"?>
<svg width="64" height="64" version="1.1" viewBox="0 0 64 64" xmlns="http://www.w3.org/2000/svg" xmlns:cc="http://creativecommons.org/ns#" xmlns:dc="http://purl.org/dc/elements/1.1/" xmlns:rdf="http://www.w3.org/1999/02/22-rdf-syntax-ns#">
 <metadata>
  <rdf:RDF>
   <cc:Work rdf:about="">
    <dc:format>image/svg+xml</dc:format>
    <dc:type rdf:resource="http://purl.org/dc/dcmitype/StillImage"/>
   </cc:Work>
  </rdf:RDF>
 </metadata>
 <defs>
  <linearGradient id="linearGradient1448-6" x1="3.9687" x2="3.9687" y1="8.9776" y2=".54085" gradientTransform="matrix(3.4646 0 0 3.4646 2.6665 2.6665)" gradientUnits="userSpaceOnUse">
   <stop stop-color="#f4f9fe" offset="0"/>
   <stop stop-color="#d0dff0" offset="1"/>
  </linearGradient>
 </defs>
 <rect x="4.4995" y="4.4995" width="55.001" height="55.001" ry="13" fill="url(#linearGradient1448-6)" stroke-opacity=".95294" stroke-width=".31428"/>
 <g transform="matrix(1.4583 0 0 1.4583 -2.9963 -2.9984)">
  <g fill="#2d2d2d">
   <path d="m19.598 12.742 13.813 15.75c2.035 2.449-1.773 2.801-2.605 2.59l-14.406-16.496c-1.895-2.078 1.93-2.852 3.199-1.844"/>
   <path d="m28.21 14.617-5.676 6.453-7.762 11.211c-2.559 5.863 1.937 3.457 2.781 1.742l6.645-10.91 8.04-8.336c1.559-2.449-1.012-4.707-4.04-0.16"/>
   <path d="m16.555 33.922c1.168 0.223 1.582 0.313 2.305-0.133-0.074 0.43-0.148 0.855-0.223 1.285-0.707 0.223-1.418 0.488-2.125-0.133"/>
  </g>
  <path d="m31.27 20.01-11.697 10.734-1.57 4.258 4.367-1.289 0.012 0.012 0.023-0.023h4e-3l11.578-10.75s0.192-0.637-0.979-1.883c-0.85-0.899-1.478-1.043-1.738-1.059z" fill="#3686dd"/>
 </g>
</svg>
