<?xml version="1.0" encoding="UTF-8"?>
<svg width="64" height="64" version="1.1" xmlns="http://www.w3.org/2000/svg" xmlns:cc="http://creativecommons.org/ns#" xmlns:dc="http://purl.org/dc/elements/1.1/" xmlns:rdf="http://www.w3.org/1999/02/22-rdf-syntax-ns#" xmlns:xlink="http://www.w3.org/1999/xlink">
 <metadata>
  <rdf:RDF>
   <cc:Work rdf:about="">
    <dc:format>image/svg+xml</dc:format>
    <dc:type rdf:resource="http://purl.org/dc/dcmitype/StillImage"/>
   </cc:Work>
  </rdf:RDF>
 </metadata>
 <defs>
  <linearGradient id="linearGradient2542" x1="1.1906" x2="15.742" y1="8.4665" y2="8.4665" gradientTransform="matrix(3.7796 0 0 3.7796 38.625 21)" gradientUnits="userSpaceOnUse" xlink:href="#linearGradient937"/>
  <linearGradient id="linearGradient937">
   <stop stop-color="#505050" offset="0"/>
   <stop stop-color="#323232" offset="1"/>
  </linearGradient>
  <linearGradient id="linearGradient2546" x1="1.1906" x2="15.742" y1="8.4665" y2="8.4665" gradientTransform="matrix(3.7796 0 0 3.7796 38.625 -21.157)" gradientUnits="userSpaceOnUse" xlink:href="#linearGradient937"/>
  <linearGradient id="linearGradient3181" x1="-261.67" x2="-240" y1="13" y2="13" gradientTransform="matrix(.9231 0 0 1.9299 322.17 5.5345)" gradientUnits="userSpaceOnUse">
   <stop stop-color="#636363" offset="0"/>
   <stop stop-color="#646464" offset="1"/>
  </linearGradient>
  <linearGradient id="linearGradient3179" x1="-283.33" x2="-261.67" y1="13" y2="13" gradientTransform="matrix(.9231 0 0 1.9299 322.17 5.5345)" gradientUnits="userSpaceOnUse">
   <stop stop-color="#989898" offset="0"/>
   <stop stop-color="#999" offset="1"/>
  </linearGradient>
  <linearGradient id="linearGradient3177" x1="-305" x2="-283.33" y1="13" y2="13" gradientTransform="matrix(.9231 0 0 1.9299 322.17 5.5345)" gradientUnits="userSpaceOnUse">
   <stop stop-color="#cecece" offset="0"/>
   <stop stop-color="#d0d0d0" offset="1"/>
  </linearGradient>
 </defs>
 <g transform="translate(-38.625 -21)">
  <rect x="43.125" y="25.5" width="55.001" height="55.001" ry="13" fill="url(#linearGradient2542)" stroke-linecap="round" stroke-width="1.4989"/>
  <path d="m56.125 25.5c-7.1492 0-12.908 5.7152-12.992 12.844h54.984c-0.084157-7.1286-5.843-12.844-12.992-12.844z" fill="url(#linearGradient2546)" opacity=".58578" stroke-linecap="round" stroke-width="1.4989"/>
  <g stroke-width="1.3347">
   <path d="m80.623 25.5v12.844h17.494c-0.084157-7.1286-5.843-12.844-12.992-12.844z" fill="url(#linearGradient3181)"/>
   <path d="m60.629 25.5v12.844h20.002v-12.844z" fill="url(#linearGradient3179)"/>
   <path d="m56.125 25.5c-7.1492 0-12.908 5.7152-12.992 12.844h17.494v-12.844z" fill="url(#linearGradient3177)"/>
  </g>
  <path d="m52.843 62.059h1.8371v-2.1526c2.134-0.40824 3.266-1.9113 3.266-3.9342 0-4.1568-5.6411-3.8042-5.6411-6.1052 0-1.0206 0.61237-1.5402 1.7072-1.5402 0.94638 0 1.6144 0.38968 2.3753 1.0948l1.3732-1.5587c-0.79795-0.85362-1.7443-1.5031-3.0804-1.6886v-2.1155h-1.8371v2.1526c-1.9485 0.37113-3.1546 1.7629-3.1546 3.7856 0 3.8782 5.6411 3.6557 5.6411 6.1608 0 1.0577-0.59381 1.633-1.8928 1.633-1.0577 0-2.0412-0.46391-3.0619-1.2619l-1.2062 1.8371c0.98349 0.89074 2.4124 1.466 3.6742 1.6144z" fill="#6be54f" stroke-width=".46391"/>
  <rect x="61.768" y="44.059" width="9" height="18" fill="#6be54f" opacity=".35" stroke-width="3.7796"/>
 </g>
</svg>
