<?xml version="1.0" encoding="UTF-8"?>
<svg width="64" height="64" version="1.1" viewBox="0 0 16.933 16.933" xmlns="http://www.w3.org/2000/svg" xmlns:cc="http://creativecommons.org/ns#" xmlns:dc="http://purl.org/dc/elements/1.1/" xmlns:rdf="http://www.w3.org/1999/02/22-rdf-syntax-ns#" xmlns:xlink="http://www.w3.org/1999/xlink">
 <metadata>
  <rdf:RDF>
   <cc:Work rdf:about="">
    <dc:format>image/svg+xml</dc:format>
    <dc:type rdf:resource="http://purl.org/dc/dcmitype/StillImage"/>
   </cc:Work>
  </rdf:RDF>
 </metadata>
 <defs>
  <linearGradient id="linearGradient2586" x1="-183.26" x2="-133.33" y1="-122.79" y2="-134.57" gradientTransform="matrix(.25137 0 0 .25137 -7.3652 -24.336)" gradientUnits="userSpaceOnUse">
   <stop stop-color="#e5e5e5" offset="0"/>
   <stop stop-color="#cecece" offset="1"/>
  </linearGradient>
  <linearGradient id="linearGradient2542" x1="1.1906" x2="15.742" y1="8.4665" y2="8.4665" gradientTransform="translate(-21.054 2.8625)" gradientUnits="userSpaceOnUse" xlink:href="#linearGradient937"/>
  <linearGradient id="linearGradient937">
   <stop stop-color="#505050" offset="0"/>
   <stop stop-color="#323232" offset="1"/>
  </linearGradient>
  <linearGradient id="linearGradient2546" x1="1.1906" x2="15.742" y1="8.4665" y2="8.4665" gradientTransform="matrix(1 0 0 1 -21.054 -8.2912)" gradientUnits="userSpaceOnUse" xlink:href="#linearGradient937"/>
  <linearGradient id="linearGradient3181" x1="-261.67" x2="-240" y1="13" y2="13" gradientTransform="matrix(.24423 0 0 .51061 53.965 -1.2293)" gradientUnits="userSpaceOnUse">
   <stop stop-color="#636363" offset="0"/>
   <stop stop-color="#646464" offset="1"/>
  </linearGradient>
  <linearGradient id="linearGradient3179" x1="-283.33" x2="-261.67" y1="13" y2="13" gradientTransform="matrix(.24423 0 0 .51061 53.965 -1.2293)" gradientUnits="userSpaceOnUse">
   <stop stop-color="#989898" offset="0"/>
   <stop stop-color="#999" offset="1"/>
  </linearGradient>
  <linearGradient id="linearGradient3177" x1="-305" x2="-283.33" y1="13" y2="13" gradientTransform="matrix(.24423 0 0 .51061 53.965 -1.2293)" gradientUnits="userSpaceOnUse">
   <stop stop-color="#cecece" offset="0"/>
   <stop stop-color="#d0d0d0" offset="1"/>
  </linearGradient>
  <linearGradient id="linearGradient3237" x1="-183.26" x2="-133.33" y1="-122.79" y2="-134.57" gradientTransform="matrix(.087786 0 0 .087786 -7.6174 10.015)" gradientUnits="userSpaceOnUse">
   <stop stop-color="#a9a9a9" offset="0"/>
   <stop stop-color="#8c8c8c" offset="1"/>
  </linearGradient>
  <filter id="filter2594-5" x="-.076308" y="-.23317" width="1.1526" height="1.4663" color-interpolation-filters="sRGB">
   <feGaussianBlur stdDeviation="0.43959997"/>
  </filter>
  <linearGradient id="linearGradient2574-3" x1="-183.26" x2="-133.33" y1="-122.79" y2="-134.57" gradientTransform="matrix(.087786 0 0 .087786 10.846 -8.4602)" gradientUnits="userSpaceOnUse" xlink:href="#linearGradient2586"/>
  <linearGradient id="linearGradient2608-5" x1="-183.26" x2="-133.33" y1="-122.79" y2="-134.57" gradientTransform="matrix(.087787 0 0 .087787 4.5936 -3.9588)" gradientUnits="userSpaceOnUse" xlink:href="#linearGradient2586"/>
 </defs>
 <g transform="translate(21.054 -2.8626)">
  <rect x="-19.864" y="4.0531" width="14.552" height="14.552" ry="3.4395" fill="url(#linearGradient2542)" stroke-linecap="round" stroke-width=".39658"/>
  <path d="m-16.424 4.0531c-1.8915 0-3.4152 1.5121-3.4374 3.3983h14.548c-0.022267-1.8861-1.5459-3.3983-3.4374-3.3983z" fill="url(#linearGradient2546)" opacity=".58578" stroke-linecap="round" stroke-width=".39658"/>
  <g stroke-width=".35314">
   <path d="m-9.9426 4.0531v3.3983h4.6286c-0.022267-1.8861-1.5459-3.3983-3.4374-3.3983z" fill="url(#linearGradient3181)"/>
   <path d="m-15.233 4.0531v3.3983h5.2921v-3.3983z" fill="url(#linearGradient3179)"/>
   <path d="m-16.424 4.0531c-1.8915 0-3.4152 1.5121-3.4374 3.3983h4.6286v-3.3983z" fill="url(#linearGradient3177)"/>
  </g>
  <rect transform="rotate(-45)" x="-23.855" y="-2.132" width="4.8285" height="1.5802" ry=".17558" fill="url(#linearGradient3237)" stroke-width=".087786"/>
  <rect transform="matrix(.24694 .24694 .24694 -.24694 9.524 16.659)" x="-68.454" y="-44.561" width="13.826" height="4.5247" ry=".50275" filter="url(#filter2594-5)" opacity=".6" stroke-width=".25137"/>
  <rect transform="matrix(.70711 .70711 .70711 -.70711 0 0)" x="-5.3921" y="-20.607" width="4.8285" height="1.5802" ry=".17558" fill="url(#linearGradient2574-3)" stroke-width=".087786"/>
  <rect transform="matrix(.34923 0 0 -.34923 12.262 .54393)" x="-68.454" y="-44.561" width="13.826" height="4.5247" ry=".50275" filter="url(#filter2594-5)" opacity=".6" stroke-width=".25137"/>
  <rect transform="scale(1,-1)" x="-11.644" y="-16.106" width="4.8283" height="1.5801" ry=".17557" fill="url(#linearGradient2608-5)" stroke-width=".087787"/>
 </g>
</svg>
