<?xml version="1.0" encoding="UTF-8"?>
<svg width="64" height="64" version="1.1" viewBox="0 0 16.933 16.933" xmlns="http://www.w3.org/2000/svg" xmlns:cc="http://creativecommons.org/ns#" xmlns:dc="http://purl.org/dc/elements/1.1/" xmlns:rdf="http://www.w3.org/1999/02/22-rdf-syntax-ns#" xmlns:xlink="http://www.w3.org/1999/xlink">
 <defs>
  <filter id="filter954-5" x="-.18" y="-.18" width="1.36" height="1.36" color-interpolation-filters="sRGB">
   <feGaussianBlur stdDeviation="0.11906016"/>
  </filter>
  <filter id="filter962-3" x="-.18" y="-.18" width="1.36" height="1.36" color-interpolation-filters="sRGB">
   <feGaussianBlur stdDeviation="0.11906016"/>
  </filter>
  <linearGradient id="linearGradient1539" x1="-66.731" x2="-15.104" y1="25.014" y2="59.532" gradientTransform="matrix(.26458 0 0 .26458 19.693 6.79e-5)" gradientUnits="userSpaceOnUse">
   <stop stop-color="#464646" offset="0"/>
   <stop stop-color="#1e1e1e" offset="1"/>
  </linearGradient>
  <linearGradient id="linearGradient911" x1="-70.642" x2="-70.642" y2="2.6738" gradientTransform="matrix(.91667 0 0 .91667 69.584 1.1797)" gradientUnits="userSpaceOnUse">
   <stop stop-color="#1e1e1e" offset="0"/>
   <stop stop-color="#464646" offset="1"/>
  </linearGradient>
  <linearGradient id="linearGradient913" x1="-62.705" x2="-62.705" y2="3.8515" gradientTransform="matrix(.91667 0 0 .91667 69.584 1.1797)" gradientUnits="userSpaceOnUse">
   <stop stop-color="#1e1e1e" offset="0"/>
   <stop stop-color="#464646" offset="1"/>
  </linearGradient>
 </defs>
 <metadata>
  <rdf:RDF>
   <cc:Work rdf:about="">
    <dc:format>image/svg+xml</dc:format>
    <dc:type rdf:resource="http://purl.org/dc/dcmitype/StillImage"/>
    <dc:title/>
   </cc:Work>
  </rdf:RDF>
 </metadata>
 <path d="m5.5563 1.1797v1.4552h5.8208v-1.4552z" fill="#141414"/>
 <path d="m1.6759 4.0671c-0.23867 0-0.4353 0.17095-0.47646 0.39739-3e-3 0.058871-0.0088 0.1171-0.0088 0.17673v7.6729c0 0.94774 0.37988 1.8032 0.99581 2.4241h12.56c0.61592-0.62092 0.9958-1.4764 0.9958-2.4241v-7.6729c0-0.059634-0.0058-0.11786-0.0088-0.17673-0.04116-0.22644-0.23779-0.39739-0.47646-0.39739z" fill="#5a5a5a" stroke-width=".91666"/>
 <rect transform="matrix(.91667 0 0 .91667 .70559 .71683)" x="3.7041" y="3.7283" width="1.5875" height="1.5875" ry="0" filter="url(#filter954-5)" opacity=".5"/>
 <rect transform="matrix(.91667 0 0 .91667 .70559 .71683)" x="11.641" y="3.7283" width="1.5875" height="1.5875" ry="0" filter="url(#filter962-3)" opacity=".5"/>
 <path d="m4.1013 3.6495v1.4552h-2.4252c-0.26872 0-0.48524 0.216-0.48524 0.48472v6.7247c0 1.9055 1.5341 3.4396 3.4396 3.4396h7.6729c1.902 0 3.4335-1.5286 3.4391-3.4292v-6.735c0-0.26872-0.21651-0.48472-0.48524-0.48472h-2.4252v-1.4552h-1.4552v1.4552h-5.8208v-1.4552z" fill="url(#linearGradient1539)"/>
 <path d="m5.5562 3.6494v-2.4697l-1.4552 1.2127v1.257z" fill="url(#linearGradient911)" stroke-width=".91666"/>
 <path d="m11.376 3.6494v-2.4697l1.4552 1.2127v1.257z" fill="url(#linearGradient913)" stroke-width=".91666"/>
 <path d="m8.4667 8.2021a2.6282 2.6282 0 0 0-1.3366 0.37218l1.1849 1.1849 0.31706-0.31662-0.71658-0.71658c0.08599-0.022931 0.17198-0.043215 0.26194-0.055121 0.02293-0.00353 0.04542-0.011464 0.06879-0.01411 0.07408-0.0075 0.1442-0.013671 0.22049-0.013671a2.2049 2.2049 0 0 1 2.2049 2.2049c0 0.10716-0.01235 0.21431-0.02778 0.31706-0.0088 0.05997-0.01367 0.12083-0.02734 0.17904a2.0889 2.0889 0 0 1-0.12391 0.35851c-0.0062 0.01323-0.0079 0.02778-0.01411 0.04101-0.01764 0.04057-0.04763 0.07232-0.06879 0.11024-0.0018 0.0035 0.0022 0.01014 0 0.01411l0.33073 0.31662a2.6282 2.6282 0 0 0 0.37218-1.3366 2.6458 2.6458 0 0 0-2.6458-2.6458zm-2.2737 1.3092a2.6282 2.6282 0 0 0-0.37218 1.3366 2.6458 2.6458 0 0 0 2.6458 2.6458 2.6282 2.6282 0 0 0 1.3366-0.37218l-0.33073-0.33073-0.85416-0.84049-0.30339 0.30339 0.70291 0.71658c-0.08599 0.02205-0.17198 0.04278-0.26194 0.05512-0.02293 0.0031-0.04542 0.01103-0.06879 0.01323-0.07408 0.0079-0.1442 0.01411-0.22049 0.01411-0.07629 0-0.1464-0.0062-0.22049-0.01367-0.07408-0.0075-0.14861-0.01323-0.22049-0.02778a2.2124 2.2124 0 0 1-1.7639-2.1634c0-0.10936 0.01235-0.21167 0.02778-0.31706 0.0088-0.05997 0.01367-0.12083 0.02734-0.17904 0.02954-0.12656 0.07364-0.24165 0.12391-0.35851 0.0057-0.01323 0.0079-0.02778 0.01411-0.04101 0.01764-0.03969 0.04763-0.07276 0.06879-0.11024v-0.01411z" fill="#fff" stroke-width=".22049"/>
</svg>
