<?xml version="1.0" encoding="UTF-8"?>
<svg width="64" height="64" version="1.1" viewBox="0 0 16.933 16.933" xmlns="http://www.w3.org/2000/svg" xmlns:cc="http://creativecommons.org/ns#" xmlns:dc="http://purl.org/dc/elements/1.1/" xmlns:rdf="http://www.w3.org/1999/02/22-rdf-syntax-ns#" xmlns:xlink="http://www.w3.org/1999/xlink">
 <defs>
  <filter id="filter954-5" x="-.18" y="-.18" width="1.36" height="1.36" color-interpolation-filters="sRGB">
   <feGaussianBlur stdDeviation="0.11906016"/>
  </filter>
  <filter id="filter962-3" x="-.18" y="-.18" width="1.36" height="1.36" color-interpolation-filters="sRGB">
   <feGaussianBlur stdDeviation="0.11906016"/>
  </filter>
  <linearGradient id="linearGradient1539" x1="-66.731" x2="-15.104" y1="25.014" y2="59.532" gradientTransform="matrix(.26458 0 0 .26458 19.022 5.0461)" gradientUnits="userSpaceOnUse">
   <stop stop-color="#464646" offset="0"/>
   <stop stop-color="#1e1e1e" offset="1"/>
  </linearGradient>
  <linearGradient id="linearGradient911" x1="-70.642" x2="-70.642" y2="2.6738" gradientTransform="matrix(.91667 0 0 .91667 68.913 6.2257)" gradientUnits="userSpaceOnUse">
   <stop stop-color="#1e1e1e" offset="0"/>
   <stop stop-color="#464646" offset="1"/>
  </linearGradient>
  <linearGradient id="linearGradient913" x1="-62.705" x2="-62.705" y2="3.8515" gradientTransform="matrix(.91667 0 0 .91667 68.913 6.2257)" gradientUnits="userSpaceOnUse">
   <stop stop-color="#1e1e1e" offset="0"/>
   <stop stop-color="#464646" offset="1"/>
  </linearGradient>
 </defs>
 <metadata>
  <rdf:RDF>
   <cc:Work rdf:about="">
    <dc:format>image/svg+xml</dc:format>
    <dc:type rdf:resource="http://purl.org/dc/dcmitype/StillImage"/>
    <dc:title/>
   </cc:Work>
  </rdf:RDF>
 </metadata>
 <g transform="translate(.67091 -5.046)">
  <path d="m4.8853 6.2257v1.4552h5.8208v-1.4552z" fill="#141414"/>
  <path d="m1.005 9.1131c-0.23867 0-0.4353 0.17095-0.47646 0.39739-3e-3 0.058871-0.0088 0.1171-0.0088 0.17673v7.6729c0 0.94774 0.37988 1.8032 0.99581 2.4241h12.56c0.61592-0.62092 0.9958-1.4764 0.9958-2.4241v-7.6729c0-0.059634-0.0058-0.11786-0.0088-0.17673-0.04116-0.22644-0.23779-0.39739-0.47646-0.39739z" fill="#5a5a5a" stroke-width=".91666"/>
  <rect transform="matrix(.91667 0 0 .91667 .034681 5.7628)" x="3.7041" y="3.7283" width="1.5875" height="1.5875" ry="0" filter="url(#filter954-5)" opacity=".5"/>
  <rect transform="matrix(.91667 0 0 .91667 .034681 5.7628)" x="11.641" y="3.7283" width="1.5875" height="1.5875" ry="0" filter="url(#filter962-3)" opacity=".5"/>
  <path d="m3.4304 8.6954v1.4552h-2.4252c-0.26872 0-0.48524 0.216-0.48524 0.48472v6.7247c0 1.9055 1.5341 3.4396 3.4396 3.4396h7.6729c1.902 0 3.4335-1.5286 3.4391-3.4292v-6.735c0-0.26872-0.21651-0.48472-0.48524-0.48472h-2.4252v-1.4552h-1.4552v1.4552h-5.8208v-1.4552z" fill="url(#linearGradient1539)"/>
  <path d="m4.8853 8.6954v-2.4697l-1.4552 1.2127v1.257z" fill="url(#linearGradient911)" stroke-width=".91666"/>
  <path d="m10.706 8.6954v-2.4697l1.4552 1.2127v1.257z" fill="url(#linearGradient913)" stroke-width=".91666"/>
  <path d="m7.7973 13.248a2.6458 2.6458 0 1 0 0 5.2917 2.6458 2.6458 0 0 0 0-5.2917zm0 0.44097c0.07629 0 0.1464 0.0062 0.22049 0.01367 0.01764 0.0018 0.03748-0.0022 0.05512 0 0.02337 0.0031 0.04586 0.01014 0.06879 0.01411 0.0635 0.0097 0.11774 0.02602 0.17948 0.04101 0.11289 0.02822 0.2249 0.06571 0.33073 0.11024 0.05777 0.02469 0.1098 0.05336 0.16536 0.0829v0.01367c0.01235 0.0057 0.0194 0.02954 0.04101 0.04145 0.0079 0.0044 0.0066 0.0097 0.01411 0.01367 0.01235 0.0071 0.02999 0.01499 0.02734 0.02778-0.0035 0.01764-0.0291 0.01367-0.04145 0.02734 0.0018 0.02558-0.02072 0.02426-0.02734 0.04145 4e-3 0.01103 0.02558 0.01411 0.02734 0.02734-0.0022 0.01411-0.03263 0.01323-0.02734 0.02778 0.02381 0.01852 0.0463 0.0044 0.06879 0 0.04939-0.0062 0.09349-0.0026 0.12391-0.02778-4e-3 -0.02337 0.0441-0.01984 0.04145-0.04101 0.01279 0.0088 0.02866 0.01764 0.04145 0.02734-0.0049 0.0044-0.0088 0.01147-0.01411 0.01367-0.0088 0.0044-0.01896 0.0088-0.02734 0.01411l-0.04145 0.02734c-0.01014 0.0071-0.03087 0.04145-0.04101 0.04145-0.01323 0-0.03219-0.01676-0.04145-0.01411-0.01323 0.0044-0.01279 0.02249-0.02778 0.02778-0.0291 0.01058-0.08643-0.01588-0.09613 0.02778 0.01235 0.02514 0.06041 0.01323 0.08246 0.02734a0.1367 0.1367 0 0 1 0.04145 0.05512 0.26017 0.26017 0 0 1 0 0.0829c-0.01367 0.03528-0.056 0.02778-0.09657 0.02734h-0.02778c-0.06791-0.0044-0.1345-0.03528-0.16536 0.01367 0.0022 0.03748 0.0088 0.06394 0 0.09657-0.0057 0.02381-0.04233 0.04851-0.04101 0.06879 0 0.01058 0.02469 0.02646 0.02734 0.04145 0.0018 0.0079-0.0035 0.01984 0 0.02778 0.01146 0.02161 0.03528-0.0044 0.05512 0 0.0194 0.0044 0.04145 0.03307 0.04145 0.05512a0.11465 0.11465 0 0 1-0.01367 0.05512c-0.0194 0.0291-0.05512 0.02514-0.0829 0.04101-0.02293 0.01323-0.02734 0.0463-0.04101 0.06923-0.01455 0.02469-0.03351 0.03351-0.02778 0.06879a0.16095 0.16095 0 0 1-0.0829 0.08246c-0.01191 0.0053-0.02999 0.0062-0.04101 0.01411-0.0088 0.0062-0.01543 0.0269-0.02778 0.04101-0.01543 0.01764-0.03263 0.02822-0.04101 0.04145-0.0066 0.01014-0.0075 0.02734-0.01411 0.04145-0.0097 0.01852-0.0291 0.02249-0.04101 0.04101-0.0057 0.0088-0.0079 0.02999-0.01411 0.04145-0.01411 0.02558-0.02999 0.04674-0.02734 0.06923 0.0022 0.02117 0.02646 0.02205 0.02734 0.04101 0.0013 0.01058-0.01411 0.01588-0.01367 0.02778 4.49e-4 0.01676 0.01235 0.02778 0.01367 0.04101 0.0031 0.03263-0.02117 0.04674-0.02734 0.06923-0.0031 0.01058 0.0026 0.01852 0 0.02734-0.0053 0.01632-0.02734 0.03572-0.02778 0.05512 0 0.01367 0.02646 0.02205 0.02778 0.04145 8.73e-4 0.01279-0.01632 0.0291-0.01411 0.04145 0.0048 0.02381 0.05071 0.05027 0.06923 0.06879 0.02513 0.02514 0.05777 0.04233 0.06879 0.06879 0.0093 0.02249 0.01058 0.06615 0.02778 0.0829 0.01235 0.01235 0.0388 0.01411 0.05512 0.02734 0.01499 0.01191 0.02469 0.01455 0.04101 0.02778 0.0269 0.02117 0.06747 0.07188 0.11024 0.06879 0.02249-0.0044 0.0441-0.02293 0.06923-0.02778 0.02602-0.0044 0.056-0.01587 0.08246-0.01323 0.02029 0.0044 0.04763 0.01455 0.06879 0.01323 0.02205-0.0044 0.0441-0.0026 0.06923-0.01323 0.04366-0.0194 0.11554-0.05071 0.17904-0.04189 0.04851 0.0071 0.04851 0.0613 0.08246 0.0829 0.03881 0.0044 0.0657-0.0075 0.09657 0 0.02337 0.0057 0.05292 0.0366 0.05512 0.05512 0.0022 0.01896-0.02513 0.04322-0.02778 0.05512-0.0057 0.02558 0.0044 0.05292 0 0.06879-0.0035 0.01323-0.01411 0.02866-0.01323 0.04145 0 0.01146 0.01543 0.03969 0.02734 0.05512 0.01455 0.01852 0.03748 0.03528 0.05512 0.05512 0.03219 0.03704 0.0463 0.07497 0.06879 0.12391 0.0057 0.01235-0.0053 0.02558 0 0.04145-0.0097 0.07408-0.03439 0.1248-0.0829 0.20682-0.02249 0.02646-0.05556 0.04939-0.05512 0.08246-0.0013 0.07938 0.04498 0.13009 0.04145 0.20682-0.0079 0.10319 0.0079 0.11024 0 0.16536 0.03528 0.01764 0.01014 0.07364 0 0.11024-0.01499 0.04366-0.03263 0.05336-0.04101 0.0829 0.02337 0.01014 0.05644 0.0057 0.08246 0l-0.04145 0.04101a2.2944 2.2944 0 0 1-0.33073 0.27561 2.1784 2.1784 0 0 1-0.75759 0.33073 2.1982 2.1982 0 0 1-0.46875 0.04145c-0.08379 0-0.16669-0.0044-0.24827-0.01367-0.06438-0.0075-0.12965-0.01499-0.1927-0.02778-0.1248-0.02558-0.24209-0.07805-0.35851-0.12391-4e-3 -0.0075-0.01455-0.01852-0.01323-0.02778 0.02249-0.0097 0.06571 0.03263 0.08246 0 0.0084-0.01543-0.01103-0.05292 0-0.06879 0.0079-0.01058 0.05248-0.01058 0.06879-0.01367 0.02337-0.0044 0.05556-0.0075 0.06879-0.01367 0.01455-0.0093 0.03043-0.04189 0.02778-0.06923-0.0013-0.01279-0.01764-0.01588-0.02778-0.02734-0.0084-0.0097 0.0057-0.01852 0-0.02778-0.01058-0.01543-0.0366-0.01852-0.04101-0.04101 0.03175-0.0062 0.07805 0.02646 0.12347 0.01367 0.02205-0.0062 0.05909-0.04851 0.06923-0.06879 0.0031-0.0062-0.0035-0.01984 0-0.02778 4e-3 -0.0079 0.01235-0.02293 0.01367-0.02734 0.0031-0.01191-0.0026-0.0062 0-0.01411 0.0079-0.02205 0.02822-0.0388 0.04145-0.05512 0.01014-0.01235 0.03219-0.02822 0.04145-0.04101 0.01058-0.01367 0.0066-0.01543 0.01367-0.02778 0.0066-0.03969-0.02337-0.07497-0.01367-0.11024 0.01058-0.03969 0.07188-0.06438 0.11024-0.08246 0.01323-0.0062 0.02999-0.01014 0.04101-0.01411 0.02646-0.0088 0.05821-0.01852 0.0829-0.02734 0.04145-0.01499 0.04851-0.04498 0.06879-0.0829 0.0097-0.01764 0.02602-0.04189 0.02778-0.05512 0.0018-0.01146-0.0022-0.01367 0-0.02734 0.0022-0.01279-0.0035-0.02646 0-0.04145 0.0044-0.01896 0.01367-0.06174 0.01367-0.08246 0-0.01764-0.01323-0.02558-0.01367-0.04145-0.0031-0.05733 0.02029-0.05159 0.04101-0.0829 0.01058-0.01543 0.02029-0.0441 0.02778-0.05512 0.03572-0.05292 0.10098-0.071 0.09657-0.15125-0.0018-0.02646-0.02205-0.08819-0.04145-0.09657-0.01103-0.0048-0.02514-0.0079-0.04145-0.01367-0.05204-0.0194-0.09701-0.07849-0.15125-0.0829h-0.02778c-0.02117 0-0.04498-0.01058-0.06879-0.01367-0.01499-0.0044-0.0463 0.0044-0.05512 0-0.01367-0.0066-0.01676-0.03396-0.02778-0.04145-0.0088-0.0062-0.02778-0.0088-0.04101-0.01367-0.02205-0.0079-0.02999-0.02602-0.05512-0.02778-0.0079 0-0.01896 0.0044-0.02778 0-0.01367-0.0044-0.02866-0.0057-0.04145-0.01323-0.01588-0.01014-0.0344-0.01411-0.04101-0.02778 0.01455-0.04762-0.03175-0.05512-0.04145-0.0829-0.0044-0.01279 0.0044-0.04366 0-0.05512-0.0057-0.01632-0.02337-0.02734-0.04145-0.04101a0.16492 0.16492 0 0 0-0.09657-0.04145c-0.02029-0.0044-0.04454 0.0044-0.06879 0a0.15699 0.15699 0 0 1-0.0829-0.04145c-0.01852-0.02161-0.02469-0.04498-0.04101-0.05512-0.01543-0.0097-0.03087-0.01764-0.04145-0.02778-0.0049-0.0044-0.0093-0.0035-0.01367-0.01323-0.0079-0.01676-0.02381-0.02205-0.01411-0.04189-0.01764-0.0088-0.0084 0.0172-0.02734 0.01411-0.0172-0.02426-0.02999-0.04851-0.06879-0.04145-0.01764 0.0044-0.03439 0.04101-0.05512 0.04145-0.01764 0-0.03263-0.03792-0.055121-0.04145-0.01764-0.0044-0.043215 0.01587-0.055122 0.01367-0.018963-0.0044-0.024254-0.01587-0.041451-0.02734-0.012787-0.0088-0.034396-0.02822-0.041451-0.02778-0.022048 0-0.038365 0.0441-0.068792 0.02778-0.014994-0.01896 0.031309-0.02381 0.013671-0.04145-0.013229-0.01279-0.016756 0.0075-0.02734 0.01367-0.012348 0.0079-0.027781 0.0088-0.041451 0.01411-0.030427 0.01146-0.05909 0.01455-0.082903 0.02734a0.08158 0.08158 0 0 0-0.04101 0.04145c-0.010141 0.01852-0.026017 0.05424-0.041451 0.05512-0.018521 0-0.024694-0.02029-0.041451-0.02778-0.050712-0.02205-0.082021 0.01323-0.12391 0.01411-0.038806 0-0.098337-0.05997-0.096573-0.09701 0.00132-0.02205 0.011464-0.05468 0.01411-0.08246 0.0022-0.02205 0.026899-0.04851 0.02734-0.06879 4.498e-4 -0.02734-0.051153-0.03836-0.068792-0.04145-0.041451-0.0075-0.09084 0.01852-0.13802 0-0.00882-0.01499 0.00882-0.02646 0.01411-0.04101 0.00309-0.0079-0.00309-0.01852 0-0.02778 0.00485-0.01411 0.034396-0.02646 0.041011-0.04145 0.00485-0.01146-0.00441-0.02646 0-0.04101 0.00573-0.01587 0.026458-0.02999 0.027781-0.04145 0.00177-0.01499-0.015875-0.03175-0.027781-0.04145-0.036601 0.0044-0.061736 0.0031-0.082462 0.01367-0.047625 0.02205-0.034837 0.08158-0.082903 0.09657a0.40305 0.40305 0 0 1-0.05512 0.01367c-0.00794 0.0044-0.018521-8.73e-4 -0.02734 0 8.731e-4 -0.0044-8.731e-4 -0.0088 0-0.01367 0.00177-0.01014 0.011464-0.01764 0.013671-0.02778a2.1652 2.1652 0 0 1 0.13802-0.41319h0.013229c0.017198 0.0044 0.02734 0.02646 0.041892 0.02778 0.040129 0.0044 0.048948-0.03748 0.082462-0.05512 0.034396 0.0044 0.051594-0.0044 0.082903 0 0.021167 0.0044 0.052035 0.02558 0.068792 0.02734 0.01411 0 0.01411-0.01543 0.02734-0.01367 0.013229 0.0044 0.039247 0.02514 0.041451 0.04101 0.0022 0.01985-0.019402 0.04718-0.013671 0.06923 0.020725 0.02117 0.067028 0.02866 0.096132 0.04101 0.019402-0.01632 0.00309-0.04586 0-0.06879 0-0.01014 0.00132-0.03175 0-0.04101-0.00177-0.01587-0.013229-0.02778-0.013229-0.04145 0-0.06306 0.053799-0.08555 0.096132-0.11024 0.018079-0.01058 0.039246-0.03351 0.055122-0.04145 0.02249-0.01102 0.036601-0.0031 0.055122-0.01367 0.033514-0.01896 0.056885-0.04763 0.082903-0.06923 0.011906-0.02866-0.00132-0.06791 0-0.09613 0.011906-0.0075 0.028222 0 0.04101 0 0.020286-0.0044 0.029986-0.02999 0.041451-0.04145 0.00661-0.0066 0.019402-0.0071 0.027781-0.01367 0.019844-0.01587 0.023371-0.0344 0.04101-0.04145a0.11465 0.11465 0 0 1 0.027781-0.013666c0.01323-0.0044 0.033955-0.0062 0.055122-0.01411 0.01323-0.0044 0.04983-0.0079 0.05512-0.01323 0.0066-0.0071-0.0018-0.03175 0-0.04189 0.01058-0.04939 0.07937-0.05204 0.12391-0.06879 0.03087-0.01146 0.06174-0.04718 0.09657-0.04101-0.0066 0.02381-0.03351 0.02646-0.02778 0.05512 0.0075 0.03969 0.05512-0.0084 0.06923-0.01411 0.02646-0.01146 0.07497-0.02778 0.11024-0.04101 0.03087-0.01103 0.08379-0.01984 0.05512-0.05512-0.02425-0.0044-0.0344 0.01852-0.05512 0.02734-0.01455 0.0044-0.01543-0.01235-0.02778-0.01367-0.01191 0-0.01543 0.01588-0.02778 0.01367-0.01191-0.0044-0.02558-0.02646-0.02734-0.04145-0.0049-0.03704 0.02646-0.04145 0.04145-0.06879-0.01014-0.03352-0.05468-0.01455-0.0829-0.02778a0.04983 0.04983 0 0 1 0.04145-0.04101c0.01896-0.0044 0.07144 0.0035 0.0829 0.01367 0.0066 0.0057-0.01014 0.01852 0 0.02778 0.01146 0.01014 0.02646 0.0044 0.04101 0 0.0053-0.02514-0.03175-0.01146-0.02734-0.02778 0.02999-0.0194 0.08731-0.0088 0.12391-0.01367a0.29986 0.29986 0 0 0 0.06879-0.02778c0.01764-0.01014 0.02293-0.03043 0.04145-0.01367 0.0053 0.01808-0.0035 0.03175-0.01367 0.04145-0.03395 0.02999-0.07011 0.06174-0.09657 0.09613 0.01632 0.01587 0.04145 0.01103 0.06879 0.01411 0.01058 0.0044 0.03043-0.0022 0.04145 0 0.01323 0.0044 0.03087-0.0044 0.04145 0 0.01852 0.0044 0.02293 0.04101 0.04101 0.04101 0.02999 0 0.01764-0.03528 0-0.05512 0.0053-0.02072 0.02161-0.04013 0.01411-0.05512-0.01367-0.02734-0.06614 0.0084-0.06923-0.02734-0.0013-0.02205 0.01984-0.02469 0.02778-0.04145-0.0035-0.04233 0.03175-0.0441 0.02778-0.08246-0.0022-0.01587-0.01676-0.01279-0.02778-0.02778-0.0057-0.0079-0.0071-0.03528-0.01367-0.04101-0.02293-0.0194-0.06615-0.0044-0.06923-0.04145-8.73e-4 -0.02205 0.0031-0.04542 0-0.06923-0.0031-0.02205-0.02205-0.09172-0.04101-0.09613-0.02469-0.0053-0.03969 0.04101-0.06923 0.05512a0.16581 0.16581 0 0 1-0.06879 0.01367c-0.01058-0.0044-0.02646-0.0066-0.02734-0.02778-0.0018-0.01852 0.02073-0.02646 0.02734-0.04101 0.0018-0.0035-8.73e-4 -0.0088 0-0.01411 0.03219-0.0088 0.06394-0.01984 0.09657-0.02734 0.01852-0.0044 0.0366-0.01014 0.05512-0.01367 0.01323-0.0026 0.02822 0.0022 0.04145 0a2.2093 2.2093 0 0 1 0.39953-0.04146zm-0.89562 0.20682c-0.01411 0.08026-0.08952 0.11245-0.17948 0.11024-0.01984 0.0194-0.0026 0.05556-0.01323 0.08246-0.0097 0.02249-0.046743 0.04322-0.069233 0.04145-0.016317 0-0.041452-0.02602-0.041452-0.04145 0-0.01896 0.030427-0.0194 0.01411-0.04101 4.498e-4 -0.0044 0.00882-0.0097 0.013229-0.01411 0.00926-0.0053 0.018963-0.0084 0.027781-0.01367 0.079817-0.04939 0.16184-0.08511 0.24827-0.12391zm1.8464 0.08246c-0.0079 0.0044-0.0066 0.0097-0.01367 0.01411-0.01676 0.01014-0.02866 0.02249-0.04145 0.02734-0.01764 0.0066-0.03836 0.01103-0.04101 0.02778-0.0022 0.01323 0.01411 0.01455 0.01323 0.02734-0.0062 0.01632-0.0097 0.02161-0.01323 0.04145 0.02205 0.0366 0.06835-0.0084 0.09613-0.01411 0.01235-0.0044 0.02117-0.0031 0.02778-0.01323 0.0075-0.01235 0.0079-0.02469 0.01367-0.04189 0.0062-0.01852 0.02999-0.02469 0.02778-0.04101-0.0018-0.01632-0.04189-0.02999-0.06923-0.02778zm-2.4112 0.27561c0.020725 0.01676 0.050271 0.05292 0.013229 0.06923a0.22754 0.22754 0 0 1-0.068351 0.01323c-0.00441 0-0.010141-0.01014-0.01411-0.01323 0.02293-0.02205 0.045419-0.04807 0.069232-0.06923zm0.082462 0.0829c0.010583 0 0.014994 0.02646 0.027781 0.02734 0.011906 0 0.020286-0.01543 0.02734-0.01367 0.018521 0.0049 0.031309 0.04145 0.013671 0.05512-0.014552 0.0044-0.016756-0.01543-0.02734-0.01367-0.029986 0.0053-0.046743 0.07056-0.069233 0.06879-0.021167-0.0044-0.035278-0.05336-0.013229-0.06879 0-0.01323-0.00132-0.01411 0-0.02778 0.00617-0.0079 0.023371-0.02866 0.04101-0.02734zm-0.11024 0.01367c0.00617 0 0.011464-0.0044 0.013671 0-0.00309 0.02337-0.00926 0.03043-0.02734 0.04145-0.031309 0.01896-0.058649 0.04233-0.069233 0.08246-0.00309 0.01191-0.039688 0.0441-0.055122 0.04145-0.034837-0.0075 0.019844-0.07276 0.027781-0.0829 0.00882-0.01103 0.01764-0.01455 0.027781-0.02734 0.0097-0.01235 0.017638-0.0344 0.02734-0.04145a0.10848 0.10848 0 0 1 0.055122-0.01367zm2.9902 0.06879c0.03528-0.0044 0.05292 0.0344 0.06923 0.05512 0.01323 0.01764 0.04718 0.04322 0.06879 0.05512 0.01235 0.0066 0.02734 0.02161 0.04101 0.02778 0.02866 0.01279 0.08158 0.05424 0.0829 0.08246 4.5e-4 0.01411-0.01587 0.02822-0.01367 0.04145 0.02161 0.0044 0.04057-0.03351 0.04101-0.05512 0.04057 0.05733 0.07541 0.11818 0.11024 0.17904 0.01676 0.0291 0.03969 0.05292 0.05512 0.0829-0.0194 0.0057-0.02425 0.0088-0.02734 0.02734-0.0044 0.02469 0.0093 0.06482-0.02778 0.06923-0.02293 0.0044-0.05027-0.02028-0.08246-0.02778-0.01323-0.0044-0.03087 0.0044-0.04145 0-0.02425-0.0079-0.02029-0.04057-0.04101-0.05512a0.22093 0.22093 0 0 0-0.06923-0.02778c-0.01191 0-0.01499 0.0044-0.02734 0-0.01499-0.0044-0.04277 0.0062-0.05512 0a0.14155 0.14155 0 0 1-0.04145-0.04101c-0.0049-0.01632 0.04057-0.02778 0.04145-0.04145 8.73e-4 -0.01058-0.01191-0.02514-0.01411-0.04145-0.0013-0.0097 0.0022-0.02073 0-0.02734-0.0031-0.01146-0.02293-0.01323-0.04101-0.01411h-0.04145c-0.0194 0-0.05865-0.0018-0.0829 0-0.01455 0-0.02734-0.0013-0.04101 0-0.03836 0.0044-0.06659-0.0044-0.09657 0a0.27693 0.27693 0 0 0-0.0829 0.02778l-0.02734 0.01367a0.18124 0.18124 0 0 1-0.02778 0.01411c-0.01191 0.0057-0.0291 0.02381-0.04101 0.02734-0.01764 0.0044-0.03792-0.0044-0.06923 0-0.02205 0-0.05424-0.01455-0.05512-0.04145 0-0.04101 0.07188-0.01984 0.11024-0.02734 0.01455-0.0044 0.02381-0.0172 0.04145-0.02778 0.0088-0.0044 0.0062-0.0084 0.01411-0.01367 0.01323-0.0093 0.0388-0.03087 0.04101-0.04145 0.0018-0.0097-0.0013-0.01984 0-0.02734 0.0018-0.0093 0.01587-0.01543 0.02778-0.02778 0.01852-0.01852 0.03219-0.04322 0.05512-0.05512 0.01543-0.0079 0.03396-0.01455 0.04101-0.02734 0.0018-0.01411 0-0.01455 0-0.02778a0.057326 0.057326 0 0 1 0.02778-0.01367c0.02381-0.0053 0.04101 0.0013 0.06879 0 0.01191 0 0.02866 0.0057 0.04145 0 0.01058-0.0071 0.01676-0.02205 0.02778-0.02778a0.10892 0.10892 0 0 1 0.04101-0.01323zm0.24827 0.26194h-0.05512c-0.0194 0-0.0441-0.01014-0.05512 0 0.01632 0.02646 0.04586 0.03484 0.08246 0.04145a0.085108 0.085108 0 0 0 0.02778-0.04145zm-3.018-0.24826h0.041452c0.011025 0 0.022932-0.0044 0.02734 0-0.00706 0.0291-0.073642 0.02469-0.096132 0.01411 8.731e-4 -0.01103 0.013229-0.01235 0.02734-0.01411zm-0.096573 0.05512c-0.018963 0.01411-0.038365 0.03219-0.068792 0.04145-0.016756 0.0053-0.038365 0.0049-0.041451-0.01367-0.00353-0.02293 0.026458-0.01147 0.041451-0.01367 0.019402-0.0044 0.046302-0.01323 0.068792-0.01411zm2.8663 0c-0.01455 0.0048-0.02161 0.03704 0 0.04145 0.01014-0.0062 0.01676-0.02205 0.01411-0.04101-0.0057-0.0062-0.0097-0.0044-0.01411 0zm-0.02734 0.06923c0 0.02469 0.0044 0.04718 0 0.06879 0.01411 0.02734 0.04807 0.0044 0.05512-0.01367 0.0084-0.04586-0.0066-0.06085-0.02778-0.05512-0.0071 0.0044-0.01984-0.0057-0.02734 0zm-3.6521 1.0332c0.025135 0.02249 0.039687 0.05424 0.069233 0.06923a0.20682 0.20682 0 0 0 0.04101 0.01367c0.011906 0.0044 0.016756-0.0035 0.027781 0 0.023371 0.0079 0.050271 0.01896 0.068792 0.02778 0.028222 0.01235 0.058649 0.05468 0.082903 0.06879 0.00132 0.01411-0.00441 0.03087 0 0.04101 0.011464 0.01543 0.02249 0.03087 0.04101 0.04145 0.02249 0.01235 0.034396 0.03175 0.055122 0.04145 0.0075 0.0044 0.016317-0.0044 0.027781 0 0.029104 0.0088 0.044097 0.04851 0.068792 0.04145 0.016316-0.0049 0.011465-0.02558 0.014111-0.04145 0.011025-0.01191 0.023813-0.02778 0.04101-0.02778 0.02734 0 0.031309 0.04233 0.041451 0.06923 0.00573 0.01499 0.023813 0.02514 0.027781 0.04101a0.41584 0.41584 0 0 1 0 0.12435c-0.00706 0.02029-0.038365 0.01896-0.055121 0.04101-0.00794 0.01058-0.00794 0.03395-0.01411 0.04145-0.010583 0.01323-0.019402 0.01543-0.02734 0.02778a0.198 0.198 0 0 0-0.014112 0.02734c-0.013229 0.02822-0.038365 0.04851-0.02734 0.0829 0.00441 0.01323 0.027781 0.02469 0.027781 0.04101 0 0.0194-0.038365 0.03395-0.041451 0.05512-0.0022 0.01543 0.00882 0.03484 0.013671 0.05512 0.00353 0.01543 0.032191 0.03131 0.041451 0.04145 0.015433 0.01764 0.026899 0.04718 0.04101 0.06923 0.027781 0.04277 0.041893 0.09569 0.069233 0.13758 0.014552 0.02161 0.04542 0.03219 0.055121 0.05512 0.00441 0.01146-0.00441 0.03087 0 0.04145 0.015875 0.03528 0.088195 0.07893 0.12391 0.09613 0.016756 0.0088 0.039687 0.0053 0.055121 0.01411 0.023371 0.01323 0.070556 0.04851 0.082903 0.06879 0.010141 0.01852 0.00838 0.06703 0.013229 0.09657 0.00706 0.0388-0.00132 0.06835 0 0.11024 0.00177 0.02293 0.01411 0.03219 0.01411 0.05512v0.04101c-4.498e-4 0.02734 0.0022 0.05512 0 0.0829a0.2637 0.2637 0 0 0 0 0.04145c0.00132 0.01323 0.013229 0.01499 0.013671 0.02734 8.731e-4 0.01323-0.014994 0.03131-0.013671 0.04145 0.00309 0.02778 0.022048 0.04322 0.027781 0.06879 0.00441 0.02029 0.016317 0.07232 0.013229 0.09657-0.00132 0.01279-0.011464 0.02646-0.013229 0.04145-0.00132 0.01146 0.00132 0.01676 0 0.02734-0.00132 0.01014 0.0022 0.0194 0 0.02778-0.01411-0.0088-0.027781-0.01852-0.041451-0.02778a2.2944 2.2944 0 0 1-0.33073-0.27555l-0.041451-0.04101a2.2931 2.2931 0 0 1-0.22049-0.27561c-0.00617-0.0088-0.00794-0.01896-0.013671-0.02778a2.1272 2.1272 0 0 1-0.19315-0.35851c-0.00397-0.0088-0.0097-0.01764-0.013671-0.02734a2.2132 2.2132 0 0 1-0.12391-0.4273 2.2093 2.2093 0 0 1-0.041451-0.39952c0-0.10495 0.013229-0.20241 0.027781-0.30339zm0.8546 0.2346c0.021167-0.0097 0.017198 0.02426 0 0.02734-0.016316 0.0044-0.015875-0.0194 0-0.02734z" fill="#fff" stroke-width=".22049"/>
 </g>
</svg>
