<?xml version="1.0" encoding="UTF-8"?>
<svg width="64" height="64" version="1.1" xmlns="http://www.w3.org/2000/svg" xmlns:cc="http://creativecommons.org/ns#" xmlns:dc="http://purl.org/dc/elements/1.1/" xmlns:rdf="http://www.w3.org/1999/02/22-rdf-syntax-ns#" xmlns:xlink="http://www.w3.org/1999/xlink">
 <metadata>
  <rdf:RDF>
   <cc:Work rdf:about="">
    <dc:format>image/svg+xml</dc:format>
    <dc:type rdf:resource="http://purl.org/dc/dcmitype/StillImage"/>
   </cc:Work>
  </rdf:RDF>
 </metadata>
 <defs>
  <filter id="filter954-5" x="-.18" y="-.18" width="1.36" height="1.36" color-interpolation-filters="sRGB">
   <feGaussianBlur stdDeviation="0.11906016"/>
  </filter>
  <filter id="filter962-3" x="-.18" y="-.18" width="1.36" height="1.36" color-interpolation-filters="sRGB">
   <feGaussianBlur stdDeviation="0.11906016"/>
  </filter>
  <linearGradient id="linearGradient1539" x1="-66.731" x2="-15.104" y1="25.014" y2="59.532" gradientTransform="matrix(1 0 0 1 127.06 26.375)" gradientUnits="userSpaceOnUse">
   <stop stop-color="#464646" offset="0"/>
   <stop stop-color="#1e1e1e" offset="1"/>
  </linearGradient>
  <linearGradient id="linearGradient911" x1="-70.642" x2="-70.642" y2="2.6738" gradientTransform="matrix(3.4646 0 0 3.4646 315.62 30.833)" gradientUnits="userSpaceOnUse">
   <stop stop-color="#1e1e1e" offset="0"/>
   <stop stop-color="#464646" offset="1"/>
  </linearGradient>
  <linearGradient id="linearGradient913" x1="-62.705" x2="-62.705" y2="3.8515" gradientTransform="matrix(3.4646 0 0 3.4646 315.62 30.833)" gradientUnits="userSpaceOnUse">
   <stop stop-color="#1e1e1e" offset="0"/>
   <stop stop-color="#464646" offset="1"/>
  </linearGradient>
 </defs>
 <g transform="translate(-52.625 -26.375)">
  <path d="m73.625 30.833v5.5001h22v-5.5001z" fill="#141414" stroke-width="3.7796"/>
  <path d="m58.959 41.746c-0.90208 0-1.6453 0.64612-1.8008 1.502-0.01134 0.22251-0.03326 0.44259-0.03326 0.66797v29.001c0 3.5821 1.4358 6.8154 3.7638 9.1621h47.472c2.3279-2.3468 3.7637-5.5802 3.7637-9.1621v-29.001c0-0.22539-0.0219-0.44546-0.0333-0.66797-0.15557-0.85585-0.89875-1.502-1.8008-1.502z" fill="#5a5a5a" stroke-width="3.4646"/>
  <rect transform="matrix(3.4646 0 0 3.4646 55.292 29.084)" x="3.7041" y="3.7283" width="1.5875" height="1.5875" ry="0" filter="url(#filter954-5)" opacity=".5"/>
  <rect transform="matrix(3.4646 0 0 3.4646 55.292 29.084)" x="11.641" y="3.7283" width="1.5875" height="1.5875" ry="0" filter="url(#filter962-3)" opacity=".5"/>
  <path d="m68.126 40.168v5.5001h-9.1663c-1.0157 0-1.834 0.81639-1.834 1.832v25.417c0 7.202 5.7983 13 13 13h29.001c7.1888 0 12.977-5.7775 12.998-12.961v-25.456c0-1.0157-0.81832-1.832-1.834-1.832h-9.1663v-5.5001h-5.5001v5.5001h-22v-5.5001z" fill="url(#linearGradient1539)" stroke-width="3.7796"/>
  <path d="m73.625 40.168v-9.3345l-5.5001 4.5835v4.751z" fill="url(#linearGradient911)" stroke-width="3.4646"/>
  <path d="m95.625 40.168v-9.3345l5.5001 4.5835v4.751z" fill="url(#linearGradient913)" stroke-width="3.4646"/>
  <path d="m84.631 57.375a10 10 0 1 0 0 20.001 10 10 0 0 0 0-20.001zm0 1.6667c0.28835 0 0.55333 0.02343 0.83336 0.05167 0.06667 0.0068 0.14166-0.0083 0.20833 0 0.08833 0.01172 0.17333 0.03833 0.26 0.05333 0.24 0.03666 0.44501 0.09834 0.67836 0.155 0.42668 0.10666 0.85003 0.24836 1.25 0.41666 0.21835 0.09332 0.415 0.20168 0.625 0.31333v0.05167c0.04668 0.02154 0.07332 0.11165 0.155 0.15666 0.02986 0.01663 0.02495 0.03666 0.05333 0.05167 0.04668 0.02683 0.11335 0.05666 0.10333 0.105-0.01323 0.06667-0.10999 0.05167-0.15666 0.10333 0.0068 0.09668-0.07831 0.09169-0.10334 0.15666 0.01512 0.04169 0.09668 0.05333 0.10334 0.10333-0.0083 0.05333-0.12333 0.05-0.10334 0.105 0.08999 0.07 0.175 0.01663 0.26 0 0.18668-0.02343 0.35336-0.0098 0.46833-0.105-0.01512-0.08833 0.16668-0.07499 0.15666-0.155 0.04834 0.03326 0.10832 0.06667 0.15666 0.10333-0.01852 0.01663-0.03326 0.04335-0.05333 0.05167-0.03326 0.01663-0.07166 0.03326-0.10333 0.05333l-0.15666 0.10334c-0.03833 0.02683-0.11668 0.15666-0.155 0.15666-0.05 0-0.12166-0.06335-0.15666-0.05333-0.05001 0.01663-0.04834 0.085-0.105 0.105-0.10999 0.03999-0.32667-0.06002-0.36333 0.105 0.04668 0.09502 0.22833 0.05 0.31167 0.10333a0.51667 0.51667 0 0 1 0.15666 0.20833 0.98334 0.98334 0 0 1 0 0.31333c-0.05167 0.13334-0.21166 0.105-0.365 0.10333h-0.105c-0.25667-0.01663-0.50836-0.13334-0.625 0.05167 0.0083 0.14166 0.03326 0.24167 0 0.365-0.02154 0.08999-0.15999 0.18335-0.155 0.26 0 0.03999 0.09332 0.10001 0.10333 0.15666 0.0068 0.02986-0.01323 0.07499 0 0.105 0.04331 0.08168 0.13334-0.01663 0.20833 0 0.07332 0.01663 0.15666 0.12499 0.15666 0.20833a0.43333 0.43333 0 0 1-0.05167 0.20833c-0.07332 0.10999-0.20833 0.09502-0.31333 0.155-0.08667 0.05-0.10333 0.175-0.155 0.26166-0.05499 0.09332-0.12665 0.12665-0.105 0.26a0.60833 0.60833 0 0 1-0.31333 0.31167c-0.04501 0.02003-0.11335 0.02343-0.155 0.05333-0.03326 0.02343-0.05832 0.10167-0.105 0.155-0.05832 0.06667-0.12333 0.10666-0.155 0.15666-0.02495 0.03833-0.02835 0.10333-0.05333 0.15666-0.03666 0.07-0.10999 0.085-0.155 0.155-0.02154 0.03326-0.02986 0.11335-0.05333 0.15666-0.05333 0.09668-0.11335 0.17666-0.10333 0.26166 0.0083 0.08001 0.10001 0.08334 0.10333 0.155 0.0049 0.03999-0.05333 0.06002-0.05167 0.105 0.0017 0.06335 0.04668 0.105 0.05167 0.155 0.01172 0.12333-0.08001 0.17666-0.10333 0.26166-0.01172 0.03999 0.0098 0.07 0 0.10333-0.02003 0.06168-0.10334 0.13501-0.105 0.20833 0 0.05167 0.10001 0.08334 0.105 0.15666 0.0033 0.04834-0.06168 0.10999-0.05333 0.15666 0.01814 0.08999 0.19166 0.19 0.26166 0.26 0.09498 0.09502 0.21835 0.15999 0.26 0.26 0.03515 0.085 0.03999 0.25002 0.105 0.31333 0.04668 0.04668 0.14665 0.05333 0.20833 0.10333 0.05666 0.04501 0.09332 0.05499 0.155 0.105 0.10167 0.08002 0.25501 0.27168 0.41666 0.26 0.085-0.01663 0.16668-0.08667 0.26166-0.105 0.09834-0.01663 0.21166-0.05998 0.31167-0.05 0.07669 0.01663 0.18002 0.05499 0.26 0.05 0.08334-0.01663 0.16668-0.0098 0.26166-0.05 0.16502-0.07332 0.4367-0.19166 0.6767-0.15833 0.18335 0.02684 0.18335 0.23169 0.31167 0.31333 0.14669 0.01663 0.24832-0.02835 0.365 0 0.08833 0.02154 0.20002 0.13833 0.20833 0.20833 0.0083 0.07166-0.09498 0.16335-0.105 0.20833-0.02154 0.09668 0.01663 0.20002 0 0.26-0.01323 0.05-0.05333 0.10832-0.05 0.15666 0 0.04331 0.05832 0.15001 0.10333 0.20833 0.05499 0.07 0.14166 0.13334 0.20833 0.20833 0.12166 0.14 0.175 0.28336 0.26 0.46833 0.02154 0.04668-0.02003 0.09668 0 0.15666-0.03666 0.27999-0.12998 0.47169-0.31333 0.7817-0.085 0.10001-0.20999 0.18668-0.20833 0.31167-0.0049 0.30002 0.17001 0.49169 0.15666 0.7817-0.02986 0.39002 0.02986 0.41666 0 0.625 0.13334 0.06667 0.03833 0.27833 0 0.41666-0.05666 0.16502-0.12333 0.20168-0.155 0.31333 0.08833 0.03833 0.21332 0.02154 0.31167 0l-0.15666 0.155a8.6719 8.6719 0 0 1-1.25 1.0417 8.2335 8.2335 0 0 1-2.8634 1.25 8.3083 8.3083 0 0 1-1.7717 0.15666c-0.31669 0-0.63002-0.01663-0.93836-0.05167-0.24333-0.02835-0.49003-0.05666-0.72833-0.105-0.47169-0.09668-0.915-0.295-1.355-0.46833-0.01512-0.02835-0.05499-0.07-0.05-0.105 0.085-0.03666 0.24836 0.12333 0.31167 0 0.03175-0.05832-0.04169-0.20002 0-0.26 0.02986-0.03999 0.19835-0.03999 0.26-0.05167 0.08833-0.01663 0.21-0.02835 0.26-0.05167 0.05499-0.03515 0.11501-0.15833 0.105-0.26166-0.0049-0.04834-0.06667-0.06002-0.105-0.10334-0.03175-0.03666 0.02154-0.07 0-0.105-0.03999-0.05832-0.13833-0.07-0.155-0.155 0.12-0.02343 0.295 0.10001 0.46667 0.05167 0.08334-0.02343 0.22334-0.18335 0.26166-0.26 0.01172-0.02343-0.01323-0.07499 0-0.105 0.01512-0.02986 0.04668-0.08667 0.05167-0.10333 0.01172-0.04502-0.0098-0.02343 0-0.05333 0.02986-0.08334 0.10666-0.14665 0.15666-0.20833 0.03833-0.04668 0.12167-0.10666 0.15666-0.155 0.03999-0.05167 0.02495-0.05832 0.05167-0.105 0.02495-0.15001-0.08833-0.28336-0.05167-0.41666 0.03999-0.15001 0.27168-0.24333 0.41666-0.31167 0.05-0.02343 0.11335-0.03833 0.155-0.05333 0.10001-0.03326 0.22001-0.07 0.31333-0.10333 0.15666-0.05666 0.18335-0.17001 0.26-0.31333 0.03666-0.06667 0.09835-0.15833 0.105-0.20833 0.0068-0.04331-0.0083-0.05167 0-0.10333 0.0083-0.04834-0.01323-0.10001 0-0.15666 0.01663-0.07166 0.05167-0.23335 0.05167-0.31167 0-0.06667-0.05-0.09668-0.05167-0.15666-0.01172-0.21668 0.07669-0.19499 0.155-0.31333 0.03999-0.05832 0.07669-0.16668 0.105-0.20833 0.13501-0.20002 0.38166-0.26835 0.365-0.57166-0.0068-0.10001-0.08334-0.33332-0.15666-0.365-0.04169-0.01814-0.09502-0.02986-0.15666-0.05167-0.19669-0.07332-0.36666-0.29666-0.57166-0.31333h-0.105c-0.08002 0-0.17001-0.03999-0.26-0.05167-0.05666-0.01663-0.175 0.01663-0.20833 0-0.05167-0.02495-0.06335-0.12836-0.105-0.15666-0.03326-0.02343-0.105-0.03326-0.155-0.05167-0.08334-0.02986-0.11335-0.09835-0.20833-0.105-0.02986 0-0.07166 0.01663-0.105 0-0.05167-0.01663-0.10832-0.02154-0.15666-0.05-0.06002-0.03833-0.13002-0.05333-0.155-0.105 0.05499-0.17998-0.12-0.20833-0.15666-0.31333-0.01663-0.04834 0.01663-0.16502 0-0.20833-0.02154-0.06168-0.08833-0.10334-0.15666-0.155a0.62333 0.62333 0 0 0-0.365-0.15666c-0.07669-0.01663-0.16834 0.01663-0.26 0a0.59336 0.59336 0 0 1-0.31334-0.15667c-0.07-0.08168-0.09332-0.17001-0.155-0.20833-0.05832-0.03666-0.11668-0.06667-0.15666-0.105-0.01852-0.01663-0.03515-0.01323-0.05167-0.05-0.02986-0.06335-0.08999-0.08334-0.05333-0.15833-0.06667-0.03326-0.03175 0.06501-0.10333 0.05333-0.06501-0.09169-0.11335-0.18335-0.26-0.15666-0.06667 0.01663-0.12998 0.155-0.20833 0.15666-0.06667 0-0.12333-0.14332-0.20834-0.15666-0.06667-0.01663-0.16334 0.05998-0.20834 0.05167-0.07167-0.01663-0.09167-0.05998-0.15667-0.10333-0.04833-0.03326-0.13-0.10666-0.15667-0.105-0.08333 0-0.145 0.16668-0.26001 0.105-0.05667-0.07166 0.11834-0.08999 0.05167-0.15666-0.05-0.04834-0.06333 0.02835-0.10333 0.05167-0.04667 0.02986-0.105 0.03326-0.15667 0.05333-0.115 0.04331-0.22334 0.05499-0.31334 0.10333a0.30834 0.30834 0 0 0-0.155 0.15666c-0.03833 0.07-0.09833 0.205-0.15667 0.20833-0.07 0-0.09333-0.07669-0.15667-0.105-0.19167-0.08334-0.31001 0.05-0.46833 0.05333-0.14667 0-0.37168-0.22666-0.36501-0.36666 5e-3 -0.08334 0.04333-0.20667 0.05333-0.31167 0.0083-0.08334 0.10167-0.18335 0.10333-0.26 0.0017-0.10333-0.19334-0.14498-0.26001-0.15666-0.15667-0.02835-0.34334 0.07-0.52166 0-0.03334-0.05666 0.03334-0.10001 0.05333-0.155 0.01168-0.02986-0.01168-0.07 0-0.105 0.01833-0.05333 0.13-0.10001 0.155-0.15666 0.01833-0.04331-0.01667-0.10001 0-0.155 0.02166-0.05998 0.1-0.11335 0.105-0.15666 0.0067-0.05666-0.06-0.12-0.105-0.15666-0.13834 0.01663-0.23334 0.01172-0.31167 0.05167-0.18 0.08334-0.13167 0.30834-0.31334 0.365a1.5234 1.5234 0 0 1-0.20833 0.05167c-0.03001 0.01663-0.07-0.0033-0.10333 0 0.0033-0.01663-0.0033-0.03326 0-0.05167 0.0067-0.03833 0.04333-0.06667 0.05167-0.105a8.1836 8.1836 0 0 1 0.52166-1.5617h0.05c0.065 0.01663 0.10334 0.10001 0.15834 0.105 0.15167 0.01663 0.185-0.14166 0.31167-0.20833 0.13 0.01663 0.195-0.01663 0.31334 0 0.08 0.01663 0.19667 0.09668 0.26001 0.10333 0.05333 0 0.05333-0.05832 0.10333-0.05167 0.05 0.01663 0.14834 0.09502 0.15667 0.155 0.0083 0.07502-0.07333 0.17832-0.05167 0.26166 0.07833 0.08001 0.25334 0.10832 0.36334 0.155 0.07333-0.06168 0.01168-0.17333 0-0.26 0-0.03833 5e-3 -0.12 0-0.155-0.0067-0.05998-0.05-0.105-0.05-0.15666 0-0.23834 0.20334-0.32334 0.36334-0.41666 0.06833-0.03999 0.14833-0.12665 0.20834-0.15666 0.085-0.04165 0.13834-0.01172 0.20834-0.05167 0.12667-0.07166 0.215-0.18002 0.31334-0.26166 0.045-0.10832-5e-3 -0.25667 0-0.36333 0.045-0.02835 0.10667 0 0.155 0 0.07667-0.01663 0.11334-0.11335 0.15667-0.15666 0.02498-0.02494 0.07333-0.02683 0.105-0.05167 0.075-0.05998 0.08833-0.13002 0.155-0.15666a0.43333 0.43333 0 0 1 0.105-0.05167c0.05-0.01663 0.12834-0.02343 0.20834-0.05333 0.05-0.01663 0.18834-0.02986 0.20833-0.05 0.02495-0.02683-0.0068-0.12 0-0.15833 0.03999-0.18668 0.29999-0.19669 0.46833-0.26 0.11668-0.04331 0.23335-0.17832 0.365-0.155-0.02495 0.08999-0.12665 0.10001-0.105 0.20833 0.02835 0.15001 0.20833-0.03175 0.26166-0.05333 0.10001-0.04331 0.28336-0.105 0.41666-0.155 0.11668-0.04169 0.31669-0.07499 0.20833-0.20833-0.09166-0.01663-0.13002 0.07-0.20833 0.10333-0.05499 0.01663-0.05832-0.04668-0.105-0.05167-0.04502 0-0.05832 0.06002-0.105 0.05167-0.04501-0.01663-0.09668-0.10001-0.10333-0.15666-0.01852-0.14 0.10001-0.15666 0.15666-0.26-0.03833-0.12669-0.20667-0.05499-0.31333-0.105a0.18834 0.18834 0 0 1 0.15666-0.155c0.07166-0.01663 0.27002 0.01323 0.31333 0.05167 0.02495 0.02154-0.03833 0.07 0 0.105 0.04331 0.03833 0.10001 0.01663 0.155 0 0.02003-0.09502-0.12-0.04331-0.10334-0.105 0.11335-0.07332 0.33-0.03326 0.46833-0.05167a1.1334 1.1334 0 0 0 0.26-0.105c0.06667-0.03833 0.08667-0.11501 0.15666-0.05167 0.02003 0.06834-0.01323 0.12-0.05167 0.15666-0.12832 0.11335-0.26499 0.23335-0.365 0.36333 0.06168 0.05998 0.15666 0.04169 0.26 0.05333 0.03999 0.01663 0.11501-0.0083 0.15666 0 0.05 0.01663 0.11668-0.01663 0.15666 0 0.07 0.01663 0.08667 0.155 0.155 0.155 0.11335 0 0.06667-0.13334 0-0.20833 0.02003-0.07831 0.08168-0.15168 0.05333-0.20833-0.05167-0.10333-0.24998 0.03175-0.26166-0.10333-0.0049-0.08334 0.07499-0.09332 0.105-0.15666-0.01323-0.15999 0.12-0.16668 0.105-0.31167-0.0083-0.05998-0.06335-0.04834-0.105-0.105-0.02154-0.02986-0.02684-0.13334-0.05167-0.155-0.08667-0.07332-0.25002-0.01663-0.26166-0.15666-0.0033-0.08334 0.01172-0.17167 0-0.26166-0.01172-0.08334-0.08334-0.34666-0.155-0.36333-0.09332-0.02003-0.15001 0.155-0.26166 0.20833a0.6267 0.6267 0 0 1-0.26 0.05167c-0.03999-0.01663-0.10001-0.02495-0.10334-0.105-0.0068-0.07 0.07835-0.10001 0.10334-0.155 0.0068-0.01323-0.0033-0.03326 0-0.05333 0.12166-0.03326 0.24167-0.07499 0.365-0.10333 0.07-0.01663 0.13833-0.03833 0.20833-0.05167 0.05-0.0098 0.10666 0.0083 0.15666 0a8.3503 8.3503 0 0 1 1.5101-0.1567zm-3.3851 0.7817c-0.05333 0.30335-0.33835 0.42502-0.67836 0.41666-0.07499 0.07332-0.0098 0.21-0.05 0.31167-0.03666 0.085-0.17667 0.16336-0.26167 0.15666-0.06167 0-0.15667-0.09835-0.15667-0.15666 0-0.07166 0.115-0.07332 0.05333-0.155 0.0017-0.01663 0.03334-0.03666 0.05-0.05333 0.035-0.02003 0.07167-0.03175 0.105-0.05167 0.30168-0.18667 0.61169-0.32168 0.93836-0.46833zm6.9787 0.31167c-0.02986 0.01663-0.02495 0.03666-0.05167 0.05333-0.06335 0.03833-0.10832 0.085-0.15666 0.10333-0.06667 0.02495-0.14499 0.04169-0.155 0.105-0.0083 0.05 0.05333 0.05499 0.05 0.10333-0.02343 0.06168-0.03666 0.08168-0.05 0.15666 0.08334 0.13833 0.25834-0.03175 0.36333-0.05333 0.04668-0.01663 0.08002-0.01172 0.105-0.05 0.02835-0.04668 0.02986-0.09332 0.05167-0.15833 0.02343-0.07 0.11335-0.09332 0.105-0.155-0.0068-0.06168-0.15833-0.11335-0.26166-0.105zm-9.1134 1.0417c0.07833 0.06335 0.19 0.20002 0.05 0.26166a0.86001 0.86001 0 0 1-0.25834 0.05c-0.01667 0-0.03833-0.03833-0.05333-0.05 0.08667-0.08334 0.17166-0.18169 0.26167-0.26166zm0.31167 0.31333c0.04 0 0.05667 0.10001 0.105 0.10333 0.045 0 0.07667-0.05832 0.10333-0.05167 0.07 0.01852 0.11834 0.15666 0.05167 0.20833-0.055 0.01663-0.06333-0.05832-0.10333-0.05167-0.11334 0.02003-0.17667 0.26669-0.26167 0.26-0.08-0.01663-0.13334-0.20168-0.05-0.26 0-0.05-5e-3 -0.05333 0-0.105 0.02332-0.02986 0.08833-0.10832 0.155-0.10333zm-0.41666 0.05167c0.02332 0 0.04333-0.01663 0.05167 0-0.01168 0.08833-0.035 0.11501-0.10333 0.15666-0.11834 0.07166-0.22167 0.15999-0.26167 0.31167-0.01168 0.04501-0.15 0.16668-0.20834 0.15666-0.13167-0.02835 0.075-0.275 0.105-0.31333 0.03334-0.04169 0.06667-0.05499 0.105-0.10333 0.03666-0.04668 0.06666-0.13002 0.10333-0.15666a0.41001 0.41001 0 0 1 0.20834-0.05167zm11.302 0.26c0.13334-0.01663 0.20002 0.13002 0.26166 0.20833 0.05 0.06667 0.17832 0.16335 0.26 0.20833 0.04668 0.02495 0.10333 0.08168 0.155 0.105 0.10832 0.04834 0.30834 0.205 0.31333 0.31167 0.0017 0.05333-0.05998 0.10666-0.05167 0.15666 0.08168 0.01663 0.15334-0.12665 0.155-0.20833 0.15334 0.21668 0.28502 0.44667 0.41666 0.6767 0.06335 0.10999 0.15001 0.20002 0.20833 0.31333-0.07332 0.02154-0.09166 0.03326-0.10334 0.10334-0.01663 0.09332 0.03515 0.24499-0.105 0.26166-0.08667 0.01663-0.19-0.07665-0.31167-0.105-0.05-0.01663-0.11668 0.01663-0.15666 0-0.09166-0.02986-0.07669-0.15334-0.155-0.20833a0.83503 0.83503 0 0 0-0.26166-0.105c-0.04501 0-0.05666 0.01663-0.10333 0-0.05666-0.01663-0.16165 0.02343-0.20833 0a0.535 0.535 0 0 1-0.15666-0.155c-0.01852-0.06168 0.15334-0.105 0.15666-0.15666 0.0033-0.03999-0.04501-0.09502-0.05333-0.15666-0.0049-0.03666 0.0083-0.07835 0-0.10333-0.01172-0.04331-0.08667-0.05-0.155-0.05333h-0.15666c-0.07332 0-0.22167-0.0068-0.31333 0-0.05499 0-0.10333-0.0049-0.155 0-0.14499 0.01663-0.25168-0.01663-0.365 0a1.0467 1.0467 0 0 0-0.31333 0.105l-0.10333 0.05167a0.68502 0.68502 0 0 1-0.105 0.05333c-0.04501 0.02154-0.10999 0.08999-0.155 0.10333-0.06667 0.01663-0.14332-0.01663-0.26166 0-0.08334 0-0.205-0.05499-0.20833-0.15666 0-0.155 0.27168-0.07499 0.41666-0.10333 0.05499-0.01663 0.08999-0.06501 0.15666-0.105 0.03326-0.01663 0.02343-0.03175 0.05333-0.05167 0.05-0.03515 0.14665-0.11668 0.155-0.15666 0.0068-0.03666-0.0049-0.07499 0-0.10334 0.0068-0.03515 0.05998-0.05832 0.105-0.105 0.07-0.07 0.12166-0.16336 0.20833-0.20833 0.05832-0.02986 0.12836-0.05499 0.155-0.10333 0.0068-0.05333 0-0.05499 0-0.105a0.21667 0.21667 0 0 1 0.105-0.05167c0.08999-0.02003 0.155 0.0049 0.26 0 0.04502 0 0.10832 0.02154 0.15666 0 0.03999-0.02683 0.06335-0.08334 0.105-0.105a0.41167 0.41167 0 0 1 0.155-0.05zm0.93836 0.99003h-0.20833c-0.07332 0-0.16668-0.03833-0.20833 0 0.06168 0.10001 0.17333 0.13168 0.31167 0.15666a0.32167 0.32167 0 0 0 0.105-0.15666zm-11.407-0.93833h0.15667c0.04167 0 0.08667-0.01663 0.10334 0-0.02668 0.10999-0.27834 0.09332-0.36334 0.05333 0.0033-0.04169 0.05-0.04668 0.10333-0.05333zm-0.36501 0.20833c-0.07167 0.05333-0.145 0.12166-0.26001 0.15666-0.06333 0.02003-0.145 0.01852-0.15667-0.05167-0.01334-0.08667 0.1-0.04335 0.15667-0.05167 0.07333-0.01663 0.175-0.05 0.26001-0.05333zm10.833 0c-0.05499 0.01814-0.08168 0.14 0 0.15666 0.03833-0.02343 0.06335-0.08334 0.05333-0.155-0.02154-0.02343-0.03666-0.01663-0.05333 0zm-0.10333 0.26166c0 0.09332 0.01663 0.17832 0 0.26 0.05333 0.10334 0.18168 0.01663 0.20833-0.05167 0.03175-0.17333-0.02494-0.22999-0.105-0.20833-0.02683 0.01663-0.07499-0.02154-0.10333 0zm-13.803 3.9051c0.095 0.085 0.15 0.20501 0.26167 0.26166a0.7817 0.7817 0 0 0 0.155 0.05167c0.045 0.01663 0.06333-0.01323 0.105 0 0.08833 0.02986 0.19 0.07166 0.26001 0.105 0.10667 0.04668 0.22167 0.20667 0.31334 0.26 5e-3 0.05333-0.01667 0.11668 0 0.155 0.04333 0.05832 0.085 0.11668 0.155 0.15666 0.085 0.04668 0.13 0.12 0.20834 0.15666 0.02835 0.01663 0.06167-0.01663 0.105 0 0.11 0.03326 0.16667 0.18335 0.26001 0.15666 0.06167-0.01852 0.04333-0.09668 0.05333-0.15666 0.04167-0.04502 0.09-0.105 0.155-0.105 0.10334 0 0.11834 0.15999 0.15667 0.26166 0.02166 0.05666 0.09 0.09502 0.105 0.155a1.5717 1.5717 0 0 1 0 0.46999c-0.02668 0.07669-0.145 0.07166-0.20834 0.155-0.03001 0.03999-0.03001 0.12832-0.05333 0.15666-0.04 0.05-0.07333 0.05832-0.10333 0.105a0.74836 0.74836 0 0 0-0.05334 0.10333c-0.05 0.10666-0.145 0.18335-0.10333 0.31333 0.01667 0.05 0.105 0.09332 0.105 0.155 0 0.07332-0.145 0.12832-0.15667 0.20833-0.0083 0.05832 0.03334 0.13168 0.05167 0.20833 0.01334 0.05832 0.12167 0.11834 0.15667 0.15666 0.05833 0.06667 0.10167 0.17832 0.155 0.26166 0.105 0.16165 0.15834 0.36167 0.26167 0.52 0.055 0.08168 0.17167 0.12166 0.20834 0.20833 0.01667 0.04331-0.01667 0.11668 0 0.15666 0.06 0.13334 0.33334 0.29832 0.46833 0.36333 0.06333 0.03326 0.15 0.02003 0.20834 0.05333 0.08833 0.05 0.26667 0.18335 0.31334 0.26 0.03833 0.07 0.03167 0.25335 0.05 0.365 0.02668 0.14665-5e-3 0.25834 0 0.41666 0.0067 0.08667 0.05333 0.12166 0.05333 0.20833v0.155c-0.0017 0.10333 0.0083 0.20833 0 0.31333a0.99668 0.99668 0 0 0 0 0.15666c5e-3 0.05 0.05 0.05666 0.05167 0.10334 0.0033 0.05-0.05667 0.11834-0.05167 0.15666 0.01168 0.105 0.08333 0.16336 0.105 0.26 0.01667 0.07669 0.06167 0.27334 0.05 0.365-5e-3 0.04834-0.04333 0.10001-0.05 0.15666-5e-3 0.04331 5e-3 0.06335 0 0.10333-5e-3 0.03833 0.0083 0.07332 0 0.105-0.05333-0.03326-0.105-0.07-0.15667-0.105a8.6719 8.6719 0 0 1-1.25-1.0415l-0.15667-0.155a8.667 8.667 0 0 1-0.83336-1.0417c-0.02332-0.03326-0.03001-0.07166-0.05167-0.105a8.04 8.04 0 0 1-0.73003-1.355c-0.01501-0.03326-0.03666-0.06667-0.05167-0.10334a8.365 8.365 0 0 1-0.46833-1.615 8.3503 8.3503 0 0 1-0.15667-1.51c0-0.39667 0.05-0.76503 0.105-1.1467zm3.23 0.8867c0.08-0.03666 0.065 0.09169 0 0.10333-0.06167 0.01663-0.06-0.07332 0-0.10333z" fill="#fff" stroke-width=".83336"/>
 </g>
</svg>
