<?xml version="1.0" encoding="UTF-8"?>
<svg width="64" height="64" version="1.1" viewBox="0 0 16.933 16.933" xmlns="http://www.w3.org/2000/svg" xmlns:cc="http://creativecommons.org/ns#" xmlns:dc="http://purl.org/dc/elements/1.1/" xmlns:rdf="http://www.w3.org/1999/02/22-rdf-syntax-ns#">
 <defs>
  <linearGradient id="linearGradient1115" x1="-29.448" x2="-29.448" y1="4.6371" y2="59.494" gradientTransform="matrix(.26459 0 0 .26459 16.852 -.0001006)" gradientUnits="userSpaceOnUse">
   <stop stop-color="#ff4b00" offset="0"/>
   <stop stop-color="#f50f2d" offset="1"/>
  </linearGradient>
  <filter id="filter971" x="-.108" y="-.108" width="1.216" height="1.216" color-interpolation-filters="sRGB">
   <feGaussianBlur stdDeviation="0.42861633"/>
  </filter>
 </defs>
 <metadata>
  <rdf:RDF>
   <cc:Work rdf:about="">
    <dc:format>image/svg+xml</dc:format>
    <dc:type rdf:resource="http://purl.org/dc/dcmitype/StillImage"/>
    <dc:title/>
   </cc:Work>
  </rdf:RDF>
 </metadata>
 <rect x="1.1905" y="1.1905" width="14.552" height="14.552" ry="3.4397" fill="url(#linearGradient1115)" image-rendering="optimizeSpeed" stroke-width=".12512"/>
 <path transform="matrix(1 0 0 1 4.323e-6 .25996)" d="m8.4427 3.9733a4.7624 4.7624 0 0 0-4.7386 4.7624 4.7624 4.7624 0 0 0 4.7624 4.7624 4.7624 4.7624 0 0 0 4.7624-4.7624 4.7624 4.7624 0 0 0-4.7624-4.7624 4.7624 4.7624 0 0 0-0.023771 0zm-1.1033 2.2913c0.092115 0.00478 0.17821 0.035202 0.25838 0.090949l2.9667 2.0443c0.09345 0.065827 0.1582 0.15268 0.1943 0.25993 0.0361 0.10726 0.0361 0.2157 0 0.324-0.03609 0.10725-0.10083 0.19412-0.19533 0.25889l-2.9657 2.0443c-0.10724 0.07327-0.22394 0.10274-0.35243 0.08681-0.12848-0.01593-0.23489-0.07235-0.3209-0.16898s-0.12971-0.20996-0.12971-0.33951v-4.088c0-0.12954 0.043695-0.2434 0.12971-0.34002 0.08602-0.09663 0.19242-0.15305 0.3209-0.16898 0.032032-0.00407 0.063344-0.00521 0.094049-0.00362z" filter="url(#filter971)" opacity=".3" stroke-linecap="round" stroke-linejoin="round" stroke-width="1.0462"/>
 <path d="m8.4429 3.7042a4.7625 4.7625 0 0 0-4.7387 4.7625 4.7625 4.7625 0 0 0 4.7625 4.7625 4.7625 4.7625 0 0 0 4.7625-4.7625 4.7625 4.7625 0 0 0-4.7625-4.7625 4.7625 4.7625 0 0 0-0.02377 0zm-1.1033 2.2913c0.09212 0.00478 0.17821 0.035203 0.25838 0.09095l2.9667 2.0443c0.09345 0.06583 0.1582 0.15268 0.1943 0.25993 0.0361 0.10726 0.0361 0.2157 0 0.32401-0.03609 0.10725-0.10084 0.19412-0.19534 0.2589l-2.9657 2.0443c-0.10725 0.07327-0.22396 0.10275-0.35243 0.08682-0.12848-0.01593-0.2349-0.07235-0.32091-0.16898-0.08601-0.09663-0.12971-0.20997-0.12971-0.33952v-4.0881c0-0.12955 0.0437-0.24339 0.12971-0.34003 0.08602-0.09663 0.19242-0.15305 0.32091-0.16898 0.03203-0.00407 0.06335-0.00521 0.09405-0.00362z" fill="#fff" stroke-linecap="round" stroke-width=".52917"/>
</svg>
